<svg width="61" height="61" viewBox="0 0 61 61" fill="none" xmlns="http://www.w3.org/2000/svg">
<rect width="61" height="61" rx="4" fill="#0078D4"/>
<path d="M12.397 41.5V19.6818H20.174C21.8714 19.6818 23.2777 19.9908 24.3928 20.6087C25.5078 21.2266 26.3423 22.0717 26.8963 23.1442C27.4503 24.2095 27.7273 25.4098 27.7273 26.745C27.7273 28.0874 27.4467 29.2947 26.8857 30.3672C26.3317 31.4325 25.4936 32.2777 24.3714 32.9027C23.2564 33.5206 21.8537 33.8295 20.1634 33.8295H14.8153V31.0384H19.8651C20.9375 31.0384 21.8075 30.8537 22.4751 30.4844C23.1428 30.108 23.6328 29.5966 23.9453 28.9503C24.2578 28.304 24.4141 27.5689 24.4141 26.745C24.4141 25.9212 24.2578 25.1896 23.9453 24.5504C23.6328 23.9112 23.1392 23.4105 22.4645 23.0483C21.7969 22.6861 20.9162 22.505 19.8224 22.505H15.6889V41.5H12.397ZM38.6497 41.5H31.5865V19.6818H38.8734C41.0112 19.6818 42.8471 20.1186 44.3812 20.9922C45.9153 21.8587 47.0907 23.1051 47.9075 24.7315C48.7314 26.3509 49.1433 28.2933 49.1433 30.5589C49.1433 32.8317 48.7278 34.7848 47.8968 36.4183C47.073 38.0518 45.8798 39.3089 44.3173 40.1896C42.7548 41.0632 40.8656 41.5 38.6497 41.5ZM34.8784 38.6236H38.4686C40.1305 38.6236 41.5119 38.3111 42.6127 37.6861C43.7136 37.054 44.5375 36.1413 45.0843 34.9482C45.6312 33.7479 45.9047 32.2848 45.9047 30.5589C45.9047 28.8473 45.6312 27.3949 45.0843 26.2017C44.5446 25.0085 43.7385 24.103 42.666 23.4851C41.5936 22.8672 40.2619 22.5582 38.671 22.5582H34.8784V38.6236Z" fill="white"/>
</svg>
