<svg width="616" height="63" viewBox="0 0 616 63" fill="none" xmlns="http://www.w3.org/2000/svg">
<path d="M3.95739 22H0.696023L8.02415 1.63636H11.5739L18.902 22H15.6406L9.88352 5.33523H9.72443L3.95739 22ZM4.50426 14.0256H15.0838V16.6108H4.50426V14.0256ZM22.104 22V6.72727H24.9776V9.15341H25.1367C25.4151 8.33144 25.9057 7.68513 26.6083 7.21449C27.3176 6.73722 28.1197 6.49858 29.0146 6.49858C29.2002 6.49858 29.4189 6.50521 29.6708 6.51847C29.9293 6.53172 30.1315 6.54829 30.2773 6.56818V9.41193C30.158 9.37879 29.9459 9.34233 29.641 9.30256C29.3361 9.25615 29.0311 9.23295 28.7262 9.23295C28.0236 9.23295 27.3971 9.3821 26.8469 9.6804C26.3034 9.97206 25.8725 10.3797 25.5543 10.9034C25.2362 11.4205 25.0771 12.0104 25.0771 12.6733V22H22.104ZM39.3857 22.3082C37.8809 22.3082 36.585 21.9867 35.4979 21.3438C34.4174 20.6941 33.5821 19.7827 32.9922 18.6094C32.4089 17.4295 32.1172 16.0473 32.1172 14.4631C32.1172 12.8987 32.4089 11.5199 32.9922 10.3267C33.5821 9.13352 34.4041 8.20218 35.4581 7.53267C36.5187 6.86316 37.7583 6.52841 39.1768 6.52841C40.0386 6.52841 40.8738 6.67093 41.6825 6.95597C42.4912 7.241 43.2171 7.68845 43.8601 8.2983C44.5031 8.90814 45.0102 9.70028 45.3814 10.6747C45.7526 11.6425 45.9382 12.8191 45.9382 14.2045V15.2585H33.7976V13.0312H43.0249C43.0249 12.2491 42.8658 11.5563 42.5476 10.9531C42.2294 10.3433 41.782 9.86269 41.2053 9.51136C40.6352 9.16004 39.9657 8.98438 39.1967 8.98438C38.3615 8.98438 37.6323 9.18987 37.0092 9.60085C36.3928 10.0052 35.9155 10.5355 35.5774 11.1918C35.246 11.8414 35.0803 12.5473 35.0803 13.3097V15.0497C35.0803 16.0705 35.2592 16.9389 35.6172 17.6548C35.9818 18.3707 36.4889 18.9176 37.1385 19.2955C37.7881 19.6667 38.5471 19.8523 39.4155 19.8523C39.9789 19.8523 40.4927 19.7727 40.9567 19.6136C41.4207 19.4479 41.8217 19.2027 42.1598 18.8778C42.4979 18.553 42.7564 18.152 42.9354 17.6747L45.7493 18.1818C45.5239 19.0104 45.1196 19.7363 44.5362 20.3594C43.9595 20.9759 43.2337 21.4564 42.3587 21.8011C41.4903 22.1392 40.4993 22.3082 39.3857 22.3082ZM59.5263 27.7273C59.0821 27.7273 58.6778 27.6908 58.3132 27.6179C57.9486 27.5516 57.6768 27.4787 57.4979 27.3991L58.2138 24.9631C58.7573 25.1089 59.2412 25.1719 59.6655 25.152C60.0897 25.1321 60.4643 24.973 60.7891 24.6747C61.1205 24.3764 61.4122 23.8892 61.6641 23.2131L62.032 22.1989L56.4439 6.72727H59.6257L63.4936 18.5795H63.6527L67.5206 6.72727H70.7124L64.4183 24.0384C64.1267 24.8338 63.7554 25.5066 63.3047 26.0568C62.8539 26.6136 62.317 27.0313 61.6939 27.3097C61.0708 27.5881 60.3482 27.7273 59.5263 27.7273ZM79.9201 22.3082C78.4883 22.3082 77.2388 21.9801 76.1715 21.3239C75.1043 20.6676 74.2757 19.7495 73.6857 18.5696C73.0958 17.3897 72.8008 16.0109 72.8008 14.4332C72.8008 12.849 73.0958 11.4635 73.6857 10.277C74.2757 9.09043 75.1043 8.16903 76.1715 7.51278C77.2388 6.85653 78.4883 6.52841 79.9201 6.52841C81.3519 6.52841 82.6014 6.85653 83.6687 7.51278C84.7359 8.16903 85.5645 9.09043 86.1545 10.277C86.7444 11.4635 87.0394 12.849 87.0394 14.4332C87.0394 16.0109 86.7444 17.3897 86.1545 18.5696C85.5645 19.7495 84.7359 20.6676 83.6687 21.3239C82.6014 21.9801 81.3519 22.3082 79.9201 22.3082ZM79.93 19.8125C80.8581 19.8125 81.627 19.5672 82.2369 19.0767C82.8467 18.5862 83.2975 17.9332 83.5891 17.1179C83.8874 16.3026 84.0366 15.4044 84.0366 14.4233C84.0366 13.4489 83.8874 12.554 83.5891 11.7386C83.2975 10.9167 82.8467 10.2571 82.2369 9.75994C81.627 9.26278 80.8581 9.0142 79.93 9.0142C78.9954 9.0142 78.2198 9.26278 77.6033 9.75994C76.9935 10.2571 76.5394 10.9167 76.2411 11.7386C75.9495 12.554 75.8036 13.4489 75.8036 14.4233C75.8036 15.4044 75.9495 16.3026 76.2411 17.1179C76.5394 17.9332 76.9935 18.5862 77.6033 19.0767C78.2198 19.5672 78.9954 19.8125 79.93 19.8125ZM100.533 15.6662V6.72727H103.516V22H100.592V19.3551H100.433C100.082 20.1705 99.5185 20.8499 98.7429 21.3935C97.974 21.9304 97.0161 22.1989 95.8693 22.1989C94.8883 22.1989 94.0199 21.9834 93.2642 21.5526C92.5152 21.1151 91.9252 20.4688 91.4943 19.6136C91.0701 18.7585 90.858 17.7012 90.858 16.4418V6.72727H93.831V16.0838C93.831 17.1245 94.1193 17.9531 94.696 18.5696C95.2727 19.1861 96.0218 19.4943 96.9432 19.4943C97.5 19.4943 98.0535 19.3551 98.6037 19.0767C99.1605 18.7983 99.6212 18.3774 99.9858 17.8139C100.357 17.2505 100.539 16.5346 100.533 15.6662ZM120.365 22.3381C119.397 22.3381 118.522 22.1591 117.74 21.8011C116.958 21.4366 116.338 20.9096 115.881 20.2202C115.43 19.5308 115.205 18.6856 115.205 17.6847C115.205 16.8229 115.37 16.1136 115.702 15.5568C116.033 15 116.481 14.5592 117.044 14.2344C117.607 13.9096 118.237 13.6643 118.933 13.4986C119.629 13.3329 120.339 13.2069 121.061 13.1207C121.976 13.0147 122.718 12.9285 123.288 12.8622C123.858 12.7893 124.273 12.6733 124.531 12.5142C124.79 12.3551 124.919 12.0966 124.919 11.7386V11.669C124.919 10.8007 124.674 10.1278 124.183 9.65057C123.699 9.17329 122.977 8.93466 122.016 8.93466C121.015 8.93466 120.226 9.15672 119.649 9.60085C119.079 10.0384 118.685 10.5256 118.466 11.0625L115.672 10.4261C116.003 9.49811 116.487 8.74905 117.124 8.17898C117.767 7.60227 118.506 7.18466 119.341 6.92614C120.176 6.66098 121.054 6.52841 121.976 6.52841C122.586 6.52841 123.232 6.60133 123.915 6.74716C124.604 6.88636 125.247 7.14489 125.844 7.52273C126.447 7.90057 126.941 8.44081 127.325 9.14347C127.71 9.83949 127.902 10.7443 127.902 11.858V22H124.999V19.9119H124.879C124.687 20.2964 124.399 20.6742 124.014 21.0455C123.63 21.4167 123.136 21.7249 122.533 21.9702C121.929 22.2154 121.207 22.3381 120.365 22.3381ZM121.011 19.9517C121.833 19.9517 122.536 19.7893 123.119 19.4645C123.709 19.1397 124.157 18.7154 124.462 18.1918C124.773 17.6615 124.929 17.0947 124.929 16.4915V14.5227C124.823 14.6288 124.617 14.7282 124.312 14.821C124.014 14.9072 123.673 14.9834 123.288 15.0497C122.904 15.1094 122.529 15.1657 122.165 15.2188C121.8 15.2652 121.495 15.3049 121.25 15.3381C120.673 15.411 120.146 15.5336 119.669 15.706C119.198 15.8783 118.821 16.1269 118.536 16.4517C118.257 16.7699 118.118 17.1941 118.118 17.7244C118.118 18.4602 118.39 19.017 118.933 19.3949C119.477 19.7661 120.17 19.9517 121.011 19.9517ZM140.511 22V1.63636H147.968C149.413 1.63636 150.61 1.875 151.558 2.35227C152.505 2.82292 153.215 3.46259 153.685 4.27131C154.156 5.07339 154.391 5.97822 154.391 6.98579C154.391 7.83428 154.236 8.55019 153.924 9.13352C153.612 9.71023 153.195 10.1742 152.671 10.5256C152.154 10.8703 151.584 11.1222 150.961 11.2812V11.4801C151.637 11.5133 152.297 11.732 152.94 12.1364C153.589 12.5341 154.126 13.1009 154.55 13.8366C154.975 14.5724 155.187 15.4673 155.187 16.5213C155.187 17.562 154.942 18.4967 154.451 19.3253C153.967 20.1473 153.218 20.8002 152.204 21.2841C151.19 21.7614 149.894 22 148.316 22H140.511ZM143.583 19.3651H148.018C149.489 19.3651 150.543 19.08 151.18 18.5099C151.816 17.9399 152.134 17.2273 152.134 16.3722C152.134 15.7292 151.972 15.1392 151.647 14.6023C151.322 14.0653 150.858 13.6378 150.255 13.3196C149.658 13.0014 148.949 12.8423 148.127 12.8423H143.583V19.3651ZM143.583 10.446H147.7C148.389 10.446 149.009 10.3134 149.559 10.0483C150.116 9.78314 150.557 9.41193 150.881 8.93466C151.213 8.45076 151.379 7.88068 151.379 7.22443C151.379 6.38258 151.084 5.67661 150.494 5.10653C149.904 4.53646 148.999 4.25142 147.779 4.25142H143.583V10.446ZM168.767 15.6662V6.72727H171.75V22H168.827V19.3551H168.668C168.316 20.1705 167.753 20.8499 166.977 21.3935C166.208 21.9304 165.25 22.1989 164.104 22.1989C163.123 22.1989 162.254 21.9834 161.499 21.5526C160.75 21.1151 160.16 20.4688 159.729 19.6136C159.304 18.7585 159.092 17.7012 159.092 16.4418V6.72727H162.065V16.0838C162.065 17.1245 162.354 17.9531 162.93 18.5696C163.507 19.1861 164.256 19.4943 165.178 19.4943C165.734 19.4943 166.288 19.3551 166.838 19.0767C167.395 18.7983 167.856 18.3774 168.22 17.8139C168.591 17.2505 168.774 16.5346 168.767 15.6662ZM178.124 27.7273C177.68 27.7273 177.275 27.6908 176.911 27.6179C176.546 27.5516 176.275 27.4787 176.096 27.3991L176.811 24.9631C177.355 25.1089 177.839 25.1719 178.263 25.152C178.687 25.1321 179.062 24.973 179.387 24.6747C179.718 24.3764 180.01 23.8892 180.262 23.2131L180.63 22.1989L175.042 6.72727H178.223L182.091 18.5795H182.25L186.118 6.72727H189.31L183.016 24.0384C182.724 24.8338 182.353 25.5066 181.902 26.0568C181.452 26.6136 180.915 27.0313 180.292 27.3097C179.668 27.5881 178.946 27.7273 178.124 27.7273ZM198.667 22.3082C197.162 22.3082 195.866 21.9867 194.779 21.3438C193.699 20.6941 192.863 19.7827 192.273 18.6094C191.69 17.4295 191.398 16.0473 191.398 14.4631C191.398 12.8987 191.69 11.5199 192.273 10.3267C192.863 9.13352 193.685 8.20218 194.739 7.53267C195.8 6.86316 197.04 6.52841 198.458 6.52841C199.32 6.52841 200.155 6.67093 200.964 6.95597C201.772 7.241 202.498 7.68845 203.141 8.2983C203.784 8.90814 204.291 9.70028 204.663 10.6747C205.034 11.6425 205.219 12.8191 205.219 14.2045V15.2585H193.079V13.0312H202.306C202.306 12.2491 202.147 11.5563 201.829 10.9531C201.511 10.3433 201.063 9.86269 200.487 9.51136C199.916 9.16004 199.247 8.98438 198.478 8.98438C197.643 8.98438 196.914 9.18987 196.29 9.60085C195.674 10.0052 195.197 10.5355 194.859 11.1918C194.527 11.8414 194.362 12.5473 194.362 13.3097V15.0497C194.362 16.0705 194.54 16.9389 194.898 17.6548C195.263 18.3707 195.77 18.9176 196.42 19.2955C197.069 19.6667 197.828 19.8523 198.697 19.8523C199.26 19.8523 199.774 19.7727 200.238 19.6136C200.702 19.4479 201.103 19.2027 201.441 18.8778C201.779 18.553 202.038 18.152 202.217 17.6747L205.031 18.1818C204.805 19.0104 204.401 19.7363 203.817 20.3594C203.241 20.9759 202.515 21.4564 201.64 21.8011C200.772 22.1392 199.781 22.3082 198.667 22.3082ZM209.018 22V6.72727H211.892V9.15341H212.051C212.329 8.33144 212.82 7.68513 213.522 7.21449C214.232 6.73722 215.034 6.49858 215.929 6.49858C216.114 6.49858 216.333 6.50521 216.585 6.51847C216.843 6.53172 217.046 6.54829 217.191 6.56818V9.41193C217.072 9.37879 216.86 9.34233 216.555 9.30256C216.25 9.25615 215.945 9.23295 215.64 9.23295C214.938 9.23295 214.311 9.3821 213.761 9.6804C213.217 9.97206 212.787 10.3797 212.468 10.9034C212.15 11.4205 211.991 12.0104 211.991 12.6733V22H209.018ZM222.382 19.2159L222.233 20.2997C222.134 21.0952 221.964 21.9238 221.726 22.7855C221.494 23.6539 221.252 24.4593 221 25.2017C220.755 25.9441 220.553 26.5341 220.393 26.9716H218.286C218.372 26.5606 218.491 26.0038 218.643 25.3011C218.796 24.6051 218.945 23.8262 219.091 22.9645C219.237 22.1027 219.346 21.2244 219.419 20.3295L219.518 19.2159H222.382ZM241.096 22.3082C239.618 22.3082 238.345 21.9735 237.278 21.304C236.217 20.6278 235.402 19.6965 234.832 18.5099C234.262 17.3234 233.977 15.9645 233.977 14.4332C233.977 12.8821 234.268 11.5133 234.852 10.3267C235.435 9.13352 236.257 8.20218 237.317 7.53267C238.378 6.86316 239.628 6.52841 241.066 6.52841C242.226 6.52841 243.26 6.74384 244.168 7.17472C245.076 7.59896 245.809 8.19555 246.366 8.96449C246.929 9.73343 247.264 10.6316 247.37 11.6591H244.477C244.317 10.9432 243.953 10.3267 243.383 9.80966C242.819 9.29261 242.064 9.03409 241.116 9.03409C240.287 9.03409 239.561 9.25284 238.938 9.69034C238.322 10.1212 237.841 10.7377 237.496 11.5398C237.152 12.3352 236.979 13.2765 236.979 14.3636C236.979 15.4773 237.148 16.4384 237.487 17.2472C237.825 18.0559 238.302 18.6823 238.918 19.1264C239.541 19.5705 240.274 19.7926 241.116 19.7926C241.679 19.7926 242.19 19.6899 242.647 19.4844C243.111 19.2723 243.499 18.9706 243.81 18.5795C244.129 18.1884 244.351 17.7178 244.477 17.1676H247.37C247.264 18.1553 246.942 19.0369 246.406 19.8125C245.869 20.5881 245.149 21.1979 244.248 21.642C243.353 22.0862 242.302 22.3082 241.096 22.3082ZM257.483 22.3082C256.051 22.3082 254.801 21.9801 253.734 21.3239C252.667 20.6676 251.838 19.7495 251.248 18.5696C250.658 17.3897 250.363 16.0109 250.363 14.4332C250.363 12.849 250.658 11.4635 251.248 10.277C251.838 9.09043 252.667 8.16903 253.734 7.51278C254.801 6.85653 256.051 6.52841 257.483 6.52841C258.914 6.52841 260.164 6.85653 261.231 7.51278C262.298 8.16903 263.127 9.09043 263.717 10.277C264.307 11.4635 264.602 12.849 264.602 14.4332C264.602 16.0109 264.307 17.3897 263.717 18.5696C263.127 19.7495 262.298 20.6676 261.231 21.3239C260.164 21.9801 258.914 22.3082 257.483 22.3082ZM257.493 19.8125C258.421 19.8125 259.19 19.5672 259.799 19.0767C260.409 18.5862 260.86 17.9332 261.152 17.1179C261.45 16.3026 261.599 15.4044 261.599 14.4233C261.599 13.4489 261.45 12.554 261.152 11.7386C260.86 10.9167 260.409 10.2571 259.799 9.75994C259.19 9.26278 258.421 9.0142 257.493 9.0142C256.558 9.0142 255.782 9.26278 255.166 9.75994C254.556 10.2571 254.102 10.9167 253.804 11.7386C253.512 12.554 253.366 13.4489 253.366 14.4233C253.366 15.4044 253.512 16.3026 253.804 17.1179C254.102 17.9332 254.556 18.5862 255.166 19.0767C255.782 19.5672 256.558 19.8125 257.493 19.8125ZM271.393 12.9318V22H268.42V6.72727H271.274V9.21307H271.463C271.814 8.40436 272.365 7.75473 273.114 7.2642C273.869 6.77367 274.821 6.52841 275.967 6.52841C277.008 6.52841 277.92 6.74716 278.702 7.18466C279.484 7.61553 280.09 8.25852 280.521 9.11364C280.952 9.96875 281.168 11.026 281.168 12.2855V22H278.195V12.6435C278.195 11.5365 277.906 10.6714 277.33 10.0483C276.753 9.41856 275.961 9.10369 274.953 9.10369C274.264 9.10369 273.651 9.25284 273.114 9.55114C272.583 9.84943 272.162 10.2869 271.851 10.8636C271.546 11.4337 271.393 12.1231 271.393 12.9318ZM292.923 6.72727V9.11364H284.293V6.72727H292.923ZM286.659 22V4.95739C286.659 4.00284 286.868 3.2107 287.286 2.58097C287.703 1.9446 288.257 1.47064 288.946 1.15909C289.635 0.840908 290.384 0.681817 291.193 0.681817C291.79 0.681817 292.3 0.731533 292.724 0.830966C293.149 0.923768 293.464 1.00994 293.669 1.08949L292.973 3.49574C292.834 3.45597 292.655 3.40956 292.436 3.35653C292.217 3.29687 291.952 3.26704 291.641 3.26704C290.918 3.26704 290.401 3.44602 290.089 3.80398C289.785 4.16193 289.632 4.67898 289.632 5.35511V22H286.659ZM306.165 15.6662V6.72727H309.148V22H306.225V19.3551H306.066C305.715 20.1705 305.151 20.8499 304.376 21.3935C303.607 21.9304 302.649 22.1989 301.502 22.1989C300.521 22.1989 299.653 21.9834 298.897 21.5526C298.148 21.1151 297.558 20.4688 297.127 19.6136C296.703 18.7585 296.491 17.7012 296.491 16.4418V6.72727H299.464V16.0838C299.464 17.1245 299.752 17.9531 300.329 18.5696C300.906 19.1861 301.655 19.4943 302.576 19.4943C303.133 19.4943 303.686 19.3551 304.237 19.0767C304.793 18.7983 305.254 18.3774 305.619 17.8139C305.99 17.2505 306.172 16.5346 306.165 15.6662ZM325.088 10.456L322.393 10.9332C322.28 10.5885 322.101 10.2604 321.856 9.94886C321.618 9.63731 321.293 9.3821 320.882 9.18324C320.471 8.98437 319.957 8.88494 319.341 8.88494C318.499 8.88494 317.796 9.07386 317.233 9.4517C316.669 9.82292 316.387 10.3035 316.387 10.8935C316.387 11.4039 316.576 11.8149 316.954 12.1264C317.332 12.438 317.942 12.6932 318.784 12.892L321.21 13.4489C322.615 13.7737 323.663 14.2741 324.352 14.9503C325.041 15.6264 325.386 16.5047 325.386 17.5852C325.386 18.5 325.121 19.3153 324.591 20.0312C324.067 20.7405 323.334 21.2973 322.393 21.7017C321.458 22.1061 320.375 22.3082 319.142 22.3082C317.431 22.3082 316.036 21.9437 314.956 21.2145C313.875 20.4787 313.212 19.4347 312.967 18.0824L315.841 17.6449C316.02 18.3939 316.387 18.9607 316.944 19.3452C317.501 19.723 318.227 19.9119 319.122 19.9119C320.096 19.9119 320.875 19.7098 321.458 19.3054C322.042 18.8944 322.333 18.3939 322.333 17.804C322.333 17.3267 322.154 16.9257 321.797 16.6009C321.445 16.276 320.905 16.0308 320.176 15.8651L317.591 15.2983C316.165 14.9735 315.111 14.4564 314.429 13.7472C313.752 13.0379 313.414 12.1397 313.414 11.0526C313.414 10.151 313.666 9.36222 314.17 8.68608C314.674 8.00994 315.37 7.48295 316.258 7.10511C317.146 6.72064 318.164 6.52841 319.311 6.52841C320.961 6.52841 322.261 6.88636 323.208 7.60227C324.156 8.31155 324.783 9.26278 325.088 10.456ZM335.737 22.3082C334.232 22.3082 332.937 21.9867 331.849 21.3438C330.769 20.6941 329.934 19.7827 329.344 18.6094C328.76 17.4295 328.469 16.0473 328.469 14.4631C328.469 12.8987 328.76 11.5199 329.344 10.3267C329.934 9.13352 330.756 8.20218 331.81 7.53267C332.87 6.86316 334.11 6.52841 335.528 6.52841C336.39 6.52841 337.225 6.67093 338.034 6.95597C338.843 7.241 339.569 7.68845 340.212 8.2983C340.855 8.90814 341.362 9.70028 341.733 10.6747C342.104 11.6425 342.29 12.8191 342.29 14.2045V15.2585H330.149V13.0312H339.376C339.376 12.2491 339.217 11.5563 338.899 10.9531C338.581 10.3433 338.134 9.86269 337.557 9.51136C336.987 9.16004 336.317 8.98438 335.548 8.98438C334.713 8.98438 333.984 9.18987 333.361 9.60085C332.744 10.0052 332.267 10.5355 331.929 11.1918C331.598 11.8414 331.432 12.5473 331.432 13.3097V15.0497C331.432 16.0705 331.611 16.9389 331.969 17.6548C332.333 18.3707 332.84 18.9176 333.49 19.2955C334.14 19.6667 334.899 19.8523 335.767 19.8523C336.33 19.8523 336.844 19.7727 337.308 19.6136C337.772 19.4479 338.173 19.2027 338.511 18.8778C338.849 18.553 339.108 18.152 339.287 17.6747L342.101 18.1818C341.875 19.0104 341.471 19.7363 340.888 20.3594C340.311 20.9759 339.585 21.4564 338.71 21.8011C337.842 22.1392 336.851 22.3082 335.737 22.3082ZM357.31 22L352.815 6.72727H355.888L358.881 17.9432H359.03L362.033 6.72727H365.105L368.088 17.8935H368.237L371.21 6.72727H374.283L369.798 22H366.766L363.663 10.973H363.435L360.332 22H357.31ZM377.604 22V6.72727H380.577V22H377.604ZM379.105 4.37074C378.588 4.37074 378.144 4.19839 377.773 3.85369C377.408 3.50237 377.226 3.08475 377.226 2.60085C377.226 2.11032 377.408 1.69271 377.773 1.34801C378.144 0.996685 378.588 0.821022 379.105 0.821022C379.623 0.821022 380.063 0.996685 380.428 1.34801C380.799 1.69271 380.985 2.11032 380.985 2.60085C380.985 3.08475 380.799 3.50237 380.428 3.85369C380.063 4.19839 379.623 4.37074 379.105 4.37074ZM392.206 6.72727V9.11364H383.864V6.72727H392.206ZM386.101 3.06818H389.074V17.5156C389.074 18.0923 389.16 18.5265 389.332 18.8182C389.505 19.1032 389.727 19.2988 389.999 19.4048C390.277 19.5043 390.579 19.554 390.903 19.554C391.142 19.554 391.351 19.5374 391.53 19.5043C391.709 19.4711 391.848 19.4446 391.947 19.4247L392.484 21.8807C392.312 21.947 392.067 22.0133 391.749 22.0795C391.43 22.1525 391.033 22.1922 390.555 22.1989C389.773 22.2121 389.044 22.0729 388.368 21.7812C387.692 21.4896 387.145 21.0388 386.727 20.429C386.31 19.8191 386.101 19.0535 386.101 18.1321V3.06818ZM399.296 12.9318V22H396.323V1.63636H399.256V9.21307H399.445C399.803 8.3911 400.35 7.73816 401.086 7.25426C401.821 6.77036 402.783 6.52841 403.969 6.52841C405.016 6.52841 405.931 6.74384 406.713 7.17472C407.502 7.60559 408.112 8.24858 408.543 9.10369C408.98 9.95218 409.199 11.0128 409.199 12.2855V22H406.226V12.6435C406.226 11.5232 405.938 10.6548 405.361 10.0384C404.784 9.41525 403.982 9.10369 402.955 9.10369C402.252 9.10369 401.623 9.25284 401.066 9.55114C400.516 9.84943 400.081 10.2869 399.763 10.8636C399.452 11.4337 399.296 12.1231 399.296 12.9318ZM431.251 15.6662V6.72727H434.234V22H431.311V19.3551H431.152C430.801 20.1705 430.237 20.8499 429.462 21.3935C428.693 21.9304 427.735 22.1989 426.588 22.1989C425.607 22.1989 424.739 21.9834 423.983 21.5526C423.234 21.1151 422.644 20.4688 422.213 19.6136C421.789 18.7585 421.577 17.7012 421.577 16.4418V6.72727H424.55V16.0838C424.55 17.1245 424.838 17.9531 425.415 18.5696C425.991 19.1861 426.741 19.4943 427.662 19.4943C428.219 19.4943 428.772 19.3551 429.322 19.0767C429.879 18.7983 430.34 18.3774 430.705 17.8139C431.076 17.2505 431.258 16.5346 431.251 15.6662ZM441.702 12.9318V22H438.729V6.72727H441.583V9.21307H441.772C442.123 8.40436 442.673 7.75473 443.422 7.2642C444.178 6.77367 445.129 6.52841 446.276 6.52841C447.317 6.52841 448.228 6.74716 449.01 7.18466C449.792 7.61553 450.399 8.25852 450.83 9.11364C451.261 9.96875 451.476 11.026 451.476 12.2855V22H448.503V12.6435C448.503 11.5365 448.215 10.6714 447.638 10.0483C447.061 9.41856 446.269 9.10369 445.262 9.10369C444.572 9.10369 443.959 9.25284 443.422 9.55114C442.892 9.84943 442.471 10.2869 442.159 10.8636C441.855 11.4337 441.702 12.1231 441.702 12.9318ZM468.482 6.72727L462.944 22H459.762L454.213 6.72727H457.405L461.273 18.4801H461.432L465.29 6.72727H468.482ZM477.839 22.3082C476.334 22.3082 475.038 21.9867 473.951 21.3438C472.871 20.6941 472.035 19.7827 471.445 18.6094C470.862 17.4295 470.57 16.0473 470.57 14.4631C470.57 12.8987 470.862 11.5199 471.445 10.3267C472.035 9.13352 472.857 8.20218 473.911 7.53267C474.972 6.86316 476.211 6.52841 477.63 6.52841C478.492 6.52841 479.327 6.67093 480.136 6.95597C480.944 7.241 481.67 7.68845 482.313 8.2983C482.956 8.90814 483.463 9.70028 483.835 10.6747C484.206 11.6425 484.391 12.8191 484.391 14.2045V15.2585H472.251V13.0312H481.478C481.478 12.2491 481.319 11.5563 481.001 10.9531C480.683 10.3433 480.235 9.86269 479.658 9.51136C479.088 9.16004 478.419 8.98438 477.65 8.98438C476.815 8.98438 476.085 9.18987 475.462 9.60085C474.846 10.0052 474.369 10.5355 474.031 11.1918C473.699 11.8414 473.533 12.5473 473.533 13.3097V15.0497C473.533 16.0705 473.712 16.9389 474.07 17.6548C474.435 18.3707 474.942 18.9176 475.592 19.2955C476.241 19.6667 477 19.8523 477.869 19.8523C478.432 19.8523 478.946 19.7727 479.41 19.6136C479.874 19.4479 480.275 19.2027 480.613 18.8778C480.951 18.553 481.21 18.152 481.388 17.6747L484.202 18.1818C483.977 19.0104 483.573 19.7363 482.989 20.3594C482.413 20.9759 481.687 21.4564 480.812 21.8011C479.943 22.1392 478.952 22.3082 477.839 22.3082ZM488.19 22V6.72727H491.064V9.15341H491.223C491.501 8.33144 491.992 7.68513 492.694 7.21449C493.404 6.73722 494.206 6.49858 495.1 6.49858C495.286 6.49858 495.505 6.50521 495.757 6.51847C496.015 6.53172 496.217 6.54829 496.363 6.56818V9.41193C496.244 9.37879 496.032 9.34233 495.727 9.30256C495.422 9.25615 495.117 9.23295 494.812 9.23295C494.109 9.23295 493.483 9.3821 492.933 9.6804C492.389 9.97206 491.958 10.3797 491.64 10.9034C491.322 11.4205 491.163 12.0104 491.163 12.6733V22H488.19ZM499.436 22V6.72727H502.409V22H499.436ZM500.938 4.37074C500.42 4.37074 499.976 4.19839 499.605 3.85369C499.241 3.50237 499.058 3.08475 499.058 2.60085C499.058 2.11032 499.241 1.69271 499.605 1.34801C499.976 0.996685 500.42 0.821022 500.938 0.821022C501.455 0.821022 501.895 0.996685 502.26 1.34801C502.631 1.69271 502.817 2.11032 502.817 2.60085C502.817 3.08475 502.631 3.50237 502.26 3.85369C501.895 4.19839 501.455 4.37074 500.938 4.37074ZM514.177 6.72727V9.11364H505.547V6.72727H514.177ZM507.913 22V4.95739C507.913 4.00284 508.122 3.2107 508.539 2.58097C508.957 1.9446 509.511 1.47064 510.2 1.15909C510.889 0.840908 511.638 0.681817 512.447 0.681817C513.044 0.681817 513.554 0.731533 513.978 0.830966C514.403 0.923768 514.717 1.00994 514.923 1.08949L514.227 3.49574C514.088 3.45597 513.909 3.40956 513.69 3.35653C513.471 3.29687 513.206 3.26704 512.895 3.26704C512.172 3.26704 511.655 3.44602 511.343 3.80398C511.038 4.16193 510.886 4.67898 510.886 5.35511V22H507.913ZM517.745 22V6.72727H520.718V22H517.745ZM519.246 4.37074C518.729 4.37074 518.285 4.19839 517.914 3.85369C517.549 3.50237 517.367 3.08475 517.367 2.60085C517.367 2.11032 517.549 1.69271 517.914 1.34801C518.285 0.996685 518.729 0.821022 519.246 0.821022C519.763 0.821022 520.204 0.996685 520.569 1.34801C520.94 1.69271 521.125 2.11032 521.125 2.60085C521.125 3.08475 520.94 3.50237 520.569 3.85369C520.204 4.19839 519.763 4.37074 519.246 4.37074ZM531.8 22.3082C530.295 22.3082 528.999 21.9867 527.912 21.3438C526.831 20.6941 525.996 19.7827 525.406 18.6094C524.823 17.4295 524.531 16.0473 524.531 14.4631C524.531 12.8987 524.823 11.5199 525.406 10.3267C525.996 9.13352 526.818 8.20218 527.872 7.53267C528.933 6.86316 530.172 6.52841 531.591 6.52841C532.453 6.52841 533.288 6.67093 534.097 6.95597C534.905 7.241 535.631 7.68845 536.274 8.2983C536.917 8.90814 537.424 9.70028 537.795 10.6747C538.167 11.6425 538.352 12.8191 538.352 14.2045V15.2585H526.212V13.0312H535.439C535.439 12.2491 535.28 11.5563 534.962 10.9531C534.643 10.3433 534.196 9.86269 533.619 9.51136C533.049 9.16004 532.38 8.98438 531.611 8.98438C530.776 8.98438 530.046 9.18987 529.423 9.60085C528.807 10.0052 528.33 10.5355 527.991 11.1918C527.66 11.8414 527.494 12.5473 527.494 13.3097V15.0497C527.494 16.0705 527.673 16.9389 528.031 17.6548C528.396 18.3707 528.903 18.9176 529.553 19.2955C530.202 19.6667 530.961 19.8523 531.83 19.8523C532.393 19.8523 532.907 19.7727 533.371 19.6136C533.835 19.4479 534.236 19.2027 534.574 18.8778C534.912 18.553 535.17 18.152 535.349 17.6747L538.163 18.1818C537.938 19.0104 537.534 19.7363 536.95 20.3594C536.374 20.9759 535.648 21.4564 534.773 21.8011C533.904 22.1392 532.913 22.3082 531.8 22.3082ZM547.868 22.2983C546.635 22.2983 545.535 21.9834 544.567 21.3537C543.606 20.7173 542.85 19.8125 542.3 18.6392C541.757 17.4593 541.485 16.044 541.485 14.3935C541.485 12.7429 541.76 11.331 542.31 10.1577C542.867 8.98437 543.629 8.08617 544.597 7.46307C545.565 6.83996 546.662 6.52841 547.888 6.52841C548.836 6.52841 549.598 6.6875 550.175 7.00568C550.758 7.31723 551.209 7.68182 551.527 8.09943C551.852 8.51705 552.104 8.88494 552.283 9.20312H552.462V1.63636H555.435V22H552.532V19.6236H552.283C552.104 19.9484 551.846 20.3196 551.507 20.7372C551.176 21.1548 550.719 21.5194 550.135 21.831C549.552 22.1425 548.796 22.2983 547.868 22.2983ZM548.525 19.7628C549.38 19.7628 550.102 19.5374 550.692 19.0866C551.289 18.6293 551.739 17.9962 552.044 17.1875C552.356 16.3788 552.512 15.4375 552.512 14.3636C552.512 13.303 552.359 12.375 552.054 11.5795C551.749 10.7841 551.302 10.1643 550.712 9.72017C550.122 9.27604 549.393 9.05398 548.525 9.05398C547.63 9.05398 546.884 9.28598 546.287 9.75C545.691 10.214 545.24 10.8471 544.935 11.6491C544.637 12.4512 544.488 13.3561 544.488 14.3636C544.488 15.3845 544.64 16.3026 544.945 17.1179C545.25 17.9332 545.701 18.5795 546.297 19.0568C546.9 19.5275 547.643 19.7628 548.525 19.7628ZM572.533 22.3381C571.565 22.3381 570.69 22.1591 569.908 21.8011C569.126 21.4366 568.506 20.9096 568.049 20.2202C567.598 19.5308 567.373 18.6856 567.373 17.6847C567.373 16.8229 567.538 16.1136 567.87 15.5568C568.201 15 568.649 14.5592 569.212 14.2344C569.775 13.9096 570.405 13.6643 571.101 13.4986C571.797 13.3329 572.507 13.2069 573.229 13.1207C574.144 13.0147 574.886 12.9285 575.456 12.8622C576.026 12.7893 576.441 12.6733 576.699 12.5142C576.958 12.3551 577.087 12.0966 577.087 11.7386V11.669C577.087 10.8007 576.842 10.1278 576.351 9.65057C575.867 9.17329 575.145 8.93466 574.184 8.93466C573.183 8.93466 572.394 9.15672 571.817 9.60085C571.247 10.0384 570.853 10.5256 570.634 11.0625L567.84 10.4261C568.171 9.49811 568.655 8.74905 569.292 8.17898C569.935 7.60227 570.674 7.18466 571.509 6.92614C572.344 6.66098 573.222 6.52841 574.144 6.52841C574.754 6.52841 575.4 6.60133 576.083 6.74716C576.772 6.88636 577.415 7.14489 578.012 7.52273C578.615 7.90057 579.109 8.44081 579.493 9.14347C579.878 9.83949 580.07 10.7443 580.07 11.858V22H577.167V19.9119H577.047C576.855 20.2964 576.567 20.6742 576.182 21.0455C575.798 21.4167 575.304 21.7249 574.701 21.9702C574.097 22.2154 573.375 22.3381 572.533 22.3381ZM573.179 19.9517C574.001 19.9517 574.704 19.7893 575.287 19.4645C575.877 19.1397 576.325 18.7154 576.63 18.1918C576.941 17.6615 577.097 17.0947 577.097 16.4915V14.5227C576.991 14.6288 576.785 14.7282 576.48 14.821C576.182 14.9072 575.841 14.9834 575.456 15.0497C575.072 15.1094 574.697 15.1657 574.333 15.2188C573.968 15.2652 573.663 15.3049 573.418 15.3381C572.841 15.411 572.314 15.5336 571.837 15.706C571.366 15.8783 570.989 16.1269 570.703 16.4517C570.425 16.7699 570.286 17.1941 570.286 17.7244C570.286 18.4602 570.558 19.017 571.101 19.3949C571.645 19.7661 572.337 19.9517 573.179 19.9517ZM587.503 12.9318V22H584.53V6.72727H587.384V9.21307H587.572C587.924 8.40436 588.474 7.75473 589.223 7.2642C589.979 6.77367 590.93 6.52841 592.077 6.52841C593.117 6.52841 594.029 6.74716 594.811 7.18466C595.593 7.61553 596.2 8.25852 596.631 9.11364C597.062 9.96875 597.277 11.026 597.277 12.2855V22H594.304V12.6435C594.304 11.5365 594.016 10.6714 593.439 10.0483C592.862 9.41856 592.07 9.10369 591.062 9.10369C590.373 9.10369 589.76 9.25284 589.223 9.55114C588.693 9.84943 588.272 10.2869 587.96 10.8636C587.655 11.4337 587.503 12.1231 587.503 12.9318ZM607.482 22.2983C606.249 22.2983 605.148 21.9834 604.18 21.3537C603.219 20.7173 602.464 19.8125 601.913 18.6392C601.37 17.4593 601.098 16.044 601.098 14.3935C601.098 12.7429 601.373 11.331 601.923 10.1577C602.48 8.98437 603.242 8.08617 604.21 7.46307C605.178 6.83996 606.275 6.52841 607.501 6.52841C608.449 6.52841 609.212 6.6875 609.788 7.00568C610.372 7.31723 610.822 7.68182 611.141 8.09943C611.465 8.51705 611.717 8.88494 611.896 9.20312H612.075V1.63636H615.048V22H612.145V19.6236H611.896C611.717 19.9484 611.459 20.3196 611.121 20.7372C610.789 21.1548 610.332 21.5194 609.749 21.831C609.165 22.1425 608.41 22.2983 607.482 22.2983ZM608.138 19.7628C608.993 19.7628 609.715 19.5374 610.305 19.0866C610.902 18.6293 611.353 17.9962 611.658 17.1875C611.969 16.3788 612.125 15.4375 612.125 14.3636C612.125 13.303 611.973 12.375 611.668 11.5795C611.363 10.7841 610.915 10.1643 610.325 9.72017C609.735 9.27604 609.006 9.05398 608.138 9.05398C607.243 9.05398 606.497 9.28598 605.901 9.75C605.304 10.214 604.853 10.8471 604.548 11.6491C604.25 12.4512 604.101 13.3561 604.101 14.3636C604.101 15.3845 604.253 16.3026 604.558 17.1179C604.863 17.9332 605.314 18.5795 605.911 19.0568C606.514 19.5275 607.256 19.7628 608.138 19.7628ZM9.26705 40.7273V43.1136H0.636364V40.7273H9.26705ZM3.00284 56V38.9574C3.00284 38.0028 3.21165 37.2107 3.62926 36.581C4.04688 35.9446 4.60038 35.4706 5.28977 35.1591C5.97917 34.8409 6.72822 34.6818 7.53693 34.6818C8.13352 34.6818 8.64394 34.7315 9.06818 34.831C9.49242 34.9238 9.80729 35.0099 10.0128 35.0895L9.31676 37.4957C9.17756 37.456 8.99858 37.4096 8.77983 37.3565C8.56108 37.2969 8.29593 37.267 7.98438 37.267C7.26184 37.267 6.74479 37.446 6.43324 37.804C6.12831 38.1619 5.97585 38.679 5.97585 39.3551V56H3.00284ZM16.8143 56.3381C15.8465 56.3381 14.9715 56.1591 14.1893 55.8011C13.4071 55.4366 12.7873 54.9096 12.3299 54.2202C11.8791 53.5308 11.6538 52.6856 11.6538 51.6847C11.6538 50.8229 11.8195 50.1136 12.1509 49.5568C12.4824 49 12.9298 48.5592 13.4933 48.2344C14.0567 47.9096 14.6864 47.6643 15.3825 47.4986C16.0785 47.3329 16.7878 47.2069 17.5103 47.1207C18.4251 47.0147 19.1675 46.9285 19.7376 46.8622C20.3076 46.7893 20.7219 46.6733 20.9805 46.5142C21.239 46.3551 21.3683 46.0966 21.3683 45.7386V45.669C21.3683 44.8007 21.123 44.1278 20.6325 43.6506C20.1486 43.1733 19.426 42.9347 18.4648 42.9347C17.4639 42.9347 16.6751 43.1567 16.0984 43.6009C15.5283 44.0384 15.1339 44.5256 14.9151 45.0625L12.1211 44.4261C12.4525 43.4981 12.9364 42.7491 13.5728 42.179C14.2158 41.6023 14.9549 41.1847 15.7901 40.9261C16.6254 40.661 17.5037 40.5284 18.4251 40.5284C19.0349 40.5284 19.6812 40.6013 20.364 40.7472C21.0534 40.8864 21.6964 41.1449 22.293 41.5227C22.8962 41.9006 23.39 42.4408 23.7745 43.1435C24.159 43.8395 24.3512 44.7443 24.3512 45.858V56H21.4478V53.9119H21.3285C21.1362 54.2964 20.8479 54.6742 20.4634 55.0455C20.079 55.4167 19.5851 55.7249 18.9819 55.9702C18.3787 56.2154 17.6561 56.3381 16.8143 56.3381ZM17.4606 53.9517C18.2826 53.9517 18.9852 53.7893 19.5685 53.4645C20.1585 53.1397 20.6059 52.7154 20.9109 52.1918C21.2224 51.6615 21.3782 51.0947 21.3782 50.4915V48.5227C21.2721 48.6288 21.0666 48.7282 20.7617 48.821C20.4634 48.9072 20.122 48.9834 19.7376 49.0497C19.3531 49.1094 18.9786 49.1657 18.614 49.2188C18.2494 49.2652 17.9445 49.3049 17.6992 49.3381C17.1225 49.411 16.5955 49.5336 16.1183 49.706C15.6476 49.8783 15.2698 50.1269 14.9847 50.4517C14.7063 50.7699 14.5671 51.1941 14.5671 51.7244C14.5671 52.4602 14.8389 53.017 15.3825 53.3949C15.926 53.7661 16.6187 53.9517 17.4606 53.9517ZM31.5455 50.8196L31.5256 47.1903H32.0426L38.1278 40.7273H41.6875L34.7472 48.0852H34.2798L31.5455 50.8196ZM28.8111 56V35.6364H31.7841V56H28.8111ZM38.456 56L32.9872 48.7415L35.0355 46.6634L42.1051 56H38.456ZM50.8505 56.3082C49.3458 56.3082 48.0498 55.9867 46.9627 55.3438C45.8822 54.6941 45.047 53.7827 44.457 52.6094C43.8737 51.4295 43.582 50.0473 43.582 48.4631C43.582 46.8987 43.8737 45.5199 44.457 44.3267C45.047 43.1335 45.869 42.2022 46.9229 41.5327C47.9835 40.8632 49.2231 40.5284 50.6417 40.5284C51.5034 40.5284 52.3387 40.6709 53.1474 40.956C53.9561 41.241 54.6819 41.6884 55.3249 42.2983C55.9679 42.9081 56.475 43.7003 56.8462 44.6747C57.2174 45.6425 57.4031 46.8191 57.4031 48.2045V49.2585H45.2624V47.0312H54.4897C54.4897 46.2491 54.3306 45.5563 54.0124 44.9531C53.6942 44.3433 53.2468 43.8627 52.6701 43.5114C52.1 43.16 51.4305 42.9844 50.6616 42.9844C49.8263 42.9844 49.0972 43.1899 48.4741 43.6009C47.8576 44.0052 47.3803 44.5355 47.0423 45.1918C46.7108 45.8414 46.5451 46.5473 46.5451 47.3097V49.0497C46.5451 50.0705 46.7241 50.9389 47.082 51.6548C47.4466 52.3707 47.9537 52.9176 48.6033 53.2955C49.253 53.6667 50.012 53.8523 50.8803 53.8523C51.4438 53.8523 51.9575 53.7727 52.4215 53.6136C52.8855 53.4479 53.2866 53.2027 53.6246 52.8778C53.9627 52.553 54.2212 52.152 54.4002 51.6747L57.2141 52.1818C56.9888 53.0104 56.5844 53.7363 56.0011 54.3594C55.4244 54.9759 54.6985 55.4564 53.8235 55.8011C52.9551 56.1392 51.9641 56.3082 50.8505 56.3082ZM69.1119 61.7273V40.7273H72.0153V43.2031H72.2638C72.4362 42.8849 72.6848 42.517 73.0096 42.0994C73.3344 41.6818 73.7852 41.3172 74.3619 41.0057C74.9386 40.6875 75.7009 40.5284 76.6488 40.5284C77.8817 40.5284 78.9821 40.84 79.9499 41.4631C80.9177 42.0862 81.6767 42.9844 82.2269 44.1577C82.7837 45.331 83.0621 46.7429 83.0621 48.3935C83.0621 50.044 82.7871 51.4593 82.2369 52.6392C81.6867 53.8125 80.931 54.7173 79.9698 55.3537C79.0086 55.9834 77.9116 56.2983 76.6786 56.2983C75.7506 56.2983 74.9916 56.1425 74.4016 55.831C73.8183 55.5194 73.3609 55.1548 73.0295 54.7372C72.698 54.3196 72.4428 53.9484 72.2638 53.6236H72.0849V61.7273H69.1119ZM72.0252 48.3636C72.0252 49.4375 72.181 50.3788 72.4925 51.1875C72.8041 51.9962 73.2549 52.6293 73.8448 53.0866C74.4348 53.5374 75.1573 53.7628 76.0124 53.7628C76.9007 53.7628 77.6431 53.5275 78.2397 53.0568C78.8363 52.5795 79.2871 51.9332 79.592 51.1179C79.9035 50.3026 80.0593 49.3845 80.0593 48.3636C80.0593 47.3561 79.9068 46.4512 79.6019 45.6491C79.3036 44.8471 78.8529 44.214 78.2496 43.75C77.6531 43.286 76.9073 43.054 76.0124 43.054C75.1507 43.054 74.4215 43.276 73.8249 43.7202C73.235 44.1643 72.7875 44.7841 72.4826 45.5795C72.1777 46.375 72.0252 47.303 72.0252 48.3636ZM86.8931 56V40.7273H89.7667V43.1534H89.9258C90.2042 42.3314 90.6947 41.6851 91.3974 41.2145C92.1067 40.7372 92.9087 40.4986 93.8036 40.4986C93.9892 40.4986 94.208 40.5052 94.4599 40.5185C94.7184 40.5317 94.9206 40.5483 95.0664 40.5682V43.4119C94.9471 43.3788 94.735 43.3423 94.43 43.3026C94.1251 43.2562 93.8202 43.233 93.5153 43.233C92.8126 43.233 92.1862 43.3821 91.636 43.6804C91.0924 43.9721 90.6616 44.3797 90.3434 44.9034C90.0252 45.4205 89.8661 46.0104 89.8661 46.6733V56H86.8931ZM104.026 56.3082C102.594 56.3082 101.344 55.9801 100.277 55.3239C99.2098 54.6676 98.3812 53.7495 97.7912 52.5696C97.2012 51.3897 96.9062 50.0109 96.9062 48.4332C96.9062 46.849 97.2012 45.4635 97.7912 44.277C98.3812 43.0904 99.2098 42.169 100.277 41.5128C101.344 40.8565 102.594 40.5284 104.026 40.5284C105.457 40.5284 106.707 40.8565 107.774 41.5128C108.841 42.169 109.67 43.0904 110.26 44.277C110.85 45.4635 111.145 46.849 111.145 48.4332C111.145 50.0109 110.85 51.3897 110.26 52.5696C109.67 53.7495 108.841 54.6676 107.774 55.3239C106.707 55.9801 105.457 56.3082 104.026 56.3082ZM104.036 53.8125C104.964 53.8125 105.732 53.5672 106.342 53.0767C106.952 52.5862 107.403 51.9332 107.695 51.1179C107.993 50.3026 108.142 49.4044 108.142 48.4233C108.142 47.4489 107.993 46.554 107.695 45.7386C107.403 44.9167 106.952 44.2571 106.342 43.7599C105.732 43.2628 104.964 43.0142 104.036 43.0142C103.101 43.0142 102.325 43.2628 101.709 43.7599C101.099 44.2571 100.645 44.9167 100.347 45.7386C100.055 46.554 99.9091 47.4489 99.9091 48.4233C99.9091 49.4044 100.055 50.3026 100.347 51.1179C100.645 51.9332 101.099 52.5862 101.709 53.0767C102.325 53.5672 103.101 53.8125 104.036 53.8125ZM114.963 61.7273V40.7273H117.867V43.2031H118.115C118.288 42.8849 118.536 42.517 118.861 42.0994C119.186 41.6818 119.637 41.3172 120.213 41.0057C120.79 40.6875 121.552 40.5284 122.5 40.5284C123.733 40.5284 124.834 40.84 125.801 41.4631C126.769 42.0862 127.528 42.9844 128.078 44.1577C128.635 45.331 128.914 46.7429 128.914 48.3935C128.914 50.044 128.639 51.4593 128.088 52.6392C127.538 53.8125 126.783 54.7173 125.821 55.3537C124.86 55.9834 123.763 56.2983 122.53 56.2983C121.602 56.2983 120.843 56.1425 120.253 55.831C119.67 55.5194 119.212 55.1548 118.881 54.7372C118.55 54.3196 118.294 53.9484 118.115 53.6236H117.936V61.7273H114.963ZM117.877 48.3636C117.877 49.4375 118.033 50.3788 118.344 51.1875C118.656 51.9962 119.106 52.6293 119.696 53.0866C120.286 53.5374 121.009 53.7628 121.864 53.7628C122.752 53.7628 123.495 53.5275 124.091 53.0568C124.688 52.5795 125.139 51.9332 125.444 51.1179C125.755 50.3026 125.911 49.3845 125.911 48.3636C125.911 47.3561 125.758 46.4512 125.453 45.6491C125.155 44.8471 124.704 44.214 124.101 43.75C123.505 43.286 122.759 43.054 121.864 43.054C121.002 43.054 120.273 43.276 119.676 43.7202C119.087 44.1643 118.639 44.7841 118.334 45.5795C118.029 46.375 117.877 47.303 117.877 48.3636ZM139.327 56.3082C137.822 56.3082 136.526 55.9867 135.439 55.3438C134.359 54.6941 133.524 53.7827 132.934 52.6094C132.35 51.4295 132.059 50.0473 132.059 48.4631C132.059 46.8987 132.35 45.5199 132.934 44.3267C133.524 43.1335 134.346 42.2022 135.4 41.5327C136.46 40.8632 137.7 40.5284 139.118 40.5284C139.98 40.5284 140.815 40.6709 141.624 40.956C142.433 41.241 143.158 41.6884 143.801 42.2983C144.444 42.9081 144.952 43.7003 145.323 44.6747C145.694 45.6425 145.88 46.8191 145.88 48.2045V49.2585H133.739V47.0312H142.966C142.966 46.2491 142.807 45.5563 142.489 44.9531C142.171 44.3433 141.723 43.8627 141.147 43.5114C140.577 43.16 139.907 42.9844 139.138 42.9844C138.303 42.9844 137.574 43.1899 136.951 43.6009C136.334 44.0052 135.857 44.5355 135.519 45.1918C135.187 45.8414 135.022 46.5473 135.022 47.3097V49.0497C135.022 50.0705 135.201 50.9389 135.559 51.6548C135.923 52.3707 136.43 52.9176 137.08 53.2955C137.73 53.6667 138.489 53.8523 139.357 53.8523C139.92 53.8523 140.434 53.7727 140.898 53.6136C141.362 53.4479 141.763 53.2027 142.101 52.8778C142.439 52.553 142.698 52.152 142.877 51.6747L145.691 52.1818C145.465 53.0104 145.061 53.7363 144.478 54.3594C143.901 54.9759 143.175 55.4564 142.3 55.8011C141.432 56.1392 140.441 56.3082 139.327 56.3082ZM149.678 56V40.7273H152.552V43.1534H152.711C152.989 42.3314 153.48 41.6851 154.183 41.2145C154.892 40.7372 155.694 40.4986 156.589 40.4986C156.774 40.4986 156.993 40.5052 157.245 40.5185C157.504 40.5317 157.706 40.5483 157.852 40.5682V43.4119C157.732 43.3788 157.52 43.3423 157.215 43.3026C156.91 43.2562 156.605 43.233 156.3 43.233C155.598 43.233 154.971 43.3821 154.421 43.6804C153.878 43.9721 153.447 44.3797 153.129 44.9034C152.81 45.4205 152.651 46.0104 152.651 46.6733V56H149.678ZM168.956 40.7273V43.1136H160.614V40.7273H168.956ZM162.851 37.0682H165.824V51.5156C165.824 52.0923 165.91 52.5265 166.082 52.8182C166.255 53.1032 166.477 53.2988 166.749 53.4048C167.027 53.5043 167.329 53.554 167.653 53.554C167.892 53.554 168.101 53.5374 168.28 53.5043C168.459 53.4711 168.598 53.4446 168.697 53.4247L169.234 55.8807C169.062 55.947 168.817 56.0133 168.499 56.0795C168.18 56.1525 167.783 56.1922 167.305 56.1989C166.523 56.2121 165.794 56.0729 165.118 55.7812C164.442 55.4896 163.895 55.0388 163.477 54.429C163.06 53.8191 162.851 53.0535 162.851 52.1321V37.0682ZM174.624 61.7273C174.18 61.7273 173.775 61.6908 173.411 61.6179C173.046 61.5516 172.775 61.4787 172.596 61.3991L173.311 58.9631C173.855 59.1089 174.339 59.1719 174.763 59.152C175.187 59.1321 175.562 58.973 175.887 58.6747C176.218 58.3764 176.51 57.8892 176.762 57.2131L177.13 56.1989L171.542 40.7273H174.723L178.591 52.5795H178.75L182.618 40.7273H185.81L179.516 58.0384C179.224 58.8338 178.853 59.5066 178.402 60.0568C177.952 60.6136 177.415 61.0313 176.792 61.3097C176.168 61.5881 175.446 61.7273 174.624 61.7273ZM199.987 35.6364V56H197.014V35.6364H199.987ZM204.487 56V40.7273H207.46V56H204.487ZM205.988 38.3707C205.471 38.3707 205.027 38.1984 204.656 37.8537C204.291 37.5024 204.109 37.0848 204.109 36.6009C204.109 36.1103 204.291 35.6927 204.656 35.348C205.027 34.9967 205.471 34.821 205.988 34.821C206.505 34.821 206.946 34.9967 207.311 35.348C207.682 35.6927 207.868 36.1103 207.868 36.6009C207.868 37.0848 207.682 37.5024 207.311 37.8537C206.946 38.1984 206.505 38.3707 205.988 38.3707ZM223.404 44.456L220.71 44.9332C220.597 44.5885 220.418 44.2604 220.173 43.9489C219.934 43.6373 219.609 43.3821 219.198 43.1832C218.787 42.9844 218.273 42.8849 217.657 42.8849C216.815 42.8849 216.112 43.0739 215.549 43.4517C214.986 43.8229 214.704 44.3035 214.704 44.8935C214.704 45.4039 214.893 45.8149 215.271 46.1264C215.648 46.438 216.258 46.6932 217.1 46.892L219.526 47.4489C220.932 47.7737 221.979 48.2741 222.668 48.9503C223.358 49.6264 223.702 50.5047 223.702 51.5852C223.702 52.5 223.437 53.3153 222.907 54.0312C222.383 54.7405 221.651 55.2973 220.71 55.7017C219.775 56.1061 218.691 56.3082 217.458 56.3082C215.748 56.3082 214.353 55.9437 213.272 55.2145C212.192 54.4787 211.529 53.4347 211.283 52.0824L214.157 51.6449C214.336 52.3939 214.704 52.9607 215.261 53.3452C215.817 53.723 216.543 53.9119 217.438 53.9119C218.413 53.9119 219.192 53.7098 219.775 53.3054C220.358 52.8944 220.65 52.3939 220.65 51.804C220.65 51.3267 220.471 50.9257 220.113 50.6009C219.762 50.276 219.221 50.0308 218.492 49.8651L215.907 49.2983C214.482 48.9735 213.428 48.4564 212.745 47.7472C212.069 47.0379 211.731 46.1397 211.731 45.0526C211.731 44.151 211.983 43.3622 212.487 42.6861C212.99 42.0099 213.686 41.483 214.575 41.1051C215.463 40.7206 216.48 40.5284 217.627 40.5284C219.278 40.5284 220.577 40.8864 221.525 41.6023C222.473 42.3116 223.099 43.2628 223.404 44.456ZM234.6 40.7273V43.1136H226.258V40.7273H234.6ZM228.495 37.0682H231.468V51.5156C231.468 52.0923 231.555 52.5265 231.727 52.8182C231.899 53.1032 232.121 53.2988 232.393 53.4048C232.672 53.5043 232.973 53.554 233.298 53.554C233.537 53.554 233.745 53.5374 233.924 53.5043C234.103 53.4711 234.243 53.4446 234.342 53.4247L234.879 55.8807C234.707 55.947 234.461 56.0133 234.143 56.0795C233.825 56.1525 233.427 56.1922 232.95 56.1989C232.168 56.2121 231.439 56.0729 230.762 55.7812C230.086 55.4896 229.539 55.0388 229.122 54.429C228.704 53.8191 228.495 53.0535 228.495 52.1321V37.0682ZM238.389 56V40.7273H241.362V56H238.389ZM239.891 38.3707C239.374 38.3707 238.929 38.1984 238.558 37.8537C238.194 37.5024 238.011 37.0848 238.011 36.6009C238.011 36.1103 238.194 35.6927 238.558 35.348C238.929 34.9967 239.374 34.821 239.891 34.821C240.408 34.821 240.848 34.9967 241.213 35.348C241.584 35.6927 241.77 36.1103 241.77 36.6009C241.77 37.0848 241.584 37.5024 241.213 37.8537C240.848 38.1984 240.408 38.3707 239.891 38.3707ZM248.835 46.9318V56H245.862V40.7273H248.716V43.2131H248.904C249.256 42.4044 249.806 41.7547 250.555 41.2642C251.311 40.7737 252.262 40.5284 253.409 40.5284C254.449 40.5284 255.361 40.7472 256.143 41.1847C256.925 41.6155 257.532 42.2585 257.963 43.1136C258.394 43.9687 258.609 45.026 258.609 46.2855V56H255.636V46.6435C255.636 45.5365 255.348 44.6714 254.771 44.0483C254.194 43.4186 253.402 43.1037 252.395 43.1037C251.705 43.1037 251.092 43.2528 250.555 43.5511C250.025 43.8494 249.604 44.2869 249.292 44.8636C248.987 45.4337 248.835 46.1231 248.835 46.9318ZM269.5 62.0455C268.287 62.0455 267.243 61.8864 266.368 61.5682C265.499 61.25 264.79 60.8291 264.24 60.3054C263.69 59.7817 263.279 59.2083 263.007 58.5852L265.562 57.5312C265.741 57.8229 265.98 58.1312 266.278 58.456C266.583 58.7874 266.994 59.0691 267.511 59.3011C268.035 59.5331 268.708 59.6491 269.529 59.6491C270.656 59.6491 271.588 59.3741 272.324 58.8239C273.059 58.2803 273.427 57.4119 273.427 56.2188V53.2159H273.238C273.059 53.5407 272.801 53.902 272.463 54.2997C272.131 54.6974 271.674 55.0421 271.091 55.3338C270.507 55.6255 269.748 55.7713 268.814 55.7713C267.607 55.7713 266.52 55.4896 265.552 54.9261C264.591 54.3561 263.829 53.5175 263.265 52.4105C262.708 51.2969 262.43 49.928 262.43 48.304C262.43 46.6799 262.705 45.2879 263.255 44.1278C263.812 42.9678 264.574 42.0795 265.542 41.4631C266.51 40.84 267.607 40.5284 268.833 40.5284C269.781 40.5284 270.547 40.6875 271.13 41.0057C271.714 41.3172 272.168 41.6818 272.493 42.0994C272.824 42.517 273.079 42.8849 273.258 43.2031H273.477V40.7273H276.39V56.3381C276.39 57.6506 276.085 58.7277 275.475 59.5696C274.866 60.4115 274.04 61.0346 273 61.4389C271.966 61.8433 270.799 62.0455 269.5 62.0455ZM269.47 53.3054C270.325 53.3054 271.047 53.1065 271.637 52.7088C272.234 52.3045 272.685 51.7277 272.99 50.9787C273.301 50.223 273.457 49.3182 273.457 48.2642C273.457 47.2367 273.305 46.3319 273 45.5497C272.695 44.7675 272.247 44.1577 271.657 43.7202C271.067 43.276 270.338 43.054 269.47 43.054C268.575 43.054 267.829 43.286 267.233 43.75C266.636 44.2074 266.185 44.8305 265.88 45.6193C265.582 46.4081 265.433 47.2898 265.433 48.2642C265.433 49.2652 265.585 50.1435 265.89 50.8991C266.195 51.6548 266.646 52.2448 267.243 52.669C267.846 53.0933 268.588 53.3054 269.47 53.3054ZM292.322 44.456L289.627 44.9332C289.515 44.5885 289.336 44.2604 289.091 43.9489C288.852 43.6373 288.527 43.3821 288.116 43.1832C287.705 42.9844 287.191 42.8849 286.575 42.8849C285.733 42.8849 285.03 43.0739 284.467 43.4517C283.904 43.8229 283.622 44.3035 283.622 44.8935C283.622 45.4039 283.811 45.8149 284.189 46.1264C284.566 46.438 285.176 46.6932 286.018 46.892L288.444 47.4489C289.85 47.7737 290.897 48.2741 291.586 48.9503C292.276 49.6264 292.62 50.5047 292.62 51.5852C292.62 52.5 292.355 53.3153 291.825 54.0312C291.301 54.7405 290.569 55.2973 289.627 55.7017C288.693 56.1061 287.609 56.3082 286.376 56.3082C284.666 56.3082 283.27 55.9437 282.19 55.2145C281.109 54.4787 280.447 53.4347 280.201 52.0824L283.075 51.6449C283.254 52.3939 283.622 52.9607 284.179 53.3452C284.735 53.723 285.461 53.9119 286.356 53.9119C287.331 53.9119 288.109 53.7098 288.693 53.3054C289.276 52.8944 289.568 52.3939 289.568 51.804C289.568 51.3267 289.389 50.9257 289.031 50.6009C288.68 50.276 288.139 50.0308 287.41 49.8651L284.825 49.2983C283.4 48.9735 282.346 48.4564 281.663 47.7472C280.987 47.0379 280.649 46.1397 280.649 45.0526C280.649 44.151 280.901 43.3622 281.404 42.6861C281.908 42.0099 282.604 41.483 283.493 41.1051C284.381 40.7206 285.398 40.5284 286.545 40.5284C288.196 40.5284 289.495 40.8864 290.443 41.6023C291.391 42.3116 292.017 43.2628 292.322 44.456ZM307.551 50.1435V49.9545C307.564 48.7216 307.687 47.7405 307.919 47.0114C308.157 46.2822 308.495 45.6922 308.933 45.2415C309.37 44.7907 309.897 44.3797 310.514 44.0085C310.912 43.7566 311.27 43.4749 311.588 43.1634C311.906 42.8518 312.158 42.4938 312.343 42.0895C312.529 41.6851 312.622 41.2377 312.622 40.7472C312.622 40.1572 312.483 39.6468 312.204 39.2159C311.926 38.785 311.555 38.4536 311.091 38.2216C310.633 37.983 310.123 37.8636 309.559 37.8636C309.049 37.8636 308.562 37.9697 308.098 38.1818C307.634 38.3939 307.249 38.7254 306.944 39.1761C306.639 39.6203 306.464 40.1937 306.417 40.8963H303.395C303.441 39.7031 303.743 38.6955 304.299 37.8736C304.856 37.045 305.592 36.4186 306.507 35.9943C307.428 35.5701 308.446 35.358 309.559 35.358C310.779 35.358 311.846 35.5866 312.761 36.044C313.676 36.4948 314.385 37.1278 314.889 37.9432C315.399 38.7519 315.654 39.6965 315.654 40.777C315.654 41.5194 315.538 42.1889 315.306 42.7855C315.074 43.3755 314.743 43.9025 314.312 44.3665C313.888 44.8305 313.377 45.2415 312.781 45.5994C312.217 45.9508 311.76 46.3153 311.409 46.6932C311.064 47.071 310.812 47.5185 310.653 48.0355C310.494 48.5526 310.408 49.1922 310.395 49.9545V50.1435H307.551ZM309.052 56.1889C308.509 56.1889 308.041 55.9967 307.65 55.6122C307.259 55.2211 307.064 54.7505 307.064 54.2003C307.064 53.6567 307.259 53.1927 307.65 52.8082C308.041 52.4171 308.509 52.2216 309.052 52.2216C309.589 52.2216 310.053 52.4171 310.444 52.8082C310.842 53.1927 311.041 53.6567 311.041 54.2003C311.041 54.5649 310.948 54.8996 310.762 55.2045C310.583 55.5028 310.345 55.7415 310.047 55.9205C309.748 56.0994 309.417 56.1889 309.052 56.1889Z" fill="white"/>
</svg>
