<svg width="306" height="307" viewBox="0 0 306 307" fill="none" xmlns="http://www.w3.org/2000/svg">
<path d="M29.7922 186.15C29.7922 186.15 35.3027 184.338 37.9434 197.057C40.5842 209.776 40.982 216.803 40.982 216.803C40.982 216.803 41.8474 219.553 43.8719 218.463C45.8964 217.373 49.282 213.636 51.7997 215.163C54.4111 216.747 54.4809 220.163 52.6718 224.661C50.8628 229.158 47.2618 239.159 46.9392 240.064C46.6228 240.953 46.7777 242.432 48.2758 241.911C49.774 241.389 59.2386 235.289 61.8647 239.953C64.4902 244.617 57.3922 256.32 56.6413 257.614C55.8897 258.908 55.9999 259.579 56.5684 260.105C57.137 260.631 60.1248 258.281 62.888 256.656C65.6511 255.031 69.1395 253.632 70.429 256.45C71.7185 259.268 69.7301 268.96 56.4405 281.956L49.8885 287.574L41.6644 284.83C24.4231 277.885 18.8888 269.684 19.0057 266.587C19.1232 263.49 22.8815 263.454 26.0553 263.902C29.2292 264.35 32.8877 265.383 33.2127 264.68C33.5377 263.976 33.3834 263.314 32.1955 262.405C31.0076 261.495 19.9825 253.385 20.6312 248.071C21.2793 242.758 32.3553 244.787 33.9391 244.698C35.523 244.609 35.1019 243.183 34.4703 242.482C33.8271 241.768 26.6845 233.897 23.2971 230.429C19.9096 226.961 18.6709 223.777 20.4812 221.317C22.2267 218.945 26.7812 221.108 29.0682 221.344C31.3553 221.579 31.1062 218.707 31.1062 218.707C31.1062 218.707 28.7934 212.059 26.384 199.295C23.9745 186.53 29.9073 186.121 29.9073 186.121" fill="#F5F5F5"/>
<path d="M49.9343 285.759C48.1301 276.391 45.5279 263.47 42.605 249.207C39.6833 234.948 37.0486 222.037 35.1924 212.68C34.2708 208.01 33.5235 204.227 33.0045 201.597C32.7469 200.298 32.5455 199.286 32.406 198.584C32.3362 198.249 32.2824 197.99 32.2432 197.801C32.2047 197.625 32.1777 197.537 32.1777 197.537C32.1777 197.537 32.1851 197.63 32.2138 197.807C32.2463 197.997 32.291 198.259 32.3479 198.595C32.4746 199.3 32.6575 200.316 32.8919 201.618C33.3675 204.243 34.0841 208.037 34.988 212.72C36.7922 222.088 39.3944 235.008 42.3161 249.266C45.2384 263.53 47.8737 276.443 49.7299 285.8" fill="#E0E0E0"/>
<path d="M47.2741 220.581C47.2564 220.57 47.126 220.75 46.9051 221.085C46.6823 221.42 46.3757 221.912 46.003 222.525C45.26 223.753 44.279 225.474 43.2318 227.395C42.211 229.287 41.2875 230.998 40.5739 232.322C40.2557 232.906 39.9846 233.403 39.7624 233.811C39.5696 234.161 39.4711 234.362 39.4882 234.372C39.5054 234.383 39.637 234.204 39.8609 233.87C40.0825 233.535 40.3897 233.042 40.7557 232.425C41.487 231.19 42.4448 229.456 43.4913 227.537C44.5256 225.653 45.4601 223.949 46.1835 222.631C46.5048 222.048 46.7784 221.552 47.0036 221.145C47.1945 220.792 47.2912 220.592 47.2741 220.581Z" fill="#E0E0E0"/>
<path d="M38.684 234.31C38.7262 234.24 35.2678 232.059 30.9593 229.438C26.6496 226.816 23.1227 224.748 23.0805 224.818C23.0382 224.888 26.496 227.069 30.8057 229.691C35.1136 232.312 38.6418 234.38 38.684 234.31Z" fill="#E0E0E0"/>
<path d="M44.1577 256.009C44.162 255.989 43.9466 255.918 43.5524 255.808C43.0965 255.683 42.5383 255.532 41.8811 255.353C40.4704 254.968 38.5242 254.431 36.3988 253.76C34.2702 253.095 32.3651 252.427 30.9893 251.933C30.3479 251.704 29.8032 251.51 29.3577 251.351C28.9715 251.216 28.7537 251.15 28.7463 251.169C28.7384 251.188 28.9415 251.29 29.3155 251.457C29.6894 251.625 30.2347 251.857 30.9152 252.128C32.2751 252.672 34.1754 253.374 36.3106 254.041C38.4435 254.714 40.4043 255.221 41.8303 255.555C42.5439 255.719 43.1234 255.844 43.5261 255.919C43.9282 255.996 44.1534 256.028 44.1577 256.009Z" fill="#E0E0E0"/>
<path d="M54.6615 245.3C54.6474 245.285 54.4853 245.419 54.2043 245.673C53.924 245.927 53.5244 246.301 53.0354 246.768C52.0574 247.702 50.7215 249.007 49.2582 250.461C47.7949 251.916 46.4815 253.244 45.5415 254.216C45.0715 254.701 44.6945 255.099 44.4393 255.377C44.1835 255.656 44.0494 255.817 44.0635 255.832C44.0782 255.847 44.2398 255.712 44.5207 255.459C44.8016 255.205 45.2006 254.831 45.6896 254.364C46.6676 253.43 48.0036 252.125 49.4675 250.67C50.9308 249.216 52.2435 247.888 53.1835 246.916C53.6535 246.43 54.0305 246.033 54.2864 245.755C54.5409 245.476 54.6756 245.315 54.6615 245.3Z" fill="#E0E0E0"/>
<path d="M61.9289 263.843C61.9148 263.828 61.7092 264.001 61.3499 264.327C60.9521 264.697 60.4491 265.166 59.8481 265.726C58.5886 266.916 56.8634 268.575 54.9704 270.42C53.0769 272.267 51.3743 273.95 50.1522 275.178C49.5775 275.764 49.0959 276.256 48.7158 276.644C48.381 276.995 48.203 277.196 48.2176 277.211C48.2317 277.226 48.4373 277.053 48.7966 276.727C49.1944 276.357 49.6975 275.888 50.2984 275.329C51.5579 274.138 53.2832 272.479 55.1767 270.633C57.0696 268.787 58.7722 267.105 59.9937 265.876C60.5684 265.289 61.0501 264.798 61.4301 264.409C61.7649 264.059 61.943 263.857 61.9289 263.843Z" fill="#E0E0E0"/>
<path d="M48.4542 276.798C48.4598 276.779 48.1886 276.683 47.6935 276.525C47.144 276.355 46.4395 276.135 45.595 275.874C43.8232 275.323 41.3795 274.554 38.7045 273.631C36.0276 272.711 33.6261 271.817 31.8917 271.158C31.0643 270.845 30.3739 270.585 29.836 270.381C29.3494 270.2 29.0765 270.108 29.0685 270.127C29.0606 270.146 29.3188 270.273 29.7919 270.487C30.2656 270.702 30.9553 270.999 31.8146 271.352C33.5312 272.061 35.926 272.989 38.6078 273.91C41.2877 274.834 43.7467 275.573 45.535 276.074C46.4304 276.322 47.1568 276.514 47.6617 276.636C48.1672 276.759 48.4494 276.818 48.4542 276.798Z" fill="#E0E0E0"/>
<path d="M280.499 39.4531H223.199V122.506H280.499V39.4531Z" fill="#E0E0E0"/>
<path d="M277.63 39.4531H220.33V122.506H277.63V39.4531Z" fill="#F5F5F5"/>
<path d="M270.509 48.4473H227.447V113.51H270.509V48.4473Z" fill="white"/>
<path d="M270.509 113.51C270.509 113.51 270.503 113.4 270.5 113.192C270.498 112.977 270.495 112.67 270.492 112.269C270.488 111.451 270.482 110.254 270.474 108.7C270.466 105.582 270.452 101.038 270.436 95.2975C270.419 83.8243 270.394 67.5782 270.365 48.4465L270.508 48.5897C257.352 48.5933 242.774 48.5976 227.452 48.6025H227.447L227.603 48.4465C227.591 72.9907 227.58 95.6206 227.571 113.509L227.447 113.385C240.561 113.413 251.31 113.435 258.79 113.451C262.532 113.464 265.454 113.475 267.45 113.482C268.442 113.489 269.201 113.493 269.723 113.497C270.238 113.501 270.509 113.51 270.509 113.51C270.509 113.51 270.255 113.519 269.749 113.523C269.233 113.527 268.48 113.531 267.499 113.538C265.509 113.545 262.597 113.555 258.867 113.569C251.369 113.585 240.593 113.607 227.447 113.634H227.323V113.51C227.314 95.6219 227.303 72.9913 227.291 48.4471V48.291H227.447H227.452C242.774 48.2953 257.352 48.3002 270.508 48.3039H270.651V48.4471C270.622 67.6174 270.598 83.8959 270.581 95.3918C270.564 101.118 270.551 105.651 270.542 108.762C270.535 110.304 270.529 111.491 270.525 112.302C270.521 112.696 270.518 112.997 270.517 113.208C270.514 113.411 270.509 113.51 270.509 113.51Z" fill="#E0E0E0"/>
<path d="M277.789 39.4522C277.823 39.4779 277.434 40.0458 276.768 40.9363C276.102 41.8261 275.158 43.0373 274.079 44.3463C273 45.656 271.993 46.8151 271.247 47.6389C270.501 48.4626 270.018 48.9535 269.986 48.9253C269.953 48.8966 270.377 48.3549 271.08 47.4951C271.848 46.563 272.793 45.4167 273.839 44.148C274.883 42.8794 275.827 41.7319 276.595 40.7998C277.304 39.9454 277.755 39.4252 277.789 39.4522Z" fill="#E0E0E0"/>
<path d="M270.729 113.301C272.867 116.702 275.392 119.86 278.239 122.694L270.729 113.301Z" fill="white"/>
<path d="M278.24 122.695C278.211 122.723 277.7 122.28 276.93 121.504C276.161 120.728 275.14 119.611 274.098 118.308C273.055 117.004 272.191 115.763 271.603 114.841C271.015 113.919 270.695 113.323 270.729 113.302C270.768 113.277 271.154 113.831 271.785 114.718C272.417 115.605 273.305 116.817 274.34 118.114C275.377 119.409 276.365 120.542 277.091 121.352C277.817 122.164 278.272 122.662 278.24 122.695Z" fill="#E0E0E0"/>
<path d="M220.32 122.442C222.822 119.355 225.324 116.269 227.826 113.182L220.32 122.442Z" fill="white"/>
<path d="M227.826 113.181C227.893 113.235 226.267 115.352 224.194 117.909C222.121 120.467 220.387 122.495 220.32 122.441C220.254 122.386 221.879 120.27 223.952 117.713C226.024 115.156 227.759 113.126 227.826 113.181Z" fill="#E0E0E0"/>
<path d="M220.33 39.4522C220.398 39.399 222.029 41.3488 223.973 43.8072C225.918 46.2662 227.439 48.3024 227.371 48.3556C227.304 48.4089 225.673 46.4596 223.728 44C221.784 41.5422 220.262 39.5055 220.33 39.4522Z" fill="#E0E0E0"/>
<path d="M257.093 61.6582H242.674V102.597H257.093V61.6582Z" fill="#E0E0E0"/>
<path d="M100.626 26.1836V71.9459H34.8991L32.5312 26.5037L100.626 26.1836Z" fill="#E0E0E0"/>
<path d="M32.5312 26.5041V71.8496H98.2582V26.5041L32.5312 26.5041Z" fill="white"/>
<path d="M98.5707 72.1625H32.2207V26.1934H98.5713L98.5707 72.1625ZM32.8443 71.5389H97.9477V26.817H32.8443V71.5389Z" fill="#E0E0E0"/>
<path d="M91.1398 32.1387H39.6504V66.2167H91.1398V32.1387Z" fill="white"/>
<path d="M91.1399 32.1382C91.1399 32.1382 91.0511 32.1443 90.8859 32.1468C90.7115 32.1486 90.4691 32.1517 90.1539 32.1554C89.5015 32.1596 88.5542 32.1658 87.3265 32.1731C84.8534 32.1823 81.2573 32.1957 76.7156 32.2129C67.6354 32.2306 54.7834 32.2563 39.6505 32.2863L39.7992 32.1376C39.8035 42.5496 39.8077 54.0858 39.8126 66.2113V66.2156L39.6505 66.0534C59.0735 66.0657 76.9812 66.0773 91.1399 66.0865L91.0107 66.2156C91.0395 55.8453 91.0628 47.3421 91.0787 41.421C91.0927 38.4614 91.1037 36.1493 91.1117 34.5648C91.1178 33.7821 91.1227 33.1805 91.1264 32.7631C91.1307 32.3549 91.1399 32.1382 91.1399 32.1382C91.1399 32.1382 91.149 32.3365 91.1539 32.7361C91.157 33.148 91.1619 33.741 91.1686 34.5134C91.176 36.0917 91.1876 38.3941 91.2017 41.3409C91.2182 47.2809 91.2415 55.8116 91.2696 66.2162L91.2702 66.3453H91.1405C76.9819 66.3545 59.0741 66.3662 39.6511 66.3784H39.4883V66.2156V66.2113C39.4932 54.0858 39.4975 42.5496 39.5017 32.1376V31.9883L39.6511 31.9889C54.8232 32.0189 67.7094 32.044 76.8136 32.0623C81.3405 32.0795 84.925 32.0929 87.3901 32.1021C88.6056 32.1101 89.5425 32.1162 90.1882 32.1205C90.4967 32.1241 90.7329 32.1272 90.9036 32.129C91.0627 32.1321 91.1399 32.1382 91.1399 32.1382Z" fill="#E0E0E0"/>
<path d="M32.5328 26.376C32.5603 26.3405 32.9899 26.6227 33.6631 27.108C34.3351 27.5939 35.2513 28.2824 36.2397 29.0731C37.2286 29.8644 38.0983 30.6129 38.7103 31.1735C39.3229 31.7341 39.6803 32.1037 39.6516 32.1368C39.5904 32.206 38.0102 30.9024 36.0365 29.3265C34.0615 27.7524 32.4752 26.4501 32.5328 26.376Z" fill="#E0E0E0"/>
<path d="M98.2589 26.5029C98.3146 26.5733 96.7662 27.8916 94.8005 29.4473C92.8341 31.003 91.1958 32.2074 91.1401 32.137C91.0844 32.0666 92.6328 30.749 94.5985 29.1927C96.5643 27.637 98.2032 26.4326 98.2589 26.5029Z" fill="#E0E0E0"/>
<path d="M98.207 71.8574C95.7645 69.8776 93.3214 67.8978 90.8789 65.918L98.207 71.8574Z" fill="white"/>
<path d="M90.8784 65.9168C90.9347 65.847 92.6214 67.1206 94.6446 68.7602C96.6685 70.4009 98.2634 71.7865 98.2065 71.8563C98.1496 71.926 96.4641 70.6531 94.4402 69.0123C92.417 67.3727 90.8221 65.9866 90.8784 65.9168Z" fill="#E0E0E0"/>
<path d="M32.5327 71.8493C32.477 71.7789 34.0095 70.4741 35.955 68.9355C37.9012 67.3964 39.523 66.206 39.5787 66.2764C39.6344 66.3468 38.1025 67.651 36.1564 69.1901C34.2108 70.7287 32.5884 71.9197 32.5327 71.8493Z" fill="#E0E0E0"/>
<path d="M50.1055 42.7533V54.1641H82.5035V42.7533H50.1055Z" fill="#E0E0E0"/>
<path d="M254.417 178.129C245.181 186.883 230.581 186.475 221.806 177.219C213.032 167.962 213.406 153.36 222.642 144.606C231.878 135.852 246.478 136.261 255.252 145.518C264.027 154.774 263.653 169.375 254.417 178.129Z" fill="#EBEBEB"/>
<path d="M250.636 174.141C243.598 180.811 232.472 180.501 225.785 173.446C219.099 166.392 219.384 155.265 226.422 148.594C233.46 141.923 244.586 142.233 251.273 149.288C257.959 156.343 257.674 167.469 250.636 174.141Z" fill="#F5F5F5"/>
<path d="M251.034 173.759C250.958 173.684 251.467 173.098 252.25 171.965C253.023 170.833 254.063 169.113 254.769 166.781C255.119 165.619 255.384 164.309 255.487 162.89C255.577 161.47 255.521 159.942 255.213 158.377C255.062 157.594 254.862 156.8 254.584 156.014C254.311 155.227 253.987 154.438 253.58 153.673C253.177 152.909 252.723 152.151 252.188 151.434C251.656 150.716 251.064 150.027 250.416 149.375C249.759 148.733 249.063 148.147 248.341 147.621C247.619 147.094 246.857 146.647 246.089 146.25C245.32 145.85 244.527 145.534 243.738 145.268C242.949 144.998 242.153 144.805 241.369 144.661C239.801 144.369 238.271 144.326 236.855 144.43C235.436 144.546 234.13 144.823 232.97 145.184C230.646 145.911 228.937 146.967 227.812 147.751C226.687 148.546 226.105 149.06 226.03 148.984C225.973 148.929 226.429 148.287 227.487 147.339C228.544 146.404 230.247 145.17 232.661 144.282C233.866 143.842 235.238 143.49 236.745 143.317C238.251 143.156 239.887 143.158 241.577 143.437C242.421 143.574 243.279 143.766 244.133 144.044C244.987 144.317 245.845 144.648 246.678 145.07C247.512 145.49 248.338 145.967 249.12 146.532C249.904 147.096 250.655 147.727 251.363 148.419C252.062 149.12 252.699 149.866 253.27 150.643C253.842 151.421 254.327 152.243 254.754 153.072C255.184 153.901 255.522 154.757 255.803 155.607C256.088 156.458 256.289 157.315 256.434 158.158C256.728 159.844 256.746 161.481 256.599 162.988C256.44 164.495 256.101 165.873 255.672 167.081C254.807 169.505 253.589 171.219 252.664 172.286C251.727 173.354 251.089 173.815 251.034 173.759Z" fill="#E0E0E0"/>
<path d="M232.279 170.033L230.085 172.175L228.174 170.215L230.309 168.132C228.535 166.077 227.326 163.624 227.117 161.725L230.558 160.47C230.789 162.157 231.636 164.083 232.876 165.628L236.148 162.435C234.554 159.745 232.909 156.609 235.712 153.875C237.789 151.849 241.043 151.618 244.415 154.37L246.59 152.248L248.502 154.208L246.366 156.292C247.682 157.875 248.685 159.688 249.051 161.434L245.686 162.806C245.279 161.253 244.618 159.909 243.781 158.814L240.45 162.065C242.062 164.735 243.669 167.834 240.907 170.528C238.869 172.515 235.653 172.746 232.279 170.033ZM239.029 159.626L241.81 156.911C240.562 156.102 239.593 156.246 238.946 156.876C238.26 157.546 238.461 158.497 239.029 159.626ZM237.594 167.603C238.28 166.933 238.098 166.002 237.57 164.872L234.866 167.51C236.038 168.28 236.967 168.215 237.594 167.603Z" fill="#E0E0E0"/>
<path d="M163.939 205.512C168.312 218.137 161.6 231.925 148.947 236.309C136.293 240.692 122.49 234.012 118.116 221.387C113.742 208.763 120.454 194.975 133.108 190.592C145.761 186.208 159.565 192.888 163.939 205.512Z" fill="#EBEBEB"/>
<path d="M158.487 207.402C161.82 217.022 156.705 227.529 147.061 230.87C137.419 234.211 126.9 229.12 123.567 219.5C120.234 209.879 125.35 199.372 134.992 196.031C144.635 192.691 155.154 197.781 158.487 207.402Z" fill="#F5F5F5"/>
<path d="M158.293 206.855C158.189 206.896 157.849 206.155 157.104 204.915C156.356 203.686 155.162 201.946 153.236 200.261C152.276 199.424 151.14 198.602 149.826 197.889C148.507 197.189 147.021 196.581 145.39 196.197C144.577 196.002 143.731 195.851 142.859 195.775C141.988 195.696 141.092 195.664 140.185 195.722C139.279 195.777 138.357 195.883 137.44 196.083C136.523 196.281 135.607 196.548 134.704 196.886C133.805 197.237 132.944 197.648 132.128 198.111C131.31 198.574 130.553 199.108 129.84 199.671C129.125 200.234 128.479 200.854 127.883 201.495C127.283 202.132 126.754 202.81 126.277 203.497C125.318 204.87 124.615 206.315 124.101 207.716C123.597 209.122 123.297 210.492 123.14 211.757C122.829 214.296 123.099 216.388 123.362 217.803C123.634 219.223 123.874 220.002 123.769 220.041C123.692 220.072 123.275 219.358 122.827 217.935C122.39 216.52 121.947 214.356 122.144 211.662C122.244 210.32 122.502 208.855 122.989 207.339C123.488 205.829 124.198 204.265 125.196 202.769C125.692 202.021 126.248 201.284 126.884 200.588C127.515 199.889 128.203 199.211 128.967 198.597C129.73 197.982 130.544 197.399 131.423 196.895C132.302 196.389 133.231 195.944 134.199 195.567C135.173 195.201 136.162 194.915 137.153 194.706C138.144 194.496 139.14 194.388 140.119 194.338C141.098 194.286 142.063 194.332 142.998 194.433C143.935 194.528 144.843 194.707 145.711 194.934C147.451 195.383 149.024 196.075 150.403 196.868C151.775 197.673 152.946 198.593 153.916 199.526C155.859 201.403 156.972 203.311 157.592 204.657C158.206 206.016 158.371 206.827 158.293 206.855Z" fill="#E0E0E0"/>
<path d="M146.611 223.179L147.709 226.205L145.007 227.185L143.939 224.24C141.206 225.048 138.336 225.142 136.429 224.519L136.718 220.684C138.432 221.194 140.641 221.218 142.656 220.701L141.019 216.189C137.755 216.549 134.043 216.764 132.642 212.9C131.604 210.036 132.792 206.823 136.884 204.79L135.796 201.79L138.498 200.811L139.566 203.756C141.651 203.183 143.819 203.008 145.648 203.415L145.503 207.228C143.841 206.945 142.269 206.995 140.859 207.322L142.525 211.915C145.778 211.529 149.437 211.334 150.819 215.142C151.838 217.951 150.666 221.128 146.611 223.179ZM139.579 212.218L138.186 208.382C136.872 209.226 136.59 210.215 136.913 211.107C137.256 212.052 138.253 212.271 139.579 212.218ZM146.587 217.044C146.244 216.098 145.274 215.869 143.965 215.884L145.318 219.612C146.561 218.826 146.901 217.908 146.587 217.044Z" fill="#E0E0E0"/>
<path d="M71.8278 145.632C71.9673 156.845 62.9697 166.048 51.7315 166.189C40.4928 166.329 31.2681 157.353 31.1286 146.14C30.9884 134.927 39.986 125.724 51.2248 125.584C62.4636 125.444 71.6876 134.42 71.8278 145.632Z" fill="#EBEBEB"/>
<path d="M66.9855 145.692C67.092 154.236 60.2358 161.25 51.6702 161.357C43.1065 161.464 36.0765 154.623 35.97 146.079C35.8635 137.534 42.7203 130.52 51.2847 130.413C59.849 130.307 66.8784 137.147 66.9855 145.692Z" fill="#F5F5F5"/>
<path d="M66.9768 145.208C66.8825 145.212 66.8085 144.533 66.5435 143.348C66.2736 142.17 65.7828 140.468 64.6953 138.617C64.1524 137.695 63.4645 136.741 62.6071 135.824C61.743 134.917 60.7203 134.04 59.5233 133.302C58.9266 132.931 58.2931 132.587 57.6181 132.296C56.9455 132.002 56.2411 131.739 55.503 131.545C54.7668 131.349 54.0048 131.19 53.2215 131.106C52.4381 131.021 51.6382 130.991 50.8292 131.021C50.0207 131.062 49.2257 131.162 48.4534 131.315C47.6798 131.466 46.935 131.692 46.2184 131.952C45.4999 132.21 44.8212 132.534 44.1767 132.886C43.5299 133.234 42.9289 133.634 42.3671 134.055C41.2397 134.895 40.2973 135.859 39.5164 136.838C38.7428 137.826 38.1412 138.837 37.681 139.803C36.7611 141.742 36.4221 143.48 36.2562 144.677C36.0971 145.88 36.0824 146.564 35.9882 146.567C35.919 146.571 35.7752 145.892 35.7948 144.641C35.8223 143.398 36.042 141.558 36.9123 139.464C37.348 138.422 37.9417 137.323 38.7312 136.244C39.5274 135.174 40.5078 134.116 41.6988 133.189C42.2918 132.725 42.9301 132.284 43.6204 131.898C44.3077 131.509 45.0354 131.152 45.8071 130.865C46.5776 130.576 47.3799 130.327 48.2141 130.159C49.047 129.99 49.9051 129.881 50.7765 129.837C51.6493 129.804 52.5122 129.837 53.3567 129.933C54.2019 130.028 55.0238 130.206 55.8158 130.425C56.6095 130.643 57.3659 130.936 58.0838 131.263C58.8048 131.587 59.4798 131.97 60.1114 132.381C61.3788 133.2 62.4486 134.166 63.336 135.163C64.2161 136.168 64.9052 137.211 65.4303 138.211C66.4805 140.22 66.8617 142.034 66.9988 143.271C67.1298 144.517 67.0466 145.205 66.9768 145.208Z" fill="#E0E0E0"/>
<path d="M53.348 155.114L53.4208 157.815L51.0095 157.879L50.9386 155.252C48.5475 155.171 46.2372 154.486 44.8828 153.485L46.1288 150.507C47.359 151.367 49.1117 151.971 50.8529 152.094L50.7439 148.067C48.0499 147.488 45.0364 146.677 44.9434 143.228C44.8749 140.672 46.6723 138.428 50.4698 137.892L50.3975 135.215L52.8088 135.15L52.8792 137.779C54.6913 137.875 56.4643 138.31 57.8131 139.117L56.6877 142.116C55.4392 141.45 54.1742 141.074 52.9643 140.961L53.075 145.061C55.7678 145.616 58.7336 146.429 58.8254 149.828C58.8952 152.335 57.121 154.554 53.348 155.114ZM50.6503 144.522L50.5573 141.098C49.2874 141.422 48.8002 142.135 48.821 142.931C48.8443 143.775 49.5799 144.214 50.6503 144.522ZM54.9539 150.222C54.9312 149.377 54.2195 148.938 53.173 148.604L53.2623 151.931C54.4612 151.635 54.9747 150.993 54.9539 150.222Z" fill="#E0E0E0"/>
<path d="M168.207 57.9522C169.649 55.3652 170.475 52.3805 170.475 49.1987C170.475 39.337 162.573 31.3418 152.824 31.3418C151.197 31.3418 149.624 31.5688 148.129 31.9856C155.598 34.0658 161.086 40.982 161.086 49.1987C161.086 57.4154 155.598 64.3316 148.129 66.4118C149.625 66.8286 151.197 67.0557 152.824 67.0557C156.258 67.0557 159.461 66.0599 162.173 64.3433L170.475 67.5532L168.207 57.9522Z" fill="#EBEBEB"/>
<path d="M282.973 287.573C282.973 287.661 224.777 287.732 153.006 287.732C81.2102 287.732 23.0273 287.661 23.0273 287.573C23.0273 287.485 81.2102 287.414 153.006 287.414C224.777 287.414 282.973 287.485 282.973 287.573Z" fill="#263238"/>
<path d="M93.0769 267.922L93.5769 283.152L97.4454 295.084C97.7244 295.944 97.2165 296.861 96.3395 297.08C95.848 297.203 95.3321 297.084 94.9478 296.754C92.5016 294.657 83.5419 286.896 83.5683 285.78C83.5982 284.487 81.9746 269.749 81.9746 269.749L93.0769 267.922Z" fill="#0078D4"/>
<path d="M96.3385 297.081L83.5098 284.754L83.5459 285.398C83.5771 285.956 83.8023 286.485 84.1872 286.889C85.2166 287.97 88.1242 290.894 94.9009 296.758C95.295 297.099 95.8361 297.221 96.3385 297.081Z" fill="#E0E0E0"/>
<path d="M86.359 279.671C86.7549 279.913 86.9116 280.483 86.6858 280.888C86.46 281.294 85.8822 281.458 85.482 281.223C85.0824 280.988 84.873 280.31 85.1429 279.932C85.4128 279.554 86.1019 279.398 86.4336 279.723" fill="white"/>
<path d="M92.4912 290.627C92.5799 290.665 92.8786 289.848 93.7592 289.37C94.6258 288.864 95.4783 289.032 95.4924 288.937C95.5034 288.899 95.3045 288.791 94.9453 288.761C94.5897 288.728 94.0775 288.807 93.5952 289.078C93.1136 289.35 92.7813 289.747 92.624 290.068C92.4642 290.391 92.4526 290.617 92.4912 290.627Z" fill="#263238"/>
<path d="M93.6881 292.603C93.764 292.665 94.2248 292.143 94.9996 291.873C95.7683 291.587 96.4555 291.695 96.4745 291.599C96.5143 291.519 95.764 291.237 94.8858 291.559C94.0051 291.87 93.6067 292.566 93.6881 292.603Z" fill="#263238"/>
<path d="M90.3284 288.129C90.4036 288.197 91.1087 287.391 92.2757 286.867C93.4355 286.324 94.5059 286.316 94.5034 286.215C94.5236 286.132 93.3816 285.984 92.1362 286.562C90.8859 287.127 90.2525 288.09 90.3284 288.129Z" fill="#263238"/>
<path d="M89.7895 283.511C89.8354 283.6 90.6561 283.202 91.7479 283.102C92.8385 282.986 93.721 283.216 93.7485 283.12C93.7865 283.043 92.8868 282.648 91.7148 282.769C90.5422 282.879 89.7375 283.443 89.7895 283.511Z" fill="#263238"/>
<path d="M89.5297 279.044C89.5817 279.129 90.3987 278.575 91.5566 278.563C92.7145 278.526 93.5542 279.045 93.6025 278.957C93.6258 278.924 93.4489 278.743 93.0866 278.56C92.7274 278.376 92.1729 278.217 91.5493 278.229C90.9256 278.243 90.3785 278.426 90.0278 278.625C89.6741 278.823 89.5052 279.012 89.5297 279.044Z" fill="#263238"/>
<path d="M91.4829 277.714C91.5025 277.713 91.5252 277.506 91.4713 277.137C91.4175 276.77 91.2798 276.234 90.9297 275.655C90.7498 275.382 90.5582 275.028 90.1225 274.851C89.9058 274.762 89.5931 274.819 89.4242 275.03C89.2565 275.236 89.2136 275.489 89.2216 275.73C89.2914 276.695 90.1727 277.583 91.2663 277.661C92.3636 277.72 93.3171 277.042 93.7027 276.184C93.7853 275.963 93.8361 275.695 93.7033 275.444C93.5729 275.192 93.2578 275.105 93.0423 275.155C92.5943 275.247 92.3238 275.524 92.0692 275.732C91.5686 276.183 91.2688 276.644 91.0968 276.972C90.9242 277.302 90.8746 277.503 90.8924 277.51C90.9481 277.547 91.2351 276.742 92.2235 275.911C92.4732 275.719 92.7608 275.477 93.0839 275.429C93.2418 275.405 93.3814 275.46 93.445 275.584C93.5099 275.704 93.4891 275.897 93.4163 276.071C93.0888 276.774 92.2161 277.391 91.2896 277.327C90.3673 277.271 89.5937 276.488 89.5301 275.712C89.5178 275.525 89.557 275.334 89.6506 275.217C89.743 275.102 89.8911 275.064 90.035 275.113C90.3379 275.216 90.5539 275.524 90.7314 275.781C91.434 276.864 91.4162 277.733 91.4829 277.714Z" fill="#263238"/>
<path d="M122.726 270.185L121.937 281.574C121.937 281.574 133.248 286.2 133.307 288.319L111.17 287.582L111.671 269.787L122.726 270.185Z" fill="#0078D4"/>
<path d="M115.124 280.387C114.692 280.49 114.38 280.962 114.465 281.398C114.55 281.834 115.028 282.156 115.462 282.06C115.895 281.965 116.288 281.41 116.154 280.986C116.021 280.562 115.44 280.215 115.042 280.412" fill="#E0E0E0"/>
<path d="M111.17 287.583L111.29 285.791L132.47 287.167C132.47 287.167 133.441 287.629 133.307 288.319L111.17 287.583Z" fill="#E0E0E0"/>
<path d="M122.3 281.474C122.292 281.582 121.75 281.613 121.207 281.942C120.655 282.258 120.365 282.717 120.267 282.671C120.168 282.647 120.351 282.006 121.016 281.618C121.677 281.225 122.327 281.375 122.3 281.474Z" fill="#263238"/>
<path d="M124.588 282.511C124.61 282.616 124.135 282.785 123.753 283.23C123.358 283.663 123.249 284.155 123.141 284.147C123.039 284.16 122.985 283.525 123.471 282.981C123.952 282.432 124.589 282.408 124.588 282.511Z" fill="#263238"/>
<path d="M125.816 285.334C125.717 285.354 125.585 284.809 125.882 284.226C126.175 283.641 126.693 283.425 126.735 283.516C126.793 283.607 126.454 283.914 126.218 284.396C125.97 284.873 125.924 285.327 125.816 285.334Z" fill="#263238"/>
<path d="M122.192 278.858C122.143 278.956 121.652 278.79 121.04 278.811C120.427 278.819 119.945 279.008 119.892 278.914C119.832 278.834 120.309 278.449 121.031 278.434C121.752 278.415 122.248 278.775 122.192 278.858Z" fill="#263238"/>
<path d="M122.308 276.556C122.307 276.601 121.878 276.653 121.2 276.513C120.862 276.443 120.465 276.319 120.052 276.119C119.845 276.018 119.634 275.899 119.426 275.759C119.326 275.69 119.208 275.62 119.1 275.488C118.984 275.371 118.926 275.082 119.069 274.911C119.189 274.745 119.391 274.678 119.552 274.68C119.715 274.68 119.846 274.717 119.965 274.751C120.21 274.819 120.438 274.908 120.646 275.01C121.063 275.216 121.399 275.472 121.647 275.715C122.144 276.208 122.306 276.617 122.268 276.638C122.218 276.672 121.979 276.325 121.47 275.915C121.216 275.711 120.889 275.498 120.5 275.325C120.304 275.24 120.093 275.164 119.87 275.108C119.637 275.038 119.438 275.03 119.374 275.132C119.351 275.171 119.348 275.187 119.394 275.257C119.443 275.322 119.536 275.387 119.634 275.456C119.826 275.59 120.019 275.707 120.209 275.81C120.589 276.015 120.954 276.158 121.267 276.257C121.896 276.455 122.312 276.497 122.308 276.556Z" fill="#263238"/>
<path d="M122.161 276.708C122.123 276.724 121.921 276.329 121.905 275.628C121.898 275.28 121.948 274.86 122.096 274.419C122.172 274.199 122.272 273.975 122.401 273.755C122.538 273.541 122.706 273.253 123.127 273.219C123.346 273.218 123.522 273.395 123.58 273.544C123.648 273.696 123.658 273.825 123.68 273.954C123.713 274.214 123.699 274.467 123.656 274.7C123.571 275.169 123.365 275.555 123.145 275.83C122.693 276.39 122.238 276.503 122.23 276.467C122.196 276.411 122.579 276.215 122.929 275.675C123.101 275.408 123.258 275.055 123.314 274.645C123.343 274.44 123.347 274.223 123.315 274.003C123.288 273.767 123.206 273.574 123.117 273.595C123.007 273.59 122.814 273.76 122.718 273.945C122.597 274.14 122.5 274.34 122.423 274.537C122.271 274.932 122.198 275.314 122.172 275.636C122.118 276.285 122.221 276.694 122.161 276.708Z" fill="#263238"/>
<path d="M77.2148 157.796L80.486 280.224L97.9488 279.7L102.113 153.623L77.2148 157.796Z" fill="#263238"/>
<path d="M113.512 153.414C113.512 153.414 126.477 205.314 126.875 214.164C127.272 223.013 124.1 278.324 124.1 278.324H107.004L108.431 215.337L95.4453 162.032L98.5885 153.686L113.512 153.414Z" fill="#263238"/>
<path d="M102.96 159.787C102.966 159.788 102.968 159.843 102.967 159.953C102.965 160.081 102.961 160.241 102.958 160.438C102.941 160.889 102.918 161.512 102.888 162.304C102.813 163.948 102.706 166.284 102.574 169.16C102.276 174.969 101.868 182.953 101.417 191.772C100.929 200.593 100.487 208.576 100.166 214.384C99.9913 217.258 99.8499 219.592 99.7502 221.235C99.6957 222.024 99.6522 222.647 99.621 223.097C99.6039 223.295 99.5904 223.454 99.5794 223.581C99.5684 223.69 99.5598 223.746 99.5543 223.746C99.5488 223.746 99.5464 223.69 99.547 223.581C99.5494 223.453 99.5531 223.294 99.5568 223.095C99.5733 222.645 99.5965 222.022 99.6259 221.231C99.7012 219.587 99.8083 217.252 99.9405 214.376C100.238 208.567 100.647 200.581 101.098 191.758C101.586 182.94 102.028 174.956 102.349 169.148C102.524 166.274 102.665 163.94 102.765 162.297C102.819 161.507 102.863 160.885 102.894 160.435C102.911 160.238 102.925 160.079 102.936 159.952C102.947 159.843 102.955 159.787 102.96 159.787Z" fill="#455A64"/>
<path d="M101.044 86.8633C101.044 86.8633 107.387 118.343 107.479 127.214C107.571 136.085 110.686 153.413 110.686 153.413H83.2058L82.6128 105.452L80.6562 91.1461L84.783 85.2617L101.044 86.8633Z" fill="#F5F5F5"/>
<path d="M101.375 87.791C101.375 87.791 107.931 89.7158 109.664 92.1411C111.031 94.0542 112.875 130.265 112.875 130.265L115.688 162.159L112.938 161.901L109.056 149.963L101.375 87.791Z" fill="#0078D4"/>
<path d="M109.664 92.1406L128.173 109.123L150.946 101.745L155.481 111.306L131.183 122.335C127.709 123.817 125.533 123.001 123.123 121.071L110.375 110.861L109.664 92.1406Z" fill="#0078D4"/>
<path d="M146.705 104.794C146.835 105.037 146.743 105.34 146.5 105.469C146.257 105.599 145.954 105.507 145.825 105.264C145.695 105.021 145.787 104.718 146.03 104.589C146.273 104.458 146.575 104.55 146.705 104.794Z" fill="#263238"/>
<path d="M146.266 105.543C146.216 105.543 146.165 105.536 146.116 105.52C145.984 105.481 145.876 105.392 145.811 105.271C145.746 105.149 145.733 105.01 145.772 104.878C145.812 104.747 145.901 104.638 146.023 104.574C146.144 104.51 146.283 104.496 146.415 104.536C146.547 104.575 146.654 104.664 146.719 104.786C146.784 104.907 146.797 105.046 146.758 105.178C146.718 105.31 146.629 105.418 146.507 105.482C146.432 105.522 146.35 105.543 146.266 105.543ZM146.264 104.544C146.187 104.544 146.11 104.562 146.037 104.601C145.923 104.662 145.84 104.763 145.802 104.887C145.765 105.011 145.778 105.142 145.838 105.255C145.9 105.369 146.001 105.453 146.125 105.49C146.249 105.528 146.379 105.515 146.493 105.454C146.608 105.393 146.691 105.291 146.728 105.168C146.766 105.044 146.753 104.913 146.692 104.799C146.605 104.637 146.438 104.544 146.264 104.544Z" fill="#263238"/>
<path d="M148.615 104.339C148.745 104.582 148.653 104.884 148.41 105.014C148.167 105.144 147.864 105.052 147.735 104.809C147.605 104.566 147.697 104.263 147.94 104.134C148.183 104.003 148.486 104.095 148.615 104.339Z" fill="#263238"/>
<path d="M148.175 105.088C148.125 105.088 148.074 105.081 148.025 105.066C147.893 105.026 147.785 104.937 147.721 104.816C147.587 104.566 147.682 104.253 147.932 104.119C148.053 104.055 148.192 104.041 148.324 104.081C148.456 104.121 148.564 104.209 148.629 104.331C148.694 104.452 148.707 104.591 148.667 104.723C148.628 104.855 148.539 104.963 148.417 105.028C148.341 105.068 148.259 105.088 148.175 105.088ZM148.173 104.089C148.095 104.089 148.017 104.108 147.946 104.146C147.711 104.272 147.621 104.566 147.747 104.802C147.808 104.916 147.91 104.999 148.033 105.037C148.158 105.074 148.289 105.061 148.402 105.001C148.638 104.875 148.727 104.581 148.601 104.346C148.54 104.232 148.438 104.148 148.315 104.111C148.268 104.096 148.221 104.089 148.173 104.089Z" fill="#263238"/>
<path d="M150.432 103.971C150.561 104.215 150.47 104.517 150.227 104.647C149.984 104.776 149.681 104.685 149.551 104.442C149.421 104.198 149.513 103.896 149.756 103.766C149.999 103.636 150.302 103.728 150.432 103.971Z" fill="#263238"/>
<path d="M149.992 104.722C149.942 104.722 149.891 104.715 149.842 104.699C149.71 104.66 149.602 104.571 149.538 104.449C149.473 104.328 149.459 104.189 149.499 104.057C149.539 103.926 149.627 103.817 149.749 103.753C149.998 103.618 150.311 103.713 150.445 103.964C150.579 104.214 150.484 104.527 150.233 104.66C150.158 104.701 150.075 104.722 149.992 104.722ZM149.99 103.723C149.914 103.723 149.836 103.742 149.763 103.78C149.649 103.841 149.565 103.943 149.528 104.066C149.49 104.19 149.503 104.321 149.564 104.436C149.625 104.549 149.727 104.633 149.85 104.671C149.974 104.708 150.105 104.695 150.219 104.634C150.454 104.508 150.544 104.215 150.418 103.979C150.331 103.816 150.164 103.723 149.99 103.723Z" fill="#263238"/>
<path d="M151.172 102.221L152.933 101.576L156.977 110.096L155.256 110.83L151.172 102.221Z" fill="#E0E0E0"/>
<path d="M110.257 98.8516C110.279 98.851 110.314 99.1906 110.363 99.8038C110.432 100.473 110.521 101.346 110.629 102.397C110.883 104.642 111.223 107.639 111.597 110.951C111.967 114.294 112.262 117.327 112.401 119.529C112.473 120.629 112.505 121.522 112.513 122.139C112.513 122.757 112.503 123.098 112.481 123.098C112.459 123.099 112.428 122.759 112.389 122.144C112.344 121.53 112.278 120.642 112.176 119.546C111.981 117.354 111.65 114.328 111.281 110.986C110.911 107.645 110.585 104.617 110.405 102.42C110.313 101.32 110.262 100.429 110.24 99.8118C110.228 99.1931 110.235 98.8522 110.257 98.8516Z" fill="#263238"/>
<path d="M114.3 103.1C114.384 103.124 113.865 105.168 113.141 107.663C112.416 110.159 111.759 112.162 111.675 112.138C111.591 112.113 112.11 110.071 112.835 107.574C113.559 105.078 114.215 103.075 114.3 103.1Z" fill="#263238"/>
<path d="M127.976 114.859C127.943 114.875 127.749 114.583 127.566 114.049C127.383 113.518 127.238 112.737 127.29 111.874C127.346 111.009 127.587 110.253 127.836 109.749C128.083 109.243 128.312 108.976 128.343 108.997C128.433 109.041 127.699 110.232 127.608 111.894C127.491 113.554 128.071 114.827 127.976 114.859Z" fill="#263238"/>
<path d="M125.858 134.531L128.228 134.714L127.286 144.596L125 144.336L125.858 134.531Z" fill="#E0E0E0"/>
<path d="M84.7863 85.9473L72.0163 94.0893C69.0205 96.1977 67.7623 100.021 68.9202 103.497L78.7164 134.278L75.184 162.246L103.173 161.058L102.493 148.798L100.115 126.866C99.6738 122.798 98.6628 118.813 97.1101 115.027L84.7863 85.9473Z" fill="#0078D4"/>
<path d="M71.4426 105.183L84.2175 131.913C85.2494 134.072 87.2035 135.648 89.5321 136.2L124.979 144.597L125.882 134.277L98.8241 124.101L85.2133 97.9768C83.1422 94.0019 78.1477 92.5986 74.3092 94.9125C70.7841 97.0368 69.5277 101.54 71.4426 105.183Z" fill="#0078D4"/>
<path d="M125.882 134.277C125.88 134.282 125.831 134.269 125.737 134.238C125.626 134.201 125.489 134.154 125.319 134.096C124.932 133.958 124.396 133.766 123.714 133.522C122.3 133.001 120.283 132.259 117.779 131.338C112.729 129.451 105.717 126.83 97.7743 123.861L97.7168 123.84L97.6887 123.783C96.9334 122.286 96.1409 120.716 95.3349 119.117C93.1146 114.794 90.9046 110.725 88.8379 107.057C87.8048 105.223 86.8079 103.488 85.8654 101.87C85.3917 101.063 84.9333 100.283 84.4933 99.5336C84.2767 99.1554 84.0545 98.7937 83.822 98.4552C83.6084 98.1009 83.3464 97.7943 83.0973 97.4889C82.09 96.2722 80.8538 95.4797 79.6952 95.0195C78.5306 94.558 77.4345 94.4228 76.5538 94.4595C74.7601 94.5231 73.9382 95.219 73.9259 95.1614C73.9229 95.1572 73.973 95.1211 74.074 95.0556C74.1756 94.9907 74.3243 94.886 74.544 94.7985C74.9706 94.6002 75.6487 94.3842 76.5477 94.3352C77.4425 94.2789 78.5618 94.3977 79.7589 94.853C80.9486 95.3065 82.2259 96.1058 83.2675 97.3414C83.5251 97.6511 83.7956 97.9632 84.0172 98.323C84.2595 98.67 84.486 99.033 84.7038 99.4075C85.1494 100.155 85.6133 100.932 86.0931 101.736C87.046 103.349 88.0521 105.081 89.0931 106.912C91.1757 110.576 93.3955 114.644 95.6183 118.971C96.4371 120.566 97.2266 122.139 97.9714 123.644L97.8857 123.566C105.814 126.574 112.812 129.23 117.853 131.142C120.343 132.101 122.349 132.873 123.755 133.415C124.429 133.681 124.958 133.891 125.34 134.041C125.506 134.11 125.641 134.166 125.748 134.21C125.838 134.25 125.884 134.273 125.882 134.277Z" fill="#263238"/>
<path d="M119.858 140.71C119.858 140.986 119.635 141.21 119.359 141.21C119.083 141.21 118.859 140.986 118.859 140.71C118.859 140.434 119.083 140.211 119.359 140.211C119.635 140.211 119.858 140.434 119.858 140.71Z" fill="#263238"/>
<path d="M119.358 141.225C119.074 141.225 118.844 140.994 118.844 140.71C118.844 140.426 119.074 140.195 119.358 140.195C119.642 140.195 119.873 140.427 119.873 140.71C119.873 140.994 119.642 141.225 119.358 141.225ZM119.358 140.226C119.092 140.226 118.874 140.443 118.874 140.711C118.874 140.977 119.092 141.195 119.358 141.195C119.625 141.195 119.843 140.977 119.843 140.711C119.843 140.443 119.625 140.226 119.358 140.226Z" fill="#263238"/>
<path d="M121.755 141.21C121.755 141.486 121.531 141.71 121.255 141.71C120.979 141.71 120.756 141.486 120.756 141.21C120.756 140.934 120.979 140.711 121.255 140.711C121.531 140.711 121.755 140.935 121.755 141.21Z" fill="#263238"/>
<path d="M121.255 141.725C120.971 141.725 120.74 141.494 120.74 141.21C120.74 140.926 120.971 140.695 121.255 140.695C121.539 140.695 121.77 140.926 121.77 141.21C121.77 141.494 121.539 141.725 121.255 141.725ZM121.255 140.726C120.988 140.726 120.771 140.943 120.771 141.21C120.771 141.477 120.988 141.694 121.255 141.694C121.522 141.694 121.74 141.477 121.74 141.21C121.74 140.943 121.522 140.726 121.255 140.726Z" fill="#263238"/>
<path d="M123.033 142.241C123.308 142.241 123.532 142.017 123.532 141.742C123.532 141.466 123.308 141.242 123.033 141.242C122.757 141.242 122.533 141.466 122.533 141.742C122.533 142.017 122.757 142.241 123.033 142.241Z" fill="#263238"/>
<path d="M123.032 142.256C122.748 142.256 122.518 142.025 122.518 141.741C122.518 141.457 122.748 141.227 123.032 141.227C123.316 141.227 123.547 141.457 123.547 141.741C123.547 142.025 123.316 142.256 123.032 142.256ZM123.032 141.257C122.765 141.257 122.548 141.474 122.548 141.741C122.548 142.008 122.765 142.225 123.032 142.225C123.299 142.225 123.516 142.008 123.516 141.741C123.516 141.474 123.299 141.257 123.032 141.257Z" fill="#263238"/>
<path d="M124.978 144.597C124.977 144.603 124.918 144.593 124.806 144.57C124.676 144.54 124.512 144.504 124.307 144.458C123.848 144.348 123.21 144.196 122.398 144.001C120.719 143.588 118.33 143 115.388 142.276C109.468 140.823 101.3 138.769 92.2417 136.671C91.1107 136.399 89.9865 136.184 88.8806 135.885C87.7833 135.582 86.697 135.136 85.8506 134.372C85.0091 133.606 84.4669 132.626 83.9962 131.682C83.5409 130.73 83.0948 129.798 82.6602 128.888C80.9368 125.249 79.3836 121.972 78.0751 119.21C76.7881 116.466 75.7434 114.239 75.009 112.673C74.6608 111.915 74.3872 111.319 74.1902 110.889C74.1057 110.698 74.0384 110.544 73.9845 110.422C73.9398 110.316 73.9196 110.26 73.9245 110.258C73.9294 110.255 73.96 110.306 74.0145 110.408C74.0757 110.526 74.1528 110.675 74.2489 110.862C74.4588 111.285 74.7507 111.873 75.1216 112.62C75.8774 114.175 76.9533 116.387 78.2789 119.112C79.6045 121.865 81.178 125.133 82.9246 128.759C83.3622 129.666 83.8108 130.596 84.2686 131.545C84.7367 132.479 85.2674 133.421 86.0599 134.139C86.8537 134.853 87.8886 135.283 88.9657 135.578C90.0465 135.871 91.1823 136.088 92.3127 136.359C101.377 138.459 109.536 140.548 115.443 142.057C118.375 142.822 120.755 143.444 122.429 143.881C123.233 144.1 123.867 144.272 124.323 144.396C124.525 144.454 124.686 144.501 124.814 144.538C124.924 144.572 124.979 144.592 124.978 144.597Z" fill="#263238"/>
<path d="M96.3486 142.921C96.3608 142.939 96.2103 143.065 95.9263 143.277C95.6423 143.489 95.2249 143.787 94.698 144.139C93.6448 144.836 92.1429 145.782 90.2947 146.429C88.4446 147.075 86.6196 147.16 85.3601 146.923C84.7285 146.81 84.2328 146.648 83.906 146.504C83.5786 146.362 83.4103 146.258 83.4182 146.241C83.4403 146.183 84.1526 146.539 85.3938 146.7C86.627 146.873 88.3871 146.756 90.1906 146.127C91.9948 145.496 93.4967 144.595 94.5768 143.949C95.6558 143.293 96.3229 142.881 96.3486 142.921Z" fill="#263238"/>
<path d="M97.8983 146.471C97.9087 146.468 97.9387 146.547 97.9864 146.701C98.039 146.854 98.0929 147.086 98.1492 147.388C98.2569 147.99 98.3144 148.893 98.1247 149.983C97.9246 151.063 97.4564 152.338 96.5335 153.487C95.6241 154.643 94.2238 155.589 92.5922 156.05C90.9576 156.501 89.2691 156.418 87.8927 155.902C86.5077 155.397 85.4465 154.549 84.7158 153.729C83.9887 152.896 83.5701 152.093 83.3498 151.522C83.2415 151.235 83.1668 151.009 83.1332 150.85C83.094 150.694 83.0787 150.611 83.0891 150.608C83.1638 150.565 83.4153 151.976 84.8829 153.577C85.6148 154.356 86.6565 155.155 87.9918 155.625C89.3174 156.106 90.935 156.176 92.5066 155.743C94.0751 155.3 95.4209 154.401 96.3053 153.303C97.2037 152.209 97.6804 150.986 97.9032 149.94C98.3285 147.81 97.812 146.473 97.8983 146.471Z" fill="#263238"/>
<path d="M86.1608 61.5813L86.2416 84.3857C86.255 88.2639 89.5115 91.3411 93.3842 91.136C96.9981 90.9445 99.8255 87.9463 99.809 84.3269C99.801 82.6103 99.798 81.1788 99.809 81.0019C99.809 81.0019 105.613 80.4352 106.012 74.6879C106.204 71.9107 106.135 66.1579 106.013 60.9534C105.881 55.3646 101.473 50.8169 95.8922 50.4986L95.3371 50.4668C89.3334 50.4766 85.9864 55.5801 86.1608 61.5813Z" fill="#B78876"/>
<path d="M99.8237 80.9214C99.8237 80.9214 96.1719 81.0102 92.4473 78.3633C92.4473 78.3633 93.9834 82.6032 99.7521 82.4129L99.8237 80.9214Z" fill="#AA6550"/>
<path d="M104.587 64.3383C104.578 64.7728 104.202 65.1235 103.748 65.1217C103.295 65.1198 102.934 64.7673 102.944 64.3328C102.953 63.8983 103.328 63.547 103.782 63.5488C104.235 63.5501 104.596 63.9038 104.587 64.3383Z" fill="#263238"/>
<path d="M104.75 63.3666C104.642 63.4675 104.046 62.9718 103.161 62.9241C102.279 62.8635 101.605 63.2809 101.515 63.1677C101.471 63.1169 101.586 62.9296 101.88 62.7399C102.169 62.5508 102.655 62.3788 103.206 62.4124C103.756 62.4467 104.207 62.6756 104.462 62.8984C104.721 63.123 104.803 63.3219 104.75 63.3666Z" fill="#263238"/>
<path d="M95.9989 64.268C95.9891 64.7025 95.6133 65.0532 95.1598 65.0514C94.707 65.0501 94.3459 64.697 94.3557 64.2625C94.3648 63.828 94.7406 63.4773 95.1941 63.4785C95.6476 63.4797 96.0081 63.8335 95.9989 64.268Z" fill="#263238"/>
<path d="M95.9526 63.1667C95.8442 63.2683 95.2475 62.772 94.3644 62.7243C93.4825 62.6637 92.8075 63.081 92.7181 62.9678C92.6741 62.917 92.7879 62.7298 93.0829 62.5406C93.3724 62.3515 93.8583 62.1796 94.4085 62.2132C94.9587 62.2481 95.4103 62.477 95.6649 62.6992C95.9232 62.9225 96.0052 63.1221 95.9526 63.1667Z" fill="#263238"/>
<path d="M98.752 70.1144C98.7507 70.0642 99.3052 70.0005 100.202 69.9369C100.429 69.9265 100.645 69.894 100.693 69.7417C100.755 69.5819 100.674 69.3328 100.58 69.0642C100.399 68.506 100.21 67.921 100.01 67.3077C99.2226 64.8083 98.6669 62.7581 98.7673 62.7269C98.8682 62.6963 99.5886 64.6969 100.376 67.197C100.564 67.8132 100.745 68.4001 100.917 68.962C100.988 69.2233 101.118 69.5226 100.983 69.8543C100.913 70.0195 100.74 70.1321 100.593 70.1633C100.446 70.1994 100.319 70.1945 100.207 70.1945C99.3083 70.1927 98.752 70.1652 98.752 70.1144Z" fill="#263238"/>
<path d="M96.3082 61.3321C96.2072 61.5671 95.3314 61.4031 94.2873 61.4692C93.242 61.5138 92.3883 61.7703 92.2628 61.5469C92.2071 61.4404 92.3663 61.2225 92.7175 61.0089C93.0658 60.796 93.6135 60.6056 94.2396 60.5714C94.8657 60.5389 95.4305 60.6699 95.799 60.8455C96.1711 61.0206 96.3522 61.2207 96.3082 61.3321Z" fill="#263238"/>
<path d="M104.676 61.2569C104.509 61.449 103.913 61.2055 103.181 61.154C102.451 61.0769 101.821 61.2122 101.69 60.9937C101.633 60.8884 101.742 60.6926 102.025 60.5182C102.302 60.3438 102.758 60.2146 103.26 60.2587C103.762 60.3034 104.188 60.5102 104.431 60.7305C104.677 60.9515 104.75 61.1632 104.676 61.2569Z" fill="#263238"/>
<path d="M86.3877 65.8673C86.2922 65.8195 82.5027 64.4731 82.4041 68.4126C82.3056 72.352 86.2805 71.6378 86.2903 71.5252C86.3001 71.412 86.3877 65.8673 86.3877 65.8673Z" fill="#B78876"/>
<path d="M85.1238 70.0021C85.1067 69.9893 85.054 70.0486 84.9365 70.0988C84.8221 70.1478 84.6269 70.1784 84.4231 70.0964C84.0106 69.9329 83.677 69.2634 83.6752 68.5535C83.674 68.1949 83.7578 67.8552 83.8918 67.5755C84.0191 67.2903 84.2107 67.0939 84.4212 67.0614C84.6311 67.0186 84.7762 67.1477 84.8215 67.2597C84.8717 67.3711 84.8447 67.4495 84.8649 67.4568C84.8759 67.4672 84.9512 67.3932 84.9237 67.2297C84.9096 67.1514 84.8655 67.0572 84.775 66.9788C84.6825 66.8993 84.5442 66.857 84.398 66.8693C84.0938 66.8827 83.8135 67.1551 83.666 67.4623C83.502 67.7701 83.3992 68.1514 83.4004 68.5541C83.4059 69.3485 83.7933 70.1013 84.3588 70.28C84.6342 70.3589 84.8674 70.2812 84.9891 70.1912C85.114 70.097 85.1373 70.0094 85.1238 70.0021Z" fill="#AA6550"/>
<path d="M84.2083 65.6095C84.8161 65.4987 85.8222 66.1113 86.0462 66.6872C86.2702 67.2631 86.2898 67.9027 86.5125 68.4792C86.7353 69.0557 87.283 69.5967 87.8914 69.4884C88.3112 69.4143 88.6294 69.0428 88.7616 68.6377C88.8944 68.2325 88.8749 67.7956 88.8455 67.3702C88.7182 65.5208 88.436 63.6774 88.4679 61.8243C88.4997 59.9705 88.8724 58.0642 89.933 56.5439C90.9942 55.0237 92.8437 53.9668 94.6803 54.2208C95.8969 54.3891 96.9814 55.0898 98.1858 55.3291C99.6136 55.6125 101.164 55.1914 102.253 54.2245C102.289 54.192 102.361 54.1418 102.447 54.0862C102.844 53.8273 103.043 53.3322 102.895 52.8811C102.845 52.7275 102.776 52.5868 102.685 52.4913C100.403 50.1265 96.0983 49.2575 92.8712 49.8768C89.6441 50.4962 86.534 52.5727 84.9954 55.476C83.4562 58.3793 83.6263 62.5495 84.2083 65.6095Z" fill="#263238"/>
<path d="M96.6662 70.8087C96.81 70.8007 96.8119 71.7579 97.6313 72.4378C98.4496 73.1196 99.4704 73.0119 99.4777 73.1459C99.4912 73.2059 99.2507 73.332 98.8198 73.3436C98.3969 73.3583 97.78 73.2224 97.2788 72.8069C96.7788 72.3901 96.564 71.8338 96.5309 71.4409C96.4942 71.04 96.6007 70.8032 96.6662 70.8087Z" fill="#263238"/>
<path d="M151.658 103.192C151.658 103.192 155.971 99.4014 156.789 99.1236C157.606 98.8457 164.098 98.7258 164.537 99.0508C164.975 99.3757 171.549 102.981 170.46 103.533C169.372 104.085 164.812 101.504 164.812 101.504L164.046 101.605C164.046 101.605 168.022 103.728 168.731 104.546C169.383 105.299 168.759 106.2 168.016 105.854C167.273 105.509 163.861 103.539 163.592 103.614C163.322 103.689 167.228 105.973 167.587 106.396C168.071 106.965 167.759 108.066 167.01 107.748C166.569 107.561 162.966 105.174 162.966 105.174C162.966 105.174 165.685 107.466 165.879 107.84C166.197 108.452 165.586 109.006 164.959 108.621C164.528 108.357 162.677 106.536 162.099 106.184C162.099 106.184 161.461 106.138 160.524 107.136C159.586 108.135 155.889 109.507 155.889 109.507L151.658 103.192Z" fill="#B78876"/>
<path d="M170.44 103.546C170.439 103.587 169.9 103.622 169.046 103.458C168.621 103.375 168.119 103.238 167.586 103.021C167.072 102.778 166.518 102.494 165.933 102.197C165.503 101.974 165.089 101.759 164.697 101.557L164.778 101.577C162.843 101.596 161.443 101.56 161.439 101.482C161.436 101.404 162.835 101.308 164.773 101.245L164.812 101.244L164.854 101.266C165.245 101.463 165.658 101.671 166.086 101.886C166.654 102.18 167.195 102.461 167.711 102.727C168.218 102.952 168.695 103.109 169.102 103.22C169.916 103.439 170.444 103.493 170.44 103.546Z" fill="#AA6550"/>
<path d="M153.264 104.288C153.553 104.83 154.286 104.975 154.887 104.847C155.489 104.719 156.029 104.391 156.619 104.221C158.385 103.71 160.349 104.655 162.089 104.06C162.331 103.978 162.604 103.799 162.575 103.545C162.547 103.309 162.281 103.191 162.055 103.12C160.121 102.503 158.188 101.888 156.254 101.271" fill="#B78876"/>
<path d="M156.255 101.271C156.263 101.248 156.493 101.297 156.903 101.406C157.313 101.515 157.904 101.684 158.631 101.899C159.386 102.128 160.244 102.388 161.179 102.672C161.419 102.747 161.665 102.822 161.914 102.9C162.142 102.99 162.479 103.007 162.698 103.367C162.799 103.552 162.736 103.806 162.607 103.936C162.484 104.073 162.339 104.149 162.19 104.208C161.902 104.304 161.615 104.374 161.314 104.404C160.111 104.526 159.02 104.247 158.039 104.227C157.549 104.209 157.086 104.244 156.673 104.357C156.26 104.469 155.885 104.649 155.522 104.779C154.802 105.076 154.089 105.025 153.708 104.792C153.31 104.564 153.251 104.285 153.266 104.289C153.293 104.267 153.395 104.505 153.767 104.671C154.138 104.843 154.753 104.86 155.434 104.55C155.779 104.411 156.149 104.215 156.595 104.08C157.04 103.944 157.537 103.897 158.048 103.907C159.069 103.914 160.164 104.176 161.276 104.059C161.552 104.033 161.821 103.965 162.069 103.885C162.307 103.799 162.468 103.628 162.393 103.515C162.331 103.378 162.064 103.293 161.815 103.216C161.566 103.135 161.322 103.055 161.083 102.977C160.156 102.666 159.305 102.383 158.558 102.133C157.84 101.888 157.261 101.684 156.864 101.535C156.464 101.387 156.248 101.294 156.255 101.271Z" fill="#AA6550"/>
<path d="M127.162 134.773L134.317 134.064C134.317 134.064 143.778 140.544 142.87 141.97C141.963 143.396 140.408 141.97 140.408 141.97C140.408 141.97 142.093 144.044 139.371 144.692C139.371 144.692 138.723 146.117 137.686 145.988L137.038 145.997C137.038 145.997 136.451 147.803 135.579 147.414C134.706 147.025 132.064 144.692 132.064 144.692L124.727 144.044L127.162 134.773Z" fill="#B78876"/>
<path d="M131.613 142.149C131.613 142.149 129.781 142.853 129.4 143.589C129.019 144.324 128.798 146.06 129.98 146.375C130.431 146.495 132.061 146.309 132.061 146.309L131.609 144.383C131.609 144.383 132.294 143.593 132.702 143.254C133.092 142.929 132.666 141.662 131.613 142.149Z" fill="#FFBE9D"/>
<path d="M133.675 143.127C133.675 143.127 131.843 143.831 131.461 144.566C131.081 145.302 131.332 146.538 132.514 146.853C132.966 146.973 134.405 146.789 134.405 146.789L134.212 146.415C133.841 145.693 133.682 145.109 134.335 144.626C134.371 144.599 134.736 144.257 134.763 144.232C135.124 143.892 134.728 142.639 133.675 143.127Z" fill="#FFBE9D"/>
<path d="M134.115 146.723C133.781 146.414 133.749 145.863 133.966 145.464C134.184 145.064 134.603 144.805 135.04 144.68C135.329 144.598 135.685 144.587 135.878 144.817C136.002 144.965 136.021 145.176 135.996 145.368C135.927 145.876 135.596 146.305 135.277 146.706C135.107 146.92 134.896 147.154 134.623 147.147C134.343 147.14 134.143 146.885 133.985 146.654" fill="#FFBE9D"/>
<path d="M95.4447 89.04L97.0531 88.4316L98.4478 90.9231L97.6712 93.5828L96.0304 93.9892L94.3945 91.928L95.4447 89.04Z" fill="#0078D4"/>
<path d="M96.0312 93.9897C96.0312 93.9897 98.1127 105.44 99.8489 113.495C99.8489 113.495 101.272 120.2 101.848 121.748C102.492 123.473 104.471 126.055 104.471 126.055L106.487 126.835L105.256 115.517L97.6714 93.584L96.0312 93.9897Z" fill="#0078D4"/>
<g opacity="0.4">
<path d="M95.4447 89.04L97.0531 88.4316L98.4478 90.9231L97.6712 93.5828L96.0304 93.9892L94.3945 91.928L95.4447 89.04Z" fill="black"/>
</g>
<g opacity="0.4">
<path d="M96.0312 93.9897C96.0312 93.9897 98.1127 105.44 99.8489 113.495C99.8489 113.495 101.479 120.139 101.848 121.748C102.065 122.693 104.471 126.055 104.471 126.055L106.487 126.835L105.256 115.517L97.6714 93.584L96.0312 93.9897Z" fill="black"/>
</g>
<path d="M85.7901 82.082L95.4451 89.0399L93.3575 94.781L84.5723 85.7351L85.7901 82.082Z" fill="#F5F5F5"/>
<path d="M97.0527 88.4311L99.751 82.4121L101.277 87.3767L99.1574 92.5952L97.0527 88.4311Z" fill="#F5F5F5"/>
<path d="M95.4458 89.0398C95.4617 89.0459 95.4232 89.2001 95.3375 89.4811C95.2292 89.814 95.0994 90.2118 94.9464 90.6812C94.6019 91.7051 94.0988 93.1469 93.4984 94.8312L93.4152 95.0649L93.2475 94.8801C92.5492 94.1102 91.7903 93.2724 90.9966 92.3972C89.2475 90.456 87.6777 88.6873 86.5534 87.396C86.0302 86.7852 85.5889 86.2699 85.234 85.8562C84.928 85.4877 84.7664 85.2772 84.7823 85.2625C84.7988 85.2479 84.9916 85.4302 85.3258 85.7736C85.7003 86.1689 86.1673 86.6616 86.7205 87.2454C87.8876 88.4982 89.4843 90.243 91.2334 92.1843C92.0217 93.0643 92.7757 93.9064 93.4691 94.6806L93.2181 94.7296C93.8399 93.0533 94.3809 91.6249 94.7738 90.6188C94.958 90.1604 95.1141 89.7724 95.2451 89.4474C95.3601 89.1775 95.4299 89.0343 95.4458 89.0398Z" fill="#263238"/>
<path d="M101.279 87.3773C101.32 87.3939 101.144 87.9312 100.828 88.7856C100.512 89.6405 100.055 90.8131 99.532 92.1008C99.4543 92.2905 99.3784 92.4778 99.3056 92.6552L99.1471 93.0426L99.0094 92.6479C98.1918 90.3003 97.0026 88.7458 97.084 88.6938C97.1134 88.6717 97.4439 89.0304 97.8894 89.6981C98.335 90.3639 98.8803 91.3511 99.3074 92.542L99.0118 92.5353C99.0834 92.3572 99.1593 92.1699 99.2364 91.9802C99.7597 90.6926 100.25 89.5334 100.619 88.7005C100.989 87.8676 101.238 87.3608 101.279 87.3773Z" fill="#263238"/>
<path d="M224.017 268.598L227.741 283.374L234.056 294.213C234.512 294.994 234.21 295.998 233.4 296.398C232.946 296.623 232.416 296.616 231.971 296.376C229.134 294.846 218.731 289.166 218.519 288.069C218.274 286.799 213.557 272.743 213.557 272.743L224.017 268.598Z" fill="#0078D4"/>
<g opacity="0.6">
<path d="M233.4 296.399L218.246 287.078L218.418 287.701C218.567 288.238 218.899 288.707 219.361 289.021C220.597 289.858 224.059 292.098 231.927 296.388C232.385 296.638 232.94 296.642 233.4 296.399Z" fill="white"/>
</g>
<g opacity="0.6">
<path d="M219.949 281.507C220.387 281.66 220.661 282.184 220.527 282.628C220.392 283.072 219.862 283.356 219.422 283.211C218.981 283.066 218.632 282.448 218.816 282.021C218.999 281.594 219.639 281.296 220.032 281.542" fill="white"/>
</g>
<path d="M228.267 290.909C228.361 290.926 228.48 290.065 229.239 289.41C229.978 288.732 230.847 288.715 230.84 288.619C230.844 288.579 230.626 288.517 230.269 288.563C229.915 288.607 229.431 288.793 229.017 289.16C228.604 289.528 228.363 289.987 228.279 290.334C228.191 290.683 228.228 290.907 228.267 290.909Z" fill="#263238"/>
<path d="M229.859 292.586C229.946 292.63 230.285 292.022 230.985 291.594C231.675 291.151 232.37 291.111 232.368 291.013C232.389 290.926 231.597 290.81 230.807 291.311C230.013 291.803 229.771 292.567 229.859 292.586Z" fill="#263238"/>
<path d="M225.623 288.927C225.712 288.977 226.229 288.04 227.259 287.28C228.277 286.503 229.321 286.268 229.297 286.169C229.3 286.084 228.152 286.182 227.058 287.012C225.955 287.83 225.541 288.905 225.623 288.927Z" fill="#263238"/>
<path d="M224.116 284.528C224.179 284.606 224.897 284.042 225.942 283.712C226.983 283.367 227.894 283.404 227.901 283.304C227.922 283.221 226.958 283.026 225.839 283.394C224.717 283.751 224.05 284.473 224.116 284.528Z" fill="#263238"/>
<path d="M222.913 280.219C222.982 280.291 223.662 279.576 224.792 279.319C225.915 279.036 226.846 279.365 226.874 279.269C226.889 279.232 226.678 279.092 226.285 278.99C225.896 278.887 225.32 278.849 224.713 278.993C224.107 279.139 223.611 279.434 223.31 279.703C223.007 279.972 222.882 280.193 222.913 280.219Z" fill="#263238"/>
<path d="M224.539 278.506C224.558 278.501 224.537 278.294 224.406 277.945C224.275 277.598 224.027 277.103 223.562 276.612C223.328 276.383 223.066 276.077 222.602 275.997C222.372 275.956 222.078 276.078 221.958 276.32C221.837 276.557 221.85 276.814 221.909 277.047C222.182 277.976 223.231 278.656 224.317 278.5C225.402 278.325 226.189 277.46 226.384 276.539C226.418 276.306 226.41 276.033 226.227 275.816C226.046 275.596 225.72 275.579 225.52 275.673C225.102 275.859 224.896 276.186 224.691 276.444C224.298 276.99 224.102 277.505 224.004 277.862C223.906 278.221 223.9 278.429 223.919 278.432C223.981 278.456 224.091 277.608 224.88 276.587C225.083 276.345 225.312 276.049 225.618 275.932C225.767 275.875 225.916 275.899 226.004 276.008C226.093 276.11 226.113 276.303 226.08 276.489C225.91 277.246 225.187 278.034 224.268 278.169C223.355 278.309 222.433 277.71 222.206 276.965C222.154 276.785 222.152 276.59 222.219 276.456C222.285 276.324 222.422 276.255 222.572 276.272C222.89 276.308 223.167 276.564 223.395 276.777C224.311 277.686 224.478 278.539 224.539 278.506Z" fill="#263238"/>
<path d="M177.869 271.355L178.657 282.744C178.657 282.744 167.346 287.37 167.287 289.489L189.424 288.752L188.923 270.957L177.869 271.355Z" fill="#0078D4"/>
<path d="M185.471 281.557C185.903 281.66 186.215 282.131 186.13 282.568C186.045 283.004 185.567 283.325 185.133 283.23C184.699 283.134 184.307 282.58 184.441 282.156C184.574 281.732 185.155 281.385 185.553 281.582" fill="#E0E0E0"/>
<path d="M189.423 288.753L189.302 286.961L168.123 288.337C168.123 288.337 167.152 288.799 167.286 289.489L189.423 288.753Z" fill="#E0E0E0"/>
<path d="M178.294 282.643C178.301 282.752 178.843 282.782 179.386 283.112C179.938 283.428 180.228 283.887 180.326 283.841C180.425 283.817 180.242 283.176 179.578 282.788C178.917 282.394 178.267 282.545 178.294 282.643Z" fill="#263238"/>
<path d="M176.005 283.681C175.983 283.786 176.457 283.954 176.84 284.4C177.235 284.833 177.344 285.325 177.452 285.317C177.554 285.33 177.608 284.695 177.122 284.151C176.641 283.602 176.003 283.577 176.005 283.681Z" fill="#263238"/>
<path d="M174.777 286.504C174.877 286.524 175.009 285.979 174.711 285.396C174.418 284.811 173.901 284.595 173.858 284.686C173.8 284.777 174.139 285.084 174.375 285.566C174.624 286.043 174.67 286.497 174.777 286.504Z" fill="#263238"/>
<path d="M178.403 280.026C178.451 280.124 178.942 279.958 179.554 279.979C180.167 279.987 180.649 280.177 180.703 280.082C180.763 280.002 180.285 279.617 179.564 279.602C178.843 279.582 178.347 279.943 178.403 280.026Z" fill="#263238"/>
<path d="M178.285 277.726C178.285 277.771 178.715 277.823 179.394 277.683C179.731 277.613 180.128 277.489 180.542 277.288C180.748 277.188 180.959 277.069 181.167 276.929C181.267 276.86 181.386 276.79 181.493 276.657C181.61 276.541 181.668 276.252 181.524 276.081C181.405 275.915 181.202 275.848 181.042 275.85C180.878 275.85 180.747 275.887 180.628 275.921C180.384 275.989 180.155 276.078 179.947 276.18C179.53 276.386 179.195 276.642 178.947 276.885C178.449 277.378 178.287 277.787 178.325 277.807C178.375 277.842 178.614 277.495 179.124 277.085C179.378 276.881 179.704 276.668 180.094 276.495C180.289 276.41 180.5 276.334 180.723 276.277C180.956 276.208 181.155 276.2 181.219 276.302C181.242 276.341 181.245 276.357 181.199 276.427C181.151 276.492 181.058 276.557 180.959 276.625C180.767 276.759 180.574 276.877 180.384 276.979C180.004 277.184 179.64 277.327 179.326 277.426C178.698 277.624 178.282 277.667 178.285 277.726Z" fill="#263238"/>
<path d="M178.431 277.878C178.469 277.894 178.671 277.499 178.688 276.798C178.695 276.45 178.645 276.03 178.496 275.589C178.421 275.369 178.321 275.144 178.192 274.925C178.055 274.711 177.887 274.423 177.466 274.389C177.247 274.388 177.07 274.565 177.013 274.714C176.945 274.865 176.935 274.995 176.913 275.124C176.88 275.384 176.894 275.637 176.936 275.87C177.021 276.339 177.228 276.725 177.448 277C177.9 277.559 178.355 277.673 178.363 277.637C178.397 277.581 178.014 277.385 177.664 276.845C177.492 276.578 177.335 276.225 177.279 275.815C177.25 275.61 177.246 275.393 177.278 275.173C177.305 274.937 177.387 274.744 177.476 274.765C177.586 274.76 177.779 274.93 177.875 275.115C177.996 275.31 178.092 275.51 178.17 275.707C178.322 276.102 178.395 276.484 178.422 276.806C178.474 277.455 178.372 277.864 178.431 277.878Z" fill="#263238"/>
<path d="M171.828 147.469L175.389 280.001L192.852 279.477L191.511 165.728L213.762 282.639L229.534 278.522L209.172 147.722L171.828 147.469Z" fill="#263238"/>
<path d="M181.397 280.177C181.309 280.177 181.238 252.705 181.238 218.823C181.238 184.93 181.31 157.463 181.397 157.463C181.485 157.463 181.557 184.929 181.557 218.823C181.557 252.705 181.486 280.177 181.397 280.177Z" fill="#455A64"/>
<path d="M218.744 282.599C218.658 282.613 214.578 256.272 209.634 223.775C204.688 191.265 200.75 164.909 200.837 164.896C200.924 164.883 205.003 191.218 209.949 223.727C214.893 256.225 218.831 282.586 218.744 282.599Z" fill="#455A64"/>
<path d="M196.85 64.5915C197.368 63.1784 198.045 61.8516 198.326 60.3736C198.535 59.2733 198.865 57.6221 198.423 56.5933C197.98 55.5645 196.913 54.5792 195.563 54.8583C195.225 52.682 194.068 50.9152 191.865 49.8472C189.883 48.887 187.936 48.4164 185.74 48.2554C185.076 48.2065 184.041 48.2505 183.444 48.5437C182.847 48.8368 182.292 49.4286 182.064 50.0321C180.91 49.1171 179.248 48.8527 177.563 49.3105C175.879 49.7689 173.956 50.6783 173.217 52.2591C172.76 53.2377 172.591 54.4489 173.083 55.9942C173.412 57.0236 174.5 58.6386 175.513 58.2622" fill="#263238"/>
<path d="M188.336 93.1765C184.075 93.0878 180.728 89.4972 180.941 85.2407C181.047 83.1257 181.145 81.4194 181.145 81.4194C181.145 81.4194 175.383 80.6709 175.168 74.934C174.953 69.1971 175.617 55.9945 175.617 55.9945C182.189 52.973 189.881 53.7441 195.721 58.011L196.588 58.6444L196.052 85.767C195.969 89.9452 192.513 93.2634 188.336 93.1765Z" fill="#FFBE9D"/>
<path d="M181.134 81.3374C181.134 81.3374 184.768 81.5412 188.562 79.0234C188.562 79.0234 186.792 83.4757 181.053 83.1024L181.134 81.3374Z" fill="#EB996E"/>
<path d="M196.03 64.6063C196.127 64.5616 199.944 63.3412 199.917 67.2678C199.89 71.1944 195.954 70.3572 195.948 70.2446C195.941 70.132 196.03 64.6063 196.03 64.6063Z" fill="#FFBE9D"/>
<path d="M197.156 68.7646C197.173 68.7524 197.224 68.8129 197.339 68.8668C197.452 68.9188 197.645 68.9562 197.85 68.8809C198.266 68.7316 198.62 68.0755 198.644 67.368C198.656 67.0106 198.584 66.6697 198.459 66.3876C198.341 66.0993 198.157 65.8974 197.948 65.8588C197.74 65.8093 197.592 65.9335 197.543 66.0436C197.49 66.1532 197.514 66.2315 197.493 66.2383C197.482 66.2481 197.409 66.1722 197.442 66.01C197.458 65.9323 197.505 65.8399 197.598 65.7652C197.693 65.6893 197.832 65.6514 197.977 65.6679C198.28 65.6911 198.55 65.9714 198.687 66.2817C198.841 66.5932 198.931 66.9763 198.917 67.3778C198.886 68.1691 198.476 68.9066 197.908 69.0669C197.631 69.1367 197.401 69.0522 197.283 68.9586C197.163 68.8595 197.143 68.7713 197.156 68.7646Z" fill="#EB996E"/>
<path d="M177.109 64.9584C177.105 65.3917 177.468 65.7527 177.92 65.7656C178.371 65.7784 178.742 65.4388 178.747 65.0055C178.751 64.5722 178.388 64.2105 177.936 64.1977C177.485 64.1842 177.114 64.5251 177.109 64.9584Z" fill="#263238"/>
<path d="M176.907 64.0412C177.011 64.1452 177.62 63.6703 178.502 63.6507C179.383 63.6183 180.041 64.0559 180.134 63.9451C180.18 63.8961 180.072 63.7058 179.785 63.5075C179.502 63.3104 179.024 63.1232 178.475 63.1397C177.926 63.1562 177.468 63.3704 177.208 63.584C176.943 63.7988 176.855 63.994 176.907 64.0412Z" fill="#263238"/>
<path d="M185.752 64.948C185.748 65.3813 186.111 65.7418 186.563 65.7552C187.015 65.7681 187.385 65.4284 187.389 64.9951C187.393 64.5618 187.03 64.2007 186.579 64.1879C186.127 64.1744 185.756 64.5147 185.752 64.948Z" fill="#263238"/>
<path d="M185.58 63.9884C185.685 64.093 186.295 63.6175 187.177 63.5979C188.057 63.5655 188.716 64.0031 188.809 63.8923C188.855 63.8433 188.747 63.653 188.459 63.4553C188.177 63.2576 187.698 63.071 187.149 63.0869C186.6 63.1034 186.143 63.3176 185.882 63.5312C185.617 63.746 185.529 63.9419 185.58 63.9884Z" fill="#263238"/>
<path d="M182.543 70.6085C182.546 70.5583 181.995 70.4775 181.104 70.3863C180.879 70.3686 180.664 70.3294 180.623 70.1764C180.565 70.0149 180.654 69.7701 180.756 69.5051C180.954 68.9549 181.161 68.3784 181.379 67.7737C182.243 65.3092 182.862 63.2847 182.762 63.2504C182.663 63.2168 181.882 65.1868 181.018 67.6513C180.811 68.259 180.612 68.838 180.423 69.3925C180.344 69.6507 180.205 69.9445 180.328 70.2792C180.393 70.4463 180.562 70.5638 180.707 70.5993C180.852 70.6397 180.979 70.6391 181.09 70.6428C181.986 70.6685 182.541 70.6587 182.543 70.6085Z" fill="#263238"/>
<path d="M185.154 71.1544C185.01 71.1495 185.033 72.1073 184.231 72.8068C183.43 73.5088 182.407 73.4274 182.403 73.5608C182.391 73.6214 182.635 73.7414 183.066 73.742C183.488 73.7456 184.102 73.5945 184.593 73.1667C185.082 72.7377 185.283 72.1765 185.306 71.783C185.332 71.3821 185.22 71.1477 185.154 71.1544Z" fill="#263238"/>
<path d="M185.265 60.537C185.358 60.7745 186.236 60.6386 187.274 60.7378C188.314 60.8155 189.156 61.0976 189.287 60.8791C189.346 60.7745 189.195 60.5529 188.851 60.3289C188.511 60.1056 187.972 59.8987 187.35 59.8449C186.727 59.7928 186.161 59.9054 185.788 60.0682C185.411 60.231 185.225 60.4238 185.265 60.537Z" fill="#263238"/>
<path d="M177.167 61.4801C177.328 61.6766 177.93 61.4532 178.66 61.4256C179.39 61.3718 180.013 61.526 180.15 61.313C180.21 61.2096 180.107 61.0113 179.832 60.8283C179.561 60.6459 179.112 60.5027 178.61 60.5309C178.109 60.5597 177.678 60.7518 177.429 60.9636C177.176 61.1753 177.096 61.384 177.167 61.4801Z" fill="#263238"/>
<path d="M196.891 59.0958C196.855 60.7696 197.275 62.6222 197.023 64.2727C196.985 64.5218 196.358 65.2005 196.307 65.4478C196.006 66.9105 195.419 67.5482 194.517 66.0702C194.17 65.501 193.915 63.9025 193.77 63.2568C193.378 61.4991 192.986 59.7415 192.594 57.9838C191.24 58.6564 189.767 59.1821 188.257 59.1283C186.747 59.075 185.195 58.3486 184.472 57.0218C183.787 58.2274 182.534 59.0934 181.164 59.3082C179.795 59.523 178.336 59.0824 177.316 58.1442C176.824 58.9753 175.611 59.2341 174.773 58.7531C173.935 58.2721 173.539 57.1809 173.778 56.2445C174.137 54.8345 175.618 54.037 177.003 53.5915C182.42 51.8485 188.488 52.9556 193.467 55.7121C194.193 56.1142 194.909 56.5566 195.485 57.1546C196.06 57.7525 196.856 58.4532 196.9 59.2819" fill="#263238"/>
<path d="M192.767 58.6364C192.78 58.6915 193.141 58.5636 193.658 58.779C193.913 58.8836 194.197 59.0617 194.477 59.3065C194.755 59.5495 195.035 59.8708 195.369 60.1823C195.7 60.495 196.079 60.7643 196.484 60.883C196.888 61.0048 197.274 60.9785 197.572 60.8977C198.179 60.7276 198.42 60.3934 198.391 60.3732C198.358 60.328 198.072 60.5746 197.522 60.6652C197.251 60.7092 196.915 60.7062 196.58 60.5881C196.243 60.4724 195.914 60.2343 195.598 59.9357C195.278 59.6388 194.991 59.3212 194.675 59.0685C194.361 58.8169 194.033 58.6419 193.735 58.5544C193.118 58.3726 192.739 58.6095 192.767 58.6364Z" fill="#455A64"/>
<path d="M193.437 60.3521C193.444 60.3992 193.732 60.3594 194.059 60.6287C194.221 60.7554 194.376 60.9567 194.559 61.196C194.738 61.4359 194.991 61.7034 195.305 61.8906C195.933 62.2842 196.631 62.3423 197.093 62.2695C197.564 62.1979 197.811 62.0241 197.794 61.9892C197.775 61.9396 197.507 62.0271 197.073 62.0326C196.644 62.0406 196.035 61.9506 195.483 61.6048C194.923 61.2878 194.643 60.693 194.194 60.4335C193.756 60.1642 193.407 60.3117 193.437 60.3521Z" fill="#455A64"/>
<path d="M178.298 49.1927C178.299 49.175 178.113 49.145 177.795 49.2399C177.482 49.3347 177.039 49.582 176.688 50.0704C175.984 51.0551 175.824 52.8042 176.368 54.4957C176.919 56.2154 178.175 57.3997 179.179 57.9523C179.682 58.2424 180.126 58.4015 180.435 58.4884C180.746 58.5759 180.925 58.59 180.929 58.571C180.949 58.5123 180.248 58.355 179.303 57.7491C178.364 57.1616 177.21 56.019 176.688 54.3899C176.169 52.7864 176.293 51.1193 176.885 50.2038C177.179 49.7448 177.563 49.4865 177.841 49.3617C178.123 49.2368 178.301 49.2203 178.298 49.1927Z" fill="#455A64"/>
<path d="M173.547 51.5744C173.509 51.5757 173.474 52.0028 173.596 52.6803C173.716 53.356 174.03 54.2746 174.614 55.1558C175.201 56.0353 175.927 56.6803 176.504 57.0518C177.082 57.4264 177.489 57.5598 177.505 57.5249C177.566 57.4356 176.013 56.6834 174.895 54.9698C173.747 53.2764 173.653 51.5524 173.547 51.5744Z" fill="#455A64"/>
<path d="M141.897 131.553L133.499 131.978C132.429 132.033 131.592 132.924 131.614 133.996C131.653 135.914 131.977 138.541 133.472 138.292L134.429 134.111L141.398 140.259C142.102 140.897 142.973 141.324 143.909 141.49L145.547 141.32L141.897 131.553Z" fill="#FFBE9D"/>
<path d="M182.053 86.5759L177.664 88.0257L175.486 124.474V156.802L202.433 159.786L202.745 113.164L201.005 89.9597L196.889 85.041L182.053 86.5759Z" fill="#E0E0E0"/>
<path d="M180.703 88.3213V84.7888L196.716 82.5605L196.073 90.6971L192.393 97.0753L186.379 97.4107L182.034 94.7265L180.703 88.3213Z" fill="#E0E0E0"/>
<path d="M182.136 87.9082C182.048 87.9045 182.008 87.1818 182.046 86.2944C182.083 85.4064 182.186 84.6897 182.274 84.6934C182.362 84.697 182.402 85.4198 182.364 86.3078C182.326 87.1952 182.224 87.9119 182.136 87.9082Z" fill="#263238"/>
<path d="M186.142 87.6174C186.054 87.6125 186.03 86.8046 186.088 85.8132C186.147 84.8217 186.265 84.0225 186.353 84.0274C186.441 84.0323 186.465 84.8401 186.407 85.8316C186.348 86.823 186.23 87.6223 186.142 87.6174Z" fill="#263238"/>
<path d="M190.015 87.2112C189.928 87.2044 189.919 86.3507 189.996 85.303C190.073 84.2552 190.206 83.4119 190.294 83.418C190.381 83.4247 190.391 84.2785 190.313 85.3262C190.237 86.374 190.103 87.2173 190.015 87.2112Z" fill="#263238"/>
<path d="M193.732 86.6002C193.646 86.6039 193.545 85.7936 193.592 84.793C193.637 83.7918 193.811 82.995 193.897 83.006C193.986 83.017 193.954 83.8212 193.91 84.8077C193.864 85.7942 193.822 86.5972 193.732 86.6002Z" fill="#263238"/>
<path d="M191.956 102.008C191.976 102.017 191.899 102.23 191.743 102.607C191.588 102.984 191.348 103.523 191.036 104.181C190.413 105.5 189.486 107.291 188.349 109.205C187.21 111.118 186.079 112.789 185.219 113.965C184.789 114.554 184.431 115.023 184.173 115.339C183.916 115.656 183.766 115.825 183.748 115.812C183.71 115.784 184.223 115.043 185.033 113.836C185.844 112.629 186.94 110.948 188.074 109.042C189.206 107.136 190.161 105.37 190.833 104.081C191.508 102.793 191.913 101.988 191.956 102.008Z" fill="#263238"/>
<path d="M196.806 84.4746L201.154 86.5683L209.548 88.6215C213.234 89.2617 215.763 92.6895 215.287 96.4L210.892 130.677L216.137 163.908L195.33 163.289L194.109 150.926V116.656L196.806 84.4746Z" fill="#455A64"/>
<path d="M194.11 124.555C194.099 124.552 194.121 124.406 194.171 124.13C194.231 123.824 194.31 123.423 194.408 122.926C194.634 121.846 194.949 120.346 195.334 118.508C196.154 114.752 197.273 109.624 198.51 103.958C198.857 102.397 199.195 100.877 199.52 99.4194L199.559 99.5608C199.068 99.0467 198.587 98.5437 198.118 98.0522L198.037 97.9684L198.097 97.8699C198.96 96.4353 199.771 95.0865 200.518 93.8441L200.509 93.9647C199.413 91.3068 198.499 89.0913 197.844 87.502C197.542 86.7461 197.3 86.1409 197.12 85.6911C196.957 85.2718 196.877 85.0466 196.89 85.0411C196.903 85.0356 197.008 85.2504 197.195 85.6598C197.391 86.1023 197.656 86.6984 197.987 87.442C198.668 89.0203 199.617 91.2205 200.757 93.8606L200.783 93.9225L200.748 93.9812C200.01 95.2291 199.209 96.584 198.357 98.0247L198.336 97.8429C198.808 98.3319 199.291 98.8332 199.785 99.3454L199.842 99.4054L199.824 99.4868C199.503 100.945 199.167 102.466 198.823 104.027C197.55 109.685 196.399 114.806 195.556 118.557C195.129 120.386 194.78 121.879 194.53 122.953C194.408 123.445 194.31 123.841 194.236 124.144C194.163 124.416 194.121 124.557 194.11 124.555Z" fill="#263238"/>
<path d="M142.254 130.171L160.663 119.908L169.583 95.8515C170.829 92.491 173.415 89.7989 176.723 88.4194L179.091 87.4316L179.102 150.772L179.577 165.777L169.602 162.79L174.688 132.631L172.93 117.787L171.183 124.968C170.558 127.535 168.918 129.739 166.638 131.076L147.474 141.029L142.254 130.171Z" fill="#455A64"/>
<path d="M142.477 130.637L140.928 131.099L145.286 141.489L147.316 140.702L142.477 130.637Z" fill="#E0E0E0"/>
<path d="M163.993 124.178C163.899 124.208 163.583 122.995 162.616 121.848C161.667 120.687 160.532 120.153 160.58 120.066C160.593 119.987 161.853 120.417 162.861 121.645C163.882 122.861 164.073 124.179 163.993 124.178Z" fill="#263238"/>
<path d="M144.461 130.304C144.48 130.346 144.37 130.428 144.359 130.606C144.34 130.79 144.467 130.99 144.708 130.916C144.951 130.848 144.949 130.611 144.834 130.467C144.728 130.323 144.591 130.313 144.585 130.267C144.564 130.232 144.756 130.13 144.99 130.303C145.095 130.386 145.207 130.536 145.2 130.748C145.195 130.965 145.012 131.164 144.798 131.222C144.588 131.289 144.327 131.221 144.205 131.041C144.084 130.866 144.097 130.68 144.141 130.553C144.243 130.281 144.459 130.263 144.461 130.304Z" fill="#263238"/>
<path d="M145.947 129.679C145.966 129.721 145.856 129.803 145.845 129.981C145.826 130.165 145.953 130.365 146.194 130.291C146.437 130.223 146.436 129.986 146.32 129.842C146.214 129.698 146.077 129.688 146.071 129.642C146.05 129.607 146.243 129.505 146.476 129.678C146.582 129.761 146.694 129.911 146.686 130.123C146.681 130.34 146.498 130.539 146.285 130.597C146.074 130.663 145.813 130.596 145.691 130.416C145.57 130.242 145.583 130.055 145.627 129.928C145.729 129.656 145.946 129.638 145.947 129.679Z" fill="#263238"/>
<path d="M179.092 125.534C179.081 125.535 179.053 125.4 179.011 125.143C178.967 124.852 178.911 124.477 178.841 124.014C178.702 122.993 178.511 121.583 178.276 119.856C177.826 116.306 177.212 111.469 176.533 106.124C176.439 105.365 176.347 104.615 176.257 103.88L176.252 103.84L176.267 103.803C176.731 102.623 177.18 101.479 177.611 100.384L177.614 100.5C177.149 99.4379 176.704 98.4232 176.286 97.4673L176.265 97.4214L176.278 97.3742C177.093 94.4262 177.779 91.9476 178.272 90.1637C178.515 89.3215 178.71 88.6441 178.855 88.141C178.995 87.6747 179.076 87.4274 179.091 87.4317C179.106 87.4354 179.052 87.6906 178.94 88.1636C178.813 88.6722 178.644 89.3558 178.432 90.2071C177.966 91.9984 177.319 94.4868 176.549 97.4471L176.541 97.354C176.967 98.3069 177.418 99.3186 177.891 100.378L177.917 100.435L177.893 100.495C177.467 101.591 177.021 102.737 176.56 103.918L176.57 103.841C176.661 104.576 176.754 105.325 176.849 106.085C177.491 111.434 178.073 116.276 178.5 119.829C178.693 121.56 178.85 122.975 178.964 123.999C179.01 124.465 179.046 124.841 179.074 125.135C179.097 125.395 179.103 125.532 179.092 125.534Z" fill="#263238"/>
<path d="M174.662 132.808C174.651 132.809 174.629 132.706 174.599 132.508C174.566 132.274 174.527 131.988 174.48 131.643C174.381 130.842 174.248 129.764 174.087 128.455C173.76 125.764 173.303 122.047 172.753 117.947C172.202 113.847 171.662 110.14 171.267 107.458C171.077 106.153 170.921 105.079 170.804 104.281C170.759 103.935 170.722 103.649 170.691 103.415C170.669 103.217 170.662 103.111 170.673 103.109C170.684 103.108 170.711 103.209 170.754 103.404C170.801 103.636 170.858 103.919 170.926 104.261C171.07 105.006 171.262 106.087 171.489 107.424C171.942 110.098 172.517 113.802 173.068 117.906C173.618 122.008 174.041 125.732 174.31 128.432C174.445 129.781 174.544 130.875 174.602 131.631C174.626 131.979 174.645 132.267 174.662 132.503C174.673 132.701 174.673 132.807 174.662 132.808Z" fill="#263238"/>
<path d="M172.119 155.323C172.147 155.308 172.221 155.556 172.546 155.837C172.859 156.105 173.488 156.39 174.226 156.214C174.959 156.042 175.679 155.358 176.048 154.422C176.43 153.481 176.475 152.325 176.562 151.129C176.636 149.94 176.609 148.785 176.221 147.846C175.847 146.903 175.121 146.276 174.553 145.739C173.969 145.207 173.52 144.731 173.278 144.351C173.033 143.974 172.963 143.733 172.977 143.727C173.003 143.715 173.11 143.936 173.379 144.278C173.644 144.625 174.1 145.061 174.703 145.571C175.285 146.084 176.068 146.717 176.492 147.734C176.923 148.738 176.955 149.946 176.88 151.149C176.792 152.345 176.743 153.528 176.319 154.534C175.909 155.533 175.106 156.27 174.276 156.433C173.44 156.599 172.776 156.247 172.462 155.928C172.299 155.766 172.213 155.607 172.164 155.499C172.122 155.387 172.108 155.326 172.119 155.323Z" fill="#263238"/>
<path d="M165.277 131.553C165.277 131.553 165.872 124.535 171.445 123.885C171.445 123.885 171.548 129.605 165.277 131.553Z" fill="#263238"/>
<path d="M195.07 157.838C195.436 158.082 211.255 168.425 211.255 168.425L213.081 166.965L213.944 143.235L198.53 131.553L196.409 132.283L195.07 157.838Z" fill="#0078D4"/>
<path d="M198.359 131.889L198.991 157.572H195.59L196.729 132.398L198.359 131.889Z" fill="#E0E0E0"/>
<path d="M203.452 163.467C203.452 163.467 203.812 164.602 205.278 164.708C205.323 164.711 205.368 164.745 205.411 164.819C205.741 165.38 206.3 165.78 206.95 165.777C207.453 165.775 208.059 165.658 208.685 165.276C209.531 164.76 211.037 161.381 211.037 161.381L214.607 153.431L208.604 151.809L200.978 154.186C200.978 154.324 199.193 161.544 199.193 161.544C199.193 161.544 200.639 161.949 201.336 160.408C202.033 158.866 202.682 157.889 202.682 157.889L203.25 161.138L201.081 161.88C201.081 161.88 200.818 163.082 202.01 163.528L203.452 163.467Z" fill="#FFBE9D"/>
<path d="M206.143 107.638L216.137 126.034L208.003 150.179L217.048 155.272L228.541 128.414C229.394 126.423 229.358 124.162 228.444 122.199L214.342 91.9082L206.143 107.638Z" fill="#455A64"/>
<path d="M208.003 150.18L207.16 152.051L215.693 156.65L216.587 155.013L208.003 150.18Z" fill="#E0E0E0"/>
<path d="M208.005 150.179C208 150.177 208.01 150.136 208.032 150.056C208.06 149.96 208.095 149.843 208.137 149.7C208.242 149.367 208.387 148.912 208.57 148.334C208.965 147.123 209.529 145.403 210.23 143.261C211.675 138.927 213.688 132.893 215.991 125.984L216.005 126.113C214.841 124.137 213.647 122.049 212.439 119.894C210.237 115.958 208.213 112.166 206.482 108.66C205.628 106.902 204.83 105.224 204.156 103.618C203.423 102.015 203.241 100.331 203.323 98.8514C203.418 97.366 203.715 96.03 204.216 94.9511C204.71 93.8697 205.368 93.0624 205.98 92.5C206.601 91.9413 207.174 91.623 207.573 91.4474C207.972 91.2693 208.199 91.2246 208.199 91.2246C208.231 91.2736 207.275 91.4664 206.065 92.5906C205.476 93.1567 204.846 93.959 204.379 95.0239C203.904 96.0821 203.628 97.4028 203.548 98.8618C203.483 100.319 203.671 101.949 204.4 103.514C205.081 105.108 205.886 106.779 206.745 108.53C208.488 112.022 210.518 115.805 212.718 119.738C213.924 121.891 215.115 123.979 216.272 125.954L216.308 126.016L216.286 126.083C213.94 132.976 211.891 138.999 210.42 143.324C209.682 145.453 209.088 147.164 208.672 148.368C208.468 148.939 208.307 149.388 208.189 149.717C208.137 149.857 208.093 149.97 208.058 150.064C208.027 150.142 208.01 150.181 208.005 150.179Z" fill="#263238"/>
<path d="M222.895 125.863C222.868 125.908 222.514 125.717 221.91 125.515C221.307 125.312 220.439 125.13 219.471 125.157C218.503 125.19 217.647 125.425 217.058 125.667C216.468 125.906 216.126 126.118 216.097 126.075C216.075 126.047 216.376 125.764 216.966 125.461C217.552 125.157 218.444 124.872 219.461 124.838C220.477 124.809 221.386 125.038 221.99 125.304C222.597 125.57 222.914 125.834 222.895 125.863Z" fill="#263238"/>
<path d="M204.145 103.262L211.326 127.291L212.339 119.39L204.145 103.262Z" fill="#263238"/>
<path d="M216.007 150.47C216.027 150.512 215.917 150.594 215.906 150.772C215.887 150.956 216.014 151.156 216.255 151.082C216.498 151.014 216.496 150.778 216.381 150.633C216.275 150.489 216.138 150.479 216.132 150.433C216.111 150.398 216.302 150.296 216.537 150.469C216.642 150.552 216.754 150.702 216.747 150.914C216.742 151.131 216.559 151.33 216.345 151.388C216.135 151.455 215.873 151.387 215.752 151.207C215.63 151.032 215.644 150.846 215.687 150.72C215.79 150.447 216.006 150.429 216.007 150.47Z" fill="#263238"/>
<path d="M216.728 148.739C216.748 148.782 216.638 148.864 216.627 149.042C216.608 149.226 216.734 149.425 216.975 149.352C217.218 149.283 217.217 149.047 217.101 148.902C216.996 148.758 216.859 148.749 216.852 148.703C216.832 148.667 217.023 148.566 217.258 148.739C217.363 148.821 217.475 148.971 217.467 149.184C217.463 149.401 217.28 149.6 217.066 149.657C216.855 149.724 216.594 149.656 216.472 149.476C216.351 149.302 216.365 149.116 216.408 148.989C216.51 148.717 216.727 148.698 216.728 148.739Z" fill="#263238"/>
<path d="M226.552 118.131C225.481 118.696 225.107 120.272 225.231 121.476C225.354 122.68 225.797 123.852 225.766 125.062C225.744 125.927 225.48 126.764 225.307 127.61C225.133 128.457 225.054 129.364 225.384 130.163C225.714 130.962 226.559 131.602 227.409 131.444L228.257 129.729C229.603 127.009 229.558 123.807 228.138 121.125L226.552 118.131Z" fill="#263238"/>
<path d="M278.949 247.322C279.5 245.414 280.678 243.571 282.501 242.785C284.397 241.968 286.594 242.433 288.535 243.138C290.476 243.843 292.382 244.787 294.443 244.914C296.504 245.042 298.83 244.064 299.447 242.094C300.027 240.241 298.91 238.266 297.512 236.919C294.573 234.091 290.158 232.891 286.192 233.843C282.226 234.796 278.836 237.869 277.502 241.724" fill="#0078D4"/>
<g opacity="0.5">
<path d="M278.949 247.322C279.5 245.414 280.678 243.571 282.501 242.785C284.397 241.968 286.594 242.433 288.535 243.138C290.476 243.843 292.382 244.787 294.443 244.914C296.504 245.042 298.83 244.064 299.447 242.094C300.027 240.241 298.91 238.266 297.512 236.919C294.573 234.091 290.158 232.891 286.192 233.843C282.226 234.796 278.836 237.869 277.502 241.724" fill="black"/>
</g>
<path d="M262.62 255.602C259.596 252.729 259.747 247.729 261.256 243.841C262.764 239.952 266.056 236.967 269.733 234.998C276.861 231.184 285.772 230.895 293.132 234.24C289.515 234.36 286.019 236.413 284.152 239.512C282.495 242.265 282.127 245.604 280.758 248.511C279.233 251.748 276.434 254.364 273.101 255.667C269.768 256.971 265.936 256.946 262.62 255.602Z" fill="#0078D4"/>
<path d="M261.167 238.344C257.819 234.392 257.374 228.048 257.866 222.892C258.36 217.737 259.554 212.548 258.741 207.433C258.26 204.403 257.084 201.51 256.687 198.467C256.29 195.425 256.853 191.985 259.21 190.021C261.92 187.764 266.186 188.296 269.005 190.415C271.824 192.535 273.457 195.864 274.65 199.183C277.272 206.474 278.235 214.558 276.081 222.001C273.926 229.443 268.873 236.097 261.458 238.344" fill="#0078D4"/>
<path d="M259.56 270.768C259.55 270.768 259.546 270.611 259.547 270.312C259.551 270.014 259.547 269.573 259.571 269.006C259.614 267.873 259.723 266.233 259.977 264.22C260.232 262.207 260.631 259.821 261.264 257.211C261.887 254.596 262.953 251.809 264.462 249.096C265.975 246.382 267.821 244.04 269.688 242.109C271.561 240.177 273.475 238.674 275.168 237.552C276.004 236.974 276.813 236.535 277.509 236.128C278.223 235.754 278.846 235.446 279.357 235.199C279.862 234.987 280.263 234.818 280.561 234.693C280.838 234.581 280.984 234.526 280.988 234.534C280.991 234.543 280.852 234.615 280.583 234.745C280.291 234.882 279.898 235.065 279.403 235.297C278.901 235.558 278.288 235.879 277.584 236.264C276.899 236.682 276.101 237.13 275.277 237.715C273.609 238.851 271.72 240.359 269.873 242.286C268.029 244.212 266.205 246.54 264.704 249.231C261.627 254.616 260.783 260.277 260.172 264.245C259.895 266.249 259.756 267.882 259.68 269.011C259.649 269.557 259.623 269.99 259.604 270.313C259.584 270.611 259.57 270.768 259.56 270.768Z" fill="#263238"/>
<path d="M230.685 222.754C224.491 226.492 224.51 229.893 225.544 233.103C226.579 236.314 230.38 238.545 233.532 237.342C235.314 236.663 236.604 235.114 237.707 233.558C238.809 232.002 239.844 230.337 241.39 229.219C242.934 228.102 245.174 227.674 246.726 228.781" fill="#0078D4"/>
<g opacity="0.5">
<path d="M230.685 222.754C224.491 226.492 224.51 229.893 225.544 233.103C226.579 236.314 230.38 238.545 233.532 237.342C235.314 236.663 236.604 235.114 237.707 233.558C238.809 232.002 239.844 230.337 241.39 229.219C242.934 228.102 245.174 227.674 246.726 228.781" fill="black"/>
</g>
<path d="M226.047 226.852C227.666 224.614 231.667 223.966 234.194 225.083C236.72 226.199 238.571 228.414 240.228 230.624C241.884 232.835 243.496 235.169 245.791 236.707C248.085 238.245 251.291 238.802 253.577 237.253C255.079 236.235 255.95 234.466 256.222 232.673C256.494 230.879 256.232 229.047 255.859 227.272C255.312 224.674 254.42 221.961 252.341 220.311C250.024 218.471 246.809 218.384 243.852 218.481C240.459 218.592 237.016 218.846 233.832 220.023C230.648 221.198 227.399 223.738 226.047 226.852Z" fill="#0078D4"/>
<path d="M254.412 265.806C254.407 265.806 254.401 265.76 254.395 265.67C254.39 265.564 254.383 265.433 254.374 265.27C254.361 264.897 254.344 264.384 254.321 263.733C254.282 262.375 254.227 260.449 254.159 258.079C254.084 255.693 253.986 252.852 253.814 249.701C253.637 246.551 253.404 243.086 252.926 239.48C252.683 237.68 252.399 235.919 251.9 234.289C251.398 232.658 250.729 231.139 250.002 229.747C249.267 228.359 248.461 227.094 247.607 225.989C246.748 224.886 245.862 223.928 244.992 223.118C243.234 221.511 241.553 220.53 240.356 219.957C240.054 219.819 239.79 219.683 239.552 219.586C239.319 219.496 239.117 219.418 238.948 219.351C238.797 219.291 238.675 219.241 238.577 219.201C238.494 219.166 238.452 219.146 238.453 219.142C238.454 219.137 238.5 219.148 238.585 219.175C238.686 219.208 238.812 219.249 238.966 219.299C239.139 219.358 239.345 219.429 239.583 219.51C239.825 219.599 240.093 219.728 240.401 219.859C241.62 220.406 243.333 221.37 245.123 222.973C246.01 223.782 246.913 224.741 247.788 225.848C248.659 226.959 249.479 228.23 250.227 229.629C250.967 231.031 251.646 232.558 252.158 234.21C252.669 235.868 252.955 237.635 253.2 239.443C253.68 243.063 253.906 246.533 254.068 249.688C254.227 252.843 254.304 255.687 254.354 258.075C254.402 260.463 254.421 262.396 254.428 263.732C254.428 264.382 254.429 264.896 254.429 265.27C254.426 265.433 254.424 265.564 254.422 265.671C254.42 265.76 254.417 265.806 254.412 265.806Z" fill="#263238"/>
<path d="M256.641 268.604C256.641 268.604 256.295 267.684 255.962 265.945C255.64 264.207 255.397 261.631 255.678 258.471C255.943 255.313 256.751 251.607 258.039 247.629C259.31 243.644 261.036 239.382 262.51 234.802C263.241 232.51 263.863 230.242 264.289 228.016C264.72 225.79 264.994 223.617 265.167 221.54C265.514 217.385 265.465 213.619 265.364 210.467C265.257 207.312 265.09 204.762 264.985 202.999C264.934 202.131 264.894 201.451 264.866 200.969C264.855 200.749 264.847 200.574 264.841 200.44C264.837 200.321 264.837 200.26 264.842 200.26C264.847 200.26 264.856 200.32 264.87 200.438C264.883 200.572 264.901 200.746 264.922 200.965C264.962 201.446 265.02 202.125 265.093 202.992C265.231 204.752 265.429 207.302 265.561 210.46C265.687 213.616 265.757 217.389 265.422 221.562C265.254 223.647 264.986 225.83 264.555 228.068C264.131 230.308 263.508 232.588 262.774 234.887C261.295 239.483 259.563 243.739 258.282 247.709C256.986 251.67 256.162 255.352 255.874 258.49C255.569 261.629 255.78 264.191 256.069 265.927C256.221 266.794 256.361 267.466 256.483 267.914C256.535 268.128 256.577 268.298 256.608 268.427C256.634 268.542 256.645 268.603 256.641 268.604Z" fill="#263238"/>
<path d="M271.997 271.405H242.914L242.25 265.807H271.997V271.405Z" fill="#455A64"/>
<path d="M246.035 270.768L249.672 287.561H265.475L268.877 270.768H246.035Z" fill="#455A64"/>
<path d="M271.997 271.403C271.997 271.48 265.602 271.524 257.717 271.502C249.828 271.48 243.436 271.399 243.436 271.323C243.436 271.246 249.828 271.202 257.717 271.224C265.603 271.247 271.997 271.327 271.997 271.403Z" fill="#455A64"/>
<path d="M267.006 279.692C266.969 279.748 266.148 278.902 264.444 278.224C263.599 277.888 262.53 277.626 261.33 277.598C260.127 277.559 258.821 277.846 257.501 278.301C256.175 278.75 254.937 279.271 253.731 279.558C252.52 279.819 251.392 279.8 250.474 279.656C249.552 279.512 248.838 279.239 248.38 278.993C248.154 278.863 247.981 278.76 247.875 278.672C247.766 278.59 247.712 278.543 247.717 278.536C247.732 278.514 247.966 278.68 248.428 278.896C248.891 279.108 249.597 279.346 250.501 279.462C251.401 279.578 252.504 279.575 253.674 279.309C254.838 279.018 256.076 278.491 257.412 278.038C258.744 277.579 260.096 277.288 261.336 277.343C262.572 277.385 263.664 277.675 264.518 278.042C265.379 278.399 266.004 278.832 266.413 279.147C266.618 279.307 266.768 279.44 266.865 279.537C266.963 279.632 267.012 279.685 267.006 279.692Z" fill="#263238"/>
<path d="M266.785 280.814C266.747 280.871 265.957 280.05 264.326 279.365C263.514 279.029 262.483 278.769 261.322 278.746C260.16 278.715 258.896 278.978 257.618 279.413C256.336 279.841 255.135 280.338 253.986 280.647C252.839 280.961 251.756 281.07 250.855 280.999C249.952 280.936 249.248 280.681 248.803 280.45C248.584 280.325 248.417 280.225 248.314 280.14C248.209 280.06 248.156 280.015 248.163 280.007C248.178 279.985 248.403 280.147 248.85 280.352C249.3 280.549 249.989 280.767 250.868 280.803C251.745 280.849 252.798 280.722 253.918 280.401C255.043 280.085 256.235 279.584 257.532 279.15C258.822 278.71 260.131 278.444 261.329 278.492C262.526 278.529 263.582 278.819 264.403 279.186C265.23 279.546 265.827 279.975 266.218 280.284C266.415 280.44 266.559 280.571 266.652 280.664C266.745 280.755 266.792 280.806 266.785 280.814Z" fill="white"/>
<path d="M267.294 278.579C267.259 278.632 266.405 277.775 264.664 277.03C263.8 276.662 262.71 276.336 261.472 276.262C260.233 276.175 258.883 276.492 257.521 276.959C256.151 277.418 254.879 277.976 253.618 278.233C252.358 278.461 251.2 278.391 250.254 278.238C249.307 278.074 248.569 277.804 248.093 277.555C247.858 277.424 247.679 277.318 247.569 277.229C247.455 277.145 247.399 277.097 247.405 277.089C247.421 277.067 247.66 277.239 248.14 277.458C248.62 277.673 249.352 277.909 250.284 278.045C251.214 278.171 252.353 278.218 253.569 277.983C254.776 277.724 256.053 277.16 257.432 276.697C258.805 276.225 260.203 275.903 261.487 276.008C262.763 276.099 263.872 276.454 264.743 276.851C265.621 277.244 266.262 277.693 266.683 278.02C266.894 278.185 267.05 278.322 267.149 278.422C267.251 278.517 267.3 278.572 267.294 278.579Z" fill="white"/>
<path d="M272.254 271.427C272.254 271.504 265.712 271.566 257.643 271.566C249.572 271.566 243.031 271.504 243.031 271.427C243.031 271.351 249.572 271.289 257.643 271.289C265.712 271.288 272.254 271.351 272.254 271.427Z" fill="#263238"/>
<path d="M50.0094 265.039C51.0553 266.533 53.0883 266.038 54.0308 265.127C54.9733 264.215 55.3717 262.893 55.7346 261.633C56.5633 258.753 57.3986 255.732 56.7824 252.8C56.5981 251.923 56.2701 251.049 55.6544 250.398C55.0382 249.748 54.0908 249.361 53.2248 249.59C52.1997 249.86 51.5626 250.865 51.1024 251.82C49.7486 254.627 49.032 257.739 49.0216 260.856C49.0167 262.311 49.1887 263.838 50.0094 265.039Z" fill="#0078D4"/>
<g opacity="0.2">
<path d="M50.0094 265.039C51.0553 266.533 53.0883 266.038 54.0308 265.127C54.9733 264.215 55.3717 262.893 55.7346 261.633C56.5633 258.753 57.3986 255.732 56.7824 252.8C56.5981 251.923 56.2701 251.049 55.6544 250.398C55.0382 249.748 54.0908 249.361 53.2248 249.59C52.1997 249.86 51.5626 250.865 51.1024 251.82C49.7486 254.627 49.032 257.739 49.0216 260.856C49.0167 262.311 49.1887 263.838 50.0094 265.039Z" fill="black"/>
</g>
<path d="M53.9277 272.604C55.6382 271.721 57.6523 271.606 59.5514 271.92C60.5716 272.089 61.6352 272.394 62.3298 273.161C63.0238 273.927 63.1554 275.276 62.3586 275.934C61.8843 276.326 61.2221 276.386 60.607 276.379C59.1205 276.362 57.4706 276.1 56.2833 276.994C55.6058 277.505 55.1547 278.353 54.3445 278.604C53.5519 278.849 52.6572 278.382 52.2373 277.666C51.8169 276.951 51.8028 276.057 51.9987 275.251C51.9987 275.251 52.2043 273.493 53.9277 272.604Z" fill="#0078D4"/>
<path d="M47.1364 267.182C48.2722 265.834 48.4877 263.868 47.9821 262.179C47.4766 260.491 46.3352 259.054 45.0194 257.882C43.4766 256.506 41.6632 255.437 39.714 254.751C38.9466 254.481 38.1375 254.269 37.3278 254.346C36.5182 254.423 35.703 254.838 35.3254 255.558C34.7672 256.623 35.3021 257.915 35.8817 258.968C36.9019 260.825 38.0684 262.601 39.3664 264.275C40.4111 265.621 41.6075 266.95 43.1994 267.558C44.7912 268.166 46.4448 268.095 47.2887 266.991" fill="#0078D4"/>
<path d="M49.9374 287.574C49.957 287.575 49.9888 287.334 50.0322 286.895C50.0806 286.401 50.1406 285.781 50.2128 285.043C50.2991 284.263 50.4129 283.335 50.6296 282.326C50.8456 281.318 51.1834 280.226 51.6173 279.118C52.0665 278.017 52.6149 277.016 53.255 276.216C53.8909 275.412 54.6302 274.83 55.3254 274.494C56.0182 274.152 56.6394 274.013 57.069 273.952C57.5023 273.907 57.7447 273.873 57.7447 273.854C57.7447 273.834 57.5017 273.831 57.0568 273.843C56.6161 273.873 55.9686 273.984 55.2385 274.316C54.506 274.641 53.7214 275.232 53.0543 276.053C52.3823 276.87 51.8138 277.892 51.3566 279.013C50.9154 280.14 50.5824 281.243 50.3762 282.272C50.1706 283.3 50.0763 284.238 50.0151 285.024C49.9563 285.811 49.9343 286.447 49.9233 286.888C49.9129 287.329 49.9178 287.573 49.9374 287.574Z" fill="#263238"/>
<path d="M50.0653 286.149C50.0751 286.149 50.0806 286.04 50.0836 285.834C50.083 285.597 50.0824 285.299 50.0812 284.933C50.0788 284.152 50.0794 283.02 50.121 281.624C50.1901 278.83 50.4307 274.973 50.8952 270.734C51.3633 266.494 51.9833 262.68 52.5488 259.943C52.6822 259.257 52.8168 258.639 52.9435 258.099C53.0641 257.557 53.1675 257.09 53.2673 256.712C53.353 256.357 53.4221 256.066 53.4778 255.836C53.5231 255.635 53.5421 255.528 53.5329 255.525C53.5237 255.523 53.4864 255.625 53.4233 255.821C53.3548 256.048 53.2679 256.333 53.162 256.684C53.0463 257.058 52.927 257.522 52.7917 258.062C52.6504 258.6 52.5017 259.216 52.3554 259.901C51.7385 262.634 51.0861 266.453 50.6167 270.702C50.151 274.95 49.9417 278.818 49.9227 281.619C49.9062 283.02 49.9355 284.154 49.9717 284.936C49.9937 285.302 50.012 285.6 50.0267 285.836C50.0426 286.042 50.0555 286.15 50.0653 286.149Z" fill="#263238"/>
<path d="M50.0848 278.689C50.1038 278.688 50.1007 278.354 50.0781 277.748C50.0432 277.143 49.9606 276.269 49.7898 275.199C49.6093 274.131 49.3571 272.862 48.9605 271.485C48.5836 270.101 48.0658 268.608 47.4073 267.09C46.119 264.033 44.3687 261.535 42.8461 259.988C42.4887 259.577 42.0915 259.281 41.7732 258.99C41.6086 258.851 41.4629 258.712 41.3148 258.602C41.1655 258.499 41.0272 258.404 40.8987 258.315C40.3974 257.972 40.1171 257.792 40.1067 257.808C40.0615 257.869 41.2292 258.555 42.7035 260.124C44.1716 261.689 45.873 264.171 47.1509 267.201C47.8033 268.706 48.3247 270.185 48.7127 271.555C49.1203 272.92 49.3902 274.175 49.5946 275.232C49.7886 276.292 49.9012 277.157 49.9691 277.756C50.0254 278.357 50.0652 278.69 50.0848 278.689Z" fill="#263238"/>
<path d="M140.325 31.3504C140.325 31.3425 140.43 31.34 140.637 31.3431C140.867 31.3492 141.17 31.3565 141.554 31.3663C141.959 31.3608 142.454 31.4226 143.038 31.5126C143.329 31.5585 143.647 31.5873 143.98 31.657C144.311 31.739 144.663 31.8259 145.035 31.9177C146.508 32.3259 148.304 32.9747 150.127 34.1956C151.951 35.3939 153.82 37.1289 155.288 39.4692C156.759 41.7899 157.862 44.714 158 47.9693C158.202 51.2013 157.456 54.7521 155.586 57.899C153.775 61.0789 150.743 63.7466 147.082 65.2993C145.246 66.0741 143.232 66.497 141.183 66.5986C139.132 66.7424 137.026 66.4572 135.012 65.8305L134.828 65.7724L134.973 65.7711C131.444 66.9933 127.992 68.1898 124.66 69.344L124.241 69.489L124.373 69.0655C125.298 66.0986 126.192 63.227 127.049 60.4749L127.094 60.6817C125.116 58.4547 123.775 55.8255 123.12 53.1652C122.454 50.5011 122.478 47.8255 122.955 45.4105C123.437 42.9888 124.408 40.8315 125.616 39.0543C126.825 37.2715 128.264 35.8676 129.7 34.7941C130.402 34.2305 131.154 33.8229 131.839 33.4067C132.564 33.0665 133.225 32.6944 133.894 32.4747C134.555 32.2378 135.162 32.0028 135.75 31.8847C136.329 31.7409 136.854 31.5983 137.341 31.5518C137.823 31.4881 138.248 31.4153 138.619 31.3835C138.984 31.3718 139.296 31.362 139.558 31.3535C139.793 31.3492 139.981 31.3455 140.131 31.3425C140.26 31.3412 140.325 31.3443 140.325 31.3504C140.325 31.3565 140.259 31.3663 140.131 31.3786C139.983 31.3908 139.795 31.4061 139.561 31.4251C139.301 31.4428 138.992 31.4642 138.629 31.4893C138.262 31.5328 137.842 31.616 137.365 31.6901C136.884 31.747 136.367 31.8994 135.796 32.0524C135.217 32.1797 134.62 32.4226 133.97 32.6662C133.313 32.8927 132.665 33.2703 131.954 33.6136C131.282 34.034 130.547 34.4429 129.861 35.0059C128.458 36.0781 127.056 37.4716 125.882 39.2311C124.709 40.9851 123.772 43.1069 123.313 45.4809C122.859 47.8487 122.85 50.4675 123.511 53.0672C124.161 55.6639 125.479 58.2258 127.415 60.3953L127.496 60.4859L127.46 60.6022C126.608 63.3556 125.719 66.2289 124.801 69.1983L124.513 68.9205C127.844 67.7638 131.296 66.5655 134.823 65.3409L134.895 65.3164L134.969 65.3397L135.148 65.396C137.11 66.0061 139.16 66.2852 141.16 66.1457C143.158 66.0478 145.12 65.6396 146.911 64.8868C150.481 63.3782 153.447 60.7846 155.224 57.6854C157.059 54.6193 157.804 51.1541 157.622 47.9889C157.503 44.8016 156.441 41.9313 155.014 39.6412C153.591 37.3321 151.769 35.6087 149.984 34.4074C148.202 33.184 146.437 32.5193 144.987 32.0885C144.62 31.9906 144.274 31.8975 143.947 31.8106C143.619 31.7348 143.304 31.6993 143.016 31.6466C142.439 31.5432 141.948 31.4673 141.546 31.4581C141.165 31.4294 140.863 31.4067 140.635 31.3896C140.43 31.3712 140.325 31.3584 140.325 31.3504Z" fill="#0078D4"/>
<path d="M129.957 50.163L132.67 47.4494L137.903 52.1012L148.175 42.2168L150.695 44.9298L137.516 57.3338L129.957 50.163Z" fill="#0078D4"/>
</svg>
