<svg width="427" height="422" viewBox="0 0 427 422" fill="none" xmlns="http://www.w3.org/2000/svg">
<path d="M114.033 334.043H162.747C223.145 334.043 272.106 285.082 272.106 224.684V130.237C272.106 69.8397 223.145 20.8779 162.747 20.8779H114.033C53.6353 20.8779 4.67346 69.8397 4.67346 130.237V224.683C4.67255 285.081 53.6353 334.043 114.033 334.043Z" fill="#D4ECFF"/>
<path d="M32.8414 133.219H103.097C108.587 133.219 113.038 128.768 113.038 123.278V17.2315C113.038 11.7413 108.587 7.29004 103.097 7.29004H32.8414C27.3512 7.29004 22.9 11.7413 22.9 17.2315V123.278C22.9 128.768 27.3503 133.219 32.8414 133.219Z" fill="#FFEABF"/>
<path d="M33.8354 21.209H102.765V23.8599H33.8354V21.209Z" fill="#F9C89B"/>
<path d="M33.8354 28.8311H102.765V31.4819H33.8354V28.8311Z" fill="#F9C89B"/>
<path d="M33.8354 36.4531H102.765V39.104H33.8354V36.4531Z" fill="#F9C89B"/>
<path d="M33.8354 44.0752H102.765V46.7261H33.8354V44.0752Z" fill="#F9C89B"/>
<path d="M33.8354 51.6973H102.765V54.3481H33.8354V51.6973Z" fill="#F9C89B"/>
<path d="M33.8354 59.3193H102.765V61.9702H33.8354V59.3193Z" fill="#F9C89B"/>
<path d="M33.8354 66.9414H102.765V69.5923H33.8354V66.9414Z" fill="#F9C89B"/>
<path d="M33.8354 74.5635H102.765V77.2144H33.8354V74.5635Z" fill="#F9C89B"/>
<path d="M33.8354 82.1855H102.765V84.8364H33.8354V82.1855Z" fill="#F9C89B"/>
<path d="M33.8354 89.8076H102.765V92.4585H33.8354V89.8076Z" fill="#F9C89B"/>
<path d="M33.8354 97.4297H102.765V100.081H33.8354V97.4297Z" fill="#F9C89B"/>
<path d="M33.8354 105.052H102.765V107.703H33.8354V105.052Z" fill="#F9C89B"/>
<path d="M43.7776 125.597C47.4378 125.597 50.4053 122.63 50.4053 118.969C50.4053 115.309 47.4378 112.342 43.7776 112.342C40.1175 112.342 37.15 115.309 37.15 118.969C37.15 122.63 40.1175 125.597 43.7776 125.597Z" fill="white"/>
<path d="M84.2072 18.7242L91.2489 14.6638L97.7939 18.7242V0H84.2072V18.7242Z" fill="#FF7F82"/>
<path d="M180.096 97.2057L204.951 97.1212L209.143 61.8232H177.431L180.096 97.2057Z" fill="#7194FF"/>
<path d="M176.123 59.3311H211.293V65.4954H176.123V59.3311Z" fill="#00599D"/>
<path d="M56.9177 147.423L69.7682 202.884H89.0439L76.2789 139.054L56.9177 147.423Z" fill="#00599D"/>
<path d="M74.842 130.179L42.7158 148.778L46.0974 155.88L76.2793 139.055L74.842 130.179Z" fill="#00599D"/>
<path d="M27.6133 269.008C13.9643 269.008 6.43692 253.22 14.968 242.566C44.0227 206.278 88.2659 183.102 137.829 183.102C187.393 183.102 231.636 206.278 260.691 242.566C269.222 253.22 261.694 269.008 248.045 269.008H27.6133Z" fill="#A7BAEA"/>
<path d="M54.7438 119.928H71.4828L87.5218 218.609H192.524L209.801 119.868H228.539L141.626 53.5791V53.6608L54.7438 119.928Z" fill="#0078D4"/>
<path d="M52.2794 112.815L141.798 46.9646L141.799 46.9033L231.33 112.762L228.497 119.863L141.839 53.7417L55.1114 119.916L52.2794 112.815Z" fill="#00599D"/>
<path d="M115.961 162.511V218.61H167.439V162.511C167.439 148.295 155.917 136.772 141.7 136.772C134.599 136.772 128.157 139.65 123.498 144.309C118.839 148.968 115.961 155.41 115.961 162.511Z" fill="white"/>
<path d="M118.982 162.41V218.695H164.623V162.41C164.623 149.805 154.407 139.589 141.802 139.589C135.506 139.589 129.795 142.14 125.664 146.271C121.532 150.403 118.982 156.113 118.982 162.41Z" fill="#00599D"/>
<path d="M225.496 147.932L212.646 203.391H193.37L206.136 139.562L225.496 147.932Z" fill="#00599D"/>
<path d="M72.348 118.469L140.956 64.6992L140.977 64.7958L209.518 118.511H129.092L129.102 118.469H72.348Z" fill="#92AEF4"/>
<path d="M175.807 210.85C175.807 204.183 181.212 198.778 187.879 198.778C189.657 198.778 191.343 199.167 192.863 199.856C193.671 193.974 198.713 189.441 204.818 189.441C210.609 189.441 215.444 193.519 216.616 198.959C217.29 198.843 217.982 198.778 218.689 198.778C225.356 198.778 230.761 204.183 230.761 210.85C230.761 217.517 225.356 222.921 218.689 222.921C218.113 222.921 217.546 222.879 216.992 222.8L187.969 222.919C187.938 222.919 187.908 222.921 187.879 222.921C187.857 222.921 187.835 222.92 187.814 222.92L187.412 222.921L187.406 222.909C180.959 222.66 175.807 217.358 175.807 210.85Z" fill="#C8FFD4"/>
<path d="M110.372 207.807C110.372 201.14 104.968 195.736 98.3015 195.736C96.5234 195.736 94.8373 196.124 93.3173 196.814C92.5095 190.932 87.4668 186.4 81.3619 186.4C75.5718 186.4 70.7362 190.478 69.5644 195.918C68.8903 195.801 68.1976 195.737 67.491 195.737C60.8244 195.737 55.4196 201.141 55.4196 207.808C55.4196 214.475 60.8244 219.879 67.491 219.879C68.0676 219.879 68.634 219.837 69.1893 219.759L98.2124 219.878C98.2431 219.878 98.2728 219.879 98.3025 219.879C98.3238 219.879 98.3461 219.878 98.3675 219.878L98.7695 219.879L98.7751 219.867C105.221 219.618 110.372 214.315 110.372 207.807Z" fill="#C8FFD4"/>
<path d="M207.573 130.685L239.699 149.283L236.318 156.386L206.136 139.561L207.573 130.685Z" fill="#00599D"/>
<path d="M141.291 109.379C134.568 109.379 129.118 103.929 129.118 97.2058C129.118 90.4825 134.568 85.0322 141.291 85.0322C148.015 85.0322 153.465 90.4825 153.465 97.2058C153.465 103.929 148.015 109.379 141.291 109.379Z" fill="white"/>
<path d="M175.953 177.69H189.819C191.78 177.69 193.369 176.101 193.369 174.14V159.598C193.369 157.637 191.78 156.048 189.819 156.048H175.953C173.992 156.048 172.403 157.637 172.403 159.598V174.14C172.403 176.101 173.992 177.69 175.953 177.69Z" fill="white"/>
<path d="M177.091 176.218H188.823C190.513 176.218 191.884 174.847 191.884 173.156V160.389C191.884 158.699 190.513 157.328 188.823 157.328H177.091C175.4 157.328 174.03 158.699 174.03 160.389V173.156C174.03 174.847 175.4 176.218 177.091 176.218Z" fill="#00599D"/>
<path d="M172.663 166.152H182.15V156.583H183.682V166.152H192.837V167.685H183.682V176.757H182.15V167.685H172.663V166.152Z" fill="white"/>
<path d="M91.7804 177.69H105.646C107.607 177.69 109.196 176.101 109.196 174.14V159.598C109.196 157.637 107.607 156.048 105.646 156.048H91.7804C89.8194 156.048 88.2298 157.637 88.2298 159.598V174.14C88.2298 176.101 89.8194 177.69 91.7804 177.69Z" fill="white"/>
<path d="M92.9181 176.218H104.65C106.34 176.218 107.711 174.847 107.711 173.156V160.389C107.711 158.699 106.34 157.328 104.65 157.328H92.9181C91.2272 157.328 89.8568 158.699 89.8568 160.389V173.156C89.8568 174.847 91.2272 176.218 92.9181 176.218Z" fill="#00599D"/>
<path d="M88.4895 166.152H97.9751V156.583H99.5081V166.152H108.663V167.685H99.5081V176.757H97.9751V167.685H88.4895V166.152Z" fill="white"/>
<path d="M122.287 160.642C122.573 155.751 124.671 151.337 127.927 148.082C131.437 144.572 136.288 142.405 141.636 142.405C151.958 142.405 160.39 150.47 160.985 160.642H122.287Z" fill="#92AEF4"/>
<path d="M143.708 164.537H160.608V196.35H143.708V164.537Z" fill="#92AEF4"/>
<path d="M123.078 164.537H140.601V196.35H123.078V164.537Z" fill="#92AEF4"/>
<path d="M122.664 198.463H160.423V215.405H122.664V198.463Z" fill="#92AEF4"/>
<path d="M162.046 223.337H119.335L113.454 234.789H168.081L162.046 223.337Z" fill="#7194FF"/>
<path d="M244.275 22.6793V22.6728C244.275 22.6728 245.069 22.5855 246.35 22.5911C247.632 22.5855 248.425 22.6728 248.425 22.6728V22.6793C255.574 23.2429 269.357 27.0442 268.275 48.1286C267.536 62.5325 247.636 97.2669 246.349 95.447C245.062 97.2678 225.163 62.5325 224.424 48.1286C223.344 27.0442 237.125 23.2429 244.275 22.6793Z" fill="#FF7F82"/>
<path d="M246.729 55.4021C239.85 55.4021 234.274 49.8258 234.274 42.9471C234.274 36.0685 239.85 30.4922 246.729 30.4922C253.607 30.4922 259.184 36.0685 259.184 42.9471C259.184 49.8258 253.607 55.4021 246.729 55.4021Z" fill="white"/>
<path d="M246.803 161.513V157.082L251.684 157.122C254.407 156.021 258.032 155.342 262.027 155.342C266.231 155.342 270.037 156.087 272.8 157.294L277.312 157.331V162.488H277.261C276.749 165.99 270.133 168.763 262.026 168.763C253.584 168.763 246.741 165.759 246.741 162.053C246.741 161.87 246.77 161.691 246.803 161.513Z" fill="#FF9627"/>
<path d="M262.027 164.04C253.585 164.04 246.741 161.035 246.741 157.329C246.741 153.623 253.585 150.619 262.027 150.619C270.468 150.619 277.312 153.623 277.312 157.329C277.312 161.035 270.468 164.04 262.027 164.04Z" fill="#FFDD4F"/>
<path d="M262.109 161.636C256.065 161.636 251.164 159.485 251.164 156.831C251.164 154.178 256.065 152.026 262.109 152.026C268.154 152.026 273.055 154.178 273.055 156.831C273.055 159.485 268.154 161.636 262.109 161.636Z" fill="#EFC233"/>
<path d="M258.857 153.311V148.881L263.739 148.921C266.462 147.819 270.087 147.141 274.081 147.141C278.285 147.141 282.091 147.886 284.855 149.092L289.366 149.129V154.286H289.316C288.804 157.789 282.188 160.562 274.08 160.562C265.638 160.562 258.795 157.557 258.795 153.852C258.795 153.669 258.825 153.49 258.857 153.311Z" fill="#FF9627"/>
<path d="M274.08 155.839C265.639 155.839 258.795 152.834 258.795 149.128C258.795 145.422 265.639 142.418 274.08 142.418C282.522 142.418 289.365 145.422 289.365 149.128C289.365 152.834 282.522 155.839 274.08 155.839Z" fill="#FFDD4F"/>
<path d="M274.163 153.437C268.118 153.437 263.218 151.286 263.218 148.632C263.218 145.978 268.118 143.827 274.163 143.827C280.208 143.827 285.108 145.978 285.108 148.632C285.108 151.286 280.208 153.437 274.163 153.437Z" fill="#EFC233"/>
<path d="M238.228 137.28V132.849L243.109 132.889C245.832 131.788 249.457 131.109 253.451 131.109C257.656 131.109 261.462 131.855 264.225 133.061L268.736 133.098V138.255H268.686C268.174 141.757 261.558 144.531 253.451 144.531C245.009 144.531 238.165 141.526 238.165 137.821C238.165 137.638 238.195 137.458 238.228 137.28Z" fill="#FF9627"/>
<path d="M238.165 133.097C238.165 136.804 245.009 139.807 253.451 139.807C261.893 139.807 268.736 136.803 268.736 133.097C268.736 129.39 261.893 126.387 253.451 126.387C245.009 126.387 238.165 129.39 238.165 133.097Z" fill="#FFDD4F"/>
<path d="M253.534 137.404C247.489 137.404 242.589 135.253 242.589 132.599C242.589 129.945 247.489 127.794 253.534 127.794C259.579 127.794 264.479 129.945 264.479 132.599C264.479 135.253 259.579 137.404 253.534 137.404Z" fill="#EFC233"/>
<path d="M227.362 329.939L233.872 333.039L239.038 325.901L240.686 323.621L223.928 288.282L211.98 294.208L215.92 302.515L219.864 304.509L218.674 309.072L219.969 311.802L224.258 314.278L223.062 318.324L224.557 321.479L228.211 324.131L227.362 329.939Z" fill="#FF9627"/>
<path d="M216.71 293.94L218.092 293.285L235.179 329.318L233.797 329.974L216.71 293.94Z" fill="#EFC233"/>
<path d="M222.172 290.332L239.038 325.9L240.686 323.62L224.401 289.275L222.172 290.332Z" fill="#EFC233"/>
<path d="M187.386 266.657C188.027 267.613 188.775 268.467 189.603 269.199C193.078 272.29 197.988 273.243 202.205 271.243C202.655 271.029 203.082 270.785 203.479 270.524C204.928 271.514 206.893 271.706 208.645 270.876C211.23 269.651 212.374 266.661 211.205 264.195C210.653 263.029 209.694 262.193 208.553 261.765C208.032 261.564 207.478 261.452 206.918 261.436C206.085 261.393 205.227 261.561 204.411 261.948C201.826 263.173 200.682 266.164 201.851 268.629C201.96 268.859 202.083 269.072 202.229 269.273C201.969 269.427 201.706 269.574 201.424 269.706C197.59 271.524 193.085 270.505 190.063 267.491C189.432 266.863 188.862 266.144 188.378 265.342C188.769 264.959 189.23 264.636 189.758 264.386L215.148 252.346C217.767 251.104 220.888 252.217 222.13 254.836L233.666 279.164C234.908 281.783 233.795 284.904 231.175 286.146L205.785 298.186C203.166 299.428 200.045 298.314 198.803 295.696L187.267 271.368C186.525 269.805 186.624 268.06 187.386 266.657Z" fill="#EFC233"/>
<path d="M189.603 269.199C193.078 272.29 197.988 273.242 202.205 271.242C202.655 271.029 203.082 270.784 203.479 270.524C204.927 271.513 206.893 271.706 208.645 270.875C211.23 269.65 212.374 266.66 211.205 264.194C210.653 263.029 209.693 262.192 208.553 261.764C208.031 261.564 207.478 261.451 206.918 261.435C206.085 261.393 205.227 261.56 204.411 261.947C201.826 263.173 200.682 266.163 201.851 268.628C201.96 268.858 202.083 269.071 202.229 269.272C201.969 269.426 201.706 269.573 201.424 269.706C197.59 271.524 193.085 270.504 190.063 267.49C190.499 266.586 191.23 265.823 192.216 265.355L214.409 254.831C216.697 253.746 219.43 254.721 220.51 257L230.594 278.266C231.679 280.553 230.704 283.287 228.417 284.371L206.224 294.895C203.936 295.979 201.203 295.004 200.119 292.718L190.034 271.451C189.693 270.729 189.553 269.952 189.603 269.199Z" fill="#FF9627"/>
<path d="M191.588 248.854C197.345 246.124 204.396 248.915 207.328 255.096C207.454 255.36 207.57 255.627 207.674 255.891C207.922 256.502 208.111 257.121 208.254 257.751C208.58 259.096 208.669 260.449 208.553 261.765C208.26 265.32 206.457 268.591 203.479 270.524C202.989 270.193 202.564 269.781 202.229 269.273C205.004 267.614 206.682 264.651 206.918 261.436C206.997 260.461 206.95 259.462 206.748 258.465C206.626 257.835 206.455 257.208 206.21 256.584C206.106 256.3 205.987 256.024 205.858 255.752C203.326 250.412 197.234 247.999 192.251 250.362C187.277 252.72 185.29 258.964 187.822 264.304C187.991 264.661 188.178 265.011 188.378 265.343C187.974 265.722 187.64 266.161 187.386 266.657C187.043 266.132 186.73 265.583 186.453 264.996C183.522 258.814 185.823 251.588 191.588 248.854Z" fill="white"/>
<path d="M187.387 266.657C188.027 267.613 188.776 268.466 189.603 269.199C189.645 268.606 189.796 268.024 190.063 267.491C189.432 266.864 188.862 266.144 188.378 265.343C187.974 265.722 187.641 266.161 187.387 266.657Z" fill="#EFC233"/>
<path d="M189.602 269.2C193.077 272.291 197.987 273.243 202.205 271.243C202.655 271.03 203.081 270.786 203.479 270.525C202.988 270.194 202.564 269.782 202.229 269.274C201.969 269.428 201.705 269.575 201.424 269.708C197.589 271.526 193.085 270.506 190.063 267.492C189.795 268.025 189.644 268.607 189.602 269.2Z" fill="#FF9627"/>
<path d="M12.6535 203.537C5.66513 196.549 5.66515 185.219 12.6535 178.23C19.6419 171.242 30.9723 171.242 37.9607 178.23C44.9491 185.219 44.9491 196.549 37.9607 203.537C30.9723 210.526 19.6419 210.526 12.6535 203.537Z" fill="white"/>
<path d="M32.7698 200.492L42.8347 191.898C44.0594 190.853 44.3733 188.999 43.3928 187.722C42.3473 186.36 40.39 186.168 39.1021 187.268L30.5191 194.596L10.0261 173.807C8.9583 172.559 7.08089 172.415 5.83484 173.482C4.58786 174.55 4.44209 176.427 5.51079 177.674L27.3789 200.069C28.7503 201.674 31.1635 201.862 32.7698 200.492Z" fill="#FF7F82"/>
<path d="M24.8842 253.872V300.598C24.8842 308.64 31.406 315.153 39.4385 315.153H101.465C109.508 315.153 116.021 308.641 116.021 300.598V253.872C116.021 245.838 109.509 239.317 101.465 239.317H39.4385C31.406 239.316 24.8842 245.838 24.8842 253.872Z" fill="#7194FF"/>
<path d="M40.7951 261.135H102.102C105.58 261.135 108.398 258.316 108.398 254.839C108.398 251.362 105.58 248.543 102.102 248.543H40.7951C37.3178 248.543 34.4989 251.362 34.4989 254.839C34.498 258.316 37.3169 261.135 40.7951 261.135Z" fill="#CEDAFF"/>
<path d="M24.8842 266.606V300.597C24.8842 308.64 31.406 315.152 39.4385 315.152H101.465C109.508 315.152 116.021 308.641 116.021 300.597V266.606H24.8842Z" fill="#92AEF4"/>
<path d="M93.8173 270.912H107.57V280.191H93.8173V270.912Z" fill="white"/>
<path d="M76.4189 270.912H90.1719V280.191H76.4189V270.912Z" fill="white"/>
<path d="M58.8554 270.912H72.6084V280.191H58.8554V270.912Z" fill="white"/>
<path d="M36.6523 270.912H50.4053V280.191H36.6523V270.912Z" fill="white"/>
<path d="M93.8173 283.67H107.57V292.948H93.8173V283.67Z" fill="white"/>
<path d="M76.4189 283.67H90.1719V292.948H76.4189V283.67Z" fill="white"/>
<path d="M58.8554 283.67H72.6084V292.948H58.8554V283.67Z" fill="white"/>
<path d="M93.8173 296.927H107.57V306.205H93.8173V296.927Z" fill="white"/>
<path d="M76.4189 296.927H90.1719V306.205H76.4189V296.927Z" fill="white"/>
<path d="M58.8554 296.927H72.6084V306.205H58.8554V296.927Z" fill="white"/>
<path d="M36.1552 284.665H49.9082V306.205H36.1552V284.665Z" fill="white"/>
<path d="M181.52 181.8C183.617 183.226 186.284 184.423 188.065 185.217C186.976 184.038 185.015 182.156 182.209 180.378C177.669 177.503 175.209 173.278 177.976 173.63C179.535 173.829 187.181 178.441 190.565 180.521C190.607 180.397 190.649 180.274 190.69 180.152C187.275 178.183 183.32 174.013 181.335 172.744C179.118 171.327 177.208 167.631 179.118 167.2C180.744 166.833 189.787 173.168 192.431 175.053C192.484 174.9 192.516 174.808 192.516 174.808C192.516 174.808 188.635 170.466 186.879 169.172C185.123 167.879 180.872 165.106 183.091 163.813C185.308 162.52 188.635 165.846 193.902 168.525C198.613 170.922 208.224 176.379 208.224 176.379C208.224 176.379 207.577 173.33 207.3 172.591C207.024 171.852 204.436 168.988 204.158 166.123C203.882 163.259 206.284 161.781 207.392 163.536C208.501 165.292 211.735 168.896 214.508 172.777C217.28 176.658 218.573 183.68 218.573 183.68L221.715 185.436C224.026 192.736 219.405 203.177 219.405 203.177L209.611 197.633C195.843 196.062 187.557 189.994 187.557 189.624C187.557 189.624 179.24 184.389 177.824 182.787C176.406 181.184 178.44 179.705 181.52 181.8Z" fill="#FFAE9F"/>
<path d="M214.506 204.624C214.506 204.624 260.81 229.22 281.479 232.944C298.758 236.045 314.877 209.991 319.705 201.347C320.652 199.647 321.163 198.626 321.163 198.626L310.829 145.441C310.829 145.441 304.626 150.678 297.189 166.797C289.743 182.916 277.756 203.176 277.756 203.176C277.756 203.176 240.968 193.872 222.361 184.364L217.143 197.809L214.506 204.624Z" fill="#0078D4"/>
<path d="M306.354 123.807C312.129 131.254 325.351 128.273 325.351 128.273C325.351 128.273 325.537 133.111 334.283 135.906C343.039 138.701 357.189 128.273 367.245 131.997C377.301 135.72 390.708 125.664 390.708 125.664C394.116 127.512 400.681 128.273 405.416 125.126C406.883 124.16 408.174 122.814 409.139 121.013C413.234 113.38 405.787 109.843 397.032 103.882C388.285 97.9207 395.732 80.6041 394.246 64.7824C392.779 49.2207 381.293 42.9255 380.913 42.7212C380.903 42.7119 380.903 42.7119 380.903 42.7119C379.938 41.3656 378.944 40.1307 377.932 38.9979C358.647 17.4381 331.6 33.4269 325.964 37.0945C313.68 45.1074 306.243 57.2801 307.728 68.0786C308.313 72.3312 309.817 78.385 310.996 84.4667C312.816 93.826 313.884 103.26 309.706 106.305C303.308 110.975 300.579 116.361 306.354 123.807Z" fill="#014373"/>
<path d="M214.506 204.624C214.506 204.624 260.81 229.22 281.479 232.943C298.758 236.045 314.877 209.991 319.705 201.346L312.463 196.871C312.463 196.871 301.321 214.828 290.179 221.941C279.965 228.468 224.629 205.995 215.743 201.594L214.506 204.624Z" fill="#00599D"/>
<path d="M393.512 263.529C393.512 263.529 385.258 254.504 391.776 232.582C392.992 228.478 394.728 223.919 397.152 218.877C398.154 216.76 399.287 214.56 400.541 212.275C412.806 189.982 413.642 167.41 412.388 153.074C411.618 144.272 410.067 138.589 409.9 137.967C409.891 137.93 409.881 137.912 409.881 137.912L408.851 137.512L375.648 124.485L375.323 124.355L332.602 129.174L310.829 145.442C306.697 152.461 300.606 184.625 308.619 207.995C322.203 247.596 301.321 303.631 301.321 303.631L400.578 286.379L400.439 285.924L393.512 263.529Z" fill="#7194FF"/>
<path d="M332.066 140.965C332.066 140.965 333.008 144.927 343.212 145.989C353.416 147.052 373.946 132.46 373.946 132.46C369.235 122.919 368.504 110.819 368.785 101.941C368.904 98.4708 368.788 95.0576 369.034 92.9146C369.289 90.6351 337.168 111.839 337.168 111.839C337.27 112.179 337.364 112.528 337.449 112.86C338.605 117.23 338.903 121.108 338.698 124.475C338.036 135.352 332.066 140.965 332.066 140.965Z" fill="#FFAE9F"/>
<path d="M338.698 124.476C339.889 124.315 341.216 124.069 342.695 123.745C353.596 121.346 365.782 105.938 368.784 101.942C368.903 98.4717 368.867 94.4076 369.114 92.2646L337.449 112.86C338.606 117.231 338.903 121.109 338.698 124.476Z" fill="#D38B85"/>
<path d="M317.774 66.518C317.774 66.518 318.493 78.3712 319.201 92.5244C319.946 107.421 337.883 117.911 339.869 118.406C341.855 118.903 364.296 109.42 367.772 95.5179C371.247 81.6145 374.379 63.0416 364.945 52.1178C355.511 41.194 320.257 38.7111 317.774 66.518Z" fill="#FFAE9F"/>
<path d="M369.415 77.9378C369.415 77.9378 370.904 71.4828 377.111 73.221C383.318 74.9591 381.828 89.8551 376.367 92.5858C370.904 95.3166 368.173 92.5858 368.173 92.5858L369.415 77.9378Z" fill="#FFAE9F"/>
<path d="M372.642 73.1566C372.642 73.1566 371.215 86.7498 366.932 88.6115L365.752 72.7842C365.752 72.7842 355.076 68.9978 355.263 57.0814C355.263 57.0814 342.353 67.8817 316.967 67.6635C316.967 67.6635 312.126 57.3293 319.946 47.4602C327.767 37.5912 342.291 33.3089 360.353 42.619C378.414 51.9301 374.503 69.8047 372.642 73.1566Z" fill="#014373"/>
<path d="M331.398 91.7783C331.398 91.7783 333.633 95.2231 337.078 94.5713C340.523 93.9194 340.15 93.5471 340.15 93.5471L331.398 91.7783Z" fill="#D38B85"/>
<path d="M330.421 71.8342C330.421 71.8342 329.397 68.5761 325.393 67.9243C321.389 67.2725 320.459 70.252 320.459 70.252C320.459 70.252 326.604 69.3208 330.421 71.8342Z" fill="#014373"/>
<path d="M310.912 269.294L383.958 286.323L400.438 285.924L393.512 263.528C393.512 263.528 385.257 254.503 391.776 232.581C392.992 228.478 394.728 223.919 397.152 218.877L385.75 178.385C385.75 178.385 377.458 214.206 379.937 234.94C382.407 255.683 311.534 262.182 311.534 262.182L310.912 269.294Z" fill="#5A80E0"/>
<path d="M355.375 70.2522C355.375 70.2522 346.324 69.0098 341.287 71.0869C341.287 71.0869 343.361 66.6477 348.914 66.8474C354.467 67.0479 355.375 70.2522 355.375 70.2522Z" fill="#014373"/>
<path d="M348.645 78.8909C348.645 81.0246 349.437 82.7544 350.414 82.7544C351.391 82.7544 352.183 81.0246 352.183 78.8909C352.183 76.7572 351.391 75.0273 350.414 75.0273C349.437 75.0264 348.645 76.7562 348.645 78.8909Z" fill="#003556"/>
<path d="M327.077 79.1214C327.077 81.0871 327.807 82.6804 328.706 82.6804C329.606 82.6804 330.336 81.0871 330.336 79.1214C330.336 77.1558 329.606 75.5625 328.706 75.5625C327.806 75.5625 327.077 77.1558 327.077 79.1214Z" fill="#003556"/>
<path d="M332.981 99.6924C332.981 99.6924 340.145 100.617 345.923 99.6924C345.923 99.6924 345.886 102.46 341.186 103.967C335.061 105.932 332.981 99.6924 332.981 99.6924Z" fill="white"/>
<path d="M377.483 75.577C376.372 74.6382 374.504 75.7636 373.015 79.3012C371.525 82.8388 374.411 84.4219 373.666 86.0978C372.922 87.7738 370.781 88.3318 372.27 89.3569C373.759 90.381 375.715 88.9845 375.715 87.4952C375.715 86.0059 373.666 81.537 374.318 80.6986C374.97 79.8611 376.553 84.33 376.739 82.7469C376.925 81.1638 375.063 79.1164 375.715 78.0913C376.367 77.0672 378.322 80.9771 378.322 83.1192C378.322 85.2603 381.083 78.6187 377.483 75.577Z" fill="#D38B85"/>
<path d="M370.062 117.878L343.006 145.678C343.006 145.678 352.444 152.885 361.882 152.885C371.32 152.885 376.697 124.857 376.697 124.857L370.062 117.878Z" fill="white"/>
<path d="M339.18 122.994L342.591 145.989C342.591 145.989 334.53 151.571 328.948 149.504C323.367 147.437 333.289 128.213 333.289 128.213L339.18 122.994Z" fill="white"/>
<path d="M315.663 243.372L307.659 240.658C307.659 240.658 303.619 234.424 300.355 231.15C298.037 228.824 293.569 223.729 291.192 222.596C288.815 221.463 290.772 229.585 292.73 231.285C294.688 232.985 296.366 237.896 296.366 238.463C296.366 239.029 283.782 237.896 280.426 236.574C277.07 235.252 270.079 231.285 267.841 231.852C265.603 232.418 266.583 236.196 271.476 239.218C271.476 239.218 270.917 242.051 272.874 245.263C272.874 245.263 273.154 251.307 276.929 253.385C276.929 253.385 279.564 257.756 283.059 260.4C286.555 263.045 303.916 261.506 306.432 261.696C308.95 261.884 314.962 263.396 314.962 263.396C314.962 263.396 317.34 246.583 315.663 243.372Z" fill="#FFAE9F"/>
<path d="M312.9 242.033L313.921 261.606L314.134 265.599C314.134 265.599 377.384 279.656 395.991 280.065C414.589 280.482 425.75 269.322 426.576 260.64V260.631C426.558 260.306 422.825 192.34 420.792 165.144C420.002 154.587 417.338 147.818 414.914 143.714C414.914 143.714 414.914 143.705 414.905 143.705C412.565 139.749 410.457 138.273 410.457 138.273C410.272 138.162 410.086 138.059 409.9 137.967C409.547 137.79 409.195 137.642 408.851 137.512C406.437 136.657 404.199 137.038 402.119 138.282C401.906 138.412 401.692 138.552 401.469 138.7C393.902 143.965 388.684 160.511 386.456 168.876C385.629 171.978 385.397 175.2 385.75 178.384L391.776 232.581L393.271 246.072L393.317 246.481C372.064 245.896 332.222 246.945 312.9 242.033Z" fill="#0078D4"/>
<path d="M333.99 78.3203C333.99 78.3203 332.951 89.4623 331.398 91.778C331.398 91.778 329.6 83.8579 333.99 78.3203Z" fill="#D38B85"/>
<path d="M319.868 72.142H329.216C331.463 72.142 333.285 73.9266 333.285 76.129V77.3407C335.346 76.8013 337.003 76.9963 338.076 77.2841V76.2367C338.076 73.9071 340.004 72.0186 342.381 72.0186H353.726C355.977 72.0186 357.808 73.7261 357.993 75.8858L371.257 72.8152C371.833 72.6815 372.409 73.0315 372.546 73.5952L372.446 73.8895L358.03 77.883V79.1253C358.03 82.5654 355.184 85.3537 351.674 85.3537H344.432C341.002 85.3537 338.204 82.6741 338.087 79.3398C337.41 79.0761 335.674 78.6184 333.285 79.3872V79.6221C333.285 82.8551 330.61 85.4763 327.311 85.4763H321.773C318.474 85.4763 315.799 82.8551 315.799 79.6221V76.129C315.8 73.9266 317.621 72.142 319.868 72.142ZM340.068 79.1253C340.068 81.4837 342.025 83.402 344.432 83.402H351.674C354.081 83.402 356.039 81.4828 356.039 79.1253V76.2377C356.039 74.9879 355.002 73.9712 353.726 73.9712H342.38C341.105 73.9712 340.067 74.9879 340.067 76.2377V79.1253H340.068ZM317.79 79.6221C317.79 81.7743 319.577 83.5246 321.773 83.5246H327.311C329.507 83.5246 331.293 81.7743 331.293 79.6221V76.129C331.293 75.0065 330.361 74.0938 329.216 74.0938H319.867C318.722 74.0938 317.79 75.0074 317.79 76.129V79.6221Z" fill="#FFE3AF"/>
<path d="M345.535 104.826C345.535 104.826 341.063 107.997 335.698 105.802C335.698 105.802 336.592 108.729 340.169 109.055C343.747 109.379 345.535 104.826 345.535 104.826Z" fill="#D38B85"/>
<path d="M195.937 172.191C195.937 172.191 189.321 178.691 188.044 187.86C188.044 187.86 195.588 173.584 195.937 172.191Z" fill="#D38B85"/>
<path d="M207.426 177.182C207.426 177.182 206.846 184.842 210.096 189.369C210.096 189.369 209.283 179.039 207.542 176.718" fill="#D38B85"/>
<path d="M332.772 421.263H283.99C283.99 421.263 289.47 355.233 293.032 333.454C298.137 302.233 306.553 286.013 306.553 286.013L400.685 285.915C402.288 293.574 402.728 300.11 404.97 305.806C410.423 319.654 412.623 334.567 411.531 349.41L398.629 421.263H345.456C345.456 421.263 346.071 399.105 345.2 374.826L332.772 421.263Z" fill="#FF7F82"/>
<path d="M345.199 374.825C345.199 374.825 342.366 348.414 327.731 334.43C327.731 334.43 330.984 352.967 331.309 366.626C331.634 380.285 321.877 421.262 321.877 421.262H332.772L345.199 374.825Z" fill="#D1656F"/>
<path d="M378.231 44.2899L357.495 53.1106C357.495 53.1106 363.995 43.2063 378.231 44.2899Z" fill="#00385B"/>
<path d="M307.728 68.0786C308.312 72.3312 309.817 78.385 310.996 84.4667C310.197 76.073 309.334 61.2355 312.463 54.6617C316.948 45.2189 332.426 32.5262 350.225 31.1335C364.366 30.0286 374.413 36.3517 377.932 38.9979C358.647 17.4381 331.599 33.4269 325.963 37.0945C313.679 45.1074 306.242 57.2801 307.728 68.0786Z" fill="#0C6296"/>
<path d="M355.264 57.083C355.264 57.083 329.022 66.8843 313.392 65.9558C313.392 65.9558 316.797 70.057 333.742 66.1879C350.687 62.3198 355.264 57.083 355.264 57.083Z" fill="#0C6296"/>
<path d="M272.229 239.662C272.229 239.662 279.27 244.305 283.139 245.156C283.139 245.156 274.318 245.155 272.229 239.662Z" fill="#D38B85"/>
<path d="M273.93 246.162C273.93 246.162 275.246 248.096 278.728 249.489C282.21 250.882 285.072 250.727 285.072 250.727L273.93 246.162Z" fill="#D38B85"/>
<path d="M277.644 253.822C277.644 253.822 279.81 255.215 282.364 255.911C284.917 256.608 286.619 256.453 286.619 256.453C286.619 256.453 284.066 257.69 281.977 256.994C279.887 256.298 277.644 253.822 277.644 253.822Z" fill="#D38B85"/>
<path d="M391.851 73.3808C389.836 89.3232 388.136 95.2007 391.386 103.715C394.636 112.229 406.242 112.072 407.171 117.8C407.589 120.4 406.614 123.028 405.416 125.126C406.883 124.161 408.174 122.814 409.139 121.013C413.234 113.381 405.787 109.843 397.032 103.882C388.285 97.9212 395.732 80.6046 394.246 64.7829C392.779 49.2212 381.293 42.926 380.913 42.7217C381.275 43.1395 393.837 57.6799 391.851 73.3808Z" fill="#0C6296"/>
<path d="M373.125 204.921L314.01 207.087C314.01 207.087 348.366 219.158 373.125 204.921Z" fill="#5A80E0"/>
<path d="M395.1 248.561L410.652 257.382C410.652 257.382 407.635 245.312 395.1 248.561Z" fill="#3F62A8"/>
<path d="M397.576 299.32L310.606 294.986C310.606 294.986 374.364 307.366 397.576 299.32Z" fill="#D1656F"/>
<path d="M280.43 205.386L286.697 223.492L280.662 223.956C280.662 223.956 275.323 212.35 280.43 205.386Z" fill="#00599D"/>
<path d="M313.921 261.606L314.134 265.599C314.134 265.599 377.384 279.656 395.991 280.065C414.589 280.482 425.741 275.023 426.576 260.64C426.576 260.638 426.576 260.631 426.576 260.631C426.558 260.306 422.825 192.34 420.792 165.144C420.002 154.587 417.338 147.818 414.914 143.714C414.914 143.714 414.914 143.705 414.905 143.705C412.565 139.749 410.457 138.273 410.457 138.273C410.272 138.162 410.086 138.059 409.9 137.967C409.547 137.79 409.195 137.642 408.851 137.512C406.437 136.657 404.199 137.038 402.119 138.282C401.906 138.412 401.692 138.552 401.469 138.7C401.469 138.7 413.364 136.518 417.69 193.157C422.027 249.795 424.503 266.666 411.813 271.151C403.256 274.175 327.616 263.899 313.921 261.606Z" fill="#00599D"/>
</svg>
