<svg width="436" height="141" viewBox="0 0 436 141" fill="none" xmlns="http://www.w3.org/2000/svg">
<g opacity="0.2">
<path d="M138.722 45.8965H119.508V122.379H138.722V45.8965Z" fill="#EAEAEA"/>
<path d="M135.582 40.415H122.646V72.5552H135.582V40.415Z" fill="#EAEAEA"/>
<path d="M132.703 36.9346H125.527V54.7623H132.703V36.9346Z" fill="#EAEAEA"/>
<path d="M131.56 46.0965H126.67V33.9473H128.434H130.182H131.56V46.0965Z" fill="#EAEAEA"/>
<path d="M128.792 40.8045H128.262V28.6553H128.453H128.643H128.792V40.8045Z" fill="#EAEAEA"/>
<path d="M129.968 36.6053H129.438V24.4561H129.629H129.818H129.968V36.6053Z" fill="#EAEAEA"/>
<path d="M139.234 45.7012H118.994V46.5154H139.234V45.7012Z" fill="#EAEAEA"/>
<path d="M136.053 40.0234H122.174V40.8077H136.053V40.0234Z" fill="#EAEAEA"/>
<path d="M133.002 36.6045H125.004V37.2062H133.002V36.6045Z" fill="#EAEAEA"/>
<path opacity="0.29" d="M124.437 41.7197H123.836V45.0876H124.437V41.7197Z" fill="#EAEAEA"/>
<path opacity="0.29" d="M126.102 41.7197H125.5V45.0876H126.102V41.7197Z" fill="#EAEAEA"/>
<path opacity="0.29" d="M127.766 41.7197H127.164V45.0876H127.766V41.7197Z" fill="#EAEAEA"/>
<path opacity="0.29" d="M129.43 41.7197H128.828V45.0876H129.43V41.7197Z" fill="#EAEAEA"/>
<path opacity="0.29" d="M131.092 41.7197H130.49V45.0876H131.092V41.7197Z" fill="#EAEAEA"/>
<path opacity="0.29" d="M132.758 41.7197H132.156V45.0876H132.758V41.7197Z" fill="#EAEAEA"/>
<path opacity="0.29" d="M134.42 41.7197H133.818V45.0876H134.42V41.7197Z" fill="#EAEAEA"/>
<path d="M122.646 48.9463H121.193V52.942H122.646V48.9463Z" fill="#EAEAEA"/>
<path opacity="0.29" d="M125.523 48.9463H124.07V52.942H125.523V48.9463Z" fill="#EAEAEA"/>
<path d="M128.402 48.9463H126.949V52.942H128.402V48.9463Z" fill="#EAEAEA"/>
<path d="M131.279 48.9463H129.826V52.942H131.279V48.9463Z" fill="#EAEAEA"/>
<path d="M134.158 48.9463H132.705V52.942H134.158V48.9463Z" fill="#EAEAEA"/>
<path d="M137.035 48.9463H135.582V52.942H137.035V48.9463Z" fill="#EAEAEA"/>
<path d="M122.646 55.1758H121.193V59.1715H122.646V55.1758Z" fill="#EAEAEA"/>
<path d="M125.523 55.1758H124.07V59.1715H125.523V55.1758Z" fill="#EAEAEA"/>
<path d="M128.402 55.1758H126.949V59.1715H128.402V55.1758Z" fill="#EAEAEA"/>
<path opacity="0.29" d="M131.279 55.1758H129.826V59.1715H131.279V55.1758Z" fill="#EAEAEA"/>
<path d="M134.158 55.1758H132.705V59.1715H134.158V55.1758Z" fill="#EAEAEA"/>
<path d="M137.035 55.1758H135.582V59.1715H137.035V55.1758Z" fill="#EAEAEA"/>
<path d="M122.646 61.4023H121.193V65.398H122.646V61.4023Z" fill="#EAEAEA"/>
<path d="M125.523 61.4023H124.07V65.398H125.523V61.4023Z" fill="#EAEAEA"/>
<path d="M128.402 61.4023H126.949V65.398H128.402V61.4023Z" fill="#EAEAEA"/>
<path d="M131.279 61.4023H129.826V65.398H131.279V61.4023Z" fill="#EAEAEA"/>
<path opacity="0.29" d="M134.158 61.4023H132.705V65.398H134.158V61.4023Z" fill="#EAEAEA"/>
<path opacity="0.29" d="M137.035 61.4023H135.582V65.398H137.035V61.4023Z" fill="#EAEAEA"/>
<path opacity="0.29" d="M122.646 67.6309H121.193V71.6266H122.646V67.6309Z" fill="#EAEAEA"/>
<path d="M125.523 67.6309H124.07V71.6266H125.523V67.6309Z" fill="#EAEAEA"/>
<path d="M128.402 67.6309H126.949V71.6266H128.402V67.6309Z" fill="#EAEAEA"/>
<path d="M131.279 67.6309H129.826V71.6266H131.279V67.6309Z" fill="#EAEAEA"/>
<path d="M134.158 67.6309H132.705V71.6266H134.158V67.6309Z" fill="#EAEAEA"/>
<path d="M137.035 67.6309H135.582V71.6266H137.035V67.6309Z" fill="#EAEAEA"/>
<path d="M122.646 73.8584H121.193V77.8541H122.646V73.8584Z" fill="#EAEAEA"/>
<path opacity="0.29" d="M125.523 73.8584H124.07V77.8541H125.523V73.8584Z" fill="#EAEAEA"/>
<path d="M128.402 73.8584H126.949V77.8541H128.402V73.8584Z" fill="#EAEAEA"/>
<path opacity="0.29" d="M131.279 73.8584H129.826V77.8541H131.279V73.8584Z" fill="#EAEAEA"/>
<path d="M134.158 73.8584H132.705V77.8541H134.158V73.8584Z" fill="#EAEAEA"/>
<path d="M137.035 73.8584H135.582V77.8541H137.035V73.8584Z" fill="#EAEAEA"/>
<path d="M122.646 80.0889H121.193V84.0846H122.646V80.0889Z" fill="#EAEAEA"/>
<path d="M125.523 80.0889H124.07V84.0846H125.523V80.0889Z" fill="#EAEAEA"/>
<path d="M128.402 80.0889H126.949V84.0846H128.402V80.0889Z" fill="#EAEAEA"/>
<path d="M131.279 80.0889H129.826V84.0846H131.279V80.0889Z" fill="#EAEAEA"/>
<path d="M134.158 80.0889H132.705V84.0846H134.158V80.0889Z" fill="#EAEAEA"/>
<path opacity="0.29" d="M137.035 80.0889H135.582V84.0846H137.035V80.0889Z" fill="#EAEAEA"/>
<path d="M122.646 86.3154H121.193V90.3111H122.646V86.3154Z" fill="#EAEAEA"/>
<path opacity="0.29" d="M125.523 86.3154H124.07V90.3111H125.523V86.3154Z" fill="#EAEAEA"/>
<path opacity="0.29" d="M128.402 86.3154H126.949V90.3111H128.402V86.3154Z" fill="#EAEAEA"/>
<path d="M131.279 86.3154H129.826V90.3111H131.279V86.3154Z" fill="#EAEAEA"/>
<path d="M134.158 86.3154H132.705V90.3111H134.158V86.3154Z" fill="#EAEAEA"/>
<path d="M137.035 86.3154H135.582V90.3111H137.035V86.3154Z" fill="#EAEAEA"/>
<path d="M122.646 92.543H121.193V96.5387H122.646V92.543Z" fill="#EAEAEA"/>
<path d="M125.523 92.543H124.07V96.5387H125.523V92.543Z" fill="#EAEAEA"/>
<path d="M128.402 92.543H126.949V96.5387H128.402V92.543Z" fill="#EAEAEA"/>
<path d="M131.279 92.543H129.826V96.5387H131.279V92.543Z" fill="#EAEAEA"/>
<path opacity="0.29" d="M134.158 92.543H132.705V96.5387H134.158V92.543Z" fill="#EAEAEA"/>
<path d="M137.035 92.543H135.582V96.5387H137.035V92.543Z" fill="#EAEAEA"/>
<path d="M122.646 98.7695H121.193V102.765H122.646V98.7695Z" fill="#EAEAEA"/>
<path opacity="0.29" d="M125.523 98.7695H124.07V102.765H125.523V98.7695Z" fill="#EAEAEA"/>
<path d="M128.402 98.7695H126.949V102.765H128.402V98.7695Z" fill="#EAEAEA"/>
<path d="M131.279 98.7695H129.826V102.765H131.279V98.7695Z" fill="#EAEAEA"/>
<path d="M134.158 98.7695H132.705V102.765H134.158V98.7695Z" fill="#EAEAEA"/>
<path d="M137.035 98.7695H135.582V102.765H137.035V98.7695Z" fill="#EAEAEA"/>
<path d="M122.646 105H121.193V108.996H122.646V105Z" fill="#EAEAEA"/>
<path d="M125.523 105H124.07V108.996H125.523V105Z" fill="#EAEAEA"/>
<path d="M128.402 105H126.949V108.996H128.402V105Z" fill="#EAEAEA"/>
<path opacity="0.29" d="M131.279 105H129.826V108.996H131.279V105Z" fill="#EAEAEA"/>
<path d="M134.158 105H132.705V108.996H134.158V105Z" fill="#EAEAEA"/>
<path opacity="0.29" d="M137.035 105H135.582V108.996H137.035V105Z" fill="#EAEAEA"/>
<path opacity="0.29" d="M122.646 111.227H121.193V115.222H122.646V111.227Z" fill="#EAEAEA"/>
<path d="M125.523 111.227H124.07V115.222H125.523V111.227Z" fill="#EAEAEA"/>
<path opacity="0.29" d="M128.402 111.227H126.949V115.222H128.402V111.227Z" fill="#EAEAEA"/>
<path d="M131.279 111.227H129.826V115.222H131.279V111.227Z" fill="#EAEAEA"/>
<path d="M134.158 111.227H132.705V115.222H134.158V111.227Z" fill="#EAEAEA"/>
<path d="M137.035 111.227H135.582V115.222H137.035V111.227Z" fill="#EAEAEA"/>
<path d="M94.5909 48.8057H63.7031V113.235H94.5909V48.8057Z" fill="#EAEAEA"/>
<path d="M95.4695 47.6973H62.8262V49.5184H95.4695V47.6973Z" fill="#EAEAEA"/>
<path d="M93.5534 45.3662H64.7422V54.022H93.5534V45.3662Z" fill="#EAEAEA"/>
<path d="M78.3565 41.8262H66.9473V51.2834H78.3565V41.8262Z" fill="#EAEAEA"/>
<path d="M73.5498 44.4891H66.9473V39.5107H71.6825L73.5498 44.4891Z" fill="#EAEAEA"/>
<path d="M70.2496 35.3799H69.6094V46.469H70.2496V35.3799Z" fill="#EAEAEA"/>
<path d="M70.5036 34.8055C70.5036 35.1227 70.2463 35.38 69.9285 35.38C69.6113 35.38 69.3535 35.1227 69.3535 34.8055C69.3535 34.4883 69.6108 34.2305 69.9285 34.2305C70.2463 34.2309 70.5036 34.4883 70.5036 34.8055Z" fill="#EAEAEA"/>
<path d="M350.374 118.14H316.563L312.344 23.4111L350.374 31.3055V118.14Z" fill="#EAEAEA"/>
<path d="M202.863 64.0419V32.3717H197.56V23.8886H195.666V11.4463H185.229V2.30248H184.3V11.4463H182.255V0H181.327V11.4463H174.728V32.3717H171.32V64.0419H168.398V121.727H204.917V64.0419H202.863Z" fill="#EAEAEA"/>
<path d="M424.512 116.968H20.5332V126.576H424.512V116.968Z" fill="black"/>
<path d="M258.328 124.22H240.439L247.41 88.3984H258.328V124.22Z" fill="#9B9B9B"/>
<path d="M430.2 125.618H6.04102V140.768H430.2V125.618Z" fill="#9B9B9B"/>
<path d="M243.668 57.9337V42.0603H237.925V36.017H234.852V30.9402H233.774V22.2383H233.495V30.9402H232.416V36.017H229.343V42.0603H223.643V57.9337H222.459V86.7525H213.621V119.605H222.459H231.297H244.809V57.9337H243.668Z" fill="#9B9B9B"/>
<path d="M276.68 76.1699H248.878V76.6755H250.136V123.686H275.422V76.6755H276.68V76.1699Z" fill="#9B9B9B"/>
<path d="M149.903 87.8779H125.254V127.039H149.903V87.8779Z" fill="#9B9B9B"/>
<path d="M121.54 107.942H79.1465V127.039H121.54V107.942Z" fill="#9B9B9B"/>
<path d="M111.176 65.2754H101.869V112.172H111.176V65.2754Z" fill="#9B9B9B"/>
<path d="M104.409 52.7646H103.926V78.2675H104.409V52.7646Z" fill="#9B9B9B"/>
<path d="M105.979 54.7012H105.496V80.204H105.979V54.7012Z" fill="#9B9B9B"/>
<path d="M108.276 62.374H102.588V68.6589H108.276V62.374Z" fill="#9B9B9B"/>
<path d="M136.075 94.8877H119.879V127.038H136.075V94.8877Z" fill="#9B9B9B"/>
<path d="M184.301 60.8662H153.898V127.039H184.301V60.8662Z" fill="#9B9B9B"/>
<path d="M181.313 58.5908H156.885V69.6124H181.313V58.5908Z" fill="#9B9B9B"/>
<path d="M186.657 62.248H151.541V63.0219H186.657V62.248Z" fill="#9B9B9B"/>
<path d="M162.716 93.6191H148.391V127.039H162.716V93.6191Z" fill="#9B9B9B"/>
<path d="M62.227 92.3477H45.7891V127.036H62.227V92.3477Z" fill="#9B9B9B"/>
<path d="M83.8601 82.9219H51.1055V127.038H83.8601V82.9219Z" fill="#9B9B9B"/>
<path d="M84.7071 81.2275H49.1953V82.9198H84.7071V81.2275Z" fill="#9B9B9B"/>
<path d="M66.9513 76.6357H52.5566V85.5798H66.9513V76.6357Z" fill="#9B9B9B"/>
<path d="M74.0695 76.6357H71.6523V82.0749H74.0695V76.6357Z" fill="#9B9B9B"/>
<path d="M79.1475 76.6357H76.4883V82.0749H79.1475V76.6357Z" fill="#9B9B9B"/>
<path d="M54.0065 113.622H36.8438V127.038H54.0065V113.622Z" fill="#9B9B9B"/>
<path d="M38.4883 107.942H30.3613V127.039H38.4883V107.942Z" fill="#9B9B9B"/>
<path d="M34.4252 120.329H20.5352V127.037H34.4252V120.329Z" fill="#9B9B9B"/>
<path d="M352.466 112.171H181.314V127.037H352.466V112.171Z" fill="#9B9B9B"/>
<path d="M338.799 71.02C337.721 71.02 336.838 71.849 336.75 72.9039L334.342 72.8255C334.348 72.5895 334.352 72.3531 334.352 72.1163C334.352 69.1184 333.834 66.2 332.842 63.4628L334.855 62.7218C335.171 63.4514 335.897 63.9618 336.742 63.9618C337.878 63.9618 338.799 63.041 338.799 61.9052C338.799 60.7694 337.878 59.8486 336.742 59.8486C335.607 59.8486 334.686 60.7694 334.686 61.9052C334.686 62.1149 334.717 62.3171 334.776 62.5078L332.764 63.2483C331.618 60.1734 329.87 57.3321 327.58 54.8707L329.154 53.3954C329.524 53.7483 330.023 53.9652 330.575 53.9652C331.71 53.9652 332.631 53.0443 332.631 51.9086C332.631 50.7728 331.71 49.852 330.575 49.852C329.439 49.852 328.518 50.7728 328.518 51.9086C328.518 52.4113 328.699 52.8717 328.998 53.2294L327.424 54.7052C327.261 54.534 327.097 54.3642 326.929 54.1968C324.545 51.8125 321.769 49.9618 318.747 48.7048L319.613 46.5959C319.809 46.6582 320.019 46.692 320.236 46.692C321.371 46.692 322.292 45.7711 322.292 44.6354C322.292 43.4996 321.371 42.5788 320.236 42.5788C319.1 42.5788 318.179 43.4996 318.179 44.6354C318.179 45.4734 318.68 46.194 319.399 46.5145L318.535 48.6187C315.831 47.5229 312.934 46.8993 309.946 46.7914L310.04 43.9086C310.062 43.9091 310.083 43.91 310.105 43.91C311.241 43.91 312.161 42.9892 312.161 41.8535C312.161 40.7177 311.241 39.7969 310.105 39.7969C308.969 39.7969 308.048 40.7177 308.048 41.8535C308.048 42.8898 308.815 43.7464 309.812 43.8891L309.718 46.7842C309.482 46.7776 309.245 46.7742 309.009 46.7742C306.132 46.7742 303.328 47.2508 300.688 48.1654L299.858 45.8125C300.606 45.5048 301.133 44.769 301.133 43.91C301.133 42.7743 300.212 41.8535 299.076 41.8535C297.94 41.8535 297.019 42.7743 297.019 43.91C297.019 45.0458 297.94 45.9666 299.076 45.9666C299.273 45.9666 299.462 45.9386 299.642 45.8872L300.472 48.2406C297.269 49.383 294.312 51.1737 291.763 53.5457L290.26 51.9419C290.596 51.5756 290.801 51.0877 290.801 50.5512C290.801 49.4154 289.88 48.4946 288.745 48.4946C287.609 48.4946 286.688 49.4154 286.688 50.5512C286.688 51.6869 287.608 52.6077 288.745 52.6077C289.262 52.6077 289.734 52.4161 290.096 52.1007L291.597 53.7021C291.425 53.8643 291.256 54.0289 291.088 54.1963C288.967 56.3171 287.269 58.7475 286.035 61.3858L284.124 60.5035C284.193 60.2976 284.231 60.0774 284.231 59.8481C284.231 58.7123 283.31 57.7915 282.174 57.7915C281.038 57.7915 280.117 58.7123 280.117 59.8481C280.117 60.9839 281.038 61.9047 282.174 61.9047C283 61.9047 283.712 61.4177 284.039 60.7157L285.938 61.5922C284.574 64.5763 283.802 67.82 283.681 71.1788L281.229 71.0989C281.199 69.9893 280.291 69.0994 279.174 69.0994C278.038 69.0994 277.117 70.0202 277.117 71.156C277.117 72.2918 278.038 73.2126 279.174 73.2126C280.252 73.2126 281.136 72.3826 281.223 71.3272L283.674 71.4071C283.667 71.643 283.664 71.8794 283.664 72.1163C283.664 75.1141 284.181 78.0325 285.173 80.7697L283.16 81.5108C282.844 80.7812 282.118 80.2708 281.273 80.2708C280.137 80.2708 279.216 81.1916 279.216 82.3274C279.216 83.4632 280.137 84.384 281.273 84.384C282.408 84.384 283.33 83.4632 283.33 82.3274C283.33 82.1177 283.298 81.9155 283.24 81.7248L285.252 80.9838C286.398 84.0587 288.146 86.9 290.436 89.3614L288.861 90.8367C288.492 90.4843 287.992 90.267 287.441 90.267C286.305 90.267 285.384 91.1878 285.384 92.3235C285.384 93.4593 286.305 94.3801 287.441 94.3801C288.577 94.3801 289.498 93.4593 289.498 92.3235C289.498 91.8208 289.317 91.3604 289.018 91.0027L290.592 89.5274C290.755 89.6986 290.919 89.8684 291.087 90.0358C292.692 91.6415 294.476 93.0051 296.393 94.1085L283.991 116.967H281.765V117.621H280.675V118.919H337.339V117.621H336.249V116.967H334.023L321.621 94.1085C323.273 93.1573 324.826 92.013 326.252 90.6869L328.262 92.8315C327.83 93.2087 327.557 93.7623 327.557 94.3806C327.557 95.5164 328.478 96.4372 329.614 96.4372C330.75 96.4372 331.671 95.5164 331.671 94.3806C331.671 93.2448 330.75 92.324 329.614 92.324C329.178 92.324 328.775 92.4596 328.442 92.6907L326.419 90.5309C326.59 90.3687 326.76 90.2042 326.927 90.0367C329.048 87.916 330.746 85.4855 331.981 82.8473L334.219 83.8803C334.178 84.0415 334.157 84.2104 334.157 84.384C334.157 85.5198 335.077 86.4406 336.213 86.4406C337.349 86.4406 338.27 85.5198 338.27 84.384C338.27 83.2482 337.349 82.3274 336.213 82.3274C335.332 82.3274 334.58 82.8815 334.288 83.6606L332.077 82.6399C333.44 79.6558 334.213 76.4121 334.334 73.0533L336.743 73.1317C336.773 74.2418 337.681 75.1327 338.799 75.1327C339.934 75.1327 340.856 74.2119 340.856 73.0761C340.856 71.9403 339.935 71.02 338.799 71.02ZM333.666 72.1168C333.666 72.346 333.662 72.5753 333.656 72.8036L326.56 72.5729C326.564 72.4212 326.566 72.269 326.566 72.1168C326.566 70.0255 326.198 68.0188 325.524 66.1572L332.198 63.7002C333.162 66.3627 333.666 69.2007 333.666 72.1168ZM326.217 72.5619L310.388 72.0473C310.383 71.9441 310.366 71.8438 310.34 71.7477L325.202 66.2757C325.862 68.1001 326.223 70.0668 326.223 72.1168C326.223 72.2656 326.221 72.414 326.217 72.5619ZM291.798 71.6716L307.627 72.1862C307.632 72.2894 307.649 72.3898 307.675 72.4858L292.813 77.9579C292.153 76.1334 291.792 74.1667 291.792 72.1168C291.792 71.9679 291.794 71.8195 291.798 71.6716ZM310.091 71.2578L321.641 60.435C323.139 62.054 324.331 63.9603 325.123 66.0616L310.261 71.5332C310.215 71.4347 310.158 71.3425 310.091 71.2578ZM309.935 71.0909C309.846 71.01 309.745 70.9406 309.637 70.8854L315.653 56.2358C317.87 57.167 319.853 58.5497 321.486 60.2676L309.935 71.0909ZM309.426 70.7983C309.342 70.7722 309.256 70.7536 309.167 70.7432L309.682 54.9155C311.711 54.9939 313.651 55.4248 315.442 56.1492L309.426 70.7983ZM308.938 70.7356C308.842 70.7403 308.747 70.7551 308.657 70.7788L303.392 55.842C305.153 55.2327 307.042 54.9007 309.008 54.9007C309.156 54.9007 309.305 54.9026 309.453 54.9064L308.938 70.7356ZM308.442 70.8549C308.336 70.902 308.238 70.9624 308.149 71.0333L297.326 59.4833C299.002 57.9318 300.987 56.709 303.177 55.9185L308.442 70.8549ZM307.982 71.1893C307.914 71.2645 307.855 71.3472 307.805 71.4357L293.428 64.7989C294.346 62.8526 295.616 61.1047 297.159 59.6393L307.982 71.1893ZM307.708 71.6426C307.672 71.7425 307.647 71.848 307.634 71.9574L291.806 71.4428C291.895 69.1555 292.431 66.9805 293.331 65.0048L307.708 71.6426ZM307.754 72.6999C307.791 72.7793 307.835 72.8549 307.887 72.9253L307.792 73.0989L296.374 83.798C294.876 82.179 293.684 80.2727 292.893 78.1714L307.754 72.6999ZM307.447 73.7358L300.278 86.949C298.893 86.1309 297.631 85.125 296.53 83.9654L307.447 73.7358ZM308.226 73.2573C308.275 73.2906 308.326 73.3206 308.378 73.3477L302.362 87.9973C301.783 87.7538 301.22 87.4793 300.674 87.1764L308.226 73.2573ZM308.59 73.4352C308.673 73.4613 308.759 73.4799 308.849 73.4904L308.334 89.3181C306.305 89.2396 304.365 88.8087 302.574 88.0843L308.59 73.4352ZM309.008 89.3324C308.859 89.3324 308.71 89.3305 308.562 89.3267L309.077 73.4975C309.174 73.4927 309.268 73.478 309.358 73.4542L314.623 88.3911C312.862 89.0004 310.973 89.3324 309.008 89.3324ZM309.574 73.3781C309.649 73.3439 309.721 73.3039 309.789 73.2573L317.34 87.1764C316.543 87.6196 315.707 88.0016 314.838 88.315L309.574 73.3781ZM310.844 74.2438L320.689 84.7507C319.789 85.584 318.8 86.3221 317.738 86.9495L310.844 74.2438ZM310.414 73.4499L310.129 72.9253C310.159 72.8844 310.186 72.8421 310.211 72.7979L324.588 79.4347C323.67 81.3809 322.399 83.1288 320.856 84.5942L310.414 73.4499ZM310.307 72.591C310.344 72.4906 310.368 72.385 310.381 72.2761L326.209 72.7907C326.12 75.0785 325.584 77.253 324.685 79.2287L310.307 72.591ZM302.232 88.3145L299.53 94.8947C298.706 94.5518 297.901 94.1637 297.118 93.7319L300.511 87.4779C301.067 87.7866 301.641 88.0667 302.232 88.3145ZM302.444 88.4011C304.272 89.1407 306.252 89.5806 308.323 89.6605L308.092 96.7578C305.187 96.6526 302.371 96.0462 299.742 94.9808L302.444 88.4011ZM308.551 89.6691C308.703 89.6729 308.855 89.6748 309.008 89.6748C311.013 89.6748 312.94 89.3362 314.736 88.714L317.101 95.4213C314.532 96.3107 311.806 96.7739 309.008 96.7739C308.778 96.7739 308.55 96.7706 308.321 96.7644L308.551 89.6691ZM314.952 88.6384C315.838 88.3188 316.69 87.9293 317.504 87.4779L320.897 93.7319C319.748 94.3663 318.551 94.9062 317.316 95.3466L314.952 88.6384ZM332.119 63.4857L325.445 65.9432C324.637 63.7986 323.42 61.8533 321.891 60.201L327.079 55.3402C329.305 57.7335 331.005 60.4959 332.119 63.4857ZM326.443 54.681C326.606 54.8432 326.765 55.0077 326.922 55.1737L321.736 60.0341C320.07 58.28 318.046 56.8693 315.783 55.919L318.485 49.3388C321.425 50.5616 324.124 52.3618 326.443 54.681ZM318.274 49.2522L315.571 55.8324C313.743 55.0928 311.763 54.6529 309.692 54.573L309.923 47.4753C312.828 47.5804 315.644 48.1868 318.274 49.2522ZM309.008 47.4587C309.237 47.4587 309.466 47.462 309.694 47.4682L309.464 54.564C309.312 54.5602 309.16 54.5583 309.008 54.5583C307.002 54.5583 305.075 54.8969 303.279 55.519L300.914 48.8118C303.483 47.9219 306.21 47.4587 309.008 47.4587ZM300.699 48.8869L303.063 55.5946C300.828 56.4013 298.803 57.6493 297.092 59.2327L292.231 54.0451C294.71 51.7392 297.586 49.9985 300.699 48.8869ZM291.572 54.681C291.734 54.5188 291.899 54.3594 292.065 54.202L296.925 59.3887C295.351 60.884 294.053 62.6681 293.116 64.6547L286.657 61.6731C287.857 59.1071 289.509 56.7433 291.572 54.681ZM286.561 61.8804L293.02 64.8621C292.101 66.8783 291.554 69.0975 291.464 71.4323L284.367 71.2017C284.485 67.9361 285.236 64.7817 286.561 61.8804ZM284.349 72.1168C284.349 71.8875 284.353 71.6583 284.359 71.43L291.455 71.6607C291.451 71.8124 291.449 71.9641 291.449 72.1168C291.449 74.2081 291.817 76.2147 292.491 78.0763L285.817 80.5334C284.853 77.8708 284.349 75.0323 284.349 72.1168ZM285.896 80.7479L292.571 78.2903C293.379 80.4349 294.595 82.3802 296.124 84.0325L290.936 88.8934C288.71 86.5 287.011 83.7376 285.896 80.7479ZM291.572 89.5526C291.41 89.3904 291.25 89.2258 291.093 89.0603L296.279 84.1999C297.406 85.3861 298.697 86.4149 300.114 87.251L296.72 93.5074C294.861 92.4348 293.13 91.1112 291.572 89.5526ZM333.504 116.969H284.511L296.791 94.3349C297.596 94.7787 298.423 95.1773 299.269 95.5297L298.403 97.6386C298.207 97.5763 297.997 97.5425 297.78 97.5425C296.644 97.5425 295.723 98.4633 295.723 99.5991C295.723 100.735 296.644 101.656 297.78 101.656C298.916 101.656 299.837 100.735 299.837 99.5991C299.837 98.7611 299.336 98.0405 298.617 97.7199L299.481 95.6158C302.185 96.7116 305.082 97.3352 308.07 97.4431L308 99.6001C306.886 99.6253 305.991 100.536 305.991 101.656C305.991 102.791 306.912 103.712 308.048 103.712C309.185 103.712 310.105 102.791 310.105 101.656C310.105 100.581 309.28 99.699 308.229 99.6072L308.299 97.4503C308.535 97.4569 308.771 97.4602 309.008 97.4602C311.885 97.4602 314.688 96.9837 317.329 96.0691L318.068 98.1661C317.369 98.4943 316.883 99.2048 316.883 100.029C316.883 101.165 317.804 102.086 318.94 102.086C320.076 102.086 320.997 101.165 320.997 100.029C320.997 98.8933 320.076 97.9725 318.94 97.9725C318.709 97.9725 318.487 98.011 318.28 98.0814L317.545 95.9939C318.813 95.5411 320.043 94.987 321.224 94.3354L333.504 116.969ZM321.295 93.5069L317.901 87.2506C318.989 86.6089 320.002 85.8532 320.924 85.0004L325.785 90.188C324.402 91.4736 322.896 92.5837 321.295 93.5069ZM326.443 89.5526C326.281 89.7148 326.117 89.8741 325.951 90.0315L321.09 84.8449C322.665 83.3495 323.962 81.5655 324.899 79.5788L331.358 82.5605C330.158 85.126 328.506 87.4898 326.443 89.5526ZM331.455 82.3531L324.996 79.3714C325.914 77.3553 326.461 75.1355 326.551 72.8012L333.649 73.0319C333.531 76.2975 332.78 79.4518 331.455 82.3531Z" fill="#D3D3ED"/>
<path d="M370.193 88.3145H343.764V127.039H370.193V88.3145Z" fill="#9B9B9B"/>
<path d="M392.755 103.369H366.325V126.819H392.755V103.369Z" fill="#9B9B9B"/>
<path d="M278.657 99.9268H263.831V119.606H278.657V99.9268Z" fill="#9B9B9B"/>
<path d="M375.672 51.4873H356.979V127.038H375.672V51.4873Z" fill="#9B9B9B"/>
<path d="M406.453 127.038H381.796V82.9219H400.49L406.453 127.038Z" fill="#9B9B9B"/>
<path d="M417.25 116.969H395.655V127.04H417.25V116.969Z" fill="#9B9B9B"/>
<path d="M371.481 35.7041H370.837V56.2348H371.481V35.7041Z" fill="#9B9B9B"/>
<path d="M373.658 40.1094H373.014V60.6401H373.658V40.1094Z" fill="#9B9B9B"/>
<path d="M369.508 42.9443H368.863V63.475H369.508V42.9443Z" fill="#9B9B9B"/>
<path d="M391.586 79.3545H382.763V86.3043H391.586V79.3545Z" fill="#9B9B9B"/>
<path d="M390.619 76.8789H383.729V80.7852H390.619V76.8789Z" fill="#9B9B9B"/>
<path d="M396.783 81.3936H395.091V84.1997H396.783V81.3936Z" fill="#9B9B9B"/>
<path d="M399.799 78.8301H397.382V84.1965H399.799V78.8301Z" fill="#9B9B9B"/>
<path d="M286.166 68.5293H263.755V140.766H286.166V68.5293Z" fill="black"/>
<path d="M287.84 68.957H262.08V69.689H287.84V68.957Z" fill="black"/>
<path d="M287.143 79.1035H262.777V79.8331H287.143V79.1035Z" fill="black"/>
<path d="M287.143 88.9307H262.777V89.6603H287.143V88.9307Z" fill="black"/>
<path d="M287.143 98.7578H262.777V99.4874H287.143V98.7578Z" fill="black"/>
<path d="M287.143 108.583H262.777V109.313H287.143V108.583Z" fill="black"/>
<path d="M287.143 118.41H262.777V119.14H287.143V118.41Z" fill="black"/>
<path d="M287.143 128.237H262.777V128.967H287.143V128.237Z" fill="black"/>
<path d="M288.692 66.9609H261.229V68.9567H288.692V66.9609Z" fill="black"/>
<path opacity="0.29" d="M268.1 72.0615H265.771V77.8322H268.1V72.0615Z" fill="black"/>
<path d="M273.309 72.0615H270.98V77.8322H273.309V72.0615Z" fill="black"/>
<path d="M278.517 72.0615H276.188V77.8322H278.517V72.0615Z" fill="black"/>
<path d="M283.725 72.0615H281.396V77.8322H283.725V72.0615Z" fill="black"/>
<path d="M268.1 81.4971H265.771V87.2678H268.1V81.4971Z" fill="black"/>
<path opacity="0.29" d="M273.309 81.4971H270.98V87.2678H273.309V81.4971Z" fill="black"/>
<path d="M278.517 81.4971H276.188V87.2678H278.517V81.4971Z" fill="black"/>
<path d="M283.725 81.4971H281.396V87.2678H283.725V81.4971Z" fill="black"/>
<path d="M268.1 91.3223H265.771V97.093H268.1V91.3223Z" fill="black"/>
<path d="M273.309 91.3223H270.98V97.093H273.309V91.3223Z" fill="black"/>
<path d="M278.517 91.3223H276.188V97.093H278.517V91.3223Z" fill="black"/>
<path opacity="0.29" d="M283.725 91.3223H281.396V97.093H283.725V91.3223Z" fill="black"/>
<path d="M268.1 101.149H265.771V106.92H268.1V101.149Z" fill="black"/>
<path opacity="0.29" d="M273.309 101.149H270.98V106.92H273.309V101.149Z" fill="black"/>
<path opacity="0.29" d="M278.517 101.149H276.188V106.92H278.517V101.149Z" fill="black"/>
<path d="M283.725 101.149H281.396V106.92H283.725V101.149Z" fill="black"/>
<path opacity="0.29" d="M268.1 110.976H265.771V116.746H268.1V110.976Z" fill="black"/>
<path d="M273.309 110.976H270.98V116.746H273.309V110.976Z" fill="black"/>
<path d="M278.517 110.976H276.188V116.746H278.517V110.976Z" fill="black"/>
<path d="M283.725 110.976H281.396V116.746H283.725V110.976Z" fill="black"/>
<path d="M268.1 120.803H265.771V126.573H268.1V120.803Z" fill="black"/>
<path d="M273.309 120.803H270.98V126.573H273.309V120.803Z" fill="black"/>
<path opacity="0.29" d="M278.517 120.803H276.188V126.573H278.517V120.803Z" fill="black"/>
<path d="M283.725 120.803H281.396V126.573H283.725V120.803Z" fill="black"/>
<path d="M268.1 130.63H265.771V136.401H268.1V130.63Z" fill="black"/>
<path opacity="0.29" d="M273.309 130.63H270.98V136.401H273.309V130.63Z" fill="black"/>
<path d="M278.517 130.63H276.188V136.401H278.517V130.63Z" fill="black"/>
<path opacity="0.29" d="M283.725 130.63H281.396V136.401H283.725V130.63Z" fill="black"/>
<path d="M272.791 64.207H265.169V67.9587H272.791V64.207Z" fill="black"/>
<path d="M273.309 64.0996H264.652V64.7408H273.309V64.0996Z" fill="black"/>
<path d="M231.635 140.764H201.781V72.1294L231.635 64.8271V140.764Z" fill="black"/>
<path d="M203.092 70.9219H200.469V140.765H203.092V70.9219Z" fill="black"/>
<path d="M210.555 68.9521H207.932V140.763H210.555V68.9521Z" fill="black"/>
<path d="M218.019 66.9092H215.396V140.765H218.019V66.9092Z" fill="black"/>
<path d="M225.481 65.2441H222.858V140.765H225.481V65.2441Z" fill="black"/>
<path d="M232.945 63.4727H230.322V140.765H232.945V63.4727Z" fill="black"/>
<path opacity="0.29" d="M207.253 76.7822H203.771V82.0863H207.253V76.7822Z" fill="black"/>
<path opacity="0.29" d="M214.716 76.7822H211.234V82.0863H214.716V76.7822Z" fill="black"/>
<path d="M222.18 76.7822H218.698V82.0863H222.18V76.7822Z" fill="black"/>
<path opacity="0.29" d="M229.643 76.7822H226.161V82.0863H229.643V76.7822Z" fill="black"/>
<path d="M207.253 86.0186H203.771V91.3227H207.253V86.0186Z" fill="black"/>
<path d="M214.716 86.0186H211.234V91.3227H214.716V86.0186Z" fill="black"/>
<path opacity="0.29" d="M222.18 86.0186H218.698V91.3227H222.18V86.0186Z" fill="black"/>
<path opacity="0.29" d="M229.643 86.0186H226.161V91.3227H229.643V86.0186Z" fill="black"/>
<path opacity="0.29" d="M207.253 95.2549H203.771V100.559H207.253V95.2549Z" fill="black"/>
<path opacity="0.29" d="M214.716 95.2549H211.234V100.559H214.716V95.2549Z" fill="black"/>
<path opacity="0.29" d="M222.18 95.2549H218.698V100.559H222.18V95.2549Z" fill="black"/>
<path d="M229.643 95.2549H226.161V100.559H229.643V95.2549Z" fill="black"/>
<path opacity="0.29" d="M207.253 104.489H203.771V109.793H207.253V104.489Z" fill="black"/>
<path d="M214.716 104.489H211.234V109.793H214.716V104.489Z" fill="black"/>
<path opacity="0.29" d="M222.18 104.489H218.698V109.793H222.18V104.489Z" fill="black"/>
<path opacity="0.29" d="M229.643 104.489H226.161V109.793H229.643V104.489Z" fill="black"/>
<path opacity="0.29" d="M207.253 113.727H203.771V119.031H207.253V113.727Z" fill="black"/>
<path opacity="0.29" d="M214.716 113.727H211.234V119.031H214.716V113.727Z" fill="black"/>
<path d="M222.18 113.727H218.698V119.031H222.18V113.727Z" fill="black"/>
<path opacity="0.29" d="M229.643 113.727H226.161V119.031H229.643V113.727Z" fill="black"/>
<path d="M207.253 122.964H203.771V128.268H207.253V122.964Z" fill="black"/>
<path d="M214.716 122.964H211.234V128.268H214.716V122.964Z" fill="black"/>
<path opacity="0.29" d="M222.18 122.964H218.698V128.268H222.18V122.964Z" fill="black"/>
<path opacity="0.29" d="M229.643 122.964H226.161V128.268H229.643V122.964Z" fill="black"/>
<path opacity="0.29" d="M207.253 132.197H203.771V137.501H207.253V132.197Z" fill="black"/>
<path d="M214.716 132.197H211.234V137.501H214.716V132.197Z" fill="black"/>
<path opacity="0.29" d="M222.18 132.197H218.698V137.501H222.18V132.197Z" fill="black"/>
<path d="M229.643 132.197H226.161V137.501H229.643V132.197Z" fill="black"/>
<path d="M116.621 75.418V76.1304H115.911V78.1613H128.402V140.765H107.904V81.4274V78.1613V76.1304H107.16V75.418H116.621Z" fill="black"/>
<path d="M169.099 103.854H151.541V140.764H169.099V103.854Z" fill="black"/>
<path d="M89.2881 95.3916H75.0156V140.763H89.2881V95.3916Z" fill="black"/>
<path d="M102.014 104.846H86.4609V140.764H102.014V104.846Z" fill="black"/>
<path d="M86.4609 93.5723H80.1504V99.002H86.4609V93.5723Z" fill="black"/>
<path d="M104.107 104.254H87.5273V105.582H104.107V104.254Z" fill="black"/>
<path d="M117.781 120.252H100.344V140.765H117.781V120.252Z" fill="black"/>
<path d="M58.1688 103.567H43.9844V140.765H58.1688V103.567Z" fill="black"/>
<path d="M50.3363 122.105H31.6758V140.766H50.3363V122.105Z" fill="black"/>
<path d="M22.7992 119.053H11.127V140.763H22.7992V119.053Z" fill="black"/>
<path d="M48.1226 133.963H20.5352V140.763H48.1226V133.963Z" fill="black"/>
<path d="M14.6998 131.765H0.560547V140.763H14.6998V131.765Z" fill="black"/>
<path d="M80.1503 127.035H58.1699V140.764H80.1503V127.035Z" fill="black"/>
<path d="M156.885 134.851H122.646V140.765H156.885V134.851Z" fill="black"/>
<path d="M217.588 134.851H183.35V140.765H217.588V134.851Z" fill="black"/>
<path d="M155.552 117.488H142.539L137.035 137.808H155.552V117.488Z" fill="black"/>
<path d="M161.929 87.9219H161.566V110.463H161.929V87.9219Z" fill="black"/>
<path d="M163.862 95.5508H163.379V108.852H163.862V95.5508Z" fill="black"/>
<path d="M167.373 97.9062H160.789V104.49H167.373V97.9062Z" fill="black"/>
<path d="M168.398 97.3965H159.678V97.9863H168.398V97.3965Z" fill="black"/>
<path d="M187.18 121.727H165.906V140.765H187.18V121.727Z" fill="black"/>
<path d="M196.779 100.768H183.111V137.502H196.779V100.768Z" fill="black"/>
<path d="M258.328 107.674H236.491V140.764H258.328V107.674Z" fill="black"/>
<path d="M254.54 128.572H229.644V140.765H254.54V128.572Z" fill="black"/>
<path d="M273.309 136.401H257.119V140.766H273.309V136.401Z" fill="black"/>
<path d="M308.378 128.572H282.056V140.765H308.378V128.572Z" fill="black"/>
<path d="M292.542 140.768H325.297V96.6513H292.542V140.768Z" fill="black"/>
<path d="M291.696 96.6504H327.208V94.9581H291.696V96.6504Z" fill="black"/>
<path d="M309.452 99.3086H323.847V90.3645H309.452V99.3086Z" fill="black"/>
<path d="M302.333 95.8027H304.75V90.3635H302.333V95.8027Z" fill="black"/>
<path d="M297.256 95.8027H299.915V90.3635H297.256V95.8027Z" fill="black"/>
<path d="M347.814 140.766H373.741V76.3361H347.814V140.766Z" fill="black"/>
<path d="M347.078 77.0479H374.479V75.2267H347.078V77.0479Z" fill="black"/>
<path d="M348.686 81.5508H372.87V72.8949H348.686V81.5508Z" fill="black"/>
<path d="M361.442 78.8105H371.019V69.3533H361.442V78.8105Z" fill="black"/>
<path d="M365.477 72.0179H371.018V67.0391H367.043L365.477 72.0179Z" fill="black"/>
<path d="M368.248 73.999H368.785V62.9099H368.248V73.999Z" fill="black"/>
<path d="M368.033 62.3338C368.033 62.651 368.249 62.9084 368.515 62.9084C368.782 62.9084 368.998 62.651 368.998 62.3338C368.998 62.0161 368.782 61.7588 368.515 61.7588C368.249 61.7588 368.033 62.0161 368.033 62.3338Z" fill="black"/>
<path d="M381.796 114.165H370.192V140.763H381.796V114.165Z" fill="black"/>
<path d="M350.373 101.197H337.141V140.763H350.373V101.197Z" fill="black"/>
<path d="M343.763 140.764H325.123V119.603L340.856 126.573L343.763 140.764Z" fill="black"/>
<path d="M406.452 129.271H377.985V140.764H406.452V129.271Z" fill="black"/>
<path d="M412.472 94.8867H395.937V140.766H412.472V94.8867Z" fill="black"/>
<path d="M436.001 132.198H408.604V140.764H436.001V132.198Z" fill="black"/>
<path d="M413.23 94.0469H395.091V95.5508H413.23V94.0469Z" fill="black"/>
<path d="M410.256 87.5723H409.894V96.8179H410.256V87.5723Z" fill="black"/>
<path d="M407.839 88.7422H407.477V96.159H407.839V88.7422Z" fill="black"/>
<path d="M418.596 112.168H411.224V133.188H421.739L418.596 112.168Z" fill="black"/>
</g>
</svg>
