<svg width="24" height="25" viewBox="0 0 24 25" fill="none" xmlns="http://www.w3.org/2000/svg">
<path fill-rule="evenodd" clip-rule="evenodd" d="M11.2931 8.79302C11.4807 8.60555 11.735 8.50024 12.0001 8.50024C12.2653 8.50024 12.5196 8.60555 12.7071 8.79302L18.3641 14.45C18.4597 14.5423 18.5358 14.6526 18.5882 14.7746C18.6407 14.8966 18.6682 15.0278 18.6694 15.1606C18.6705 15.2934 18.6452 15.4251 18.595 15.548C18.5447 15.6709 18.4704 15.7825 18.3765 15.8764C18.2826 15.9703 18.171 16.0446 18.0481 16.0948C17.9252 16.1451 17.7935 16.1704 17.6607 16.1693C17.528 16.1681 17.3967 16.1405 17.2747 16.0881C17.1527 16.0357 17.0424 15.9595 16.9501 15.864L12.0001 10.914L7.05014 15.864C6.86154 16.0462 6.60894 16.147 6.34674 16.1447C6.08455 16.1424 5.83373 16.0372 5.64833 15.8518C5.46292 15.6664 5.35775 15.4156 5.35547 15.1534C5.35319 14.8912 5.45399 14.6386 5.63614 14.45L11.2931 8.79302Z" fill="#0078D4"/>
</svg>
