<svg width="24" height="25" viewBox="0 0 24 25" fill="none" xmlns="http://www.w3.org/2000/svg">
<path fill-rule="evenodd" clip-rule="evenodd" d="M12.7064 16.2073C12.5188 16.3948 12.2645 16.5001 11.9994 16.5001C11.7342 16.5001 11.4799 16.3948 11.2924 16.2073L5.63537 10.5503C5.53986 10.4581 5.46367 10.3478 5.41126 10.2257C5.35886 10.1037 5.33127 9.97252 5.33012 9.83974C5.32896 9.70696 5.35426 9.57529 5.40454 9.45239C5.45483 9.32949 5.52908 9.21784 5.62297 9.12395C5.71686 9.03006 5.82852 8.9558 5.95141 8.90552C6.07431 8.85524 6.20599 8.82994 6.33877 8.83109C6.47155 8.83225 6.60277 8.85983 6.72477 8.91224C6.84677 8.96465 6.95712 9.04083 7.04937 9.13634L11.9994 14.0863L16.9494 9.13634C17.138 8.95418 17.3906 8.85339 17.6528 8.85567C17.915 8.85795 18.1658 8.96312 18.3512 9.14852C18.5366 9.33393 18.6418 9.58474 18.644 9.84694C18.6463 10.1091 18.5455 10.3617 18.3634 10.5503L12.7064 16.2073Z" fill="#0078D4"/>
</svg>
