<svg width="401" height="400" viewBox="0 0 401 400" fill="none" xmlns="http://www.w3.org/2000/svg">
<path d="M200.5 400C310.957 400 400.5 310.457 400.5 200C400.5 89.5431 310.957 0 200.5 0C90.0431 0 0.5 89.5431 0.5 200C0.5 310.457 90.0431 400 200.5 400Z" fill="#EBF6FF"/>
<mask id="mask0_1649_10644" style="mask-type:luminance" maskUnits="userSpaceOnUse" x="0" y="0" width="401" height="400">
<path d="M200.5 400C310.957 400 400.5 310.457 400.5 200C400.5 89.5431 310.957 0 200.5 0C90.0431 0 0.5 89.5431 0.5 200C0.5 310.457 90.0431 400 200.5 400Z" fill="white"/>
</mask>
<g mask="url(#mask0_1649_10644)">
<path d="M188.846 252.841C188.846 252.841 186.095 276.797 177.221 286.179C177.221 286.179 204.15 305.333 221.483 286.983C221.483 286.983 215.452 267.4 214.446 252.841H188.846Z" fill="#FFB89F"/>
<path d="M251.741 199.999C251.741 236.431 229.004 265.961 200.971 265.961C172.933 265.961 150.201 236.431 150.201 199.999C150.201 163.57 172.933 141.826 200.971 141.826C229.004 141.826 251.741 163.57 251.741 199.999Z" fill="#FFB89F"/>
<path d="M179.835 212.26C179.835 215.424 178.591 217.987 177.05 217.987C175.523 217.987 174.283 215.423 174.283 212.26C174.283 209.093 175.523 206.531 177.05 206.531C178.591 206.53 179.835 209.093 179.835 212.26Z" fill="#263C3F"/>
<path d="M228.768 212.26C228.768 215.424 227.53 217.987 225.99 217.987C224.456 217.987 223.217 215.423 223.217 212.26C223.217 209.093 224.457 206.531 225.99 206.531C227.53 206.53 228.768 209.093 228.768 212.26Z" fill="#263C3F"/>
<path d="M201.969 205.799C201.969 205.799 193.545 231.54 200.615 231.54C207.679 231.539 201.969 205.799 201.969 205.799Z" fill="#F9A993"/>
<path d="M185.932 233.964C185.932 233.964 204.245 242.014 216.192 234.105C216.192 234.105 202.778 251.721 185.932 233.964Z" fill="#F49B87"/>
<path d="M219.943 201.108C219.943 201.108 216.972 195.638 218.939 195.057C220.903 194.476 233.024 193.84 233.842 195.69C234.659 197.541 234.16 200.682 233.169 200.847C232.179 201.011 219.943 201.108 219.943 201.108Z" fill="#AD4B07"/>
<path d="M183.657 200.904C183.657 200.904 186.457 195.345 184.473 194.823C182.49 194.303 170.352 194.045 169.595 195.92C168.835 197.795 169.429 200.919 170.424 201.051C171.424 201.187 183.657 200.904 183.657 200.904Z" fill="#AD4B07"/>
<path d="M254.397 156.847C261.805 141.338 169.764 117.767 157.683 154.781C157.683 154.781 140.942 146.494 150.202 209.865C150.202 209.865 160.144 176.905 167.77 170.924C167.77 170.924 215.686 178.802 241.355 167.456C245.315 176.006 251.043 193.255 251.173 209.865C251.173 209.865 254.498 185.121 250.794 161.374C252.914 159.311 253.113 159.524 254.397 156.847Z" fill="#AD4B07"/>
<path d="M157.682 208.451C157.682 213.118 154.8 216.901 151.242 216.901C147.685 216.901 144.803 213.118 144.803 208.451C144.803 203.784 147.685 200 151.242 200C154.801 200 157.682 203.784 157.682 208.451Z" fill="#FFB89F"/>
<path d="M256.191 208.451C256.191 213.118 253.308 216.901 249.751 216.901C246.193 216.901 243.312 213.118 243.312 208.451C243.312 203.784 246.193 200 249.751 200C253.308 200 256.191 203.784 256.191 208.451Z" fill="#FFB89F"/>
<path d="M219.96 279.237C213.356 285.225 202.613 286.309 200.865 286.446C199.119 286.308 188.378 285.225 181.771 279.237L144.805 292.379L154.82 400.783H181.973H201.116H247.969L256.926 293.437L219.96 279.237Z" fill="#448BFF"/>
<path d="M144.805 292.379C144.805 292.379 125.211 296.071 125.211 316.887C125.211 337.704 127.107 400.783 127.107 400.783H154.82L144.805 292.379Z" fill="#0078D4"/>
<path d="M256.733 293.439C256.733 293.439 276.326 297.131 276.326 317.948C276.326 338.764 274.431 400.785 274.431 400.785H247.775L256.733 293.439Z" fill="#0078D4"/>
</g>
<path d="M283.865 65.1644C283.865 39.1384 249.367 18.0391 206.815 18.0391C164.261 18.0391 129.764 39.1384 129.764 65.1644C129.764 91.1913 164.261 112.291 206.815 112.291C222.993 112.291 238 109.234 250.397 104.022C255.46 110.818 260.12 120.875 259.057 134.313C259.057 134.313 273.733 116.52 265.869 95.4221C277.095 87.2353 283.865 76.6861 283.865 65.1644Z" fill="#0078D4"/>
<path d="M277.365 65.1644C277.365 39.1384 242.869 18.0391 200.316 18.0391C157.763 18.0391 123.266 39.1384 123.266 65.1644C123.266 91.1913 157.763 112.291 200.316 112.291C216.495 112.291 231.502 109.234 243.898 104.022C248.962 110.818 253.621 120.875 252.558 134.313C252.558 134.313 267.236 116.52 259.371 95.4221C270.596 87.2353 277.365 76.6861 277.365 65.1644Z" fill="white"/>
<path d="M161.524 55.131C160.588 55.131 159.718 54.975 158.914 54.663C158.122 54.339 157.432 53.889 156.844 53.313C156.256 52.737 155.8 52.065 155.476 51.297C155.152 50.517 154.99 49.665 154.99 48.741C154.99 47.817 155.152 46.971 155.476 46.203C155.8 45.423 156.256 44.745 156.844 44.169C157.444 43.593 158.14 43.149 158.932 42.837C159.724 42.513 160.588 42.351 161.524 42.351C162.412 42.351 163.24 42.495 164.008 42.783C164.788 43.071 165.454 43.509 166.006 44.097L165.43 44.691C164.89 44.163 164.29 43.785 163.63 43.557C162.982 43.317 162.292 43.197 161.56 43.197C160.756 43.197 160.006 43.335 159.31 43.611C158.626 43.887 158.026 44.277 157.51 44.781C157.006 45.285 156.61 45.873 156.322 46.545C156.046 47.217 155.908 47.949 155.908 48.741C155.908 49.533 156.046 50.265 156.322 50.937C156.61 51.609 157.006 52.197 157.51 52.701C158.026 53.205 158.626 53.595 159.31 53.871C160.006 54.147 160.756 54.285 161.56 54.285C162.292 54.285 162.982 54.171 163.63 53.943C164.29 53.703 164.89 53.313 165.43 52.773L166.006 53.367C165.454 53.955 164.788 54.399 164.008 54.699C163.24 54.987 162.412 55.131 161.524 55.131ZM174.163 55.131C173.227 55.131 172.357 54.975 171.553 54.663C170.761 54.339 170.065 53.889 169.465 53.313C168.877 52.725 168.421 52.047 168.097 51.279C167.773 50.499 167.611 49.653 167.611 48.741C167.611 47.829 167.773 46.989 168.097 46.221C168.421 45.441 168.877 44.763 169.465 44.187C170.065 43.599 170.761 43.149 171.553 42.837C172.357 42.513 173.227 42.351 174.163 42.351C175.099 42.351 175.963 42.513 176.755 42.837C177.559 43.149 178.255 43.593 178.843 44.169C179.431 44.745 179.887 45.423 180.211 46.203C180.547 46.971 180.715 47.817 180.715 48.741C180.715 49.665 180.547 50.517 180.211 51.297C179.887 52.065 179.431 52.737 178.843 53.313C178.255 53.889 177.559 54.339 176.755 54.663C175.963 54.975 175.099 55.131 174.163 55.131ZM174.163 54.285C174.967 54.285 175.711 54.147 176.395 53.871C177.079 53.595 177.673 53.205 178.177 52.701C178.681 52.197 179.071 51.609 179.347 50.937C179.635 50.265 179.779 49.533 179.779 48.741C179.779 47.937 179.635 47.205 179.347 46.545C179.071 45.873 178.681 45.285 178.177 44.781C177.673 44.277 177.079 43.887 176.395 43.611C175.711 43.335 174.967 43.197 174.163 43.197C173.359 43.197 172.615 43.335 171.931 43.611C171.247 43.887 170.647 44.277 170.131 44.781C169.627 45.285 169.231 45.873 168.943 46.545C168.667 47.205 168.529 47.937 168.529 48.741C168.529 49.533 168.667 50.265 168.943 50.937C169.231 51.609 169.627 52.197 170.131 52.701C170.647 53.205 171.247 53.595 171.931 53.871C172.615 54.147 173.359 54.285 174.163 54.285ZM183.899 55.041V42.441H184.673L193.655 53.907H193.241V42.441H194.159V55.041H193.403L184.403 43.575H184.817V55.041H183.899ZM200.971 55.041V43.269H196.435V42.441H206.425V43.269H201.889V55.041H200.971ZM205.963 55.041L211.759 42.441H212.677L218.473 55.041H217.483L212.011 43.017H212.407L206.953 55.041H205.963ZM208.087 51.495L208.393 50.721H215.935L216.241 51.495H208.087ZM225.913 55.131C224.977 55.131 224.107 54.975 223.303 54.663C222.511 54.339 221.821 53.889 221.233 53.313C220.645 52.737 220.189 52.065 219.865 51.297C219.541 50.517 219.379 49.665 219.379 48.741C219.379 47.817 219.541 46.971 219.865 46.203C220.189 45.423 220.645 44.745 221.233 44.169C221.833 43.593 222.529 43.149 223.321 42.837C224.113 42.513 224.977 42.351 225.913 42.351C226.801 42.351 227.629 42.495 228.397 42.783C229.177 43.071 229.843 43.509 230.395 44.097L229.819 44.691C229.279 44.163 228.679 43.785 228.019 43.557C227.371 43.317 226.681 43.197 225.949 43.197C225.145 43.197 224.395 43.335 223.699 43.611C223.015 43.887 222.415 44.277 221.899 44.781C221.395 45.285 220.999 45.873 220.711 46.545C220.435 47.217 220.297 47.949 220.297 48.741C220.297 49.533 220.435 50.265 220.711 50.937C220.999 51.609 221.395 52.197 221.899 52.701C222.415 53.205 223.015 53.595 223.699 53.871C224.395 54.147 225.145 54.285 225.949 54.285C226.681 54.285 227.371 54.171 228.019 53.943C228.679 53.703 229.279 53.313 229.819 52.773L230.395 53.367C229.843 53.955 229.177 54.399 228.397 54.699C227.629 54.987 226.801 55.131 225.913 55.131ZM235.723 55.041V43.269H231.187V42.441H241.177V43.269H236.641V55.041H235.723Z" fill="#367DAD"/>
<path d="M188.221 85.4867C185.638 85.4867 183.621 84.7784 182.171 83.3617C180.721 81.9451 179.996 79.9367 179.996 77.3367V67.6367H184.946V77.1867C184.946 78.6867 185.238 79.7617 185.821 80.4117C186.421 81.0617 187.238 81.3867 188.271 81.3867C189.305 81.3867 190.113 81.0617 190.696 80.4117C191.28 79.7617 191.571 78.6867 191.571 77.1867V67.6367H196.446V77.3367C196.446 79.9367 195.721 81.9451 194.271 83.3617C192.821 84.7784 190.805 85.4867 188.221 85.4867ZM205.95 85.4867C204.516 85.4867 203.133 85.3117 201.8 84.9617C200.483 84.5951 199.408 84.1284 198.575 83.5617L200.2 79.9117C200.983 80.4117 201.883 80.8284 202.9 81.1617C203.933 81.4784 204.958 81.6367 205.975 81.6367C206.658 81.6367 207.208 81.5784 207.625 81.4617C208.041 81.3284 208.341 81.1617 208.525 80.9617C208.725 80.7451 208.825 80.4951 208.825 80.2117C208.825 79.8117 208.641 79.4951 208.275 79.2617C207.908 79.0284 207.433 78.8367 206.85 78.6867C206.266 78.5367 205.616 78.3867 204.9 78.2367C204.2 78.0867 203.491 77.8951 202.775 77.6617C202.075 77.4284 201.433 77.1284 200.85 76.7617C200.266 76.3784 199.791 75.8867 199.425 75.2867C199.058 74.6701 198.875 73.8951 198.875 72.9617C198.875 71.9117 199.158 70.9617 199.725 70.1117C200.308 69.2617 201.175 68.5784 202.325 68.0617C203.475 67.5451 204.908 67.2867 206.625 67.2867C207.775 67.2867 208.9 67.4201 210 67.6867C211.116 67.9367 212.108 68.3117 212.975 68.8117L211.45 72.4867C210.616 72.0367 209.791 71.7034 208.975 71.4867C208.158 71.2534 207.366 71.1367 206.6 71.1367C205.916 71.1367 205.366 71.2117 204.95 71.3617C204.533 71.4951 204.233 71.6784 204.05 71.9117C203.866 72.1451 203.775 72.4117 203.775 72.7117C203.775 73.0951 203.95 73.4034 204.3 73.6367C204.666 73.8534 205.141 74.0367 205.725 74.1867C206.325 74.3201 206.975 74.4617 207.675 74.6117C208.391 74.7617 209.1 74.9534 209.8 75.1867C210.516 75.4034 211.166 75.7034 211.75 76.0867C212.333 76.4534 212.8 76.9451 213.15 77.5617C213.516 78.1617 213.7 78.9201 213.7 79.8367C213.7 80.8534 213.408 81.7951 212.825 82.6617C212.258 83.5117 211.4 84.1951 210.25 84.7117C209.116 85.2284 207.683 85.4867 205.95 85.4867ZM216.111 78.7617L215.186 67.6367H220.836L219.886 78.7617H216.111ZM218.011 85.3617C217.178 85.3617 216.495 85.1034 215.961 84.5867C215.428 84.0701 215.161 83.4534 215.161 82.7367C215.161 82.0034 215.428 81.3951 215.961 80.9117C216.495 80.4117 217.178 80.1617 218.011 80.1617C218.845 80.1617 219.52 80.4117 220.036 80.9117C220.57 81.3951 220.836 82.0034 220.836 82.7367C220.836 83.4534 220.57 84.0701 220.036 84.5867C219.52 85.1034 218.845 85.3617 218.011 85.3617Z" fill="#367DAD"/>
<path d="M131.768 178.038C131.768 185.077 128.06 189.63 122.805 189.63C119.942 189.63 117.923 188.504 117.313 185.969L117.218 185.265C115.388 187.94 112.667 189.114 109.803 189.114C104.405 189.114 99.384 184.75 99.384 178.226C99.384 172.171 103.232 167.15 109.24 167.15C113.088 167.15 115.623 169.684 115.952 170.295V167.667H121.443V183.624C121.443 185.36 122.241 185.97 123.368 185.97C125.433 185.97 127.403 182.779 127.403 178.179C127.403 169.168 121.349 162.127 111.399 162.127C102.201 162.127 94.8316 169.355 94.8316 178.366C94.8316 187.237 101.779 193.761 110.789 193.761C113.512 193.761 117.079 192.868 119.706 190.944L121.818 194.558C119.049 196.623 114.403 197.937 110.789 197.937C99.1973 197.937 90.4199 189.582 90.4199 178.366C90.4199 166.915 99.6664 158.045 111.399 158.045C123.085 158.044 131.768 166.492 131.768 178.038ZM105.391 177.991C105.391 181.277 107.364 184.092 110.414 184.092C113.652 184.092 115.577 181.37 115.577 178.038C115.577 174.846 113.559 172.265 110.32 172.265C107.364 172.264 105.391 174.846 105.391 177.991Z" fill="white"/>
<path d="M152.879 200.597C150.559 178.745 162.145 157.137 183.957 151.121C201.697 146.228 224.051 149.046 237.306 162.644C245.417 170.963 249.231 182.782 250.144 194.157C250.315 196.287 250.413 198.461 250.274 200.598C250.173 202.14 252.567 202.13 252.667 200.598C253.93 181.235 244.401 160.761 226.668 152.059C211.181 144.46 190.044 144.724 174.541 152.059C162.858 157.587 155.403 168.605 152.219 180.853C150.584 187.138 149.797 194.105 150.486 200.598C150.647 202.115 153.042 202.132 152.879 200.597Z" fill="#0E3757"/>
<path d="M184.17 245.842C182.233 245.842 180.617 247.108 180.228 248.797C169.883 248.287 160.363 244.423 155.819 234.458C154.018 230.51 153.157 225.68 153.518 221.337C153.647 219.799 151.253 219.81 151.125 221.337C150.685 226.625 152.043 232.214 154.35 236.931C159.276 247.003 170.011 250.763 180.548 251.2C181.2 252.452 182.57 253.321 184.17 253.321C186.398 253.321 188.204 251.647 188.204 249.582C188.205 247.516 186.399 245.842 184.17 245.842Z" fill="#0E3757"/>
<path d="M249.416 195.662C258.97 195.662 260.971 202.041 260.971 209.909C260.971 217.779 258.97 224.158 249.416 224.158V195.662Z" fill="#0E3757"/>
<path d="M247.758 224.621C247.758 225.644 248.588 226.474 249.612 226.474C250.634 226.474 251.464 225.645 251.464 224.621V195.197C251.464 194.173 250.635 193.342 249.612 193.342C248.589 193.342 247.758 194.172 247.758 195.197V224.621Z" fill="#367DAD"/>
<path d="M154.37 195.662C144.816 195.662 142.814 202.041 142.814 209.909C142.814 217.779 144.816 224.158 154.37 224.158V195.662Z" fill="#0E3757"/>
<path d="M156.028 224.621C156.028 225.644 155.199 226.474 154.174 226.474C153.152 226.474 152.322 225.645 152.322 224.621V195.197C152.322 194.173 153.151 193.342 154.174 193.342C155.198 193.342 156.028 194.172 156.028 195.197V224.621Z" fill="#367DAD"/>
<path d="M76.0665 220.517C76.0665 226.956 70.7982 232.223 64.3601 232.223H30.2162C23.7781 232.223 18.5098 226.955 18.5098 220.517V145.532C18.5098 139.094 23.7781 133.825 30.2162 133.825H64.3601C70.7982 133.825 76.0665 139.094 76.0665 145.532V220.517Z" fill="#448BFF"/>
<path d="M69.8807 146.028H24.5664V213.784H69.8807V146.028Z" fill="white"/>
<path d="M57.2876 141.826C57.2876 142.744 56.5439 143.487 55.6259 143.487H38.9517C38.0338 143.487 37.2891 142.744 37.2891 141.826C37.2891 140.907 38.0338 140.164 38.9517 140.164H55.6259C56.5439 140.163 57.2876 140.907 57.2876 141.826Z" fill="#367DAD"/>
<path d="M52.5866 223.069C52.5866 226.033 50.185 228.434 47.2215 228.434C44.259 228.434 41.8574 226.032 41.8574 223.069C41.8574 220.108 44.259 217.705 47.2215 217.705C50.184 217.704 52.5866 220.108 52.5866 223.069Z" fill="#367DAD"/>
<path d="M104.754 91.0605H74.5182C66.0949 91.0605 59.2031 97.9322 59.2031 106.332C59.2031 114.73 66.0949 121.602 74.5182 121.602H87.5714C89.1603 127.539 90.4295 137.217 85.611 146.03C85.611 146.03 94.9006 141.629 96.0358 121.602H104.755C113.178 121.602 120.07 114.73 120.07 106.332C120.069 97.9322 113.176 91.0605 104.754 91.0605Z" fill="#367DAD"/>
<path d="M75.2753 108.736C76.9838 108.736 78.3689 107.351 78.3689 105.642C78.3689 103.934 76.9838 102.549 75.2753 102.549C73.5667 102.549 72.1816 103.934 72.1816 105.642C72.1816 107.351 73.5667 108.736 75.2753 108.736Z" fill="white"/>
<path d="M89.6327 108.736C91.3413 108.736 92.7263 107.351 92.7263 105.642C92.7263 103.934 91.3413 102.549 89.6327 102.549C87.9241 102.549 86.5391 103.934 86.5391 105.642C86.5391 107.351 87.9241 108.736 89.6327 108.736Z" fill="white"/>
<path d="M103.992 108.736C105.701 108.736 107.086 107.351 107.086 105.642C107.086 103.934 105.701 102.549 103.992 102.549C102.284 102.549 100.898 103.934 100.898 105.642C100.898 107.351 102.284 108.736 103.992 108.736Z" fill="white"/>
<path d="M111.537 223.075C94.8115 223.075 81.2051 236.683 81.2051 253.408C81.2051 270.134 94.8115 283.74 111.537 283.74C128.26 283.74 141.869 270.134 141.869 253.408C141.869 236.683 128.26 223.075 111.537 223.075ZM138.325 251.681H130.162C129.916 245.6 128.66 240.24 127.215 235.973C128.315 235.521 129.428 235.005 130.55 234.432C135.022 238.913 137.897 244.969 138.325 251.681ZM119.733 278.995C117.673 279.658 115.505 280.053 113.264 280.196V271.36C116.907 271.546 120.129 272.231 122.754 273.019C121.907 274.991 120.91 276.984 119.733 278.995ZM126.027 274.155C126.644 274.399 127.188 274.636 127.668 274.854C126.772 275.527 125.841 276.154 124.866 276.714C125.28 275.858 125.667 275.005 126.027 274.155ZM100.36 272.959C103.666 271.944 106.841 271.464 109.809 271.345V280.196C107.601 280.056 105.457 279.672 103.426 279.025C102.229 276.985 101.218 274.962 100.36 272.959ZM98.3053 276.774C97.3021 276.202 96.344 275.561 95.4251 274.869C95.987 274.607 96.546 274.36 97.104 274.132C97.4735 275.008 97.8764 275.89 98.3053 276.774ZM103.381 227.804C105.429 227.149 107.586 226.76 109.809 226.619V235.526C106.192 235.343 102.988 234.668 100.378 233.888C101.641 230.804 102.845 228.694 103.381 227.804ZM97.1184 232.761C96.4474 232.497 95.8568 232.241 95.3447 232.007C96.2885 231.293 97.2705 230.628 98.3043 230.043C97.9234 230.852 97.5242 231.764 97.1184 232.761ZM122.771 233.91C119.449 234.94 116.25 235.422 113.263 235.543V226.619C115.52 226.762 117.702 227.166 119.777 227.836C120.326 228.745 121.52 230.851 122.771 233.91ZM124.866 230.1C125.854 230.67 126.803 231.304 127.707 231.99C127.14 232.255 126.577 232.504 126.013 232.736C125.622 231.773 125.235 230.891 124.866 230.1ZM109.809 239.06V251.682H96.433C96.6685 246.073 97.8219 241.133 99.1495 237.188C102.079 238.095 105.697 238.876 109.809 239.06ZM109.809 255.136V267.813C106.459 267.948 102.856 268.509 99.0911 269.71C97.3088 264.598 96.5335 259.688 96.4033 255.135L109.809 255.136ZM113.264 267.82V255.136H126.739C126.611 259.694 125.83 264.612 124.043 269.732C121.092 268.811 117.43 268.008 113.264 267.82ZM113.264 251.681V239.063C116.615 238.928 120.219 238.372 123.988 237.169C125.317 241.116 126.472 246.062 126.71 251.681H113.264ZM92.4846 234.472C93.2752 234.889 94.4306 235.45 95.9018 236.041C94.4679 240.299 93.2245 245.632 92.9785 251.682H84.7457C85.1764 244.987 88.0346 238.949 92.4846 234.472ZM84.7467 255.136H92.946C93.0714 260.058 93.9099 265.373 95.8453 270.908C94.7608 271.355 93.6667 271.86 92.5612 272.424C88.0672 267.938 85.1765 261.865 84.7467 255.136ZM130.544 272.392C129.779 271.99 128.686 271.457 127.297 270.895C129.235 265.365 130.07 260.055 130.194 255.135H138.325C137.897 261.85 135.019 267.908 130.544 272.392Z" fill="#448BFF"/>
<path d="M376.459 195.028H292.408V239.481H376.459V195.028Z" fill="#367DAD"/>
<path d="M366.337 154.619H302.4V240.978H366.337V154.619Z" fill="white"/>
<path d="M334.434 225.316L292.408 195.028V255.606H376.459V195.028L334.434 225.316Z" fill="#448BFF"/>
<path d="M357.811 161.084H311.061V164.129H357.811V161.084Z" fill="#EBF6FF"/>
<path d="M357.811 171.23H311.061V174.275H357.811V171.23Z" fill="#EBF6FF"/>
<path d="M357.811 181.381H311.061V184.426H357.811V181.381Z" fill="#EBF6FF"/>
<path d="M357.811 191.529H311.061V194.575H357.811V191.529Z" fill="#EBF6FF"/>
<path d="M357.811 201.677H311.061V204.721H357.811V201.677Z" fill="#EBF6FF"/>
<path d="M90.8158 300.414C79.5784 300.414 70.4707 309.524 70.4707 320.759C70.4707 325.704 72.2348 330.234 75.1676 333.758L90.8167 355.34L106.467 333.758C109.399 330.234 111.162 325.704 111.162 320.759C111.161 309.525 102.052 300.414 90.8158 300.414ZM90.8158 333.741C83.6455 333.741 77.8334 327.93 77.8334 320.759C77.8334 313.592 83.6464 307.779 90.8158 307.779C97.9842 307.779 103.796 313.591 103.796 320.759C103.796 327.929 97.9842 333.741 90.8158 333.741Z" fill="white"/>
<path d="M266.719 262.206C267.389 261.535 268.236 260.688 269.105 259.823C269.194 259.75 269.286 259.689 269.368 259.606L272.392 256.58C273.621 255.353 273.618 253.335 272.383 252.1L264.92 244.638C263.739 243.452 261.842 243.413 260.601 244.496L260.588 244.481L260.441 244.627L257.415 247.651L254.235 250.832C254.235 250.832 246.304 260.849 265.331 280.121L265.328 280.123C265.394 280.19 265.461 280.253 265.525 280.319C265.59 280.384 265.655 280.45 265.717 280.516L265.723 280.513C284.994 299.541 295.015 291.608 295.015 291.608L298.191 288.429L301.218 285.403L301.362 285.257L301.347 285.24C302.428 284.004 302.387 282.107 301.205 280.923L293.742 273.461C292.507 272.224 290.493 272.221 289.263 273.45L286.236 276.475C286.154 276.559 286.094 276.652 286.023 276.739C285.15 277.607 284.307 278.451 283.636 279.125C281.412 281.348 274.031 274.362 272.737 273.104C271.479 271.812 264.494 264.431 266.719 262.206Z" fill="white"/>
<path d="M296.738 115V114.352L302.066 109.06C302.57 108.556 302.948 108.118 303.2 107.746C303.452 107.362 303.62 107.008 303.704 106.684C303.8 106.36 303.848 106.042 303.848 105.73C303.848 104.938 303.578 104.314 303.038 103.858C302.498 103.39 301.706 103.156 300.662 103.156C299.87 103.156 299.174 103.276 298.574 103.516C297.986 103.756 297.476 104.122 297.044 104.614L296.396 104.038C296.876 103.486 297.482 103.06 298.214 102.76C298.958 102.46 299.798 102.31 300.734 102.31C301.562 102.31 302.276 102.448 302.876 102.724C303.488 102.988 303.956 103.372 304.28 103.876C304.616 104.368 304.784 104.956 304.784 105.64C304.784 106.048 304.724 106.45 304.604 106.846C304.496 107.23 304.292 107.638 303.992 108.07C303.704 108.502 303.284 108.994 302.732 109.546L297.728 114.532L297.422 114.172H305.396V115H296.738ZM306.442 111.508V110.842L313.282 102.4H314.308L307.486 110.842L306.982 110.698H317.17V111.508H306.442ZM313.624 115V111.508L313.642 110.698V107.62H314.524V115H313.624ZM317.559 116.8L323.499 99.844H324.327L318.387 116.8H317.559ZM327.259 115L332.803 102.832L333.127 103.228H325.081L325.549 102.796V105.64H324.649V102.4H333.685V103.048L328.267 115H327.259Z" fill="#367DAD"/>
<path d="M346.896 110.547C346.651 122.656 339.956 133.035 329.115 138.391C317.596 144.079 303.568 140.909 294.552 132.23C285.802 123.808 283.612 110.763 287.587 99.5671C291.487 88.5805 301.953 81.4035 313.213 80.1075L313.707 85.9808L322.928 77.1823L312.382 70.2188L312.913 76.5324C300.57 77.9059 289.938 85.4486 284.779 97.0095C279.058 109.829 282.45 124.833 292.015 134.77C301.572 144.7 316.771 147.218 329.346 142.187C342.228 137.034 350.212 124.183 350.488 110.549C350.533 108.232 346.943 108.235 346.896 110.547Z" fill="#448BFF"/>
<path d="M360.378 296.075V288.945H356.463C355.982 286.47 355.017 284.172 353.656 282.156L356.422 279.391L351.38 274.35L348.615 277.113C346.6 275.755 344.299 274.789 341.828 274.307V270.392H334.698V274.307C332.223 274.789 329.925 275.755 327.908 277.113L325.144 274.35L320.103 279.391L322.866 282.155C321.508 284.171 320.542 286.47 320.059 288.945H316.145V296.075H320.059C320.542 298.547 321.508 300.847 322.866 302.863L320.103 305.628L325.144 310.67L327.908 307.904C329.924 309.264 332.223 310.23 334.698 310.711V314.627H341.828V310.711C344.299 310.23 346.598 309.262 348.615 307.904L351.38 310.67L356.422 305.628L353.656 302.863C355.014 300.847 355.982 298.547 356.463 296.075H360.378ZM338.262 301.498C333.298 301.498 329.274 297.473 329.274 292.508C329.274 287.544 333.297 283.519 338.262 283.519C343.228 283.519 347.249 287.544 347.249 292.508C347.248 297.473 343.227 301.498 338.262 301.498Z" fill="#448BFF"/>
<path d="M288.492 155.457V151.87H286.521C286.279 150.624 285.794 149.467 285.108 148.454L286.5 147.063L283.962 144.526L282.572 145.917C281.558 145.233 280.401 144.747 279.157 144.504V142.534H275.57V144.504C274.325 144.747 273.167 145.233 272.154 145.917L270.763 144.526L268.227 147.063L269.617 148.453C268.934 149.468 268.447 150.624 268.204 151.87H266.234V155.457H268.204C268.447 156.702 268.934 157.859 269.617 158.872L268.227 160.263L270.763 162.801L272.154 161.408C273.168 162.092 274.325 162.579 275.57 162.822V164.793H279.157V162.822C280.401 162.579 281.558 162.092 282.572 161.408L283.962 162.801L286.5 160.263L285.108 158.872C285.792 157.857 286.279 156.702 286.521 155.457H288.492ZM277.363 158.185C274.865 158.185 272.84 156.161 272.84 153.662C272.84 151.164 274.864 149.139 277.363 149.139C279.861 149.139 281.885 151.163 281.885 153.662C281.884 156.161 279.861 158.185 277.363 158.185Z" fill="#367DAD"/>
<path d="M156.12 131.47V127.882H154.149C153.907 126.637 153.422 125.48 152.736 124.467L154.128 123.075L151.59 120.539L150.2 121.93C149.186 121.246 148.028 120.76 146.785 120.517V118.547H143.198V120.517C141.952 120.76 140.795 121.246 139.782 121.93L138.391 120.539L135.855 123.075L137.245 124.466C136.562 125.481 136.075 126.638 135.833 127.882H133.863V131.47H135.833C136.076 132.714 136.563 133.871 137.245 134.885L135.855 136.276L138.391 138.812L139.782 137.421C140.796 138.105 141.953 138.591 143.198 138.834V140.804H146.785V138.834C148.029 138.591 149.186 138.104 150.2 137.421L151.59 138.812L154.128 136.276L152.736 134.885C153.42 133.87 153.907 132.713 154.149 131.47H156.12ZM144.991 134.199C142.493 134.199 140.468 132.174 140.468 129.675C140.468 127.178 142.492 125.152 144.991 125.152C147.489 125.152 149.513 127.177 149.513 129.675C149.512 132.174 147.489 134.199 144.991 134.199Z" fill="#448BFF"/>
<path d="M66.3453 278.903V273.377H63.31C62.9367 271.46 62.1901 269.677 61.1353 268.117L63.2784 265.974L59.3702 262.067L57.2281 264.209C55.6678 263.156 53.8836 262.407 51.9693 262.033V259H46.4444V262.033C44.5261 262.408 42.7439 263.157 41.1817 264.209L39.0405 262.067L35.1342 265.974L37.2745 268.116C36.2225 269.677 35.474 271.46 35.0997 273.377H32.0664V278.903H35.0997C35.475 280.819 36.2235 282.6 37.2745 284.164L35.1342 286.306L39.0405 290.213L41.1817 288.069C42.7439 289.124 44.5261 289.871 46.4444 290.245V293.279H51.9693V290.245C53.8836 289.87 55.6659 289.121 57.2281 288.069L59.3702 290.213L63.2784 286.306L61.1353 284.164C62.1882 282.6 62.9377 280.819 63.31 278.903H66.3453ZM49.2039 283.105C45.356 283.105 42.2385 279.986 42.2385 276.138C42.2385 272.292 45.357 269.174 49.2039 269.174C53.0528 269.174 56.1684 272.292 56.1684 276.138C56.1694 279.987 53.0528 283.105 49.2039 283.105Z" fill="#367DAD"/>
<path d="M288.627 333.58C288.676 325.905 293.09 321.391 300.615 321.391C307.588 321.391 311.801 324.602 311.801 330.319C311.801 337.742 304.226 338.946 304.226 344.567H296.651C296.651 336.942 302.469 336.338 302.469 331.975C302.469 330.17 301.467 329.366 299.66 329.366C297.503 329.366 296.401 330.721 296.401 333.58H288.627ZM305.029 352.49C305.029 355.3 303.074 357.257 300.264 357.257C297.504 357.257 295.598 355.299 295.598 352.49C295.598 349.732 297.504 347.826 300.264 347.826C303.074 347.825 305.029 349.732 305.029 352.49Z" fill="#367DAD"/>
<path d="M84.7207 58.9144C84.7542 53.6067 87.8076 50.4844 93.01 50.4844C97.8323 50.4844 100.745 52.7051 100.745 56.6583C100.745 61.7907 95.5073 62.6235 95.5073 66.5106H90.2686C90.2686 61.2374 94.2916 60.8211 94.2916 57.8031C94.2916 56.5539 93.5986 55.9987 92.3505 55.9987C90.8582 55.9987 90.0963 56.9358 90.0963 58.9134H84.7207V58.9144ZM96.0615 71.9905C96.0615 73.9327 94.7099 75.2861 92.7668 75.2861C90.8592 75.2861 89.5411 73.9327 89.5411 71.9905C89.5411 70.0838 90.8592 68.7657 92.7668 68.7657C94.7099 68.7648 96.0615 70.0828 96.0615 71.9905Z" fill="#448BFF"/>
<path d="M292.203 45.5559C292.237 40.2483 295.29 37.126 300.492 37.126C305.316 37.126 308.228 39.3467 308.228 43.2998C308.228 48.4323 302.99 49.2651 302.99 53.1522H297.752C297.752 47.879 301.775 47.4627 301.775 44.4446C301.775 43.1955 301.083 42.6403 299.835 42.6403C298.343 42.6403 297.581 43.5774 297.581 45.555L292.203 45.5559ZM303.545 58.6321C303.545 60.5742 302.193 61.9277 300.249 61.9277C298.343 61.9277 297.024 60.5742 297.024 58.6321C297.024 56.7254 298.343 55.4073 300.249 55.4073C302.193 55.4064 303.545 56.7244 303.545 58.6321Z" fill="#367DAD"/>
</svg>
