<svg width="18" height="17" viewBox="0 0 18 17" fill="none" xmlns="http://www.w3.org/2000/svg">
<path d="M8.02573 15.3898L8.025 15.3892C5.69743 13.3444 3.80646 11.68 2.49153 10.1214C1.18156 8.56873 0.5 7.18538 0.5 5.71141C0.5 3.30868 2.43849 1.41577 4.95 1.41577C6.37064 1.41577 7.73814 2.05902 8.62574 3.06095L9 3.48342L9.37426 3.06095C10.2619 2.05902 11.6294 1.41577 13.05 1.41577C15.5615 1.41577 17.5 3.30868 17.5 5.71141C17.5 7.18538 16.8184 8.56873 15.5085 10.1214C14.1935 11.68 12.3026 13.3444 9.975 15.3892L9.97427 15.3898L9 16.2491L8.02573 15.3898Z" stroke="#0078D4"/>
</svg>
