<svg width="20" height="20" viewBox="0 0 20 20" fill="none" xmlns="http://www.w3.org/2000/svg">
<path d="M9.29657 16.1371L9.29549 16.1361C7.13491 14.1769 5.40202 12.6016 4.20051 11.1316C3.00724 9.67172 2.41669 8.4076 2.41669 7.08333C2.41669 4.92344 4.09667 3.25 6.25002 3.25C7.47329 3.25 8.65978 3.82334 9.43089 4.7218L10 5.38491L10.5691 4.7218C11.3403 3.82334 12.5267 3.25 13.75 3.25C15.9034 3.25 17.5834 4.92344 17.5834 7.08333C17.5834 8.4076 16.9928 9.67172 15.7995 11.1316C14.598 12.6016 12.8651 14.1769 10.7045 16.1361L10.7035 16.1371L10 16.7774L9.29657 16.1371Z" stroke="#0078D4" stroke-width="1.5"/>
</svg>
