<svg width="42" height="38" viewBox="0 0 42 38" fill="none" xmlns="http://www.w3.org/2000/svg">
<path d="M4.96289 16.4375L6.76363 9.23711C6.90583 8.66947 7.23363 8.16561 7.69496 7.80558C8.15629 7.44556 8.72469 7.25001 9.30988 7.24999H38.0221C38.4211 7.25 38.8149 7.34098 39.1734 7.516C39.532 7.69102 39.846 7.94549 40.0915 8.26005C40.3369 8.57462 40.5075 8.94101 40.5901 9.33138C40.6727 9.72174 40.6653 10.1258 40.5683 10.5129L39.7415 13.8204M15.791 30.875H5.30151C4.78355 30.8763 4.2704 30.7755 3.79147 30.5782C3.31254 30.381 2.87723 30.0912 2.51049 29.7254C2.14375 29.3596 1.85277 28.9251 1.65424 28.4467C1.45571 27.9683 1.35351 27.4554 1.35352 26.9375V4.625C1.35352 3.9288 1.63008 3.26113 2.12236 2.76884C2.61464 2.27656 3.28232 2 3.97851 2H17.1035C17.7997 2 18.4674 2.27656 18.9596 2.76884C19.4519 3.26113 19.7285 3.9288 19.7285 4.625V7.24999" stroke="#9F9F9F" stroke-width="2.5" stroke-linecap="round" stroke-linejoin="round"/>
<path d="M24.9785 36.125H35.4785M30.2285 30.875V17.7501M30.2285 17.7501L24.9785 23.0001M30.2285 17.7501L35.4785 23.0001" stroke="#9F9F9F" stroke-width="2.5" stroke-linecap="round" stroke-linejoin="round"/>
</svg>
