<svg width="40" height="40" viewBox="0 0 40 40" fill="none" xmlns="http://www.w3.org/2000/svg">
<rect width="40" height="40" rx="20" transform="matrix(1 -8.74228e-08 -8.74228e-08 -1 0 40)" fill="white"/>
<path d="M24.4055 29.8001C23.7568 30.4502 22.7038 30.4508 22.0544 29.8014L13.4292 21.1762L12.9663 20.6903C12.5981 20.3039 12.5983 19.6964 12.9668 19.3102L13.4308 18.8239L22.0563 10.1984C22.7057 9.549 23.7587 9.549 24.4081 10.1984C25.0578 10.8481 25.0576 11.9014 24.4077 12.5508L17.9119 19.0417C17.3823 19.5709 17.3821 20.4293 17.9115 20.9587L24.4043 27.4515C25.0527 28.0999 25.0533 29.1511 24.4055 29.8001Z" fill="#0078D4"/>
</svg>
