<svg width="118" height="97" viewBox="0 0 118 97" fill="none" xmlns="http://www.w3.org/2000/svg">
<g clip-path="url(#clip0_1649_7626)">
<path d="M114.384 28.0156C111.546 21.1241 107.196 14.7339 101.608 9.89124C95.0539 4.21145 84.7148 -0.16648 75.9731 2.92958C66.9275 6.13323 60.8755 13.8147 54.167 20.0601C51.8111 22.2532 49.234 24.3331 46.1772 25.5541C32.1782 31.1454 22.6698 23.5209 10.2559 32.1619C-2.15797 40.8028 -3.21466 58.0847 4.97336 69.0127C13.1614 79.9411 32.7069 78.4162 47.4979 78.4162C62.2889 78.4162 59.9118 88.836 85.7966 89.0903C112.267 89.3501 120.623 61.3712 117.761 40.431C117.19 36.2611 116.047 32.0522 114.384 28.0156Z" fill="#0078D4"/>
<path opacity="0.7" d="M114.384 28.0156C111.546 21.1241 107.196 14.7339 101.608 9.89124C95.0539 4.21145 84.7148 -0.16648 75.9731 2.92958C66.9275 6.13323 60.8755 13.8147 54.167 20.0601C51.8111 22.2532 49.234 24.3331 46.1772 25.5541C32.1782 31.1454 22.6698 23.5209 10.2559 32.1619C-2.15797 40.8028 -3.21466 58.0847 4.97336 69.0127C13.1614 79.9411 32.7069 78.4162 47.4979 78.4162C62.2889 78.4162 59.9118 88.836 85.7966 89.0903C112.267 89.3501 120.623 61.3712 117.761 40.431C117.19 36.2611 116.047 32.0522 114.384 28.0156Z" fill="white"/>
<path d="M55.4629 10.5856C53.7505 9.65497 52.9719 10.4304 52.3492 9.65497C51.7265 8.87926 54.0617 6.86254 49.3912 4.84612C49.3912 4.84612 49.08 0.502576 42.6968 0.34767C36.3139 0.19247 38.0264 4.69121 36.3139 5.77702C34.6014 6.86284 34.1344 5.15652 32.422 6.24233C30.7095 7.32814 31.4877 9.50006 30.0867 9.81017C28.6855 10.1203 26.8172 8.41395 25.1048 9.49977C23.3923 10.5856 23.3923 11.5162 22.6138 11.5162C21.8353 11.5162 20.2786 10.8957 19.3443 11.5162C18.4103 12.1367 17.3203 12.9124 17.3203 12.9124H56.7081C56.7081 12.9124 57.1754 11.5162 55.4629 10.5856Z" fill="#0078D4"/>
<path opacity="0.5" d="M55.4629 10.5856C53.7505 9.65497 52.9719 10.4304 52.3492 9.65497C51.7265 8.87926 54.0617 6.86254 49.3912 4.84612C49.3912 4.84612 49.08 0.502576 42.6968 0.34767C36.3139 0.19247 38.0264 4.69121 36.3139 5.77702C34.6014 6.86284 34.1344 5.15652 32.422 6.24233C30.7095 7.32814 31.4877 9.50006 30.0867 9.81017C28.6855 10.1203 26.8172 8.41395 25.1048 9.49977C23.3923 10.5856 23.3923 11.5162 22.6138 11.5162C21.8353 11.5162 20.2786 10.8957 19.3443 11.5162C18.4103 12.1367 17.3203 12.9124 17.3203 12.9124H56.7081C56.7081 12.9124 57.1754 11.5162 55.4629 10.5856Z" fill="white"/>
<path d="M87.7938 17.1403C86.6935 16.5424 86.1935 17.0406 85.7934 16.5424C85.3934 16.0442 86.8935 14.7485 83.8931 13.4531C83.8931 13.4531 83.693 10.6627 79.5922 10.5631C75.4914 10.4634 76.5918 13.3534 75.4914 14.0512C74.3914 14.7488 74.0911 13.6527 72.991 14.3502C71.8907 15.0477 72.391 16.443 71.4907 16.6423C70.5906 16.8416 69.3903 15.7455 68.2902 16.443C67.1901 17.1405 67.1901 17.7387 66.6898 17.7387C66.1898 17.7387 65.1895 17.3401 64.5894 17.7387C63.9894 18.1373 63.2891 18.6355 63.2891 18.6355H88.5933C88.5939 18.6352 88.8939 17.7381 87.7938 17.1403Z" fill="white"/>
<path d="M98.6959 45.6836H18.3164V70.9568H98.6959V45.6836Z" fill="white" stroke="#02283B" stroke-width="0.5" stroke-miterlimit="10" stroke-linecap="round" stroke-linejoin="round"/>
<path d="M58.6108 22.625L18.5273 45.684H98.6942L58.6108 22.625Z" fill="#0078D4" stroke="#02283B" stroke-width="0.5" stroke-miterlimit="10" stroke-linecap="round" stroke-linejoin="round"/>
<path d="M74.793 43.6309H54.9023V70.9575H74.793V43.6309Z" fill="white" stroke="#02283B" stroke-width="0.5" stroke-miterlimit="10" stroke-linecap="round" stroke-linejoin="round"/>
<path d="M74.793 43.6309H54.9023V44.7931H74.793V43.6309Z" fill="#02283B" stroke="#02283B" stroke-width="0.5" stroke-miterlimit="10" stroke-linecap="round" stroke-linejoin="round"/>
<path d="M69.8147 70.9582H59.8809V53.8768C59.8809 51.1434 62.1046 48.9277 64.8478 48.9277C67.591 48.9277 69.8147 51.1434 69.8147 53.8768V70.9582Z" fill="#02283B" stroke="#02283B" stroke-miterlimit="10" stroke-linecap="round" stroke-linejoin="round"/>
<path d="M58.618 50.1113H12.5449V70.9575H58.618V50.1113Z" fill="white" stroke="#02283B" stroke-width="0.5" stroke-miterlimit="10" stroke-linecap="round" stroke-linejoin="round"/>
<path d="M58.618 50.1113H12.5449V51.0411H58.618V50.1113Z" fill="#02283B"/>
<path d="M53.5492 51.8301H17.6152V70.957H53.5492V51.8301Z" fill="#0078D4" stroke="#02283B" stroke-width="0.5" stroke-miterlimit="10" stroke-linecap="round" stroke-linejoin="round"/>
<path d="M35.5825 34.8613L11.1309 48.9278H60.0342L35.5825 34.8613Z" fill="#0078D4" stroke="#02283B" stroke-width="0.5" stroke-miterlimit="10" stroke-linecap="round" stroke-linejoin="round"/>
<path d="M60.0342 48.9258H11.1309V50.1101H60.0342V48.9258Z" fill="white" stroke="#02283B" stroke-width="0.5" stroke-miterlimit="10" stroke-linecap="round" stroke-linejoin="round"/>
<path d="M64.8468 35.6992L52.1836 42.9839H77.5099L64.8468 35.6992Z" fill="#0078D4" stroke="#02283B" stroke-width="0.5" stroke-miterlimit="10" stroke-linecap="round" stroke-linejoin="round"/>
<path d="M77.5096 42.9824H52.1836V44.152H77.5096V42.9824Z" fill="white" stroke="#02283B" stroke-width="0.5" stroke-miterlimit="10" stroke-linecap="round" stroke-linejoin="round"/>
<path d="M21.834 53.3672H18.9238V56.2669H21.834V53.3672Z" fill="white" stroke="#02283B" stroke-width="0.5" stroke-miterlimit="10" stroke-linecap="round" stroke-linejoin="round"/>
<path d="M26.1992 53.3672H23.2891V56.2669H26.1992V53.3672Z" fill="white" stroke="#02283B" stroke-width="0.5" stroke-miterlimit="10" stroke-linecap="round" stroke-linejoin="round"/>
<path d="M30.5645 53.3672H27.6543V56.2669H30.5645V53.3672Z" fill="white" stroke="#02283B" stroke-width="0.5" stroke-miterlimit="10" stroke-linecap="round" stroke-linejoin="round"/>
<path d="M34.9297 53.3672H32.0195V56.2669H34.9297V53.3672Z" fill="white" stroke="#02283B" stroke-width="0.5" stroke-miterlimit="10" stroke-linecap="round" stroke-linejoin="round"/>
<path d="M39.2949 53.3672H36.3848V56.2669H39.2949V53.3672Z" fill="white" stroke="#02283B" stroke-width="0.5" stroke-miterlimit="10" stroke-linecap="round" stroke-linejoin="round"/>
<path d="M43.6602 53.3672H40.75V56.2669H43.6602V53.3672Z" fill="white" stroke="#02283B" stroke-width="0.5" stroke-miterlimit="10" stroke-linecap="round" stroke-linejoin="round"/>
<path d="M48.0254 53.3672H45.1152V56.2669H48.0254V53.3672Z" fill="white" stroke="#02283B" stroke-width="0.5" stroke-miterlimit="10" stroke-linecap="round" stroke-linejoin="round"/>
<path d="M52.3906 53.3672H49.4805V56.2669H52.3906V53.3672Z" fill="white" stroke="#02283B" stroke-width="0.5" stroke-miterlimit="10" stroke-linecap="round" stroke-linejoin="round"/>
<path d="M21.834 57.6348H18.9238V60.5345H21.834V57.6348Z" fill="white" stroke="#02283B" stroke-width="0.5" stroke-miterlimit="10" stroke-linecap="round" stroke-linejoin="round"/>
<path d="M26.1992 57.6348H23.2891V60.5345H26.1992V57.6348Z" fill="white" stroke="#02283B" stroke-width="0.5" stroke-miterlimit="10" stroke-linecap="round" stroke-linejoin="round"/>
<path d="M30.5645 57.6348H27.6543V60.5345H30.5645V57.6348Z" fill="white" stroke="#02283B" stroke-width="0.5" stroke-miterlimit="10" stroke-linecap="round" stroke-linejoin="round"/>
<path d="M34.9297 57.6348H32.0195V60.5345H34.9297V57.6348Z" fill="white" stroke="#02283B" stroke-width="0.5" stroke-miterlimit="10" stroke-linecap="round" stroke-linejoin="round"/>
<path d="M39.2949 57.6348H36.3848V60.5345H39.2949V57.6348Z" fill="white" stroke="#02283B" stroke-width="0.5" stroke-miterlimit="10" stroke-linecap="round" stroke-linejoin="round"/>
<path d="M43.6602 57.6348H40.75V60.5345H43.6602V57.6348Z" fill="white" stroke="#02283B" stroke-width="0.5" stroke-miterlimit="10" stroke-linecap="round" stroke-linejoin="round"/>
<path d="M48.0254 57.6348H45.1152V60.5345H48.0254V57.6348Z" fill="white" stroke="#02283B" stroke-width="0.5" stroke-miterlimit="10" stroke-linecap="round" stroke-linejoin="round"/>
<path d="M52.3906 57.6348H49.4805V60.5345H52.3906V57.6348Z" fill="white" stroke="#02283B" stroke-width="0.5" stroke-miterlimit="10" stroke-linecap="round" stroke-linejoin="round"/>
<path d="M21.834 61.9004H18.9238V64.8001H21.834V61.9004Z" fill="white" stroke="#02283B" stroke-width="0.5" stroke-miterlimit="10" stroke-linecap="round" stroke-linejoin="round"/>
<path d="M26.1992 61.9004H23.2891V64.8001H26.1992V61.9004Z" fill="white" stroke="#02283B" stroke-width="0.5" stroke-miterlimit="10" stroke-linecap="round" stroke-linejoin="round"/>
<path d="M30.5645 61.9004H27.6543V64.8001H30.5645V61.9004Z" fill="white" stroke="#02283B" stroke-width="0.5" stroke-miterlimit="10" stroke-linecap="round" stroke-linejoin="round"/>
<path d="M34.9297 61.9004H32.0195V64.8001H34.9297V61.9004Z" fill="white" stroke="#02283B" stroke-width="0.5" stroke-miterlimit="10" stroke-linecap="round" stroke-linejoin="round"/>
<path d="M39.2949 61.9004H36.3848V64.8001H39.2949V61.9004Z" fill="white" stroke="#02283B" stroke-width="0.5" stroke-miterlimit="10" stroke-linecap="round" stroke-linejoin="round"/>
<path d="M43.6602 61.9004H40.75V64.8001H43.6602V61.9004Z" fill="white" stroke="#02283B" stroke-width="0.5" stroke-miterlimit="10" stroke-linecap="round" stroke-linejoin="round"/>
<path d="M48.0254 61.9004H45.1152V64.8001H48.0254V61.9004Z" fill="white" stroke="#02283B" stroke-width="0.5" stroke-miterlimit="10" stroke-linecap="round" stroke-linejoin="round"/>
<path d="M52.3906 61.9004H49.4805V64.8001H52.3906V61.9004Z" fill="white" stroke="#02283B" stroke-width="0.5" stroke-miterlimit="10" stroke-linecap="round" stroke-linejoin="round"/>
<path d="M21.834 66.168H18.9238V69.0677H21.834V66.168Z" fill="white" stroke="#02283B" stroke-width="0.5" stroke-miterlimit="10" stroke-linecap="round" stroke-linejoin="round"/>
<path d="M26.1992 66.168H23.2891V69.0677H26.1992V66.168Z" fill="white" stroke="#02283B" stroke-width="0.5" stroke-miterlimit="10" stroke-linecap="round" stroke-linejoin="round"/>
<path d="M30.5645 66.168H27.6543V69.0677H30.5645V66.168Z" fill="white" stroke="#02283B" stroke-width="0.5" stroke-miterlimit="10" stroke-linecap="round" stroke-linejoin="round"/>
<path d="M34.9297 66.168H32.0195V69.0677H34.9297V66.168Z" fill="white" stroke="#02283B" stroke-width="0.5" stroke-miterlimit="10" stroke-linecap="round" stroke-linejoin="round"/>
<path d="M39.2949 66.168H36.3848V69.0677H39.2949V66.168Z" fill="white" stroke="#02283B" stroke-width="0.5" stroke-miterlimit="10" stroke-linecap="round" stroke-linejoin="round"/>
<path d="M43.6602 66.168H40.75V69.0677H43.6602V66.168Z" fill="white" stroke="#02283B" stroke-width="0.5" stroke-miterlimit="10" stroke-linecap="round" stroke-linejoin="round"/>
<path d="M48.0254 66.168H45.1152V69.0677H48.0254V66.168Z" fill="white" stroke="#02283B" stroke-width="0.5" stroke-miterlimit="10" stroke-linecap="round" stroke-linejoin="round"/>
<path d="M52.3906 66.168H49.4805V69.0677H52.3906V66.168Z" fill="white" stroke="#02283B" stroke-width="0.5" stroke-miterlimit="10" stroke-linecap="round" stroke-linejoin="round"/>
<path d="M61.8867 67.9219V70.9562" stroke="white" stroke-miterlimit="10" stroke-linecap="round" stroke-linejoin="round"/>
<path d="M67.2339 70.958V54.8184H61.8867V66.5871" fill="#02283B"/>
<path d="M67.2339 70.958V54.8184H61.8867V66.5871" stroke="white" stroke-miterlimit="10" stroke-linecap="round" stroke-linejoin="round"/>
<path d="M100.976 70.9581H71.5879V43.6312L86.2816 35.6992L100.976 43.6312V70.9581Z" fill="white" stroke="#02283B" stroke-width="0.5" stroke-miterlimit="10" stroke-linecap="round" stroke-linejoin="round"/>
<path d="M103.221 44.7929L86.2814 35.6482L69.3413 44.7929L68.8145 43.8238L86.2814 34.3945L103.749 43.8238L103.221 44.7929Z" fill="white" stroke="#02283B" stroke-width="0.5" stroke-miterlimit="10" stroke-linecap="round" stroke-linejoin="round"/>
<path d="M71.5879 43.6312V44.2955L86.2816 36.3635L100.976 44.2955V43.6312L86.2816 35.6992L71.5879 43.6312Z" fill="#02283B" stroke="#02283B" stroke-width="0.5" stroke-miterlimit="10" stroke-linecap="round" stroke-linejoin="round"/>
<path d="M79.8516 50.2676V47.3867H92.5312V61.7474" fill="white"/>
<path d="M79.8516 50.2676V47.3867H92.5313V61.7474" stroke="#02283B" stroke-miterlimit="10" stroke-linecap="round" stroke-linejoin="round"/>
<path d="M92.5312 63.2299V66.0567H79.8516V51.3633" fill="white"/>
<path d="M92.5313 63.2299V66.0567H79.8516V51.3633" stroke="#02283B" stroke-miterlimit="10" stroke-linecap="round" stroke-linejoin="round"/>
<path d="M91.6868 52.998H86.7559V56.4127H91.6868V52.998Z" fill="#02283B" stroke="#02283B" stroke-miterlimit="10" stroke-linecap="round" stroke-linejoin="round"/>
<path d="M91.6868 57.5352H86.7559V60.9499H91.6868V57.5352Z" fill="#02283B" stroke="#02283B" stroke-miterlimit="10" stroke-linecap="round" stroke-linejoin="round"/>
<path d="M91.6868 48.2285H86.7559V51.8745H91.6868V48.2285Z" fill="#02283B" stroke="#02283B" stroke-miterlimit="10" stroke-linecap="round" stroke-linejoin="round"/>
<path d="M85.6282 48.2285H80.6973V51.8745H85.6282V48.2285Z" fill="#02283B" stroke="#02283B" stroke-miterlimit="10" stroke-linecap="round" stroke-linejoin="round"/>
<path d="M85.6282 57.5352H80.6973V60.9499H85.6282V57.5352Z" fill="#02283B" stroke="#02283B" stroke-miterlimit="10" stroke-linecap="round" stroke-linejoin="round"/>
<path d="M85.6282 52.998H80.6973V56.4127H85.6282V52.998Z" fill="#02283B" stroke="#02283B" stroke-miterlimit="10" stroke-linecap="round" stroke-linejoin="round"/>
<path d="M91.6868 62.0723H86.7559V65.2139H91.6868V62.0723Z" fill="#02283B" stroke="#02283B" stroke-miterlimit="10" stroke-linecap="round" stroke-linejoin="round"/>
<path d="M85.6282 62.0723H80.6973V65.2139H85.6282V62.0723Z" fill="#02283B" stroke="#02283B" stroke-miterlimit="10" stroke-linecap="round" stroke-linejoin="round"/>
<path d="M80.291 82.2285H86.4126" stroke="#02283B" stroke-miterlimit="10" stroke-linecap="round" stroke-linejoin="round" stroke-dasharray="2 4"/>
<path d="M20.6063 15.6426H19.8411C17.3056 15.6426 15.25 17.6907 15.25 20.2172V77.6538C15.25 80.1802 17.3056 82.2284 19.8411 82.2284H75.4445" stroke="#02283B" stroke-miterlimit="10" stroke-linecap="round" stroke-linejoin="round" stroke-dasharray="2 4"/>
<path d="M97.125 20.2172C97.125 17.6907 95.0695 15.6426 92.534 15.6426H24.6875" stroke="#02283B" stroke-miterlimit="10" stroke-linecap="round" stroke-linejoin="round" stroke-dasharray="2 4"/>
<path d="M97.0046 22.4163C86.5569 22.4748 78.135 30.9617 78.1937 41.3719C78.2524 51.782 86.7699 60.1737 97.2176 60.1152C107.665 60.0567 116.087 51.5698 116.029 41.1597C115.97 30.7495 107.452 22.3578 97.0046 22.4163ZM97.1967 56.3934C88.8119 56.4404 81.9762 49.7057 81.929 41.351C81.8818 32.9964 88.6408 26.1852 97.0256 26.1382C105.41 26.0911 112.246 32.8259 112.293 41.1805C112.341 49.5355 105.581 56.3463 97.1967 56.3934Z" fill="white" stroke="#02283B" stroke-width="0.5" stroke-miterlimit="10" stroke-linecap="round" stroke-linejoin="round"/>
<path d="M96.9988 21.3362C86.5511 21.395 78.1291 29.8816 78.1878 40.2918C78.2468 50.702 86.764 59.0936 97.2118 59.0351C107.659 58.9767 116.081 50.4897 116.023 40.0796C115.964 29.6694 107.446 21.2777 96.9988 21.3362ZM97.1905 55.3133C88.8057 55.3603 81.97 48.6256 81.9228 40.2709C81.8756 31.9163 88.6346 25.1051 97.0194 25.0581C105.404 25.0111 112.24 31.7458 112.287 40.1005C112.334 48.4554 105.576 55.2663 97.1905 55.3133Z" fill="white" stroke="#02283B" stroke-width="0.5" stroke-miterlimit="10" stroke-linecap="round" stroke-linejoin="round"/>
<path d="M98.8706 76.2537L95.9938 76.2698C95.5239 76.2725 95.1407 75.8951 95.138 75.4268L95.0527 60.3142C95.0501 59.846 95.4289 59.4641 95.8988 59.4615L98.7756 59.4453C99.2456 59.4427 99.6288 59.8201 99.6314 60.2883L99.7167 75.4012C99.7196 75.8695 99.3406 76.251 98.8706 76.2537Z" fill="#0078D4" stroke="#02283B" stroke-miterlimit="10" stroke-linecap="round" stroke-linejoin="round"/>
<path d="M99.2643 96.6357L95.3966 96.6566C94.206 96.663 93.2357 95.7066 93.2289 94.5202L93.2168 71.9618C93.2115 71.0345 93.9617 70.2785 94.8924 70.2732L99.7015 70.2461C100.632 70.2408 101.391 70.9883 101.396 71.9157L101.408 94.4756C101.415 95.6622 100.455 96.6292 99.2643 96.6357Z" fill="#02283B" stroke="#02283B" stroke-miterlimit="10" stroke-linecap="round" stroke-linejoin="round"/>
</g>
<defs>
<clipPath id="clip0_1649_7626">
<rect width="118" height="97" fill="white"/>
</clipPath>
</defs>
</svg>
