<svg width="20" height="21" viewBox="0 0 20 21" fill="none" xmlns="http://www.w3.org/2000/svg">
<path d="M10 2.08203C5.40502 2.08203 1.66669 5.82036 1.66669 10.4154V13.8679C1.66669 14.7212 2.20585 15.207 3.12502 15.207H3.75002C3.97103 15.207 4.21874 15.155 4.37502 14.9987C4.5313 14.8424 4.58335 14.803 4.58335 14.582V10.207C4.58335 9.98602 4.5313 9.73831 4.37502 9.58203C4.21874 9.42575 3.85779 9.46286 3.63677 9.46286H3.12502C3.58835 6.23786 6.64835 3.33203 10 3.33203C13.3517 3.33203 16.62 6.23786 17.0834 9.46286H16.4584C16.2373 9.46286 15.9896 9.63408 15.8334 9.79036C15.6771 9.94664 15.625 10.4027 15.625 10.6237V15.4154C15.625 16.3345 14.4609 17.9154 13.5417 17.9154H11.6667V17.2904H8.33335V18.7487H13.3334C15.1717 18.7487 16.6667 17.2537 16.6667 15.4154C17.5859 15.4154 18.3334 14.7212 18.3334 13.8679V10.4154C18.3334 5.82036 14.595 2.08203 10 2.08203Z" fill="#0078D4"/>
<circle cx="7.50002" cy="8.33333" r="0.833333" fill="#0078D4"/>
<circle cx="12.0833" cy="8.33333" r="0.833333" fill="#0078D4"/>
</svg>
