<svg width="16" height="18" viewBox="0 0 16 18" fill="none" xmlns="http://www.w3.org/2000/svg">
<path d="M11.2246 14.3325L11.2697 14.0015L10.9812 13.8331L5.12702 10.4165L4.80502 10.2285L4.53302 10.4835C4.35713 10.6484 4.15283 10.779 3.91618 10.875C3.68797 10.9676 3.43998 11.0154 3.16749 11.015H3.16666C2.60331 11.015 2.14065 10.8235 1.74938 10.4323L1.40445 10.7772L1.74938 10.4323C1.3581 10.041 1.16666 9.57832 1.16666 9.01497C1.16666 8.45162 1.3581 7.98897 1.74938 7.59769C2.14065 7.20642 2.60331 7.01497 3.16666 7.01497C3.43941 7.01497 3.68769 7.06309 3.91618 7.15579C4.1531 7.25191 4.35756 7.38236 4.53351 7.54686L4.80546 7.80115L5.12702 7.61347L10.9812 4.19681L11.3166 4.00104L11.2099 3.62761C11.1904 3.55931 11.18 3.49943 11.1761 3.44721L10.6775 3.48414L11.1761 3.4472C11.1705 3.37127 11.1672 3.28259 11.1667 3.18035C11.1669 2.61758 11.3584 2.15534 11.7494 1.76436C12.1407 1.37308 12.6033 1.18164 13.1667 1.18164C13.73 1.18164 14.1927 1.37308 14.5839 1.76436C14.9752 2.15564 15.1667 2.61829 15.1667 3.18164C15.1667 3.74499 14.9752 4.20764 14.5839 4.59892C14.1927 4.9902 13.73 5.18164 13.1667 5.18164C12.8939 5.18164 12.6456 5.13352 12.4171 5.04082C12.1802 4.9447 11.9758 4.81426 11.7998 4.64975L11.5278 4.39547L11.2063 4.58314L5.35213 7.99981L5.0167 8.19557L5.12339 8.569C5.14307 8.63788 5.15393 8.69901 5.15824 8.75306C5.16413 8.82693 5.16716 8.91311 5.16666 9.01246C5.16615 9.11475 5.16307 9.20507 5.15778 9.28401C5.15441 9.33418 5.14446 9.39072 5.12532 9.45438L5.01194 9.8316L5.35213 10.0301L11.2063 13.4468L11.5283 13.6347L11.8003 13.3797C11.976 13.215 12.18 13.0849 12.4164 12.9894C12.6452 12.897 12.8938 12.8488 13.1669 12.8483C13.7302 12.8484 14.1927 13.0398 14.5839 13.431C14.9752 13.8223 15.1667 14.285 15.1667 14.8483C15.1667 15.4117 14.9752 15.8743 14.5839 16.2656C14.1927 16.6569 13.73 16.8483 13.1667 16.8483C12.6033 16.8483 12.1407 16.6569 11.7494 16.2656C11.3581 15.8743 11.1667 15.4117 11.1667 14.8483C11.1667 14.8359 11.1691 14.7899 11.1794 14.6932C11.1891 14.6027 11.2041 14.4829 11.2246 14.3325Z" stroke="white"/>
</svg>
