<svg width="15" height="16" viewBox="0 0 15 16" fill="none" xmlns="http://www.w3.org/2000/svg">
<path d="M3.19141 2.0974C3.1916 1.79927 3.31011 1.51341 3.52092 1.3026C3.73172 1.09179 4.01759 0.973281 4.31571 0.973096H13.3313C13.6294 0.973281 13.9153 1.09179 14.1261 1.3026C14.3369 1.51341 14.4554 1.79927 14.4556 2.0974L14.4556 11.113C14.4455 11.4045 14.3227 11.6806 14.1129 11.8832C13.9032 12.0859 13.623 12.1991 13.3313 12.1991C13.0397 12.1991 12.7595 12.0859 12.5497 11.8832C12.34 11.6806 12.2171 11.4045 12.207 11.113L12.207 4.81269L2.0349 15.2674C1.82392 15.4784 1.53777 15.5969 1.2394 15.5969C0.941036 15.5969 0.654887 15.4784 0.443909 15.2674C0.232931 15.0564 0.114406 14.7703 0.114405 14.4719C0.114404 14.1736 0.232931 13.8874 0.443909 13.6764L10.616 3.2217L4.31571 3.2217C4.01759 3.22151 3.73172 3.103 3.52092 2.89219C3.31011 2.68138 3.1916 2.39552 3.19141 2.0974Z" fill="white"/>
</svg>
