<svg width="20" height="21" viewBox="0 0 20 21" fill="none" xmlns="http://www.w3.org/2000/svg">
<g clip-path="url(#clip0_2075_5135)">
<path d="M15.8333 17.7083C16.0543 17.7083 16.2663 17.6205 16.4226 17.4643C16.5789 17.308 16.6666 17.096 16.6666 16.875V15.8367C16.67 13.4983 13.355 11.6667 9.99998 11.6667C6.64498 11.6667 3.33331 13.4983 3.33331 15.8367V16.875C3.33331 17.096 3.42111 17.308 3.57739 17.4643C3.73367 17.6205 3.94563 17.7083 4.16665 17.7083H15.8333ZM13.0033 6.12833C13.0033 6.52274 12.9256 6.91328 12.7747 7.27766C12.6238 7.64204 12.4025 7.97312 12.1237 8.25201C11.8448 8.5309 11.5137 8.75212 11.1493 8.90305C10.7849 9.05398 10.3944 9.13167 9.99998 9.13167C9.60558 9.13167 9.21503 9.05398 8.85065 8.90305C8.48627 8.75212 8.15519 8.5309 7.8763 8.25201C7.59742 7.97312 7.37619 7.64204 7.22526 7.27766C7.07433 6.91328 6.99665 6.52274 6.99665 6.12833C6.99665 5.3318 7.31307 4.56789 7.8763 4.00466C8.43954 3.44142 9.20345 3.125 9.99998 3.125C10.7965 3.125 11.5604 3.44142 12.1237 4.00466C12.6869 4.56789 13.0033 5.3318 13.0033 6.12833Z" stroke="#0078D4" stroke-width="1.5" stroke-linecap="round" stroke-linejoin="round"/>
<path d="M17.0325 13.3737C17.426 13.0048 17.6667 12.4754 17.6667 11.8737C17.6667 10.7212 16.7822 9.83203 15.6316 9.83203C14.485 9.83203 13.5833 10.7049 13.5833 11.8621C13.5833 12.4077 13.7772 12.9323 14.165 13.3236C14.1819 13.3406 14.1991 13.3573 14.2165 13.3737H13.7917V14.3737V19.3737V20.3737H14.7917H16.4583H17.4583V19.3737V14.3737V13.3737H17.0325Z" fill="#0078D4" stroke="white" stroke-width="2"/>
</g>
<defs>
<clipPath id="clip0_2075_5135">
<rect width="20" height="20" fill="white" transform="translate(0 0.416016)"/>
</clipPath>
</defs>
</svg>
