<svg width="33" height="33" viewBox="0 0 33 33" fill="none" xmlns="http://www.w3.org/2000/svg">
<g id="hugeicons:smart-ac">
<path id="Vector" d="M9.83366 16.833H23.167M24.5003 10.1663H24.5123M9.56699 24.833C9.56699 24.833 10.6337 27.333 8.50033 28.833M23.4337 24.833C23.4337 24.833 22.367 27.333 24.5003 28.833M16.5003 24.833V28.833M21.8337 4.83301C24.9523 4.83301 26.511 4.83301 27.6497 5.54767C28.2436 5.9208 28.7459 6.42303 29.119 7.01701C29.8337 8.15567 29.8337 9.71301 29.8337 12.833C29.8337 15.953 29.8337 17.5103 29.1177 18.649C28.7451 19.2422 28.2439 19.744 27.651 20.117C26.5097 20.833 24.951 20.833 21.8337 20.833H11.167C8.04833 20.833 6.48966 20.833 5.35099 20.117C4.7573 19.7446 4.2551 19.2434 3.88166 18.6503C3.16699 17.509 3.16699 15.9503 3.16699 12.833C3.16699 9.71567 3.16699 8.15567 3.88166 7.01701C4.25478 6.42303 4.75701 5.9208 5.35099 5.54767C6.48966 4.83301 8.04699 4.83301 11.167 4.83301H21.8337Z" stroke="#0078D4" stroke-width="2" stroke-linecap="round" stroke-linejoin="round"/>
</g>
</svg>
