<svg width="18" height="19" viewBox="0 0 18 19" fill="none" xmlns="http://www.w3.org/2000/svg">
<mask id="mask0_3656_27769" style="mask-type:luminance" maskUnits="userSpaceOnUse" x="0" y="0" width="18" height="19">
<path d="M8.99984 8.00065C10.8408 8.00065 12.3332 6.50827 12.3332 4.66732C12.3332 2.82637 10.8408 1.33398 8.99984 1.33398C7.15889 1.33398 5.6665 2.82637 5.6665 4.66732C5.6665 6.50827 7.15889 8.00065 8.99984 8.00065Z" stroke="white" stroke-width="1.5" stroke-linecap="round" stroke-linejoin="round"/>
<path d="M16.5 18C16.5 13.8579 13.1421 10.5 9 10.5C4.85792 10.5 1.5 13.8579 1.5 18" stroke="white" stroke-width="1.5" stroke-linecap="round" stroke-linejoin="round"/>
<path d="M9.00016 18L10.6668 15.9167L9.00016 10.5L7.3335 15.9167L9.00016 18Z" stroke="white" stroke-width="1.5" stroke-linecap="round" stroke-linejoin="round"/>
</mask>
<g mask="url(#mask0_3656_27769)">
<path d="M-1 -0.332031H19V19.668H-1V-0.332031Z" fill="#0078D4"/>
</g>
</svg>
