<svg width="24" height="25" viewBox="0 0 24 25" fill="none" xmlns="http://www.w3.org/2000/svg">
<rect y="0.5" width="24" height="24" rx="12" fill="#517AA7"/>
<path d="M14.0449 6.0527C14.2469 6.00628 14.4584 6.0239 14.6499 6.10312C14.8414 6.18234 15.0035 6.31923 15.1137 6.49478L16.1056 8.07848C16.1856 8.20603 16.2934 8.31384 16.421 8.39382L18.0047 9.38575C18.1806 9.49585 18.3178 9.65806 18.3972 9.8498C18.4767 10.0415 18.4943 10.2533 18.4478 10.4555L18.0286 12.2757C17.9948 12.4228 17.9948 12.5757 18.0286 12.7228L18.4478 14.544C18.4939 14.7459 18.476 14.9572 18.3966 15.1486C18.3172 15.3399 18.1802 15.5018 18.0047 15.6118L16.421 16.6047C16.2934 16.6847 16.1856 16.7925 16.1056 16.92L15.1137 18.5037C15.0037 18.6795 14.8416 18.8166 14.6501 18.896C14.4586 18.9754 14.247 18.9931 14.0449 18.9468L12.2237 18.5277C12.077 18.494 11.9245 18.494 11.7777 18.5277L9.95647 18.9468C9.75437 18.9931 9.54286 18.9754 9.35132 18.896C9.15978 18.8166 8.99774 18.6795 8.8877 18.5037L7.89577 16.92C7.8155 16.7924 7.70734 16.6846 7.57943 16.6047L5.99673 15.6128C5.82099 15.5027 5.6839 15.3407 5.60449 15.1491C5.52509 14.9576 5.50732 14.7461 5.55365 14.544L5.97178 12.7228C6.00559 12.5757 6.00559 12.4228 5.97178 12.2757L5.55265 10.4555C5.50619 10.2532 5.524 10.0414 5.6036 9.84962C5.6832 9.65786 5.82062 9.49571 5.99673 9.38575L7.57943 8.39382C7.70734 8.31396 7.8155 8.20614 7.89577 8.07848L8.8877 6.49478C8.99781 6.31942 9.15976 6.18265 9.35108 6.10344C9.5424 6.02423 9.75362 6.0065 9.95547 6.0527L11.7777 6.47083C11.9245 6.50449 12.077 6.50449 12.2237 6.47083L14.0449 6.0527Z" stroke="white" stroke-width="1.5"/>
<path d="M9.52148 13.0342L11.5522 14.9792L14.4811 10.0195" stroke="white" stroke-width="1.5" stroke-linecap="round" stroke-linejoin="round"/>
</svg>
