<svg width="20" height="20" viewBox="0 0 20 20" fill="none" xmlns="http://www.w3.org/2000/svg">
<g clip-path="url(#clip0_3656_27797)">
<path d="M9.99984 18.9577C14.9474 18.9577 18.9582 14.9469 18.9582 9.99935C18.9582 5.0518 14.9474 1.04102 9.99984 1.04102C5.05229 1.04102 1.0415 5.0518 1.0415 9.99935C1.0415 14.9469 5.05229 18.9577 9.99984 18.9577Z" stroke="#0078D4" stroke-width="1.5" stroke-linecap="round" stroke-linejoin="round"/>
<path d="M17.5707 1.42578L6.45407 7.84661C6.04256 8.08377 5.74206 8.47462 5.61861 8.93326C5.49516 9.39189 5.55887 9.88077 5.79574 10.2924C5.91317 10.4968 6.06975 10.6759 6.25652 10.8196C6.44329 10.9633 6.65657 11.0688 6.88415 11.1299C7.11174 11.1911 7.34915 11.2067 7.58279 11.176C7.81643 11.1452 8.04171 11.0687 8.24574 10.9508L11.5374 9.05078C11.7411 8.93294 11.9661 8.85649 12.1994 8.82581C12.4327 8.79513 12.6698 8.81082 12.897 8.87199C13.1243 8.93315 13.3372 9.03859 13.5236 9.18224C13.71 9.3259 13.8662 9.50495 13.9832 9.70911C14.1014 9.91232 14.1784 10.1368 14.2096 10.3698C14.2409 10.6028 14.226 10.8397 14.1656 11.0669C14.1052 11.2941 14.0006 11.5071 13.8578 11.6938C13.715 11.8805 13.5367 12.0372 13.3332 12.1549L2.2124 18.5758" stroke="#0078D4" stroke-width="1.5" stroke-linecap="round" stroke-linejoin="round"/>
</g>
<defs>
<clipPath id="clip0_3656_27797">
<rect width="20" height="20" fill="white"/>
</clipPath>
</defs>
</svg>
