<svg width="33" height="33" viewBox="0 0 33 33" fill="none" xmlns="http://www.w3.org/2000/svg">
<path d="M25.8327 6.16618H23.166V4.83284C23.166 4.47922 23.0255 4.14008 22.7755 3.89004C22.5254 3.63999 22.1863 3.49951 21.8327 3.49951C21.4791 3.49951 21.1399 3.63999 20.8899 3.89004C20.6398 4.14008 20.4993 4.47922 20.4993 4.83284V6.16618H12.4993V4.83284C12.4993 4.47922 12.3589 4.14008 12.1088 3.89004C11.8588 3.63999 11.5196 3.49951 11.166 3.49951C10.8124 3.49951 10.4733 3.63999 10.2232 3.89004C9.97316 4.14008 9.83268 4.47922 9.83268 4.83284V6.16618H7.16602C6.10515 6.16618 5.08773 6.58761 4.33759 7.33775C3.58744 8.0879 3.16602 9.10531 3.16602 10.1662V26.1662C3.16602 27.227 3.58744 28.2445 4.33759 28.9946C5.08773 29.7447 6.10515 30.1662 7.16602 30.1662H25.8327C26.8935 30.1662 27.911 29.7447 28.6611 28.9946C29.4113 28.2445 29.8327 27.227 29.8327 26.1662V10.1662C29.8327 9.10531 29.4113 8.0879 28.6611 7.33775C27.911 6.58761 26.8935 6.16618 25.8327 6.16618ZM27.166 26.1662C27.166 26.5198 27.0255 26.8589 26.7755 27.109C26.5254 27.359 26.1863 27.4995 25.8327 27.4995H7.16602C6.81239 27.4995 6.47326 27.359 6.22321 27.109C5.97316 26.8589 5.83268 26.5198 5.83268 26.1662V16.8328H27.166V26.1662ZM27.166 14.1662H5.83268V10.1662C5.83268 9.81256 5.97316 9.47342 6.22321 9.22337C6.47326 8.97332 6.81239 8.83284 7.16602 8.83284H9.83268V10.1662C9.83268 10.5198 9.97316 10.8589 10.2232 11.109C10.4733 11.359 10.8124 11.4995 11.166 11.4995C11.5196 11.4995 11.8588 11.359 12.1088 11.109C12.3589 10.8589 12.4993 10.5198 12.4993 10.1662V8.83284H20.4993V10.1662C20.4993 10.5198 20.6398 10.8589 20.8899 11.109C21.1399 11.359 21.4791 11.4995 21.8327 11.4995C22.1863 11.4995 22.5254 11.359 22.7755 11.109C23.0255 10.8589 23.166 10.5198 23.166 10.1662V8.83284H25.8327C26.1863 8.83284 26.5254 8.97332 26.7755 9.22337C27.0255 9.47342 27.166 9.81256 27.166 10.1662V14.1662Z" fill="#1877F2"/>
</svg>
