<svg width="25" height="25" viewBox="0 0 25 25" fill="none" xmlns="http://www.w3.org/2000/svg">
<path d="M2.75 20.333V15.083C2.75235 14.2881 3.06917 13.5264 3.63128 12.9643C4.19338 12.4022 4.95507 12.0854 5.75 12.083H19.25C20.0449 12.0854 20.8066 12.4022 21.3687 12.9643C21.9308 13.5264 22.2477 14.2881 22.25 15.083V20.333M18.5 12.083H5V7.20801C5.00148 6.71118 5.1995 6.23513 5.55081 5.88382C5.90212 5.53251 6.37818 5.33449 6.875 5.33301H18.125C18.6218 5.33449 19.0979 5.53251 19.4492 5.88382C19.8005 6.23513 19.9985 6.71118 20 7.20801V12.083H18.5Z" stroke="#0078D4" stroke-linecap="round" stroke-linejoin="round"/>
<path d="M2.75 20.333V19.958C2.75087 19.6599 2.86967 19.3743 3.08046 19.1635C3.29125 18.9527 3.5769 18.8339 3.875 18.833H21.125C21.4231 18.8339 21.7087 18.9527 21.9195 19.1635C22.1303 19.3743 22.2491 19.6599 22.25 19.958V20.333M5.75 12.083V11.333C5.75111 10.9355 5.90951 10.5546 6.19057 10.2736C6.47163 9.99251 6.85252 9.83412 7.25 9.83301H11C11.3975 9.83412 11.7784 9.99251 12.0594 10.2736C12.3405 10.5546 12.4989 10.9355 12.5 11.333M12.5 11.333V12.083M12.5 11.333C12.5011 10.9355 12.6595 10.5546 12.9406 10.2736C13.2216 9.99251 13.6025 9.83412 14 9.83301H17.75C18.1475 9.83412 18.5284 9.99251 18.8094 10.2736C19.0905 10.5546 19.2489 10.9355 19.25 11.333V12.083" stroke="#0078D4" stroke-linecap="round" stroke-linejoin="round"/>
</svg>
