<svg width="22" height="16" viewBox="0 0 22 16" fill="none" xmlns="http://www.w3.org/2000/svg">
<path d="M19.5822 0.0839844H1.58215C1.18433 0.0839844 0.802798 0.24202 0.521493 0.523324C0.240189 0.804629 0.0821533 1.18616 0.0821533 1.58398V13.584C0.0821533 13.9818 0.240189 14.3633 0.521493 14.6446C0.802798 14.9259 1.18433 15.084 1.58215 15.084H19.5822C19.98 15.084 20.3615 14.9259 20.6428 14.6446C20.9241 14.3633 21.0822 13.9818 21.0822 13.584V1.58398C21.0822 1.18616 20.9241 0.804629 20.6428 0.523324C20.3615 0.24202 19.98 0.0839844 19.5822 0.0839844ZM17.9322 1.58398L10.5822 6.66898L3.23215 1.58398H17.9322ZM1.58215 13.584V2.26648L10.1547 8.19898C10.2802 8.28608 10.4294 8.33275 10.5822 8.33275C10.735 8.33275 10.8841 8.28608 11.0097 8.19898L19.5822 2.26648V13.584H1.58215Z" fill="#8C96A1"/>
</svg>
