<svg width="21" height="20" viewBox="0 0 21 20" fill="none" xmlns="http://www.w3.org/2000/svg">
<path d="M10.2845 1.66699C5.70117 1.66699 1.95117 5.41699 1.95117 10.0003C1.95117 14.5837 5.70117 18.3337 10.2845 18.3337C14.8678 18.3337 18.6178 14.5837 18.6178 10.0003C18.6178 5.41699 14.8678 1.66699 10.2845 1.66699ZM10.2845 16.667C6.60951 16.667 3.61784 13.6753 3.61784 10.0003C3.61784 6.32533 6.60951 3.33366 10.2845 3.33366C13.9595 3.33366 16.9512 6.32533 16.9512 10.0003C16.9512 13.6753 13.9595 16.667 10.2845 16.667ZM14.1095 6.31699L8.61784 11.8087L6.45951 9.65866L5.28451 10.8337L8.61784 14.167L15.2845 7.50033L14.1095 6.31699Z" fill="#0078D4"/>
</svg>
