<svg width="19" height="19" viewBox="0 0 19 19" fill="none" xmlns="http://www.w3.org/2000/svg">
<path d="M5.5 9.33984L8.92857 12.197L13.5 6.4827M9.5 17.3398C8.44943 17.3398 7.40914 17.1329 6.43853 16.7309C5.46793 16.3288 4.58601 15.7396 3.84315 14.9967C3.10028 14.2538 2.511 13.3719 2.10896 12.4013C1.70693 11.4307 1.5 10.3904 1.5 9.33984C1.5 8.28927 1.70693 7.24898 2.10896 6.27838C2.511 5.30777 3.10028 4.42586 3.84315 3.68299C4.58601 2.94012 5.46793 2.35085 6.43853 1.94881C7.40914 1.54677 8.44943 1.33984 9.5 1.33984C11.6217 1.33984 13.6566 2.1827 15.1569 3.68299C16.6571 5.18328 17.5 7.21811 17.5 9.33984C17.5 11.4616 16.6571 13.4964 15.1569 14.9967C13.6566 16.497 11.6217 17.3398 9.5 17.3398Z" stroke="#0078D4" stroke-width="1.5"/>
</svg>
