<svg width="33" height="33" viewBox="0 0 33 33" fill="none" xmlns="http://www.w3.org/2000/svg">
<path d="M18.3257 2.18896C17.0487 2.18896 15.8507 2.60603 15.0283 3.32121C14.4771 2.94132 13.8233 2.73818 13.1538 2.73878C11.4174 2.73878 9.98918 4.08365 9.85618 5.78653C8.73187 6.09634 7.92818 7.12203 7.92818 8.32497C7.92818 8.48409 7.94255 8.64265 7.97093 8.79859C7.78684 9.16529 7.69106 9.56996 7.69124 9.98028C7.69124 11.4327 8.87293 12.6143 10.3254 12.6143C10.4768 12.6143 10.6279 12.6013 10.7771 12.5755C10.8639 12.7575 10.9714 12.9288 11.0975 13.0861C10.0122 13.2943 9.40574 14.1588 9.63843 15.3375C9.05749 15.6255 8.58443 15.7251 8.56249 16.4793C8.54455 17.0959 8.86974 17.6674 9.38937 18.0768C8.8698 18.4862 8.56249 19.0573 8.56249 19.6742C8.56249 20.3798 9.20949 21.0293 9.66112 21.4511C9.19762 22.0569 9.16568 23.0135 9.64487 23.8357C9.68941 23.9121 9.73779 23.9861 9.7898 24.0576L8.87593 27.142L11.9016 25.2442C12.3466 25.2164 12.7293 25.1873 13.1537 25.2526C13.7736 25.2526 14.3647 24.9776 14.8134 24.4888C14.9147 24.4995 15.0165 24.5049 15.1181 24.5049C16.7062 24.5049 17.9984 23.2127 17.9984 21.6245C17.9984 21.4379 17.9809 21.2539 17.9459 21.0735C18.3834 20.9516 18.7858 20.7276 19.12 20.4201C19.4543 20.1126 19.7108 19.7302 19.8687 19.3043C20.4128 19.1344 20.9041 18.8275 21.2954 18.413C23.0246 18.4032 24.5226 17.1643 24.8716 15.4894C25.8041 14.8379 26.375 13.8097 26.4338 12.6742C27.5455 12.2568 28.2932 11.1978 28.2932 9.98028C28.2932 8.45696 27.1044 7.20615 25.6061 7.10622C25.3798 5.74222 24.1919 4.6989 22.7645 4.6989C22.6994 4.6989 22.6343 4.70113 22.5692 4.70559C22.1028 3.24153 20.3787 2.18896 18.3257 2.18896ZM18.3257 3.14771C20.0843 3.14771 21.5764 4.09465 21.7226 5.30346L21.7277 5.34709C21.1286 4.78318 20.3334 4.47157 19.5065 4.47659C18.9783 4.48035 18.4582 4.61329 17.992 4.86374C17.5257 5.11418 17.1275 5.47447 16.8322 5.91296C17.4253 5.36968 18.1988 5.06489 19.0016 5.05815C19.4253 5.05527 19.8448 5.13558 20.2363 5.29451C20.6277 5.45343 20.9834 5.68786 21.283 5.9844C21.5826 6.28093 21.8202 6.63378 21.9824 7.02279C22.1445 7.41179 22.228 7.82934 22.228 8.25159C22.2276 8.89206 22.0353 9.51912 21.6757 10.0524C22.0081 9.7493 22.2737 9.38084 22.4557 8.97059C22.6377 8.56035 22.7321 8.11734 22.7327 7.6699C22.7314 6.98102 22.5081 6.31228 22.0957 5.76221C22.3161 5.70771 22.5274 5.66209 22.7645 5.65759C23.8224 5.65759 24.6834 6.51703 24.6861 7.57421L24.6859 8.12296C24.9341 8.09747 25.1721 8.06459 25.4127 8.05859C26.4722 8.05859 27.3343 8.92065 27.3343 9.98028C27.3343 10.8797 26.7229 11.6492 25.8475 11.8515L25.4575 11.9418C25.4662 12.1249 25.4775 12.3022 25.4801 12.479C25.4801 13.4295 24.9959 14.2949 24.1846 14.7938L23.9936 14.9113L23.9613 15.1332C23.769 16.4563 22.6141 17.4543 21.2747 17.4543C21.1507 17.452 21.0009 17.4429 20.8669 17.4343L20.7119 17.625C20.3624 18.0439 19.7342 18.3803 19.1022 18.5026C18.8766 19.3667 18.3489 19.9591 17.3001 20.2161L16.6299 20.2611L16.8902 20.8803C16.9893 21.1159 17.0401 21.3689 17.0396 21.6245C17.0396 22.684 16.1777 23.546 15.1181 23.546C14.9044 23.5452 14.645 23.4923 14.4139 23.4395C14.0691 23.9103 13.8254 24.1893 13.1538 24.2936C12.6691 24.2871 12.1284 24.1839 11.5987 24.3022L10.5162 24.9812L10.7456 24.2068L10.874 23.8482C10.7204 23.6793 10.5892 23.5477 10.4736 23.353C10.144 22.7875 10.1934 22.1187 10.5814 21.8926C10.6477 21.8538 10.704 21.8001 10.7459 21.7357C10.7877 21.6713 10.814 21.5981 10.8226 21.5218C10.8527 21.2479 10.6874 21.0948 10.4133 20.841C10.1694 20.6152 9.52162 20.0155 9.52162 19.6743C9.52162 19.1895 9.92424 18.7407 10.5476 18.5312L11.8992 18.0766L10.5475 17.6223C9.92418 17.4128 9.52149 16.9642 9.52149 16.4792C9.52605 16.2323 10.3496 15.9673 10.5626 15.734C10.3678 14.9017 10.5774 14.2105 11.5863 13.9987C11.8077 13.9997 12.0734 14.0648 12.3096 14.1245C12.5146 13.804 12.7216 13.5033 12.984 13.2139L12.4348 12.9524C12.2162 12.8486 12.0227 12.6987 11.8676 12.5129C11.7126 12.3272 11.5996 12.11 11.5366 11.8763L11.3997 11.3692C11.0237 11.5084 10.7254 11.6479 10.3256 11.6555C9.4018 11.6555 8.65024 10.904 8.65024 9.98028C8.65024 9.6759 8.73262 9.37803 8.88868 9.11853L8.99281 8.9454C8.9358 8.72753 8.88937 8.55715 8.88705 8.32497C8.88705 7.46734 9.52912 6.75146 10.3804 6.65971L10.8293 6.61121C10.8202 6.42059 10.8083 6.23146 10.8049 6.04653C10.8049 4.75134 11.8586 3.69765 13.1538 3.69765C13.7419 3.69765 14.3047 3.91615 14.7385 4.31303L15.0966 4.64065L15.4199 4.27846C16.0518 3.5704 17.138 3.14771 18.3257 3.14771ZM12.8695 6.74378C12.456 6.74822 12.0406 6.89044 11.6779 7.15181C11.3151 7.41319 11.0219 7.78152 10.8366 8.20853C10.5927 8.77053 10.5531 9.39383 10.7265 9.9413C10.8999 10.4888 11.272 10.9156 11.7611 11.1278C11.7997 11.1444 11.8389 11.1595 11.8786 11.1732C11.5486 10.9096 11.321 10.5217 11.2325 10.0722C11.144 9.62264 11.1999 9.13785 11.391 8.69621C11.6167 8.17611 12.0129 7.75534 12.4926 7.52645C12.9722 7.29756 13.496 7.27931 13.9486 7.47571C13.9716 7.4867 13.9943 7.49822 14.0167 7.51028C13.7859 7.62326 13.5909 7.78211 13.447 7.97445C13.3031 8.1668 13.2142 8.38746 13.1871 8.61928C13.1829 8.65651 13.1803 8.69393 13.1793 8.73146C13.3643 8.48214 13.6401 8.28401 13.9733 8.16112C14.3065 8.03824 14.6826 7.99589 15.0562 8.03921C15.4216 8.08217 15.769 8.20535 16.058 8.39441C16.347 8.58346 16.5657 8.83062 16.6887 9.10709C16.6911 9.09441 16.6934 9.08171 16.6954 9.06896C16.7416 8.66923 16.6011 8.26219 16.3048 7.93738C16.0086 7.61257 15.5808 7.3966 15.1156 7.33696C15.0156 7.32412 14.915 7.31865 14.8148 7.32059C14.629 7.32461 14.4465 7.35415 14.2742 7.40809C14.0905 7.18078 13.8607 7.00407 13.6002 6.88965C13.3716 6.7905 13.1238 6.74103 12.8695 6.74378ZM15.9906 15.4492C15.444 15.4366 14.9206 15.5823 14.5005 15.8642C14.0805 16.1461 13.7869 16.5486 13.6647 17.01C13.6282 17.1511 13.6081 17.296 13.6047 17.4427C13.6067 17.4355 13.6087 17.4283 13.6108 17.4212C13.6916 17.1737 13.828 16.947 14.0122 16.7541C14.1963 16.5612 14.4246 16.4059 14.684 16.2969C14.9434 16.188 15.2289 16.1276 15.5241 16.1192C15.8193 16.1108 16.1184 16.1546 16.4044 16.248C16.6905 16.3414 16.9578 16.4827 17.1911 16.6637C17.4245 16.8447 17.6193 17.062 17.7644 17.303C17.9095 17.5441 18.0021 17.8042 18.0368 18.0687C18.0716 18.3331 18.0479 18.5965 17.9671 18.844C17.8776 19.1152 17.7214 19.3609 17.5092 19.5643C18.0324 19.2857 18.4022 18.835 18.5444 18.3024C18.6178 18.0252 18.6274 17.7339 18.5726 17.4454C18.5178 17.1568 18.3998 16.8764 18.2251 16.6204C18.0504 16.3644 17.8226 16.1377 17.5547 15.9532C17.2868 15.7687 16.984 15.6301 16.6636 15.5452C16.443 15.4868 16.2166 15.4545 15.9906 15.4492ZM7.67855 25.5323C6.03693 25.5323 4.70605 26.8633 4.70605 28.5048C4.70605 30.1465 6.03693 31.4773 7.67855 31.4773C9.32018 31.4773 10.6511 30.1465 10.6511 28.5048C10.6511 28.0753 10.5598 27.6672 10.3959 27.2983C10.3081 27.101 9.24793 28.5049 8.31993 27.8737C7.87699 27.5724 8.20437 26.6313 8.41237 26.0778C8.50299 25.8363 8.57105 25.6686 8.54249 25.66C8.26236 25.5752 7.97124 25.5321 7.67855 25.5323ZM6.73387 26.5652C6.80555 26.5785 6.16949 27.44 6.81355 28.8681C6.9428 29.1548 6.79668 29.4937 6.5013 29.6192C6.20599 29.7447 5.86693 29.6119 5.74399 29.3227C5.62105 29.0331 5.74668 27.2375 6.68674 26.5887C6.71149 26.5716 6.72643 26.5638 6.73387 26.5652Z" fill="#0078D4"/>
</svg>
