<svg width="24" height="16" viewBox="0 0 24 16" fill="none" xmlns="http://www.w3.org/2000/svg">
<path d="M20 8C20 12.4184 16.4184 16 12 16C7.5816 16 4 12.4184 4 8C4 3.5816 7.5816 0 12 0V1.6C10.4676 1.60018 8.98618 2.15016 7.82492 3.14999C6.66367 4.14982 5.89969 5.53312 5.67186 7.04846C5.44403 8.5638 5.76747 10.1106 6.58338 11.4077C7.3993 12.7048 8.65353 13.6661 10.1181 14.1168C11.5827 14.5676 13.1604 14.4779 14.5644 13.8641C15.9685 13.2502 17.1057 12.153 17.7694 10.7718C18.433 9.3906 18.5791 7.81712 18.181 6.33736C17.7829 4.8576 16.8671 3.56979 15.6 2.708V4.8H14V0H18.8V1.6H16.8C17.794 2.34474 18.6008 3.31093 19.1563 4.42187C19.7117 5.53281 20.0006 6.75793 20 8Z" fill="#272727"/>
</svg>
