<svg width="40" height="32" viewBox="0 0 40 32" fill="none" xmlns="http://www.w3.org/2000/svg">
<g id="Clip path group">
<mask id="mask0_3323_23642" style="mask-type:luminance" maskUnits="userSpaceOnUse" x="0" y="0" width="40" height="32">
<g id="60c521d398">
<path id="Vector" d="M0.869141 0H39.0391V31.1972H0.869141V0Z" fill="white"/>
</g>
</mask>
<g mask="url(#mask0_3323_23642)">
<g id="Group">
<path id="Vector_2" fill-rule="evenodd" clip-rule="evenodd" d="M10.4519 4.00361L8.7174 2.50722L11.0003 2.31597C11.1243 2.30605 11.2334 2.22723 11.2814 2.11149L12.1693 0L13.0572 2.11039C13.1057 2.22558 13.2143 2.30439 13.3389 2.31486L15.6218 2.50612L13.8873 4.00251C13.7925 4.08408 13.7517 4.2114 13.7803 4.33266L14.3034 6.56264L12.3446 5.37655C12.2382 5.31206 12.1037 5.31206 11.9973 5.37655L10.0374 6.56264L10.561 4.33266C10.5875 4.21195 10.5467 4.08463 10.4519 4.00361ZM11.7918 18.0196C11.6744 17.9523 11.5895 17.8399 11.5564 17.7093C11.1166 16.0067 10.8575 15.7008 10.7429 15.67C10.6068 15.6336 10.1978 15.8397 9.02715 17.0319C8.9329 17.1283 8.80283 17.1829 8.66779 17.1829C8.53331 17.1829 8.40379 17.1283 8.30899 17.0319C7.13833 15.8397 6.72992 15.6331 6.59434 15.67C6.47859 15.7008 6.2201 16.0067 5.78083 17.7093C5.7472 17.8399 5.66178 17.9523 5.54493 18.0196C5.42753 18.0863 5.28864 18.105 5.15857 18.0681C3.55029 17.6211 3.09227 17.6464 2.99252 17.7467C2.88945 17.8504 2.86079 18.3106 3.30778 19.9183C3.3436 20.0478 3.32597 20.1873 3.25817 20.3047C3.19093 20.4221 3.0796 20.5064 2.94897 20.54C1.24479 20.9793 0.938899 21.2383 0.907483 21.3535C0.871658 21.4902 1.07779 21.8975 2.27105 23.0676C2.3675 23.1624 2.42152 23.2914 2.42152 23.4264C2.42152 23.5615 2.3675 23.6904 2.27105 23.7852C1.01275 25.0198 0.876067 25.3963 0.90583 25.5104C0.942206 25.6454 1.32636 25.8945 2.94897 26.3128C3.0796 26.3459 3.19093 26.4308 3.25817 26.5482C3.32597 26.6645 3.3436 26.8039 3.30778 26.9346C2.86079 28.5434 2.88945 29.0025 2.99252 29.1056C3.09227 29.2053 3.55029 29.2312 5.15857 28.7848C5.28864 28.7484 5.42753 28.7661 5.54493 28.8333C5.66178 28.9005 5.7472 29.0124 5.78083 29.1436C6.2201 30.8467 6.47859 31.1526 6.59434 31.184C6.72992 31.2209 7.13833 31.0137 8.30899 29.821C8.40379 29.7245 8.53331 29.67 8.66779 29.67C8.80283 29.67 8.9329 29.7245 9.02715 29.821C10.2628 31.0793 10.6387 31.216 10.7528 31.1856C10.8884 31.1493 11.137 30.7657 11.5564 29.1436C11.5895 29.0124 11.6744 28.9011 11.7918 28.8333C11.9086 28.7655 12.0475 28.7479 12.1776 28.7848C13.787 29.2312 14.2472 29.2031 14.3497 29.1001C14.45 28.9992 14.4765 28.5423 14.0284 26.9346C13.9925 26.8045 14.0102 26.6656 14.078 26.5482C14.1452 26.4308 14.2571 26.3459 14.3883 26.3128C16.0913 25.8736 16.3972 25.6145 16.4287 25.4993C16.4656 25.3627 16.2583 24.9553 15.0656 23.7841C14.9692 23.6893 14.9146 23.5604 14.9146 23.4253C14.9146 23.2908 14.9692 23.1613 15.0656 23.0665C16.3245 21.8319 16.4612 21.4555 16.4303 21.3414C16.3939 21.2064 16.0098 20.9578 14.3883 20.5395C14.2571 20.5058 14.1452 20.421 14.078 20.3036C14.0102 20.1873 13.9925 20.0478 14.0284 19.9172C14.4765 18.3089 14.4478 17.8493 14.3447 17.7462C14.2439 17.6453 13.787 17.6205 12.1776 18.067C12.0475 18.105 11.9086 18.0874 11.7918 18.0196ZM7.51256 25.4045L12.5347 20.384C12.7309 20.1878 13.0495 20.1878 13.2457 20.384C13.4419 20.5803 13.4419 20.8988 13.2457 21.0961L7.86806 26.471C7.76996 26.5691 7.64154 26.6187 7.51256 26.6187C7.38415 26.6187 7.25517 26.5691 7.15707 26.471L4.09042 23.406C3.89421 23.2098 3.89421 22.8918 4.09042 22.6945C4.28719 22.4983 4.6052 22.4983 4.80197 22.6945L7.51256 25.4045ZM35.3571 10.7481C36.4996 10.7481 37.4278 11.6768 37.4278 12.8177V22.3065C37.4278 23.4479 36.4996 24.3772 35.3571 24.3772H16.9726C16.7621 24.0944 16.481 23.7841 16.1299 23.4281C17.1209 22.4189 17.58 21.7454 17.402 21.0835C17.2251 20.4237 16.519 20.0815 15.1301 19.6984C15.4823 18.3337 15.5418 17.523 15.0557 17.038C14.5701 16.5524 13.7892 16.6086 12.3991 16.9691C12.021 15.6105 11.6666 14.8774 11.0025 14.6999C10.7661 14.6371 10.5324 14.6536 10.2816 14.7451V12.8205C10.2816 11.6785 11.2108 10.7509 12.3523 10.7509H35.3571V10.7481ZM33.0626 13.9427H14.6462C14.369 13.9427 14.143 14.1686 14.143 14.4459C14.143 14.7231 14.369 14.9491 14.6462 14.9491H33.0626C33.3404 14.9491 33.5658 14.7231 33.5658 14.4459C33.5658 14.1675 33.3404 13.9427 33.0626 13.9427ZM33.0626 17.0595C33.3404 17.0595 33.5658 17.2849 33.5658 17.5627C33.5658 17.841 33.3404 18.0653 33.0626 18.0653H16.6546C16.3763 18.0653 16.1514 17.8399 16.1514 17.5627C16.1514 17.2849 16.3763 17.0595 16.6546 17.0595H33.0626ZM33.0626 20.1757H19.7147C19.4374 20.1757 19.212 20.4011 19.212 20.6784C19.212 20.9567 19.4374 21.1816 19.7147 21.1816H33.0626C33.3404 21.1816 33.5658 20.9561 33.5658 20.6784C33.5658 20.4011 33.3404 20.1757 33.0626 20.1757ZM32.0876 2.50722L34.3711 2.31597C34.4951 2.30605 34.6031 2.22613 34.6511 2.11149L35.5401 0L36.4274 2.11039C36.4759 2.22558 36.584 2.30439 36.708 2.31486L38.9914 2.50612L37.2575 4.00251C37.1627 4.08463 37.1208 4.2114 37.1495 4.33266L37.6736 6.56264L35.7137 5.37655C35.6608 5.34458 35.6012 5.32805 35.539 5.32805C35.4778 5.32805 35.4177 5.34458 35.3654 5.37655L33.406 6.56264L33.929 4.33266C33.9577 4.2114 33.9164 4.08408 33.8216 4.00251L32.0876 2.50722ZM22.137 4.00361L20.4025 2.50722L22.6854 2.31597C22.81 2.30605 22.9185 2.22723 22.967 2.11149L23.855 0L24.7423 2.11149C24.7908 2.22723 24.8989 2.30494 25.0234 2.31597L27.3058 2.50722L25.5707 4.00361C25.4759 4.08463 25.4351 4.21195 25.4632 4.33376L25.9868 6.56374L24.0269 5.3771C23.9751 5.34568 23.9145 5.3286 23.8544 5.3286C23.7932 5.3286 23.7326 5.34568 23.6808 5.3771L21.7209 6.56374L22.2439 4.33376C22.2726 4.21195 22.2312 4.08463 22.137 4.00361Z" fill="#5483BE"/>
</g>
</g>
</g>
</svg>
