<svg width="49" height="49" viewBox="0 0 49 49" fill="none" xmlns="http://www.w3.org/2000/svg">
<path d="M0.589844 4.04101C0.589844 1.83188 2.3807 0.0410156 4.58984 0.0410156H44.5898C46.799 0.0410156 48.5898 1.83188 48.5898 4.04102V48.041H4.58984C2.3807 48.041 0.589844 46.2502 0.589844 44.041V4.04101Z" fill="#ECF7FF"/>
<path d="M30.0668 25.6956C30.0328 25.6619 29.9975 25.6301 29.9606 25.6C29.9234 25.5698 29.8851 25.5416 29.8454 25.5152C29.8055 25.4889 29.7648 25.4644 29.7227 25.4422C29.6803 25.4196 29.6374 25.3993 29.5931 25.3813C29.5491 25.3631 29.5043 25.3471 29.4584 25.3333C29.4128 25.3194 29.3666 25.308 29.3199 25.2988C29.2729 25.2895 29.2259 25.2825 29.1784 25.2779C29.1308 25.2732 29.0833 25.2708 29.0355 25.2708C28.9877 25.2708 28.9402 25.2732 28.8926 25.2779C28.8454 25.2825 28.7981 25.2895 28.7514 25.2988C28.7044 25.308 28.6582 25.3194 28.6126 25.3333C28.567 25.3471 28.5219 25.3631 28.4779 25.3813C28.4339 25.3993 28.3907 25.4196 28.3486 25.4422C28.3065 25.4644 28.2655 25.4889 28.2256 25.5152C28.1859 25.5416 28.1476 25.5698 28.1107 25.6C28.0735 25.6301 28.0382 25.6619 28.0042 25.6956L27.5653 26.1345C27.5341 26.1646 27.5017 26.1929 27.4678 26.22C27.4338 26.2469 27.3985 26.2719 27.3621 26.2956C27.326 26.3192 27.2885 26.3409 27.25 26.3607C27.2117 26.3808 27.1723 26.3988 27.1321 26.4151C27.0919 26.4314 27.0512 26.4455 27.0096 26.4577C26.968 26.4699 26.9259 26.4802 26.8836 26.4887C26.8409 26.4968 26.7983 26.5031 26.7551 26.5071C26.7119 26.5112 26.6687 26.5134 26.6255 26.5134C26.5821 26.5134 26.5389 26.5112 26.4957 26.5071C26.4528 26.5031 26.4099 26.4968 26.3673 26.4887C26.3249 26.4802 26.2828 26.4699 26.2412 26.4577C26.1997 26.4455 26.1589 26.4314 26.1187 26.4151C26.0785 26.3988 26.0392 26.3808 26.0009 26.3607C25.9623 26.3409 25.9251 26.3192 25.8887 26.2956C25.8523 26.2719 25.817 26.2469 25.7833 26.22C25.7494 26.1929 25.7168 26.1646 25.6855 26.1345L22.4966 22.9456C22.4656 22.9149 22.4366 22.8826 22.4089 22.8489C22.3812 22.8155 22.3554 22.7804 22.3312 22.7443C22.307 22.7082 22.2845 22.6707 22.2641 22.6324C22.2435 22.5938 22.2247 22.5547 22.2082 22.5145C22.1916 22.4743 22.1769 22.4333 22.1642 22.3915C22.1514 22.3499 22.1408 22.3078 22.1324 22.2649C22.124 22.2223 22.1174 22.1794 22.1134 22.1359C22.109 22.0927 22.1069 22.0493 22.1069 22.0055C22.1069 21.9621 22.109 21.9186 22.1134 21.8755C22.1174 21.832 22.124 21.7891 22.1324 21.7462C22.1408 21.7035 22.1514 21.6614 22.1642 21.6196C22.1769 21.578 22.1916 21.537 22.2082 21.4968C22.2247 21.4566 22.2435 21.4173 22.2641 21.379C22.2845 21.3407 22.307 21.3032 22.3312 21.2671C22.3554 21.2309 22.3812 21.1959 22.4089 21.1622C22.4366 21.1288 22.4656 21.0965 22.4966 21.0658L22.9355 20.6269C22.9692 20.5929 23.001 20.5576 23.0311 20.5204C23.0613 20.4835 23.0895 20.4452 23.1159 20.4055C23.1422 20.3656 23.1667 20.3246 23.1889 20.2825C23.2115 20.2404 23.2316 20.1972 23.2498 20.1532C23.268 20.1092 23.284 20.0641 23.2978 20.0185C23.3117 19.9729 23.3231 19.9267 23.3323 19.8797C23.3416 19.833 23.3486 19.7857 23.3532 19.7385C23.3579 19.6909 23.3603 19.6434 23.3603 19.5956C23.3603 19.5478 23.3579 19.5003 23.3532 19.4527C23.3486 19.4052 23.3416 19.3582 23.3323 19.3112C23.3231 19.2645 23.3117 19.2183 23.2978 19.1727C23.284 19.1268 23.268 19.082 23.2498 19.038C23.2316 18.9937 23.2115 18.9508 23.1889 18.9084C23.1667 18.8663 23.1422 18.8256 23.1159 18.7857C23.0895 18.746 23.0613 18.7077 23.0311 18.6705C23.001 18.6336 22.9692 18.5983 22.9355 18.5643L21.5449 17.1737C21.5107 17.1411 21.4748 17.1099 21.4376 17.0805C21.4004 17.0509 21.3618 17.0235 21.3219 16.9977C21.282 16.9719 21.241 16.9483 21.1986 16.9265C21.1565 16.9045 21.1133 16.885 21.0693 16.8673C21.0253 16.8494 20.9805 16.8339 20.9349 16.8206C20.8892 16.807 20.8433 16.7959 20.7966 16.7869C20.7502 16.778 20.7032 16.7712 20.6559 16.7666C20.6087 16.7622 20.5611 16.7598 20.5136 16.7598C20.4664 16.7598 20.4188 16.7622 20.3716 16.7666C20.3243 16.7712 20.2773 16.778 20.2309 16.7869C20.1842 16.7959 20.138 16.807 20.0926 16.8206C20.047 16.8339 20.0022 16.8494 19.9582 16.8673C19.9142 16.885 19.871 16.9045 19.8286 16.9265C19.7865 16.9483 19.7455 16.9719 19.7056 16.9977C19.6657 17.0235 19.6271 17.0509 19.5899 17.0805C19.5527 17.1099 19.5168 17.1411 19.4826 17.1737L18.6165 18.0398L18.5814 18.0828V18.102C18.4793 18.2069 18.3823 18.3163 18.2911 18.4304C18.1995 18.5445 18.1137 18.6629 18.0339 18.7851C17.954 18.9076 17.8801 19.0336 17.8125 19.1635C17.7449 19.293 17.6835 19.4258 17.6289 19.5614C17.574 19.6969 17.526 19.8349 17.4847 19.9753C17.4434 20.1154 17.4092 20.2575 17.3815 20.4012C17.354 20.5449 17.3337 20.6894 17.3201 20.8352C17.3068 20.9808 17.3005 21.1266 17.3013 21.273C17.3022 21.4192 17.31 21.565 17.325 21.7106C17.3402 21.8559 17.3622 22.0004 17.3912 22.1438C17.4203 22.2869 17.4562 22.4287 17.4991 22.5686C17.542 22.7082 17.5914 22.8456 17.6476 22.9806C17.7039 23.1159 17.7666 23.2476 17.8359 23.3766C17.9048 23.5056 17.9801 23.6308 18.0613 23.7522C18.1425 23.8739 18.2297 23.9913 18.3223 24.1042C18.4152 24.2175 18.513 24.3259 18.6165 24.4294L24.2017 30.0146C24.2539 30.0668 24.3074 30.1176 24.362 30.167C24.4169 30.2164 24.4725 30.2645 24.5298 30.3112C24.5869 30.358 24.645 30.4033 24.7042 30.447C24.7634 30.491 24.8237 30.5334 24.8851 30.5742C24.9465 30.6152 25.0087 30.6545 25.072 30.6923C25.1353 30.7301 25.1996 30.7664 25.2645 30.8012C25.3297 30.836 25.3954 30.8688 25.4623 30.9004C25.5288 30.9319 25.5962 30.9617 25.6643 30.99C25.7325 31.018 25.8012 31.0446 25.8708 31.0693C25.9403 31.094 26.0101 31.1171 26.0807 31.1385C26.1513 31.16 26.2225 31.1796 26.2939 31.1975C26.3654 31.2154 26.4373 31.2314 26.5096 31.2458C26.5821 31.2602 26.6546 31.2727 26.7277 31.2836C26.8005 31.2944 26.8738 31.3034 26.9471 31.3105C27.0205 31.3178 27.0941 31.3232 27.1677 31.3268C27.2413 31.3303 27.3149 31.3322 27.3888 31.3322C27.4624 31.3322 27.536 31.3303 27.6098 31.3268C27.6835 31.3232 27.7568 31.3178 27.8304 31.3105C27.9037 31.3034 27.9768 31.2944 28.0498 31.2836C28.1226 31.2727 28.1954 31.2602 28.2677 31.2458C28.3399 31.2314 28.4119 31.2154 28.4833 31.1975C28.555 31.1796 28.6259 31.16 28.6965 31.1385C28.7672 31.1171 28.8372 31.094 28.9065 31.0693C28.976 31.0446 29.0447 31.018 29.1129 30.99C29.1811 30.9617 29.2484 30.9319 29.3153 30.9004C29.3818 30.8688 29.4478 30.836 29.5127 30.8012C29.5779 30.7664 29.642 30.7301 29.7053 30.6923C29.7686 30.6545 29.8308 30.6152 29.8921 30.5742C29.9535 30.5334 30.0138 30.491 30.073 30.447C30.1325 30.4033 30.1906 30.358 30.2477 30.3112C30.3047 30.2645 30.3607 30.2164 30.4153 30.167C30.4698 30.1176 30.5234 30.0668 30.5755 30.0146L31.4417 29.1485C31.4753 29.1148 31.5071 29.0792 31.5373 29.0423C31.5674 29.0054 31.5957 28.9671 31.6223 28.9271C31.6486 28.8875 31.6731 28.8465 31.6953 28.8044C31.7176 28.7623 31.738 28.7191 31.7562 28.6751C31.7744 28.6308 31.7904 28.586 31.804 28.5404C31.8178 28.4947 31.8295 28.4483 31.8387 28.4016C31.848 28.3549 31.8548 28.3076 31.8594 28.2601C31.8643 28.2125 31.8664 28.165 31.8664 28.1175C31.8664 28.0697 31.8643 28.0222 31.8594 27.9746C31.8548 27.9271 31.848 27.8798 31.8387 27.8331C31.8295 27.7864 31.8178 27.7402 31.804 27.6943C31.7904 27.6487 31.7744 27.6039 31.7562 27.5596C31.738 27.5156 31.7176 27.4724 31.6953 27.4303C31.6731 27.3882 31.6486 27.3472 31.6223 27.3076C31.5957 27.2679 31.5674 27.2293 31.5373 27.1924C31.5071 27.1555 31.4753 27.1199 31.4417 27.0862L30.0668 25.6956ZM20.0147 17.706C20.0473 17.6726 20.0826 17.643 20.1211 17.617C20.1594 17.5909 20.2002 17.5689 20.2431 17.551C20.286 17.5328 20.33 17.5192 20.3756 17.5102C20.4213 17.501 20.4672 17.4964 20.5136 17.4964C20.5603 17.4964 20.6062 17.501 20.6519 17.5102C20.6972 17.5192 20.7415 17.5328 20.7844 17.551C20.8273 17.5689 20.8678 17.5909 20.9064 17.617C20.9449 17.643 20.9802 17.6726 21.0128 17.706L22.4034 19.0964C22.436 19.1293 22.4654 19.1648 22.4909 19.2034C22.5167 19.242 22.5384 19.2827 22.5561 19.3256C22.5737 19.3683 22.5871 19.4125 22.596 19.4579C22.6052 19.5033 22.6096 19.5492 22.6096 19.5956C22.6096 19.6418 22.6052 19.6877 22.596 19.7333C22.5871 19.7787 22.5737 19.8227 22.5561 19.8656C22.5384 19.9085 22.5167 19.949 22.4909 19.9875C22.4654 20.0261 22.436 20.0619 22.4034 20.0948L21.9645 20.5451C21.8966 20.6193 21.8331 20.697 21.7741 20.7782L19.362 18.3663L20.0147 17.706ZM24.7455 29.4788L19.1523 23.8856C19.0719 23.8052 18.9956 23.7213 18.9228 23.6338C18.85 23.5464 18.7816 23.4559 18.7169 23.3622C18.6526 23.2685 18.5923 23.1721 18.5366 23.073C18.4809 22.9741 18.4296 22.8725 18.3831 22.7688C18.3364 22.665 18.2949 22.5596 18.2579 22.4521C18.2207 22.3445 18.1889 22.2356 18.1618 22.1251C18.1346 22.0145 18.1126 21.9032 18.0955 21.7907C18.0787 21.6783 18.0667 21.5653 18.0602 21.4517C18.0534 21.3385 18.0518 21.2247 18.0553 21.1112C18.0588 20.9976 18.0675 20.8844 18.0814 20.7714C18.0952 20.6587 18.1143 20.5465 18.1382 20.4354C18.1623 20.3243 18.1914 20.2143 18.2253 20.1059C18.2593 19.9973 18.2981 19.8906 18.3416 19.7857C18.3853 19.6806 18.4337 19.5779 18.4866 19.4772C18.5396 19.3767 18.5972 19.2786 18.6588 19.1833C18.7207 19.088 18.787 18.9956 18.8571 18.906L21.4363 21.4852C21.4129 21.5723 21.3955 21.6603 21.3838 21.7497C21.3722 21.8391 21.3665 21.9287 21.3665 22.0189C21.3665 22.109 21.3724 22.1987 21.3841 22.288C21.3958 22.3774 21.4132 22.4654 21.4365 22.5526C21.4596 22.6395 21.4884 22.7248 21.5229 22.8079C21.5571 22.8913 21.5968 22.9719 21.6419 23.0499C21.6867 23.1281 21.7364 23.2028 21.791 23.2745C21.8458 23.3462 21.9048 23.4138 21.9683 23.4777L25.1573 26.6666C25.2537 26.7635 25.3588 26.8502 25.4723 26.9262C25.5858 27.0023 25.7059 27.0666 25.8322 27.1188C25.9585 27.1712 26.0889 27.2106 26.223 27.2372C26.3572 27.2636 26.4925 27.2769 26.6294 27.2763C26.8059 27.2736 26.9795 27.2492 27.1497 27.2027L29.7289 29.7778C29.6393 29.8482 29.5469 29.9144 29.4513 29.9763C29.356 30.0383 29.2577 30.0956 29.1572 30.1485C29.0564 30.2018 28.9535 30.2501 28.8484 30.2936C28.7433 30.3373 28.6362 30.3762 28.5279 30.4101C28.4192 30.4441 28.3092 30.4731 28.1979 30.497C28.0865 30.5212 27.9746 30.5399 27.8616 30.5538C27.7486 30.5676 27.6351 30.5763 27.5216 30.5796C27.4078 30.5831 27.294 30.5815 27.1804 30.5747C27.0666 30.5679 26.9536 30.556 26.8412 30.5388C26.7288 30.5217 26.6171 30.4997 26.5066 30.4723C26.396 30.4451 26.2871 30.4131 26.1796 30.3759C26.0717 30.3389 25.9661 30.2968 25.8623 30.2501C25.7586 30.2034 25.657 30.1521 25.5579 30.0961C25.459 30.0402 25.3626 29.9799 25.2689 29.9152C25.1752 29.8506 25.0847 29.7819 24.9973 29.7088C24.9098 29.636 24.8259 29.5592 24.7455 29.4788ZM30.9251 28.6126L30.2765 29.265L27.8643 26.8532C27.9458 26.7942 28.0235 26.7307 28.0976 26.6628L28.5363 26.2239C28.5692 26.1913 28.605 26.1619 28.6436 26.1361C28.6821 26.1106 28.7226 26.0889 28.7655 26.0712C28.8084 26.0536 28.8524 26.04 28.8978 26.031C28.9434 26.022 28.9893 26.0174 29.0355 26.0174C29.0819 26.0174 29.1278 26.022 29.1732 26.031C29.2186 26.04 29.2628 26.0536 29.3055 26.0712C29.3484 26.0889 29.3891 26.1106 29.4277 26.1361C29.4663 26.1619 29.5018 26.1913 29.5347 26.2239L30.9251 27.6145C30.9582 27.6473 30.9875 27.6829 31.0136 27.7218C31.0394 27.7603 31.0614 27.8011 31.0793 27.8442C31.0973 27.8872 31.1106 27.9314 31.1198 27.9771C31.1288 28.0227 31.1334 28.0689 31.1334 28.1153C31.1334 28.162 31.1288 28.2082 31.1198 28.2538C31.1106 28.2995 31.0973 28.3437 31.0793 28.3866C31.0614 28.4298 31.0394 28.4706 31.0136 28.5091C30.9875 28.548 30.9582 28.5836 30.9251 28.6164V28.6126Z" fill="#0078D4" stroke="#0078D4" stroke-width="0.25"/>
<path d="M24.5898 12.041C24.3934 12.041 24.1972 12.0459 24.001 12.0555C23.8048 12.065 23.6089 12.0795 23.4136 12.0989C23.2183 12.118 23.0233 12.142 22.8291 12.1709C22.6347 12.1996 22.4414 12.2331 22.2487 12.2716C22.0563 12.3098 21.8644 12.3529 21.674 12.4007C21.4837 12.4484 21.2944 12.5008 21.1063 12.5578C20.9185 12.6148 20.7322 12.6764 20.547 12.7424C20.3621 12.8087 20.179 12.8793 19.9975 12.9545C19.8161 13.0297 19.6367 13.1093 19.4591 13.1932C19.2817 13.2771 19.1063 13.3654 18.933 13.458C18.76 13.5506 18.589 13.6472 18.4206 13.7482C18.2522 13.8492 18.0864 13.9542 17.9229 14.0633C17.7597 14.1724 17.5991 14.2855 17.4414 14.4024C17.2837 14.5196 17.1289 14.6403 16.977 14.765C16.8254 14.8894 16.6766 15.0176 16.5311 15.1495C16.3856 15.2815 16.2435 15.4169 16.1046 15.5558C15.9657 15.6947 15.8303 15.8367 15.6984 15.9823C15.5664 16.1278 15.4382 16.2765 15.3138 16.4282C15.1891 16.5801 15.0684 16.7349 14.9512 16.8926C14.8343 17.0503 14.7212 17.2109 14.6121 17.3741C14.503 17.5375 14.398 17.7033 14.297 17.8717C14.196 18.0401 14.0994 18.2112 14.0068 18.3842C13.9142 18.5575 13.826 18.7329 13.742 18.9102C13.6581 19.0879 13.5786 19.2673 13.5033 19.4487C13.4281 19.6301 13.3575 19.8133 13.2912 19.9982C13.2253 20.1834 13.1636 20.3697 13.1066 20.5575C13.0496 20.7456 12.9973 20.9348 12.9495 21.1252C12.9018 21.3159 12.8587 21.5075 12.8205 21.6999C12.782 21.8926 12.7484 22.0859 12.7198 22.2803C12.6908 22.4745 12.6668 22.6695 12.6477 22.8648C12.6283 23.0601 12.6139 23.256 12.6043 23.4522C12.5948 23.6484 12.5898 23.8445 12.5898 24.041C12.5898 24.2375 12.5948 24.4337 12.6043 24.6298C12.6139 24.826 12.6283 25.0219 12.6477 25.2172C12.6668 25.4125 12.6908 25.6076 12.7198 25.8017C12.7484 25.9962 12.782 26.1895 12.8205 26.3822C12.8587 26.5746 12.9018 26.7661 12.9495 26.9568C12.9973 27.1472 13.0496 27.3364 13.1066 27.5245C13.1636 27.7123 13.2253 27.8987 13.2912 28.0836C13.3575 28.2687 13.4281 28.4519 13.5033 28.6333C13.5786 28.8147 13.6581 28.9941 13.742 29.1718C13.826 29.3492 13.9142 29.5245 14.0068 29.6978C14.0994 29.8709 14.196 30.0419 14.297 30.2103C14.398 30.3787 14.503 30.5445 14.6121 30.708C14.7212 30.8712 14.8343 31.0318 14.9512 31.1895C15.0684 31.3472 15.1891 31.502 15.3138 31.6539C15.4382 31.8055 15.5664 31.9542 15.6984 32.0998C15.8303 32.2453 15.9657 32.3874 16.1046 32.5263C16.2435 32.6651 16.3856 32.8006 16.5311 32.9325C16.6766 33.0645 16.8254 33.1926 16.977 33.3171C17.1289 33.4418 17.2837 33.5624 17.4414 33.6796C17.5991 33.7965 17.7597 33.9097 17.9229 34.0187C18.0864 34.1278 18.2522 34.2329 18.4206 34.3338C18.589 34.4348 18.76 34.5315 18.933 34.6241C19.1063 34.7167 19.2817 34.8049 19.4591 34.8888C19.6367 34.9727 19.8161 35.0523 19.9975 35.1275C20.179 35.2028 20.3621 35.2734 20.547 35.3396C20.7322 35.4056 20.9185 35.4672 21.1063 35.5242C21.2944 35.5812 21.4837 35.6336 21.674 35.6814C21.8644 35.7291 22.0563 35.7722 22.2487 35.8104C22.4414 35.8489 22.6347 35.8825 22.8291 35.9111C23.0233 35.94 23.2183 35.964 23.4136 35.9831C23.6089 36.0025 23.8048 36.017 24.001 36.0265C24.1972 36.0361 24.3934 36.041 24.5898 36.041C24.7863 36.041 24.9825 36.0361 25.1787 36.0265C25.3749 36.017 25.5707 36.0025 25.7661 35.9831C25.9614 35.964 26.1564 35.94 26.3505 35.9111C26.545 35.8825 26.7383 35.8489 26.931 35.8104C27.1234 35.7722 27.315 35.7291 27.5056 35.6814C27.696 35.6336 27.8853 35.5812 28.0734 35.5242C28.2611 35.4672 28.4475 35.4056 28.6324 35.3396C28.8176 35.2734 29.0007 35.2028 29.1821 35.1275C29.3636 35.0523 29.543 34.9727 29.7206 34.8888C29.898 34.8049 30.0734 34.7167 30.2467 34.6241C30.4197 34.5315 30.5907 34.4348 30.7591 34.3338C30.9275 34.2329 31.0933 34.1278 31.2568 34.0187C31.42 33.9097 31.5806 33.7965 31.7383 33.6796C31.896 33.5624 32.0508 33.4418 32.2027 33.3171C32.3543 33.1926 32.503 33.0645 32.6486 32.9325C32.7941 32.8006 32.9362 32.6651 33.0751 32.5263C33.214 32.3874 33.3494 32.2453 33.4813 32.0998C33.6133 31.9542 33.7415 31.8055 33.8659 31.6539C33.9906 31.502 34.1113 31.3472 34.2284 31.1895C34.3453 31.0318 34.4585 30.8712 34.5676 30.708C34.6766 30.5445 34.7817 30.3787 34.8827 30.2103C34.9837 30.0419 35.0803 29.8709 35.1729 29.6978C35.2655 29.5245 35.3537 29.3492 35.4376 29.1718C35.5216 28.9941 35.6011 28.8147 35.6764 28.6333C35.7516 28.4519 35.8222 28.2687 35.8885 28.0836C35.9544 27.8987 36.0161 27.7123 36.0731 27.5245C36.1301 27.3364 36.1824 27.1472 36.2302 26.9568C36.2779 26.7661 36.321 26.5746 36.3592 26.3822C36.3977 26.1895 36.4313 25.9962 36.4599 25.8017C36.4889 25.6076 36.5129 25.4125 36.532 25.2172C36.5514 25.0219 36.5658 24.826 36.5754 24.6298C36.5849 24.4337 36.5898 24.2375 36.5898 24.041C36.5898 23.8445 36.5849 23.6484 36.5754 23.4522C36.5658 23.256 36.5514 23.0601 36.532 22.8648C36.5129 22.6695 36.4889 22.4745 36.4599 22.2803C36.4313 22.0859 36.3977 21.8926 36.3592 21.6999C36.321 21.5075 36.2779 21.3159 36.2302 21.1252C36.1824 20.9348 36.1301 20.7456 36.0731 20.5575C36.0161 20.3697 35.9544 20.1834 35.8885 19.9982C35.8222 19.8133 35.7516 19.6301 35.6764 19.4487C35.6011 19.2673 35.5216 19.0879 35.4376 18.9102C35.3537 18.7329 35.2655 18.5575 35.1729 18.3842C35.0803 18.2112 34.9837 18.0401 34.8827 17.8717C34.7817 17.7033 34.6766 17.5375 34.5676 17.3741C34.4585 17.2109 34.3453 17.0503 34.2284 16.8926C34.1113 16.7349 33.9906 16.5801 33.8659 16.4282C33.7415 16.2765 33.6133 16.1278 33.4813 15.9823C33.3494 15.8367 33.214 15.6947 33.0751 15.5558C32.9362 15.4169 32.7941 15.2815 32.6486 15.1495C32.503 15.0176 32.3543 14.8894 32.2027 14.765C32.0508 14.6403 31.896 14.5196 31.7383 14.4024C31.5806 14.2855 31.42 14.1724 31.2568 14.0633C31.0933 13.9542 30.9275 13.8492 30.7591 13.7482C30.5907 13.6472 30.4197 13.5506 30.2467 13.458C30.0734 13.3654 29.898 13.2771 29.7206 13.1932C29.543 13.1093 29.3636 13.0297 29.1821 12.9545C29.0007 12.8793 28.8176 12.8087 28.6324 12.7424C28.4475 12.6764 28.2611 12.6148 28.0734 12.5578C27.8853 12.5008 27.696 12.4484 27.5056 12.4007C27.315 12.3529 27.1234 12.3098 26.931 12.2716C26.7383 12.2331 26.545 12.1996 26.3505 12.1709C26.1564 12.142 25.9614 12.118 25.7661 12.0989C25.5707 12.0795 25.3749 12.065 25.1787 12.0555C24.9825 12.0459 24.7863 12.041 24.5898 12.041ZM24.5898 35.2424C24.4064 35.2424 24.2232 35.2378 24.0401 35.2288C23.8572 35.2198 23.6743 35.2065 23.492 35.1886C23.3095 35.1704 23.1275 35.1481 22.9463 35.1212C22.7649 35.0943 22.5843 35.063 22.4047 35.0271C22.2247 34.9915 22.0459 34.9513 21.8682 34.9068C21.6902 34.8622 21.5137 34.8133 21.3384 34.7601C21.1628 34.7068 20.9889 34.6492 20.8161 34.5876C20.6437 34.526 20.4727 34.46 20.3034 34.3897C20.1338 34.3197 19.9663 34.2453 19.8005 34.1669C19.635 34.0885 19.4712 34.0063 19.3095 33.9198C19.148 33.8333 18.9883 33.743 18.8312 33.6487C18.674 33.5546 18.5192 33.4565 18.3668 33.3547C18.2143 33.2528 18.0644 33.1472 17.9171 33.0381C17.7698 32.9287 17.6254 32.8162 17.4837 32.6999C17.3422 32.5836 17.2033 32.4638 17.0676 32.3408C16.9316 32.2175 16.7988 32.0911 16.6694 31.9614C16.5398 31.8321 16.4133 31.6993 16.2901 31.5633C16.1671 31.4276 16.0473 31.2887 15.931 31.1472C15.8147 31.0054 15.7021 30.861 15.5927 30.7138C15.4837 30.5665 15.378 30.4166 15.2762 30.2641C15.1743 30.1116 15.0762 29.9568 14.9822 29.7997C14.8879 29.6426 14.7976 29.4829 14.7111 29.3214C14.6246 29.1597 14.5424 28.9959 14.464 28.8301C14.3856 28.6646 14.3112 28.497 14.2412 28.3275C14.1709 28.1582 14.1049 27.9872 14.0433 27.8147C13.9816 27.642 13.924 27.4681 13.8708 27.2925C13.8176 27.1171 13.7687 26.9406 13.7241 26.7627C13.6795 26.585 13.6393 26.4062 13.6037 26.2262C13.5679 26.0465 13.5366 25.866 13.5097 25.6845C13.4828 25.5034 13.4605 25.3214 13.4423 25.1388C13.4243 24.9565 13.411 24.7737 13.4021 24.5908C13.3931 24.4076 13.3885 24.2245 13.3885 24.041C13.3885 23.8576 13.3931 23.6744 13.4021 23.4915C13.411 23.3084 13.4243 23.1255 13.4423 22.9432C13.4605 22.7606 13.4828 22.5786 13.5097 22.3975C13.5366 22.2161 13.5679 22.0355 13.6037 21.8558C13.6393 21.6759 13.6795 21.497 13.7241 21.3194C13.7687 21.1414 13.8176 20.9649 13.8708 20.7896C13.924 20.6139 13.9816 20.44 14.0433 20.2673C14.1049 20.0948 14.1709 19.9238 14.2412 19.7546C14.3112 19.585 14.3856 19.4175 14.464 19.252C14.5424 19.0862 14.6246 18.9224 14.7111 18.7606C14.7976 18.5992 14.8879 18.4395 14.9822 18.2823C15.0762 18.1252 15.1743 17.9704 15.2762 17.8179C15.378 17.6654 15.4837 17.5156 15.5927 17.3683C15.7021 17.221 15.8147 17.0766 15.931 16.9348C16.0473 16.7933 16.1671 16.6544 16.2901 16.5187C16.4133 16.3827 16.5398 16.2499 16.6694 16.1206C16.7988 15.991 16.9316 15.8645 17.0676 15.7412C17.2033 15.6183 17.3422 15.4985 17.4837 15.3822C17.6254 15.2658 17.7698 15.1533 17.9171 15.0439C18.0644 14.9348 18.2143 14.8292 18.3668 14.7274C18.5192 14.6255 18.674 14.5274 18.8312 14.4334C18.9883 14.339 19.148 14.2488 19.3095 14.1623C19.4712 14.0757 19.635 13.9936 19.8005 13.9151C19.9663 13.8367 20.1338 13.7624 20.3034 13.6923C20.4727 13.622 20.6437 13.5561 20.8161 13.4944C20.9889 13.4328 21.1628 13.3752 21.3384 13.322C21.5137 13.2687 21.6902 13.2198 21.8682 13.1753C22.0459 13.1307 22.2247 13.0905 22.4047 13.0549C22.5843 13.019 22.7649 12.9878 22.9463 12.9609C23.1275 12.934 23.3095 12.9117 23.492 12.8934C23.6743 12.8755 23.8572 12.8622 24.0401 12.8532C24.2232 12.8443 24.4064 12.8396 24.5898 12.8396C24.7733 12.8396 24.9565 12.8443 25.1396 12.8532C25.3225 12.8622 25.5054 12.8755 25.6876 12.8934C25.8702 12.9117 26.0522 12.934 26.2334 12.9609C26.4148 12.9878 26.5953 13.019 26.775 13.0549C26.955 13.0905 27.1338 13.1307 27.3115 13.1753C27.4894 13.2198 27.6659 13.2687 27.8413 13.322C28.0169 13.3752 28.1908 13.4328 28.3636 13.4944C28.536 13.5561 28.707 13.622 28.8763 13.6923C29.0459 13.7624 29.2134 13.8367 29.3789 13.9151C29.5447 13.9936 29.7085 14.0757 29.8702 14.1623C30.0317 14.2488 30.1914 14.339 30.3485 14.4334C30.5056 14.5274 30.6604 14.6255 30.8129 14.7274C30.9654 14.8292 31.1153 14.9348 31.2626 15.0439C31.4099 15.1533 31.5543 15.2658 31.696 15.3822C31.8375 15.4985 31.9764 15.6183 32.1121 15.7412C32.2481 15.8645 32.3809 15.991 32.5103 16.1206C32.6399 16.2499 32.7663 16.3827 32.8896 16.5187C33.0126 16.6544 33.1324 16.7933 33.2487 16.9348C33.365 17.0766 33.4776 17.221 33.587 17.3683C33.696 17.5156 33.8016 17.6654 33.9035 17.8179C34.0054 17.9704 34.1034 18.1252 34.1975 18.2823C34.2918 18.4395 34.3821 18.5992 34.4686 18.7606C34.5551 18.9224 34.6373 19.0862 34.7157 19.2517C34.7941 19.4175 34.8685 19.585 34.9385 19.7546C35.0088 19.9238 35.0748 20.0948 35.1364 20.2673C35.1981 20.44 35.2556 20.6139 35.3089 20.7896C35.3621 20.9649 35.411 21.1414 35.4556 21.3194C35.5001 21.497 35.5404 21.6759 35.576 21.8558C35.6118 22.0355 35.6431 22.2161 35.67 22.3975C35.6969 22.5786 35.7192 22.7606 35.7374 22.9432C35.7554 23.1255 35.7687 23.3084 35.7776 23.4912C35.7866 23.6744 35.7912 23.8576 35.7912 24.041C35.7909 24.2242 35.7863 24.4073 35.7771 24.5905C35.7678 24.7734 35.7539 24.9559 35.7357 25.1385C35.7174 25.3208 35.6949 25.5025 35.668 25.6837C35.6408 25.8651 35.6092 26.0454 35.5734 26.225C35.5372 26.4047 35.497 26.5836 35.4524 26.7612C35.4076 26.9389 35.3587 27.1154 35.3051 27.2907C35.2519 27.4661 35.1943 27.64 35.1324 27.8124C35.0705 27.9849 35.0045 28.1559 34.9342 28.3252C34.8639 28.4941 34.7895 28.6617 34.7111 28.8272C34.6327 28.993 34.5502 29.1565 34.4637 29.3179C34.3772 29.4797 34.2869 29.6388 34.1926 29.7959C34.0982 29.9533 34.0001 30.1079 33.8983 30.2603C33.7964 30.4125 33.6911 30.5624 33.5817 30.7094C33.4727 30.8567 33.3598 31.0011 33.2435 31.1426C33.1272 31.2844 33.0077 31.423 32.8844 31.5587C32.7614 31.6944 32.6353 31.8272 32.5056 31.9568C32.376 32.0864 32.2432 32.2126 32.1075 32.3356C31.9718 32.4588 31.8332 32.5783 31.6914 32.6947C31.5499 32.811 31.4055 32.9238 31.2582 33.0329C31.1113 33.1423 30.9614 33.2476 30.8092 33.3495C30.6567 33.4513 30.5022 33.5494 30.3448 33.6437C30.1876 33.7381 30.0285 33.8283 29.8668 33.9149C29.7053 34.0014 29.5418 34.0838 29.376 34.1623C29.2105 34.2407 29.043 34.315 28.874 34.3853C28.7047 34.4557 28.5337 34.5216 28.3613 34.5836C28.1888 34.6455 28.0149 34.7031 27.8396 34.7563C27.6642 34.8098 27.4877 34.8587 27.31 34.9036C27.1324 34.9481 26.9536 34.9884 26.7739 35.0245C26.5942 35.0604 26.4139 35.0919 26.2325 35.1191C26.0514 35.1461 25.8696 35.1686 25.6874 35.1868C25.5048 35.2051 25.3222 35.219 25.1393 35.2282C24.9562 35.2375 24.773 35.2421 24.5898 35.2424Z" fill="#0078D4" stroke="#0078D4" stroke-width="0.25"/>
</svg>
