<svg width="25" height="26" viewBox="0 0 25 26" fill="none" xmlns="http://www.w3.org/2000/svg">
<path d="M17.954 14.6546C17.92 14.6209 17.8847 14.5891 17.8478 14.559C17.8106 14.5288 17.7723 14.5006 17.7326 14.4742C17.6927 14.4479 17.652 14.4234 17.6099 14.4012C17.5675 14.3786 17.5246 14.3582 17.4803 14.3403C17.4363 14.3221 17.3915 14.3061 17.3456 14.2922C17.3 14.2784 17.2538 14.267 17.2071 14.2577C17.1601 14.2485 17.1131 14.2415 17.0656 14.2368C17.018 14.2322 16.9705 14.2298 16.9227 14.2298C16.8749 14.2298 16.8274 14.2322 16.7798 14.2368C16.7326 14.2415 16.6853 14.2485 16.6386 14.2577C16.5916 14.267 16.5454 14.2784 16.4998 14.2922C16.4542 14.3061 16.4091 14.3221 16.3651 14.3403C16.3211 14.3582 16.2779 14.3786 16.2358 14.4012C16.1937 14.4234 16.1527 14.4479 16.1128 14.4742C16.0731 14.5006 16.0348 14.5288 15.9979 14.559C15.9607 14.5891 15.9254 14.6209 15.8914 14.6546L15.4525 15.0935C15.4213 15.1236 15.389 15.1519 15.355 15.179C15.3211 15.2059 15.2857 15.2309 15.2493 15.2545C15.2132 15.2782 15.1757 15.2999 15.1372 15.3197C15.0989 15.3398 15.0595 15.3577 15.0193 15.374C14.9791 15.3903 14.9384 15.4045 14.8968 15.4167C14.8552 15.4289 14.8132 15.4392 14.7708 15.4477C14.7281 15.4558 14.6855 15.462 14.6423 15.4661C14.5991 15.4702 14.5559 15.4724 14.5128 15.4724C14.4693 15.4724 14.4261 15.4702 14.3829 15.4661C14.34 15.462 14.2971 15.4558 14.2545 15.4477C14.2121 15.4392 14.17 15.4289 14.1284 15.4167C14.0869 15.4045 14.0461 15.3903 14.0059 15.374C13.9657 15.3577 13.9264 15.3398 13.8881 15.3197C13.8495 15.2999 13.8123 15.2782 13.7759 15.2545C13.7395 15.2309 13.7042 15.2059 13.6705 15.179C13.6366 15.1519 13.604 15.1236 13.5727 15.0935L10.3838 11.9046C10.3528 11.8739 10.3238 11.8415 10.2961 11.8079C10.2684 11.7745 10.2426 11.7394 10.2184 11.7033C10.1942 11.6672 10.1717 11.6297 10.1513 11.5914C10.1307 11.5528 10.1119 11.5137 10.0954 11.4735C10.0788 11.4333 10.0641 11.3923 10.0514 11.3505C10.0386 11.3089 10.028 11.2668 10.0196 11.2239C10.0112 11.1813 10.0047 11.1384 10.0006 11.0949C9.99623 11.0517 9.99406 11.0083 9.99406 10.9645C9.99406 10.9211 9.99623 10.8776 10.0006 10.8344C10.0047 10.791 10.0112 10.7481 10.0196 10.7052C10.028 10.6625 10.0386 10.6204 10.0514 10.5786C10.0641 10.537 10.0788 10.496 10.0954 10.4558C10.1119 10.4156 10.1307 10.3762 10.1513 10.3379C10.1717 10.2996 10.1942 10.2622 10.2184 10.226C10.2426 10.1899 10.2684 10.1549 10.2961 10.1212C10.3238 10.0878 10.3528 10.0555 10.3838 10.0248L10.8227 9.58587C10.8564 9.55192 10.8882 9.51661 10.9183 9.4794C10.9485 9.44246 10.9767 9.40416 11.0031 9.36451C11.0294 9.32458 11.0539 9.28357 11.0761 9.24147C11.0987 9.19937 11.1188 9.15619 11.137 9.11219C11.1552 9.06819 11.1712 9.0231 11.185 8.97747C11.1989 8.93184 11.2103 8.88567 11.2195 8.83868C11.2288 8.79196 11.2358 8.7447 11.2405 8.69744C11.2451 8.64991 11.2475 8.60238 11.2475 8.55458C11.2475 8.50678 11.2451 8.45925 11.2405 8.41172C11.2358 8.36419 11.2288 8.3172 11.2195 8.27021C11.2103 8.22349 11.1989 8.17732 11.185 8.13169C11.1712 8.08579 11.1552 8.04098 11.137 7.99697C11.1188 7.9527 11.0987 7.90979 11.0761 7.86742C11.0539 7.82532 11.0294 7.78458 11.0031 7.74465C10.9767 7.705 10.9485 7.6667 10.9183 7.62949C10.8882 7.59255 10.8564 7.55725 10.8227 7.5233L9.43211 6.13268C9.39789 6.10008 9.36203 6.06885 9.32482 6.03952C9.28761 6.00991 9.24905 5.98248 9.20912 5.95668C9.16919 5.93087 9.12818 5.90724 9.08581 5.88552C9.04371 5.86352 9.00053 5.84396 8.95653 5.82631C8.91253 5.80838 8.86771 5.7929 8.82208 5.77959C8.77645 5.76601 8.73055 5.75487 8.68384 5.74591C8.63739 5.73695 8.5904 5.73016 8.54314 5.72554C8.49588 5.72119 8.44835 5.71875 8.40082 5.71875C8.35356 5.71875 8.30603 5.72119 8.25877 5.72554C8.21151 5.73016 8.16453 5.73695 8.11808 5.74591C8.07137 5.75487 8.02519 5.76601 7.97983 5.77959C7.9342 5.7929 7.88939 5.80838 7.84539 5.82631C7.80139 5.84396 7.7582 5.86352 7.71583 5.88552C7.67374 5.90724 7.63272 5.93087 7.5928 5.95668C7.55287 5.98248 7.5143 6.00991 7.47709 6.03952C7.43988 6.06885 7.40403 6.10008 7.36981 6.13268L6.50366 6.99883L6.46862 7.04174V7.06102C6.3665 7.16586 6.26954 7.27532 6.17828 7.38939C6.08675 7.50347 6.00092 7.62189 5.92107 7.74411C5.84121 7.8666 5.76734 7.99263 5.69971 8.12246C5.63208 8.25201 5.5707 8.38483 5.5161 8.52036C5.46124 8.65589 5.41316 8.79386 5.37188 8.93428C5.3306 9.07443 5.29637 9.21648 5.26867 9.36016C5.24124 9.50384 5.22087 9.64833 5.20729 9.79419C5.19398 9.93977 5.18773 10.0856 5.18855 10.232C5.18936 10.3781 5.19724 10.524 5.21218 10.6696C5.22739 10.8149 5.24939 10.9594 5.27845 11.1028C5.30751 11.2459 5.34336 11.3877 5.38628 11.5276C5.42919 11.6672 5.47862 11.8046 5.53484 11.9396C5.59107 12.0749 5.65381 12.2066 5.72307 12.3356C5.79205 12.4646 5.86729 12.5898 5.9485 12.7112C6.02971 12.8329 6.11689 12.9502 6.20951 13.0632C6.3024 13.1765 6.40018 13.2849 6.50366 13.3883L12.089 18.9736C12.1411 19.0258 12.1946 19.0766 12.2492 19.126C12.3041 19.1754 12.3597 19.2235 12.417 19.2702C12.4741 19.3169 12.5322 19.3623 12.5914 19.406C12.6506 19.45 12.7109 19.4924 12.7723 19.5331C12.8337 19.5741 12.8959 19.6135 12.9592 19.6513C13.0225 19.689 13.0868 19.7254 13.1517 19.7602C13.2169 19.795 13.2827 19.8278 13.3495 19.8593C13.416 19.8908 13.4834 19.9207 13.5515 19.949C13.6197 19.9769 13.6884 20.0036 13.758 20.0283C13.8275 20.053 13.8973 20.0761 13.9679 20.0975C14.0385 20.119 14.1097 20.1385 14.1811 20.1565C14.2526 20.1744 14.3245 20.1904 14.3968 20.2048C14.4693 20.2192 14.5418 20.2317 14.6149 20.2426C14.6877 20.2534 14.761 20.2624 14.8343 20.2695C14.9077 20.2768 14.9813 20.2822 15.0549 20.2858C15.1285 20.2893 15.2021 20.2912 15.276 20.2912C15.3496 20.2912 15.4232 20.2893 15.4971 20.2858C15.5707 20.2822 15.644 20.2768 15.7176 20.2695C15.7909 20.2624 15.864 20.2534 15.9371 20.2426C16.0098 20.2317 16.0826 20.2192 16.1549 20.2048C16.2271 20.1904 16.2991 20.1744 16.3705 20.1565C16.4422 20.1385 16.5131 20.119 16.5837 20.0975C16.6544 20.0761 16.7244 20.053 16.7937 20.0283C16.8632 20.0036 16.9319 19.9769 17.0001 19.949C17.0683 19.9207 17.1356 19.8908 17.2025 19.8593C17.269 19.8278 17.335 19.795 17.3999 19.7602C17.4651 19.7254 17.5292 19.689 17.5925 19.6513C17.6558 19.6135 17.718 19.5741 17.7794 19.5331C17.8407 19.4924 17.901 19.45 17.9602 19.406C18.0197 19.3623 18.0778 19.3169 18.1349 19.2702C18.1919 19.2235 18.2479 19.1754 18.3025 19.126C18.3571 19.0766 18.4106 19.0258 18.4627 18.9736L19.3289 18.1075C19.3625 18.0738 19.3943 18.0382 19.4245 18.0013C19.4546 17.9643 19.4829 17.926 19.5095 17.8861C19.5358 17.8465 19.5603 17.8055 19.5825 17.7634C19.6048 17.7213 19.6252 17.6781 19.6434 17.6341C19.6616 17.5898 19.6776 17.545 19.6912 17.4994C19.705 17.4537 19.7167 17.4073 19.7259 17.3606C19.7352 17.3139 19.742 17.2666 19.7466 17.2191C19.7515 17.1715 19.7537 17.124 19.7537 17.0765C19.7537 17.0287 19.7515 16.9811 19.7466 16.9336C19.742 16.8861 19.7352 16.8388 19.7259 16.7921C19.7167 16.7454 19.705 16.6992 19.6912 16.6533C19.6776 16.6077 19.6616 16.5629 19.6434 16.5186C19.6252 16.4746 19.6048 16.4314 19.5825 16.3893C19.5603 16.3472 19.5358 16.3062 19.5095 16.2665C19.4829 16.2269 19.4546 16.1883 19.4245 16.1514C19.3943 16.1144 19.3625 16.0789 19.3289 16.0452L17.954 14.6546ZM7.90188 6.66502C7.93448 6.63162 7.96979 6.60201 8.00835 6.57594C8.04665 6.54986 8.08739 6.52786 8.1303 6.50994C8.17322 6.49174 8.21722 6.47816 8.26285 6.4692C8.30848 6.45996 8.35438 6.45534 8.40082 6.45534C8.44754 6.45534 8.49344 6.45996 8.53907 6.4692C8.58443 6.47816 8.6287 6.49174 8.67161 6.50994C8.71453 6.52786 8.755 6.54986 8.79356 6.57594C8.83213 6.60201 8.86744 6.63162 8.90003 6.66502L10.2907 8.05537C10.3232 8.08823 10.3526 8.12381 10.3781 8.16238C10.4039 8.20095 10.4256 8.24169 10.4433 8.28461C10.4609 8.32725 10.4743 8.37152 10.4832 8.41688C10.4925 8.46223 10.4968 8.50814 10.4968 8.55458C10.4968 8.60075 10.4925 8.64665 10.4832 8.69228C10.4743 8.73764 10.4609 8.78164 10.4433 8.82456C10.4256 8.86747 10.4039 8.90794 10.3781 8.94651C10.3526 8.98507 10.3232 9.02093 10.2907 9.05379L9.85174 9.50411C9.78384 9.57826 9.72028 9.65594 9.66134 9.73715L7.24922 7.3253L7.90188 6.66502ZM12.6327 18.4378L7.03954 12.8446C6.95914 12.7642 6.88282 12.6803 6.81003 12.5928C6.73724 12.5054 6.6688 12.4149 6.60415 12.3212C6.53978 12.2275 6.47949 12.1311 6.42381 12.0319C6.36813 11.9331 6.3168 11.8315 6.27035 11.7277C6.22363 11.624 6.18208 11.5186 6.14514 11.4111C6.10793 11.3035 6.07615 11.1946 6.04899 11.084C6.02183 10.9735 5.99983 10.8621 5.98272 10.7497C5.96588 10.6372 5.95393 10.5243 5.94741 10.4107C5.94062 10.2975 5.93899 10.1837 5.94252 10.0701C5.94605 9.95661 5.95475 9.84335 5.9686 9.73036C5.98245 9.61764 6.00146 9.50547 6.02536 9.39438C6.04954 9.2833 6.0786 9.1733 6.11255 9.06493C6.1465 8.95628 6.18534 8.84954 6.2288 8.7447C6.27252 8.63959 6.32087 8.53693 6.37383 8.43616C6.4268 8.33567 6.48438 8.23762 6.54603 8.14228C6.60796 8.04695 6.67423 7.9546 6.7443 7.86497L9.32347 10.4441C9.30011 10.5313 9.28272 10.6193 9.27105 10.7087C9.25937 10.798 9.25366 10.8877 9.25366 10.9778C9.25366 11.068 9.25964 11.1576 9.27132 11.247C9.283 11.3364 9.30038 11.4244 9.32374 11.5115C9.34682 11.5985 9.37561 11.6837 9.41011 11.7669C9.44433 11.8502 9.48398 11.9309 9.52907 12.0089C9.57389 12.0871 9.62359 12.1618 9.67818 12.2335C9.73305 12.3052 9.79198 12.3728 9.85554 12.4366L13.0445 15.6256C13.1409 15.7225 13.246 15.8092 13.3595 15.8852C13.4731 15.9613 13.5931 16.0256 13.7194 16.0778C13.8457 16.1302 13.9761 16.1696 14.1102 16.1962C14.2444 16.2225 14.3797 16.2358 14.5166 16.2353C14.6931 16.2326 14.8667 16.2081 15.037 16.1617L17.6161 18.7368C17.5265 18.8071 17.4341 18.8734 17.3385 18.9353C17.2432 18.9973 17.1449 19.0546 17.0444 19.1075C16.9436 19.1608 16.8407 19.2091 16.7356 19.2526C16.6305 19.2963 16.5234 19.3351 16.4151 19.3691C16.3064 19.403 16.1964 19.4321 16.0851 19.456C15.9737 19.4802 15.8618 19.4989 15.7488 19.5128C15.6358 19.5266 15.5223 19.5353 15.4088 19.5386C15.295 19.5421 15.1812 19.5405 15.0676 19.5337C14.9538 19.5269 14.8409 19.5149 14.7284 19.4978C14.616 19.4807 14.5043 19.4587 14.3938 19.4313C14.2832 19.4041 14.1743 19.3721 14.0668 19.3349C13.959 19.2979 13.8533 19.2558 13.7495 19.2091C13.6458 19.1624 13.5442 19.1111 13.4451 19.0551C13.3462 18.9992 13.2498 18.9389 13.1561 18.8742C13.0624 18.8096 12.9719 18.7409 12.8845 18.6678C12.797 18.595 12.7131 18.5181 12.6327 18.4378ZM18.8123 17.5716L18.1637 18.224L15.7515 15.8121C15.833 15.7532 15.9107 15.6897 15.9849 15.6217L16.4235 15.1828C16.4564 15.1502 16.4922 15.1209 16.5308 15.0951C16.5694 15.0696 16.6098 15.0478 16.6527 15.0302C16.6956 15.0125 16.7396 14.999 16.785 14.99C16.8306 14.981 16.8765 14.9764 16.9227 14.9764C16.9692 14.9764 17.0151 14.981 17.0604 14.99C17.1058 14.999 17.15 15.0125 17.1927 15.0302C17.2356 15.0478 17.2763 15.0696 17.3149 15.0951C17.3535 15.1209 17.3891 15.1502 17.4219 15.1828L18.8123 16.5735C18.8454 16.6063 18.8747 16.6419 18.9008 16.6807C18.9266 16.7193 18.9486 16.76 18.9665 16.8032C18.9845 16.8461 18.9978 16.8904 19.007 16.936C19.016 16.9817 19.0206 17.0279 19.0206 17.0743C19.0206 17.121 19.016 17.1672 19.007 17.2128C18.9978 17.2584 18.9845 17.3027 18.9665 17.3456C18.9486 17.3888 18.9266 17.4296 18.9008 17.4681C18.8747 17.507 18.8454 17.5425 18.8123 17.5754V17.5716Z" fill="#0078D4" stroke="#0078D4" stroke-width="0.25"/>
<path d="M12.4775 1C12.2811 1 12.0849 1.00492 11.8887 1.01447C11.6925 1.02402 11.4966 1.03848 11.3013 1.05787C11.106 1.07697 10.911 1.10098 10.7168 1.12992C10.5224 1.15856 10.3291 1.19213 10.1364 1.23061C9.94397 1.26881 9.75213 1.31192 9.56174 1.35966C9.37135 1.40741 9.18211 1.45978 8.99403 1.51678C8.80624 1.57378 8.6199 1.63542 8.43472 1.70139C8.24982 1.76765 8.06666 1.83825 7.88524 1.91348C7.70381 1.98872 7.52441 2.06829 7.34675 2.1522C7.16938 2.23611 6.99403 2.32436 6.82071 2.41696C6.64768 2.50955 6.47667 2.60619 6.30827 2.70718C6.13987 2.80816 5.97407 2.91319 5.81058 3.02228C5.64739 3.13137 5.4868 3.2445 5.3291 3.3614C5.1714 3.47859 5.0166 3.59925 4.86469 3.72396C4.71307 3.84838 4.56434 3.97656 4.4188 4.10851C4.27326 4.24045 4.13118 4.37587 3.9923 4.51476C3.85341 4.65365 3.71799 4.79572 3.58605 4.94126C3.4541 5.08681 3.32592 5.23553 3.2015 5.38715C3.07679 5.53906 2.95613 5.69387 2.83894 5.85156C2.72204 6.00926 2.6089 6.16985 2.49982 6.33304C2.39073 6.49653 2.2857 6.66233 2.18472 6.83073C2.08373 6.99913 1.98709 7.17014 1.8945 7.34317C1.8019 7.51649 1.71365 7.69184 1.62974 7.86921C1.54583 8.04688 1.46625 8.22627 1.39102 8.4077C1.31579 8.58912 1.24519 8.77228 1.17893 8.95718C1.11296 9.14236 1.05132 9.3287 0.994321 9.51649C0.937319 9.70457 0.884946 9.89381 0.837203 10.0842C0.78946 10.2749 0.746347 10.4664 0.708152 10.6589C0.669669 10.8516 0.636104 11.0448 0.607458 11.2393C0.578523 11.4334 0.554507 11.6285 0.535409 11.8238C0.516023 12.0191 0.501555 12.215 0.492007 12.4112C0.482458 12.6073 0.477539 12.8035 0.477539 13C0.477539 13.1965 0.482458 13.3927 0.492007 13.5888C0.501555 13.785 0.516023 13.9809 0.535409 14.1762C0.554507 14.3715 0.578523 14.5666 0.607458 14.7607C0.636104 14.9552 0.669669 15.1484 0.708152 15.3411C0.746347 15.5336 0.78946 15.7251 0.837203 15.9158C0.884946 16.1062 0.937319 16.2954 0.994321 16.4835C1.05132 16.6713 1.11296 16.8576 1.17893 17.0425C1.24519 17.2277 1.31579 17.4109 1.39102 17.5923C1.46625 17.7737 1.54583 17.9531 1.62974 18.1308C1.71365 18.3082 1.8019 18.4835 1.8945 18.6568C1.98709 18.8299 2.08373 19.0009 2.18472 19.1693C2.2857 19.3377 2.39073 19.5035 2.49982 19.667C2.6089 19.8302 2.72204 19.9907 2.83894 20.1484C2.95613 20.3061 3.07679 20.4609 3.2015 20.6128C3.32592 20.7645 3.4541 20.9132 3.58605 21.0587C3.71799 21.2043 3.85341 21.3464 3.9923 21.4852C4.13118 21.6241 4.27326 21.7595 4.4188 21.8915C4.56434 22.0234 4.71307 22.1516 4.86469 22.276C5.0166 22.4008 5.1714 22.5214 5.3291 22.6386C5.4868 22.7555 5.64739 22.8686 5.81058 22.9777C5.97407 23.0868 6.13987 23.1918 6.30827 23.2928C6.47667 23.3938 6.64768 23.4905 6.82071 23.583C6.99403 23.6756 7.16938 23.7639 7.34675 23.8478C7.52441 23.9317 7.70381 24.0113 7.88524 24.0865C8.06666 24.1617 8.24982 24.2323 8.43472 24.2986C8.6199 24.3646 8.80624 24.4262 8.99403 24.4832C9.18211 24.5402 9.37135 24.5926 9.56174 24.6403C9.75213 24.6881 9.94397 24.7312 10.1364 24.7694C10.3291 24.8079 10.5224 24.8414 10.7168 24.8701C10.911 24.899 11.106 24.923 11.3013 24.9421C11.4966 24.9615 11.6925 24.976 11.8887 24.9855C12.0849 24.9951 12.2811 25 12.4775 25C12.674 25 12.8702 24.9951 13.0664 24.9855C13.2626 24.976 13.4584 24.9615 13.6538 24.9421C13.8491 24.923 14.0441 24.899 14.2382 24.8701C14.4327 24.8414 14.626 24.8079 14.8187 24.7694C15.0111 24.7312 15.2027 24.6881 15.3933 24.6403C15.5837 24.5926 15.773 24.5402 15.961 24.4832C16.1488 24.4262 16.3352 24.3646 16.5201 24.2986C16.7053 24.2323 16.8884 24.1617 17.0698 24.0865C17.2513 24.0113 17.4307 23.9317 17.6083 23.8478C17.7857 23.7639 17.961 23.6756 18.1344 23.583C18.3074 23.4905 18.4784 23.3938 18.6468 23.2928C18.8152 23.1918 18.981 23.0868 19.1445 22.9777C19.3077 22.8686 19.4683 22.7555 19.626 22.6386C19.7837 22.5214 19.9385 22.4008 20.0904 22.276C20.242 22.1516 20.3907 22.0234 20.5363 21.8915C20.6818 21.7595 20.8239 21.6241 20.9628 21.4852C21.1017 21.3464 21.2371 21.2043 21.369 21.0587C21.501 20.9132 21.6292 20.7645 21.7536 20.6128C21.8783 20.4609 21.999 20.3061 22.1161 20.1484C22.233 19.9907 22.3462 19.8302 22.4553 19.667C22.5643 19.5035 22.6694 19.3377 22.7704 19.1693C22.8713 19.0009 22.968 18.8299 23.0606 18.6568C23.1532 18.4835 23.2414 18.3082 23.3253 18.1308C23.4093 17.9531 23.4888 17.7737 23.5641 17.5923C23.6393 17.4109 23.7099 17.2277 23.7761 17.0425C23.8421 16.8576 23.9038 16.6713 23.9608 16.4835C24.0178 16.2954 24.0701 16.1062 24.1179 15.9158C24.1656 15.7251 24.2087 15.5336 24.2469 15.3411C24.2854 15.1484 24.319 14.9552 24.3476 14.7607C24.3766 14.5666 24.4006 14.3715 24.4197 14.1762C24.4391 13.9809 24.4535 13.785 24.4631 13.5888C24.4726 13.3927 24.4775 13.1965 24.4775 13C24.4775 12.8035 24.4726 12.6073 24.4631 12.4112C24.4535 12.215 24.4391 12.0191 24.4197 11.8238C24.4006 11.6285 24.3766 11.4334 24.3476 11.2393C24.319 11.0448 24.2854 10.8516 24.2469 10.6589C24.2087 10.4664 24.1656 10.2749 24.1179 10.0842C24.0701 9.89381 24.0178 9.70457 23.9608 9.51649C23.9038 9.3287 23.8421 9.14236 23.7761 8.95718C23.7099 8.77228 23.6393 8.58912 23.5641 8.4077C23.4888 8.22627 23.4093 8.04688 23.3253 7.86921C23.2414 7.69184 23.1532 7.51649 23.0606 7.34317C22.968 7.17014 22.8713 6.99913 22.7704 6.83073C22.6694 6.66233 22.5643 6.49653 22.4553 6.33304C22.3462 6.16985 22.233 6.00926 22.1161 5.85156C21.999 5.69387 21.8783 5.53906 21.7536 5.38715C21.6292 5.23553 21.501 5.08681 21.369 4.94126C21.2371 4.79572 21.1017 4.65365 20.9628 4.51476C20.8239 4.37587 20.6818 4.24045 20.5363 4.10851C20.3907 3.97656 20.242 3.84838 20.0904 3.72396C19.9385 3.59925 19.7837 3.47859 19.626 3.3614C19.4683 3.2445 19.3077 3.13137 19.1445 3.02228C18.981 2.91319 18.8152 2.80816 18.6468 2.70718C18.4784 2.60619 18.3074 2.50955 18.1344 2.41696C17.961 2.32436 17.7857 2.23611 17.6083 2.1522C17.4307 2.06829 17.2513 1.98872 17.0698 1.91348C16.8884 1.83825 16.7053 1.76765 16.5201 1.70139C16.3352 1.63542 16.1488 1.57378 15.961 1.51678C15.773 1.45978 15.5837 1.40741 15.3933 1.35966C15.2027 1.31192 15.0111 1.26881 14.8187 1.23061C14.626 1.19213 14.4327 1.15856 14.2382 1.12992C14.0441 1.10098 13.8491 1.07697 13.6538 1.05787C13.4584 1.03848 13.2626 1.02402 13.0664 1.01447C12.8702 1.00492 12.674 1 12.4775 1ZM12.4775 24.2014C12.2941 24.2014 12.1109 24.1968 11.9278 24.1878C11.7449 24.1788 11.562 24.1655 11.3797 24.1476C11.1972 24.1293 11.0152 24.1071 10.834 24.0802C10.6526 24.0532 10.472 24.022 10.2924 23.9861C10.1124 23.9505 9.93356 23.9103 9.7559 23.8657C9.57794 23.8212 9.40144 23.7723 9.22609 23.719C9.05046 23.6658 8.87656 23.6082 8.70381 23.5466C8.53136 23.485 8.36035 23.419 8.19108 23.3487C8.02152 23.2786 7.85399 23.2043 7.68819 23.1259C7.52268 23.0475 7.3589 22.9653 7.19716 22.8788C7.0357 22.7922 6.87598 22.702 6.71886 22.6076C6.56174 22.5136 6.40694 22.4155 6.25445 22.3137C6.10196 22.2118 5.95208 22.1062 5.8048 21.9971C5.65752 21.8877 5.51313 21.7752 5.37135 21.6589C5.22985 21.5425 5.09096 21.4227 4.95526 21.2998C4.81926 21.1765 4.68645 21.0501 4.55711 20.9204C4.42748 20.7911 4.30103 20.6583 4.17777 20.5223C4.0548 20.3866 3.935 20.2477 3.81868 20.1062C3.70237 19.9644 3.58981 19.82 3.48043 19.6727C3.37135 19.5255 3.26573 19.3756 3.16388 19.2231C3.06203 19.0706 2.96394 18.9158 2.8699 18.7587C2.77557 18.6016 2.68529 18.4418 2.59878 18.2804C2.51226 18.1186 2.43009 17.9549 2.35167 17.7891C2.27326 17.6236 2.19889 17.456 2.12887 17.2865C2.05856 17.1172 1.99259 16.9462 1.93095 16.7737C1.86932 16.601 1.81174 16.4271 1.7585 16.2514C1.70526 16.0761 1.65636 15.8996 1.6118 15.7216C1.56724 15.544 1.52702 15.3652 1.49143 15.1852C1.45555 15.0055 1.4243 14.8249 1.39739 14.6435C1.37048 14.4624 1.3482 14.2804 1.32997 14.0978C1.31203 13.9155 1.29872 13.7326 1.28975 13.5498C1.28078 13.3666 1.27615 13.1834 1.27615 13C1.27615 12.8166 1.28078 12.6334 1.28975 12.4505C1.29872 12.2674 1.31203 12.0845 1.32997 11.9022C1.3482 11.7196 1.37048 11.5376 1.39739 11.3565C1.4243 11.1751 1.45555 10.9945 1.49143 10.8148C1.52702 10.6348 1.56724 10.456 1.6118 10.2784C1.65636 10.1004 1.70526 9.9239 1.7585 9.74855C1.81174 9.57292 1.86932 9.39902 1.93095 9.22627C1.99259 9.05382 2.05856 8.88281 2.12887 8.71354C2.19889 8.54398 2.27326 8.37645 2.35167 8.21094C2.43009 8.04514 2.51226 7.88137 2.59878 7.71962C2.68529 7.55816 2.77557 7.39844 2.8699 7.24132C2.96394 7.0842 3.06203 6.9294 3.16388 6.77691C3.26573 6.62442 3.37135 6.47454 3.48043 6.32726C3.58981 6.17998 3.70237 6.03559 3.81868 5.89381C3.935 5.75232 4.0548 5.61343 4.17777 5.47772C4.30103 5.34172 4.42748 5.20891 4.55711 5.07957C4.68645 4.94994 4.81926 4.8235 4.95526 4.70023C5.09096 4.57726 5.22985 4.45747 5.37135 4.34115C5.51313 4.22483 5.65752 4.11227 5.8048 4.00289C5.95208 3.89381 6.10196 3.78819 6.25445 3.68634C6.40694 3.58449 6.56174 3.4864 6.71886 3.39236C6.87598 3.29803 7.0357 3.20775 7.19716 3.12124C7.3589 3.03472 7.52268 2.95255 7.68819 2.87413C7.85399 2.79572 8.02152 2.72135 8.19108 2.65133C8.36035 2.58102 8.53136 2.51505 8.70381 2.45341C8.87656 2.39178 9.05046 2.3342 9.22609 2.28096C9.40144 2.22772 9.57794 2.17882 9.7559 2.13426C9.93356 2.0897 10.1124 2.04948 10.2924 2.01389C10.472 1.97801 10.6526 1.94676 10.834 1.91985C11.0152 1.89294 11.1972 1.87066 11.3797 1.85243C11.562 1.83449 11.7449 1.82118 11.9278 1.81221C12.1109 1.80324 12.2941 1.79861 12.4775 1.79861C12.661 1.79861 12.8441 1.80324 13.0273 1.81221C13.2102 1.82118 13.393 1.83449 13.5753 1.85243C13.7579 1.87066 13.9399 1.89294 14.1211 1.91985C14.3025 1.94676 14.483 1.97801 14.6627 2.01389C14.8427 2.04948 15.0215 2.0897 15.1992 2.13426C15.3771 2.17882 15.5536 2.22772 15.729 2.28096C15.9046 2.3342 16.0785 2.39178 16.2513 2.45341C16.4237 2.51505 16.5947 2.58102 16.764 2.65133C16.9336 2.72135 17.1011 2.79572 17.2666 2.87413C17.4324 2.95255 17.5962 3.03472 17.7579 3.12124C17.9194 3.20775 18.0791 3.29803 18.2362 3.39236C18.3933 3.4864 18.5481 3.58449 18.7006 3.68634C18.8531 3.78819 19.003 3.89381 19.1503 4.00289C19.2976 4.11227 19.4419 4.22483 19.5837 4.34115C19.7252 4.45747 19.8641 4.57726 19.9998 4.70023C20.1358 4.8235 20.2686 4.94994 20.398 5.07957C20.5276 5.20891 20.654 5.34172 20.7773 5.47772C20.9003 5.61343 21.0201 5.75232 21.1364 5.89381C21.2527 6.03559 21.3653 6.17998 21.4746 6.32726C21.5837 6.47454 21.6893 6.62442 21.7912 6.77691C21.893 6.9294 21.9911 7.0842 22.0852 7.24132C22.1795 7.39844 22.2698 7.55816 22.3563 7.71962C22.4428 7.88137 22.525 8.04514 22.6034 8.21065C22.6818 8.37645 22.7562 8.54398 22.8262 8.71354C22.8965 8.88281 22.9625 9.05382 23.0241 9.22627C23.0858 9.39902 23.1433 9.57292 23.1966 9.74855C23.2498 9.9239 23.2987 10.1004 23.3433 10.2784C23.3878 10.456 23.4281 10.6348 23.4636 10.8148C23.4995 10.9945 23.5308 11.1751 23.5577 11.3565C23.5846 11.5376 23.6069 11.7196 23.6251 11.9022C23.643 12.0845 23.6564 12.2674 23.6653 12.4502C23.6743 12.6334 23.6789 12.8166 23.6789 13C23.6786 13.1832 23.674 13.3663 23.6647 13.5495C23.6555 13.7323 23.6416 13.9149 23.6234 14.0975C23.6051 14.2798 23.5826 14.4615 23.5557 14.6427C23.5285 14.8241 23.4969 15.0043 23.461 15.184C23.4249 15.3637 23.3847 15.5425 23.3401 15.7202C23.2952 15.8979 23.2463 16.0744 23.1928 16.2497C23.1396 16.4251 23.082 16.599 23.0201 16.7714C22.9582 16.9439 22.8922 17.1149 22.8219 17.2841C22.7516 17.4531 22.6772 17.6207 22.5988 17.7862C22.5204 17.952 22.4379 18.1155 22.3514 18.2769C22.2649 18.4387 22.1746 18.5978 22.0803 18.7549C21.9859 18.9123 21.8878 19.0668 21.786 19.2193C21.6841 19.3715 21.5788 19.5214 21.4694 19.6684C21.3604 19.8157 21.2475 19.9601 21.1312 20.1016C21.0149 20.2433 20.8954 20.3819 20.7721 20.5177C20.6491 20.6534 20.523 20.7862 20.3933 20.9158C20.2637 21.0454 20.1309 21.1716 19.9952 21.2946C19.8595 21.4178 19.7209 21.5373 19.5791 21.6536C19.4376 21.77 19.2932 21.8828 19.1459 21.9919C18.999 22.1013 18.8491 22.2066 18.6969 22.3084C18.5444 22.4103 18.3899 22.5084 18.2325 22.6027C18.0753 22.697 17.9162 22.7873 17.7544 22.8738C17.593 22.9604 17.4295 23.0428 17.2637 23.1212C17.0982 23.1997 16.9307 23.274 16.7617 23.3443C16.5924 23.4146 16.4214 23.4806 16.249 23.5425C16.0765 23.6045 15.9026 23.662 15.7273 23.7153C15.5519 23.7688 15.3754 23.8177 15.1977 23.8626C15.0201 23.9071 14.8413 23.9473 14.6616 23.9835C14.4819 24.0194 14.3016 24.0509 14.1202 24.0781C13.9391 24.105 13.7573 24.1276 13.5751 24.1458C13.3925 24.1641 13.2099 24.178 13.027 24.1872C12.8439 24.1965 12.6607 24.2011 12.4775 24.2014Z" fill="#0078D4" stroke="#0078D4" stroke-width="0.25"/>
</svg>
