<svg width="25" height="25" viewBox="0 0 25 25" fill="none" xmlns="http://www.w3.org/2000/svg">
<rect x="0.5" y="0.5" width="24" height="24" rx="12" fill="white"/>
<path d="M14.5449 6.0527C14.7469 6.00628 14.9584 6.0239 15.1499 6.10312C15.3414 6.18234 15.5035 6.31923 15.6137 6.49478L16.6056 8.07848C16.6856 8.20603 16.7934 8.31384 16.921 8.39382L18.5047 9.38575C18.6806 9.49585 18.8178 9.65806 18.8972 9.8498C18.9767 10.0415 18.9943 10.2533 18.9478 10.4555L18.5286 12.2757C18.4948 12.4228 18.4948 12.5757 18.5286 12.7228L18.9478 14.544C18.9939 14.7459 18.976 14.9572 18.8966 15.1486C18.8172 15.3399 18.6802 15.5018 18.5047 15.6118L16.921 16.6047C16.7934 16.6847 16.6856 16.7925 16.6056 16.92L15.6137 18.5037C15.5037 18.6795 15.3416 18.8166 15.1501 18.896C14.9586 18.9754 14.747 18.9931 14.5449 18.9468L12.7237 18.5277C12.577 18.494 12.4245 18.494 12.2777 18.5277L10.4565 18.9468C10.2544 18.9931 10.0429 18.9754 9.85132 18.896C9.65978 18.8166 9.49774 18.6795 9.3877 18.5037L8.39577 16.92C8.3155 16.7924 8.20734 16.6846 8.07943 16.6047L6.49673 15.6128C6.32099 15.5027 6.1839 15.3407 6.10449 15.1491C6.02509 14.9576 6.00732 14.7461 6.05365 14.544L6.47178 12.7228C6.50559 12.5757 6.50559 12.4228 6.47178 12.2757L6.05265 10.4555C6.00619 10.2532 6.024 10.0414 6.1036 9.84962C6.1832 9.65786 6.32062 9.49571 6.49673 9.38575L8.07943 8.39382C8.20734 8.31396 8.3155 8.20614 8.39577 8.07848L9.3877 6.49478C9.49781 6.31942 9.65976 6.18265 9.85108 6.10344C10.0424 6.02423 10.2536 6.0065 10.4555 6.0527L12.2777 6.47083C12.4245 6.50449 12.577 6.50449 12.7237 6.47083L14.5449 6.0527Z" stroke="#222222" stroke-width="1.5"/>
<path d="M10.0215 13.0342L12.0522 14.9792L14.9811 10.0195" stroke="#222222" stroke-width="1.5" stroke-linecap="round" stroke-linejoin="round"/>
</svg>
