<svg width="33" height="33" viewBox="0 0 33 33" fill="none" xmlns="http://www.w3.org/2000/svg">
<rect width="32" height="32" transform="translate(0.216797 0.873047)" fill="white"/>
<path fill-rule="evenodd" clip-rule="evenodd" d="M3.69141 6.23047C3.69141 5.40204 4.36298 4.73047 5.19141 4.73047H22.0198C22.4943 4.73047 22.879 5.11512 22.879 5.58961V5.58961C22.879 6.06411 22.4943 6.44876 22.0198 6.44876H6.4097C5.85741 6.44876 5.4097 6.89647 5.4097 7.44876V23.0589C5.4097 23.5334 5.02504 23.918 4.55055 23.918V23.918C4.07606 23.918 3.69141 23.5334 3.69141 23.0589V6.23047Z" fill="#0078D4"/>
<path fill-rule="evenodd" clip-rule="evenodd" d="M20.9647 11.5056C21.0711 11.7397 20.9676 12.0158 20.7334 12.1223L20.1564 12.3845C20.1707 12.4292 20.1784 12.4769 20.1784 12.5263V15.5504L28.2009 19.5617C28.431 19.6767 28.5243 19.9565 28.4092 20.1866C28.2942 20.4166 28.0144 20.5099 27.7844 20.3949L20.1784 16.5919V28.2583C20.1784 28.5155 19.9699 28.724 19.7127 28.724H15.539C14.7868 28.724 14.1755 28.724 13.6935 28.6592C13.1909 28.5916 12.76 28.4459 12.4165 28.1024C12.073 27.7589 11.9273 27.328 11.8597 26.8254C11.7949 26.3435 11.7949 25.7321 11.7949 24.9799L11.7949 16.1852L11.6254 16.2623C11.3912 16.3687 11.1151 16.2652 11.0087 16.031C10.9022 15.7968 11.0058 15.5207 11.2399 15.4143L20.3479 11.2743C20.5821 11.1678 20.8582 11.2714 20.9647 11.5056ZM12.7206 15.7645C12.7244 15.7885 12.7264 15.8132 12.7264 15.8383V24.9463C12.7264 25.7403 12.7274 26.2886 12.7829 26.7012C12.8366 27.1003 12.9335 27.302 13.0752 27.4437C13.2169 27.5854 13.4186 27.6823 13.8177 27.736C14.2303 27.7915 14.7787 27.7925 15.5727 27.7925H19.2469V15.8477C19.2468 15.8412 19.2468 15.8347 19.2469 15.8282V12.798L12.7206 15.7645Z" fill="#0078D4"/>
<path fill-rule="evenodd" clip-rule="evenodd" d="M20.2267 11.0188C20.605 10.8469 21.0509 11.0141 21.2228 11.3923C21.3946 11.7703 21.2275 12.2162 20.8493 12.3881L20.4622 12.5641V15.3787L28.3264 19.3108C28.6979 19.4966 28.8485 19.9483 28.6627 20.3198C28.477 20.6913 28.0252 20.842 27.6536 20.6562L20.4622 17.0604V28.2635C20.4622 28.6788 20.1255 29.0156 19.71 29.0156H15.5174C14.7808 29.0157 14.1537 29.0157 13.6527 28.9483C13.1184 28.8764 12.617 28.7157 12.2114 28.3101C11.8058 27.9045 11.6452 27.4031 11.5733 26.8688C11.5059 26.3678 11.5059 25.7407 11.5059 25.0041L11.5059 16.5919C11.1936 16.6236 10.8824 16.4562 10.7453 16.1547C10.5735 15.7766 10.7406 15.3307 11.1188 15.1588L20.2267 11.0188ZM20.7013 11.6292C20.6603 11.539 20.5539 11.4992 20.4638 11.5401L11.3559 15.6801C11.2658 15.7211 11.2258 15.8275 11.2668 15.9177C11.3078 16.008 11.4142 16.0478 11.5043 16.0068L11.6738 15.9298C11.7624 15.8895 11.8655 15.897 11.9474 15.9497C12.0293 16.0024 12.0787 16.0931 12.0787 16.1904L12.0787 24.9852C12.0787 25.7448 12.0793 26.3339 12.141 26.7925C12.2044 27.2634 12.3351 27.6238 12.6165 27.9052C12.8979 28.1866 13.2582 28.3173 13.7291 28.3807C14.1877 28.4424 14.7768 28.443 15.5364 28.4429H19.71C19.809 28.4429 19.8894 28.3627 19.8894 28.2635V16.5971C19.8894 16.4978 19.9408 16.4057 20.0252 16.3535C20.1097 16.3013 20.2151 16.2966 20.3039 16.341L27.9098 20.144C27.9983 20.1882 28.106 20.1524 28.1504 20.0638C28.1947 19.9751 28.1587 19.8673 28.0701 19.823L20.0477 15.8117C19.9506 15.7632 19.8894 15.6641 19.8894 15.5556V12.5315C19.8894 12.5119 19.8863 12.4936 19.8809 12.4767C19.8368 12.3385 19.9031 12.1891 20.0353 12.129L20.6122 11.8668C20.7023 11.8258 20.7423 11.7194 20.7013 11.6292ZM19.3993 12.5624C19.4812 12.6151 19.5307 12.7058 19.5307 12.8031V15.8394L19.5306 15.8468L19.5308 15.8529L19.5307 27.7978C19.5307 27.9559 19.4025 28.0841 19.2443 28.0841H15.5701C14.7844 28.0841 14.2131 28.0838 13.7769 28.0251C13.3458 27.9671 13.0737 27.8551 12.8701 27.6514C12.6664 27.4478 12.5545 27.1758 12.4965 26.7446C12.4378 26.3085 12.4374 25.7372 12.4374 24.9515V15.8435C12.4374 15.8335 12.4366 15.8239 12.4352 15.8147C12.4149 15.6874 12.4821 15.5623 12.5995 15.509L19.1257 12.5425C19.2144 12.5022 19.3174 12.5097 19.3993 12.5624ZM13.0102 15.9514V24.9515C13.0102 25.7538 13.0118 26.2793 13.0642 26.6683C13.1136 27.0354 13.1954 27.1668 13.2752 27.2465C13.3549 27.3263 13.4863 27.4081 13.8533 27.4575C14.2423 27.5098 14.7678 27.5114 15.5701 27.5114H18.9579V15.8555C18.9577 15.8472 18.9577 15.839 18.9579 15.8307V13.2479L13.0102 15.9514Z" fill="#0078D4"/>
<path fill-rule="evenodd" clip-rule="evenodd" d="M24.6792 15.375C24.9364 15.375 25.145 15.5835 25.145 15.8407V18.3247C25.145 18.582 24.9364 18.7905 24.6792 18.7905C24.422 18.7905 24.2135 18.582 24.2135 18.3247V15.8407C24.2135 15.5835 24.422 15.375 24.6792 15.375ZM15.1055 19.1527C15.1055 18.8955 15.314 18.687 15.5712 18.687H16.3992C16.6564 18.687 16.865 18.8955 16.865 19.1527C16.865 19.41 16.6564 19.6185 16.3992 19.6185H15.5712C15.314 19.6185 15.1055 19.41 15.1055 19.1527ZM27.1632 19.101C27.4204 19.101 27.629 19.3095 27.629 19.5667V24.9823C27.629 25.7342 27.629 26.3455 27.5642 26.8276C27.4966 27.3302 27.3509 27.7613 27.0073 28.1049C26.6638 28.4484 26.233 28.5941 25.7304 28.6617C25.2484 28.7265 24.637 28.7265 23.8849 28.7265H18.0552C17.798 28.7265 17.5895 28.518 17.5895 28.2607C17.5895 28.0035 17.798 27.795 18.0552 27.795H22.9715V24.9487C22.9715 24.6915 23.18 24.483 23.4372 24.483C23.6944 24.483 23.903 24.6915 23.903 24.9487V27.795C24.6691 27.7949 25.2026 27.7928 25.6062 27.7385C26.0052 27.6848 26.207 27.5879 26.3487 27.4462C26.4903 27.3045 26.5873 27.1027 26.641 26.7034C26.6965 26.2907 26.6975 25.7423 26.6975 24.9487V19.5667C26.6975 19.3095 26.906 19.101 27.1632 19.101ZM22.5575 21.6367C22.5575 21.3795 22.766 21.171 23.0232 21.171H23.8512C24.1084 21.171 24.317 21.3795 24.317 21.6367C24.317 21.894 24.1084 22.1025 23.8512 22.1025H23.0232C22.766 22.1025 22.5575 21.894 22.5575 21.6367ZM15.1055 22.4647C15.1055 22.2075 15.314 21.999 15.5712 21.999H16.3992C16.6564 21.999 16.865 22.2075 16.865 22.4647C16.865 22.722 16.6564 22.9305 16.3992 22.9305H15.5712C15.314 22.9305 15.1055 22.722 15.1055 22.4647Z" fill="#0078D4"/>
<path fill-rule="evenodd" clip-rule="evenodd" d="M23.9139 15.8254C23.9139 15.4095 24.2502 15.0723 24.6651 15.0723C25.08 15.0723 25.4162 15.4095 25.4162 15.8254V18.3128C25.4162 18.7286 25.08 19.0659 24.6651 19.0659C24.2502 19.0659 23.9139 18.7286 23.9139 18.3128V15.8254ZM24.6651 15.6457C24.5663 15.6457 24.486 15.7261 24.486 15.8254V18.3128C24.486 18.4121 24.5663 18.4924 24.6651 18.4924C24.7639 18.4924 24.8442 18.4121 24.8442 18.3128V15.8254C24.8442 15.7261 24.7639 15.6457 24.6651 15.6457ZM14.8184 19.1419C14.8184 18.726 15.1546 18.3888 15.5695 18.3888H16.3964C16.8113 18.3888 17.1475 18.726 17.1475 19.1419C17.1475 19.5578 16.8113 19.895 16.3964 19.895H15.5695C15.1546 19.895 14.8184 19.5578 14.8184 19.1419ZM15.5695 18.9623C15.4707 18.9623 15.3904 19.0426 15.3904 19.1419C15.3904 19.2412 15.4707 19.3216 15.5695 19.3216H16.3964C16.4952 19.3216 16.5755 19.2412 16.5755 19.1419C16.5755 19.0426 16.4952 18.9623 16.3964 18.9623H15.5695ZM26.3946 19.5565C26.3946 19.1406 26.7308 18.8033 27.1457 18.8033C27.5606 18.8033 27.8969 19.1406 27.8969 19.5565V24.9984C27.8969 25.7357 27.8969 26.3636 27.8296 26.8654C27.7578 27.4004 27.5974 27.9028 27.1923 28.309C26.7873 28.7151 26.2865 28.876 25.7529 28.948C25.2526 29.0155 24.6263 29.0155 23.8908 29.0155H18.0501C17.6352 29.0155 17.299 28.6782 17.299 28.2623C17.299 27.8465 17.6352 27.5092 18.0501 27.5092H22.6736V24.9458C22.6736 24.5299 23.0099 24.1927 23.4248 24.1927C23.8397 24.1927 24.1759 24.5299 24.1759 24.9458V27.509C24.792 27.5076 25.2219 27.4998 25.5526 27.4552C25.9192 27.4058 26.0503 27.3238 26.13 27.244C26.2096 27.1641 26.2914 27.0325 26.3407 26.6646C26.393 26.275 26.3946 25.7487 26.3946 24.9458V19.5565ZM27.1457 19.3768C27.0469 19.3768 26.9666 19.4572 26.9666 19.5565V24.9458C26.9666 25.7322 26.9662 26.3042 26.9077 26.7411C26.8497 27.1729 26.7379 27.4455 26.5346 27.6494C26.3312 27.8533 26.0595 27.9655 25.6289 28.0235C25.2026 28.0811 24.6475 28.0826 23.8899 28.0827C23.8141 28.0827 23.7413 28.0525 23.6877 27.9987C23.634 27.9449 23.6039 27.872 23.6039 27.7959V24.9458C23.6039 24.8465 23.5236 24.7662 23.4248 24.7662C23.326 24.7662 23.2457 24.8465 23.2457 24.9458V27.7959C23.2457 27.9543 23.1176 28.0827 22.9597 28.0827H18.0501C17.9513 28.0827 17.871 28.163 17.871 28.2623C17.871 28.3616 17.9513 28.442 18.0501 28.442H23.8718C24.6304 28.442 25.2187 28.4414 25.6767 28.3796C26.1469 28.3162 26.5068 28.1853 26.7878 27.9035C27.0688 27.6217 27.1994 27.2606 27.2626 26.789C27.3242 26.3297 27.3248 25.7397 27.3248 24.9794V19.5565C27.3248 19.4572 27.2445 19.3768 27.1457 19.3768ZM22.2602 21.6293C22.2602 21.2134 22.5964 20.8762 23.0113 20.8762H23.8382C24.2531 20.8762 24.5894 21.2134 24.5894 21.6293C24.5894 22.0452 24.2531 22.3824 23.8382 22.3824H23.0113C22.5964 22.3824 22.2602 22.0452 22.2602 21.6293ZM23.0113 21.4496C22.9125 21.4496 22.8323 21.53 22.8323 21.6293C22.8323 21.7286 22.9125 21.8089 23.0113 21.8089H23.8382C23.9371 21.8089 24.0173 21.7286 24.0173 21.6293C24.0173 21.53 23.9371 21.4496 23.8382 21.4496H23.0113ZM14.8184 22.4584C14.8184 22.0426 15.1546 21.7053 15.5695 21.7053H16.3964C16.8113 21.7053 17.1475 22.0426 17.1475 22.4584C17.1475 22.8743 16.8113 23.2115 16.3964 23.2115H15.5695C15.1546 23.2115 14.8184 22.8743 14.8184 22.4584ZM15.5695 22.2788C15.4707 22.2788 15.3904 22.3591 15.3904 22.4584C15.3904 22.5577 15.4707 22.6381 15.5695 22.6381H16.3964C16.4952 22.6381 16.5755 22.5577 16.5755 22.4584C16.5755 22.3591 16.4952 22.2788 16.3964 22.2788H15.5695Z" fill="#0078D4"/>
</svg>
