<svg width="24" height="25" viewBox="0 0 24 25" fill="none" xmlns="http://www.w3.org/2000/svg">
<g id="pepicons-pencil:crown">
<g id="Group">
<path id="Vector" d="M3.04847 10.7722L3.04846 10.7721C2.74819 9.62827 4.00771 8.70906 5.00492 9.34482C5.00493 9.34482 5.00493 9.34483 5.00494 9.34483L7.66172 11.038L7.66174 11.038C7.90455 11.1928 8.19839 11.2463 8.48016 11.1868C8.76193 11.1274 9.00915 10.9598 9.16874 10.7201L10.9183 8.09213L10.9184 8.09207C11.0371 7.91403 11.1979 7.76804 11.3866 7.66708C11.5753 7.56611 11.786 7.51328 12 7.51328C12.214 7.51328 12.4247 7.56611 12.6133 7.66708C12.802 7.76804 12.9629 7.91403 13.0816 8.09207L13.0816 8.09213L14.8312 10.7201L3.04847 10.7722ZM3.04847 10.7722L4.86766 17.6914C4.94062 17.9692 5.10353 18.215 5.33096 18.3905C5.55839 18.5659 5.83752 18.6611 6.12476 18.6612H6.12478M3.04847 10.7722L6.12478 18.6612M6.12478 18.6612H17.8752H17.8752M6.12478 18.6612H17.8752M17.8752 18.6612C18.1624 18.6611 18.4416 18.5659 18.669 18.3905C18.8964 18.215 19.0593 17.9692 19.1323 17.6914L20.9515 10.7722L20.9515 10.772M17.8752 18.6612L20.9515 10.772M20.9515 10.772C21.2505 9.62823 19.9923 8.71033 18.9951 9.34478L18.9951 9.3448M20.9515 10.772L18.9951 9.3448M18.9951 9.3448L16.3383 11.0368L16.3382 11.0369M18.9951 9.3448L16.3382 11.0369M16.3382 11.0369C16.0955 11.1918 15.8017 11.2454 15.52 11.1861M16.3382 11.0369L15.52 11.1861M15.52 11.1861C15.2383 11.1269 14.991 10.9596 14.8312 10.7201L15.52 11.1861ZM4.4696 10.6636L6.9086 12.2183C6.90861 12.2183 6.90862 12.2183 6.90863 12.2183C7.46032 12.5702 8.12802 12.6918 8.76837 12.557C9.40874 12.4221 9.9707 12.0416 10.3336 11.497L10.3336 11.497L12 8.99401L13.6651 11.4958L13.6651 11.4958C14.0278 12.0405 14.5897 12.4214 15.2301 12.5565C15.8705 12.6915 16.5383 12.5701 17.0901 12.2183L19.5316 10.6634L17.7981 17.2612H6.2031L4.4696 10.6636Z" fill="black" stroke="black" stroke-width="0.2"/>
<path id="Vector_2" d="M19.832 7.78406V7.78411L22.2 7.78286H22.3C22.3 7.78284 22.3 7.78282 22.3 7.78281C22.3 7.45544 22.1699 7.14282 21.9386 6.91149C21.7072 6.68007 21.3933 6.55006 21.066 6.55006C20.7388 6.55006 20.4249 6.68007 20.1935 6.91149C19.962 7.14291 19.832 7.45678 19.832 7.78406ZM1.69883 7.78406L1.69883 7.78411L4.06683 7.78286H4.16683C4.16683 7.78284 4.16683 7.78282 4.16683 7.78281C4.16681 7.45544 4.03673 7.14282 3.8054 6.91149C3.57398 6.68007 3.26011 6.55006 2.93283 6.55006C2.60555 6.55006 2.29168 6.68007 2.06026 6.91149C1.82884 7.14291 1.69883 7.45678 1.69883 7.78406ZM12.8723 6.38651C13.1035 6.15484 13.2332 5.84083 13.2328 5.51355C13.2325 5.18628 13.1021 4.87254 12.8705 4.64137C12.6388 4.41019 12.3248 4.28051 11.9975 4.28086C11.6702 4.28121 11.3565 4.41155 11.1253 4.64321C10.8942 4.87488 10.7645 5.18889 10.7648 5.51617C10.7652 5.84344 10.8955 6.15718 11.1272 6.38835C11.3588 6.61953 11.6729 6.74921 12.0001 6.74886C12.3274 6.74851 12.6411 6.61817 12.8723 6.38651Z" fill="black" stroke="black" stroke-width="0.2"/>
<path id="Vector_3" d="M6.40581 20.2808C6.27453 20.4121 6.20078 20.5901 6.20078 20.7758C6.20078 20.9614 6.27453 21.1395 6.40581 21.2708C6.53708 21.402 6.71513 21.4758 6.90078 21.4758H17.3852C17.5708 21.4758 17.7489 21.402 17.8802 21.2708C18.0114 21.1395 18.0852 20.9614 18.0852 20.7758C18.0852 20.5901 18.0114 20.4121 17.8802 20.2808C17.7489 20.1495 17.5708 20.0758 17.3852 20.0758H6.90078C6.71513 20.0758 6.53708 20.1495 6.40581 20.2808Z" fill="black" stroke="black" stroke-width="0.2"/>
</g>
</g>
</svg>
