<svg width="33" height="32" viewBox="0 0 33 32" fill="none" xmlns="http://www.w3.org/2000/svg">
<path d="M28.5 28L20.5 20M4.5 13.3333C4.5 14.559 4.74141 15.7727 5.21046 16.905C5.6795 18.0374 6.36699 19.0663 7.23367 19.933C8.10035 20.7997 9.12925 21.4872 10.2616 21.9562C11.394 22.4253 12.6077 22.6667 13.8333 22.6667C15.059 22.6667 16.2727 22.4253 17.405 21.9562C18.5374 21.4872 19.5663 20.7997 20.433 19.933C21.2997 19.0663 21.9872 18.0374 22.4562 16.905C22.9253 15.7727 23.1667 14.559 23.1667 13.3333C23.1667 12.1077 22.9253 10.894 22.4562 9.76162C21.9872 8.62925 21.2997 7.60035 20.433 6.73367C19.5663 5.86699 18.5374 5.1795 17.405 4.71046C16.2727 4.24141 15.059 4 13.8333 4C12.6077 4 11.394 4.24141 10.2616 4.71046C9.12925 5.1795 8.10035 5.86699 7.23367 6.73367C6.36699 7.60035 5.6795 8.62925 5.21046 9.76162C4.74141 10.894 4.5 12.1077 4.5 13.3333Z" stroke="#1877F2" stroke-width="1.5" stroke-linecap="round" stroke-linejoin="round"/>
<path d="M11.1697 16.8923C11.0702 16.8923 10.9864 16.8742 10.9182 16.8381C10.8507 16.8013 10.7964 16.7403 10.7554 16.6553L9.07256 13.2734H8.00316C7.87468 13.2734 7.76732 13.23 7.68107 13.1431C7.59482 13.0563 7.55139 12.9486 7.55079 12.8201C7.55018 12.6916 7.59361 12.5843 7.68107 12.498C7.76853 12.4118 7.87589 12.3687 8.00316 12.3687H9.36026C9.44229 12.3687 9.51889 12.3919 9.59007 12.4383C9.66064 12.4842 9.71462 12.5457 9.75201 12.6229L11.1697 15.4357L14.3743 9.00303C14.4129 8.93366 14.4705 8.88149 14.5471 8.84651C14.6237 8.81152 14.7042 8.79433 14.7887 8.79494C14.8731 8.79554 14.9515 8.81303 15.0239 8.84741C15.0963 8.88179 15.1503 8.93397 15.1859 9.00393L16.8623 12.3687H19.3124C19.4409 12.3687 19.5482 12.4121 19.6345 12.4989C19.7207 12.5858 19.7641 12.6935 19.7647 12.8219C19.7654 12.9504 19.7219 13.0578 19.6345 13.144C19.547 13.2303 19.4396 13.2734 19.3124 13.2734H16.5982C16.4986 13.2734 16.4148 13.2553 16.3466 13.2191C16.2791 13.1823 16.2248 13.1217 16.1838 13.0373L14.7715 10.228L11.5615 16.6562C11.5205 16.7406 11.4653 16.801 11.3959 16.8372C11.326 16.8739 11.2506 16.8923 11.1697 16.8923Z" fill="#1877F2"/>
</svg>
