<svg width="16" height="16" viewBox="0 0 16 16" fill="none" xmlns="http://www.w3.org/2000/svg">
<path d="M3.252 2C3.1857 2 3.12211 2.02634 3.07522 2.07322C3.02834 2.12011 3.002 2.1837 3.002 2.25L3 10.75C3 10.888 3.112 11 3.25 11H5V12H3.25C2.56 12 2 11.44 2 10.75L2.002 2.25C2.002 1.56 2.562 1 3.252 1H7.755C8.445 1 9.005 1.56 9.005 2.251L9.003 4.25C9.003 4.388 9.114 4.5 9.253 4.5H9.75C10.0729 4.49973 10.3833 4.6244 10.6163 4.84791C10.8493 5.07141 10.9868 5.3764 11 5.699C10.7723 5.56763 10.521 5.48244 10.2603 5.44829C9.99967 5.41415 9.73485 5.43172 9.481 5.5H9.253C9.08876 5.5 8.92614 5.46763 8.77442 5.40475C8.62269 5.34187 8.48485 5.24971 8.36876 5.13353C8.25268 5.01735 8.16062 4.87943 8.09786 4.72766C8.0351 4.57589 8.00287 4.41324 8.003 4.249L8.005 2.25C8.005 2.1837 7.97866 2.12011 7.93178 2.07322C7.88489 2.02634 7.8213 2 7.755 2H3.252ZM10.681 6.7C10.496 6.52822 10.2529 6.43275 10.0005 6.43275C9.74807 6.43275 9.50497 6.52822 9.32 6.7L6.48 9.337C6.32858 9.47743 6.20779 9.64762 6.12519 9.8369C6.04259 10.0262 5.99997 10.2305 6 10.437V14C6 14.2652 6.10536 14.5196 6.29289 14.7071C6.48043 14.8946 6.73478 15 7 15H8.5C8.76522 15 9.01957 14.8946 9.20711 14.7071C9.39464 14.5196 9.5 14.2652 9.5 14V13H10.5V14C10.5 14.2652 10.6054 14.5196 10.7929 14.7071C10.9804 14.8946 11.2348 15 11.5 15H13C13.2652 15 13.5196 14.8946 13.7071 14.7071C13.8946 14.5196 14 14.2652 14 14V10.436C14 10.2295 13.9574 10.0252 13.8748 9.8359C13.7922 9.64662 13.6714 9.47643 13.52 9.336L10.681 6.7ZM7.16 10.07L10 7.432L12.84 10.07C12.8904 10.1167 12.9306 10.1734 12.9581 10.2363C12.9857 10.2993 12.9999 10.3673 13 10.436V14H11.5V13C11.5 12.7348 11.3946 12.4804 11.2071 12.2929C11.0196 12.1054 10.7652 12 10.5 12H9.5C9.23478 12 8.98043 12.1054 8.79289 12.2929C8.60536 12.4804 8.5 12.7348 8.5 13V14H7V10.436C7.00008 10.3673 7.01433 10.2993 7.04186 10.2363C7.06939 10.1734 7.10961 10.1167 7.16 10.07ZM5 3.5C5 3.63261 4.94732 3.75979 4.85355 3.85355C4.75979 3.94732 4.63261 4 4.5 4C4.36739 4 4.24021 3.94732 4.14645 3.85355C4.05268 3.75979 4 3.63261 4 3.5C4 3.36739 4.05268 3.24021 4.14645 3.14645C4.24021 3.05268 4.36739 3 4.5 3C4.63261 3 4.75979 3.05268 4.85355 3.14645C4.94732 3.24021 5 3.36739 5 3.5ZM4.5 6C4.63261 6 4.75979 5.94732 4.85355 5.85355C4.94732 5.75979 5 5.63261 5 5.5C5 5.36739 4.94732 5.24021 4.85355 5.14645C4.75979 5.05268 4.63261 5 4.5 5C4.36739 5 4.24021 5.05268 4.14645 5.14645C4.05268 5.24021 4 5.36739 4 5.5C4 5.63261 4.05268 5.75979 4.14645 5.85355C4.24021 5.94732 4.36739 6 4.5 6ZM5 7.5C5 7.63261 4.94732 7.75979 4.85355 7.85355C4.75979 7.94732 4.63261 8 4.5 8C4.36739 8 4.24021 7.94732 4.14645 7.85355C4.05268 7.75979 4 7.63261 4 7.5C4 7.36739 4.05268 7.24021 4.14645 7.14645C4.24021 7.05268 4.36739 7 4.5 7C4.63261 7 4.75979 7.05268 4.85355 7.14645C4.94732 7.24021 5 7.36739 5 7.5ZM6.5 4C6.63261 4 6.75979 3.94732 6.85355 3.85355C6.94732 3.75979 7 3.63261 7 3.5C7 3.36739 6.94732 3.24021 6.85355 3.14645C6.75979 3.05268 6.63261 3 6.5 3C6.36739 3 6.24021 3.05268 6.14645 3.14645C6.05268 3.24021 6 3.36739 6 3.5C6 3.63261 6.05268 3.75979 6.14645 3.85355C6.24021 3.94732 6.36739 4 6.5 4ZM7 5.5C7 5.63261 6.94732 5.75979 6.85355 5.85355C6.75979 5.94732 6.63261 6 6.5 6C6.36739 6 6.24021 5.94732 6.14645 5.85355C6.05268 5.75979 6 5.63261 6 5.5C6 5.36739 6.05268 5.24021 6.14645 5.14645C6.24021 5.05268 6.36739 5 6.5 5C6.63261 5 6.75979 5.05268 6.85355 5.14645C6.94732 5.24021 7 5.36739 7 5.5ZM6.5 8C6.63261 8 6.75979 7.94732 6.85355 7.85355C6.94732 7.75979 7 7.63261 7 7.5C7 7.36739 6.94732 7.24021 6.85355 7.14645C6.75979 7.05268 6.63261 7 6.5 7C6.36739 7 6.24021 7.05268 6.14645 7.14645C6.05268 7.24021 6 7.36739 6 7.5C6 7.63261 6.05268 7.75979 6.14645 7.85355C6.24021 7.94732 6.36739 8 6.5 8Z" fill="#037EDB"/>
</svg>
