<svg width="33" height="33" viewBox="0 0 33 33" fill="none" xmlns="http://www.w3.org/2000/svg">
<path d="M29.8337 4.83301H3.16699M7.16699 19.4997C7.96433 18.557 9.52299 16.025 9.83366 12.833M25.8337 19.4997C25.035 18.557 23.4777 16.025 23.167 12.833M4.50033 4.83301V20.333M4.50033 20.333V23.1663C4.50033 25.837 4.50033 27.173 5.28166 28.0037C6.06299 28.833 7.31899 28.833 9.83366 28.833H11.167C11.167 26.8743 10.6337 22.2703 8.50033 19.5197M4.50033 20.333C6.03099 20.2303 7.35499 19.9463 8.50033 19.5197M8.50033 19.5197C13.6737 17.5997 16.5003 10.453 16.5003 4.83301C16.5003 10.453 19.327 17.5997 24.5003 19.5197M28.5003 4.83301V20.333M28.5003 20.333V23.1663C28.5003 25.837 28.5003 27.173 27.719 28.0037C26.9377 28.833 25.6817 28.833 23.167 28.833H21.8337C21.8337 26.8743 22.367 22.2703 24.5003 19.5197M28.5003 20.333C26.9697 20.2303 25.6457 19.9463 24.5003 19.5197" stroke="#0078D4" stroke-width="2" stroke-linecap="round" stroke-linejoin="round"/>
</svg>
