<svg width="14" height="15" viewBox="0 0 14 15" fill="none" xmlns="http://www.w3.org/2000/svg">
<path d="M8.25016 4.22021V1.41521C8.25016 1.21687 8.31516 1.05382 8.44516 0.926042C8.57516 0.798264 8.73627 0.734375 8.9285 0.734375H12.9952C13.1879 0.734375 13.3479 0.798264 13.4752 0.926042C13.6024 1.05382 13.6663 1.21687 13.6668 1.41521V4.22021C13.6668 4.4191 13.6018 4.58215 13.4718 4.70938C13.3418 4.83715 13.1807 4.90104 12.9885 4.90104H8.92183C8.72961 4.90104 8.56961 4.83715 8.44183 4.70938C8.31405 4.5816 8.25016 4.41854 8.25016 4.22021ZM0.333496 6.73438V1.40104C0.333496 1.21215 0.398496 1.05382 0.528496 0.926042C0.658496 0.798264 0.819607 0.734375 1.01183 0.734375H5.0785C5.27127 0.734375 5.43127 0.798264 5.5585 0.926042C5.68572 1.05382 5.74961 1.21215 5.75016 1.40104V6.73438C5.75016 6.92326 5.68516 7.0816 5.55516 7.20938C5.42516 7.33715 5.26405 7.40104 5.07183 7.40104H1.00516C0.812941 7.40104 0.652941 7.33715 0.525163 7.20938C0.397385 7.0816 0.333496 6.92326 0.333496 6.73438ZM8.25016 13.401V8.06771C8.25016 7.87882 8.31516 7.72049 8.44516 7.59271C8.57516 7.46493 8.73627 7.40104 8.9285 7.40104H12.9952C13.1879 7.40104 13.3479 7.46493 13.4752 7.59271C13.6024 7.72049 13.6663 7.87882 13.6668 8.06771V13.401C13.6668 13.5899 13.6018 13.7483 13.4718 13.876C13.3418 14.0038 13.1807 14.0677 12.9885 14.0677H8.92183C8.72961 14.0677 8.56961 14.0038 8.44183 13.876C8.31405 13.7483 8.25016 13.5899 8.25016 13.401ZM0.333496 13.3869V10.5819C0.333496 10.3835 0.398496 10.2205 0.528496 10.0927C0.658496 9.96493 0.819607 9.90104 1.01183 9.90104H5.0785C5.27127 9.90104 5.43127 9.96493 5.5585 10.0927C5.68572 10.2205 5.74961 10.3835 5.75016 10.5819V13.3869C5.75016 13.5858 5.68516 13.7488 5.55516 13.876C5.42516 14.0038 5.26405 14.0677 5.07183 14.0677H1.00516C0.812941 14.0677 0.652941 14.0038 0.525163 13.876C0.397385 13.7483 0.333496 13.5852 0.333496 13.3869ZM1.16683 6.56771H4.91683V1.56771H1.16683V6.56771ZM9.0835 13.2344H12.8335V8.23438H9.0835V13.2344ZM9.0835 4.06771H12.8335V1.56771H9.0835V4.06771ZM1.16683 13.2344H4.91683V10.7344H1.16683V13.2344Z" fill="#0078D4"/>
</svg>
