<svg width="33" height="33" viewBox="0 0 33 33" fill="none" xmlns="http://www.w3.org/2000/svg">
<path d="M11.5773 25.7557H12.756V17.1157C13.3853 16.9886 13.9102 16.6975 14.3307 16.2423C14.7511 15.7863 14.9613 15.2277 14.9613 14.5663V9.75567C14.9613 9.61256 14.912 9.49123 14.8133 9.39167C14.7138 9.29301 14.5924 9.24367 14.4493 9.24367C14.3062 9.24367 14.1849 9.29301 14.0853 9.39167C13.9858 9.49034 13.936 9.61167 13.936 9.75567V14.013H12.68V9.75567C12.68 9.61256 12.6302 9.49123 12.5307 9.39167C12.4311 9.29212 12.3098 9.24279 12.1667 9.24367C12.0236 9.24456 11.9022 9.2939 11.8027 9.39167C11.7031 9.48945 11.6538 9.61079 11.6547 9.75567V14.013H10.3973V9.75567C10.3973 9.61256 10.348 9.49123 10.2493 9.39167C10.1507 9.29212 10.0293 9.24279 9.88534 9.24367C9.74134 9.24456 9.62 9.2939 9.52134 9.39167C9.42267 9.48945 9.37289 9.61079 9.372 9.75567V14.5663C9.372 15.2277 9.58223 15.7863 10.0027 16.2423C10.4231 16.6983 10.9476 16.9895 11.576 17.1157L11.5773 25.7557ZM19.5773 25.7557H20.756V17.4437C21.4724 17.1735 22.0404 16.6752 22.46 15.949C22.8796 15.2219 23.0893 14.3535 23.0893 13.3437C23.0893 12.1615 22.8111 11.1828 22.2547 10.4077C21.6991 9.63167 21.0031 9.24367 20.1667 9.24367C19.3302 9.24367 18.6342 9.63167 18.0787 10.4077C17.5231 11.1837 17.2449 12.1623 17.244 13.3437C17.244 14.3535 17.4538 15.2219 17.8733 15.949C18.2929 16.6752 18.8609 17.173 19.5773 17.4423V25.7557ZM6.65467 28.833C6.04045 28.833 5.52756 28.6277 5.116 28.217C4.70445 27.8063 4.49911 27.2939 4.5 26.6797V6.98634C4.5 6.37301 4.70578 5.86101 5.11734 5.45034C5.52889 5.03967 6.04089 4.8339 6.65334 4.83301H26.3467C26.96 4.83301 27.472 5.03879 27.8827 5.45034C28.2933 5.8619 28.4991 6.37434 28.5 6.98767V26.6797C28.5 27.293 28.2942 27.8055 27.8827 28.217C27.4711 28.6286 26.9591 28.8339 26.3467 28.833H6.65467ZM6.65467 27.4997H26.3467C26.5511 27.4997 26.7391 27.4143 26.9107 27.2437C27.0822 27.073 27.1676 26.8846 27.1667 26.6783V6.98767C27.1667 6.78234 27.0813 6.5939 26.9107 6.42234C26.74 6.25079 26.552 6.16545 26.3467 6.16634H6.65334C6.44889 6.16634 6.26089 6.25167 6.08934 6.42234C5.91778 6.59301 5.83245 6.78101 5.83334 6.98634V26.6797C5.83334 26.8841 5.91867 27.0721 6.08934 27.2437C6.26 27.4152 6.448 27.5006 6.65334 27.4997" fill="#0078D4"/>
</svg>
