<svg width="72" height="73" viewBox="0 0 72 73" fill="none" xmlns="http://www.w3.org/2000/svg">
<g id="solar:document-add-bold">
<rect width="72" height="72" transform="translate(0 0.5)" fill="#E2F5FF"/>
<g id="Group 286">
<g id="Vector">
<mask id="path-1-outside-1_4549_21585" maskUnits="userSpaceOnUse" x="30.9409" y="23.2129" width="29" height="29" fill="black">
<rect fill="white" x="30.9409" y="23.2129" width="29" height="29"/>
<path d="M43.2384 45.7597C43.5984 45.4799 43.9255 45.1528 44.5776 44.5007L52.7178 36.3585C52.9153 36.1631 52.8247 35.8237 52.5635 35.7311C51.2887 35.2893 50.1319 34.5617 49.1815 33.604C48.2239 32.6536 47.4963 31.4968 47.0544 30.222C46.9619 29.9608 46.6224 29.8703 46.427 30.0678L38.2828 38.2079C37.6306 38.86 37.3036 39.1871 37.0238 39.5471C36.6905 39.9736 36.408 40.4303 36.1762 40.9172C35.9808 41.3286 35.8348 41.7688 35.5426 42.6452L35.1641 43.7766L34.5634 45.5766L34.0018 47.2635C33.9318 47.4749 33.9219 47.7016 33.9733 47.9183C34.0247 48.135 34.1353 48.3332 34.2928 48.4907C34.4503 48.6482 34.6484 48.7588 34.8652 48.8102C35.0819 48.8615 35.3086 48.8517 35.52 48.7816L37.2069 48.22L39.0069 47.6193L40.1383 47.2408C41.0147 46.9487 41.4549 46.8047 41.8663 46.6072C42.3532 46.3741 42.8119 46.0916 43.2384 45.7597ZM55.2686 33.8097C56.1031 32.975 56.5718 31.8429 56.5716 30.6626C56.5714 29.4823 56.1024 28.3504 55.2676 27.5159C54.4328 26.6814 53.3008 26.2127 52.1205 26.2129C50.9401 26.2131 49.8082 26.6822 48.9738 27.5169L48.7146 27.7802C48.5894 27.9026 48.4962 28.0538 48.4432 28.2206C48.3901 28.3873 48.3787 28.5646 48.4101 28.7368C48.4512 28.9569 48.5232 29.2819 48.657 29.6666C48.9244 30.4381 49.4304 31.4502 50.3829 32.4026C51.3354 33.3551 52.3475 33.8611 53.1189 34.1286C53.5057 34.2623 53.8286 34.3343 54.0487 34.3754C54.2209 34.405 54.3977 34.3928 54.5641 34.3398C54.7306 34.2869 54.8819 34.1946 55.0053 34.071L55.2686 33.8097Z"/>
</mask>
<path d="M43.2384 45.7597C43.5984 45.4799 43.9255 45.1528 44.5776 44.5007L52.7178 36.3585C52.9153 36.1631 52.8247 35.8237 52.5635 35.7311C51.2887 35.2893 50.1319 34.5617 49.1815 33.604C48.2239 32.6536 47.4963 31.4968 47.0544 30.222C46.9619 29.9608 46.6224 29.8703 46.427 30.0678L38.2828 38.2079C37.6306 38.86 37.3036 39.1871 37.0238 39.5471C36.6905 39.9736 36.408 40.4303 36.1762 40.9172C35.9808 41.3286 35.8348 41.7688 35.5426 42.6452L35.1641 43.7766L34.5634 45.5766L34.0018 47.2635C33.9318 47.4749 33.9219 47.7016 33.9733 47.9183C34.0247 48.135 34.1353 48.3332 34.2928 48.4907C34.4503 48.6482 34.6484 48.7588 34.8652 48.8102C35.0819 48.8615 35.3086 48.8517 35.52 48.7816L37.2069 48.22L39.0069 47.6193L40.1383 47.2408C41.0147 46.9487 41.4549 46.8047 41.8663 46.6072C42.3532 46.3741 42.8119 46.0916 43.2384 45.7597ZM55.2686 33.8097C56.1031 32.975 56.5718 31.8429 56.5716 30.6626C56.5714 29.4823 56.1024 28.3504 55.2676 27.5159C54.4328 26.6814 53.3008 26.2127 52.1205 26.2129C50.9401 26.2131 49.8082 26.6822 48.9738 27.5169L48.7146 27.7802C48.5894 27.9026 48.4962 28.0538 48.4432 28.2206C48.3901 28.3873 48.3787 28.5646 48.4101 28.7368C48.4512 28.9569 48.5232 29.2819 48.657 29.6666C48.9244 30.4381 49.4304 31.4502 50.3829 32.4026C51.3354 33.3551 52.3475 33.8611 53.1189 34.1286C53.5057 34.2623 53.8286 34.3343 54.0487 34.3754C54.2209 34.405 54.3977 34.3928 54.5641 34.3398C54.7306 34.2869 54.8819 34.1946 55.0053 34.071L55.2686 33.8097Z" fill="#069AE4"/>
<path d="M43.2384 45.7597L41.3975 43.3909L41.3961 43.392L43.2384 45.7597ZM44.5776 44.5007L46.699 46.622L46.6992 46.6218L44.5776 44.5007ZM52.7178 36.3585L50.6076 34.2261L50.6019 34.2318L50.5962 34.2375L52.7178 36.3585ZM52.5635 35.7311L53.5654 32.9034L53.5557 32.8999L53.5459 32.8965L52.5635 35.7311ZM49.1815 33.604L51.311 31.4908L51.3029 31.4827L51.2947 31.4746L49.1815 33.604ZM47.0544 30.222L49.889 29.2396L49.8856 29.2298L49.8822 29.2201L47.0544 30.222ZM46.427 30.0678L48.5478 32.1896L48.5536 32.1838L48.5594 32.1779L46.427 30.0678ZM38.2828 38.2079L36.162 36.086L36.1614 36.0866L38.2828 38.2079ZM37.0238 39.5471L39.3878 41.3942L39.3926 41.388L37.0238 39.5471ZM36.1762 40.9172L33.4675 39.6277L33.4664 39.63L36.1762 40.9172ZM35.5426 42.6452L38.3877 43.5969L38.3887 43.5938L35.5426 42.6452ZM35.1641 43.7766L32.3191 42.8248L32.3184 42.8269L35.1641 43.7766ZM34.5634 45.5766L31.7177 44.6269L31.717 44.629L34.5634 45.5766ZM34.0018 47.2635L31.1554 46.3158L31.154 46.3202L34.0018 47.2635ZM35.52 48.7816L36.4633 51.6295L36.4677 51.628L35.52 48.7816ZM37.2069 48.22L38.1545 51.0664L38.1565 51.0658L37.2069 48.22ZM39.0069 47.6193L39.9565 50.4651L39.9587 50.4644L39.0069 47.6193ZM40.1383 47.2408L39.1896 44.3948L39.1865 44.3958L40.1383 47.2408ZM41.8663 46.6072L40.5706 43.9015L40.5681 43.9027L41.8663 46.6072ZM55.2686 33.8097L57.3816 35.9394L57.3903 35.9307L55.2686 33.8097ZM48.9738 27.5169L46.8521 25.3959L46.8439 25.4041L46.8358 25.4124L48.9738 27.5169ZM48.7146 27.7802L50.8121 29.925L50.8325 29.9051L50.8525 29.8848L48.7146 27.7802ZM48.4101 28.7368L45.4587 29.2747L45.4612 29.288L48.4101 28.7368ZM48.657 29.6666L51.4915 28.684L51.4907 28.6816L48.657 29.6666ZM53.1189 34.1286L52.1363 36.9631L52.1386 36.9639L53.1189 34.1286ZM54.0487 34.3754L53.4975 37.3244L53.5189 37.3284L53.5404 37.3321L54.0487 34.3754ZM55.0053 34.071L52.8923 31.9413L52.8869 31.9467L52.8816 31.9521L55.0053 34.071ZM45.0793 48.1285C45.6211 47.7074 46.0977 47.2233 46.699 46.622L42.4563 42.3794C41.7533 43.0824 41.5757 43.2524 41.3975 43.3909L45.0793 48.1285ZM46.6992 46.6218L54.8394 38.4796L50.5962 34.2375L42.456 42.3797L46.6992 46.6218ZM54.828 38.4909C56.7474 36.5915 55.7105 33.6634 53.5654 32.9034L51.5615 38.5588C49.9389 37.9839 49.0831 35.7347 50.6076 34.2261L54.828 38.4909ZM53.5459 32.8965C52.7035 32.6045 51.939 32.1237 51.311 31.4908L47.0521 35.7172C48.3247 36.9996 49.8739 37.974 51.581 38.5657L53.5459 32.8965ZM51.2947 31.4746C50.6618 30.8465 50.181 30.082 49.889 29.2396L44.2199 31.2045C44.8116 32.9116 45.7859 34.4608 47.0684 35.7334L51.2947 31.4746ZM49.8822 29.2201C49.1221 27.075 46.194 26.0382 44.2946 27.9576L48.5594 32.1779C47.0509 33.7024 44.8016 32.8466 44.2267 31.224L49.8822 29.2201ZM44.3062 27.9459L36.162 36.086L40.4035 40.3298L48.5478 32.1896L44.3062 27.9459ZM36.1614 36.0866C35.5602 36.6878 35.0761 37.1644 34.655 37.7062L39.3926 41.388C39.531 41.2098 39.7011 41.0322 40.4041 40.3292L36.1614 36.0866ZM34.6598 37.7C34.1922 38.2986 33.7939 38.9421 33.4675 39.6277L38.885 42.2067C39.0222 41.9185 39.1889 41.6486 39.3878 41.3942L34.6598 37.7ZM33.4664 39.63C33.1742 40.2452 32.9653 40.8905 32.6966 41.6965L38.3887 43.5938C38.7043 42.6471 38.7874 42.412 38.8861 42.2043L33.4664 39.63ZM32.6976 41.6934L32.3191 42.8248L38.0091 44.7284L38.3877 43.5969L32.6976 41.6934ZM32.3184 42.8269L31.7177 44.6269L37.4092 46.5263L38.0099 44.7262L32.3184 42.8269ZM31.717 44.629L31.1554 46.3158L36.8482 48.2111L37.4098 46.5242L31.717 44.629ZM31.154 46.3202C30.9091 47.0596 30.8746 47.8525 31.0542 48.6104L36.8924 47.2263C36.9693 47.5507 36.9545 47.8902 36.8497 48.2067L31.154 46.3202ZM31.0542 48.6104C31.2339 49.3682 31.6207 50.0613 32.1715 50.612L36.4141 46.3694C36.6499 46.6051 36.8155 46.9018 36.8924 47.2263L31.0542 48.6104ZM32.1715 50.612C32.7222 51.1628 33.4152 51.5496 34.1731 51.7292L35.5572 45.8911C35.8817 45.968 36.1783 46.1336 36.4141 46.3694L32.1715 50.612ZM34.1731 51.7292C34.931 51.9089 35.7239 51.8744 36.4633 51.6295L34.5768 45.9338C34.8933 45.8289 35.2327 45.8141 35.5572 45.8911L34.1731 51.7292ZM36.4677 51.628L38.1545 51.0664L36.2592 45.3736L34.5724 45.9352L36.4677 51.628ZM38.1565 51.0658L39.9565 50.4651L38.0572 44.7736L36.2572 45.3743L38.1565 51.0658ZM39.9587 50.4644L41.0901 50.0858L39.1865 44.3958L38.0551 44.7743L39.9587 50.4644ZM41.087 50.0869C41.8805 49.8224 42.5407 49.6112 43.1645 49.3118L40.5681 43.9027C40.3691 43.9982 40.1488 44.0751 39.1896 44.3948L41.087 50.0869ZM43.162 49.313C43.8393 48.9887 44.4817 48.5935 45.0808 48.1273L41.3961 43.392C41.1421 43.5896 40.8671 43.7595 40.5706 43.9015L43.162 49.313ZM57.3903 35.9307C58.7873 34.5332 59.5719 32.6381 59.5716 30.6621L53.5716 30.6631C53.5717 31.0477 53.4189 31.4167 53.147 31.6887L57.3903 35.9307ZM59.5716 30.6621C59.5713 28.6861 58.786 26.7912 57.3886 25.3942L53.1466 29.6375C53.4187 29.9095 53.5715 30.2784 53.5716 30.6631L59.5716 30.6621ZM57.3886 25.3942C55.9911 23.9972 54.0959 23.2126 52.12 23.2129L52.121 29.2129C52.5056 29.2128 52.8746 29.3656 53.1466 29.6375L57.3886 25.3942ZM52.12 23.2129C50.144 23.2132 48.2491 23.9985 46.8521 25.3959L51.0954 29.6379C51.3674 29.3658 51.7363 29.213 52.121 29.2129L52.12 23.2129ZM46.8358 25.4124L46.5766 25.6757L50.8525 29.8848L51.1117 29.6214L46.8358 25.4124ZM46.617 25.6354C46.141 26.1009 45.7864 26.6762 45.5845 27.3107L51.3018 29.1304C51.2061 29.4314 51.0379 29.7042 50.8121 29.925L46.617 25.6354ZM45.5845 27.3107C45.3825 27.9452 45.3393 28.6196 45.4587 29.2746L51.3615 28.1989C51.4181 28.5096 51.3976 28.8295 51.3018 29.1304L45.5845 27.3107ZM45.4612 29.288C45.5213 29.6096 45.6271 30.0873 45.8233 30.6516L51.4907 28.6816C51.4194 28.4765 51.3812 28.3042 51.359 28.1856L45.4612 29.288ZM45.8224 30.6493C46.2068 31.758 46.9264 33.1888 48.2616 34.5239L52.5042 30.2813C51.9345 29.7116 51.642 29.1181 51.4915 28.684L45.8224 30.6493ZM48.2616 34.5239C49.5968 35.8591 51.0275 36.5787 52.1363 36.9631L54.1015 31.2941C53.6674 31.1436 53.074 30.851 52.5042 30.2813L48.2616 34.5239ZM52.1386 36.9639C52.6994 37.1578 53.1721 37.2635 53.4975 37.3244L54.5999 31.4265C54.4851 31.405 54.3119 31.3668 54.0992 31.2933L52.1386 36.9639ZM53.5404 37.3321C54.1863 37.4431 54.8495 37.3973 55.474 37.1985L53.6543 31.4811C53.9459 31.3883 54.2555 31.367 54.5571 31.4188L53.5404 37.3321ZM55.474 37.1985C56.0985 36.9998 56.6662 36.6538 57.1291 36.1899L52.8816 31.9521C53.0977 31.7355 53.3627 31.5739 53.6543 31.4811L55.474 37.1985ZM57.1183 36.2006L57.3816 35.9393L53.1556 31.6801L52.8923 31.9413L57.1183 36.2006Z" fill="#E2F5FF" mask="url(#path-1-outside-1_4549_21585)"/>
</g>
<path id="Vector_2" fill-rule="evenodd" clip-rule="evenodd" d="M17.8397 18.3387C15.4287 20.7476 15.4287 24.6274 15.4287 32.3849V40.6135C15.4287 48.371 15.4287 52.2508 17.8397 54.6597C20.2507 57.0686 24.1284 57.0707 31.8859 57.0707H36.0002C43.7577 57.0707 47.6375 57.0707 50.0464 54.6597C52.4183 52.2899 52.4574 48.4965 52.4574 40.9838L46.6603 46.7808C46.1049 47.3363 45.6503 47.7909 45.138 48.192C44.5372 48.6626 43.8859 49.0648 43.1961 49.3913C42.5648 49.6754 41.9162 49.9193 41.2541 50.1216L36.498 51.7077C35.743 51.9595 34.9328 51.996 34.1582 51.8132C33.3836 51.6304 32.6752 51.2355 32.1124 50.6727C31.5496 50.1099 31.1547 49.4016 30.9719 48.6269C30.7891 47.8523 30.8256 47.0421 31.0774 46.2871L31.6411 44.6002L32.6182 41.6668L32.6614 41.531C32.9103 40.7863 33.114 40.1774 33.3938 39.589C33.7229 38.8978 34.1227 38.2512 34.5931 37.6491C34.9942 37.1349 35.4489 36.6823 36.0043 36.1269L44.2452 27.8839L46.5328 25.5963L46.794 25.3351C47.4931 24.6339 48.3239 24.0779 49.2386 23.6991C50.1534 23.3203 51.134 23.1261 52.1241 23.1277C51.8135 21.0089 51.2107 19.501 50.0464 18.3387C47.6375 15.9277 43.7577 15.9277 36.0002 15.9277H31.8859C24.1284 15.9277 20.2486 15.9277 17.8397 18.3387ZM24.1716 30.3278C24.1716 29.9186 24.3341 29.5261 24.6235 29.2368C24.9128 28.9475 25.3053 28.7849 25.7144 28.7849H39.0859C39.4951 28.7849 39.8875 28.9475 40.1769 29.2368C40.4662 29.5261 40.6288 29.9186 40.6288 30.3278C40.6288 30.737 40.4662 31.1294 40.1769 31.4187C39.8875 31.7081 39.4951 31.8706 39.0859 31.8706H25.7144C25.3053 31.8706 24.9128 31.7081 24.6235 31.4187C24.3341 31.1294 24.1716 30.737 24.1716 30.3278ZM24.1716 38.5563C24.1716 38.1472 24.3341 37.7547 24.6235 37.4654C24.9128 37.176 25.3053 37.0135 25.7144 37.0135H30.8573C31.2665 37.0135 31.6589 37.176 31.9483 37.4654C32.2376 37.7547 32.4002 38.1472 32.4002 38.5563C32.4002 38.9655 32.2376 39.358 31.9483 39.6473C31.6589 39.9367 31.2665 40.0992 30.8573 40.0992H25.7144C25.3053 40.0992 24.9128 39.9367 24.6235 39.6473C24.3341 39.358 24.1716 38.9655 24.1716 38.5563ZM24.1716 46.7849C24.1716 46.3757 24.3341 45.9833 24.6235 45.694C24.9128 45.4046 25.3053 45.2421 25.7144 45.2421H28.8002C29.2094 45.2421 29.6018 45.4046 29.8911 45.694C30.1805 45.9833 30.343 46.3757 30.343 46.7849C30.343 47.1941 30.1805 47.5866 29.8911 47.8759C29.6018 48.1652 29.2094 48.3278 28.8002 48.3278H25.7144C25.3053 48.3278 24.9128 48.1652 24.6235 47.8759C24.3341 47.5866 24.1716 47.1941 24.1716 46.7849Z" fill="#069AE4"/>
</g>
</g>
</svg>
