<svg width="599" height="108" viewBox="0 0 599 108" fill="none" xmlns="http://www.w3.org/2000/svg">
<path d="M89.246 80.1223V80.7716L88.6125 80.6884C88.5175 80.6766 88.4186 80.6647 88.3235 80.6528V80.1223H89.246ZM88.3235 77.5093H89.246V78.507H88.3235V77.5093ZM88.3235 76.4087H89.246V77.4024H88.3235V76.4087ZM88.3235 73.7918H89.246V74.7895H88.3235V73.7918ZM88.3235 72.6912H89.246V73.6889H88.3235V72.6912ZM88.3235 70.0782H89.246V71.0719H88.3235V70.0782ZM88.3235 68.9737H89.246V69.9713H88.3235V68.9737ZM88.3235 66.3251H89.246V67.3227H88.3235V66.3251ZM88.3235 65.2205H89.246V66.2182H88.3235V65.2205ZM88.3235 62.5798H89.246V63.5775H88.3235V62.5798ZM88.3235 61.4792H89.246V62.4769H88.3235V61.4792ZM91.9421 80.1223H92.8646V81.12H91.9421V80.1223ZM91.9421 77.5093H92.8646V78.507H91.9421V77.5093ZM91.9421 76.4087H92.8646V77.4024H91.9421V76.4087ZM91.9421 73.7918H92.8646V74.7895H91.9421V73.7918ZM91.9421 72.6912H92.8646V73.6889H91.9421V72.6912ZM91.9421 70.0782H92.8646V71.0719H91.9421V70.0782ZM91.9421 68.9737H92.8646V69.9713H91.9421V68.9737ZM92.2786 65.9173H93.2605V67.5167H92.2786V65.9173ZM92.2786 65.2205H94.4086V65.7747H92.2786V65.2205ZM92.2786 62.1799H93.2605V63.4429H92.2786V62.1799ZM92.2786 62.0216C92.2786 62.0216 92.4132 61.0081 93.3436 60.9012C94.274 61.0081 94.4086 62.0216 94.4086 62.0216V62.0572H92.2786V62.0216ZM94.4086 63.4429H93.4267V62.1799H94.4086V63.4429ZM94.7451 68.9737V69.9713H93.8226V68.9737H94.7451ZM97.4254 81.2269V82.1691C97.1324 82.082 96.8236 82.0068 96.499 81.9395V81.2269H97.4254ZM96.499 80.1223H97.4254V81.12H96.499V80.1223ZM96.499 77.5093H97.4254V78.507H96.499V77.5093ZM96.499 76.4087H97.4254V77.4024H96.499V76.4087ZM96.499 73.7918H97.4254V74.7895H96.499V73.7918ZM96.499 72.6912H97.4254V73.6889H96.499V72.6912ZM96.499 70.0782H97.4254V71.0719H96.499V70.0782ZM96.499 68.9737H97.4254V69.9713H96.499V68.9737ZM96.8394 65.9173H97.8173V67.5167H96.8394V65.9173ZM96.8394 65.2205H98.9654V65.7747H96.8394V65.2205ZM96.8394 62.1799H97.8173V63.4429H96.8394V62.1799ZM96.8394 62.0216C96.8394 62.0216 96.9701 61.0081 97.9005 60.9012C98.8348 61.0081 98.9654 62.0216 98.9654 62.0216V62.0572H96.8394V62.0216ZM98.9654 63.4429H97.9875V62.1799H98.9654V63.4429ZM99.3059 68.9737V69.9713H98.3835V68.9737H99.3059ZM101.895 83.8398V84.8375H101.531C101.357 84.6039 101.171 84.3822 100.973 84.1764V83.8398H101.895ZM100.973 81.2269H101.895V82.2206H100.973V81.2269ZM100.973 80.1223H101.895V81.12H100.973V80.1223ZM100.973 77.5093H101.895V78.507H100.973V77.5093ZM100.973 76.4087H101.895V77.4024H100.973V76.4087ZM100.973 73.7918H101.895V74.7895H100.973V73.7918ZM100.973 72.6912H101.895V73.6889H100.973V72.6912ZM100.973 70.0782H101.895V71.0719H100.973V70.0782ZM100.973 68.9737H101.895V69.9713H100.973V68.9737ZM101.309 65.9173H102.287V67.5167H101.309V65.9173ZM101.309 65.2205H103.439V65.7747H101.309V65.2205ZM101.309 62.1799H102.287V63.4429H101.309V62.1799ZM101.309 62.0216C101.309 62.0216 101.44 61.0081 102.374 60.9012C103.305 61.0081 103.439 62.0216 103.439 62.0216V62.0572H101.309V62.0216ZM103.439 63.4429H102.457V62.1799H103.439V63.4429ZM103.776 69.9713H102.853V68.9737H103.776V69.9713ZM105.53 97.4946H108.333V101.513H105.53V97.4946ZM105.53 94.9331H106.452V95.9307H105.53V94.9331ZM105.53 93.8325H106.452V94.8301H105.53V93.8325ZM105.53 89.137H106.452V90.1347H105.53V89.137ZM105.53 88.0364H106.452V89.0301H105.53V88.0364ZM105.53 84.9405H106.452V85.9381H105.53V84.9405ZM105.53 83.8398H106.452V84.8375H105.53V83.8398ZM105.53 81.2269H106.452V82.2206H105.53V81.2269ZM105.53 80.1223H106.452V81.12H105.53V80.1223ZM105.53 77.5093H106.452V78.507H105.53V77.5093ZM105.53 76.4087H106.452V77.4024H105.53V76.4087ZM105.53 73.7918H106.452V74.7895H105.53V73.7918ZM105.53 72.6912H106.452V73.6889H105.53V72.6912ZM105.53 70.0782H106.452V71.0719H105.53V70.0782ZM105.53 68.9737H106.452V69.9713H105.53V68.9737ZM105.866 65.9173H106.848V67.5167H105.866V65.9173ZM105.866 65.2205H107.996V65.7747H105.866V65.2205ZM105.866 62.1799H106.848V63.4429H105.866V62.1799ZM105.866 62.0216C105.866 62.0216 106.001 61.0081 106.931 60.9012C107.861 61.0081 107.996 62.0216 107.996 62.0216V62.0572H105.866V62.0216ZM107.996 63.4429H107.014V62.1799H107.996V63.4429ZM108.333 69.9713H107.41V68.9737H108.333V69.9713ZM109.884 53.9768H110.712V54.8122H109.884V53.9768ZM111.029 94.9331H111.951V95.9307H111.029V94.9331ZM111.029 93.8325H111.951V94.8301H111.029V93.8325ZM111.029 89.137H111.951V90.1347H111.029V89.137ZM111.029 88.0364H111.951V89.0301H111.029V88.0364ZM111.029 84.9405H111.951V85.9381H111.029V84.9405ZM111.029 83.8398H111.951V84.8375H111.029V83.8398ZM111.029 81.2269H111.951V82.2206H111.029V81.2269ZM111.029 80.1223H111.951V81.12H111.029V80.1223ZM111.029 77.5093H111.951V78.507H111.029V77.5093ZM111.029 76.4087H111.951V77.4024H111.029V76.4087ZM111.029 73.7918H111.951V74.7895H111.029V73.7918ZM111.029 72.6912H111.951V73.6889H111.029V72.6912ZM111.029 70.0782H111.951V71.0719H111.029V70.0782ZM111.029 68.9737H111.951V69.9713H111.029V68.9737ZM111.029 66.3251H111.951V67.3227H111.029V66.3251ZM111.029 65.2205H111.951V66.2182H111.029V65.2205ZM111.029 62.5798H111.951V63.5775H111.029V62.5798ZM111.029 61.4792H111.951V62.4769H111.029V61.4792ZM112.893 101.513H110.09V97.4946H112.893V101.513ZM107.41 94.9331H108.333V95.9307H107.41V94.9331ZM107.014 67.5167V65.9173H107.996V67.5167H107.014ZM107.41 71.0719V70.0782H108.333V71.0719H107.41ZM107.41 73.6889V72.6912H108.333V73.6889H107.41ZM107.41 74.7895V73.7918H108.333V74.7895H107.41ZM107.41 77.4024V76.4087H108.333V77.4024H107.41ZM107.41 78.507V77.5093H108.333V78.507H107.41ZM107.41 81.12V80.1223H108.333V81.12H107.41ZM107.41 82.2206V81.2269H108.333V82.2206H107.41ZM107.41 84.8375V83.8398H108.333V84.8375H107.41ZM107.41 85.9381V84.9405H108.333V85.9381H107.41ZM107.41 89.0301V88.0364H108.333V89.0301H107.41ZM108.333 93.8325V94.8301H107.41V93.8325H108.333ZM107.41 90.1347V89.137H108.333V90.1347H107.41ZM97.9875 67.5167V65.9173H98.9654V67.5167H97.9875ZM99.3059 71.0719H98.3835V70.0782H99.3059V71.0719ZM99.3059 81.2269V82.2206H98.3835V81.2269H99.3059ZM99.3059 80.1223V81.12H98.3835V80.1223H99.3059ZM99.3059 77.5093V78.507H98.3835V77.5093H99.3059ZM99.3059 76.4087V77.4024H98.3835V76.4087H99.3059ZM98.3835 73.6889V72.6912H99.3059V73.6889H98.3835ZM99.3059 73.7918V74.7895H98.3835V73.7918H99.3059ZM101.895 85.3601C101.804 85.2176 101.713 85.079 101.614 84.9405H101.895V85.3601ZM103.031 90.1347V89.3706C103.031 89.2954 103.023 89.2162 103.023 89.137H103.776V90.1347H103.031ZM103.031 94.8301V93.8325H103.776V94.8301H103.031ZM103.031 95.9307V94.9331H103.776V95.9307H103.031ZM102.251 98.3814H103.031V97.4946H103.776V101.513H102.251V98.3814ZM103.776 88.0364V89.0301H103.019C103.004 88.6936 102.968 88.365 102.909 88.0364H103.776ZM102.457 67.5167V65.9173H103.439V67.5167H102.457ZM102.853 71.0719V70.0782H103.776V71.0719H102.853ZM102.853 73.6889V72.6912H103.776V73.6889H102.853ZM102.853 74.7895V73.7918H103.776V74.7895H102.853ZM102.853 77.4024V76.4087H103.776V77.4024H102.853ZM102.853 78.507V77.5093H103.776V78.507H102.853ZM102.853 81.12V80.1223H103.776V81.12H102.853ZM102.853 82.2206V81.2269H103.776V82.2206H102.853ZM103.776 84.9405V85.9381H102.853V84.9405H103.776ZM102.853 84.8375V83.8398H103.776V84.8375H102.853ZM92.8646 81.2863C92.7379 81.2665 92.6072 81.2467 92.4726 81.2269H92.8646V81.2863ZM93.8226 81.2269H94.7451V81.599C94.4719 81.5476 94.1671 81.4961 93.8226 81.4407V81.2269ZM93.4267 67.5167V65.9173H94.4086V67.5167H93.4267ZM94.7451 71.0719H93.8226V70.0782H94.7451V71.0719ZM94.7451 80.1223V81.12H93.8226V80.1223H94.7451ZM94.7451 77.5093V78.507H93.8226V77.5093H94.7451ZM94.7451 76.4087V77.4024H93.8226V76.4087H94.7451ZM93.8226 73.6889V72.6912H94.7451V73.6889H93.8226ZM94.7451 73.7918V74.7895H93.8226V73.7918H94.7451ZM128.674 61.9345L129.327 63.1143H129.288V65.6837H128.674V61.9345ZM136.216 61.6455L136.184 61.7009H128.753L128.722 61.6455H136.216ZM130.119 60.05L130.717 61.3961H128.769L130.119 60.05ZM129.216 59.4284H129.842L130.04 59.8679L128.777 61.1268L129.216 59.4284ZM129.711 57.5004L129.806 59.2423H129.264L129.711 57.5004ZM130.566 54.1867L132.174 56.8234V56.8748H129.874L130.566 54.1867ZM131.342 51.1699L132.067 52.4288L130.693 53.6918L131.342 51.1699ZM131.449 48.157L132.194 49.4675V49.5942L131.386 50.8452L131.449 48.157ZM132.198 48.157V49.2814L131.457 47.9868C131.62 48.0462 131.877 48.1293 132.198 48.157ZM131.525 45.0888L132.206 46.2488V46.3913L131.461 47.7295L131.525 45.0888ZM132.206 45.0888V46.0667L131.529 44.9146C131.671 44.9779 131.897 45.0611 132.206 45.0888ZM131.584 42.6738L132.209 43.6081V43.6952L131.556 44.6454H131.536L131.584 42.6738ZM131.639 40.4488L132.217 41.2683V41.3713L131.592 42.3135L131.639 40.4488ZM131.643 40.2865C131.774 40.3379 131.976 40.3973 132.217 40.429V41.11L131.643 40.2944V40.2865ZM131.695 38.0813L132.225 38.9246V39.0196L131.651 39.9183L131.695 38.0813ZM131.75 35.8088L132.233 36.6046V36.6996L131.707 37.6616L131.75 35.8088ZM131.758 35.4683L132.233 35.0091V35.5435H131.758V35.4683ZM131.79 34.1975L132.233 34.8072V34.8824L131.762 35.3377L131.79 34.1975ZM131.825 32.6495L132.241 33.1958V33.275L131.802 33.7541L131.825 32.6495ZM131.869 30.9986L132.245 31.5528V31.6597L131.837 32.2575L131.869 30.9986ZM131.877 30.6462L132.249 30.1236L132.245 30.6502H131.877V30.6462ZM131.909 29.3318L132.249 29.8663V29.9613L131.881 30.4799L131.909 29.3318ZM132.253 28.544V28.9715H131.92L132.253 28.544ZM131.944 27.7284L132.253 28.2748V28.3896L131.92 28.8211L131.944 27.7284ZM131.984 26.2596L132.257 26.7386V26.897L131.956 27.2929L131.984 26.2596ZM132.027 24.4622L132.332 25.0046L132.328 25.2421L131.996 25.7291L132.027 24.4622ZM132.031 24.1851L132.352 23.6823L132.344 24.2286H132.031V24.1851ZM132.067 22.7875L132.356 23.2982L132.352 23.5041L132.035 24.0069L132.067 22.7875ZM132.075 22.4273L132.376 22.1145L132.368 22.4827H132.075V22.4273ZM132.095 21.5721L132.376 21.9086V21.9799L132.079 22.2887L132.095 21.5721ZM132.384 21.4929L132.38 21.7661L132.15 21.4929H132.384ZM132.36 23.1161L132.103 22.6648H132.364L132.36 23.1161ZM132.336 24.8225L132.103 24.4147H132.34L132.336 24.8225ZM132.015 25.8677L132.328 25.4124L132.32 25.8677H132.015ZM132.261 26.1963L132.257 26.5565L132.004 26.1131C132.079 26.1448 132.174 26.1725 132.261 26.1963ZM131.96 27.4434L132.257 27.0514V27.4434H131.96ZM132.253 27.7918V28.0887L132.051 27.7284C132.114 27.7522 132.186 27.7759 132.253 27.7918ZM132.249 29.696L131.952 29.2328C132.035 29.2645 132.138 29.2922 132.249 29.3081V29.696ZM132.245 31.3905L131.94 30.9392C132.023 30.9709 132.126 30.9986 132.245 31.0144V31.3905ZM131.936 32.2813L132.245 31.826V32.2813H131.936ZM132.241 32.6376V33.0414L131.861 32.5386C131.96 32.5743 132.095 32.6178 132.241 32.6376ZM131.818 33.8689L132.241 33.4136L132.237 33.8689H131.818ZM132.237 34.245L132.233 34.6528L131.865 34.15C131.968 34.1856 132.095 34.2252 132.237 34.245ZM132.233 36.4264L131.865 35.8207C131.972 35.8563 132.099 35.8919 132.233 35.9157V36.4264ZM131.75 37.7725L132.229 36.8936L132.225 37.7725H131.75ZM132.225 38.1446V38.7504L131.79 38.0536C131.901 38.0932 132.047 38.1288 132.225 38.1446ZM132.221 40.041H131.683L132.221 39.1938V40.041ZM131.699 42.3135L132.217 41.5375L132.213 42.3135H131.699ZM132.213 42.749V43.4418L131.639 42.5906C131.782 42.65 131.984 42.7173 132.213 42.749ZM132.209 44.6454H131.667L132.209 43.8575V44.6454ZM132.202 47.7413H131.56L132.206 46.5813L132.202 47.7413ZM131.782 54.4282C131.909 54.4479 132.043 54.4638 132.182 54.4717L132.178 56.471L131.782 55.8217V54.4282ZM131.477 50.8729L132.194 49.7644L132.19 50.8729H131.477ZM132.19 51.1224V52.2705L131.525 51.1224H132.19ZM131.596 54.3965V55.5208L130.753 54.1391C130.95 54.2223 131.24 54.3252 131.596 54.3965ZM130.82 53.8264L132.19 52.5674L132.186 53.8264H130.82ZM130.689 59.4838L132.376 61.3961H130.919L130.262 59.9114L130.689 59.4838ZM130.483 59.4284L130.178 59.7293L130.048 59.4284H130.483ZM130.551 59.2423H129.992L129.905 57.6627L130.551 59.2423ZM131.172 58.7435L130.725 59.1869L129.889 57.1361C130.068 57.1995 130.353 57.3024 130.697 57.3974L131.172 58.7435ZM132.174 58.0071L132.17 59.7293H131.715L131.382 58.791L132.174 58.0071ZM131.319 58.601L130.911 57.4529C131.299 57.5518 131.734 57.635 132.174 57.6627V57.7458L131.319 58.601ZM133.29 59.9154C133.33 59.9154 133.366 59.8916 133.377 59.852L133.702 58.9375L134.122 59.3532L132.471 61.2258L130.82 59.3532L131.24 58.9375L131.56 59.852C131.572 59.8916 131.612 59.9154 131.651 59.9154H133.29ZM132.791 21.4929L132.562 21.7661L132.558 21.4929H132.791ZM132.863 22.2887L132.566 21.9799V21.9086L132.843 21.5721L132.863 22.2887ZM132.863 22.4273L132.867 22.4827H132.574L132.566 22.1145L132.863 22.4273ZM132.582 23.1161L132.574 22.6648H132.835L132.582 23.1161ZM132.902 24.0069L132.586 23.5041V23.2982L132.875 22.7875L132.902 24.0069ZM132.91 24.2286H132.597L132.59 23.6823L132.906 24.1851L132.91 24.2286ZM132.605 24.8225L132.597 24.4147H132.835L132.605 24.8225ZM132.946 25.7291L132.609 25.2421L132.605 25.0046L132.914 24.4622L132.946 25.7291ZM132.981 27.2929L132.685 26.897V26.7386L132.958 26.2596L132.981 27.2929ZM133.021 28.8211L132.689 28.3896V28.2748L132.993 27.7284L133.021 28.8211ZM133.061 30.4799L132.692 29.9613V29.8663L133.033 29.3318L133.061 30.4799ZM132.985 29.2328L132.692 29.696V29.3081C132.799 29.2922 132.902 29.2645 132.985 29.2328ZM132.689 28.9715V28.544L133.021 28.9715H132.689ZM132.886 27.7284L132.689 28.0887L132.685 27.7918C132.756 27.7759 132.823 27.7522 132.886 27.7284ZM132.685 27.0514L132.981 27.4434H132.685V27.0514ZM132.621 25.8677L132.613 25.4124L132.926 25.8677H132.621ZM132.681 26.1963C132.768 26.1725 132.863 26.1448 132.938 26.1131L132.681 26.5565V26.1963ZM133.065 30.6502H132.692V30.1236L133.065 30.6462V30.6502ZM132.692 31.0144C132.815 30.9986 132.918 30.9709 132.997 30.9392L132.696 31.3905L132.692 31.0144ZM133.104 32.2575L132.696 31.6597V31.5528L133.073 30.9986L133.104 32.2575ZM133.076 32.5386L132.7 33.0414V32.6376C132.847 32.6178 132.978 32.5743 133.076 32.5386ZM132.696 32.2813V31.826L133.005 32.2813H132.696ZM133.14 33.7541L132.7 33.275V33.1958L133.112 32.6495L133.14 33.7541ZM133.179 35.3377L132.704 34.8824V34.8072L133.152 34.1975L133.179 35.3377ZM133.076 34.15L132.704 34.6528V34.245C132.847 34.2252 132.974 34.1856 133.076 34.15ZM132.704 33.8689L132.7 33.4136L133.12 33.8689H132.704ZM133.183 35.5435H132.704V35.0091L133.179 35.4683L133.183 35.5435ZM132.708 36.4264V35.9157C132.839 35.8919 132.97 35.8563 133.076 35.8207L132.708 36.4264ZM133.235 37.6616L132.708 36.6996V36.6046L133.191 35.8088L133.235 37.6616ZM133.29 39.9183L132.716 39.0196V38.9246L133.243 38.0813L133.29 39.9183ZM132.716 40.041V39.1938L133.259 40.041H132.716ZM132.712 37.7725L132.708 36.8936L133.191 37.7725H132.712ZM133.152 38.0536L132.716 38.7504L132.712 38.1446C132.894 38.1288 133.041 38.0932 133.152 38.0536ZM133.298 40.2944L132.72 41.11V40.429C132.962 40.3973 133.168 40.3379 133.298 40.2865V40.2944ZM133.35 42.3135L132.72 41.3713V41.2683L133.302 40.4488L133.35 42.3135ZM133.405 44.6454H133.385L132.728 43.6952V43.6081L133.358 42.6738L133.405 44.6454ZM132.732 44.6454L132.728 43.8575L133.274 44.6454H132.732ZM132.724 41.5375L133.239 42.3135H132.724V41.5375ZM133.302 42.5906L132.728 43.4418L132.724 42.749C132.958 42.7173 133.16 42.65 133.302 42.5906ZM132.736 46.0667L132.732 45.0888C133.041 45.0611 133.27 44.9779 133.409 44.9146L132.736 46.0667ZM133.48 47.7295L132.736 46.3913V46.2488L133.413 45.0888L133.48 47.7295ZM132.74 47.7413L132.736 46.5813L133.377 47.7413H132.74ZM132.744 49.2814L132.74 48.157C133.065 48.1293 133.322 48.0462 133.48 47.9868L132.744 49.2814ZM133.556 50.8452L132.748 49.5942L132.744 49.4675L133.488 48.157L133.556 50.8452ZM134.248 53.6918L132.875 52.4288L133.599 51.1699L134.248 53.6918ZM133.16 54.4282V55.8217L132.764 56.471L132.76 54.4717C132.898 54.4638 133.033 54.4479 133.16 54.4282ZM134.189 54.1391L133.346 55.5208V54.3965C133.702 54.3252 133.991 54.2223 134.189 54.1391ZM132.756 53.8264L132.752 52.5674L134.122 53.8264H132.756ZM132.748 50.8729V49.7644L133.464 50.8729H132.748ZM133.417 51.1224L132.752 52.2705L132.748 51.1224H133.417ZM135.068 56.8748H132.764V56.8234L134.375 54.1867L135.068 56.8748ZM135.725 59.4284L136.161 61.1268L134.902 59.8679L135.096 59.4284H135.725ZM135.226 57.5004L135.678 59.2423H135.135L135.226 57.5004ZM134.818 60.05L136.172 61.3961H134.221L134.818 60.05ZM134.252 59.4838L134.68 59.9114L134.019 61.3961H132.566L134.252 59.4838ZM134.894 59.4284L134.759 59.7293L134.454 59.4284H134.894ZM134.391 59.2423L135.036 57.6627L134.949 59.2423H134.391ZM134.244 57.3974C134.589 57.3024 134.874 57.1995 135.052 57.1361L134.213 59.1869L133.769 58.7435L134.244 57.3974ZM133.556 58.791L133.227 59.7293H132.772L132.768 58.0071L133.556 58.791ZM132.768 57.7458V57.6627C133.203 57.635 133.643 57.5518 134.027 57.4529L133.623 58.601L132.768 57.7458ZM135.428 63.0668C135.42 63.0826 135.412 63.0984 135.412 63.1143H129.525C129.525 63.0984 129.521 63.0826 129.513 63.0668L128.856 61.887H136.081L135.428 63.0668ZM135.614 63.1143L136.267 61.9345V65.6837H135.654V63.1143H135.614ZM210.226 96.5523V101.941H209.407V96.5523H210.226ZM209.474 22.6292H210.226V92.8942H209.474V22.6292ZM211.897 96.5523V101.941H211.141V96.5523H211.897ZM211.141 22.6292H211.897V92.8942H211.141V22.6292ZM213.564 96.5523V101.941H212.811V96.5523H213.564ZM212.811 22.6292H213.564V92.8942H212.811V22.6292ZM215.238 96.5523V101.941H214.482V96.5523H215.238ZM214.482 22.6292H215.238V92.8942H214.482V22.6292ZM216.909 96.5523V101.941H216.157V96.5523H216.909ZM216.157 22.6292H216.909V92.8942H216.157V22.6292ZM218.58 96.5523V101.941H217.828V96.5523H218.58ZM217.828 22.6292H218.58V92.8942H217.828V22.6292ZM220.251 96.5523V101.941H219.498V96.5523H220.251ZM219.498 22.6292H220.251V92.8942H219.498V22.6292ZM221.921 96.5523V101.941H221.165V96.5523H221.921ZM221.165 22.6292H221.921V92.8942H221.165V22.6292ZM223.596 96.5523V101.941H222.84V96.5523H223.596ZM222.84 22.6292H223.596V92.8942H222.84V22.6292ZM225.263 96.5523V101.941H224.51V96.5523H225.263ZM224.51 22.6292H225.263V92.8942H224.51V22.6292ZM226.933 22.6292V36.8857L226.181 37.2222V22.6292H226.933ZM228.604 22.6292V36.1374L227.848 36.4739V22.6292H228.604ZM252.841 72.5843V73.9898H252.362V72.5843H252.841ZM253.419 97.1739H253.902V98.5793H253.419V97.1739ZM253.419 93.6622H253.902V95.0677H253.419V93.6622ZM253.419 90.1466H253.902V91.556H253.419V90.1466ZM253.419 86.6349H253.902V88.0443H253.419V86.6349ZM253.419 83.1233H253.902V84.5247H253.419V83.1233ZM253.419 79.6116H253.902V81.0131H253.419V79.6116ZM253.419 76.0999H253.902V77.5014H253.419V76.0999ZM253.419 72.5843H253.902V73.9898H253.419V72.5843ZM254.484 97.1739H254.963V98.5793H254.484V97.1739ZM254.484 93.6622H254.963V95.0677H254.484V93.6622ZM254.484 90.1466H254.963V91.556H254.484V90.1466ZM254.484 86.6349H254.963V88.0443H254.484V86.6349ZM254.484 83.1233H254.963V84.5247H254.484V83.1233ZM254.484 79.6116H254.963V81.0131H254.484V79.6116ZM254.484 76.0999H254.963V77.5014H254.484V76.0999ZM254.484 72.5843H254.963V73.9898H254.484V72.5843ZM255.545 97.1739H256.024V98.5793H255.545V97.1739ZM255.545 93.6622H256.024V95.0677H255.545V93.6622ZM255.545 90.1466H256.024V91.556H255.545V90.1466ZM255.545 86.6349H256.024V88.0443H255.545V86.6349ZM255.545 83.1233H256.024V84.5247H255.545V83.1233ZM255.545 79.6116H256.024V81.0131H255.545V79.6116ZM255.545 76.0999H256.024V77.5014H255.545V76.0999ZM255.545 72.5843H256.024V73.9898H255.545V72.5843ZM256.602 97.1739H257.089V98.5793H256.602V97.1739ZM256.602 93.6622H257.089V95.0677H256.602V93.6622ZM256.602 90.1466H257.089V91.556H256.602V90.1466ZM256.602 86.6349H257.089V88.0443H256.602V86.6349ZM256.602 83.1233H257.089V84.5247H256.602V83.1233ZM256.602 79.6116H257.089V81.0131H256.602V79.6116ZM256.602 76.0999H257.089V77.5014H256.602V76.0999ZM256.602 72.5843H257.089V73.9898H256.602V72.5843ZM257.667 97.1739H258.15V98.5793H257.667V97.1739ZM257.667 93.6622H258.15V95.0677H257.667V93.6622ZM257.667 90.1466H258.15V91.556H257.667V90.1466ZM257.667 86.6349H258.15V88.0443H257.667V86.6349ZM257.667 83.1233H258.15V84.5247H257.667V83.1233ZM257.667 79.6116H258.15V81.0131H257.667V79.6116ZM257.667 76.0999H258.15V77.5014H257.667V76.0999ZM257.667 72.5843H258.15V73.9898H257.667V72.5843ZM258.732 97.1739H259.207V98.5793H258.732V97.1739ZM258.732 93.6622H259.207V95.0677H258.732V93.6622ZM258.732 90.1466H259.207V91.556H258.732V90.1466ZM258.732 86.6349H259.207V88.0443H258.732V86.6349ZM258.732 83.1233H259.207V84.5247H258.732V83.1233ZM258.732 79.6116H259.207V81.0131H258.732V79.6116ZM258.732 76.0999H259.207V77.5014H258.732V76.0999ZM258.732 72.5843H259.207V73.9898H258.732V72.5843ZM259.793 97.1739H260.272V98.5793H259.793V97.1739ZM259.793 93.6622H260.272V95.0677H259.793V93.6622ZM259.793 90.1466H260.272V91.556H259.793V90.1466ZM259.793 86.6349H260.272V88.0443H259.793V86.6349ZM259.793 83.1233H260.272V84.5247H259.793V83.1233ZM259.793 79.6116H260.272V81.0131H259.793V79.6116ZM259.793 76.0999H260.272V77.5014H259.793V76.0999ZM259.793 72.5843H260.272V73.9898H259.793V72.5843ZM260.85 97.1739H261.333V98.5793H260.85V97.1739ZM260.85 93.6622H261.333V95.0677H260.85V93.6622ZM260.85 90.1466H261.333V91.556H260.85V90.1466ZM260.85 86.6349H261.333V88.0443H260.85V86.6349ZM260.85 83.1233H261.333V84.5247H260.85V83.1233ZM260.85 79.6116H261.333V81.0131H260.85V79.6116ZM260.85 76.0999H261.333V77.5014H260.85V76.0999ZM260.85 72.5843H261.333V73.9898H260.85V72.5843ZM261.915 97.1739H262.391V98.5793H261.915V97.1739ZM261.915 93.6622H262.391V95.0677H261.915V93.6622ZM261.915 90.1466H262.391V91.556H261.915V90.1466ZM261.915 86.6349H262.391V88.0443H261.915V86.6349ZM261.915 83.1233H262.391V84.5247H261.915V83.1233ZM261.915 79.6116H262.391V81.0131H261.915V79.6116ZM261.915 76.0999H262.391V77.5014H261.915V76.0999ZM261.915 72.5843H262.391V73.9898H261.915V72.5843ZM262.976 97.1739H263.456V98.5793H262.976V97.1739ZM262.976 93.6622H263.456V95.0677H262.976V93.6622ZM262.976 90.1466H263.456V91.556H262.976V90.1466ZM262.976 86.6349H263.456V88.0443H262.976V86.6349ZM262.976 83.1233H263.456V84.5247H262.976V83.1233ZM262.976 79.6116H263.456V81.0131H262.976V79.6116ZM262.976 76.0999H263.456V77.5014H262.976V76.0999ZM262.976 72.5843H263.456V73.9898H262.976V72.5843ZM264.034 97.1739H264.517V98.5793H264.034V97.1739ZM264.034 93.6622H264.517V95.0677H264.034V93.6622ZM264.034 90.1466H264.517V91.556H264.034V90.1466ZM264.034 86.6349H264.517V88.0443H264.034V86.6349ZM264.034 83.1233H264.517V84.5247H264.034V83.1233ZM264.034 79.6116H264.517V81.0131H264.034V79.6116ZM264.034 76.0999H264.517V77.5014H264.034V76.0999ZM264.034 72.5843H264.517V73.9898H264.034V72.5843ZM265.099 97.1739H265.578V98.5793H265.099V97.1739ZM265.099 93.6622H265.578V95.0677H265.099V93.6622ZM265.099 90.1466H265.578V91.556H265.099V90.1466ZM265.099 86.6349H265.578V88.0443H265.099V86.6349ZM265.099 83.1233H265.578V84.5247H265.099V83.1233ZM265.099 79.6116H265.578V81.0131H265.099V79.6116ZM265.099 76.0999H265.578V77.5014H265.099V76.0999ZM265.099 72.5843H265.578V73.9898H265.099V72.5843ZM266.16 97.1739H266.639V98.5793H266.16V97.1739ZM266.16 93.6622H266.639V95.0677H266.16V93.6622ZM266.16 90.1466H266.639V91.556H266.16V90.1466ZM266.16 86.6349H266.639V88.0443H266.16V86.6349ZM266.16 83.1233H266.639V84.5247H266.16V83.1233ZM266.16 79.6116H266.639V81.0131H266.16V79.6116ZM266.16 76.0999H266.639V77.5014H266.16V76.0999ZM266.16 72.5843H266.639V73.9898H266.16V72.5843ZM267.217 97.1739H267.704V98.5793H267.217V97.1739ZM267.217 93.6622H267.704V95.0677H267.217V93.6622ZM267.217 90.1466H267.704V91.556H267.217V90.1466ZM267.217 86.6349H267.704V88.0443H267.217V86.6349ZM267.217 83.1233H267.704V84.5247H267.217V83.1233ZM267.217 79.6116H267.704V81.0131H267.217V79.6116ZM267.217 76.0999H267.704V77.5014H267.217V76.0999ZM267.217 72.5843H267.704V73.9898H267.217V72.5843ZM268.282 97.1739H268.765V98.5793H268.282V97.1739ZM268.282 93.6622H268.765V95.0677H268.282V93.6622ZM268.282 90.1466H268.765V91.556H268.282V90.1466ZM268.282 86.6349H268.765V88.0443H268.282V86.6349ZM268.282 83.1233H268.765V84.5247H268.282V83.1233ZM268.282 79.6116H268.765V81.0131H268.282V79.6116ZM268.282 76.0999H268.765V77.5014H268.282V76.0999ZM268.282 72.5843H268.765V73.9898H268.282V72.5843ZM269.347 97.1739H269.822V98.5793H269.347V97.1739ZM269.347 93.6622H269.822V95.0677H269.347V93.6622ZM269.347 90.1466H269.822V91.556H269.347V90.1466ZM269.347 86.6349H269.822V88.0443H269.347V86.6349ZM269.347 83.1233H269.822V84.5247H269.347V83.1233ZM269.347 79.6116H269.822V81.0131H269.347V79.6116ZM269.347 76.0999H269.822V77.5014H269.347V76.0999ZM269.347 72.5843H269.822V73.9898H269.347V72.5843ZM270.404 97.1739H270.887V98.5793H270.404V97.1739ZM270.404 93.6622H270.887V95.0677H270.404V93.6622ZM270.404 90.1466H270.887V91.556H270.404V90.1466ZM270.404 86.6349H270.887V88.0443H270.404V86.6349ZM270.404 83.1233H270.887V84.5247H270.404V83.1233ZM270.404 79.6116H270.887V81.0131H270.404V79.6116ZM270.404 76.0999H270.887V77.5014H270.404V76.0999ZM270.404 72.5843H270.887V73.9898H270.404V72.5843ZM271.469 97.1739H271.948V98.5793H271.469V97.1739ZM271.469 93.6622H271.948V95.0677H271.469V93.6622ZM271.469 90.1466H271.948V91.556H271.469V90.1466ZM271.469 86.6349H271.948V88.0443H271.469V86.6349ZM271.469 83.1233H271.948V84.5247H271.469V83.1233ZM271.469 79.6116H271.948V81.0131H271.469V79.6116ZM271.469 76.0999H271.948V77.5014H271.469V76.0999ZM271.469 72.5843H271.948V73.9898H271.469V72.5843ZM272.53 97.1739H273.009V98.5793H272.53V97.1739ZM272.53 93.6622H273.009V95.0677H272.53V93.6622ZM272.53 90.1466H273.009V91.556H272.53V90.1466ZM272.53 86.6349H273.009V88.0443H272.53V86.6349ZM272.53 83.1233H273.009V84.5247H272.53V83.1233ZM272.53 79.6116H273.009V81.0131H272.53V79.6116ZM272.53 76.0999H273.009V77.5014H272.53V76.0999ZM272.53 72.5843H273.009V73.9898H272.53V72.5843ZM273.587 97.1739H274.07V98.5793H273.587V97.1739ZM273.587 93.6622H274.07V95.0677H273.587V93.6622ZM273.587 90.1466H274.07V91.556H273.587V90.1466ZM273.587 86.6349H274.07V88.0443H273.587V86.6349ZM273.587 83.1233H274.07V84.5247H273.587V83.1233ZM273.587 79.6116H274.07V81.0131H273.587V79.6116ZM273.587 76.0999H274.07V77.5014H273.587V76.0999ZM273.587 72.5843H274.07V73.9898H273.587V72.5843ZM274.652 97.1739H275.135V98.5793H274.652V97.1739ZM274.652 93.6622H275.135V95.0677H274.652V93.6622ZM274.652 90.1466H275.135V91.556H274.652V90.1466ZM274.652 86.6349H275.135V88.0443H274.652V86.6349ZM274.652 83.1233H275.135V84.5247H274.652V83.1233ZM274.652 79.6116H275.135V81.0131H274.652V79.6116ZM274.652 76.0999H275.135V77.5014H274.652V76.0999ZM274.652 72.5843H275.135V73.9898H274.652V72.5843ZM252.841 97.1739V98.5793H252.362V97.1739H252.841ZM252.841 93.6622V95.0677H252.362V93.6622H252.841ZM252.841 90.1466V91.556H252.362V90.1466H252.841ZM252.841 86.6349V88.0443H252.362V86.6349H252.841ZM252.841 83.1233V84.5247H252.362V83.1233H252.841ZM252.362 77.5014V76.0999H252.841V77.5014H252.362ZM252.841 79.6116V81.0131H252.362V79.6116H252.841ZM279.41 58.4743H279.846V97.6688H279.41V58.4743ZM281.172 58.4743H281.608V97.6688H281.172V58.4743ZM282.938 58.4743H283.369V97.6688H282.938V58.4743ZM284.696 58.4743H285.135V97.6688H284.696V58.4743ZM286.461 58.4743H286.897V97.6688H286.461V58.4743ZM288.223 58.4743H288.663V97.6688H288.223V58.4743ZM289.985 58.4743H290.424V97.6688H289.985V58.4743ZM291.751 58.4743H292.186V97.6688H291.751V58.4743ZM293.509 58.4743H293.948V97.6688H293.509V58.4743ZM295.274 58.4743H295.71V97.6688H295.274V58.4743ZM297.036 58.4743H297.475V97.6688H297.036V58.4743ZM298.798 58.4743H299.237V97.6688H298.798V58.4743ZM300.564 58.4743H301.003V97.6688H300.564V58.4743ZM302.325 58.4743H302.761V97.6688H302.325V58.4743ZM304.091 58.4743H304.523V97.6688H304.091V58.4743ZM305.853 58.4743H306.288V97.6688H305.853V58.4743ZM324.832 3.27344V6.80094C324.832 6.81678 324.832 6.82865 324.84 6.84053L324.266 6.93159C324.266 6.92367 324.27 6.91575 324.27 6.90783L324.254 3.27344H324.832ZM326.891 5.97746C327.01 6.23084 327.24 6.40899 327.505 6.42879L326.891 6.52381V5.97746ZM346.75 67.105V67.1485H346.484L346.75 67.105ZM363.496 67.105L363.718 67.1406V67.1485H363.496V67.105ZM364.87 54.4321L374.273 51.158C374.293 51.6529 374.309 52.1596 374.324 52.6743L364.85 55.9682L364.87 54.4321ZM364.918 50.8056L374.118 47.3217C374.142 47.7888 374.166 48.2679 374.186 48.7667L364.898 52.2824L364.918 50.8056ZM364.961 47.1752L373.853 43.5289C373.893 43.9565 373.928 44.4078 373.968 44.8908L364.945 48.5886L364.961 47.1752ZM365.009 43.5368L373.291 39.8787C373.382 40.2667 373.469 40.6784 373.544 41.1139L364.989 44.8869L365.009 43.5368ZM365.052 39.8906L372.072 36.561C372.25 36.8817 372.416 37.2301 372.571 37.6102L365.04 41.1812L365.052 39.8906ZM365.1 36.2364L369.712 33.8966C370.029 34.0985 370.346 34.344 370.654 34.6448L365.088 37.4676L365.1 36.2364ZM374.408 56.6017L365.199 59.5274V57.9319L374.38 55.0141C374.388 55.5327 374.4 56.0632 374.408 56.6017ZM374.459 60.529L365.199 63.1974V61.5425L374.439 58.8742C374.447 59.4205 374.451 59.9748 374.459 60.529ZM374.479 64.4604L365.199 66.8714V65.1492L374.475 62.7421C374.479 63.3122 374.479 63.8863 374.479 64.4604ZM374.483 68.3917L365.662 70.4306V68.6451L374.483 66.6061C374.487 67.2 374.487 67.7939 374.483 68.3917ZM378.26 66.6061L388.058 68.8707L388.082 70.6602L378.26 68.3917C378.26 67.7939 378.256 67.2 378.26 66.6061ZM378.272 62.7421L388.015 65.268L388.035 66.9981L378.264 64.4604C378.268 63.8863 378.268 63.3122 378.272 62.7421ZM378.307 58.8742L387.967 61.6613L387.991 63.3241L378.291 60.529C378.295 59.9748 378.299 59.4205 378.307 58.8742ZM378.367 55.0141L387.92 58.0507L387.943 59.6501L378.339 56.6017C378.347 56.0632 378.355 55.5327 378.367 55.0141ZM378.466 51.158L387.876 54.4321L387.896 55.9682L378.422 52.6743C378.438 52.1596 378.45 51.6529 378.466 51.158ZM378.628 47.3217L387.829 50.8056L387.848 52.2824L378.557 48.7667C378.58 48.2679 378.6 47.7888 378.628 47.3217ZM378.893 43.5289L387.785 47.1752L387.805 48.5886L378.778 44.8908C378.814 44.4078 378.854 43.9565 378.893 43.5289ZM379.455 39.8787L387.738 43.5368L387.753 44.8869L379.202 41.1139C379.277 40.6784 379.36 40.2667 379.455 39.8787ZM380.667 36.561L387.694 39.8906L387.706 41.1812L380.172 37.6102C380.326 37.2301 380.496 36.8817 380.667 36.561ZM383.034 33.8966L387.647 36.2364L387.658 37.4676L382.088 34.6448C382.401 34.344 382.718 34.0985 383.034 33.8966ZM388.13 74.3184L378.272 72.319C378.268 71.7014 378.264 71.0838 378.264 70.4662L388.106 72.4655L388.13 74.3184ZM388.173 77.9725L378.299 76.2385C378.291 75.6011 378.287 74.9637 378.283 74.3223L388.153 76.0564L388.173 77.9725ZM388.221 81.6228L378.335 80.15C378.327 79.4968 378.319 78.8356 378.311 78.1705L388.197 79.6393L388.221 81.6228ZM388.268 85.2651L378.378 84.0576C378.371 83.3846 378.363 82.7036 378.351 82.0108L388.244 83.2183L388.268 85.2651ZM388.312 88.9035L378.438 87.9533C378.426 87.2684 378.414 86.5637 378.402 85.8431L388.288 86.7933L388.312 88.9035ZM388.359 92.5378L378.501 91.841C378.489 91.1443 378.477 90.4158 378.466 89.6636L388.331 90.3643L388.359 92.5378ZM388.407 96.1683L378.576 95.7209C378.561 95.0241 378.545 94.2759 378.533 93.4801L388.379 93.9275L388.407 96.1683ZM374.214 93.4801C374.198 94.2759 374.182 95.0241 374.17 95.7209L366.588 96.0653V93.8245L374.214 93.4801ZM374.277 89.6636C374.269 90.4158 374.257 91.1443 374.241 91.841L366.588 92.3834V90.2099L374.277 89.6636ZM374.34 85.8431C374.328 86.5637 374.32 87.2684 374.309 87.9533L366.588 88.6976V86.9912H365.662V86.6785L374.34 85.8431ZM374.392 82.0108C374.384 82.7036 374.372 83.3846 374.368 84.0576L365.662 85.1186V83.0757L374.392 82.0108ZM374.431 78.1705C374.427 78.8356 374.423 79.4968 374.415 80.15L365.662 81.4525V79.473L374.431 78.1705ZM374.463 74.3223C374.459 74.9637 374.455 75.6011 374.447 76.2385L365.662 77.7825V75.8663L374.463 74.3223ZM365.662 72.2597L374.479 70.4662C374.479 71.0838 374.479 71.7014 374.475 72.319L365.662 74.1085V72.2597ZM436.406 64.8483V66.527H434.585V66.3013H432.764V64.8483H436.406ZM432.764 62.1166H436.406V63.7913H432.764V62.1166ZM432.764 59.3769H436.406V61.0556H432.764V59.3769ZM432.764 56.6452H436.406V58.3199H432.764V56.6452ZM432.764 53.9056H436.406V55.5842H432.764V53.9056ZM432.764 51.1699H436.406V52.8485H432.764V51.1699ZM432.764 48.4381H436.406V50.1168H432.764V48.4381ZM432.764 45.6985H436.406V47.3771H432.764V45.6985ZM432.764 42.9667H436.406V44.6454H432.764V42.9667ZM432.764 40.2271H436.406V41.9057H432.764V40.2271ZM432.764 37.4954H436.406V39.174H432.764V37.4954ZM432.764 34.7597H436.406V36.4343H432.764V34.7597ZM437.059 89.4656H440.702V91.1443H437.059V89.4656ZM437.059 86.726H440.702V88.4046H437.059V86.726ZM437.059 83.9942H440.702V85.6729H437.059V83.9942ZM437.059 81.2546H440.702V82.9332H437.059V81.2546ZM437.059 78.5229H440.702V80.2015H437.059V78.5229ZM437.059 75.7911H440.702V77.4658H437.059V75.7911ZM437.059 73.0515H440.702V74.7301H437.059V73.0515ZM437.059 70.3197H440.702V71.9944H437.059V70.3197ZM437.059 67.5801H440.702V69.2587H437.059V67.5801ZM437.059 64.8483H440.702V66.527H437.059V64.8483ZM437.059 62.1166H440.702V63.7913H437.059V62.1166ZM437.059 59.3769H440.702V61.0556H437.059V59.3769ZM437.059 56.6452H440.702V58.3199H437.059V56.6452ZM437.059 53.9056H440.702V55.5842H437.059V53.9056ZM437.059 51.1699H440.702V52.8485H437.059V51.1699ZM437.059 48.4381H440.702V50.1168H437.059V48.4381ZM437.059 45.6985H440.702V47.3771H437.059V45.6985ZM437.059 42.9667H440.702V44.6454H437.059V42.9667ZM437.059 40.2271H440.702V41.9057H437.059V40.2271ZM437.059 37.4954H440.702V39.174H437.059V37.4954ZM437.059 34.7597H440.702V36.4343H437.059V34.7597ZM441.355 89.4656H444.985V91.1443H441.355V89.4656ZM441.355 86.726H444.985V88.4046H441.355V86.726ZM441.355 83.9942H444.985V85.6729H441.355V83.9942ZM441.355 81.2546H444.985V82.9332H441.355V81.2546ZM441.355 78.5229H444.985V80.2015H441.355V78.5229ZM441.355 75.7911H444.985V77.4658H441.355V75.7911ZM441.355 73.0515H444.985V74.7301H441.355V73.0515ZM441.355 70.3197H444.985V71.9944H441.355V70.3197ZM441.355 67.5801H444.985V69.2587H441.355V67.5801ZM441.355 64.8483H444.985V66.527H441.355V64.8483ZM441.355 62.1166H444.985V63.7913H441.355V62.1166ZM441.355 59.3769H444.985V61.0556H441.355V59.3769ZM441.355 56.6452H444.985V58.3199H441.355V56.6452ZM441.355 53.9056H444.985V55.5842H441.355V53.9056ZM441.355 51.1699H444.985V52.8485H441.355V51.1699ZM441.355 48.4381H444.985V50.1168H441.355V48.4381ZM441.355 45.6985H444.985V47.3771H441.355V45.6985ZM441.355 42.9667H444.985V44.6454H441.355V42.9667ZM441.355 40.2271H444.985V41.9057H441.355V40.2271ZM441.355 37.4954H444.985V39.174H441.355V37.4954ZM441.355 34.7597H444.985V36.4343H441.355V34.7597ZM445.642 89.4656H449.285V91.1443H445.642V89.4656ZM445.642 86.726H449.285V88.4046H445.642V86.726ZM445.642 83.9942H449.285V85.6729H445.642V83.9942ZM445.642 81.2546H449.285V82.9332H445.642V81.2546ZM445.642 78.5229H449.285V80.2015H445.642V78.5229ZM445.642 75.7911H449.285V77.4658H445.642V75.7911ZM445.642 73.0515H449.285V74.7301H445.642V73.0515ZM445.642 70.3197H449.285V71.9944H445.642V70.3197ZM445.642 67.5801H449.285V69.2587H445.642V67.5801ZM445.642 64.8483H449.285V66.527H445.642V64.8483ZM445.642 62.1166H449.285V63.7913H445.642V62.1166ZM445.642 59.3769H449.285V61.0556H445.642V59.3769ZM445.642 56.6452H449.285V58.3199H445.642V56.6452ZM445.642 53.9056H449.285V55.5842H445.642V53.9056ZM445.642 51.1699H449.285V52.8485H445.642V51.1699ZM445.642 48.4381H449.285V50.1168H445.642V48.4381ZM445.642 45.6985H449.285V47.3771H445.642V45.6985ZM445.642 42.9667H449.285V44.6454H445.642V42.9667ZM445.642 40.2271H449.285V41.9057H445.642V40.2271ZM445.642 37.4954H449.285V39.174H445.642V37.4954ZM445.642 34.7597H449.285V36.4343H445.642V34.7597ZM449.938 89.4656H453.576V91.1443H449.938V89.4656ZM449.938 86.726H453.576V88.4046H449.938V86.726ZM449.938 83.9942H453.576V85.6729H449.938V83.9942ZM449.938 81.2546H453.576V82.9332H449.938V81.2546ZM449.938 78.5229H453.576V80.2015H449.938V78.5229ZM449.938 75.7911H453.576V77.4658H449.938V75.7911ZM449.938 73.0515H453.576V74.7301H449.938V73.0515ZM449.938 70.3197H453.576V71.9944H449.938V70.3197ZM449.938 67.5801H453.576V69.2587H449.938V67.5801ZM449.938 64.8483H453.576V66.527H449.938V64.8483ZM449.938 62.1166H453.576V63.7913H449.938V62.1166ZM449.938 59.3769H453.576V61.0556H449.938V59.3769ZM449.938 56.6452H453.576V58.3199H449.938V56.6452ZM449.938 53.9056H453.576V55.5842H449.938V53.9056ZM449.938 51.1699H453.576V52.8485H449.938V51.1699ZM449.938 48.4381H453.576V50.1168H449.938V48.4381ZM449.938 45.6985H453.576V47.3771H449.938V45.6985ZM449.938 42.9667H453.576V44.6454H449.938V42.9667ZM449.938 40.2271H453.576V41.9057H449.938V40.2271ZM449.938 37.4954H453.576V39.174H449.938V37.4954ZM449.938 34.7597H453.576V36.4343H449.938V34.7597ZM454.234 89.4656H457.868V91.1443H454.234V89.4656ZM454.234 86.726H457.868V88.4046H454.234V86.726ZM454.234 83.9942H457.868V85.6729H454.234V83.9942ZM454.234 81.2546H457.868V82.9332H454.234V81.2546ZM454.234 78.5229H457.868V80.2015H454.234V78.5229ZM454.234 75.7911H457.868V77.4658H454.234V75.7911ZM454.234 73.0515H457.868V74.7301H454.234V73.0515ZM454.234 70.3197H457.868V71.9944H454.234V70.3197ZM454.234 67.5801H457.868V69.2587H454.234V67.5801ZM454.234 64.8483H457.868V66.527H454.234V64.8483ZM454.234 62.1166H457.868V63.7913H454.234V62.1166ZM454.234 59.3769H457.868V61.0556H454.234V59.3769ZM454.234 56.6452H457.868V58.3199H454.234V56.6452ZM454.234 53.9056H457.868V55.5842H454.234V53.9056ZM454.234 51.1699H457.868V52.8485H454.234V51.1699ZM454.234 48.4381H457.868V50.1168H454.234V48.4381ZM454.234 45.6985H457.868V47.3771H454.234V45.6985ZM454.234 42.9667H457.868V44.6454H454.234V42.9667ZM454.234 40.2271H457.868V41.9057H454.234V40.2271ZM454.234 37.4954H457.868V39.174H454.234V37.4954ZM454.234 34.7597H457.868V36.4343H454.234V34.7597ZM436.406 69.2587H434.585V67.5801H436.406V69.2587ZM434.585 89.4656H436.406V91.1443H434.585V89.4656ZM436.406 86.726V88.4046H434.585V86.726H436.406ZM436.406 83.9942V85.6729H434.585V83.9942H436.406ZM436.406 81.2546V82.9332H434.585V81.2546H436.406ZM436.406 78.5229V80.2015H434.585V78.5229H436.406ZM436.406 75.7911V77.4658H434.585V75.7911H436.406ZM436.406 73.0515V74.7301H434.585V73.0515H436.406ZM434.585 70.3197H436.406V71.9944H434.585V70.3197ZM467.108 91.1759H467.912V92.9733H467.108V91.1759ZM467.108 86.4964H467.912V88.2898H467.108V86.4964ZM467.108 81.8168H467.912V83.6142H467.108V81.8168ZM467.108 77.1372H467.912V78.9346H467.108V77.1372ZM467.108 72.4576H467.912V74.2511H467.108V72.4576ZM467.108 67.7741H467.912V69.5715H467.108V67.7741ZM467.108 63.0945H467.912V64.8879H467.108V63.0945ZM467.108 58.4149H467.912V60.2083H467.108V58.4149ZM468.403 91.1759H469.211V92.9733H468.403V91.1759ZM468.403 86.4964H469.211V88.2898H468.403V86.4964ZM468.403 81.8168H469.211V83.6142H468.403V81.8168ZM468.403 77.1372H469.211V78.9346H468.403V77.1372ZM468.403 72.4576H469.211V74.2511H468.403V72.4576ZM468.403 67.7741H469.211V69.5715H468.403V67.7741ZM468.403 63.0945H469.211V64.8879H468.403V63.0945ZM468.403 58.4149H469.211V60.2083H468.403V58.4149ZM469.694 91.1759H470.501V92.9733H469.694V91.1759ZM469.694 86.4964H470.501V88.2898H469.694V86.4964ZM469.694 81.8168H470.501V83.6142H469.694V81.8168ZM469.694 77.1372H470.501V78.9346H469.694V77.1372ZM469.694 72.4576H470.501V74.2511H469.694V72.4576ZM469.694 67.7741H470.501V69.5715H469.694V67.7741ZM469.694 63.0945H470.501V64.8879H469.694V63.0945ZM469.694 58.4149H470.501V60.2083H469.694V58.4149ZM470.988 91.1759H471.792V92.9733H470.988V91.1759ZM470.988 86.4964H471.792V88.2898H470.988V86.4964ZM470.988 81.8168H471.792V83.6142H470.988V81.8168ZM470.988 77.1372H471.792V78.9346H470.988V77.1372ZM470.988 72.4576H471.792V74.2511H470.988V72.4576ZM470.988 67.7741H471.792V69.5715H470.988V67.7741ZM470.988 63.0945H471.792V64.8879H470.988V63.0945ZM470.988 58.4149H471.792V60.2083H470.988V58.4149ZM472.283 91.1759H473.086V92.9733H472.283V91.1759ZM472.283 86.4964H473.086V88.2898H472.283V86.4964ZM472.283 81.8168H473.086V83.6142H472.283V81.8168ZM472.283 77.1372H473.086V78.9346H472.283V77.1372ZM472.283 72.4576H473.086V74.2511H472.283V72.4576ZM472.283 67.7741H473.086V69.5715H472.283V67.7741ZM472.283 63.0945H473.086V64.8879H472.283V63.0945ZM472.283 58.4149H473.086V60.2083H472.283V58.4149ZM474.801 91.1759H475.608V92.9733H474.801V91.1759ZM474.801 86.4964H475.608V88.2898H474.801V86.4964ZM474.801 81.8168H475.608V83.6142H474.801V81.8168ZM474.801 77.1372H475.608V78.9346H474.801V77.1372ZM474.801 72.4576H475.608V74.2511H474.801V72.4576ZM474.801 67.7741H475.608V69.5715H474.801V67.7741ZM474.801 63.0945H475.608V64.8879H474.801V63.0945ZM474.801 58.4149H475.608V60.2083H474.801V58.4149ZM477.319 91.1759H478.126V92.9733H477.319V91.1759ZM477.319 86.4964H478.126V88.2898H477.319V86.4964ZM477.319 81.8168H478.126V83.6142H477.319V81.8168ZM477.319 77.1372H478.126V78.9346H477.319V77.1372ZM477.319 72.4576H478.126V74.2511H477.319V72.4576ZM477.319 67.7741H478.126V69.5715H477.319V67.7741ZM477.319 63.0945H478.126V64.8879H477.319V63.0945ZM477.319 58.4149H478.126V60.2083H477.319V58.4149ZM478.617 91.1759H479.421V92.9733H478.617V91.1759ZM478.617 86.4964H479.421V88.2898H478.617V86.4964ZM478.617 81.8168H479.421V83.6142H478.617V81.8168ZM478.617 77.1372H479.421V78.9346H478.617V77.1372ZM478.617 72.4576H479.421V74.2511H478.617V72.4576ZM478.617 67.7741H479.421V69.5715H478.617V67.7741ZM478.617 63.0945H479.421V64.8879H478.617V63.0945ZM478.617 58.4149H479.421V60.2083H478.617V58.4149ZM479.908 91.1759H480.716V92.9733H479.908V91.1759ZM479.908 86.4964H480.716V88.2898H479.908V86.4964ZM479.908 81.8168H480.716V83.6142H479.908V81.8168ZM479.908 77.1372H480.716V78.9346H479.908V77.1372ZM479.908 72.4576H480.716V74.2511H479.908V72.4576ZM479.908 67.7741H480.716V69.5715H479.908V67.7741ZM479.908 63.0945H480.716V64.8879H479.908V63.0945ZM479.908 58.4149H480.716V60.2083H479.908V58.4149ZM481.203 91.1759H482.002V92.9733H481.203V91.1759ZM481.203 86.4964H482.002V88.2898H481.203V86.4964ZM481.203 81.8168H482.002V83.6142H481.203V81.8168ZM481.203 77.1372H482.002V78.9346H481.203V77.1372ZM481.203 72.4576H482.002V74.2511H481.203V72.4576ZM481.203 67.7741H482.002V69.5715H481.203V67.7741ZM481.203 63.0945H482.002V64.8879H481.203V63.0945ZM481.203 58.4149H482.002V60.2083H481.203V58.4149ZM482.493 91.1759H483.301V92.9733H482.493V91.1759ZM482.493 86.4964H483.301V88.2898H482.493V86.4964ZM482.493 81.8168H483.301V83.6142H482.493V81.8168ZM482.493 77.1372H483.301V78.9346H482.493V77.1372ZM482.493 72.4576H483.301V74.2511H482.493V72.4576ZM482.493 67.7741H483.301V69.5715H482.493V67.7741ZM482.493 63.0945H483.301V64.8879H482.493V63.0945ZM482.493 58.4149H483.301V60.2083H482.493V58.4149ZM483.788 91.1759H484.591V92.9733H483.788V91.1759ZM483.788 86.4964H484.591V88.2898H483.788V86.4964ZM483.788 81.8168H484.591V83.6142H483.788V81.8168ZM483.788 77.1372H484.591V78.9346H483.788V77.1372ZM483.788 72.4576H484.591V74.2511H483.788V72.4576ZM483.788 67.7741H484.591V69.5715H483.788V67.7741ZM483.788 63.0945H484.591V64.8879H483.788V63.0945ZM483.788 58.4149H484.591V60.2083H483.788V58.4149ZM485.886 91.1759V92.6131L485.082 92.9337V91.1759H485.886ZM485.082 86.4964H485.886V88.2898H485.082V86.4964ZM485.082 81.8168H485.886V83.6142H485.082V81.8168ZM485.082 77.1372H485.886V78.9346H485.082V77.1372ZM485.082 72.4576H485.886V74.2511H485.082V72.4576ZM485.082 67.7741H485.886V69.5715H485.082V67.7741ZM485.082 63.0945H485.886V64.8879H485.082V63.0945ZM485.082 58.4149H485.886V60.2083H485.082V58.4149ZM487.181 91.1759V92.0984L486.369 92.4191V91.1759H487.181ZM486.369 86.4964H487.181V88.2898H486.369V86.4964ZM486.369 81.8168H487.181V83.6142H486.369V81.8168ZM486.369 77.1372H487.181V78.9346H486.369V77.1372ZM486.369 72.4576H487.181V74.2511H486.369V72.4576ZM486.369 67.7741H487.181V69.5715H486.369V67.7741ZM486.369 63.0945H487.181V64.8879H486.369V63.0945ZM486.369 58.4149H487.181V60.2083H486.369V58.4149ZM488.471 91.1759V91.5837L487.668 91.9044V91.1759H488.471ZM487.668 86.4964H488.471V88.2898H487.668V86.4964ZM487.668 81.8168H488.471V83.6142H487.668V81.8168ZM487.668 77.1372H488.471V78.9346H487.668V77.1372ZM487.668 72.4576H488.471V74.2511H487.668V72.4576ZM487.668 67.7741H488.471V69.5715H487.668V67.7741ZM487.668 63.0945H488.471V64.8879H487.668V63.0945ZM487.668 58.4149H488.471V60.2083H487.668V58.4149ZM490.19 86.4964H490.993V88.2898H490.19V86.4964ZM490.19 81.8168H490.993V83.6142H490.19V81.8168ZM490.19 77.1372H490.993V78.9346H490.19V77.1372ZM490.19 72.4576H490.993V74.2511H490.19V72.4576ZM490.19 67.7741H490.993V69.5715H490.19V67.7741ZM490.19 63.0945H490.993V64.8879H490.19V63.0945ZM490.19 58.4149H490.993V60.2083H490.19V58.4149ZM492.707 86.4964H493.511V88.2898H492.707V86.4964ZM492.707 81.8168H493.511V83.6142H492.707V81.8168ZM492.707 77.1372H493.511V78.9346H492.707V77.1372ZM492.707 72.4576H493.511V74.2511H492.707V72.4576ZM492.707 67.7741H493.511V69.5715H492.707V67.7741ZM492.707 63.0945H493.511V64.8879H492.707V63.0945ZM492.707 58.4149H493.511V60.2083H492.707V58.4149ZM494.002 86.4964H494.802V88.2898H494.002V86.4964ZM494.002 81.8168H494.802V83.6142H494.002V81.8168ZM494.002 77.1372H494.802V78.9346H494.002V77.1372ZM494.002 72.4576H494.802V74.2511H494.002V72.4576ZM494.002 67.7741H494.802V69.5715H494.002V67.7741ZM494.002 63.0945H494.802V64.8879H494.002V63.0945ZM494.002 58.4149H494.802V60.2083H494.002V58.4149ZM495.293 86.4964H496.096V88.2898H495.293V86.4964ZM495.293 81.8168H496.096V83.6142H495.293V81.8168ZM495.293 77.1372H496.096V78.9346H495.293V77.1372ZM495.293 72.4576H496.096V74.2511H495.293V72.4576ZM495.293 67.7741H496.096V69.5715H495.293V67.7741ZM495.293 63.0945H496.096V64.8879H495.293V63.0945ZM495.293 58.4149H496.096V60.2083H495.293V58.4149ZM496.583 86.4964H497.391V88.0325L496.746 88.2898H496.583V86.4964ZM496.583 81.8168H497.391V83.6142H496.583V81.8168ZM496.583 77.1372H497.391V78.9346H496.583V77.1372ZM496.583 72.4576H497.391V74.2511H496.583V72.4576ZM496.583 67.7741H497.391V69.5715H496.583V67.7741ZM496.583 63.0945H497.391V64.8879H496.583V63.0945ZM496.583 58.4149H497.391V60.2083H496.583V58.4149ZM498.686 86.4964V87.5217L497.878 87.8385V86.4964H498.686ZM497.878 81.8168H498.686V83.6142H497.878V81.8168ZM497.878 77.1372H498.686V78.9346H497.878V77.1372ZM497.878 72.4576H498.686V74.2511H497.878V72.4576ZM497.878 67.7741H498.686V69.5715H497.878V67.7741ZM497.878 63.0945H498.686V64.8879H497.878V63.0945ZM497.878 58.4149H498.686V60.2083H497.878V58.4149ZM592.016 101.941H582.008L533.466 82.6244L523.061 66.7685L523.327 66.8516L522.226 65.5055L521.125 66.8516L521.399 66.7685L510.99 82.6244L501.255 86.4964V54.5232L498.258 50.0376H485.197V47.5592L483.237 45.8054V50.0376H482.557V45.8054L480.593 47.5592V50.0376H467.532L464.543 54.5232V93.4643H459.578V27.1148H431.053V66.5982H416.928V64.4485H419.513V62.9757H419.382V61.0081H419.513V59.278H417.003V55.5842C417.003 55.5842 415.403 55.1091 412.616 55.1091C409.825 55.1091 408.23 55.5842 408.23 55.5842V59.278H405.72V61.0081H405.854V62.9757H405.72V64.4485H408.305V66.5982H393.019V66.3013H390.647V101.941H389.527L388.51 31.3945C388.51 31.3945 386.716 30.8204 384.602 31.4459H368.14C366.03 30.8204 364.233 31.3945 364.233 31.3945L363.872 56.4631H363.496V55.8574H363.053V52.611C363.053 52.611 362.954 52.4407 362.756 52.2071V51.3163C362.756 51.3163 362.38 50.3543 360.856 50.1524H359.363C359.363 50.1524 358.338 49.6694 357.657 48.9568H352.589C351.908 49.6694 350.883 50.1524 350.883 50.1524H349.39C347.866 50.3543 347.49 51.3163 347.49 51.3163V52.2071C347.288 52.4407 347.189 52.611 347.189 52.611V55.8574H346.75V56.4631H345.047V67.5603H344.584V86.9912H343.658V101.941H342.581V19.747H333.914V14.4142H329.757V6.60695H328.681V6.93159H327.96V6.35753L327.806 6.38128C328.099 6.26647 328.312 5.94579 328.312 5.57364C328.312 5.10251 327.972 4.71849 327.556 4.71849C327.267 4.71849 327.018 4.9006 326.891 5.16982V5.02729C326.891 4.97186 326.852 4.92435 326.8 4.92435H326.293C326.246 4.92435 326.206 4.97186 326.206 5.02729V5.24504H325.011V2.84982C325.011 2.79439 324.971 2.75084 324.92 2.75084C324.872 2.75084 324.832 2.79439 324.832 2.84982V3.17446H324.254L324.243 0.684227C324.243 0.660472 324.223 0.636719 324.203 0.636719C324.179 0.636719 324.163 0.660472 324.163 0.684227L324.136 6.90783C324.136 6.91971 324.14 6.93555 324.148 6.94742L323.522 7.04244C323.53 7.03452 323.534 7.02264 323.534 7.01473L323.522 4.63535C323.522 4.61159 323.506 4.59576 323.49 4.59576C323.474 4.59576 323.459 4.61159 323.459 4.63535L323.443 7.01473C323.443 7.03056 323.455 7.0464 323.463 7.05432L322.675 7.17705V6.66633H321.911V7.29186L321.348 7.38292V5.59343C321.348 5.56572 321.329 5.54197 321.301 5.54197C321.277 5.54197 321.257 5.56572 321.257 5.59343V7.39083C321.257 7.39479 321.257 7.39479 321.257 7.39479L320.972 7.43834V6.24271C320.972 6.215 320.953 6.19125 320.929 6.19125C320.905 6.19125 320.885 6.215 320.885 6.24271V7.44626C320.885 7.45022 320.889 7.45022 320.889 7.45418L320.576 7.50169V26.1883H306.823V52.4328H277.898V99.2682H278.381V101.941H275.729V99.8264H276.124V70.9492H275.729V70.1891H266.361V67.782H257.948V70.1891H252.362V37.2736L241.891 32.598H236.53L232.025 34.6092V17.3597L228.671 18.4682H209.407L206.053 17.3597V90.206H205.099V46.031H203.163V43.6081H201.085V40.912H202.086V39.8351H196.211V38.6237H200.376V37.7725H186.207V38.6237H190.372V39.8351H184.496V40.912H185.498V43.6081H183.42V46.031H181.484V90.206H179.12V31.4143L176.483 25.4242L176.135 25.1788H175.723L173.779 28.7934V31.0382H171.412V27.574L161.051 31.5766V43.9248H157.84V43.3904H148.172V60.9447H145.916V77.3827H139.316V69.8842H139.407V69.4685H139.316V67.8295H136.529V66.6576H136.652V66.333H136.529V65.6837H136.513V61.5188C136.513 61.5148 136.513 61.5109 136.509 61.5069C136.509 61.499 136.513 61.495 136.509 61.4911L133.805 50.9798L133.084 21.3702C133.084 21.2989 133.029 21.2475 132.962 21.2475H132.863C132.91 21.1287 132.962 20.9387 132.962 20.6774C132.962 20.2419 132.855 20.0835 132.534 20.0677V18.8562C132.534 18.8483 132.526 18.8404 132.518 18.8404H132.419C132.411 18.8404 132.403 18.8483 132.403 18.8562V20.0677C132.083 20.0835 131.976 20.2419 131.976 20.6774C131.976 20.9387 132.031 21.1287 132.079 21.2475H131.976C131.913 21.2475 131.857 21.2989 131.853 21.3702L131.137 50.9798L128.429 61.4911C128.429 61.495 128.429 61.499 128.429 61.5069C128.429 61.5109 128.425 61.5148 128.425 61.5188V65.6837H128.413V66.333H128.29V66.6576H128.413V67.8295H125.626V69.4685H125.535V69.8842H125.626V77.3827H115.696V77.6439H115.803V78.3091H115.696V78.5862H115.803V95.1904H115.023V96.2791H114.695V101.941H114.655V92.4824H114.905V91.6273H114.509V87.1456H114.905V86.4013H114.402V67.9443H114.718V66.0598H114.402V61.0437H114.58V60.6518H114.402V60.046L116.35 56.8471V56.4908L116.528 56.0672V55.7465H114.188V53.0425H108.938V55.7465H99.8918V55.1051H99.4841V54.3015H99.3653V54.7528H99.0723V53.8858H98.8348V54.6855H98.6329V54.7805H98.2093V54.6063H97.6352V53.8185H97.3977V54.8874H96.9582V54.7013H96.4514V53.9808H96.1189V54.5153H95.8378V54.0996H95.4815V55.1051H94.5313V55.7465H90.9484V54.7686C90.9484 54.737 90.9246 54.7132 90.8969 54.7132C90.8652 54.7132 90.8415 54.737 90.8415 54.7686V55.7465H89.8478V54.7686C89.8478 54.737 89.824 54.7132 89.7963 54.7132C89.7646 54.7132 89.7409 54.737 89.7409 54.7686V55.7465H88.7472V54.7686C88.7472 54.737 88.7234 54.7132 88.6957 54.7132C88.664 54.7132 88.6403 54.737 88.6403 54.7686V55.7465H86.6014L86.5895 46.6764C86.5895 46.6526 86.5736 46.6368 86.5499 46.6368C86.5261 46.6368 86.5063 46.6526 86.5063 46.6764L86.4945 55.7465H83.7469V56.0672L83.925 56.4908V56.8471L85.8769 60.046V60.6518H85.6987V61.0437H85.8769V66.0598H85.5562V67.9443H85.8769V80.2727C84.1586 79.8452 79.9264 78.7366 78.3903 77.8854C78.2042 77.7785 78.0419 77.6123 77.9429 77.4064C77.7371 77.0184 77.3847 76.7413 76.969 76.6581C75.0449 76.2702 68.9876 74.9478 59.7037 74.9478C50.4276 74.9478 44.3664 76.2702 42.4423 76.6581C42.0266 76.7413 41.6742 77.0184 41.4723 77.4064C41.3694 77.6123 41.215 77.7785 41.017 77.8854C39.1404 78.9267 33.19 80.3638 32.8178 80.4509C32.8099 80.4509 32.806 80.4509 32.806 80.4509C32.1013 80.5301 31.4322 80.6132 30.8067 80.6884L29.9198 80.8072C25.4738 81.3852 23.1538 81.8841 23.1538 81.8841C22.0889 82.0899 21.1862 82.3948 20.43 82.7432C17.9556 83.9111 16.3878 86.5201 16.3878 89.3706V98.3814H17.1638V101.941H6.37939C3.12902 101.941 0.452715 104.387 0.0805664 107.543H598.307C597.939 104.387 595.262 101.941 592.016 101.941Z" fill="#A1BED7"/>
</svg>
