<svg width="25" height="25" viewBox="0 0 25 25" fill="none" xmlns="http://www.w3.org/2000/svg">
<path d="M19.2709 13.6058C19.1118 13.0107 18.8136 12.4619 18.4007 12.0047C17.9879 11.5476 17.4722 11.1951 16.8964 10.9764C16.3205 10.7577 15.7009 10.6791 15.0887 10.7469C14.4764 10.8148 13.8891 11.0272 13.3751 11.3667C13.3289 11.3393 13.2806 11.3131 13.2317 11.2897L14.3613 6.77944C14.3818 6.6978 14.3761 6.61179 14.3451 6.53354C14.3141 6.45528 14.2593 6.38874 14.1885 6.34329C13.7441 6.05978 13.2466 5.86965 12.7264 5.78447C12.2062 5.69929 11.6741 5.72084 11.1625 5.8478C10.6509 5.97477 10.1705 6.2045 9.75048 6.52302C9.33046 6.84154 8.97965 7.24218 8.71938 7.70057C8.4591 8.15896 8.29481 8.66552 8.23651 9.18941C8.1782 9.7133 8.22709 10.2436 8.38021 10.748C8.53333 11.2524 8.78748 11.7204 9.12718 12.1234C9.46688 12.5265 9.88504 12.8562 10.3562 13.0926V13.102C10.3562 13.1535 10.3562 13.2051 10.3629 13.2561L5.8922 14.533C5.81097 14.5558 5.73898 14.6037 5.68644 14.6697C5.63389 14.7357 5.60345 14.8166 5.59942 14.9008C5.57971 15.4254 5.6665 15.9486 5.85456 16.4387C6.04262 16.9289 6.32804 17.3758 6.6936 17.7526C7.05917 18.1294 7.49729 18.4282 7.98152 18.631C8.46575 18.8338 8.98605 18.9363 9.51102 18.9325C10.036 18.9286 10.5547 18.8184 11.0359 18.6086C11.5171 18.3987 11.9508 18.0935 12.3108 17.7114C12.6708 17.3293 12.9496 16.8782 13.1305 16.3854C13.3113 15.8925 13.3905 15.3681 13.363 14.8439C13.4099 14.8171 13.4562 14.7883 13.5011 14.7575L16.8422 17.9928C16.9029 18.0513 16.9804 18.0892 17.0639 18.1012C17.1473 18.1133 17.2324 18.0987 17.3072 18.0597C18.0932 17.6519 18.7164 16.9879 19.0736 16.1775C19.4307 15.3671 19.5003 14.4591 19.2709 13.6038V13.6058ZM11.1602 13.102C11.1602 12.8634 11.2309 12.6303 11.3634 12.432C11.4959 12.2337 11.6843 12.0791 11.9046 11.9878C12.125 11.8965 12.3675 11.8727 12.6014 11.9192C12.8353 11.9657 13.0502 12.0806 13.2189 12.2492C13.3875 12.4179 13.5024 12.6328 13.5489 12.8667C13.5954 13.1006 13.5716 13.3431 13.4803 13.5635C13.389 13.7838 13.2344 13.9722 13.0361 14.1047C12.8378 14.2372 12.6046 14.3079 12.3661 14.3079C12.0463 14.3079 11.7396 14.1809 11.5134 13.9547C11.2872 13.7285 11.1602 13.4218 11.1602 13.102ZM9.01627 9.61811C9.01611 9.08947 9.15193 8.56967 9.41068 8.10869C9.66943 7.6477 10.0424 7.26102 10.4938 6.98582C10.9451 6.71062 11.4597 6.55614 11.988 6.53725C12.5163 6.51835 13.0406 6.63567 13.5104 6.87793L12.4546 11.092H12.3661C11.9795 11.0922 11.601 11.204 11.2763 11.4138C10.9515 11.6237 10.6942 11.9228 10.5351 12.2752C10.0717 12.0038 9.68762 11.6156 9.42112 11.1493C9.15461 10.6831 9.01502 10.1551 9.01627 9.61811ZM11.0262 17.7449C10.5684 18.01 10.0501 18.1527 9.52111 18.1595C8.99215 18.1662 8.47036 18.0367 8.00596 17.7834C7.54156 17.53 7.15019 17.1614 6.86951 16.713C6.58884 16.2646 6.42831 15.7515 6.40339 15.2231L10.5833 14.0292C10.753 14.3555 11.0089 14.629 11.3233 14.8199C11.6376 15.0108 11.9984 15.1118 12.3661 15.1119C12.4333 15.112 12.5003 15.1086 12.5671 15.1018C12.5636 15.6386 12.4195 16.1651 12.1491 16.6288C11.8787 17.0926 11.4916 17.4774 11.0262 17.7449ZM18.1882 16.153C17.9421 16.579 17.5975 16.9397 17.1832 17.2049L14.0591 14.182C14.2758 13.8435 14.3857 13.4478 14.3746 13.0461C14.3635 12.6445 14.2319 12.2554 13.9968 11.9295C14.5851 11.5964 15.2666 11.4659 15.9363 11.5583C16.606 11.6506 17.2268 11.9605 17.703 12.4404C18.1792 12.9202 18.4844 13.5434 18.5716 14.2138C18.6588 14.8842 18.5231 15.5646 18.1855 16.1503L18.1882 16.153Z" fill="#0078D4"/>
<rect x="2.79395" y="3.12695" width="19.4121" height="19.4121" rx="9.70605" stroke="#0078D4" stroke-width="0.5"/>
</svg>
