<svg width="33" height="33" viewBox="0 0 33 33" fill="none" xmlns="http://www.w3.org/2000/svg">
<path d="M16.5 30.833C8.78 30.833 2.5 24.553 2.5 16.833C2.5 9.11301 8.78 2.83301 16.5 2.83301C24.22 2.83301 30.5 9.11301 30.5 16.833C30.5 24.553 24.22 30.833 16.5 30.833ZM16.5 4.83301C9.88 4.83301 4.5 10.213 4.5 16.833C4.5 23.453 9.88 28.833 16.5 28.833C23.12 28.833 28.5 23.453 28.5 16.833C28.5 10.213 23.12 4.83301 16.5 4.83301Z" fill="#1877F2"/>
<path d="M13.5 18.833H11.5C10.94 18.833 10.5 18.393 10.5 17.833C10.5 17.273 10.94 16.833 11.5 16.833H13.5C15.16 16.833 16.5 15.493 16.5 13.833C16.5 12.173 15.16 10.833 13.5 10.833H11.5C10.94 10.833 10.5 10.393 10.5 9.83301C10.5 9.27301 10.94 8.83301 11.5 8.83301H13.5C14.8261 8.83301 16.0979 9.35979 17.0355 10.2975C17.9732 11.2352 18.5 12.5069 18.5 13.833C18.5 15.1591 17.9732 16.4309 17.0355 17.3685C16.0979 18.3062 14.8261 18.833 13.5 18.833Z" fill="#1877F2"/>
<path d="M21.5 14.833H11.5C10.94 14.833 10.5 14.393 10.5 13.833C10.5 13.273 10.94 12.833 11.5 12.833H21.5C22.06 12.833 22.5 13.273 22.5 13.833C22.5 14.393 22.06 14.833 21.5 14.833ZM21.5 10.833H11.5C10.94 10.833 10.5 10.393 10.5 9.83301C10.5 9.27301 10.94 8.83301 11.5 8.83301H21.5C22.06 8.83301 22.5 9.27301 22.5 9.83301C22.5 10.393 22.06 10.833 21.5 10.833ZM15.5 24.833C15.18 24.833 14.86 24.673 14.66 24.393L10.66 18.393C10.5219 18.1729 10.4753 17.9075 10.5301 17.6535C10.585 17.3995 10.7369 17.177 10.9535 17.0334C11.1702 16.8899 11.4343 16.8367 11.6896 16.8852C11.9449 16.9337 12.1711 17.08 12.32 17.293L16.32 23.293C16.62 23.753 16.5 24.373 16.04 24.673C15.86 24.793 15.68 24.833 15.48 24.833H15.5Z" fill="#1877F2"/>
</svg>
