<svg width="25" height="25" viewBox="0 0 25 25" fill="none" xmlns="http://www.w3.org/2000/svg">
<path d="M10.7896 14.3942C10.3923 13.9622 10.1924 13.4329 10.1924 12.8329C10.1924 12.6101 10.2199 12.3971 10.2749 12.1952L10.1435 12.5405L9.71846 12.442C9.14302 12.3086 8.61222 12.1051 8.12924 11.829C7.63237 11.545 7.22544 11.1799 6.92005 10.7313L6.91523 10.7242L6.91529 10.7241C6.76173 10.49 6.57347 10.3312 6.34768 10.2319C6.08908 10.1191 5.8253 10.0639 5.55238 10.0639C5.20294 10.0639 4.88955 10.1827 4.59511 10.4451L10.7896 14.3942ZM10.7896 14.3942L10.5115 14.4946L8.17544 15.3386C8.17494 15.3388 8.17445 15.3389 8.17396 15.3391C7.94374 15.4206 7.72724 15.4857 7.52421 15.5351C7.34138 15.5795 7.1544 15.6019 6.96238 15.6019C6.27861 15.6019 5.65024 15.3015 5.06496 14.6146C4.50992 13.9632 4.19305 12.9677 4.19238 11.5489L10.7896 14.3942ZM20.7004 15.5929C21.1057 15.2542 21.3084 14.7622 21.3084 14.1169C21.3084 12.9556 21.0357 11.9062 20.4904 10.9689L20.7004 15.5929ZM20.7004 15.5929C20.2951 15.9329 19.8444 16.1029 19.3484 16.1029M20.7004 15.5929L19.3484 16.1029M19.3484 16.1029C19.0344 16.1029 18.7264 16.0326 18.4244 15.8919M19.3484 16.1029L18.4244 15.8919M18.4244 15.8919C18.1224 15.7512 17.87 15.5259 17.6674 15.2159L18.4244 15.8919ZM10.1165 20.7315L10.1159 20.7307C9.85042 20.4289 9.73038 20.1093 9.73038 19.7559C9.73038 19.4985 9.78468 19.2423 9.8988 18.9838C9.99791 18.7593 10.1565 18.5717 10.391 18.4184L10.391 18.4185L10.3987 18.4132C10.8474 18.1078 11.2124 17.7009 11.4965 17.204C11.7726 16.7211 11.9761 16.1903 12.1095 15.6148L12.208 15.1898L11.8572 15.0563C12.0606 15.1124 12.2752 15.1406 12.4997 15.1409H12.5004C13.1271 15.1409 13.6768 14.9224 14.1193 14.4889L14.0655 14.5544L14.1621 14.8218L15.0071 17.1608L15.0071 17.1608L15.01 17.1686C15.0909 17.3814 15.1554 17.5824 15.2042 17.7718C15.2482 17.9429 15.2692 18.1064 15.2694 18.2634C15.2617 18.9605 14.9545 19.6126 14.268 20.2302L14.2678 20.2303C13.6235 20.8104 12.6349 21.1409 11.2164 21.1409C10.6755 21.1409 10.3369 20.9831 10.1165 20.7315ZM10.9392 11.1223L10.8386 10.844L9.99364 8.50502L9.99366 8.50501L9.99177 8.49993C9.91204 8.28649 9.84759 8.07651 9.79798 7.8699C9.75278 7.67567 9.73138 7.49231 9.73138 7.3189C9.73138 6.47995 10.0823 5.82939 10.8358 5.32688L10.8362 5.32664C11.6233 4.80072 12.5974 4.5249 13.7844 4.5249C14.328 4.5249 14.6675 4.68115 14.8871 4.92757L14.8878 4.9283C15.1513 5.22285 15.2704 5.53603 15.2704 5.8849C15.2704 6.12727 15.2171 6.38254 15.1002 6.65415C15 6.88674 14.8412 7.07614 14.6098 7.2274L14.6097 7.22732L14.6015 7.23291C14.1518 7.53985 13.7864 7.95106 13.5021 8.45381L13.502 8.45409C13.2259 8.94306 13.0232 9.47687 12.8919 10.0527L12.799 10.46L13.155 10.6118C12.9479 10.5536 12.7289 10.5246 12.4997 10.5249C11.9004 10.5257 11.3714 10.7257 10.9392 11.1223ZM14.2017 11.2616L14.2141 11.2724L14.4935 11.1686L16.8288 10.301C17.0557 10.2208 17.2627 10.1612 17.4508 10.1207C17.6269 10.0827 17.8136 10.0633 18.0119 10.0639H18.0134C18.9467 10.0639 19.6053 10.4415 20.0581 11.2202L20.0582 11.2203C20.556 12.0759 20.8084 13.0374 20.8084 14.1169C20.8084 14.6501 20.6464 14.9864 20.3798 15.2092L20.3791 15.2098C20.0573 15.4797 19.7187 15.6029 19.3484 15.6029C19.1117 15.6029 18.8755 15.5504 18.6355 15.4387C18.4273 15.3417 18.2434 15.1832 18.0859 14.9423L18.086 14.9423L18.0807 14.9345C17.7754 14.4861 17.3687 14.1208 16.872 13.8361C16.3884 13.5589 15.8568 13.3558 15.2806 13.2244L14.8573 13.1279L14.7237 13.4774C14.7801 13.2734 14.8084 13.0581 14.8084 12.8329C14.8084 12.2288 14.6049 11.6961 14.2017 11.2616ZM4.19238 11.5487C4.19243 11.0055 4.3485 10.6655 4.59505 10.4452L4.19238 11.5487Z" stroke="#0078D4"/>
</svg>
