<svg width="20" height="21" viewBox="0 0 20 21" fill="none" xmlns="http://www.w3.org/2000/svg">
<path d="M4.58333 11.7493H4.27267L4.053 11.969L2 14.022V2.49935C2 2.47725 2.00878 2.45605 2.02441 2.44042C2.04004 2.4248 2.06123 2.41602 2.08333 2.41602H14.5833C14.6054 2.41602 14.6266 2.4248 14.6423 2.44042C14.6579 2.45605 14.6667 2.47724 14.6667 2.49935V11.666C14.6667 11.6881 14.6579 11.7093 14.6423 11.7249C14.6266 11.7406 14.6054 11.7493 14.5833 11.7493H4.58333ZM6.16667 14.9993V14.916H17.0833H17.8333V14.166V7.41602H17.9167C17.9388 7.41602 17.96 7.4248 17.9756 7.44042C17.9912 7.45605 18 7.47725 18 7.49935V17.3554L15.947 15.3024L15.7273 15.0827H15.4167H6.25C6.2279 15.0827 6.2067 15.0739 6.19107 15.0583C6.17545 15.0426 6.16667 15.0215 6.16667 14.9993Z" stroke="#0078D4" stroke-width="1.5"/>
<path d="M3.67711 9.30664V5.67028H6.08479V6.30415H4.44594V7.17063H5.92498V7.80451H4.44594V9.30664H3.67711ZM6.77459 9.30664H5.95073L7.20606 5.67028H8.19682L9.45037 9.30664H8.62651L7.71564 6.50124H7.68724L6.77459 9.30664ZM6.7231 7.87731H8.66912V8.47745H6.7231V7.87731ZM11.0897 8.04244H11.7431L12.0716 8.46502L12.3947 8.84144L13.0037 9.60494H12.2864L11.8674 9.09002L11.6525 8.78462L11.0897 8.04244ZM13.0588 7.48846C13.0588 7.885 12.9836 8.22236 12.8333 8.50053C12.6841 8.77871 12.4805 8.99118 12.2225 9.13796C11.9656 9.28356 11.6768 9.35636 11.356 9.35636C11.0328 9.35636 10.7428 9.28297 10.486 9.13619C10.2291 8.98941 10.0261 8.77693 9.87695 8.49876C9.72781 8.22058 9.65323 7.88382 9.65323 7.48846C9.65323 7.09192 9.72781 6.75456 9.87695 6.47638C10.0261 6.19821 10.2291 5.98633 10.486 5.84073C10.7428 5.69395 11.0328 5.62056 11.356 5.62056C11.6768 5.62056 11.9656 5.69395 12.2225 5.84073C12.4805 5.98633 12.6841 6.19821 12.8333 6.47638C12.9836 6.75456 13.0588 7.09192 13.0588 7.48846ZM12.2793 7.48846C12.2793 7.23159 12.2408 7.01497 12.1639 6.8386C12.0881 6.66223 11.981 6.52847 11.8425 6.43732C11.704 6.34618 11.5418 6.3006 11.356 6.3006C11.1702 6.3006 11.008 6.34618 10.8695 6.43732C10.731 6.52847 10.6233 6.66223 10.5463 6.8386C10.4706 7.01497 10.4327 7.23159 10.4327 7.48846C10.4327 7.74532 10.4706 7.96194 10.5463 8.13832C10.6233 8.31469 10.731 8.44845 10.8695 8.5396C11.008 8.63074 11.1702 8.67631 11.356 8.67631C11.5418 8.67631 11.704 8.63074 11.8425 8.5396C11.981 8.44845 12.0881 8.31469 12.1639 8.13832C12.2408 7.96194 12.2793 7.74532 12.2793 7.48846Z" fill="#0078D4"/>
</svg>
