<svg width="24" height="24" viewBox="0 0 24 24" fill="none" xmlns="http://www.w3.org/2000/svg">
<path d="M16.2803 15.2199L12.5303 11.4699C12.4608 11.3999 12.3782 11.3443 12.2872 11.3064C12.1962 11.2685 12.0986 11.249 12 11.249C11.9014 11.249 11.8038 11.2685 11.7128 11.3064C11.6218 11.3443 11.5392 11.3999 11.4698 11.4699L2.03025 20.9094C1.7374 21.2022 1.7374 21.677 2.03025 21.9699C2.3231 22.2627 2.7979 22.2627 3.09075 21.9699L12 13.0606L14.6895 15.7501L11.0302 19.4094C10.7374 19.7022 10.7374 20.177 11.0302 20.4699C11.3231 20.7627 11.7979 20.7627 12.0907 20.4699L13.2795 19.2811L16.2803 16.2804C16.3501 16.2109 16.4056 16.1283 16.4434 16.0373C16.4813 15.9463 16.5008 15.8487 16.5008 15.7501C16.5008 15.6516 16.4813 15.554 16.4434 15.463C16.4056 15.372 16.3501 15.2894 16.2803 15.2199Z" fill="#1877F2"/>
<path d="M21.9698 7.28027C21.6769 6.98742 21.2021 6.98742 20.9093 7.28027L17.25 10.9395L12.7493 6.43802C12.6092 6.29827 12.4428 6.18763 12.2598 6.11246C12.0767 6.03729 11.8806 5.99907 11.6827 6.00002C11.287 6.00109 10.9077 6.15853 10.6275 6.43802L6.52976 10.5397C6.23714 10.8326 6.23725 11.3073 6.53001 11.6C6.82296 11.893 7.29794 11.8929 7.59077 11.5998L11.688 7.49927L16.7205 12.5303C16.79 12.6 16.8726 12.6554 16.9635 12.6932C17.0544 12.731 17.1519 12.7504 17.2504 12.7504C17.3488 12.7504 17.4463 12.731 17.5373 12.6932C17.6282 12.6554 17.7108 12.6 17.7803 12.5303L21.9698 8.34077C22.2626 8.04792 22.2626 7.57312 21.9698 7.28027Z" fill="#1877F2"/>
<path d="M16.875 6.75C15.4275 6.75 14.25 5.5725 14.25 4.125C14.25 2.6775 15.4275 1.5 16.875 1.5C18.3225 1.5 19.5 2.6775 19.5 4.125C19.5 5.5725 18.3225 6.75 16.875 6.75ZM16.875 3C16.2548 3 15.75 3.50475 15.75 4.125C15.75 4.74525 16.2548 5.25 16.875 5.25C17.4952 5.25 18 4.74525 18 4.125C18 3.50475 17.4952 3 16.875 3Z" fill="#1877F2"/>
</svg>
