<svg width="24" height="24" viewBox="0 0 24 24" fill="none" xmlns="http://www.w3.org/2000/svg">
<path d="M3 4.5H1.5C1.08579 4.5 0.75 4.83579 0.75 5.25V21C0.75 21.4142 1.08579 21.75 1.5 21.75H3C3.41421 21.75 3.75 21.4142 3.75 21V5.25C3.75 4.83579 3.41421 4.5 3 4.5Z" stroke="#1877F2" stroke-linejoin="round"/>
<path d="M5.25 10.5H11.25M5.25 18.75H11.25" stroke="#1877F2" stroke-linecap="round" stroke-linejoin="round"/>
<path d="M10.5 7.5H6C5.58579 7.5 5.25 7.83579 5.25 8.25V21C5.25 21.4142 5.58579 21.75 6 21.75H10.5C10.9142 21.75 11.25 21.4142 11.25 21V8.25C11.25 7.83579 10.9142 7.5 10.5 7.5Z" stroke="#1877F2" stroke-linejoin="round"/>
<path d="M16.5 2.25H13.5C13.0858 2.25 12.75 2.58579 12.75 3V21C12.75 21.4142 13.0858 21.75 13.5 21.75H16.5C16.9142 21.75 17.25 21.4142 17.25 21V3C17.25 2.58579 16.9142 2.25 16.5 2.25Z" stroke="#1877F2" stroke-linejoin="round"/>
<path d="M20.5527 4.50506L18.659 4.70428C18.1377 4.75912 17.7599 5.24662 17.8185 5.78709L19.4554 20.8616C19.5144 21.4021 19.9883 21.7991 20.5096 21.7447L22.4033 21.5455C22.9246 21.4907 23.3024 21.0032 23.2438 20.4627L21.6093 5.39053C21.5479 4.84771 21.074 4.45021 20.5527 4.50506Z" stroke="#1877F2" stroke-linejoin="round"/>
</svg>
