<svg width="24" height="24" viewBox="0 0 24 24" fill="none" xmlns="http://www.w3.org/2000/svg">
<path d="M17.3625 13.8911L17.361 22.0463C17.3586 22.8565 17.9183 23.517 18.7362 23.5199C19.5551 23.5227 20.1469 22.8685 20.1522 22.0568M17.3625 13.8911L20.1522 22.0568M17.3625 13.8911L17.0219 11.873M17.3625 13.8911L17.0219 11.873M20.1522 22.0568L19.6522 22.0536C19.6522 22.054 19.6522 22.0544 19.6522 22.0549L19.6522 22.0564L20.1522 22.0568ZM19.6604 12.4324L20.1604 12.4314L19.6604 12.431L19.6604 12.4318M19.6604 12.4324L18.2083 5.69521C18.2083 5.69528 18.2083 5.69534 18.2083 5.69541L19.3885 10.6226L19.3884 10.6226L19.3913 10.6336C19.437 10.8069 19.5051 11.155 19.5624 11.5245C19.6204 11.8986 19.6599 12.247 19.6604 12.4318M19.6604 12.4324C19.6604 12.4322 19.6604 12.432 19.6604 12.4318M19.6604 12.4324L19.6604 12.4318M17.0219 11.873C16.9294 11.3249 16.4076 10.9574 15.8604 11.0549M17.0219 11.873L15.8604 11.0549M15.8604 11.0549L13.4871 11.4778L15.8604 11.0549Z" stroke="#1877F2"/>
<path d="M16.6617 2.31358C16.6617 3.04582 16.0615 3.64718 15.3113 3.64718C14.5612 3.64718 13.9609 3.04582 13.9609 2.31358C13.9609 1.58134 14.5612 0.97998 15.3113 0.97998C16.0615 0.97998 16.6617 1.58134 16.6617 2.31358Z" stroke="#1877F2"/>
<path d="M9.30739 8.22384L11.3474 12.3164L11.3835 12.3925C11.4482 12.5289 11.4824 12.6778 11.4835 12.8288V23.0201H4.33984V6.98744C4.33984 6.55275 4.69712 6.19258 5.14655 6.19288H5.14688L7.79024 6.19288L7.79147 6.19287C7.94318 6.1925 8.09191 6.23497 8.22055 6.3154C8.34918 6.39583 8.45249 6.51095 8.51859 6.6475L9.3033 8.2688L9.30739 8.22384Z" fill="#1877F2" stroke="#1877F2"/>
<path d="M5.81543 13.9043V14.4284H6.86366C7.30994 14.4284 7.89643 14.701 8.10031 15.2146H5.81543V15.7387H8.16582C8.08485 16.4227 7.3807 16.7869 6.86366 16.7869H5.81543V17.4339L8.50152 19.6696H9.32045L6.48682 17.311H6.86366C7.71115 17.311 8.61315 16.6847 8.68994 15.7387H10.0083V15.2146H8.64879C8.56939 14.9043 8.39931 14.6394 8.17394 14.4284H10.0083V13.9043H5.81543Z" fill="white"/>
</svg>
