<svg width="24" height="25" viewBox="0 0 24 25" fill="none" xmlns="http://www.w3.org/2000/svg">
<path d="M9.85672 6.41636C9.85672 5.84804 10.0825 5.303 10.4844 4.90114C10.8862 4.49927 11.4313 4.27351 11.9996 4.27351C12.5679 4.27351 13.1129 4.49927 13.5148 4.90114C13.9167 5.303 14.1424 5.84804 14.1424 6.41636C14.1424 6.98469 13.9167 7.52973 13.5148 7.93159C13.1129 8.33346 12.5679 8.55922 11.9996 8.55922C11.4313 8.55922 10.8862 8.33346 10.4844 7.93159C10.0825 7.52973 9.85672 6.98469 9.85672 6.41636ZM11.9996 2.98779C11.0903 2.98779 10.2182 3.34902 9.57521 3.992C8.93223 4.63498 8.57101 5.50705 8.57101 6.41636C8.57101 7.32568 8.93223 8.19775 9.57521 8.84073C10.2182 9.48371 11.0903 9.84494 11.9996 9.84494C12.9089 9.84494 13.781 9.48371 14.4239 8.84073C15.0669 8.19775 15.4282 7.32568 15.4282 6.41636C15.4282 5.50705 15.0669 4.63498 14.4239 3.992C13.781 3.34902 12.9089 2.98779 11.9996 2.98779ZM4.71387 6.84494C4.25921 6.84494 3.82317 7.02555 3.50168 7.34704C3.18019 7.66853 2.99958 8.10456 2.99958 8.55922C2.99958 9.01388 3.18019 9.44991 3.50168 9.7714C3.82317 10.0929 4.25921 10.2735 4.71387 10.2735C5.16852 10.2735 5.60456 10.0929 5.92605 9.7714C6.24754 9.44991 6.42815 9.01388 6.42815 8.55922C6.42815 8.10456 6.24754 7.66853 5.92605 7.34704C5.60456 7.02555 5.16852 6.84494 4.71387 6.84494ZM1.71387 8.55922C1.71387 8.16526 1.79146 7.77515 1.94223 7.41117C2.09299 7.04719 2.31397 6.71648 2.59255 6.4379C2.87112 6.15933 3.20184 5.93835 3.56582 5.78758C3.92979 5.63682 4.3199 5.55922 4.71387 5.55922C5.10783 5.55922 5.49794 5.63682 5.86192 5.78758C6.22589 5.93835 6.55661 6.15933 6.83519 6.4379C7.11376 6.71648 7.33474 7.04719 7.48551 7.41117C7.63627 7.77515 7.71387 8.16526 7.71387 8.55922C7.71387 9.35487 7.3978 10.1179 6.83519 10.6805C6.27258 11.2432 5.50952 11.5592 4.71387 11.5592C3.91822 11.5592 3.15516 11.2432 2.59255 10.6805C2.02994 10.1179 1.71387 9.35487 1.71387 8.55922ZM19.2853 6.84494C18.8306 6.84494 18.3946 7.02555 18.0731 7.34704C17.7516 7.66853 17.571 8.10456 17.571 8.55922C17.571 9.01388 17.7516 9.44991 18.0731 9.7714C18.3946 10.0929 18.8306 10.2735 19.2853 10.2735C19.74 10.2735 20.176 10.0929 20.4975 9.7714C20.819 9.44991 20.9996 9.01388 20.9996 8.55922C20.9996 8.10456 20.819 7.66853 20.4975 7.34704C20.176 7.02555 19.74 6.84494 19.2853 6.84494ZM16.2853 8.55922C16.2853 7.76357 16.6014 7.00051 17.164 6.4379C17.7266 5.87529 18.4896 5.55922 19.2853 5.55922C20.0809 5.55922 20.844 5.87529 21.4066 6.4379C21.9692 7.00051 22.2853 7.76357 22.2853 8.55922C22.2853 9.35487 21.9692 10.1179 21.4066 10.6805C20.844 11.2432 20.0809 11.5592 19.2853 11.5592C18.4896 11.5592 17.7266 11.2432 17.164 10.6805C16.6014 10.1179 16.2853 9.35487 16.2853 8.55922ZM7.71387 13.0592C7.71387 12.2312 8.38587 11.5592 9.21387 11.5592H14.7853C15.6133 11.5592 16.2853 12.2312 16.2853 13.0592V17.5592C16.2853 18.6959 15.8338 19.786 15.03 20.5897C14.2263 21.3934 13.1362 21.8449 11.9996 21.8449C10.8629 21.8449 9.77285 21.3934 8.96912 20.5897C8.1654 19.786 7.71387 18.6959 7.71387 17.5592V13.0592ZM9.21387 12.8449C9.15703 12.8449 9.10253 12.8675 9.06234 12.9077C9.02216 12.9479 8.99958 13.0024 8.99958 13.0592V17.5592C8.99958 18.3549 9.31565 19.1179 9.87826 19.6805C10.4409 20.2432 11.2039 20.5592 11.9996 20.5592C12.7952 20.5592 13.5583 20.2432 14.1209 19.6805C14.6835 19.1179 14.9996 18.3549 14.9996 17.5592V13.0592C14.9996 13.0024 14.977 12.9479 14.9368 12.9077C14.8966 12.8675 14.8421 12.8449 14.7853 12.8449H9.21387ZM6.85672 13.0609L2.82558 14.1409C2.63528 14.192 2.45689 14.28 2.30061 14.3999C2.14433 14.5199 2.01321 14.6695 1.91475 14.8402C1.81629 15.0108 1.75241 15.1992 1.72677 15.3945C1.70113 15.5899 1.71422 15.7884 1.7653 15.9787L2.48615 18.6692C2.65103 19.2851 2.95124 19.8564 3.36489 20.3415C3.77855 20.8267 4.29523 21.2134 4.87729 21.4736C5.45935 21.7337 6.09212 21.8607 6.72948 21.8454C7.36685 21.83 7.99275 21.6726 8.56158 21.3846C8.22747 21.0845 7.93412 20.7419 7.68901 20.3655C7.59587 20.4009 7.50044 20.4318 7.40272 20.4581C7.02215 20.5601 6.62521 20.5861 6.23457 20.5347C5.84394 20.4833 5.46725 20.3555 5.12603 20.1585C4.7848 19.9615 4.48573 19.6992 4.24588 19.3866C4.00603 19.074 3.8301 18.7172 3.72815 18.3366L3.0073 15.6452C2.99264 15.5903 3.00039 15.5318 3.02884 15.4827C3.05729 15.4335 3.10411 15.3976 3.15901 15.3829L6.85672 14.3921V13.0609ZM15.4384 21.3838C15.6984 21.5152 15.9744 21.6206 16.2664 21.7001C16.8101 21.8458 17.3772 21.8829 17.9352 21.8095C18.4932 21.736 19.0313 21.5533 19.5188 21.2719C20.0062 20.9904 20.4334 20.6157 20.7761 20.1692C21.1187 19.7226 21.37 19.2129 21.5156 18.6692L22.2364 15.9778C22.3393 15.5936 22.2854 15.1843 22.0866 14.8398C21.8878 14.4954 21.5603 14.244 21.1762 14.1409L17.1424 13.0609V14.3912L20.8436 15.3829C20.8983 15.3978 20.9449 15.4337 20.9732 15.4829C21.0015 15.5321 21.0091 15.5904 20.9944 15.6452L20.2744 18.3366C20.1659 18.742 19.9735 19.1201 19.7096 19.4465C19.4458 19.7729 19.1165 20.0403 18.7429 20.2314C18.3692 20.4225 17.9597 20.5331 17.5406 20.5561C17.1216 20.579 16.7024 20.5138 16.3102 20.3647C16.065 20.7418 15.771 21.0847 15.4384 21.3838Z" fill="#1877F2"/>
</svg>
