<svg width="24" height="25" viewBox="0 0 24 25" fill="none" xmlns="http://www.w3.org/2000/svg">
<g clip-path="url(#clip0_2428_18007)">
<path d="M10.9395 2.66672C11.2208 2.38551 11.6022 2.22754 12 2.22754C12.3977 2.22754 12.7792 2.38551 13.0605 2.66672L16.5 6.10622V4.16672C16.5 3.96781 16.579 3.77704 16.7196 3.63639C16.8603 3.49574 17.0511 3.41672 17.25 3.41672H18.75C18.9489 3.41672 19.1396 3.49574 19.2803 3.63639C19.421 3.77704 19.5 3.96781 19.5 4.16672V9.10622L23.031 12.6357C23.1007 12.7055 23.156 12.7882 23.1938 12.8793C23.2315 12.9705 23.2509 13.0681 23.2509 13.1667C23.2509 13.2653 23.2315 13.363 23.1938 13.4541C23.156 13.5452 23.1007 13.628 23.031 13.6977C22.9612 13.7675 22.8785 13.8228 22.7873 13.8605C22.6962 13.8982 22.5986 13.9177 22.5 13.9177C22.4014 13.9177 22.3037 13.8982 22.2126 13.8605C22.1215 13.8228 22.0387 13.7675 21.969 13.6977L12 3.72722L4.49997 11.2272V20.6667C4.49997 20.8656 4.57899 21.0564 4.71964 21.1971C4.86029 21.3377 5.05106 21.4167 5.24997 21.4167H11.25C11.4489 21.4167 11.6396 21.4957 11.7803 21.6364C11.921 21.777 12 21.9678 12 22.1667C12 22.3656 11.921 22.5564 11.7803 22.6971C11.6396 22.8377 11.4489 22.9167 11.25 22.9167H5.24997C4.65323 22.9167 4.08094 22.6797 3.65898 22.2577C3.23702 21.8358 2.99997 21.2635 2.99997 20.6667V12.7272L2.03097 13.6977C1.96124 13.7675 1.87846 13.8228 1.78735 13.8605C1.69624 13.8982 1.59859 13.9177 1.49997 13.9177C1.40135 13.9177 1.3037 13.8982 1.2126 13.8605C1.12149 13.8228 1.0387 13.7675 0.968971 13.6977C0.899239 13.628 0.843925 13.5452 0.806186 13.4541C0.768447 13.363 0.749023 13.2653 0.749023 13.1667C0.749023 13.0681 0.768447 12.9705 0.806186 12.8793C0.843925 12.7882 0.899239 12.7055 0.968971 12.6357L10.9395 2.66672Z" fill="#1877F2"/>
<path d="M23.1897 19.4897C23.1898 20.0633 22.9885 20.6187 22.6209 21.0591C22.2533 21.4994 21.7428 21.7967 21.1784 21.899C20.614 22.0013 20.0315 21.9022 19.5328 21.619C19.034 21.3357 18.6505 20.8863 18.4492 20.3492C18.4474 21.96 18.5507 23.0318 20.0793 23.8413H15.9175C17.4461 23.032 17.5495 21.9605 17.5476 20.3492C17.3794 20.797 17.0836 21.1858 16.6969 21.4673C16.3101 21.7489 15.8493 21.9109 15.3714 21.9333C14.8935 21.9557 14.4196 21.8376 14.0081 21.5935C13.5967 21.3494 13.2658 20.9901 13.0564 20.5599C12.847 20.1298 12.7683 19.6477 12.83 19.1733C12.8917 18.6989 13.0911 18.253 13.4035 17.8907C13.7159 17.5284 14.1277 17.2657 14.5879 17.1349C15.0481 17.0042 15.5365 17.0112 15.9927 17.1551C15.736 16.7882 15.5847 16.3579 15.5555 15.9111C15.5262 15.4642 15.6201 15.0179 15.8269 14.6207C16.0337 14.2235 16.3455 13.8907 16.7284 13.6584C17.1112 13.4261 17.5505 13.3032 17.9983 13.3032C18.4461 13.3032 18.8853 13.4261 19.2682 13.6584C19.651 13.8907 19.9628 14.2235 20.1696 14.6207C20.3765 15.0179 20.4704 15.4642 20.4411 15.9111C20.4119 16.3579 20.2606 16.7882 20.0038 17.1551C20.3706 17.0394 20.7595 17.0117 21.139 17.0743C21.5185 17.1369 21.8779 17.288 22.1882 17.5153C22.4984 17.7427 22.7507 18.0399 22.9247 18.3829C23.0987 18.7259 23.1895 19.1051 23.1897 19.4897Z" fill="#1877F2"/>
</g>
<defs>
<clipPath id="clip0_2428_18007">
<rect width="24" height="24" fill="white" transform="translate(0 0.416504)"/>
</clipPath>
</defs>
</svg>
