<svg width="24" height="24" viewBox="0 0 24 24" fill="none" xmlns="http://www.w3.org/2000/svg">
<path d="M16.7219 8.03613H19.4202C19.5991 8.03613 19.7706 8.1072 19.8972 8.23371C20.0237 8.36021 20.0947 8.53179 20.0947 8.71069V10.1441C20.0947 10.6585 19.8904 11.1518 19.5267 11.5155C19.163 11.8792 18.6697 12.0835 18.1554 12.0835H16.7219M16.7219 8.03613H5.25439V16.1309C5.25439 17.0254 5.60974 17.8833 6.24227 18.5158C6.87479 19.1483 7.73267 19.5037 8.6272 19.5037H13.3491C13.792 19.5037 14.2306 19.4164 14.6398 19.2469C15.049 19.0774 15.4209 18.829 15.7341 18.5158C16.0472 18.2026 16.2957 17.8308 16.4652 17.4216C16.6347 17.0124 16.7219 16.5738 16.7219 16.1309V8.03613ZM3.90527 22.2019H18.071" stroke="#1877F2" stroke-linecap="round" stroke-linejoin="round"/>
<path d="M8.16896 2.39706C8.16759 2.8325 8.28814 3.25963 8.51697 3.6301C8.74583 4.00062 9.07385 4.29967 9.4639 4.49339C9.46397 4.49342 9.46404 4.49346 9.46411 4.49349L10.8684 5.19488L10.869 5.19514C11.0013 5.26085 11.1126 5.36231 11.1903 5.48802C11.2679 5.61374 11.3088 5.75868 11.3083 5.90644V5.90727V5.98366V6.23366L8.41896 2.39747M8.16896 2.39706C8.16896 2.39692 8.16896 2.39678 8.16896 2.39664L8.41896 2.39747M8.16896 2.39706V2.39747H8.41896M8.16896 2.39706V1.79785V1.54785H8.41896H9.46541H9.71541V1.79785V2.39747V2.39824H9.71541C9.71495 2.54604 9.75591 2.69101 9.83363 2.81673C9.91135 2.94245 10.0227 3.04389 10.1552 3.10954L10.1559 3.1099L10.1559 3.1099L11.559 3.81122L11.4479 4.03517L10.0441 3.33352C9.86984 3.24712 9.72326 3.11363 9.62099 2.94819C9.51871 2.78275 9.46481 2.59197 9.46541 2.39747V2.04785V1.79785H9.21541H8.66896H8.41896V2.04785V2.39747M11.5583 5.90035V5.90727C11.5583 5.90496 11.5583 5.90266 11.5583 5.90035ZM12.6048 5.90727L12.8548 5.90807C12.8548 5.90792 12.8548 5.90776 12.8548 5.90761C12.8561 5.47213 12.7354 5.04497 12.5065 4.6745C12.2776 4.30403 11.9495 4.00506 11.5594 3.81142L12.6048 5.90727ZM12.6048 5.89394V5.73366H12.5981C12.6024 5.78686 12.6046 5.84033 12.6048 5.89394Z" stroke="#1877F2" stroke-width="0.5"/>
</svg>
