<svg width="24" height="24" viewBox="0 0 24 24" fill="none" xmlns="http://www.w3.org/2000/svg">
<path d="M6.01726 12.8183C5.74112 12.8183 5.51726 13.0421 5.51726 13.3183C5.51726 13.5944 5.74112 13.8183 6.01726 13.8183V12.8183ZM17.9837 13.8183C18.2599 13.8183 18.4837 13.5944 18.4837 13.3183C18.4837 13.0421 18.2599 12.8183 17.9837 12.8183V13.8183ZM6.79938 11.1814C6.79938 11.4575 7.02324 11.6814 7.29938 11.6814C7.57552 11.6814 7.79938 11.4575 7.79938 11.1814H6.79938ZM6.29762 7.33502V6.83502H6.29761L6.29762 7.33502ZM3.81372 9.26248L4.29805 9.38668L4.29806 9.38665L3.81372 9.26248ZM8.79519 20.5836L8.34797 20.8072L8.79519 20.5836ZM10.291 22.3657C10.5671 22.3657 10.791 22.1419 10.791 21.8657C10.791 21.5896 10.5671 21.3657 10.291 21.3657V22.3657ZM16.2016 11.1814C16.2016 11.4575 16.4255 11.6814 16.7016 11.6814C16.9777 11.6814 17.2016 11.4575 17.2016 11.1814H16.2016ZM17.7034 7.33502L17.7034 6.83502H17.7034V7.33502ZM20.1873 9.26248L19.7029 9.38665L19.7029 9.38668L20.1873 9.26248ZM15.2058 20.5836L14.7586 20.36L15.2058 20.5836ZM13.71 21.3657C13.4338 21.3657 13.21 21.5896 13.21 21.8657C13.21 22.1419 13.4338 22.3657 13.71 22.3657V21.3657ZM5.80357 3.70235H5.30357H5.80357ZM7.29767 2.20825V1.70825V2.20825ZM8.79177 3.70235H9.29177H8.79177ZM18.1974 3.70235H17.6974H18.1974ZM16.7016 2.20654V1.70654V2.20654ZM16.4678 5.55407L16.1791 5.96232L16.4678 5.55407ZM7.06572 5.55435L7.35387 5.14573L7.06572 5.55435ZM16.9353 5.55435L17.2234 5.96298L16.9353 5.55435ZM21.8241 15.6456L21.3398 15.7698L21.8241 15.6456ZM2.17685 15.6456L2.66117 15.7698L2.17685 15.6456ZM7.53317 5.55407L7.82185 5.96232L7.53317 5.55407ZM6.01726 13.8183H17.9837V12.8183H6.01726V13.8183ZM11.5005 13.3183V22.2931H12.5005V13.3183H11.5005ZM7.79938 11.1814V7.83502H6.79938V11.1814H7.79938ZM6.79938 6.83502H6.29762V7.83502H6.79938V6.83502ZM6.29761 6.83502C5.61738 6.83503 4.95649 7.06138 4.41909 7.47839L5.03214 8.26843C5.39417 7.98751 5.83938 7.83503 6.29762 7.83502L6.29761 6.83502ZM4.41909 7.47839C3.88168 7.89541 3.49831 8.47939 3.32938 9.13831L4.29806 9.38665C4.41186 8.94276 4.67012 8.54936 5.03214 8.26843L4.41909 7.47839ZM3.32939 9.13828L1.69252 15.5214L2.66117 15.7698L4.29805 9.38668L3.32939 9.13828ZM2.36064 16.3825H7.15692V15.3825H2.36064V16.3825ZM7.65413 16.8797V17.1646H8.65413V16.8797H7.65413ZM7.65413 17.1646C7.65413 18.4576 7.65128 19.4138 8.34797 20.8072L9.2424 20.36C8.65697 19.1891 8.65413 18.4358 8.65413 17.1646H7.65413ZM8.79519 20.5836C8.34797 20.8072 8.34803 20.8073 8.3481 20.8075C8.34812 20.8075 8.34819 20.8076 8.34824 20.8077C8.34833 20.8079 8.34844 20.8081 8.34856 20.8084C8.3488 20.8088 8.34907 20.8094 8.34939 20.81C8.35002 20.8113 8.35082 20.8128 8.35177 20.8147C8.35368 20.8184 8.35622 20.8234 8.35939 20.8295C8.36573 20.8416 8.37458 20.8583 8.38585 20.8788C8.40836 20.92 8.4407 20.977 8.48207 21.0447C8.56414 21.179 8.68497 21.3606 8.83845 21.5448C9.11884 21.8812 9.62288 22.3657 10.291 22.3657V21.3657C10.1044 21.3657 9.86049 21.2092 9.60667 20.9046C9.49305 20.7682 9.40018 20.6293 9.33535 20.5232C9.30326 20.4707 9.27884 20.4276 9.26295 20.3985C9.25502 20.3841 9.24927 20.3732 9.2458 20.3665C9.24407 20.3632 9.24291 20.361 9.24233 20.3598C9.24205 20.3593 9.24191 20.359 9.24192 20.359C9.24193 20.359 9.24197 20.3591 9.24205 20.3593C9.24209 20.3594 9.24214 20.3595 9.2422 20.3596C9.24223 20.3596 9.24228 20.3597 9.24229 20.3598C9.24234 20.3599 9.2424 20.36 8.79519 20.5836ZM17.2016 11.1814V7.83502H16.2016V11.1814H17.2016ZM17.2016 7.83502H17.7034V6.83502H17.2016V7.83502ZM17.7034 7.83502C18.1616 7.83503 18.6068 7.98751 18.9688 8.26843L19.5819 7.47839C19.0445 7.06138 18.3836 6.83503 17.7034 6.83502L17.7034 7.83502ZM18.9688 8.26843C19.3309 8.54936 19.5891 8.94276 19.7029 9.38665L20.6716 9.13831C20.5027 8.47939 20.1193 7.89541 19.5819 7.47839L18.9688 8.26843ZM19.7029 9.38668L21.3398 15.7698L22.3085 15.5214L20.6716 9.13828L19.7029 9.38668ZM21.6403 15.3825H16.8468V16.3825H21.6403V15.3825ZM15.3468 16.8825V17.1646H16.3468V16.8825H15.3468ZM15.3468 17.1646C15.3468 18.4358 15.344 19.1891 14.7586 20.36L15.653 20.8072C16.3497 19.4138 16.3468 18.4576 16.3468 17.1646H15.3468ZM15.2058 20.5836C14.7586 20.36 14.7586 20.3599 14.7587 20.3598C14.7587 20.3597 14.7587 20.3596 14.7588 20.3596C14.7588 20.3595 14.7589 20.3594 14.7589 20.3593C14.759 20.3591 14.7591 20.359 14.7591 20.359C14.7591 20.359 14.7589 20.3593 14.7586 20.3598C14.7581 20.361 14.7569 20.3632 14.7552 20.3665C14.7517 20.3732 14.746 20.3841 14.738 20.3985C14.7221 20.4276 14.6977 20.4707 14.6656 20.5232C14.6008 20.6293 14.5079 20.7682 14.3943 20.9046C14.1405 21.2092 13.8966 21.3657 13.71 21.3657V22.3657C14.3781 22.3657 14.8821 21.8812 15.1625 21.5448C15.316 21.3606 15.4368 21.179 15.5189 21.0447C15.5603 20.977 15.5926 20.92 15.6151 20.8788C15.6264 20.8583 15.6352 20.8416 15.6416 20.8295C15.6448 20.8234 15.6473 20.8184 15.6492 20.8147C15.6502 20.8128 15.651 20.8113 15.6516 20.81C15.6519 20.8094 15.6522 20.8088 15.6524 20.8084C15.6525 20.8081 15.6526 20.8079 15.6527 20.8077C15.6528 20.8076 15.6529 20.8075 15.6529 20.8075C15.6529 20.8073 15.653 20.8072 15.2058 20.5836ZM7.35387 5.14573C7.21039 5.04456 6.93247 4.83099 6.69531 4.5521C6.45097 4.26477 6.30357 3.97152 6.30357 3.70235H5.30357C5.30357 4.31969 5.62693 4.83939 5.93351 5.19992C6.24727 5.56888 6.60043 5.83805 6.77758 5.96297L7.35387 5.14573ZM6.30357 3.70235C6.30357 3.4387 6.40831 3.18585 6.59474 2.99942L5.88763 2.29231C5.51366 2.66628 5.30357 3.17348 5.30357 3.70235L6.30357 3.70235ZM6.59474 2.99942C6.78117 2.81299 7.03402 2.70825 7.29767 2.70825V1.70825C6.7688 1.70825 6.2616 1.91834 5.88763 2.29231L6.59474 2.99942ZM7.29767 2.70825C7.56132 2.70825 7.81417 2.81299 8.0006 2.99942L8.70771 2.29231C8.33375 1.91834 7.82654 1.70825 7.29767 1.70825V2.70825ZM8.0006 2.99942C8.18703 3.18585 8.29177 3.4387 8.29177 3.70235L9.29177 3.70235C9.29177 3.17348 9.08168 2.66628 8.70771 2.29231L8.0006 2.99942ZM8.29177 3.70235C8.29177 3.97182 8.14467 4.2651 7.9012 4.55223C7.66481 4.831 7.38774 5.04453 7.24449 5.14583L7.82185 5.96232C7.99881 5.83718 8.35104 5.56792 8.6639 5.19898C8.96967 4.83839 9.29177 4.31902 9.29177 3.70235H8.29177ZM17.2234 5.96298C17.4005 5.83806 17.7537 5.56888 18.0675 5.19992C18.374 4.83939 18.6974 4.31969 18.6974 3.70235H17.6974C17.6974 3.97152 17.55 4.26477 17.3057 4.5521C17.0685 4.83099 16.7906 5.04456 16.6471 5.14573L17.2234 5.96298ZM18.6974 3.70235C18.6974 3.17303 18.4871 2.66539 18.1128 2.2911L17.4057 2.99821C17.5925 3.18496 17.6974 3.43825 17.6974 3.70235L18.6974 3.70235ZM18.1128 2.2911C17.7386 1.91681 17.2309 1.70654 16.7016 1.70654V2.70654C16.9657 2.70654 17.219 2.81146 17.4057 2.99821L18.1128 2.2911ZM16.7016 1.70654C15.5983 1.70654 14.7092 2.60201 14.7092 3.70235H15.7092C15.7092 3.15132 16.1535 2.70654 16.7016 2.70654V1.70654ZM14.7092 3.70235C14.7092 4.31902 15.0313 4.83839 15.3371 5.19898C15.6499 5.56793 16.0022 5.83718 16.1791 5.96232L16.7565 5.14583C16.6132 5.04453 16.3362 4.831 16.0998 4.55223C15.8563 4.2651 15.7092 3.97182 15.7092 3.70235H14.7092ZM16.1791 5.96232C16.3413 6.07702 16.5265 6.12553 16.7017 6.12553V5.12553C16.7092 5.12553 16.7312 5.12797 16.7565 5.14583L16.1791 5.96232ZM6.77758 5.96297C6.93958 6.07722 7.12435 6.12553 7.29924 6.12553V5.12553C7.30675 5.12553 7.32866 5.12796 7.35387 5.14573L6.77758 5.96297ZM7.79938 7.83502C7.79938 7.28274 7.35167 6.83502 6.79938 6.83502V7.83502H7.79938ZM17.2016 7.83502V6.83502C16.6493 6.83502 16.2016 7.28274 16.2016 7.83502H17.2016ZM1.6709 15.6927C1.6709 16.0737 1.97971 16.3825 2.36064 16.3825V15.3825C2.53199 15.3825 2.6709 15.5214 2.6709 15.6927H1.6709ZM16.6471 5.14573C16.6723 5.12796 16.6942 5.12553 16.7017 5.12553V6.12553C16.8766 6.12553 17.0614 6.07722 17.2234 5.96298L16.6471 5.14573ZM16.8468 15.3825C16.0184 15.3825 15.3468 16.0541 15.3468 16.8825H16.3468C16.3468 16.6064 16.5707 16.3825 16.8468 16.3825V15.3825ZM7.15692 16.3825C7.43152 16.3825 7.65413 16.6051 7.65413 16.8797H8.65413C8.65413 16.0528 7.98381 15.3825 7.15692 15.3825V16.3825ZM21.3398 15.7698C21.3333 15.7446 21.3301 15.7187 21.3301 15.6927H22.3301C22.3301 15.635 22.3228 15.5774 22.3085 15.5214L21.3398 15.7698ZM1.69252 15.5214C1.67816 15.5774 1.6709 15.635 1.6709 15.6927H2.6709C2.6709 15.7187 2.66763 15.7446 2.66117 15.7698L1.69252 15.5214ZM7.24449 5.14583C7.26975 5.12797 7.29173 5.12553 7.29924 5.12553V6.12553C7.47449 6.12553 7.65964 6.07702 7.82185 5.96232L7.24449 5.14583ZM21.3301 15.6927C21.3301 15.5214 21.469 15.3825 21.6403 15.3825V16.3825C22.0213 16.3825 22.3301 16.0737 22.3301 15.6927H21.3301Z" fill="#1877F2"/>
<path d="M14.3027 13.1077V6.76865C14.3027 6.4343 14.1341 6.12124 13.8239 5.99647C13.4296 5.83786 12.8052 5.65803 12.001 5.65803C11.1968 5.65803 10.5724 5.83786 10.1781 5.99647C9.86788 6.12124 9.69922 6.4343 9.69922 6.76865V13.1077M10.994 3.21241C10.994 3.80923 11.6278 4.30702 11.8437 4.45923C11.8897 4.4917 11.9445 4.50715 12.0009 4.50715V4.50715C12.0573 4.50715 12.1123 4.49164 12.1584 4.45904C12.3739 4.3066 13.0057 3.80899 13.0057 3.21241C13.0057 2.94564 12.8997 2.68979 12.7111 2.50115C12.5224 2.31252 12.2666 2.20654 11.9998 2.20654C11.7331 2.20654 11.4772 2.31252 11.2886 2.50115C11.0999 2.68979 10.994 2.94564 10.994 3.21241Z" stroke="#1877F2"/>
</svg>
