<svg width="24" height="24" viewBox="0 0 24 24" fill="none" xmlns="http://www.w3.org/2000/svg">
<path d="M3 5H8.43C8.75918 5.00005 9.08329 4.91884 9.37357 4.76359C9.66384 4.60834 9.9113 4.38383 10.094 4.11L10.906 2.89C11.0887 2.61617 11.3362 2.39166 11.6264 2.23641C11.9167 2.08116 12.2408 1.99995 12.57 2H17.058C17.4779 1.9999 17.8872 2.13198 18.2279 2.37752C18.5686 2.62305 18.8233 2.96959 18.956 3.368L19.5 5M21 5H8" stroke="#1877F2" stroke-linecap="round" stroke-linejoin="round"/>
<path d="M19.5 5L18.88 14.906C18.8593 15.2327 18.839 15.5383 18.819 15.823M4.5 5L5.105 14.897C5.259 17.311 5.337 18.517 5.979 19.386C6.296 19.815 6.705 20.177 7.179 20.449C8.139 21 9.423 21 11.993 21H14.5M20 19C20 18.2044 19.6839 17.4413 19.1213 16.8787C18.5587 16.3161 17.7957 16 17 16C16.2044 16 15.4413 16.3161 14.8787 16.8787C14.3161 17.4413 14 18.2044 14 19C14 19.7956 14.3161 20.5587 14.8787 21.1213C15.4413 21.6839 16.2044 22 17 22C17.7957 22 18.5587 21.6839 19.1213 21.1213C19.6839 20.5587 20 19.7956 20 19Z" stroke="#1877F2" stroke-linecap="round" stroke-linejoin="round"/>
</svg>
