<svg width="24" height="24" viewBox="0 0 24 24" fill="none" xmlns="http://www.w3.org/2000/svg">
<path d="M2 16.8384H5H8M8 18.4025H2M16 16.8384H19H22M22 18.4025H16M12.75 11.3384H11.25V15.3384H12.75V11.3384Z" stroke="#1877F2" stroke-linecap="round" stroke-linejoin="round"/>
<path d="M14 15.3384H10C9.057 15.3384 8.586 15.3384 8.293 15.6314C8 15.9244 8 16.3954 8 17.3384V17.8384C8 18.7814 8 19.2524 8.293 19.5454C8.586 19.8384 9.057 19.8384 10 19.8384H14C14.943 19.8384 15.414 19.8384 15.707 19.5454C16 19.2524 16 18.7814 16 17.8384V17.3384C16 16.3954 16 15.9244 15.707 15.6314C15.414 15.3384 14.943 15.3384 14 15.3384Z" stroke="#1877F2" stroke-linecap="round" stroke-linejoin="round"/>
<circle cx="11.7588" cy="7.91992" r="3.25879" stroke="#1877F2"/>
</svg>
