<svg width="24" height="25" viewBox="0 0 24 25" fill="none" xmlns="http://www.w3.org/2000/svg">
<path d="M4.18937 19.1061L4.18881 19.1066C4.0472 19.2228 3.8652 19.2781 3.68285 19.2601C3.5005 19.2422 3.33274 19.1526 3.21648 19.011C3.10021 18.8694 3.04496 18.6874 3.06289 18.505C3.0808 18.3228 3.17034 18.1551 3.31181 18.0388C5.16842 16.4993 6.81031 16.1011 8.30393 16.2667C9.78333 16.4307 11.1033 17.1474 12.317 17.8065L12.3282 17.8126C13.5541 18.4783 14.667 19.0808 15.8532 19.2085C17.0279 19.335 18.2906 18.9961 19.8115 17.7325L19.8122 17.732C19.8821 17.6747 19.9627 17.6318 20.0492 17.6057C20.1357 17.5796 20.2266 17.5708 20.3165 17.5799C20.4064 17.5889 20.4937 17.6156 20.5733 17.6584C20.6528 17.7012 20.723 17.7591 20.7801 17.829M4.18937 19.1061L11.7323 18.9162C13.1207 19.6709 14.6151 20.4818 16.3204 20.4818C17.6095 20.4818 19.0279 20.0131 20.6095 18.7006L20.6893 18.7968C20.6893 18.7968 20.6893 18.7968 20.6893 18.7968C20.7588 18.7391 20.8163 18.6684 20.8585 18.5886C20.9006 18.5087 20.9267 18.4214 20.9351 18.3315C20.9435 18.2415 20.9341 18.1509 20.9075 18.0646C20.8809 17.9784 20.8376 17.8984 20.7801 17.829M4.18937 19.1061C5.71017 17.8425 6.97388 17.5043 8.14901 17.6312C9.33568 17.7593 10.4486 18.3617 11.6726 19.026L4.18937 19.1061ZM20.7801 17.829C20.7802 17.8291 20.7803 17.8292 20.7804 17.8294L20.6836 17.9084L20.7798 17.8286C20.7799 17.8287 20.78 17.8288 20.7801 17.829ZM3.31159 14.289L3.31164 14.289C4.71657 13.1255 5.99925 12.6131 7.1902 12.505L10.0514 9.64376C8.82023 8.95946 7.43355 8.60107 6.02319 8.604L6.02293 8.60401L3.75043 8.604C3.56809 8.604 3.39323 8.53157 3.26429 8.40264C3.13536 8.27371 3.06293 8.09884 3.06293 7.9165C3.06293 7.73417 3.13536 7.5593 3.26429 7.43037C3.39323 7.30144 3.56809 7.229 3.75043 7.229H6.02272H6.02293V7.354C7.27905 7.35028 8.52343 7.59579 9.68401 8.07631L3.31159 14.289ZM3.31159 14.289C3.1712 14.4054 3.08279 14.5728 3.06581 14.7544C3.04884 14.9359 3.10469 15.1168 3.22107 15.2572C3.33746 15.3976 3.50485 15.486 3.68642 15.503C3.868 15.52 4.04887 15.4641 4.18927 15.3477L4.18929 15.3477C5.71005 14.0865 6.97403 13.7491 8.14937 13.8759C9.33625 14.0039 10.4492 14.6053 11.6728 15.2677L3.31159 14.289ZM17.9528 15.1461L12.8728 10.0652L16.3204 16.729C17.6132 16.729 19.0279 16.2603 20.6095 14.9478L20.6893 15.044C20.6893 15.044 20.6893 15.044 20.6893 15.0439C20.7588 14.9863 20.8163 14.9156 20.8584 14.8358C20.9006 14.7559 20.9266 14.6685 20.935 14.5786L20.8106 14.567L20.9351 14.5786C20.9435 14.4887 20.9341 14.3981 20.9074 14.3118C20.8808 14.2255 20.8374 14.1453 20.7798 14.0758L20.6836 14.1556L20.7798 14.0758C20.7222 14.0063 20.6514 13.9488 20.5716 13.9066C20.4917 13.8644 20.4043 13.8384 20.3144 13.83C20.2245 13.8216 20.1339 13.831 20.0476 13.8576C19.9613 13.8843 19.8811 13.9276 19.8116 13.9853C19.1473 14.5359 18.5318 14.9098 17.9528 15.1461ZM11.9012 11.04L12.0003 11.1382L16.3442 15.4829C14.9712 15.495 13.7212 14.82 12.3282 14.0635C11.3051 13.5076 10.2034 12.9114 9.0035 12.6362L11.2133 10.4272C11.4533 10.6192 11.6829 10.8237 11.9012 11.04ZM16.5004 10.104C17.0814 10.104 17.6493 9.93172 18.1324 9.60895C18.6155 9.28617 18.992 8.82739 19.2143 8.29064C19.4367 7.75388 19.4948 7.16325 19.3815 6.59343C19.2681 6.02361 18.9884 5.5002 18.5776 5.08938C18.1667 4.67856 17.6433 4.39879 17.0735 4.28545C16.5037 4.1721 15.9131 4.23028 15.3763 4.45261C14.8395 4.67494 14.3808 5.05145 14.058 5.53452C13.7352 6.01759 13.5629 6.58552 13.5629 7.1665C13.5629 7.94558 13.8724 8.69274 14.4233 9.24363C14.9742 9.79452 15.7214 10.104 16.5004 10.104ZM16.5004 5.60401C16.8095 5.60401 17.1116 5.69564 17.3685 5.86733C17.6255 6.03902 17.8257 6.28305 17.944 6.56856C18.0623 6.85407 18.0932 7.16824 18.0329 7.47133C17.9726 7.77443 17.8238 8.05284 17.6053 8.27136C17.3868 8.48988 17.1084 8.63869 16.8053 8.69898C16.5022 8.75927 16.188 8.72833 15.9025 8.61007C15.617 8.4918 15.3729 8.29154 15.2013 8.03458C15.0296 7.77763 14.9379 7.47554 14.9379 7.1665C14.9379 6.7521 15.1026 6.35468 15.3956 6.06165C15.6886 5.76863 16.086 5.60401 16.5004 5.60401Z" fill="#1877F2" stroke="#1877F2" stroke-width="0.25"/>
</svg>
