<svg width="24" height="24" viewBox="0 0 24 24" fill="none" xmlns="http://www.w3.org/2000/svg">
<path d="M18.9957 5.51313L18.9949 5.51361L8.87488 11.3636L8.75 11.4358V11.5801V20.0001V20.2501H9C9.19891 20.2501 9.38968 20.3291 9.53033 20.4697C9.67098 20.6104 9.75 20.8011 9.75 21.0001V21.7501H2.25V21.0001C2.25 20.8011 2.32902 20.6104 2.46967 20.4697C2.61032 20.3291 2.80109 20.2501 3 20.2501H3.25V20.0001V11.0001C3.25 10.2707 3.53973 9.57123 4.05546 9.05551C4.57118 8.53978 5.27065 8.25005 6 8.25005C6.27796 8.25005 6.56102 8.30391 6.84094 8.39722L6.94763 8.43279L7.04502 8.37655L17.245 2.48656C18.0959 1.9953 19.1623 2.2852 19.6431 3.12433C20.1246 3.96477 19.8357 5.03191 18.9957 5.51313ZM7.5 20.2501H7.75V20.0001V13.6001V13.1658L7.37447 13.3839C6.52209 13.8788 5.47791 13.8788 4.62553 13.3839L4.25 13.1658V13.6001V20.0001V20.2501H4.5H7.5ZM10.3003 9.84932L10.4158 9.89954L10.5249 9.8366L11.8249 9.0866L12.2547 8.83863L11.7997 8.64078L9.49968 7.64078L9.38417 7.59056L9.27507 7.65351L7.97507 8.40351L7.54527 8.65147L8.00032 8.84932L10.3003 9.84932ZM13.7603 7.84932L13.8758 7.89954L13.9849 7.8366L15.2849 7.0866L15.7147 6.83863L15.2597 6.64078L12.9597 5.64078L12.8442 5.59056L12.7351 5.65351L11.4351 6.40351L11.0053 6.65147L11.4603 6.84932L13.7603 7.84932ZM17.2303 5.84932L17.3463 5.89975L17.4557 5.83618L18.7457 5.08618L19.172 4.8383L18.72 4.64094L16.43 3.64094L16.3144 3.59044L16.2051 3.65351L14.9051 4.40351L14.4753 4.65147L14.9303 4.84932L17.2303 5.84932ZM18.0008 16.4201L20.3764 16.4121L17 19.6535L13.6236 16.4121L15.9992 16.4201L16.25 16.4209V16.1701V11.4101H17.75V16.1701V16.4209L18.0008 16.4201ZM6 12.7501C6.46413 12.7501 6.90925 12.5657 7.23744 12.2375C7.56563 11.9093 7.75 11.4642 7.75 11.0001C7.75 10.5359 7.56563 10.0908 7.23744 9.76262C6.90925 9.43443 6.46413 9.25005 6 9.25005C5.53587 9.25005 5.09075 9.43443 4.76256 9.76262C4.43437 10.0908 4.25 10.5359 4.25 11.0001C4.25 11.4642 4.43437 11.9093 4.76256 12.2375C5.09075 12.5657 5.53587 12.7501 6 12.7501Z" stroke="#1877F2" stroke-width="0.5"/>
</svg>
