<svg width="24" height="25" viewBox="0 0 24 25" fill="none" xmlns="http://www.w3.org/2000/svg">
<path d="M12 6.9165C12.1989 6.9165 12.3897 6.83749 12.5303 6.69683C12.671 6.55618 12.75 6.36542 12.75 6.1665C12.75 5.96759 12.671 5.77683 12.5303 5.63617C12.3897 5.49552 12.1989 5.4165 12 5.4165C11.8011 5.4165 11.6103 5.49552 11.4697 5.63617C11.329 5.77683 11.25 5.96759 11.25 6.1665C11.25 6.36542 11.329 6.55618 11.4697 6.69683C11.6103 6.83749 11.8011 6.9165 12 6.9165Z" fill="#1877F2"/>
<path fill-rule="evenodd" clip-rule="evenodd" d="M11.908 3.4252L11.904 3.4262L11.8925 3.4282L11.851 3.4362L11.696 3.4672C11.563 3.4942 11.3735 3.5342 11.147 3.5857C10.6945 3.6887 10.087 3.8392 9.477 4.0277C8.873 4.2142 8.2405 4.4462 7.75 4.7177C7.506 4.8527 7.272 5.0112 7.0935 5.1977C6.916 5.3822 6.75 5.6407 6.75 5.9652C6.75 6.8377 6.995 7.4767 7.254 7.9052C7.3815 8.1162 7.511 8.2737 7.613 8.3817C7.61733 8.43937 7.62617 8.50337 7.6395 8.5737C7.69 8.8367 7.8165 9.1717 8.1065 9.4972C7.96841 10.0843 7.96488 10.6951 8.09618 11.2838C8.22748 11.8725 8.49021 12.4238 8.86471 12.8966C9.23921 13.3694 9.71578 13.7514 10.2588 14.014C10.8018 14.2766 11.3971 14.413 12.0002 14.413C12.6034 14.413 13.1987 14.2766 13.7417 14.014C14.2847 13.7514 14.7613 13.3694 15.1358 12.8966C15.5103 12.4238 15.773 11.8725 15.9043 11.2838C16.0356 10.6951 16.0321 10.0843 15.894 9.4972C16.1835 9.1717 16.31 8.8372 16.3605 8.5737C16.3738 8.5037 16.3827 8.4397 16.387 8.3817C16.5233 8.23611 16.6436 8.07637 16.746 7.9052C17.0055 7.4767 17.25 6.8377 17.25 5.9652C17.25 5.6407 17.084 5.3822 16.9065 5.1977C16.728 5.0112 16.494 4.8527 16.25 4.7177C15.7595 4.4462 15.127 4.2142 14.5225 4.0277C13.9716 3.85996 13.4147 3.71253 12.853 3.5857C12.6191 3.53239 12.3844 3.48239 12.149 3.4357L12.1075 3.4282L12.096 3.4262L12.092 3.4252L12 3.4082L11.908 3.4252ZM12 9.6667C13.1035 9.6667 13.8445 9.5237 14.34 9.3377C14.7595 9.1802 15.004 8.9922 15.145 8.8337C15.196 8.77604 15.2373 8.72037 15.269 8.6667H8.731C8.76267 8.7207 8.80383 8.77637 8.8545 8.8337C8.9965 8.9922 9.2405 9.1802 9.6595 9.3377C10.1555 9.5237 10.8965 9.6667 12 9.6667ZM15.686 7.6667H8.314C8.23727 7.5803 8.1688 7.48689 8.1095 7.3877C7.938 7.1042 7.752 6.6457 7.75 5.9757C7.7671 5.94385 7.78902 5.91484 7.815 5.8897C7.896 5.8052 8.033 5.7037 8.2345 5.5927C8.6345 5.3712 9.1895 5.1632 9.7725 4.9827C10.2992 4.82273 10.8315 4.68213 11.3685 4.5612C11.5784 4.51343 11.7889 4.46843 12 4.4262L12.104 4.4467C12.231 4.4727 12.413 4.5117 12.6315 4.5612C13.0695 4.6607 13.65 4.8047 14.2275 4.9832C14.8105 5.1632 15.3655 5.3712 15.7655 5.5927C15.967 5.7037 16.104 5.8052 16.1855 5.8897C16.2305 5.9372 16.2455 5.9652 16.25 5.9757C16.248 6.6457 16.062 7.1042 15.89 7.3877C15.8309 7.48687 15.7626 7.58027 15.686 7.6667ZM9 10.4167C9 10.3267 9.00383 10.2377 9.0115 10.1497C9.6805 10.4632 10.6385 10.6667 12 10.6667C13.1725 10.6667 14.0445 10.5167 14.691 10.2742C14.796 10.2352 14.8952 10.1935 14.9885 10.1492C14.9962 10.2375 15 10.3267 15 10.4167C15 11.2124 14.6839 11.9754 14.1213 12.538C13.5587 13.1006 12.7956 13.4167 12 13.4167C11.2044 13.4167 10.4413 13.1006 9.87868 12.538C9.31607 11.9754 9 11.2124 9 10.4167Z" fill="#1877F2"/>
<path d="M16.5 17.4165C16.8335 17.75 17.5 18.083 17.5 18.083C17.5 18.083 17.151 19.4165 16.5 19.4165C15.849 19.4165 15.5 18.083 15.5 18.083C15.5 18.083 16.1665 17.75 16.5 17.4165Z" fill="#1877F2"/>
<path fill-rule="evenodd" clip-rule="evenodd" d="M10.25 15.9165C10.25 15.6513 10.3554 15.3969 10.5429 15.2094C10.7304 15.0219 10.9848 14.9165 11.25 14.9165H12.75C13.0152 14.9165 13.2696 15.0219 13.4571 15.2094C13.6446 15.3969 13.75 15.6513 13.75 15.9165V16.6075C13.75 16.7703 13.7102 16.9307 13.6341 17.0746C13.5581 17.2186 13.448 17.3418 13.3135 17.4335L13.37 17.7165L15.086 15.633C15.1438 15.5627 15.2198 15.5096 15.3056 15.4793C15.3914 15.4489 15.4839 15.4426 15.573 15.461C16.855 15.727 18.1665 16.13 19.1705 16.683C20.1415 17.218 21 17.9945 21 19.0655V20.9165C21 21.0491 20.9473 21.1763 20.8536 21.2701C20.7598 21.3638 20.6326 21.4165 20.5 21.4165H3.5C3.36739 21.4165 3.24021 21.3638 3.14645 21.2701C3.05268 21.1763 3 21.0491 3 20.9165V19.0655C3 18.0005 3.875 17.229 4.846 16.6985C5.854 16.147 7.166 15.741 8.4325 15.4715C8.52205 15.4525 8.6151 15.4584 8.7015 15.4887C8.78791 15.5189 8.86435 15.5723 8.9225 15.643L10.6375 17.726L10.6915 17.437C10.5555 17.3454 10.4441 17.2219 10.3671 17.0771C10.2901 16.9324 10.2499 16.7709 10.25 16.607V15.9165ZM12.26 17.2645L12.5495 18.713L12 19.38L11.468 18.734L11.7415 17.2575C11.7613 17.1508 11.7459 17.0406 11.6975 16.9434C11.6492 16.8463 11.5706 16.7675 11.4735 16.719L11.25 16.6075V15.9165H12.75V16.6075L12.5265 16.7195C12.4284 16.7685 12.3491 16.8484 12.3009 16.9469C12.2526 17.0453 12.2381 17.157 12.2595 17.2645M12.4415 20.4165L15.6635 16.504C16.7935 16.757 17.877 17.1125 18.6875 17.559C19.602 18.0625 20 18.583 20 19.0655V20.4165H12.4415ZM8.3445 16.515L11.558 20.4165H4V19.0655C4 18.5985 4.4 18.082 5.3255 17.5755C6.142 17.129 7.2275 16.7715 8.3455 16.515" fill="#1877F2"/>
</svg>
