<svg width="24" height="20" viewBox="0 0 24 20" fill="none" xmlns="http://www.w3.org/2000/svg">
<path d="M3.35547 2.6167C1.88733 2.6167 0.694336 3.80969 0.694336 5.27783V13.9224C0.694336 15.3905 1.88733 16.5835 3.35547 16.5835H20.6445C22.1127 16.5835 23.3057 15.3905 23.3057 13.9224V5.27783C23.3057 3.80969 22.1127 2.6167 20.6445 2.6167H3.35547ZM4.43604 5.77783H12C12.3215 5.77783 12.5806 6.03685 12.5806 6.3584V8.51953C12.5806 8.84108 12.3215 9.1001 12 9.1001H4.43604C4.11449 9.1001 3.85547 8.84108 3.85547 8.51953V6.3584C3.85547 6.03685 4.11449 5.77783 4.43604 5.77783ZM3.85547 13.3821C3.85547 13.3726 3.85891 13.3629 3.86773 13.3541C3.87655 13.3452 3.88623 13.3418 3.89575 13.3418H12.5403C12.5498 13.3418 12.5595 13.3452 12.5683 13.3541C12.5771 13.3629 12.5806 13.3726 12.5806 13.3821C12.5806 13.3916 12.5771 13.4013 12.5683 13.4101C12.5595 13.4189 12.5498 13.4224 12.5403 13.4224H3.89575C3.88623 13.4224 3.87655 13.4189 3.86773 13.4101C3.85891 13.4013 3.85547 13.3916 3.85547 13.3821ZM14.6611 13.3821C14.6611 13.3726 14.6646 13.3629 14.6734 13.3541C14.6822 13.3452 14.6919 13.3418 14.7014 13.3418H20.1042C20.1138 13.3418 20.1235 13.3452 20.1323 13.3541C20.1411 13.3629 20.1445 13.3726 20.1445 13.3821C20.1445 13.3916 20.1411 13.4013 20.1323 13.4101C20.1235 13.4189 20.1138 13.4224 20.1042 13.4224H14.7014C14.6919 13.4224 14.6822 13.4189 14.6734 13.4101C14.6646 13.4013 14.6611 13.3916 14.6611 13.3821ZM3.89575 11.1807C3.90644 11.1807 3.91668 11.1849 3.92424 11.1925C3.93179 11.2 3.93604 11.2103 3.93604 11.2209C3.93604 11.2316 3.93179 11.2419 3.92424 11.2494C3.91668 11.257 3.90644 11.2612 3.89575 11.2612C3.88507 11.2612 3.87482 11.257 3.86727 11.2494C3.85971 11.2419 3.85547 11.2316 3.85547 11.2209C3.85547 11.2103 3.85971 11.2 3.86727 11.1925C3.87482 11.1849 3.88507 11.1807 3.89575 11.1807ZM6.0166 11.2209C6.0166 11.2103 6.02085 11.2 6.0284 11.1925C6.03595 11.1849 6.0462 11.1807 6.05688 11.1807C6.06757 11.1807 6.07782 11.1849 6.08537 11.1925C6.09292 11.2 6.09717 11.2103 6.09717 11.2209C6.09717 11.2316 6.09292 11.2419 6.08537 11.2494L6.43892 11.603L6.08537 11.2494C6.07782 11.257 6.06757 11.2612 6.05688 11.2612C6.0462 11.2612 6.03595 11.257 6.0284 11.2494L5.67485 11.603L6.0284 11.2494C6.02085 11.2419 6.0166 11.2316 6.0166 11.2209ZM8.21802 11.1807C8.2287 11.1807 8.23895 11.1849 8.2465 11.1925C8.25406 11.2 8.2583 11.2103 8.2583 11.2209C8.2583 11.2316 8.25406 11.2419 8.2465 11.2494L8.60006 11.603L8.2465 11.2494C8.23895 11.257 8.2287 11.2612 8.21802 11.2612C8.20733 11.2612 8.19709 11.257 8.18953 11.2494L7.83598 11.603L8.18953 11.2494C8.18198 11.2419 8.17773 11.2316 8.17773 11.2209C8.17773 11.2103 8.18198 11.2 8.18953 11.1925C8.19709 11.1849 8.20733 11.1807 8.21802 11.1807ZM10.3389 11.2209C10.3389 11.2103 10.3431 11.2 10.3507 11.1925C10.3582 11.1849 10.3685 11.1807 10.3792 11.1807C10.3898 11.1807 10.4001 11.1849 10.4076 11.1925C10.4152 11.2 10.4194 11.2103 10.4194 11.2209C10.4194 11.2316 10.4152 11.2419 10.4076 11.2494L10.7612 11.603L10.4076 11.2494C10.4001 11.257 10.3898 11.2612 10.3792 11.2612C10.3685 11.2612 10.3582 11.257 10.3507 11.2494L9.99711 11.603L10.3507 11.2494C10.3431 11.2419 10.3389 11.2316 10.3389 11.2209ZM12.5403 11.1807C12.551 11.1807 12.5612 11.1849 12.5688 11.1925C12.5763 11.2 12.5806 11.2103 12.5806 11.2209C12.5806 11.2316 12.5763 11.2419 12.5688 11.2494L12.9223 11.603L12.5688 11.2494C12.5612 11.257 12.551 11.2612 12.5403 11.2612C12.5296 11.2612 12.5194 11.257 12.5118 11.2494L12.1582 11.603L12.5118 11.2494C12.5042 11.2419 12.5 11.2316 12.5 11.2209C12.5 11.2103 12.5042 11.2 12.5118 11.1925C12.5194 11.1849 12.5296 11.1807 12.5403 11.1807Z" stroke="#1877F2"/>
</svg>
