<svg width="24" height="25" viewBox="0 0 24 25" fill="none" xmlns="http://www.w3.org/2000/svg">
<g id="noto:fire" clip-path="url(#clip0_5365_22213)">
<path id="Vector" d="M5.85158 9.58691C6.08125 9.31232 6.33584 9.04591 6.61754 8.79078L6.61754 8.79079L6.62045 8.78813C6.61948 8.78902 6.61851 8.7899 6.61753 8.79078C6.32628 9.0531 5.88708 8.81561 5.92048 8.44612C5.9206 8.44489 5.9207 8.44365 5.92083 8.44241L5.92048 8.44612C5.89034 8.76759 5.86199 9.16245 5.85158 9.58691ZM5.85158 9.58691C5.84294 9.93965 5.84669 10.3128 5.87211 10.6813C5.92512 11.4497 6.08074 12.3732 6.56818 12.9951L8.29771 15.2015L7.90214 12.435M5.85158 9.58691C3.862 11.9656 3.74194 14.9582 4.0578 16.5467M7.90214 12.435L6.11408 8.23488C3.13283 10.9349 2.93783 14.7599 3.3222 16.693M7.90214 12.435C7.90213 12.4349 7.90212 12.4348 7.90211 12.4347C7.90161 12.4294 7.9005 12.4165 7.89955 12.3964C7.89762 12.3554 7.89633 12.2844 7.90205 12.1864C7.91348 11.9908 7.95295 11.6861 8.07228 11.2961C8.30944 10.5209 8.87117 9.37892 10.2068 8.07146M7.90214 12.435L10.2068 8.07146M4.0578 16.5467C4.05778 16.5466 4.05776 16.5465 4.05774 16.5464L3.3222 16.693M4.0578 16.5467C4.50272 18.7788 5.57226 20.4737 7.03647 21.6143C8.50474 22.7581 10.4125 23.3774 12.581 23.3774C15.9776 23.3774 19.3435 20.9054 19.9296 17.6388C20.2157 16.043 20.1252 14.3074 19.0509 12.7779M4.0578 16.5467L3.3222 16.693M3.3222 16.693C4.27658 21.4818 7.9572 24.1274 12.581 24.1274L19.0509 12.7779M10.2068 8.07146C11.5537 6.75325 11.8965 4.92692 11.3989 3.50415L11.3987 3.50353C11.2624 3.11484 11.0732 2.76564 10.8682 2.46164C12.5235 2.68502 14.4546 3.40604 15.368 5.69808L10.2068 8.07146ZM19.0509 12.7779C18.9365 12.9575 18.7946 13.1373 18.6187 13.2961C18.1933 13.6804 17.598 13.9126 16.8601 13.7739L19.0509 12.7779ZM15.6602 9.61378L15.6604 9.61279C15.9086 8.23879 15.862 6.93816 15.368 5.69813L15.6602 9.61378ZM15.6602 9.61378C15.6464 9.69105 15.6266 9.78786 15.6039 9.89936M15.6602 9.61378L15.6039 9.89936M15.6039 9.89936C15.5123 10.349 15.3719 11.0377 15.3719 11.6481M15.6039 9.89936L15.3719 11.6481M15.3719 11.6481C15.3719 12.0388 15.4247 12.4983 15.6438 12.9034M15.3719 11.6481L15.6438 12.9034M15.6438 12.9034C15.8841 13.3476 16.2938 13.6675 16.8598 13.7738L15.6438 12.9034Z" stroke="black" stroke-width="1.5"/>
<path id="Vector_2" d="M13.6785 15.8545L13.6787 15.8547C13.8476 16.072 14.0033 16.2669 14.15 16.4506C14.5703 16.9767 14.9172 17.4111 15.2926 18.0169L15.2931 18.0178C16.7881 20.4232 14.9177 23.3781 12.2326 23.3781C10.0937 23.3781 8.34519 21.6436 8.3794 19.5334L8.37941 19.5332C8.38521 19.1694 8.45086 18.7368 8.56629 18.325C8.69649 18.504 8.84274 18.6719 9.00375 18.8266L9.00765 18.8303C9.14451 18.9599 9.56442 19.3478 10.146 19.2575C10.3489 19.2262 10.7734 19.1065 11.0154 18.6641C11.2574 18.2217 11.1785 17.7079 10.9742 17.2211L10.9741 17.2209C10.7212 16.6185 10.6009 16.1247 10.626 15.5501C10.6519 14.9575 10.8351 14.2199 11.2919 13.1428L11.292 13.1424C11.5847 12.4512 12.046 11.8453 12.5248 11.3488C12.3467 12.6508 12.4806 14.3127 13.6785 15.8545Z" stroke="black" stroke-width="1.5"/>
</g>
<defs>
<clipPath id="clip0_5365_22213">
<rect width="24" height="24" fill="white" transform="translate(0 0.878906)"/>
</clipPath>
</defs>
</svg>
