<svg width="20" height="20" viewBox="0 0 20 20" fill="none" xmlns="http://www.w3.org/2000/svg">
<g id="fluent:location-28-regular">
<path id="Vector" d="M9.99944 1.60742C11.8465 1.60742 13.6179 2.34116 14.9239 3.64721C16.23 4.95327 16.9637 6.72466 16.9637 8.57171C16.9637 11.5146 14.8959 14.7217 10.8137 18.2274C10.5867 18.4224 10.2973 18.5295 9.99811 18.5292C9.69887 18.529 9.40966 18.4214 9.18301 18.226L8.91301 17.9917C5.01159 14.5774 3.03516 11.4489 3.03516 8.57171C3.03516 6.72466 3.76889 4.95327 5.07495 3.64721C6.38101 2.34116 8.1524 1.60742 9.99944 1.60742ZM9.99944 2.67885C8.43656 2.67885 6.93769 3.2997 5.83256 4.40483C4.72744 5.50995 4.10658 7.00883 4.10658 8.57171C4.10658 11.0731 5.92658 13.9553 9.61659 17.1839L9.88301 17.4146C9.91541 17.4424 9.95672 17.4577 9.99944 17.4577C10.0422 17.4577 10.0835 17.4424 10.1159 17.4146C13.9844 14.0917 15.8923 11.1324 15.8923 8.57171C15.8923 7.79785 15.7399 7.03156 15.4437 6.31661C15.1476 5.60166 14.7135 4.95203 14.1663 4.40483C13.6191 3.85763 12.9695 3.42356 12.2545 3.12742C11.5396 2.83127 10.7733 2.67885 9.99944 2.67885ZM9.99944 5.89314C10.7098 5.89314 11.3911 6.17534 11.8935 6.67767C12.3958 7.18 12.678 7.86131 12.678 8.57171C12.678 9.28211 12.3958 9.96342 11.8935 10.4657C11.3911 10.9681 10.7098 11.2503 9.99944 11.2503C9.28904 11.2503 8.60774 10.9681 8.10541 10.4657C7.60308 9.96342 7.32087 9.28211 7.32087 8.57171C7.32087 7.86131 7.60308 7.18 8.10541 6.67767C8.60774 6.17534 9.28904 5.89314 9.99944 5.89314ZM9.99944 6.96457C9.5732 6.96457 9.16442 7.13389 8.86302 7.43529C8.56162 7.73668 8.3923 8.14547 8.3923 8.57171C8.3923 8.99795 8.56162 9.40673 8.86302 9.70813C9.16442 10.0095 9.5732 10.1789 9.99944 10.1789C10.4257 10.1789 10.8345 10.0095 11.1359 9.70813C11.4373 9.40673 11.6066 8.99795 11.6066 8.57171C11.6066 8.14547 11.4373 7.73668 11.1359 7.43529C10.8345 7.13389 10.4257 6.96457 9.99944 6.96457Z" fill="#60798C"/>
</g>
</svg>
