<svg width="41" height="40" viewBox="0 0 41 40" fill="none" xmlns="http://www.w3.org/2000/svg">
<path d="M33.594 14.88L30.0207 36.2133C29.9646 36.5194 29.8034 36.7962 29.5647 36.9959C29.3261 37.1956 29.0251 37.3055 28.714 37.3066H12.2873C11.9762 37.3055 11.6752 37.1956 11.4366 36.9959C11.1979 36.7962 11.0367 36.5194 10.9807 36.2133L7.40732 14.88C7.37654 14.6901 7.3872 14.4958 7.43858 14.3105C7.48995 14.1251 7.58082 13.9531 7.70495 13.8061C7.82908 13.6592 7.98354 13.5409 8.15771 13.4592C8.33188 13.3776 8.52164 13.3347 8.71398 13.3333H32.2607C32.4552 13.3308 32.648 13.3709 32.8254 13.4508C33.0029 13.5307 33.1607 13.6485 33.2877 13.7959C33.4148 13.9433 33.508 14.1167 33.561 14.304C33.6139 14.4913 33.6251 14.6879 33.594 14.88ZM35.1673 9.33329C35.1673 9.68691 35.0268 10.0261 34.7768 10.2761C34.5267 10.5262 34.1876 10.6666 33.834 10.6666H7.16732C6.8137 10.6666 6.47456 10.5262 6.22451 10.2761C5.97446 10.0261 5.83398 9.68691 5.83398 9.33329C5.83398 8.97967 5.97446 8.64053 6.22451 8.39048C6.47456 8.14044 6.8137 7.99996 7.16732 7.99996H13.834V3.99996C13.834 3.64634 13.9745 3.3072 14.2245 3.05715C14.4746 2.8071 14.8137 2.66663 15.1673 2.66663H25.834C26.1876 2.66663 26.5267 2.8071 26.7768 3.05715C27.0268 3.3072 27.1673 3.64634 27.1673 3.99996V7.99996H33.834C34.1876 7.99996 34.5267 8.14044 34.7768 8.39048C35.0268 8.64053 35.1673 8.97967 35.1673 9.33329ZM24.5007 7.99996V5.33329H16.5007V7.99996H24.5007Z" fill="#233454" style="fill:#233454;fill:color(display-p3 0.1373 0.2039 0.3294);fill-opacity:1;"/>
</svg>
