<svg width="41" height="40" viewBox="0 0 41 40" fill="none" xmlns="http://www.w3.org/2000/svg">
<path d="M20.667 1.96045L7.26367 9.81436H12.2197V30.9862H7.26367L20.6645 38.8427L34.0678 30.9863H29.1119V9.81443H34.0702L20.667 1.96053V1.96045ZM20.833 7.40475C20.8864 7.40256 20.9377 7.40334 20.9892 7.41209C22.3583 7.58982 23.463 8.92975 23.6967 10.6445H21.3944L21.3945 12.1045H23.6772C23.545 12.9092 23.2155 13.6207 22.7641 14.1651C25.9774 14.7697 27.5188 19.4316 26.5727 23.9893H23.992L23.4012 31.9239H17.7372L17.2147 23.9893H14.7465C13.9121 19.5514 15.0228 14.663 18.5332 14.1187C18.1045 13.581 17.7939 12.8854 17.6664 12.1045H19.9344V10.6444H17.6494C17.9014 8.80436 19.1605 7.41209 20.6719 7.41209C20.7248 7.41209 20.7795 7.40693 20.833 7.40475Z" fill="#233454" style="fill:#233454;fill:color(display-p3 0.1373 0.2039 0.3294);fill-opacity:1;"/>
</svg>
