<svg width="41" height="40" viewBox="0 0 41 40" fill="none" xmlns="http://www.w3.org/2000/svg">
<path d="M20.5 1.66675V13.3334C20.5 16.0951 18.255 18.3334 15.505 18.3334H10.495C9.16978 18.3321 7.8993 17.8047 6.9627 16.8672C6.0261 15.9296 5.5 14.6586 5.5 13.3334V1.66675M10.5 11.6667V1.66675M15.5 11.6667V1.66675M10.5 18.3334V35.8401C10.5 37.2167 11.61 38.3334 13 38.3334C14.38 38.3334 15.5 37.2001 15.5 35.8401V18.3334M25.5 30.0001V35.8334C25.5005 36.1617 25.5658 36.4867 25.6919 36.7898C25.818 37.0929 26.0026 37.3682 26.2352 37.6C26.4677 37.8317 26.7436 38.0154 27.0471 38.1405C27.3507 38.2657 27.6759 38.3298 28.0042 38.3292C28.3325 38.3287 28.6575 38.2635 28.9606 38.1373C29.2637 38.0112 29.539 37.8266 29.7707 37.5941C30.0025 37.3615 30.1862 37.0856 30.3113 36.7821C30.4364 36.4786 30.5005 36.1534 30.5 35.8251V25.0001C30.5 25.0001 35.5 25.0001 35.5 20.0001V11.6667C35.5 6.66675 32.1667 3.33341 25.5 3.33341V30.0001Z" stroke="#233454" style="stroke:#233454;stroke:color(display-p3 0.1373 0.2039 0.3294);stroke-opacity:1;" stroke-width="3.33333"/>
</svg>
