<svg width="41" height="40" viewBox="0 0 41 40" fill="none" xmlns="http://www.w3.org/2000/svg">
<path d="M13.8327 13.3332H13.8493M20.4993 13.3332H20.516M27.166 13.3332H27.1827M25.166 6.66658C24.8894 5.64055 24.2823 4.73429 23.4387 4.08803C22.5951 3.44178 21.562 3.09155 20.4993 3.09155C19.4367 3.09155 18.4036 3.44178 17.56 4.08803C16.7164 4.73429 16.1093 5.64055 15.8327 6.66658H8.83268C7.83268 6.66658 7.16602 7.33325 7.16602 8.33325V31.6666C7.16602 32.6666 7.83268 33.3332 8.83268 33.3332H15.8327C16.1093 34.3593 16.7164 35.2655 17.56 35.9118C18.4036 36.5581 19.4367 36.9083 20.4993 36.9083C21.562 36.9083 22.5951 36.5581 23.4387 35.9118C24.2823 35.2655 24.8894 34.3593 25.166 33.3332H32.166C33.166 33.3332 33.8327 32.6666 33.8327 31.6666V8.33325C33.8327 7.33325 33.166 6.66658 32.166 6.66658H25.166Z" stroke="#233454" style="stroke:#233454;stroke:color(display-p3 0.1373 0.2039 0.3294);stroke-opacity:1;" stroke-width="3.33333" stroke-linecap="round" stroke-linejoin="round"/>
<path d="M20.4993 26.6667C22.3403 26.6667 23.8327 25.1743 23.8327 23.3333C23.8327 21.4924 22.3403 20 20.4993 20C18.6584 20 17.166 21.4924 17.166 23.3333C17.166 25.1743 18.6584 26.6667 20.4993 26.6667Z" stroke="#233454" style="stroke:#233454;stroke:color(display-p3 0.1373 0.2039 0.3294);stroke-opacity:1;" stroke-width="3.33333" stroke-linecap="round" stroke-linejoin="round"/>
</svg>
