<svg width="41" height="40" viewBox="0 0 41 40" fill="none" xmlns="http://www.w3.org/2000/svg">
<g clip-path="url(#clip0_1753_14322)">
<path d="M33.8333 6.66675C34.7174 6.66675 35.5652 7.01794 36.1904 7.64306C36.8155 8.26818 37.1667 9.11603 37.1667 10.0001V26.6667C37.1667 28.5167 35.6833 30.0001 33.8333 30.0001H40.5V33.3334H0.5V30.0001H7.16667C6.28261 30.0001 5.43476 29.6489 4.80964 29.0238C4.18452 28.3986 3.83333 27.5508 3.83333 26.6667V10.0001C3.83333 8.15008 5.31667 6.66675 7.16667 6.66675H33.8333ZM33.8333 10.0001H7.16667V26.6667H33.8333V10.0001ZM20.5 20.0001C24.1833 20.0001 27.1667 21.5001 27.1667 23.3334V25.0001H13.8333V23.3334C13.8333 21.5001 16.8167 20.0001 20.5 20.0001ZM20.5 11.6667C21.3841 11.6667 22.2319 12.0179 22.857 12.6431C23.4821 13.2682 23.8333 14.116 23.8333 15.0001C23.8333 15.8841 23.4821 16.732 22.857 17.3571C22.2319 17.9822 21.3841 18.3334 20.5 18.3334C18.65 18.3334 17.1667 16.8501 17.1667 15.0001C17.1667 13.1501 18.6667 11.6667 20.5 11.6667Z" fill="#233454" style="fill:#233454;fill:color(display-p3 0.1373 0.2039 0.3294);fill-opacity:1;"/>
</g>
<defs>
<clipPath id="clip0_1753_14322">
<rect width="40" height="40" fill="white" style="fill:white;fill-opacity:1;" transform="translate(0.5)"/>
</clipPath>
</defs>
</svg>
