<svg width="41" height="40" viewBox="0 0 41 40" fill="none" xmlns="http://www.w3.org/2000/svg">
<path d="M20.624 13.8775C23.7864 13.8775 26.3392 11.3039 26.3392 8.1311C26.3392 4.9647 23.7872 2.3999 20.624 2.3999C17.4656 2.3999 14.9016 4.9655 14.9016 8.1311C14.9016 11.3031 17.4664 13.8775 20.624 13.8775ZM26.1848 15.1999C28.8016 15.1999 29.9 17.4351 29.9 17.4351L38.3456 29.0711C38.6952 29.5903 38.9008 30.2255 38.9008 30.9111C38.9008 32.7191 37.4384 34.1887 35.636 34.1887C35.2198 34.186 34.8077 34.106 34.4208 33.9527L29.3008 32.5335V37.5999H11.7008V32.5335L6.57916 33.9551C6.21916 34.0959 5.80476 34.1919 5.37196 34.1919C4.50465 34.1908 3.67318 33.8457 3.06005 33.2323C2.44691 32.6189 2.1022 31.7872 2.10156 30.9199C2.10156 30.2351 2.30396 29.6103 2.66636 29.0895L11.1064 17.4351C11.1064 17.4351 12.204 15.1999 14.8096 15.1999H26.1848ZM20.5056 34.0703L27.1024 31.8783L26.9592 31.8383C22.3952 30.5007 24.1448 24.4559 28.6976 25.8087L29.3008 26.0231V19.2063L20.5096 22.1047L11.7008 19.2063V26.0231L12.304 25.8079C16.8544 24.4559 18.6224 30.4999 14.0616 31.8375L13.9016 31.8775L20.5056 34.0703Z" fill="#233454" style="fill:#233454;fill:color(display-p3 0.1373 0.2039 0.3294);fill-opacity:1;"/>
</svg>
