<svg width="41" height="40" viewBox="0 0 41 40" fill="none" xmlns="http://www.w3.org/2000/svg">
<path fill-rule="evenodd" clip-rule="evenodd" d="M11.75 8.41417C11.75 6.47833 20.5 5 20.5 5C20.5 5 29.25 6.47833 29.25 8.41417C29.25 10.995 27.6583 12.0833 27.6583 12.0833H13.3417C13.3417 12.0833 11.75 10.995 11.75 8.41417ZM21.75 8.75C21.75 9.08152 21.6183 9.39946 21.3839 9.63388C21.1495 9.8683 20.8315 10 20.5 10C20.1685 10 19.8505 9.8683 19.6161 9.63388C19.3817 9.39946 19.25 9.08152 19.25 8.75C19.25 8.41848 19.3817 8.10054 19.6161 7.86612C19.8505 7.6317 20.1685 7.5 20.5 7.5C20.8315 7.5 21.1495 7.6317 21.3839 7.86612C21.6183 8.10054 21.75 8.41848 21.75 8.75ZM27.0117 15.2333C28.17 14.3292 27.99 13.3333 27.99 13.3333H13.01C13.01 13.3333 12.8292 14.3292 13.9883 15.2333C13.7749 16.2069 13.7826 17.2159 14.0106 18.1862C14.2387 19.1564 14.6814 20.0632 15.3062 20.8397C15.931 21.6162 16.7219 22.2428 17.6208 22.6733C18.5197 23.1038 19.5037 23.3273 20.5004 23.3273C21.4971 23.3273 22.4811 23.1038 23.38 22.6733C24.2789 22.2428 25.0699 21.6162 25.6946 20.8397C26.3194 20.0632 26.7621 19.1564 26.9902 18.1862C27.2183 17.2159 27.2259 16.2069 27.0125 15.2333M20.5 16.6667C22.7675 16.6667 24.3533 16.405 25.46 16.0283C25.4861 16.2372 25.4994 16.45 25.5 16.6667C25.499 17.3496 25.3581 18.0251 25.0861 18.6515C24.814 19.2779 24.4164 19.8419 23.918 20.3088C23.4195 20.7756 22.8307 21.1354 22.1879 21.366C21.545 21.5965 20.8618 21.6929 20.1802 21.6492C19.4987 21.6056 18.8333 21.4227 18.2251 21.112C17.617 20.8013 17.0789 20.3693 16.6441 19.8426C16.2094 19.3159 15.8871 18.7058 15.6972 18.0498C15.5073 17.3938 15.4538 16.7058 15.54 16.0283C16.6475 16.405 18.2317 16.6667 20.5 16.6667ZM21.75 25C21.971 25 22.183 25.0878 22.3393 25.2441C22.4955 25.4004 22.5833 25.6123 22.5833 25.8333V26.985C22.5833 27.1397 22.5401 27.2914 22.4587 27.4229C22.3773 27.5545 22.2609 27.6608 22.1225 27.73L21.75 27.9167L22.2308 30.3208L25.7642 25.0208C26.0064 25.0208 26.2297 25.0219 26.4342 25.0242C30.9383 26.0517 35.5 28.1467 35.5 31.2983V35H5.5V31.2983C5.5 28.1467 10.2617 26.0275 14.765 25C14.7492 25.0033 14.9183 25.0058 15.2275 25.0083L18.7975 30.3625L19.25 27.9167L18.8775 27.73C18.7391 27.6608 18.6227 27.5545 18.5413 27.4229C18.4599 27.2914 18.4167 27.1397 18.4167 26.985V25.8333C18.4167 25.6123 18.5045 25.4004 18.6607 25.2441C18.817 25.0878 19.029 25 19.25 25H21.75ZM29.6667 29.4442C29.6667 29.4442 28.5558 28.8892 28 28.3333C27.4442 28.8892 26.3333 29.4442 26.3333 29.4442C26.3333 29.4442 26.915 31.6667 28 31.6667C29.085 31.6667 29.6667 29.4442 29.6667 29.4442Z" fill="#233454" style="fill:#233454;fill:color(display-p3 0.1373 0.2039 0.3294);fill-opacity:1;"/>
</svg>
