<svg width="41" height="40" viewBox="0 0 41 40" fill="none" xmlns="http://www.w3.org/2000/svg">
<path d="M29.25 3.75C29.25 3.08696 29.5134 2.45107 29.9822 1.98223C30.4511 1.51339 31.087 1.25 31.75 1.25H36.75C37.413 1.25 38.0489 1.51339 38.5178 1.98223C38.9866 2.45107 39.25 3.08696 39.25 3.75V11.25C39.25 11.913 38.9866 12.5489 38.5178 13.0178C38.0489 13.4866 37.413 13.75 36.75 13.75H35.5V37.5C35.5 37.8315 35.3683 38.1495 35.1339 38.3839C34.8995 38.6183 34.5815 38.75 34.25 38.75C33.9185 38.75 33.6005 38.6183 33.3661 38.3839C33.1317 38.1495 33 37.8315 33 37.5V13.75H31.75C31.087 13.75 30.4511 13.4866 29.9822 13.0178C29.5134 12.5489 29.25 11.913 29.25 11.25V3.75ZM27.375 3.75H13.5087C12.3711 3.74991 11.2675 4.13778 10.38 4.84956C9.49256 5.56134 8.87437 6.55448 8.6275 7.665L7.83 11.25H6.75C6.41848 11.25 6.10054 11.3817 5.86612 11.6161C5.6317 11.8505 5.5 12.1685 5.5 12.5C5.5 12.8315 5.6317 13.1495 5.86612 13.3839C6.10054 13.6183 6.41848 13.75 6.75 13.75H7.275L6.8625 15.6062C6.07203 16.0358 5.41211 16.6707 4.95232 17.444C4.49253 18.2173 4.24989 19.1003 4.25 20V32.5C4.25 33.4946 4.64509 34.4484 5.34835 35.1516C6.05161 35.8549 7.00544 36.25 8 36.25H9.25C10.2446 36.25 11.1984 35.8549 11.9017 35.1516C12.6049 34.4484 13 33.4946 13 32.5V31.25H28V32.5C27.9997 33.3864 28.3134 34.2443 28.8855 34.9214C29.4576 35.5985 30.251 36.051 31.125 36.1987V33.5825C30.935 33.4728 30.7772 33.315 30.6675 33.125C30.5578 32.935 30.5 32.7194 30.5 32.5V31.25H31.125V15.5813C30.5484 15.498 29.9942 15.3003 29.495 15H9.5575L11.0675 8.2075C11.1909 7.65234 11.4999 7.15585 11.9435 6.79997C12.3871 6.44409 12.9388 6.2501 13.5075 6.25H27.375V3.75ZM6.75 32.5V31.25H10.5V32.5C10.5 32.8315 10.3683 33.1495 10.1339 33.3839C9.89946 33.6183 9.58152 33.75 9.25 33.75H8C7.66848 33.75 7.35054 33.6183 7.11612 33.3839C6.8817 33.1495 6.75 32.8315 6.75 32.5ZM17.375 26.25C17.0435 26.25 16.7255 26.1183 16.4911 25.8839C16.2567 25.6495 16.125 25.3315 16.125 25C16.125 24.6685 16.2567 24.3505 16.4911 24.1161C16.7255 23.8817 17.0435 23.75 17.375 23.75H23.625C23.9565 23.75 24.2745 23.8817 24.5089 24.1161C24.7433 24.3505 24.875 24.6685 24.875 25C24.875 25.3315 24.7433 25.6495 24.5089 25.8839C24.2745 26.1183 23.9565 26.25 23.625 26.25H17.375ZM14.25 21.875C14.25 22.3723 14.0525 22.8492 13.7008 23.2008C13.3492 23.5525 12.8723 23.75 12.375 23.75C11.8777 23.75 11.4008 23.5525 11.0492 23.2008C10.6975 22.8492 10.5 22.3723 10.5 21.875C10.5 21.3777 10.6975 20.9008 11.0492 20.5492C11.4008 20.1975 11.8777 20 12.375 20C12.8723 20 13.3492 20.1975 13.7008 20.5492C14.0525 20.9008 14.25 21.3777 14.25 21.875ZM28.625 20C29.1223 20 29.5992 20.1975 29.9508 20.5492C30.3025 20.9008 30.5 21.3777 30.5 21.875C30.5 22.3723 30.3025 22.8492 29.9508 23.2008C29.5992 23.5525 29.1223 23.75 28.625 23.75C28.1277 23.75 27.6508 23.5525 27.2992 23.2008C26.9475 22.8492 26.75 22.3723 26.75 21.875C26.75 21.3777 26.9475 20.9008 27.2992 20.5492C27.6508 20.1975 28.1277 20 28.625 20Z" fill="#233454" style="fill:#233454;fill:color(display-p3 0.1373 0.2039 0.3294);fill-opacity:1;"/>
</svg>
