<svg width="41" height="49" viewBox="0 0 41 49" fill="none" xmlns="http://www.w3.org/2000/svg">
<path d="M10.3115 18.977C11.6234 15.9679 12.8002 12.4911 13.674 11.3843C14.5727 10.2459 23.5595 9.88647 23.5595 9.88647C23.5595 9.88647 23.6284 9.88647 23.7508 9.89173C24.5628 9.92656 28.3525 9.88647 28.7719 12.223C29.1361 14.2519 26.5641 24.0503 25.8803 26.5958C25.7802 26.9686 25.9026 27.3618 26.1948 27.6139L32.7253 33.2491C32.9867 33.4746 33.1132 33.819 33.0602 34.1601L31.1837 46.2147C31.1735 46.2801 31.1572 46.3439 31.1312 46.4048C30.9498 46.8295 30.0978 48.5825 28.4124 48.5298C26.8468 48.4809 26.0403 46.7938 25.7972 46.1767C25.7398 46.0312 25.7299 45.8732 25.7559 45.719L27.3595 36.2081C27.418 35.8612 27.2899 35.509 27.022 35.2808L20.8443 30.0162C20.6633 29.862 20.4338 29.7789 20.1984 29.7454C19.4805 29.6433 17.9106 29.2145 17.3844 27.4139C17.3438 27.2751 17.3432 27.1307 17.3725 26.989C18.2278 22.8516 19.8369 15.1514 20.0104 14.6441C19.8498 14.7497 18.436 14.8147 17.3552 14.8448C16.9724 14.8554 16.6273 15.0798 16.4662 15.4272L13.8879 20.9881C13.7535 21.2781 13.4881 21.49 13.1722 21.5386C11.2627 21.832 10.5339 21.3503 10.2391 19.5105C10.2102 19.33 10.2384 19.1446 10.3115 18.977Z" fill="#233454" style="fill:#233454;fill:color(display-p3 0.1373 0.2039 0.3294);fill-opacity:1;"/>
<path d="M31.6066 16.1926L30.7129 15.1326C30.1723 14.4914 29.13 14.7605 28.9673 15.5833L28.4497 18.2018C28.3886 18.5113 28.477 18.8315 28.6884 19.0657L30.2166 20.7591C30.4373 21.0038 30.7645 21.1239 31.0911 21.0804L39.086 20.0144C39.3835 19.9747 39.651 19.8025 39.8 19.5418C40.9441 17.54 40.4604 17.0803 39.933 16.3961C39.6789 16.0667 39.2822 15.8458 38.8683 15.8882L32.473 16.5428C32.144 16.5765 31.8197 16.4454 31.6066 16.1926Z" fill="#233454" style="fill:#233454;fill:color(display-p3 0.1373 0.2039 0.3294);fill-opacity:1;"/>
<path d="M19.5452 30.7681C18.7535 30.3491 18.1716 29.8269 17.5688 29.0859C17.1536 28.5755 16.3743 28.5356 15.9518 29.04L13.3586 32.1359C13.1785 32.3509 12.9164 32.4804 12.6362 32.4928L2.58665 32.9369C2.3565 32.9471 2.13281 33.0373 1.96692 33.1972C-0.943084 36.0016 1.24671 37.7815 2.00096 38.2687C2.14846 38.364 2.32311 38.3997 2.49845 38.3902L15.1015 37.709C15.3759 37.6941 15.632 37.5671 15.8099 37.3576L19.9579 32.4722C20.4184 31.9299 20.174 31.1008 19.5452 30.7681Z" fill="#233454" style="fill:#233454;fill:color(display-p3 0.1373 0.2039 0.3294);fill-opacity:1;"/>
<circle cx="26.9147" cy="4.73306" r="4.73306" fill="#233454" style="fill:#233454;fill:color(display-p3 0.1373 0.2039 0.3294);fill-opacity:1;"/>
</svg>
