<svg width="43" height="42" viewBox="0 0 43 42" fill="none" xmlns="http://www.w3.org/2000/svg">
<path d="M4.56513 28.9607L1.5 40.6625L39.2011 41.0001L36.8512 37.7933L37.1066 21.6471L41.5 16.8088L38.2816 10.5078H37.311V15.8524H32.2535V10.5078H31.334L27.9623 16.8088L32.2535 21.7596V31.9424L30.0568 28.9607L25.5613 27.948V34.7554H23.4668V27.3855L22.2407 27.1042L20.5038 25.4164L18.1539 27.948H16.2126L13.8627 25.4164L12.3301 27.1042L11.0019 27.3292V34.7554H8.80524V27.948L4.56513 28.9607Z" fill="#233454" stroke="#233454" style="fill:#233454;fill:color(display-p3 0.1373 0.2039 0.3294);fill-opacity:1;stroke:#233454;stroke:color(display-p3 0.1373 0.2039 0.3294);stroke-opacity:1;"/>
<path d="M7.375 12.083V13.4895H27.0429V12.083H7.375Z" fill="#233454" stroke="#233454" style="fill:#233454;fill:color(display-p3 0.1373 0.2039 0.3294);fill-opacity:1;stroke:#233454;stroke:color(display-p3 0.1373 0.2039 0.3294);stroke-opacity:1;"/>
<path d="M16.9782 1C10.4904 1.39381 9.21293 7.13221 9.21289 12.0308H25.3052C25.1009 1.73136 19.8901 0.999382 16.9782 1Z" fill="#233454" style="fill:#233454;fill:color(display-p3 0.1373 0.2039 0.3294);fill-opacity:1;"/>
<path d="M24.4879 15.121H10.1328C9.96936 16.2911 10.9502 18.8715 11.4611 20.0155C13.9949 25.8664 17.4551 25.8289 18.8685 25.0788C22.3831 23.2785 24.0792 17.6901 24.4879 15.121Z" fill="#233454" style="fill:#233454;fill:color(display-p3 0.1373 0.2039 0.3294);fill-opacity:1;"/>
<path d="M16.9782 1C10.4904 1.39381 9.21293 7.13221 9.21289 12.0308H25.3052C25.1009 1.73136 19.8901 0.999382 16.9782 1Z" stroke="#233454" style="stroke:#233454;stroke:color(display-p3 0.1373 0.2039 0.3294);stroke-opacity:1;"/>
<path d="M24.4879 15.121H10.1328C9.96936 16.2911 10.9502 18.8715 11.4611 20.0155C13.9949 25.8664 17.4551 25.8289 18.8685 25.0788C22.3831 23.2785 24.0792 17.6901 24.4879 15.121Z" stroke="#233454" style="stroke:#233454;stroke:color(display-p3 0.1373 0.2039 0.3294);stroke-opacity:1;"/>
</svg>
