<svg width="41" height="40" viewBox="0 0 41 40" fill="none" xmlns="http://www.w3.org/2000/svg">
<path d="M15.084 10.4167C15.084 8.98008 15.6547 7.60233 16.6705 6.5865C17.6863 5.57068 19.0641 5 20.5007 5C21.9372 5 23.315 5.57068 24.3308 6.5865C25.3466 7.60233 25.9173 8.98008 25.9173 10.4167C25.9173 11.8533 25.3466 13.231 24.3308 14.2468C23.315 15.2626 21.9372 15.8333 20.5007 15.8333C19.0641 15.8333 17.6863 15.2626 16.6705 14.2468C15.6547 13.231 15.084 11.8533 15.084 10.4167ZM8.83398 8.33333C7.5079 8.33333 6.23613 8.86012 5.29845 9.7978C4.36077 10.7355 3.83398 12.0073 3.83398 13.3333C3.83398 14.6594 4.36077 15.9312 5.29845 16.8689C6.23613 17.8065 7.5079 18.3333 8.83398 18.3333C10.1601 18.3333 11.4318 17.8065 12.3695 16.8689C13.3072 15.9312 13.834 14.6594 13.834 13.3333C13.834 12.0073 13.3072 10.7355 12.3695 9.7978C11.4318 8.86012 10.1601 8.33333 8.83398 8.33333ZM32.1673 8.33333C30.8412 8.33333 29.5695 8.86012 28.6318 9.7978C27.6941 10.7355 27.1673 12.0073 27.1673 13.3333C27.1673 14.6594 27.6941 15.9312 28.6318 16.8689C29.5695 17.8065 30.8412 18.3333 32.1673 18.3333C33.4934 18.3333 34.7652 17.8065 35.7029 16.8689C36.6405 15.9312 37.1673 14.6594 37.1673 13.3333C37.1673 12.0073 36.6405 10.7355 35.7029 9.7978C34.7652 8.86012 33.4934 8.33333 32.1673 8.33333ZM15.9173 18.3333C15.1438 18.3333 14.4019 18.6406 13.8549 19.1876C13.3079 19.7346 13.0007 20.4765 13.0007 21.25V27.5C13.0007 29.4891 13.7908 31.3968 15.1974 32.8033C16.6039 34.2098 18.5115 35 20.5007 35C22.4898 35 24.3974 34.2098 25.804 32.8033C27.2105 31.3968 28.0007 29.4891 28.0007 27.5V21.25C28.0007 20.4765 27.6934 19.7346 27.1464 19.1876C26.5994 18.6406 25.8575 18.3333 25.084 18.3333H15.9173ZM11.5173 19.9633C11.3962 20.3733 11.3351 20.8022 11.334 21.25V27.5C11.3326 28.8646 11.6365 30.2122 12.2233 31.4442C12.8102 32.6761 13.6652 33.7612 14.7257 34.62C13.7558 34.9416 12.7304 35.0616 11.7125 34.9727C10.6945 34.8837 9.70551 34.5877 8.80609 34.1028C7.90667 33.6179 7.11582 32.9543 6.48207 32.1528C5.84832 31.3513 5.38503 30.4287 5.12065 29.4417L3.93398 25.015C3.83466 24.645 3.80921 24.2591 3.85907 23.8792C3.90894 23.4994 4.03314 23.1331 4.22459 22.8013C4.41605 22.4694 4.67099 22.1786 4.97488 21.9453C5.27876 21.712 5.62562 21.5409 5.99565 21.4417L11.5173 19.9633ZM26.2757 34.6183C27.3357 33.7599 28.1904 32.6754 28.7772 31.444C29.3641 30.2127 29.6682 28.8657 29.6673 27.5017V21.2517C29.6662 20.8006 29.6051 20.3706 29.484 19.9617L35.0073 21.4417C35.7543 21.642 36.391 22.1309 36.7777 22.8006C37.1643 23.4704 37.2691 24.2663 37.069 25.0133L35.8823 29.4417C35.6178 30.4287 35.1543 31.3513 34.5204 32.1528C33.8864 32.9543 33.0954 33.6178 32.1958 34.1025C31.2962 34.5873 30.307 34.8831 29.289 34.9718C28.271 35.0605 27.2455 34.9402 26.2757 34.6183Z" fill="#233454" style="fill:#233454;fill:color(display-p3 0.1373 0.2039 0.3294);fill-opacity:1;"/>
</svg>
