<svg width="33" height="33" viewBox="0 0 33 33" fill="none" xmlns="http://www.w3.org/2000/svg">
<path d="M24 1.83301H9C8.20462 1.8339 7.44208 2.15026 6.87967 2.71267C6.31725 3.27509 6.00089 4.03763 6 4.83301V29.833C6.0006 30.3633 6.2115 30.8716 6.58644 31.2466C6.96139 31.6215 7.46975 31.8324 8 31.833H25C25.5303 31.8324 26.0386 31.6215 26.4136 31.2466C26.7885 30.8716 26.9994 30.3633 27 29.833V4.83301C26.9991 4.03763 26.6828 3.27509 26.1203 2.71267C25.5579 2.15026 24.7954 1.8339 24 1.83301ZM25 29.833H8V15.833H25V29.833ZM25 13.833H8V4.83301C8.00033 4.56789 8.10579 4.31373 8.29326 4.12627C8.48072 3.9388 8.73488 3.83334 9 3.83301H24C24.2651 3.83334 24.5193 3.9388 24.7067 4.12627C24.8942 4.31373 24.9997 4.56789 25 4.83301V13.833Z" fill="#0078D4"/>
<path d="M9.5 18.333H11.5V24.333H9.5V18.333ZM9.5 7.33301H11.5V11.333H9.5V7.33301Z" fill="#0078D4"/>
</svg>
