<svg width="16" height="16" viewBox="0 0 16 16" fill="none" xmlns="http://www.w3.org/2000/svg">
<path d="M3.9998 2.19961C3.9998 2.04048 3.93659 1.88787 3.82407 1.77535C3.71155 1.66282 3.55893 1.59961 3.3998 1.59961C3.24067 1.59961 3.08806 1.66282 2.97554 1.77535C2.86302 1.88787 2.7998 2.04048 2.7998 2.19961V13.7996C2.7998 13.9587 2.86302 14.1114 2.97554 14.2239C3.08806 14.3364 3.24067 14.3996 3.3998 14.3996C3.55893 14.3996 3.71155 14.3364 3.82407 14.2239C3.93659 14.1114 3.9998 13.9587 3.9998 13.7996V2.19961ZM13.1998 2.19961C13.1998 2.04048 13.1366 1.88787 13.0241 1.77535C12.9115 1.66282 12.7589 1.59961 12.5998 1.59961C12.4407 1.59961 12.2881 1.66282 12.1755 1.77535C12.063 1.88787 11.9998 2.04048 11.9998 2.19961V13.7996C11.9998 13.9587 12.063 14.1114 12.1755 14.2239C12.2881 14.3364 12.4407 14.3996 12.5998 14.3996C12.7589 14.3996 12.9115 14.3364 13.0241 14.2239C13.1366 14.1114 13.1998 13.9587 13.1998 13.7996V2.19961ZM8.5998 2.19961C8.5998 2.04048 8.53659 1.88787 8.42407 1.77535C8.31155 1.66282 8.15893 1.59961 7.9998 1.59961C7.84067 1.59961 7.68806 1.66282 7.57554 1.77535C7.46302 1.88787 7.3998 2.04048 7.3998 2.19961V4.19961C7.3998 4.35874 7.46302 4.51135 7.57554 4.62387C7.68806 4.7364 7.84067 4.79961 7.9998 4.79961C8.15893 4.79961 8.31155 4.7364 8.42407 4.62387C8.53659 4.51135 8.5998 4.35874 8.5998 4.19961V2.19961ZM7.3998 8.99961C7.3998 9.15874 7.46302 9.31135 7.57554 9.42387C7.68806 9.5364 7.84067 9.59961 7.9998 9.59961C8.15893 9.59961 8.31155 9.5364 8.42407 9.42387C8.53659 9.31135 8.5998 9.15874 8.5998 8.99961V6.99961C8.5998 6.84048 8.53659 6.68787 8.42407 6.57535C8.31155 6.46282 8.15893 6.39961 7.9998 6.39961C7.84067 6.39961 7.68806 6.46282 7.57554 6.57535C7.46302 6.68787 7.3998 6.84048 7.3998 6.99961V8.99961ZM7.3998 11.7996C7.3998 11.6405 7.46302 11.4879 7.57554 11.3753C7.68806 11.2628 7.84067 11.1996 7.9998 11.1996C8.15893 11.1996 8.31155 11.2628 8.42407 11.3753C8.53659 11.4879 8.5998 11.6405 8.5998 11.7996V13.7996C8.5998 13.9587 8.53659 14.1114 8.42407 14.2239C8.31155 14.3364 8.15893 14.3996 7.9998 14.3996C7.84067 14.3996 7.68806 14.3364 7.57554 14.2239C7.46302 14.1114 7.3998 13.9587 7.3998 13.7996V11.7996Z" fill="#037EDB"/>
</svg>
