<svg width="32" height="33" viewBox="0 0 32 33" fill="none" xmlns="http://www.w3.org/2000/svg">
<g id="fluent:auto-fit-width-20-regular">
<path id="Vector" d="M28.7992 7.1501C28.7992 6.93792 28.7149 6.73444 28.5649 6.58441C28.4149 6.43438 28.2114 6.3501 27.9992 6.3501C27.787 6.3501 27.5836 6.43438 27.4335 6.58441C27.2835 6.73444 27.1992 6.93792 27.1992 7.1501V24.7501C27.1992 24.9623 27.2835 25.1658 27.4335 25.3158C27.5836 25.4658 27.787 25.5501 27.9992 25.5501C28.2114 25.5501 28.4149 25.4658 28.5649 25.3158C28.7149 25.1658 28.7992 24.9623 28.7992 24.7501V7.1501ZM4.79922 7.1501C4.79922 6.93792 4.71493 6.73444 4.5649 6.58441C4.41487 6.43438 4.21139 6.3501 3.99922 6.3501C3.78705 6.3501 3.58356 6.43438 3.43353 6.58441C3.2835 6.73444 3.19922 6.93792 3.19922 7.1501V24.7501C3.19922 24.9623 3.2835 25.1658 3.43353 25.3158C3.58356 25.4658 3.78705 25.5501 3.99922 25.5501C4.21139 25.5501 4.41487 25.4658 4.5649 25.3158C4.71493 25.1658 4.79922 24.9623 4.79922 24.7501V7.1501ZM23.7656 15.3837C23.8401 15.458 23.8992 15.5463 23.9396 15.6435C23.9799 15.7407 24.0006 15.8449 24.0006 15.9501C24.0006 16.0553 23.9799 16.1595 23.9396 16.2567C23.8992 16.3539 23.8401 16.4422 23.7656 16.5165L20.5656 19.7165C20.4154 19.8667 20.2117 19.9511 19.9992 19.9511C19.7868 19.9511 19.583 19.8667 19.4328 19.7165C19.2826 19.5663 19.1982 19.3625 19.1982 19.1501C19.1982 18.9377 19.2826 18.7339 19.4328 18.5837L21.268 16.7501H10.7304L12.5656 18.5837C12.64 18.6581 12.699 18.7464 12.7393 18.8436C12.7795 18.9407 12.8002 19.0449 12.8002 19.1501C12.8002 19.2553 12.7795 19.3594 12.7393 19.4566C12.699 19.5538 12.64 19.6421 12.5656 19.7165C12.4912 19.7909 12.4029 19.8499 12.3058 19.8901C12.2086 19.9304 12.1044 19.9511 11.9992 19.9511C11.894 19.9511 11.7899 19.9304 11.6927 19.8901C11.5955 19.8499 11.5072 19.7909 11.4328 19.7165L8.23282 16.5165C8.15832 16.4422 8.09921 16.3539 8.05888 16.2567C8.01855 16.1595 7.99779 16.0553 7.99779 15.9501C7.99779 15.8449 8.01855 15.7407 8.05888 15.6435C8.09921 15.5463 8.15832 15.458 8.23282 15.3837L11.4328 12.1837C11.583 12.0335 11.7868 11.9491 11.9992 11.9491C12.2117 11.9491 12.4154 12.0335 12.5656 12.1837C12.7158 12.3339 12.8002 12.5377 12.8002 12.7501C12.8002 12.9625 12.7158 13.1663 12.5656 13.3165L10.7304 15.1501H21.268L19.4328 13.3165C19.2826 13.1663 19.1982 12.9625 19.1982 12.7501C19.1982 12.5377 19.2826 12.3339 19.4328 12.1837C19.583 12.0335 19.7868 11.9491 19.9992 11.9491C20.2117 11.9491 20.4154 12.0335 20.5656 12.1837L23.7656 15.3837Z" fill="#1877F2"/>
</g>
</svg>
