<svg width="49" height="49" viewBox="0 0 49 49" fill="none" xmlns="http://www.w3.org/2000/svg">
<path d="M0.306641 4.5C0.306641 2.29086 2.0975 0.5 4.30664 0.5H44.3066C46.5158 0.5 48.3066 2.29086 48.3066 4.5V48.5H4.30664C2.0975 48.5 0.306641 46.7091 0.306641 44.5V4.5Z" fill="#ECF7FF"/>
<mask id="mask0_3641_24158" style="mask-type:luminance" maskUnits="userSpaceOnUse" x="12" y="9" width="25" height="31">
<path d="M12.3066 9.81445H36.3066V39.1856H12.3066V9.81445Z" fill="white"/>
</mask>
<g mask="url(#mask0_3641_24158)">
<path d="M17.9455 22.6069L15.3559 23.523C13.5365 24.1679 12.3145 25.9536 12.3145 27.9664V34.3488C12.3145 34.6289 12.5414 34.8552 12.8212 34.8552H25.9306C27.2383 38.0298 30.6696 39.1484 30.7121 39.1622C30.7617 39.1774 30.813 39.1852 30.8644 39.1852C30.9157 39.1852 30.9671 39.1774 31.0166 39.1622C31.0694 39.1452 36.2978 37.4423 36.2978 32.255C36.2978 30.9094 36.1378 29.6126 35.8219 28.4012C35.7652 28.1852 35.574 28.0312 35.3506 28.0227L34.5294 27.9912C33.5184 27.9515 32.5443 27.6278 31.7118 27.0545L31.1519 26.6693C30.977 26.5482 30.7458 26.5492 30.5722 26.6725L30.0124 27.0666C30.0028 27.0733 29.9919 27.0779 29.9819 27.085C29.6831 25.448 28.5758 24.0715 27.0283 23.523L24.4391 22.6069C24.4334 22.6038 23.6788 22.3371 23.6788 22.3371C24.4518 21.5421 25.0602 20.4451 25.4175 19.3166C26.3237 19.2904 27.0524 18.5464 27.0524 17.6349C27.0524 16.9083 26.4929 16.2592 25.7652 16.0347C25.9653 15.4731 25.9773 14.8559 25.9773 14.2532C25.9773 12.7341 25.2227 11.4324 23.9065 10.6817L23.6944 10.5584C23.1278 10.2273 22.4225 9.81445 21.5372 9.81445C20.2674 9.81445 19.1395 10.4171 18.5967 11.3499C17.414 11.3499 16.528 12.8237 16.528 14.7773C16.528 15.2465 16.5514 15.6165 16.6388 16.0011C15.9108 16.1668 15.3619 16.7936 15.3329 17.5705C15.3155 18.029 15.5287 18.4933 15.9182 18.8449C16.307 19.1955 16.6647 19.3067 16.9667 19.3166C17.324 20.4451 17.9324 21.5425 18.7054 22.3375L17.9508 22.6038C17.9487 22.6045 17.9472 22.6062 17.9455 22.6069ZM30.5963 27.8941L30.8676 27.7033L31.136 27.8885C32.1271 28.5708 33.2868 28.9561 34.4901 29.0028L34.9295 29.0198C35.1647 30.0436 35.284 31.13 35.284 32.255C35.284 36.2801 31.6725 37.8431 30.8644 38.1427C30.056 37.8431 26.4448 36.2801 26.4448 32.255C26.4448 31.1289 26.5641 30.0414 26.7996 29.0166L27.3977 28.989C28.5485 28.9359 29.6544 28.557 30.5963 27.8941ZM18.5882 12.3626C18.625 12.3626 18.6661 12.3711 18.7135 12.3885C18.9756 12.4848 19.2652 12.3513 19.363 12.0907C19.642 11.3467 20.5361 10.8272 21.5372 10.8272C22.1473 10.8272 22.6732 11.1346 23.1817 11.4324L23.4044 11.5616C23.9866 11.8938 24.9635 12.6852 24.9635 14.2532C24.9635 14.4242 24.9635 14.5928 24.9589 14.756C24.875 14.6147 24.7929 14.4756 24.7206 14.3527L24.6091 14.1632C24.2277 13.5174 23.5708 13.1594 22.8955 13.1594C22.5627 13.1594 22.2256 13.2465 21.9147 13.4288L21.7419 13.5298C21.3977 13.7316 20.9862 13.7316 20.6416 13.5298L20.4696 13.4288C19.5269 12.8757 18.3442 13.1987 17.7751 14.1632C17.699 14.2921 17.6222 14.4253 17.5467 14.5574C17.6045 13.2103 18.1831 12.3626 18.5882 12.3626ZM17.8247 18.6342C17.7904 18.5025 17.7043 18.3899 17.5861 18.3222C17.5085 18.2776 17.4214 18.255 17.3339 18.255C17.2875 18.255 17.2412 18.2613 17.1958 18.2741C17.0475 18.3152 16.8931 18.3591 16.5981 18.0931C16.4345 17.9458 16.3403 17.7649 16.3463 17.6084C16.3591 17.261 16.6332 16.9858 16.977 16.9667C17.0248 16.9805 17.0719 16.9919 17.1162 16.9979C17.2504 17.0156 17.3853 16.9795 17.4922 16.897C17.5992 16.8148 17.6686 16.693 17.6856 16.5595C17.7004 16.4444 17.7196 16.3318 17.7422 16.2213C17.8775 16.0248 18.0365 15.7468 18.2596 15.3541C18.3846 15.1346 18.5174 14.9001 18.6484 14.6774C18.9338 14.1937 19.4965 14.0326 19.9565 14.3021L20.1285 14.403C20.7943 14.7936 21.5892 14.7936 22.2553 14.403L22.4278 14.3021C22.8874 14.0326 23.4504 14.1937 23.7355 14.6774L23.8467 14.8658C24.2319 15.5205 24.477 15.9373 24.6668 16.1944C24.6806 16.262 24.6958 16.329 24.7065 16.3984C24.704 16.4221 24.7029 16.4458 24.7036 16.4703C24.7125 16.739 24.9458 16.9543 25.2146 16.9607C25.6293 16.9611 26.0386 17.301 26.0386 17.6346C26.0386 18.0043 25.738 18.3042 25.3686 18.3042C25.3187 18.3042 25.2617 18.2943 25.1877 18.2737C25.0574 18.238 24.9161 18.2543 24.7978 18.3222C24.6795 18.3899 24.5935 18.5025 24.5591 18.6342C24.063 20.5499 22.6675 22.5312 21.1919 22.5312C19.7164 22.5312 18.3212 20.5499 17.8247 18.6342ZM23.5673 23.3718C23.0765 24.1941 22.1756 24.7192 21.1919 24.7192C20.2086 24.7192 19.3077 24.1941 18.8169 23.3718L19.6339 23.0832C20.1179 23.3722 20.6409 23.5439 21.1919 23.5439C21.7433 23.5439 22.2663 23.3722 22.75 23.0832L23.5673 23.3718ZM21.1919 25.7323C22.6038 25.7323 23.8863 24.937 24.5312 23.7139L26.6895 24.4777C27.9919 24.9395 28.8913 26.1657 29.0283 27.5928C28.4961 27.812 27.9324 27.9504 27.3509 27.9773L26.3739 28.0227C26.1523 28.0333 25.9628 28.1866 25.9069 28.4012C25.591 29.6126 25.431 30.9094 25.431 32.255C25.431 32.8265 25.4972 33.3531 25.6101 33.8424H16.659V28.9472C16.659 28.6671 16.432 28.4405 16.1523 28.4405C15.8722 28.4405 15.6452 28.6671 15.6452 28.9472V33.8424H13.3283V27.9664C13.3283 26.3814 14.2794 24.9795 15.6948 24.4777L17.8531 23.7139C18.4979 24.937 19.7805 25.7323 21.1919 25.7323Z" fill="#0078D4"/>
</g>
<path d="M21.7297 29.547H24.4018C24.6816 29.547 24.9086 29.3204 24.9086 29.0406C24.9086 28.7605 24.6816 28.5343 24.4018 28.5343H24.1398V27.9107C24.1398 27.6306 23.9128 27.4043 23.6327 27.4043C23.353 27.4043 23.126 27.6306 23.126 27.9107V28.5343H21.7297C21.4496 28.5343 21.2227 28.7605 21.2227 29.0406C21.2227 29.3204 21.4496 29.547 21.7297 29.547Z" fill="#0078D4"/>
<path d="M30.143 34.869C30.2393 34.9787 30.3781 35.0414 30.524 35.0414C30.6964 35.035 30.8384 34.961 30.9302 34.8382L33.1586 31.8605C33.3264 31.6367 33.2804 31.3197 33.0562 31.1519C32.8317 30.9837 32.5141 31.0304 32.3466 31.2542L30.4925 33.7316L29.3172 32.3923C29.132 32.182 28.8115 32.1607 28.6015 32.3452C28.3909 32.5297 28.37 32.8498 28.5545 33.0598L30.143 34.869Z" fill="#0078D4"/>
</svg>
