<svg width="25" height="25" viewBox="0 0 25 25" fill="none" xmlns="http://www.w3.org/2000/svg">
<path d="M7.03418 5.68659C7.03418 5.47011 7.15406 5.27143 7.34558 5.17051C10.5677 3.47255 14.4284 3.47472 17.653 5.16995C17.8459 5.27136 17.9668 5.47161 17.9668 5.68846V19.3012C17.9668 19.4916 17.8147 19.7593 17.5944 19.9009C14.4541 21.9187 10.481 21.8819 7.33592 19.8563C7.14784 19.7351 7.03418 19.5267 7.03418 19.303V5.68659Z" stroke="#0078D4"/>
<path d="M13.9424 21.4385V23.429" stroke="#0078D4" stroke-linecap="round"/>
<path d="M10.5566 21.4385V23.429" stroke="#0078D4" stroke-linecap="round"/>
<circle cx="12.5002" cy="7.42447" r="1.15992" stroke="#0078D4" stroke-width="0.3"/>
<path d="M7.0752 16.0933C8.86298 14.2937 13.5183 11.7742 17.8374 16.0933" stroke="#0078D4" stroke-width="0.5"/>
<path d="M7.0752 13.2062C9.65039 11.5744 13.4501 10.0543 17.8374 13.2062" stroke="#0078D4" stroke-width="0.5"/>
</svg>
