<svg width="80" height="25" viewBox="0 0 80 25" fill="none" xmlns="http://www.w3.org/2000/svg">
<path d="M77.4956 6.09999H79V24.5L0.999999 24.5V8.34021L3.25657 13.9402L4.1531 16.1802H5.20413L7.3062 13.9402L8.77764 16.1802L13.192 16.1804L15.5042 13.9403L16.7655 10.5797L18.6012 12.2602L20.256 13.9402L20.7728 16.5L21.8239 16.1802H23.1144L25.5214 8.34021L26.2736 10.5802L27.4771 8.34021L28.3797 12.2602L30.7867 5.54021L32.1406 8.34021H34.6981L37.406 2.74022L39.0608 5.54021L41.2401 3.86L43.8955 8.33999L45.6028 0.499999L46.8384 8.33999L55.0804 11.7L56.1334 9.45998H57.1865L59.5935 6.09999H62.0005L62.9031 9.45998L66.5137 2.73999L68.018 11.7L68.7702 8.33999H70.425L71.9294 0.499999L73.4338 7.21999L74.186 3.86H76.1417L77.4956 6.09999Z" fill="url(#paint0_linear_7271_30725)" fill-opacity="0.16"/>
<path d="M79 6.09999H77.4956L76.1417 3.86H74.186L73.4338 7.21999L71.9294 0.499999L70.425 8.33999H68.7702L68.018 11.7L66.5137 2.73999L62.9031 9.45998L62.0005 6.09999H59.5935L57.1865 9.45998H56.1334L55.0804 11.7L46.8384 8.33999L45.6028 0.499999L43.8955 8.33999L41.2401 3.86L39.0608 5.54021L37.406 2.74022L34.6981 8.3402H32.1406L30.7867 5.54021L28.3797 12.2602L27.4771 8.3402L26.2736 10.5802L25.5214 8.3402L23.1144 16.1802H21.8239L20.7728 16.5L20.256 13.9402L18.6012 12.2602L16.7655 10.5797L15.5042 13.9403L13.192 16.1804L8.77764 16.1802L7.30619 13.9402L5.20413 16.1802H4.1531L3.25658 13.9402L1 8.3402" stroke="#6C8C3C" stroke-linecap="round"/>
<defs>
<linearGradient id="paint0_linear_7271_30725" x1="40" y1="24.5" x2="40" y2="0.499999" gradientUnits="userSpaceOnUse">
<stop stop-color="#77B900" stop-opacity="0"/>
<stop offset="0.809892" stop-color="#77B900"/>
</linearGradient>
</defs>
</svg>
