<svg width="79" height="25" viewBox="0 0 79 25" fill="none" xmlns="http://www.w3.org/2000/svg">
<path d="M2.00438 6.09999H0.5L0.5 24.5L78.5 24.5V18.5L76.2434 13.9402L75.3469 16.1802H74.2959L72.1938 13.9402L70.7224 16.1802L66.308 16.1804L63.9958 13.9403L62.7345 10.5797L60.8988 12.2602L59.244 13.9402L58.7272 16.5L57.6761 16.1802H56.3856L53.9786 8.34021L53.2264 10.5802L52.0229 8.34021L51.1203 12.2602L48.7133 5.54021L47.3594 8.34021H44.8019L42.094 2.74022L40.4392 5.54021L38.2599 3.86L35.6045 8.33999L33.8972 0.499999L32.6616 8.33999L24.4196 11.7L23.3666 9.45998H22.3135L19.9065 6.09999H17.4995L16.5969 9.45998L12.9863 2.73999L11.482 11.7L10.7298 8.33999H9.07496L7.57058 0.499999L6.0662 7.21999L5.31401 3.86H3.35832L2.00438 6.09999Z" fill="url(#paint0_linear_7271_30707)" fill-opacity="0.16"/>
<path d="M0.5 6.09999H2.00438L3.35832 3.86H5.31401L6.0662 7.21999L7.57058 0.499999L9.07496 8.33999H10.7298L11.482 11.7L12.9863 2.73999L16.5969 9.45998L17.4995 6.09999H19.9065L22.3135 9.45998H23.3666L24.4196 11.7L32.6616 8.33999L33.8972 0.499999L35.6045 8.33999L38.2599 3.86L40.4392 5.54021L42.094 2.74022L44.8019 8.34021H47.3594L48.7133 5.54021L51.1203 12.2602L52.0229 8.34021L53.2264 10.5802L53.9786 8.34021L56.3856 16.1802H57.6761L58.7272 16.5L59.244 13.9402L60.8988 12.2602L62.7345 10.5797L63.9958 13.9403L66.308 16.1804L70.7224 16.1802L72.1938 13.9402L74.2959 16.1802H75.3469L76.2434 13.9402L78 18.5" stroke="white" stroke-linecap="round"/>
<defs>
<linearGradient id="paint0_linear_7271_30707" x1="39.5" y1="24.5" x2="39.5" y2="0.499999" gradientUnits="userSpaceOnUse">
<stop stop-color="white" stop-opacity="0"/>
<stop offset="0.809892" stop-color="white"/>
</linearGradient>
</defs>
</svg>
