<svg width="72" height="72" viewBox="0 0 72 72" fill="none" xmlns="http://www.w3.org/2000/svg">
<g id="Group 300">
<rect id="Rectangle 385" width="72" height="72" fill="#E2F5FF"/>
<g id="Group 296">
<path id="Vector" d="M23.261 33.8687C23.0009 33.6605 22.5844 33.7126 22.3242 33.9728L20.1386 36.6797L19.4619 36.0549C19.2018 35.7947 18.7853 35.7947 18.5252 36.0549C18.265 36.3154 18.265 36.7317 18.5252 36.9919L19.7741 38.1374C20.0865 38.3976 20.5548 38.2935 20.7109 38.0851L23.313 34.8057C23.5732 34.4934 23.6772 34.1809 23.261 33.8687Z" fill="#069AE4"/>
<g id="Clip path group">
<mask id="mask0_4577_23634" style="mask-type:luminance" maskUnits="userSpaceOnUse" x="13" y="13" width="34" height="46">
<g id="ff3f9315ce">
<path id="Vector_2" d="M13.5 13.3574H46.9217V58.6457H13.5V13.3574Z" fill="white"/>
</g>
</mask>
<g mask="url(#mask0_4577_23634)">
<g id="Group">
<path id="Vector_3" d="M46.2636 40.1141C45.8994 40.1141 45.6392 40.4264 45.6392 40.7386V57.3444H14.7782V14.659H36.2716V23.3001C36.2716 23.6644 36.5318 23.9769 36.896 23.9769H45.5349V24.8096C45.5349 25.1741 45.8473 25.4344 46.1595 25.4344C46.4717 25.4344 46.7841 25.1221 46.7841 24.8096V23.3001C46.7841 23.144 46.7321 22.9876 46.576 22.8315L37.4165 13.5656C37.3125 13.4095 37.1043 13.3574 36.948 13.3574H14.1536C13.7894 13.3574 13.5293 13.6699 13.5293 13.9822V58.0212C13.5293 58.3855 13.8415 58.6457 14.1536 58.6457H46.2636C46.628 58.6457 46.8881 58.3335 46.8881 58.0212V40.7386C46.8881 40.3743 46.628 40.1141 46.2636 40.1141Z" fill="#069AE4"/>
</g>
</g>
</g>
<path id="Vector_4" d="M42.3084 26.8396C42.3084 26.4751 41.9962 26.2148 41.6838 26.2148H26.1754C25.8112 26.2148 25.5508 26.5271 25.5508 26.8396C25.5508 27.1518 25.8632 27.4641 26.1754 27.4641H41.6838C42.0482 27.5161 42.3084 27.2039 42.3084 26.8396Z" fill="#069AE4"/>
<path id="Vector_5" d="M26.1754 29.5469C25.8112 29.5469 25.5508 29.8594 25.5508 30.1716C25.5508 30.4839 25.8632 30.7964 26.1754 30.7964H37.3124C37.6766 30.7964 37.9368 30.4839 37.9368 30.1716C37.9368 29.8594 37.6766 29.5469 37.3124 29.5469H26.1754Z" fill="#069AE4"/>
<path id="Vector_6" d="M23.261 25.2788C23.0009 25.0707 22.5844 25.1227 22.3242 25.3829L20.1386 28.0898L19.4619 27.4651C19.2018 27.2049 18.7853 27.2049 18.5252 27.4651C18.265 27.7253 18.265 28.1419 18.5252 28.4021L19.7741 29.5473C20.0865 29.8077 20.5548 29.7036 20.7109 29.4952L23.313 26.2158C23.5732 25.9036 23.6252 25.5911 23.261 25.2788Z" fill="#069AE4"/>
<path id="Vector_7" d="M23.261 42.1441C23.0009 41.9359 22.5844 41.9879 22.3242 42.2482L20.1386 44.9551L19.4619 44.3303C19.2018 44.0701 18.7853 44.0701 18.5252 44.3303C18.265 44.5905 18.265 45.0071 18.5252 45.2673L19.7741 46.4125C20.0865 46.673 20.5548 46.5686 20.7109 46.3605L23.313 43.0811C23.5732 42.8206 23.6252 42.4563 23.261 42.1441Z" fill="#069AE4"/>
<path id="Vector_8" d="M58.2333 25.1747L56.3597 23.717L57.6087 22.1034C57.8691 21.7909 58.1292 21.2705 57.5566 20.8019L54.8504 18.6677C54.4342 18.3034 53.7576 18.3034 53.3934 18.7718L52.1445 20.3856C52.0402 20.3335 51.8841 20.2815 51.78 20.3335C51.6239 20.3335 51.4678 20.4376 51.3638 20.5937L49.1779 23.4047C49.0218 23.6649 49.0218 23.9774 49.1779 24.1856L40.9554 34.6487H26.1754C25.8112 34.6487 25.5508 34.961 25.5508 35.2733C25.5508 35.5857 25.8632 35.898 26.1754 35.898H39.9146L38.3532 37.9281H26.1754C25.8112 37.9281 25.5508 38.2406 25.5508 38.5529C25.5508 38.8651 25.8632 39.1776 26.1754 39.1776H37.3644L34.3981 43.0818H26.1754C25.8112 43.0818 25.5508 43.394 25.5508 43.7063C25.5508 44.0188 25.8632 44.331 26.1754 44.331H33.3573L32.0561 45.9968C32.0561 45.9968 32.004 46.153 31.952 46.3611H26.1754C25.8112 46.3611 25.5508 46.6736 25.5508 46.9859C25.5508 47.2981 25.8632 47.6106 26.1754 47.6106H31.5358C31.0152 49.2762 30.3386 51.6189 30.3386 51.6189C30.2346 51.8791 30.3386 52.1913 30.547 52.3477C30.7551 52.5038 31.0673 52.5038 31.2754 52.3997C31.2754 52.3997 36.2196 49.4324 36.3236 49.3283L53.3414 27.4129C53.4454 27.465 53.5495 27.517 53.7056 27.517C53.9137 27.517 54.122 27.4129 54.2261 27.2568L55.9955 24.9665L56.9323 25.6951L51.6239 32.6186C51.4158 32.9309 51.4678 33.2952 51.728 33.5556C51.9881 33.8158 52.4046 33.7117 52.6647 33.4515L58.3893 26.1117C58.5975 25.7992 58.4934 25.3828 58.2333 25.1747ZM32.0561 50.4737L32.9928 47.3502C33.3573 47.5586 33.6694 47.7668 33.9816 47.9749C34.294 48.2351 34.6062 48.4954 34.8663 48.7558L32.0561 50.4737ZM53.6015 26.0596L50.5311 23.6649L51.832 21.9991L54.9025 24.3938L53.6015 26.0596Z" fill="#069AE4"/>
</g>
</g>
</svg>
