<svg width="65" height="64" viewBox="0 0 65 64" fill="none" xmlns="http://www.w3.org/2000/svg">
<g id="Group 281">
<rect id="Rectangle 381" x="0.333496" width="64" height="64" rx="32" fill="#E0F1FF"/>
<g id="Group 277">
<g id="Clip path group">
<mask id="mask0_4573_5232" style="mask-type:luminance" maskUnits="userSpaceOnUse" x="42" y="28" width="10" height="11">
<g id="20256e5bb9">
<path id="Vector" d="M42.0591 28.1504H51.4663V38.4254H42.0591V28.1504Z" fill="white"/>
</g>
</mask>
<g mask="url(#mask0_4573_5232)">
<g id="Group">
<path id="Vector_2" d="M50.6815 34.4827C50.276 33.8765 49.739 33.381 49.112 33.0294C49.4871 32.5367 49.6905 31.9388 49.6905 31.3077C49.6905 30.5506 49.3971 29.8393 48.8656 29.3036C48.3342 28.7694 47.6269 28.4746 46.8754 28.4746C46.4685 28.4746 46.0768 28.5604 45.717 28.7237C45.7004 28.6753 45.6824 28.6269 45.6644 28.5798L45.2326 28.7403C45.2589 28.8109 45.2838 28.8815 45.3087 28.9521C45.1578 29.0545 45.0167 29.1722 44.8852 29.3036C44.3537 29.8393 44.0603 30.5506 44.0603 31.3077C44.0603 31.9388 44.2637 32.5367 44.6388 33.0294C43.9842 33.3962 43.4292 33.9208 43.0181 34.5574C42.5379 35.3048 42.2832 36.1726 42.2832 37.0666V37.7946C42.2832 38.0133 42.4604 38.1905 42.6777 38.1905H45.407C45.4028 38.2057 45.3973 38.2209 45.3931 38.2361L45.8291 38.3815C45.8498 38.3178 45.8706 38.2541 45.8914 38.1905H51.0718C51.2904 38.1905 51.4662 38.0133 51.4662 37.7946V37.0666C51.4662 36.1407 51.1949 35.2467 50.6815 34.4827ZM46.8754 29.2677C47.9923 29.2677 48.9016 30.1825 48.9016 31.3077C48.9016 32.4329 47.9923 33.3492 46.8754 33.3492C45.7571 33.3492 44.8478 32.4329 44.8478 31.3077C44.8478 30.1825 45.7571 29.2677 46.8754 29.2677ZM50.6787 37.3974H43.0721V37.0666C43.0721 36.3262 43.2825 35.6079 43.6797 34.9878C44.0631 34.3927 44.6001 33.9166 45.2353 33.6107C45.7101 33.9554 46.2789 34.1422 46.8754 34.1422C47.4719 34.1422 48.0408 33.9554 48.5155 33.6107C49.1272 33.9055 49.6476 34.3567 50.0296 34.9269C50.4545 35.5594 50.6787 36.2999 50.6787 37.0666V37.3974Z" fill="#0078D4"/>
</g>
</g>
</g>
<g id="Clip path group_2">
<mask id="mask1_4573_5232" style="mask-type:luminance" maskUnits="userSpaceOnUse" x="27" y="13" width="11" height="10">
<g id="10804a3c09">
<path id="Vector_3" d="M27.5322 13H37.0986V22.8349H27.5322V13Z" fill="white"/>
</g>
</mask>
<g mask="url(#mask1_4573_5232)">
<g id="Group_2">
<path id="Vector_4" d="M27.9726 22.7159H36.3667C36.584 22.7159 36.7611 22.5387 36.7611 22.3186V21.592C36.7611 21.044 36.6656 20.5056 36.4816 20.0004L36.5868 19.6862C36.4954 19.6558 36.4041 19.6253 36.3113 19.5963C36.2144 19.3928 36.1023 19.1963 35.9764 19.0081C35.5695 18.4019 35.0325 17.9064 34.4055 17.5534C34.7806 17.0621 34.9841 16.4628 34.9841 15.8331C34.9841 15.076 34.6906 14.3647 34.1592 13.829C33.6277 13.2948 32.9205 13 32.1689 13C31.4174 13 30.7102 13.2948 30.1787 13.829C29.6472 14.3647 29.3538 15.076 29.3538 15.8331C29.3538 16.4642 29.5573 17.0621 29.9324 17.5548C29.2791 17.9216 28.7227 18.4448 28.313 19.0828C28.248 19.1824 28.1885 19.2849 28.1317 19.3887C28.0224 19.4177 27.9131 19.4482 27.8037 19.48L27.9117 19.8592C27.6916 20.4059 27.5781 20.9928 27.5781 21.592V22.3186C27.5781 22.5387 27.7539 22.7159 27.9726 22.7159ZM32.1689 13.7917C33.2872 13.7917 34.1965 14.7079 34.1965 15.8331C34.1965 16.9583 33.2872 17.8745 32.1689 17.8745C31.052 17.8745 30.1427 16.9583 30.1427 15.8331C30.1427 14.7079 31.052 13.7917 32.1689 13.7917ZM28.3656 21.592C28.3656 20.8516 28.576 20.1319 28.9746 19.5132C29.358 18.9181 29.895 18.442 30.5289 18.1361C31.0036 18.4807 31.5724 18.6662 32.1689 18.6662C32.7668 18.6662 33.3357 18.4807 33.8104 18.1361C34.4208 18.4309 34.9411 18.8821 35.3231 19.4509C35.748 20.0848 35.9736 20.8253 35.9736 21.592V21.9228H28.3656V21.592Z" fill="#0078D4"/>
</g>
</g>
</g>
<path id="Vector_5" d="M23.1685 22.3511L22.8875 21.9844C22.6799 22.1463 22.4737 22.3152 22.2744 22.4882L22.5747 22.8397C22.7671 22.6722 22.9678 22.5075 23.1685 22.3511Z" fill="#0078D4"/>
<path id="Vector_6" d="M27.1984 20.1581L27.0476 19.7207C26.7998 19.8065 26.5507 19.902 26.3071 20.0017L26.4815 20.4307C26.7168 20.3338 26.9576 20.2425 27.1984 20.1581Z" fill="#0078D4"/>
<path id="Vector_7" d="M20.035 25.7198L19.653 25.4609C19.5063 25.6796 19.3637 25.9066 19.2295 26.1336L19.6239 26.3716C19.7554 26.1516 19.8938 25.9315 20.035 25.7198Z" fill="#0078D4"/>
<path id="Vector_8" d="M24.4306 21.4765L24.1912 21.082C23.967 21.2204 23.7441 21.3658 23.5269 21.5166L23.7884 21.8972C23.9974 21.7519 24.2147 21.6107 24.4306 21.4765Z" fill="#0078D4"/>
<path id="Vector_9" d="M25.7802 20.7416L25.5823 20.3223C25.3456 20.4358 25.1076 20.5562 24.8765 20.6821L25.0951 21.0904C25.3194 20.9686 25.5491 20.851 25.7802 20.7416Z" fill="#0078D4"/>
<path id="Vector_10" d="M22.0074 23.3603L21.6891 23.0254C21.4981 23.2095 21.3113 23.3991 21.1313 23.5928L21.4677 23.9098C21.6421 23.7229 21.8234 23.5375 22.0074 23.3603Z" fill="#0078D4"/>
<path id="Vector_11" d="M20.9579 24.4864L20.6064 24.1875C20.4362 24.391 20.2701 24.5999 20.1123 24.8117L20.4805 25.0899C20.6327 24.885 20.7946 24.683 20.9579 24.4864Z" fill="#0078D4"/>
<path id="Vector_12" d="M19.2488 27.044L18.8419 26.8281C18.7187 27.062 18.601 27.3028 18.4917 27.5437L18.9097 27.736C19.0162 27.5035 19.1311 27.271 19.2488 27.044Z" fill="#0078D4"/>
<path id="Vector_13" d="M25.0879 46.8622C25.3121 46.9799 25.5432 47.0934 25.773 47.1985L25.964 46.7764C25.7412 46.674 25.5183 46.5647 25.301 46.4512L25.0879 46.8622Z" fill="#0078D4"/>
<path id="Vector_14" d="M18.5653 38.873L18.1362 39.0391C18.2276 39.2772 18.3258 39.5152 18.4283 39.7478L18.849 39.5581C18.7494 39.3325 18.6539 39.1028 18.5653 38.873Z" fill="#0078D4"/>
<path id="Vector_15" d="M19.1674 40.2285L18.7563 40.4389C18.8712 40.6659 18.9944 40.8915 19.1203 41.1115L19.5189 40.8804C19.3958 40.6673 19.2781 40.4472 19.1674 40.2285Z" fill="#0078D4"/>
<path id="Vector_16" d="M26.4736 47.4968C26.7089 47.591 26.9497 47.6795 27.1892 47.7598L27.3359 47.3211C27.1034 47.2422 26.8708 47.1564 26.6425 47.0664L26.4736 47.4968Z" fill="#0078D4"/>
<path id="Vector_17" d="M23.7759 46.0854C23.9876 46.2265 24.2049 46.3622 24.4222 46.4909L24.6561 46.0923C24.4444 45.9663 24.234 45.8349 24.0305 45.6992L23.7759 46.0854Z" fill="#0078D4"/>
<path id="Vector_18" d="M20.4102 43.0049C20.5693 43.2028 20.7354 43.3994 20.9029 43.5876L21.2461 43.279C21.0828 43.0963 20.9222 42.9053 20.7686 42.7129L20.4102 43.0049Z" fill="#0078D4"/>
<path id="Vector_19" d="M19.5171 41.7636C19.6541 41.9768 19.7994 42.1899 19.9475 42.3961L20.3212 42.1235C20.1773 41.9242 20.0361 41.7179 19.9032 41.5117L19.5171 41.7636Z" fill="#0078D4"/>
<path id="Vector_20" d="M21.7524 43.8203L21.4258 44.1456C21.6029 44.3269 21.7884 44.5054 21.9752 44.6756L22.2853 44.3324C22.104 44.1677 21.924 43.9947 21.7524 43.8203Z" fill="#0078D4"/>
<path id="Vector_21" d="M22.5513 45.1768C22.7464 45.3374 22.9485 45.4965 23.1519 45.6474L23.426 45.2737C23.2281 45.127 23.0329 44.9748 22.8433 44.8184L22.5513 45.1768Z" fill="#0078D4"/>
<path id="Vector_22" d="M43.1909 42.4209L43.5563 42.7019C43.721 42.486 43.8815 42.2631 44.0324 42.0375L43.6518 41.7773C43.5051 41.9946 43.3501 42.2105 43.1909 42.4209Z" fill="#0078D4"/>
<path id="Vector_23" d="M41.0181 44.7095L41.3142 45.0652C41.5205 44.8908 41.7253 44.7081 41.9218 44.5213L41.6077 44.1836C41.4167 44.3635 41.2188 44.5407 41.0181 44.7095Z" fill="#0078D4"/>
<path id="Vector_24" d="M44.8145 39.7099L45.2324 39.9036C45.3459 39.6573 45.4525 39.404 45.5521 39.1507L45.1245 38.9805C45.0276 39.2254 44.9238 39.4704 44.8145 39.7099Z" fill="#0078D4"/>
<path id="Vector_25" d="M44.0781 41.1106L44.4712 41.3486C44.611 41.1161 44.7452 40.8767 44.8726 40.6372L44.4657 40.4199C44.3425 40.6524 44.2124 40.885 44.0781 41.1106Z" fill="#0078D4"/>
<path id="Vector_26" d="M42.167 43.6253L42.5005 43.945C42.6874 43.7485 42.8701 43.545 43.0458 43.3388L42.6957 43.0371C42.5255 43.2378 42.3483 43.4357 42.167 43.6253Z" fill="#0078D4"/>
<path id="Vector_27" d="M36.9658 47.115L37.1305 47.5482C37.3824 47.45 37.6343 47.3448 37.8807 47.2341L37.6924 46.8105C37.4544 46.9185 37.2094 47.0209 36.9658 47.115Z" fill="#0078D4"/>
<path id="Vector_28" d="M38.4009 46.4654L38.6126 46.8778C38.8521 46.7519 39.0915 46.619 39.324 46.4806L39.0915 46.082C38.8659 46.2163 38.6334 46.345 38.4009 46.4654Z" fill="#0078D4"/>
<path id="Vector_29" d="M39.7588 45.6599L40.0134 46.046C40.2377 45.8951 40.4619 45.736 40.6778 45.574L40.401 45.2031C40.192 45.3609 39.9761 45.5145 39.7588 45.6599Z" fill="#0078D4"/>
<g id="Clip path group_3">
<mask id="mask2_4573_5232" style="mask-type:luminance" maskUnits="userSpaceOnUse" x="13" y="22" width="31" height="29">
<g id="e8ef920558">
<path id="Vector_30" d="M13.2007 22.4805H43.8306V50.9997H13.2007V22.4805Z" fill="white"/>
</g>
</mask>
<g mask="url(#mask2_4573_5232)">
<g id="Group_3">
<path id="Vector_31" d="M36.3611 47.8193L36.2213 47.3778C36.1687 47.3944 36.1175 47.411 36.0649 47.4276C36.0358 47.382 36.0068 47.3363 35.9763 47.2906C35.5694 46.6858 35.0324 46.1903 34.4054 45.8374C34.7805 45.3461 34.984 44.7468 34.984 44.1171C34.984 43.36 34.6905 42.6486 34.1591 42.113C33.6913 41.641 33.0865 41.3573 32.4346 41.295L33.1723 40.5532C33.2899 40.4342 33.2899 40.2418 33.1723 40.1241C33.0546 40.0051 32.8636 40.0051 32.746 40.1241L32.4706 40.3996V38.5685C32.9259 38.5408 33.3771 38.455 33.8186 38.3111C34.5203 38.0827 35.157 37.7242 35.7092 37.2426C36.2434 36.7776 36.678 36.2198 37.0005 35.5845C37.2538 35.0877 37.4281 34.5631 37.5209 34.0192H42.5227L42.2598 34.2849C42.1421 34.4026 42.1421 34.595 42.2598 34.714C42.3193 34.7735 42.3968 34.8026 42.4729 34.8026C42.5504 34.8026 42.6279 34.7735 42.6874 34.714L43.4736 33.9223C43.5912 33.8033 43.5912 33.6109 43.4736 33.4933L42.6874 32.7016C42.5684 32.5826 42.3774 32.5826 42.2598 32.7016C42.1421 32.8193 42.1421 33.0116 42.2598 33.1307L42.5394 33.4116H37.5915C37.633 32.7293 37.5472 32.0511 37.3368 31.3923C37.1306 30.7515 36.8164 30.1647 36.4026 29.6443L37.2275 28.872L39.59 29.0976C39.6025 29.099 39.6149 29.099 39.6274 29.099C39.7256 29.099 39.8225 29.0616 39.8959 28.9924L42.3733 26.6686C42.4854 26.5621 42.5269 26.3988 42.4771 26.2507C42.4272 26.104 42.2958 25.9988 42.1408 25.9849L39.9512 25.7746L39.8972 23.5601C39.8931 23.4037 39.799 23.2653 39.6564 23.2044C39.5139 23.1435 39.3492 23.1726 39.2357 23.2792L36.7583 25.6043C36.6752 25.6804 36.6296 25.7898 36.6323 25.9033L36.6905 28.2921L35.867 29.063C35.4988 28.717 35.0836 28.4236 34.6283 28.1897C33.9985 27.8644 33.3217 27.6679 32.6187 27.6056C32.5688 27.6015 32.5204 27.5973 32.4706 27.5946V23.765L32.7349 24.0321C32.7944 24.0902 32.8719 24.1206 32.9481 24.1206C33.0256 24.1206 33.1031 24.0902 33.1626 24.0321C33.2802 23.913 33.2802 23.7207 33.1626 23.6016L32.3751 22.81C32.2574 22.6909 32.0664 22.6909 31.9488 22.81L31.1627 23.6016C31.045 23.7207 31.045 23.913 31.1627 24.0321C31.2803 24.1497 31.4713 24.1497 31.5889 24.0321L31.8671 23.7511V27.5918C31.3938 27.6153 30.9232 27.7025 30.4651 27.852C29.7634 28.079 29.1268 28.4388 28.5745 28.9204C28.0403 29.3841 27.6057 29.9419 27.2832 30.5771C26.9594 31.2124 26.7642 31.8933 26.7033 32.602C26.6784 32.8732 26.6756 33.1431 26.6923 33.4116H22.0225L22.3229 33.1099C22.4405 32.9923 22.4405 32.7999 22.3229 32.6808C22.2052 32.5618 22.0142 32.5618 21.8966 32.6808L21.1105 33.4725C21.0219 33.5611 20.9998 33.6898 21.0427 33.7991C20.7423 33.496 20.4019 33.2372 20.0309 33.0282C20.406 32.5369 20.6081 31.9376 20.6081 31.3065C20.6081 30.5508 20.316 29.8381 19.7846 29.3038C19.4372 28.955 19.0178 28.7087 18.5583 28.5786C18.5749 28.5343 18.5915 28.49 18.6095 28.4471L18.1805 28.2769C18.1528 28.3475 18.1265 28.418 18.0988 28.49C17.9992 28.4789 17.8968 28.4734 17.7943 28.4734C17.0414 28.4734 16.3356 28.7682 15.8041 29.3038C15.2727 29.8381 14.9792 30.5508 14.9792 31.3065C14.9792 31.9376 15.1827 32.5369 15.5578 33.0282C14.9031 33.3964 14.3481 33.9196 13.9371 34.5562C13.4568 35.3036 13.2021 36.1714 13.2021 37.0668V37.7934C13.2021 38.0121 13.3793 38.1893 13.5966 38.1893H17.84C17.8539 38.2322 17.8677 38.2751 17.8802 38.3166L18.2663 38.1893H21.9907C22.2094 38.1893 22.3852 38.0121 22.3852 37.7934V37.0668C22.3852 36.1395 22.1139 35.2468 21.6004 34.4815C21.5243 34.368 21.4426 34.2573 21.3582 34.1521L21.8966 34.6932C21.9547 34.7527 22.0322 34.7818 22.1097 34.7818C22.1872 34.7818 22.2634 34.7527 22.3229 34.6932C22.4405 34.5742 22.4405 34.3818 22.3229 34.2642L22.0807 34.0192H26.7628C26.8057 34.2725 26.868 34.523 26.9469 34.7693C27.1739 35.4752 27.531 36.116 28.0085 36.6724C28.4707 37.2108 29.0243 37.6481 29.6555 37.9734C30.2852 38.2986 30.962 38.4951 31.6651 38.5574C31.7329 38.563 31.8007 38.5685 31.8671 38.5713V40.3926L31.6 40.1241C31.4824 40.0051 31.2914 40.0051 31.1723 40.1241C31.0547 40.2418 31.0547 40.4342 31.1723 40.5532L31.91 41.295C31.2554 41.3545 30.6492 41.6397 30.1786 42.113C29.6472 42.6486 29.3551 43.36 29.3551 44.1171C29.3551 44.7468 29.5572 45.3461 29.9323 45.8374C29.279 46.2056 28.7226 46.7287 28.3129 47.3668C28.2687 47.436 28.2258 47.5065 28.1842 47.5771C28.1372 47.5647 28.0887 47.5508 28.0403 47.5384L27.9171 47.984C27.9351 47.9896 27.9531 47.9951 27.9725 47.9993C27.7137 48.5861 27.578 49.2241 27.578 49.876V50.6026C27.578 50.8213 27.7538 50.9998 27.9711 50.9998H36.3666C36.5839 50.9998 36.761 50.8213 36.761 50.6026V49.876C36.761 49.1632 36.6005 48.4712 36.2932 47.8415C36.3154 47.8346 36.3389 47.8276 36.3611 47.8193ZM17.7943 29.2665C18.9113 29.2665 19.8206 30.1813 19.8206 31.3065C19.8206 32.4317 18.9113 33.3479 17.7943 33.3479C16.6761 33.3479 15.7667 32.4317 15.7667 31.3065C15.7667 30.1813 16.6761 29.2665 17.7943 29.2665ZM21.5977 37.3962H13.991V37.0654C13.991 36.325 14.2014 35.6067 14.5986 34.9866C14.982 34.3915 15.519 33.9154 16.1529 33.6095C16.629 33.9542 17.1964 34.141 17.7943 34.141C18.3909 34.141 18.9597 33.9542 19.4344 33.6095C20.0462 33.9043 20.5666 34.3555 20.9485 34.9257C21.3734 35.5582 21.5977 36.2987 21.5977 37.0654V37.3962ZM39.4876 28.2907L37.9984 28.1495L39.6689 26.5814L39.7049 26.5482L41.1955 26.6908L39.4876 28.2907ZM39.1319 24.4611L39.1679 25.9669L37.4614 27.5683L37.4254 26.0624L39.1319 24.4611ZM30.0139 37.2675C29.4741 36.9893 28.9994 36.6143 28.605 36.1548C28.1967 35.6786 27.8908 35.1306 27.6971 34.5258C27.5033 33.9223 27.4327 33.2981 27.4881 32.6712C27.5407 32.065 27.7081 31.4823 27.9836 30.9384C28.2604 30.3944 28.6327 29.9169 29.0894 29.5197C29.5627 29.1087 30.1066 28.8014 30.7073 28.6063C31.1751 28.454 31.6568 28.3765 32.1412 28.3765C32.2768 28.3765 32.4138 28.3834 32.5495 28.3945C33.1515 28.4485 33.73 28.616 34.2698 28.8955C34.6435 29.0865 34.984 29.3246 35.2898 29.6055L34.5065 30.3405C34.2878 30.1495 34.0456 29.9848 33.784 29.8505C33.3674 29.636 32.9218 29.5059 32.4567 29.4658C31.9765 29.4229 31.4976 29.4768 31.0339 29.6277C30.5717 29.7785 30.1523 30.0152 29.7869 30.3335C29.434 30.6408 29.1461 31.0089 28.933 31.4283C28.7199 31.8477 28.5911 32.2975 28.551 32.7639C28.5081 33.2483 28.5621 33.7299 28.7115 34.1964C28.861 34.6628 29.0977 35.0849 29.4132 35.4531C29.7177 35.8087 30.0831 36.0966 30.4997 36.3111C30.9163 36.5271 31.3633 36.6558 31.827 36.6973C31.9336 36.707 32.0387 36.7111 32.1439 36.7111C32.5176 36.7111 32.8885 36.6516 33.2498 36.5354C33.7134 36.3845 34.1328 36.1465 34.4982 35.8295C34.8511 35.5223 35.1376 35.1541 35.3507 34.7347C35.5639 34.3154 35.6926 33.8656 35.7341 33.3978C35.7756 32.9134 35.7216 32.4317 35.5722 31.9667C35.4518 31.5875 35.2732 31.2373 35.0407 30.9231L35.8254 30.1868C36.1618 30.62 36.4178 31.1058 36.5867 31.6359C36.7804 32.2407 36.851 32.8649 36.797 33.4919C36.7431 34.0967 36.577 34.6794 36.3002 35.2233C36.0234 35.7672 35.6511 36.2447 35.1943 36.6419C34.7224 37.053 34.1771 37.3616 33.5778 37.5568C32.9771 37.7519 32.3571 37.8225 31.7343 37.7671C31.1336 37.7146 30.5537 37.5457 30.0139 37.2675ZM34.8234 32.2103C35.0545 32.93 34.9923 33.6995 34.6504 34.3735C34.3072 35.0475 33.7231 35.5472 33.0076 35.7797C32.292 36.0122 31.528 35.9513 30.8582 35.6053C30.1883 35.2607 29.6928 34.6738 29.4617 33.9528C29.2306 33.2317 29.2915 32.4636 29.6347 31.7895C29.9779 31.1141 30.5606 30.6145 31.2761 30.382C31.5613 30.2893 31.8547 30.2436 32.1453 30.2436C32.5854 30.2436 33.0228 30.3488 33.4255 30.5564C33.6055 30.6491 33.7729 30.7598 33.9266 30.8844L33.1335 31.6276C33.0726 31.5861 33.0076 31.5473 32.9397 31.5127C32.5232 31.2982 32.0498 31.2595 31.6042 31.4034C31.1599 31.5487 30.7973 31.8587 30.5841 32.2781C30.371 32.6975 30.3322 33.1749 30.4762 33.622C30.7156 34.368 31.4035 34.8441 32.1439 34.8441C32.3211 34.8441 32.5024 34.8164 32.6796 34.7583C33.1252 34.6129 33.4878 34.3029 33.701 33.8836C33.9141 33.4656 33.9515 32.9867 33.8075 32.5397C33.7715 32.4248 33.7231 32.3155 33.6664 32.213L34.4608 31.4671C34.6144 31.6927 34.7376 31.9418 34.8234 32.2103ZM33.0588 32.7833C33.2221 33.2926 32.9439 33.8393 32.4373 34.004C32.3405 34.0358 32.2408 34.051 32.1425 34.051C31.7356 34.051 31.3578 33.7895 31.2249 33.3798C31.146 33.132 31.1682 32.8705 31.2845 32.6393C31.4021 32.4082 31.6014 32.238 31.8464 32.1591C31.9433 32.1272 32.0429 32.1106 32.1425 32.1106C32.2754 32.1106 32.4069 32.1383 32.5301 32.1937L31.91 32.7763C31.7509 32.9258 31.7426 33.1763 31.8907 33.3369C31.9682 33.4199 32.0733 33.4628 32.1785 33.4628C32.2754 33.4628 32.3709 33.4268 32.447 33.3563L33.0588 32.7833ZM32.1688 42.0756C33.2871 42.0756 34.1964 42.9918 34.1964 44.1171C34.1964 45.2423 33.2871 46.1571 32.1688 46.1571C31.0519 46.1571 30.1426 45.2423 30.1426 44.1171C30.1426 42.9918 31.0519 42.0756 32.1688 42.0756ZM35.9735 50.2068H28.3655V49.876C28.3655 49.1342 28.5759 48.4158 28.9745 47.7972C29.3579 47.2007 29.8949 46.7259 30.5288 46.4201C31.0035 46.7647 31.5723 46.9502 32.1688 46.9502C32.7667 46.9502 33.3356 46.7647 33.8103 46.4201C34.4207 46.7135 34.9411 47.1661 35.323 47.7349C35.7479 48.3674 35.9735 49.1079 35.9735 49.876V50.2068Z" fill="#0078D4"/>
</g>
</g>
</g>
<path id="Vector_32" d="M43.8719 25.1605C43.7238 24.9501 43.5688 24.7411 43.4097 24.5391L43.0498 24.8269C43.202 25.0221 43.3529 25.2242 43.4968 25.4276L43.8719 25.1605Z" fill="#0078D4"/>
<path id="Vector_33" d="M44.6955 26.4671C44.5709 26.2442 44.438 26.02 44.301 25.8027L43.9121 26.0505C44.0436 26.2608 44.1723 26.4781 44.2941 26.6954L44.6955 26.4671Z" fill="#0078D4"/>
<path id="Vector_34" d="M44.9559 28.0415L45.378 27.8574C45.277 27.6207 45.169 27.384 45.0555 27.1543L44.6431 27.3591C44.7524 27.5833 44.8576 27.8117 44.9559 28.0415Z" fill="#0078D4"/>
<path id="Vector_35" d="M42.917 23.9438C42.7482 23.7515 42.5724 23.5591 42.3939 23.375L42.0645 23.6989C42.2375 23.8774 42.4077 24.0629 42.571 24.2497L42.917 23.9438Z" fill="#0078D4"/>
<path id="Vector_36" d="M39.3793 20.9827C39.1593 20.8513 38.9337 20.7225 38.7067 20.6035L38.4922 21.0132C38.7122 21.1294 38.9309 21.2526 39.1441 21.38L39.3793 20.9827Z" fill="#0078D4"/>
<path id="Vector_37" d="M41.843 22.8349C41.6548 22.6605 41.4597 22.4889 41.2631 22.3242L40.9697 22.6799C41.1593 22.8391 41.349 23.0065 41.5303 23.1754L41.843 22.8349Z" fill="#0078D4"/>
<path id="Vector_38" d="M38.0161 20.2609C37.785 20.153 37.547 20.0506 37.3089 19.9551L37.1387 20.3855C37.3684 20.4782 37.5996 20.5779 37.8238 20.6817L38.0161 20.2609Z" fill="#0078D4"/>
<path id="Vector_39" d="M40.6583 21.8435C40.4535 21.6899 40.2431 21.539 40.03 21.3965L39.7739 21.7812C39.9801 21.9196 40.185 22.065 40.3829 22.2144L40.6583 21.8435Z" fill="#0078D4"/>
</g>
</g>
</svg>
