<svg width="168" height="158" viewBox="0 0 168 158" fill="none" xmlns="http://www.w3.org/2000/svg">
<g id="Group 189">
<g id="Clip path group">
<mask id="mask0_3323_22539" style="mask-type:luminance" maskUnits="userSpaceOnUse" x="0" y="107" width="104" height="49">
<g id="3b97cf529b">
<path id="Vector" d="M103.76 107.842H0.0176716V155.877H103.76V107.842Z" fill="white"/>
</g>
</mask>
<g mask="url(#mask0_3323_22539)">
<g id="Group">
<path id="Vector_2" d="M0.159947 146.533C0.159947 146.533 0.513541 152.836 0.910838 154.34C1.00818 155.198 2.42851 155.925 3.46347 155.925H76.9753C78.1294 155.925 79.1902 155.313 79.7683 154.312L102.931 114.183C104.154 112.07 102.676 109.414 100.235 109.338L56.4132 108.009C55.6106 107.985 54.828 108.26 54.2201 108.778C49.1466 113.116 24.5619 133.887 9.78247 146.366C5.67244 146.386 0.159947 146.533 0.159947 146.533Z" fill="#674E63"/>
</g>
</g>
</g>
<path id="Vector_3" d="M112.992 29.848C111.061 28.086 108.155 27.2596 105.738 28.2528C100.122 30.5591 98.9479 41.3358 97.8891 47.2118C97.468 49.5519 97.6666 51.9893 98.3917 54.248C98.9002 55.8312 100.378 59.6869 102.14 60.2869C103.674 60.8093 106.747 58.1593 107.877 57.2317C119.021 48.0779 118.431 34.8102 112.992 29.848Z" fill="#4A4B67"/>
<path id="Vector_4" d="M54.9436 100.298C54.1411 100.274 53.3604 100.549 52.7486 101.071C46.66 106.286 12.3951 135.213 0.811949 144.99C-0.49317 146.091 0.287517 148.22 1.99391 148.22H75.5037C76.6559 148.22 77.7206 147.604 78.2967 146.607L101.461 106.476C102.683 104.361 101.205 101.707 98.7635 101.633L54.9436 100.298Z" fill="#7F5C62"/>
<path id="Vector_5" d="M90.3718 76.3282C90.2863 77.973 90.63 78.6306 92.2251 78.7378C98.4309 79.1729 106.705 76.7176 110.564 71.4594C111.806 69.7669 110.833 69.0676 109.138 62.4467C107.042 54.2763 105.823 45.5715 105.695 36.5449C103.59 41.4337 100.517 46.0344 96.6332 49.9338C95.5982 50.9728 94.4818 51.9739 93.135 52.55C91.7802 53.1281 90.1513 53.2036 88.9077 52.4388C90.2248 59.6855 90.8048 68.1101 90.3718 76.3282Z" fill="#FEC3A5"/>
<path id="Vector_6" d="M89.0942 53.5085C90.0795 59.4739 90.5582 65.5247 90.5106 71.5696C91.9706 71.4027 93.4903 70.8147 94.5153 70.3916C100.367 67.976 105.205 63.3078 108.025 57.6523C106.839 51.9967 106.102 46.2359 105.824 40.499C105.181 40.346 104.513 40.2805 103.852 40.3003C101.909 43.8283 99.4716 47.0822 96.6329 49.9328C95.598 50.9717 94.4815 51.9729 93.1347 52.549C91.9845 53.0397 90.6218 53.1747 89.4697 52.7159C89.3346 52.9801 89.2094 53.2443 89.0942 53.5085Z" fill="#FCAA86"/>
<path id="Vector_7" d="M79.2168 53.2421C76.8966 49.7459 74.9796 45.9815 73.5175 42.0483C73.0845 40.8862 72.3018 38.566 73.6169 37.6602C73.9844 37.4079 74.5068 37.5052 74.8664 37.7714C75.3908 38.1608 74.9875 37.6165 83.0566 51.6927L79.2168 53.2421Z" fill="#FCAA86"/>
<path id="Vector_8" d="M75.4247 38.4236C75.2598 44.9114 75.5379 51.9615 80.0174 57.029C82.7369 60.106 86.3901 63.3241 90.7643 62.9249C93.0627 62.7242 95.1604 61.2284 97.0913 59.7544C100.355 57.2673 103.291 54.1108 104.664 50.0663C106.334 45.1458 107.582 39.9551 107.481 34.7029C107.403 30.6385 106.547 24.9393 103.529 22.0232C99.3717 18.0025 97.8243 17.8913 91.835 18.0085C90.2141 18.0403 88.605 18.2349 86.994 18.4256C85.7047 18.5766 84.7254 18.4614 83.4997 19.0653C77.1132 22.2119 75.6392 31.302 75.4247 38.4236Z" fill="#FEC3A5"/>
<path id="Vector_9" d="M75.4009 42.0122C74.9996 38.5537 74.4255 33.7325 74.9857 30.2959C75.5479 26.8593 76.9941 23.4743 79.5606 21.1203C81.3266 19.4993 82.6516 20.9038 81.7338 22.7552C81.2729 23.6829 81.1081 24.6761 80.6671 25.578C79.8288 27.2883 77.5364 30.0595 75.9055 36.444C75.5916 37.6677 75.2539 40.7468 75.4009 42.0122Z" fill="#273454"/>
<path id="Vector_10" d="M76.8179 41.1466C76.951 41.087 79.458 38.4708 82.3324 40.6977C82.5052 40.8268 82.6939 40.5706 82.5271 40.4434C80.8505 39.1443 78.9792 39.1363 77.2271 40.4097C77.4318 39.5674 78.0595 38.89 78.6137 38.7013C78.6971 38.6715 78.7408 38.5821 78.713 38.4987C78.5621 38.0537 76.9709 39.1403 76.8457 40.7712L76.8179 41.1466Z" fill="#273454"/>
<path id="Vector_11" d="M79.799 42.4486C80.2758 42.3831 80.5559 41.7156 80.4248 40.9608C80.2936 40.2039 79.807 39.6437 79.3282 39.7013C78.0231 39.8503 78.766 42.5996 79.799 42.4486Z" fill="#273454"/>
<path id="Vector_12" d="M75.8496 37.5718C76.2529 36.4852 78.9922 35.782 80.0749 35.6111C80.2 35.5913 80.3271 35.6111 80.4384 35.6608C82.9751 36.7871 82.7288 36.6103 82.8996 36.7534C83.2075 37.0156 82.9831 37.691 82.5103 37.689C82.256 37.689 81.8885 37.4844 81.6581 37.4009C79.5405 36.6401 79.7848 36.6123 78.8929 36.7593C76.4793 37.1546 75.6331 38.1538 75.8496 37.5718Z" fill="#273454"/>
<path id="Vector_13" d="M87.7899 41.0672C90.9524 37.6564 94.5519 40.3858 94.7168 40.4295L94.6274 40.064C94.3255 38.8224 93.1932 37.6643 92.1026 37.4836C91.896 37.4458 91.8384 37.7656 92.049 37.7994C92.917 37.9424 93.8169 38.7907 94.1983 39.77C91.7371 38.4927 89.389 38.8681 87.5535 40.8487C87.4105 41.0056 87.6489 41.2201 87.7899 41.0672Z" fill="#273454"/>
<path id="Vector_14" d="M91.517 42.4008C90.9945 42.6471 90.2734 42.1604 89.9079 41.3142C89.5404 40.4659 89.6636 39.5819 90.184 39.3257C91.5964 38.6145 92.6552 41.8704 91.517 42.4008Z" fill="#273454"/>
<path id="Vector_15" d="M95.5173 36.3938C94.7902 35.1244 91.2344 34.8145 89.8498 34.8244C89.6909 34.8244 89.536 34.8761 89.4069 34.9595C86.4808 36.8864 86.7509 36.6163 86.5682 36.8288C86.2384 37.2182 86.6595 38.0147 87.2456 37.9154C87.5614 37.8598 87.9786 37.53 88.2487 37.3811C90.7279 35.9965 90.42 36.0104 91.5582 36.0084C94.6472 36.0044 95.9066 37.0731 95.5173 36.3938Z" fill="#273454"/>
<path id="Vector_16" d="M86.6771 50.1635C86.8797 50.1178 86.8181 49.806 86.6036 49.8517C85.1991 50.1774 81.9552 50.1993 81.4844 48.9359C81.2698 48.3598 81.6413 47.7539 82.1081 47.0785C83.4729 45.102 84.3946 42.8016 84.772 40.4278C84.8078 40.2212 84.4899 40.1675 84.4562 40.3781C84.0867 42.7043 83.1828 44.9589 81.8459 46.8958C81.4447 47.4738 80.8944 48.2684 81.1844 49.0491C81.7367 50.539 85.1038 50.5271 86.6771 50.1635Z" fill="#273454"/>
<path id="Vector_17" d="M89.6655 52.9539C89.7986 52.787 89.5463 52.5884 89.4152 52.7533C88.269 54.1915 86.2209 54.8808 84.445 54.4457C84.2344 54.3921 84.1649 54.706 84.3675 54.7556C86.2467 55.2244 88.4358 54.4974 89.6655 52.9539Z" fill="#273454"/>
<path id="Vector_18" d="M89.2008 55.0206C89.2763 54.8219 88.9763 54.7126 88.8989 54.9053C88.4579 56.0654 87.0534 56.5144 86.0264 55.8489C85.8456 55.7397 85.6768 56.0039 85.8556 56.1211C87.0435 56.8878 88.6784 56.3833 89.2008 55.0206Z" fill="#273454"/>
<path id="Vector_19" d="M99.5055 34.0677C98.9214 31.8885 98.8321 29.6975 99.6326 27.5521C99.9286 29.5445 100.223 31.5389 100.519 33.5314C100.765 35.1941 101.277 36.9144 101.297 38.581C101.303 39.1233 101.615 41.6481 102.587 40.2914C103.051 39.6438 102.833 37.9294 102.968 37.1408C103.365 34.8186 104.319 33.3725 106.665 33.299C107.571 33.2711 109.126 34.2842 110.008 34.4849C110.181 34.5246 109.011 27.8004 108.9 27.27C108.536 25.5457 108.534 24.0459 107.747 22.423C106.166 19.1572 103.625 16.3344 100.443 14.5684C95.0975 11.6026 87.811 11.8231 82.7932 15.2696C80.0936 17.125 77.5906 19.7035 75.8643 22.4845C74.0825 25.363 73.3773 29.5326 72.972 32.852C72.972 32.8738 78.5183 32.7169 79.146 32.711C78.9454 32.7129 80.1353 27.1965 80.2465 26.6899C80.2465 27.1051 80.0201 32.5997 80.6239 32.6315C83.7924 32.8023 87.5647 33.005 90.7332 33.1738C90.61 30.9946 90.2763 28.9942 90.2306 26.8012C90.9338 28.9942 91.639 31.1893 92.3442 33.3844C92.3005 33.2473 96.0331 33.4897 96.3668 33.5612C97.4038 33.7777 98.4864 33.8353 99.5055 34.0677Z" fill="#4A4B67"/>
<path id="Vector_20" d="M107.782 33.3732C108.734 33.5083 110.12 34.5969 111.125 35.3041C111.495 35.5623 111.672 35.9556 111.596 36.349C111.264 38.0712 110.994 39.9326 110.287 41.5694C109.779 42.7494 110.142 44.4121 109.407 45.4967C108.881 46.2754 108.146 46.78 107.222 47.2945C106.638 47.6203 105.879 47.656 105.245 47.3898C103.537 46.6727 101.934 46.037 102.142 44.1975C102.403 41.9131 102.937 39.5214 103.41 37.2568C103.559 36.5496 103.485 35.3478 104.085 34.7896C104.639 34.2711 106.92 33.252 107.782 33.3732Z" fill="#FEC3A5"/>
<path id="Vector_21" d="M104.362 42.2501C104.265 42.9573 104.533 43.6764 104.964 44.2962C106.418 46.384 108.637 43.4897 108.055 41.9223C107.368 40.0749 104.613 40.4305 104.362 42.2501Z" fill="#FCAA86"/>
<path id="Vector_22" d="M106.449 44.0091C107.792 44.0091 108.308 42.6027 108.662 41.3115C108.9 40.4255 109.135 39.7462 108.849 37.706C108.785 37.2372 108.684 36.7446 108.382 36.3215C107.774 35.4593 106.525 35.2825 105.962 36.0255C105.815 36.2201 105.762 36.4446 105.815 36.6532C105.867 36.8618 106.177 36.7803 106.127 36.5757C106.09 36.4287 106.155 36.3016 106.217 36.2201C106.676 35.6182 107.673 35.8745 108.122 36.5062C108.382 36.8737 108.473 37.3226 108.531 37.7497C108.813 39.7501 108.555 40.4474 108.362 41.1903C108.132 42.0346 107.722 43.5364 106.638 43.6754C106.262 43.7231 105.855 43.6218 105.573 43.4092C105.406 43.2801 105.21 43.5383 105.38 43.6655C105.672 43.886 106.06 44.0091 106.449 44.0091Z" fill="#FF9B78"/>
<path id="Vector_23" d="M108.115 127.819C94.2948 115.219 87.8744 100.948 86.76 85.7277C86.3349 79.8596 87.2606 73.7313 89.4358 68.2606C92.4334 69.4982 95.868 69.6908 98.9927 68.8029C98.9927 68.9042 103.482 66.6535 103.881 66.3436C105.091 65.4179 105.787 64.0135 106.905 63.0997C108.345 61.9297 110.88 61.439 112.604 60.7835C114.7 59.973 116.798 59.1744 118.895 58.3639C118.921 58.35 118.947 58.3381 118.973 58.3381C123.802 56.4708 127.769 55.1319 132.634 56.9336C135.862 58.1196 140.88 63.203 140.88 63.203L148.508 69.9766C152.558 73.5729 156.321 77.4802 159.762 81.663C165.086 88.1334 167.996 96.252 167.996 104.631V119.504V140.981V146.18C167.996 152.056 163.378 156.894 157.508 157.168L153.76 157.342H140.635H133.863H128.353C122.514 145.825 113.055 132.347 108.115 127.819Z" fill="#FF90B0"/>
<path id="Vector_24" d="M108.243 102.694C112.603 90.4536 114.945 77.2971 121.775 66.2403C123.177 63.9618 124.786 61.7747 126.818 60.0365C129.85 57.4084 131.747 57.3488 132.633 56.9336C127.768 55.1319 123.801 56.4708 118.972 58.3381C110.38 71.3714 109.242 87.3407 108.243 102.694Z" fill="#F16997"/>
<path id="Vector_25" d="M88.1078 110.759C90.72 110.757 93.7117 111.957 96.3636 112.253C104.965 113.217 107.168 112.378 109.355 112.728C110.102 112.847 110.782 113.326 111.538 113.356C114.103 113.455 115.607 110.539 116.503 108.588C121.87 96.8898 125.255 84.2816 126.467 71.4668C118.938 82.3587 113.549 94.7265 110.7 107.659C102.057 107.138 90.4062 110.757 88.1078 110.759Z" fill="#F16997"/>
<path id="Vector_26" d="M117.851 138.425C118.894 140.151 119.857 141.913 120.771 143.715C121.737 145.634 122.007 147.873 124.18 148.298C126.252 148.709 128.914 147.887 131.27 147.152C133.455 141.117 135.656 135.08 137.843 129.043C141.007 120.314 142.332 110.829 147.426 102.873C142.203 111.059 137.521 119.053 130.29 125.592C128.258 127.42 127.178 129.736 125.197 131.604C122.766 133.908 120.308 136.147 117.851 138.425Z" fill="#F16997"/>
<path id="Vector_27" d="M104.753 12.3238C114.6 17.6456 120.009 27.2979 123.845 37.7747C126.767 45.7583 128.279 53.0606 128.283 53.0706C128.44 53.5155 129.243 56.1615 129.566 56.1834C128.823 56.1337 126.026 56.7992 125.74 56.9323C120.969 59.1671 119.541 65.4007 117.699 69.9259C111.593 84.9457 107.685 101.714 113.871 117.037C111.279 116.91 108.651 117.909 106.795 119.727C103.051 117.238 100.568 113.245 97.7847 109.763C94.8208 105.377 92.6834 100.281 92.592 94.9874C92.5006 89.6676 94.4633 84.6159 96.7477 79.906C98.7362 75.8099 98.5177 72.7864 98.7858 68.295C99.1772 61.7138 104.396 57.6832 107.056 52.0475C111.98 41.6145 111.563 27.8263 101.283 20.8061C97.586 18.2793 93.033 17.0517 88.5694 17.3079C85.1725 17.5026 84.3242 16.9801 79.9123 19.2924C79.2567 19.6361 77.5225 20.2916 77.163 20.9471C79.5766 16.5312 83.0827 13.186 87.9178 11.1796C89.2229 10.6373 90.4506 9.7414 91.857 9.52288C96.1538 8.85344 100.721 10.1447 104.753 12.3238Z" fill="#4A4B67"/>
<path id="Vector_28" d="M108.563 9.88564C109.834 10.1657 111.139 9.10297 111.411 7.82963C111.683 6.55431 111.105 5.21542 110.211 4.26787C109.318 3.32032 108.142 2.69656 106.974 2.1185C105.2 1.24047 103.358 0.420052 101.393 0.165782C99.4308 -0.0884875 97.3053 0.294904 95.8095 1.59208C94.3136 2.88925 93.6482 5.21344 94.5937 6.9536C93.7415 5.60875 91.7749 5.12206 90.3943 5.91466C87.9788 7.29924 88.9561 10.1479 90.1977 11.9516C90.8174 12.8495 91.6915 13.5388 92.5814 14.1685C95.9883 16.5702 99.8599 18.3063 103.918 19.2499C105.7 19.6631 107.563 19.9253 109.353 19.5479C113.008 18.7791 115.114 14.9969 112.585 11.7867C111.632 10.5769 110.096 9.85386 108.563 9.88564Z" fill="#4A4B67"/>
<path id="Vector_29" d="M17.3964 96.4821L35.08 123.405L49.1562 124.658L29.6033 96.214C29.0371 95.3876 28.1194 94.8711 27.1202 94.8135L18.6439 94.3188C17.4977 94.2533 16.7666 95.5227 17.3964 96.4821Z" fill="#444B68"/>
<path id="Vector_30" d="M22.7961 116.345C24.4131 117.309 26.0341 118.268 27.6511 119.228C26.5704 118.85 25.5573 119.641 25.6129 120.586C25.7063 122.023 28.9125 124.13 30.3388 124.851C29.8481 124.774 29.2542 125.088 29.1111 125.567C28.9204 126.21 29.3714 126.892 29.9812 127.243C30.7897 127.706 31.2426 127.68 37.4921 128.399C40.3268 128.743 42.5874 128.894 46.3558 127.893C49.562 127.048 52.653 125.616 55.6406 124.208L55.4519 114.287C48.9283 104.591 46.7551 104.903 34.2641 102.992L37.3729 107.517C37.7841 107.662 38.1933 107.805 38.6045 107.948C40.0745 108.461 41.2446 108.139 42.5239 110.787C44.2144 114.287 37.5775 113.004 36.038 112.797C28.8966 111.838 26.0301 109.587 24.3436 109.381C22.7186 109.194 21.7691 110.374 22.4346 111.727C22.6789 112.227 23.0881 112.641 23.4993 113.04C22.524 112.196 20.9785 112.797 20.8732 113.975C20.7858 115.014 21.8505 115.783 22.7961 116.345Z" fill="#FEC3A5"/>
<path id="Vector_31" d="M46.3558 127.892C49.562 127.048 52.653 125.616 55.6406 124.207L55.4519 114.287C54.3355 112.626 53.1774 110.93 51.8286 109.422C47.941 114.694 46.028 121.357 46.3558 127.892Z" fill="#FCAA86"/>
<path id="Vector_32" d="M64.0139 107.844C64.296 116.297 67.6074 120.449 73.8291 124.32C76.0818 125.697 78.5252 126.944 81.1493 127.048C85.5235 127.214 89.5124 124.551 91.3121 120.625C92.663 117.667 93.0265 114.058 93.2549 110.752C93.8767 102.727 96.1512 93.184 94.0654 87.8404C93.539 86.4757 91.8008 85.4069 90.3984 85.0216C90.8116 83.194 91.0559 81.1996 91.6598 79.4356C91.8525 78.8814 93.0761 75.0713 93.384 74.9422C89.5879 76.4876 84.5978 74.8667 81.1374 72.6517C79.9534 71.9048 77.9471 71.4936 77.6253 70.1289C76.6996 72.9358 76.2486 75.2143 75.3229 78.0073C70.756 76.8353 68.6066 86.4121 67.8359 89.5269C66.3679 95.397 63.847 101.793 64.0139 107.844Z" fill="#FF90B0"/>
<path id="Vector_33" d="M64.0645 109.002C64.2056 110.958 64.5671 112.901 65.2346 114.729C72.08 116.608 79.2194 117.432 86.2953 118.243C89.1538 118.578 91.9786 118.517 93.1387 115.861C94.0545 113.779 93.0096 112.464 91.1959 111.125C83.6493 105.599 73.2242 104.304 64.0645 109.002Z" fill="#F16997"/>
<path id="Vector_34" d="M78.2525 72.3691C79.3411 73.7875 81.6117 75.2058 84.4285 76.064C91.0932 78.0942 95.7594 75.7402 92.3009 72.1923C89.5377 69.3417 83.0717 67.4963 79.508 68.5948C77.4857 69.2086 76.9613 70.6945 78.2525 72.3691Z" fill="#F16997"/>
<path id="Vector_35" d="M71.9688 46.7866C73.8102 55.1835 78.3434 59.0134 79.6227 61.3714C81.4304 64.6789 79.6704 67.9049 78.252 72.3686C80.5742 75.394 87.2985 77.5414 91.1741 76.5779C92.5746 72.1183 93.8737 66.6733 90.312 63.9022C89.1499 62.9983 87.7693 62.4421 86.4761 61.7369C79.9385 58.1811 77.6362 51.3575 74.6048 45.0286C74.3605 44.5141 74.0546 43.9479 73.5063 43.787C72.8528 43.5924 72.1595 44.1208 71.931 44.7644C71.7046 45.41 71.8257 46.1192 71.9688 46.7866Z" fill="#FEC3A5"/>
<path id="Vector_36" d="M89.0574 76.9709C90.3765 76.9709 91.1691 76.7346 91.3022 76.7107C92.6033 72.2133 94.1826 66.7108 90.4122 63.7747C89.2501 62.8709 87.8854 62.3186 86.5525 61.5956C80.0766 58.0735 77.7424 51.1884 74.7488 44.9588C74.4866 44.4105 74.1568 43.8126 73.5549 43.6338C72.812 43.4093 72.0293 44.0092 71.781 44.7124C71.5386 45.4018 71.6698 46.1626 71.8128 46.8221C73.688 55.3898 78.102 58.9138 79.4846 61.4446C81.2506 64.6885 79.4965 67.9126 78.1 72.3186L78.0742 72.3981L78.1258 72.4656C80.2156 75.1871 85.4083 76.9709 89.0574 76.9709ZM91.0499 76.4425C87.2776 77.3186 80.7678 75.2824 78.4298 72.3365C79.8938 67.7656 81.5664 64.6011 79.7647 61.2916C79.0297 59.9408 77.8259 58.6913 76.7512 57.1776C74.5402 54.0747 72.9391 50.4693 72.1266 46.7545C71.9856 46.1089 71.8684 45.4296 72.0849 44.8197C72.2776 44.2655 72.8974 43.7689 73.4635 43.9417C73.9403 44.0827 74.2184 44.5893 74.4608 45.0958C77.51 51.4685 79.866 58.3258 86.3995 61.8757C87.6729 62.5729 89.0614 63.1311 90.2136 64.027C93.6999 66.7425 92.4146 72.0643 91.0499 76.4425Z" fill="#FF9B78"/>
<path id="Vector_37" d="M83.5313 127.913C90.9369 125.692 92.5638 119.033 93.2174 112.168C95.043 93.032 95.4959 91.125 94.6496 88.7134C94.0696 87.0587 92.5201 85.4437 90.631 85.4417C93.2869 75.1636 93.4756 75.3305 93.1737 75.251C92.8697 75.1716 93.1379 75.0424 90.2098 85.7834C90.4343 85.7695 90.4721 85.7615 90.627 85.7615C92.3672 85.7615 93.8054 87.2712 94.3477 88.8187C95.1463 91.0972 94.8185 92.0328 92.8995 112.138C92.2559 118.89 90.6628 125.442 83.4399 127.605C80.1225 128.602 76.366 128.145 73.3843 126.395C71.1098 125.06 69.0677 122.853 67.3136 119.84C65.6589 116.997 65.1663 113.058 64.2723 109.806C64.2147 109.593 63.9088 109.693 63.9624 109.891C64.8504 113.119 65.351 117.106 67.0355 120.001C68.8194 123.064 70.8992 125.308 73.2214 126.671C76.2846 128.469 80.1404 128.93 83.5313 127.913Z" fill="#F16997"/>
<path id="Vector_38" d="M126.26 71.6016C107.271 123.886 114.75 103.588 112.935 108.431C112.442 109.742 112.398 111.222 112.531 112.597C107.923 112.932 102.879 112.893 98.2644 112.507C93.326 112.096 88.5465 110.7 83.7412 109.488C80.1 108.57 77.9546 107.843 73.3956 108.008C72.1104 108.054 70.4576 108.705 69.3273 109.321C68.197 109.935 67.3269 111.182 67.5017 112.458C65.0266 112.215 63.0003 111.649 60.5848 111.117C58.4195 110.64 56.2523 110.167 54.1009 109.629C51.6615 115.666 50.7378 122.309 51.439 128.78C51.4251 128.651 65.7794 130.165 65.9086 130.181C64.8895 130.978 64.5458 132.521 65.1299 133.675C66.3178 136.021 71.2959 136.285 73.485 136.699C85.3562 138.931 97.3943 140.413 109.502 141.124C121.018 141.798 124.416 139.547 130.292 129.73C134.295 123.044 138.298 116.355 142.303 109.669L126.26 71.6016Z" fill="#FF90B0"/>
<path id="Vector_39" d="M113.021 112.695L113.006 112.375C113.008 112.375 112.99 112.375 112.98 112.375C110.717 112.375 116.166 100.702 122.996 80.9943C127.33 68.4914 127.378 69.0515 127.114 68.9502C127.03 68.9224 126.939 68.9622 126.907 69.0436C125.457 72.9153 124.05 76.9697 122.694 80.889C115.113 102.752 111.075 110.472 112.408 112.401C87.7355 113.475 84.0923 107.897 75.9338 107.756C72.9005 107.705 67.7813 108.217 67.3562 112.273C64.442 111.813 61.0431 110.859 58.1528 110.416C57.9363 110.39 57.9005 110.702 58.1051 110.734C60.4234 111.088 61.9311 111.57 67.6482 112.643C67.7773 112.53 67.1099 107.929 75.9279 108.078C84.0188 108.215 87.6481 113.849 113.021 112.695Z" fill="#F16997"/>
<path id="Vector_40" d="M117.387 121.564C116.779 118.406 115.434 115.384 113.494 112.824C113.367 112.653 113.11 112.849 113.239 113.016C115.148 115.537 116.473 118.515 117.071 121.626C117.113 121.834 117.427 121.775 117.387 121.564Z" fill="#F16997"/>
<path id="Vector_41" d="M39.0138 117.335C39.2204 117.335 39.2304 117.028 39.0238 117.016C34.8561 116.775 28.7397 115.812 23.265 112.586C23.0902 112.477 22.9154 112.751 23.1021 112.862C28.6325 116.12 34.8025 117.093 39.0059 117.335C39.0079 117.335 39.0118 117.335 39.0138 117.335Z" fill="#FF9B78"/>
<path id="Vector_42" d="M42.417 121.192C42.6414 121.16 42.566 120.828 42.3733 120.874C37.5382 121.569 32.5461 121.082 27.9335 119.469C27.7329 119.4 27.6256 119.7 27.8282 119.771C32.4846 121.402 37.5282 121.891 42.417 121.192Z" fill="#FF9B78"/>
<path id="Vector_43" d="M42.1613 124.382C42.346 124.285 42.207 124.005 42.0123 124.096C38.4803 125.922 34.1935 126.073 30.5424 124.503C30.3377 124.424 30.2245 124.716 30.4132 124.799C34.0942 126.379 38.4784 126.283 42.1613 124.382Z" fill="#FF9B78"/>
<path id="Vector_44" d="M99.4335 71.1198C98.631 68.6784 99.0144 65.6907 100.514 62.707C103.136 57.4965 108.293 53.4182 109.205 47.4429C109.235 47.2303 108.919 47.1926 108.887 47.3952C107.991 53.2772 102.858 57.3316 100.228 62.562C98.6886 65.6212 98.2993 68.6983 99.1276 71.2211C99.1952 71.4237 99.4991 71.3204 99.4335 71.1198Z" fill="#273454"/>
<path id="Vector_45" d="M101.962 106.971C100.268 103.997 98.5157 100.922 97.5344 97.589C96.4498 93.9001 96.5312 90.3086 97.7609 87.4739C98.6151 85.5092 100.033 83.7949 100.786 81.7667C102.443 77.3031 100.604 73.0063 102.719 67.3389C105.56 59.7008 113.426 51.3814 114.177 43.4931C114.586 39.2142 113.627 34.8062 111.474 31.0855C109.996 28.5289 108.168 26.9755 106.188 26.5941C105.971 26.5623 105.925 26.8682 106.128 26.91C108.51 27.3688 110.2 29.5222 111.195 31.2445C113.315 34.9115 114.261 39.25 113.859 43.4613C113.424 48.0362 111.215 51.3596 108.988 55.2432C106.686 59.2578 104.072 62.7819 102.417 67.2256C100.3 72.905 102.101 77.3011 100.486 81.6554C99.7454 83.6519 98.329 85.3662 97.4689 87.3467C96.2055 90.249 96.122 93.92 97.2265 97.6784C98.2178 101.049 99.9798 104.14 101.686 107.13C101.787 107.315 102.07 107.156 101.962 106.971Z" fill="#273454"/>
<path id="Vector_46" d="M120.788 55.0293C120.792 55.0293 120.794 55.0293 120.794 55.0293C120.884 55.0253 120.953 54.9518 120.949 54.8624C120.649 47.7706 119.644 40.6749 117.957 33.7739C117.103 30.2817 115.81 26.4616 112.687 24.6182C112.507 24.5109 112.342 24.7851 112.524 24.8943C115.544 26.6782 116.807 30.4227 117.646 33.8494C119.326 40.7306 120.331 47.8044 120.629 54.8763C120.631 54.9617 120.703 55.0293 120.788 55.0293Z" fill="#273454"/>
<path id="Vector_47" d="M78.2523 72.3697C80.5745 75.3951 87.2987 77.5425 91.1744 76.579C92.0683 73.7284 92.2352 72.4809 92.3047 72.179C87.7497 72.3637 83.2026 72.0797 78.878 70.4766C78.6595 71.1222 78.447 71.7559 78.2523 72.3697Z" fill="#FCAA86"/>
<path id="Vector_48" d="M34.265 102.992L37.3738 107.517C37.7851 107.662 38.1943 107.805 38.6055 107.948C35.1947 103.06 35.8939 104.015 35.2702 103.151C34.9364 103.099 34.5967 103.044 34.265 102.992Z" fill="#FCAA86"/>
<path id="Vector_49" d="M2.69321 12.4622V43.9242C2.69321 46.5364 4.8108 48.654 7.42104 48.654H62.9909C65.6012 48.654 67.7188 46.5364 67.7188 43.9242V12.4622C67.7188 9.85001 65.6012 7.73242 62.9909 7.73242H7.42104C4.8108 7.73242 2.69321 9.85001 2.69321 12.4622Z" fill="#B4D5FF"/>
<path id="Vector_50" d="M48.5204 37.7119L48.1668 39.7779C48.133 39.9745 48.3396 40.1255 48.5164 40.0321L50.3718 39.0568C50.4413 39.021 50.5248 39.021 50.5963 39.0568L52.4497 40.0321C52.6265 40.1255 52.835 39.9745 52.8013 39.7779L52.4457 37.7119C52.4318 37.6344 52.4596 37.553 52.5152 37.4994L54.017 36.0373C54.16 35.8963 54.0806 35.6539 53.8819 35.6241L51.808 35.3222C51.7306 35.3103 51.663 35.2606 51.6273 35.1891L50.6996 33.3099C50.6122 33.1311 50.3559 33.1311 50.2665 33.3099L49.3388 35.1891C49.3051 35.2606 49.2355 35.3103 49.1581 35.3222L47.0862 35.6241C46.8875 35.6539 46.8081 35.8963 46.9511 36.0373L48.4509 37.4994C48.5085 37.553 48.5343 37.6344 48.5204 37.7119Z" fill="#FFBD64"/>
<path id="Vector_51" d="M38.4149 37.7119L38.0613 39.7779C38.0276 39.9745 38.2342 40.1255 38.411 40.0321L40.2663 39.0568C40.3359 39.021 40.4193 39.021 40.4908 39.0568L42.3442 40.0321C42.521 40.1255 42.7296 39.9745 42.6958 39.7779L42.3402 37.7119C42.3263 37.6344 42.3541 37.553 42.4098 37.4994L43.9115 36.0373C44.0546 35.8963 43.9751 35.6539 43.7765 35.6241L41.7026 35.3222C41.6251 35.3103 41.5575 35.2606 41.5218 35.1891L40.5941 33.3099C40.5067 33.1311 40.2504 33.1311 40.1611 33.3099L39.2334 35.1891C39.1996 35.2606 39.1321 35.3103 39.0526 35.3222L36.9807 35.6241C36.782 35.6539 36.7026 35.8963 36.8456 36.0373L38.3454 37.4994C38.403 37.553 38.4288 37.6344 38.4149 37.7119Z" fill="#FFBD64"/>
<path id="Vector_52" d="M28.3095 37.7119L27.9559 39.7779C27.9221 39.9745 28.1287 40.1255 28.3055 40.0321L30.1609 39.0568C30.2304 39.021 30.3138 39.021 30.3853 39.0568L32.2387 40.0321C32.4155 40.1255 32.6241 39.9745 32.5903 39.7779L32.2348 37.7119C32.2208 37.6344 32.2487 37.553 32.3043 37.4994L33.8061 36.0373C33.9491 35.8963 33.8696 35.6539 33.671 35.6241L31.5991 35.3222C31.5196 35.3103 31.4521 35.2606 31.4163 35.1891L30.4886 33.3099C30.4012 33.1311 30.145 33.1311 30.0556 33.3099L29.1279 35.1891C29.0941 35.2606 29.0266 35.3103 28.9471 35.3222L26.8752 35.6241C26.6766 35.6539 26.5971 35.8963 26.7401 36.0373L28.2399 37.4994C28.2975 37.553 28.3234 37.6344 28.3095 37.7119Z" fill="#FFBD64"/>
<path id="Vector_53" d="M17.9637 37.7119L17.6101 39.7779C17.5763 39.9745 17.7829 40.1255 17.9617 40.0321L19.8151 39.0568C19.8846 39.021 19.97 39.021 20.0396 39.0568L21.8929 40.0321C22.0697 40.1255 22.2783 39.9745 22.2445 39.7779L21.889 37.7119C21.877 37.6344 21.9029 37.553 21.9585 37.4994L23.4603 36.0373C23.6033 35.8963 23.5238 35.6539 23.3272 35.6241L21.2533 35.3222C21.1738 35.3103 21.1063 35.2606 21.0705 35.1891L20.1428 33.3099C20.0554 33.1311 19.7992 33.1311 19.7098 33.3099L18.7841 35.1891C18.7483 35.2606 18.6808 35.3103 18.6013 35.3222L16.5294 35.6241C16.3308 35.6539 16.2513 35.8963 16.3944 36.0373L17.8941 37.4994C17.9518 37.553 17.9776 37.6344 17.9637 37.7119Z" fill="#ABBAEB"/>
<path id="Vector_54" d="M48.8747 18.4591C48.8747 17.6188 49.5541 16.9395 50.3924 16.9395H58.6581C59.4964 16.9395 60.1758 17.6188 60.1758 18.4591C60.1758 19.2974 59.4964 19.9768 58.6581 19.9768H50.3924C49.5541 19.9768 48.8747 19.2974 48.8747 18.4591Z" fill="#92D3BD"/>
<path id="Vector_55" d="M11.7537 16.9395H43.8632C44.7015 16.9395 45.3809 17.6188 45.3809 18.4591C45.3809 19.2974 44.7015 19.9768 43.8632 19.9768H11.7537C10.9154 19.9768 10.236 19.2974 10.236 18.4591C10.236 17.6188 10.9154 16.9395 11.7537 16.9395Z" fill="white"/>
<path id="Vector_56" d="M35.7142 26.004C35.7142 25.1657 36.3936 24.4844 37.2319 24.4844H58.6581C59.4964 24.4844 60.1758 25.1657 60.1758 26.004C60.1758 26.8423 59.4964 27.5237 58.6581 27.5237H37.2319C35.7579 27.5237 35.6526 25.867 35.7142 26.004Z" fill="white"/>
<path id="Vector_57" d="M11.7528 24.4844H29.8397C30.68 24.4844 31.3594 25.1657 31.3594 26.004C31.3594 26.8423 30.68 27.5237 29.8397 27.5237H11.7528C10.9145 27.5237 10.2351 26.8423 10.2351 26.004C10.2351 25.1657 10.9145 24.4844 11.7528 24.4844Z" fill="#98A0FF"/>
<path id="Vector_58" d="M112.286 17.9137C106.143 12.435 97.9114 9.61819 89.6973 10.1545C89.4808 10.1685 89.5165 10.5002 89.7212 10.4744C97.8459 9.92213 105.994 12.731 112.073 18.1541C112.232 18.2952 112.445 18.0548 112.286 17.9137Z" fill="#273454"/>
<path id="Vector_59" d="M105.879 9.09283C107.051 9.09283 108.137 8.05589 108.308 6.77461C108.453 5.67608 107.979 4.4683 107.045 3.5426C105.684 2.19775 102.631 1.00586 100.877 1.00586C96.596 1.00586 96.0715 5.95419 99.2241 7.07457C99.4287 7.14409 99.53 6.84413 99.3333 6.77262C96.5145 5.76945 96.9198 1.32767 100.95 1.32767C102.581 1.34952 105.525 2.48976 106.818 3.76906C109.033 5.96015 107.816 8.77301 105.879 8.77301C105.875 8.77301 105.871 8.77301 105.867 8.77301H105.865C105.658 8.77301 105.642 9.08687 105.879 9.09283Z" fill="#273454"/>
<path id="Vector_60" d="M100.102 27.4054C100.396 23.0233 102.889 18.8497 106.608 16.5136C106.788 16.4003 106.612 16.1262 106.437 16.2434C102.635 18.6312 100.084 22.9001 99.7802 27.3836C99.7683 27.6001 100.086 27.616 100.102 27.4054Z" fill="#273454"/>
<path id="Vector_61" d="M90.502 27.6115C89.0936 21.0342 93.1539 14.4848 99.6815 12.836C99.8901 12.7844 99.8067 12.4685 99.604 12.5241C92.9175 14.2146 88.74 20.925 90.1881 27.679C90.2338 27.8896 90.5457 27.82 90.502 27.6115Z" fill="#273454"/>
<path id="Vector_62" d="M80.7327 26.8427C81.2928 19.5284 86.4418 13.3266 93.5415 11.4435C93.7461 11.3898 93.6647 11.0779 93.4601 11.1336C86.2392 13.0505 80.9869 19.3556 80.4128 26.8169C80.3969 27.0294 80.7148 27.0532 80.7327 26.8427Z" fill="#273454"/>
<path id="Vector_63" d="M87.6305 31.8353C85.5745 25.9195 87.6027 18.7523 92.4517 14.7912C92.6146 14.6562 92.412 14.4078 92.2471 14.5429C87.2988 18.5854 85.2308 25.9036 87.3266 31.9405C87.3941 32.1412 87.7 32.0379 87.6305 31.8353Z" fill="#273454"/>
<path id="Vector_64" d="M97.8448 32.5382C96.4701 26.839 99.0307 20.3769 103.937 17.1727C104.114 17.0575 103.943 16.7854 103.763 16.9046C98.7467 20.1803 96.1265 26.7853 97.5349 32.6117C97.5846 32.8203 97.8964 32.7428 97.8448 32.5382Z" fill="#273454"/>
<path id="Vector_65" d="M72.8137 30.6136C72.6906 21.9029 78.4951 14.2013 86.8999 11.9268C87.1105 11.8692 87.0111 11.5573 86.8165 11.6169C78.2706 13.9312 72.3668 21.7619 72.4939 30.6196C72.4959 30.8322 72.8177 30.8282 72.8137 30.6136Z" fill="#444B68"/>
<path id="Vector_66" d="M108.445 108.803C108.455 108.803 108.465 108.801 108.473 108.801C108.56 108.785 108.618 108.702 108.604 108.614C105.811 92.909 108.876 76.0339 117.015 62.3192C117.122 62.1404 116.848 61.9715 116.739 62.1563C108.56 75.9365 105.481 92.8892 108.288 108.67C108.302 108.747 108.369 108.803 108.445 108.803Z" fill="#273454"/>
<path id="Vector_67" d="M66.268 130.428C70.0363 124.671 70.5627 117.756 67.6406 112.383C67.5433 112.194 67.2592 112.349 67.3605 112.536C70.225 117.806 69.7026 124.594 65.9998 130.251C65.8826 130.43 66.1547 130.605 66.268 130.428Z" fill="#F16997"/>
<path id="Vector_68" d="M123.743 134.122C123.822 133.923 123.516 133.81 123.445 134.007C122.301 136.982 118.544 138.665 115.57 137.525C115.364 137.455 115.262 137.753 115.457 137.827C118.62 139.025 122.551 137.229 123.743 134.122Z" fill="#F16997"/>
<path id="Vector_69" d="M68.9963 134.561C76.0324 128.788 76.4297 118.075 69.8306 111.798C69.6697 111.653 69.4592 111.885 69.6101 112.03C76.0642 118.172 75.6868 128.659 68.7937 134.313C68.6288 134.448 68.8314 134.692 68.9963 134.561Z" fill="#F16997"/>
<path id="Vector_70" d="M90.4207 85.7691C90.6332 85.7691 90.6332 85.4473 90.4207 85.4473C87.2343 85.4473 84.2248 85.4473 81.4596 84.3448C78.4283 83.1331 76.2233 80.7692 75.7108 78.1768C75.669 77.9722 75.3552 78.0278 75.3949 78.2384C75.9293 80.938 78.2078 83.3913 81.3424 84.6428C84.1632 85.7691 87.2026 85.7691 90.4207 85.7691Z" fill="#F16997"/>
<path id="Vector_71" d="M89.3658 78.8895C89.4234 78.6849 89.1195 78.5975 89.0579 78.8021C87.5085 84.551 87.2403 84.7039 87.5363 84.7854C87.8323 84.8589 87.6694 84.6841 89.3658 78.8895Z" fill="#F16997"/>
<path id="Vector_72" d="M66.73 106.214C67.0359 98.1071 69.2846 90.0757 73.2278 82.9899C73.3291 82.8092 73.057 82.6443 72.9477 82.835C68.9787 89.9645 66.7181 98.0435 66.4082 106.202C66.4003 106.413 66.7201 106.428 66.73 106.214Z" fill="#F16997"/>
<path id="Vector_73" d="M118.183 107.891L129.057 74.321C129.124 74.1203 128.816 74.023 128.753 74.2236C117.267 109.921 117.682 107.898 117.98 107.996C117.996 108 118.155 107.974 118.183 107.891Z" fill="#F16997"/>
<path id="Vector_74" d="M19.0469 97.2966C19.2277 97.8588 19.8296 98.3196 20.3898 98.3196C20.952 98.3196 21.2599 97.8588 21.0791 97.2966C20.8983 96.7284 20.2964 96.2676 19.7343 96.2676C19.1721 96.2676 18.8662 96.7284 19.0469 97.2966Z" fill="white"/>
<path id="Vector_75" d="M20.6571 99.8903C20.8359 100.453 21.4378 100.913 21.9999 100.913C22.5621 100.913 22.868 100.453 22.6892 99.8903C22.5065 99.3222 21.9046 98.8613 21.3444 98.8613C20.7822 98.8613 20.4743 99.3222 20.6571 99.8903Z" fill="white"/>
</g>
</svg>
