<svg width="72" height="72" viewBox="0 0 72 72" fill="none" xmlns="http://www.w3.org/2000/svg">
<g id="Group 298">
<rect id="Rectangle 384" width="72" height="72" fill="#FFF3E5"/>
<g id="Group 294">
<g id="Clip path group">
<mask id="mask0_4577_23554" style="mask-type:luminance" maskUnits="userSpaceOnUse" x="13" y="15" width="41" height="42">
<g id="1f079c51e3">
<path id="Vector" d="M13.5 15.7949H53.9529V56.2063H13.5V15.7949Z" fill="white"/>
</g>
</mask>
<g mask="url(#mask0_4577_23554)">
<g id="Group">
<path id="Vector_2" d="M33.7057 56.2044C22.571 56.2044 13.5122 47.1406 13.5122 35.9987C13.5122 24.8574 22.5703 15.793 33.7057 15.793C38.9312 15.793 43.8877 17.7835 47.662 21.3969C51.4242 24.9986 53.6308 29.8418 53.8752 35.0344C53.8943 35.4391 53.5822 35.7819 53.1776 35.8011C52.7704 35.8199 52.4306 35.5077 52.4114 35.1029C51.9412 25.097 43.7245 17.26 33.7057 17.26C23.3792 17.26 14.9774 25.6662 14.9774 35.9994C14.9774 46.3319 23.3784 54.7388 33.7057 54.7388C36.7385 54.7388 39.6332 54.0351 42.3097 52.648C42.6683 52.4619 43.1109 52.6023 43.297 52.9621C43.4831 53.3222 43.3427 53.7642 42.983 53.9503C40.137 55.4244 36.9294 56.2044 33.7057 56.2044Z" fill="#F89429"/>
</g>
</g>
</g>
<g id="Clip path group_2">
<mask id="mask1_4577_23554" style="mask-type:luminance" maskUnits="userSpaceOnUse" x="32" y="15" width="3" height="6">
<g id="1f29ce6ef8">
<path id="Vector_3" d="M32.915 15.7949H34.5188V20.1762H32.915V15.7949Z" fill="white"/>
</g>
</mask>
<g mask="url(#mask1_4577_23554)">
<g id="Group_2">
<path id="Vector_4" d="M33.7051 20.1499C33.3005 20.1499 32.9722 19.8215 32.9722 19.4168V16.5261C32.9722 16.1214 33.3005 15.793 33.7051 15.793C34.1094 15.793 34.4377 16.1214 34.4377 16.5261V19.416C34.4377 19.8215 34.1094 20.1499 33.7051 20.1499Z" fill="#F89429"/>
</g>
</g>
</g>
<path id="Vector_5" d="M38.368 19.3195C38.3049 19.3195 38.2412 19.311 38.1782 19.2948C37.7868 19.1898 37.555 18.7876 37.66 18.3961L38.0341 17.0006C38.1391 16.6091 38.5408 16.3773 38.9318 16.4823C39.3231 16.5874 39.5549 16.9892 39.4499 17.3806L39.0759 18.7762C38.9882 19.1028 38.6923 19.3195 38.368 19.3195Z" fill="#F89429"/>
<path id="Vector_6" d="M42.7122 21.1203C42.5884 21.1203 42.4623 21.0886 42.347 21.0219C41.9965 20.8195 41.8764 20.3706 42.0787 20.0204L42.801 18.769C43.0033 18.4184 43.4518 18.2983 43.8019 18.5006C44.152 18.703 44.2721 19.1516 44.0698 19.5021L43.3475 20.7536C43.2123 20.9884 42.9661 21.1203 42.7122 21.1203Z" fill="#F89429"/>
<path id="Vector_7" d="M49.3078 27.7183C49.055 27.7183 48.8077 27.5867 48.6725 27.3519C48.4702 27.0014 48.5903 26.5528 48.9404 26.3504L50.1915 25.6276C50.5416 25.4252 50.9901 25.5454 51.192 25.8959C51.3943 26.2465 51.2742 26.6951 50.9241 26.8974L49.6734 27.6199C49.5588 27.6859 49.4327 27.7183 49.3078 27.7183Z" fill="#F89429"/>
<path id="Vector_8" d="M51.1071 32.0657C50.7835 32.0657 50.488 31.8497 50.4003 31.5223C50.2953 31.1309 50.527 30.7291 50.918 30.624L52.3132 30.2499C52.7035 30.1448 53.1059 30.3767 53.2109 30.7682C53.316 31.1596 53.0842 31.5614 52.6928 31.6665L51.298 32.0406C51.2331 32.0568 51.1701 32.0657 51.1071 32.0657Z" fill="#F89429"/>
<path id="Vector_9" d="M38.7413 55.5413C38.4177 55.5413 38.1218 55.3253 38.0341 54.998L37.66 53.6013C37.555 53.2099 37.7868 52.8081 38.1782 52.703C38.5692 52.598 38.9708 52.8298 39.0759 53.2213L39.4499 54.6172C39.5549 55.0087 39.3231 55.4105 38.9318 55.5155C38.868 55.5325 38.8039 55.5413 38.7413 55.5413Z" fill="#F89429"/>
<path id="Vector_10" d="M28.6687 55.5404C28.6057 55.5404 28.542 55.5327 28.479 55.5154C28.0876 55.4103 27.8558 55.0085 27.9608 54.6171L28.3349 53.2215C28.4399 52.83 28.8416 52.5982 29.2326 52.7029C29.6239 52.8079 29.8557 53.2101 29.7507 53.6015L29.3767 54.9971C29.2889 55.3244 28.9923 55.5404 28.6687 55.5404Z" fill="#F89429"/>
<path id="Vector_11" d="M23.9749 53.5946C23.8507 53.5946 23.7251 53.5633 23.6093 53.4965C23.2593 53.2942 23.1391 52.8452 23.3414 52.495L24.0637 51.2432C24.266 50.893 24.7134 50.7729 25.0646 50.9752C25.4147 51.1776 25.5348 51.6262 25.3325 51.9764L24.6102 53.2282C24.4739 53.463 24.2277 53.5946 23.9749 53.5946Z" fill="#F89429"/>
<path id="Vector_12" d="M16.8524 46.4683C16.5996 46.4683 16.3523 46.3364 16.2167 46.1016C16.0147 45.7514 16.1349 45.3024 16.4849 45.1001L17.7357 44.3776C18.0858 44.1752 18.5343 44.2954 18.7366 44.6456C18.9389 44.9961 18.8187 45.4447 18.4687 45.6471L17.2176 46.3699C17.1033 46.4355 16.9773 46.4683 16.8524 46.4683Z" fill="#F89429"/>
<path id="Vector_13" d="M14.9079 41.7707C14.5847 41.7707 14.2888 41.5551 14.2011 41.2274C14.096 40.8363 14.3278 40.4342 14.7192 40.3291L16.114 39.955C16.505 39.8499 16.9067 40.0818 17.0117 40.4732C17.1167 40.8647 16.8849 41.2669 16.4936 41.3715L15.0988 41.746C15.0339 41.763 14.9701 41.7707 14.9079 41.7707Z" fill="#F89429"/>
<path id="Vector_14" d="M16.3038 32.0674C16.2408 32.0674 16.177 32.0585 16.114 32.0423L14.7192 31.6682C14.3278 31.5631 14.096 31.1613 14.2011 30.7699C14.3061 30.3784 14.7078 30.1473 15.0988 30.2516L16.4936 30.6257C16.8849 30.7308 17.1167 31.1326 17.0117 31.524C16.9229 31.8514 16.6274 32.0674 16.3038 32.0674Z" fill="#F89429"/>
<path id="Vector_15" d="M18.1021 27.7183C17.9783 27.7183 17.8522 27.687 17.7369 27.6199L16.4862 26.8974C16.1357 26.6951 16.0156 26.2465 16.2179 25.8959C16.4202 25.5454 16.8687 25.4252 17.2188 25.6276L18.4695 26.3504C18.8196 26.5528 18.9401 27.0014 18.7378 27.3519C18.6011 27.5867 18.3549 27.7183 18.1021 27.7183Z" fill="#F89429"/>
<path id="Vector_16" d="M24.698 21.1203C24.4452 21.1203 24.1983 20.9884 24.0627 20.7536L23.3404 19.5021C23.1381 19.1516 23.2586 18.703 23.6086 18.5006C23.9587 18.2983 24.4072 18.4184 24.6095 18.769L25.3318 20.0204C25.5338 20.3706 25.4136 20.8195 25.0635 21.0219C24.9482 21.0886 24.8222 21.1203 24.698 21.1203Z" fill="#F89429"/>
<path id="Vector_17" d="M29.0417 19.3195C28.7185 19.3195 28.4226 19.1039 28.3349 18.7762L27.9608 17.3806C27.8558 16.9892 28.0876 16.5874 28.479 16.4823C28.8699 16.3773 29.2716 16.6091 29.3767 17.0006L29.7507 18.3961C29.8557 18.7876 29.6239 19.1898 29.2326 19.2948C29.1688 19.311 29.1047 19.3195 29.0417 19.3195Z" fill="#F89429"/>
<path id="Vector_18" d="M45.4235 25.0063C45.2356 25.0063 45.0487 24.9348 44.9054 24.7914C44.6194 24.505 44.6194 24.0412 44.9054 23.7548L46.9481 21.7109C47.2344 21.4245 47.698 21.4245 47.9843 21.7109C48.2707 21.9973 48.2707 22.461 47.9843 22.7474L45.9417 24.7914C45.7987 24.9348 45.6107 25.0063 45.4235 25.0063Z" fill="#F89429"/>
<path id="Vector_19" d="M19.9448 50.5004C19.7569 50.5004 19.5696 50.4289 19.4267 50.2859C19.1403 49.9995 19.1403 49.5354 19.4267 49.249L21.4693 47.205C21.7557 46.9186 22.2193 46.9186 22.5056 47.205C22.7919 47.4915 22.7919 47.9555 22.5056 48.2419L20.4629 50.2859C20.3196 50.4289 20.1327 50.5004 19.9448 50.5004Z" fill="#F89429"/>
<g id="Clip path group_3">
<mask id="mask2_4577_23554" style="mask-type:luminance" maskUnits="userSpaceOnUse" x="13" y="35" width="5" height="2">
<g id="2514969854">
<path id="Vector_20" d="M13.5 35.1797H17.9152V36.7839H13.5V35.1797Z" fill="white"/>
</g>
</mask>
<g mask="url(#mask2_4577_23554)">
<g id="Group_3">
<path id="Vector_21" d="M17.1329 36.73H14.2448C13.8402 36.73 13.5122 36.4016 13.5122 35.9968C13.5122 35.5921 13.8402 35.2637 14.2448 35.2637H17.1329C17.5375 35.2637 17.8655 35.5921 17.8655 35.9968C17.8655 36.4016 17.5382 36.73 17.1329 36.73Z" fill="#F89429"/>
</g>
</g>
</g>
<path id="Vector_22" d="M21.9875 25.0063C21.7995 25.0063 21.6123 24.9348 21.4693 24.7914L19.4267 22.7474C19.1403 22.461 19.1403 21.9973 19.4267 21.7109C19.713 21.4245 20.1766 21.4245 20.4629 21.7109L22.5056 23.7548C22.7919 24.0412 22.7919 24.505 22.5056 24.7914C22.3622 24.9348 22.1743 25.0063 21.9875 25.0063Z" fill="#F89429"/>
<path id="Vector_23" d="M33.7058 38.4463C32.3567 38.4463 31.2593 37.3486 31.2593 35.9987C31.2593 34.6489 32.3567 33.5508 33.7058 33.5508C35.0546 33.5508 36.152 34.6489 36.152 35.9987C36.152 37.3486 35.0546 38.4463 33.7058 38.4463ZM33.7058 35.0171C33.1649 35.0171 32.7249 35.4572 32.7249 35.9987C32.7249 36.5398 33.1649 36.98 33.7058 36.98C34.2468 36.98 34.6865 36.5398 34.6865 35.9987C34.6865 35.4572 34.2468 35.0171 33.7058 35.0171Z" fill="#F89429"/>
<path id="Vector_24" d="M31.991 36.732H21.1592C20.7546 36.732 20.4263 36.4035 20.4263 35.9988C20.4263 35.5941 20.7546 35.2656 21.1592 35.2656H31.9921C32.3963 35.2656 32.7247 35.5941 32.7247 35.9988C32.7236 36.4035 32.3956 36.732 31.991 36.732Z" fill="#F89429"/>
<g id="Clip path group_4">
<mask id="mask3_4577_23554" style="mask-type:luminance" maskUnits="userSpaceOnUse" x="32" y="51" width="3" height="6">
<g id="983f1c8321">
<path id="Vector_25" d="M32.915 51.7871H34.5188V56.2053H32.915V51.7871Z" fill="white"/>
</g>
</mask>
<g mask="url(#mask3_4577_23554)">
<g id="Group_4">
<path id="Vector_26" d="M33.7056 56.2039C33.301 56.2039 32.9727 55.8755 32.9727 55.4707V52.5808C32.9727 52.1761 33.301 51.8477 33.7056 51.8477C34.1099 51.8477 34.4382 52.1761 34.4382 52.5808V55.4707C34.4382 55.8755 34.1099 56.2039 33.7056 56.2039Z" fill="#F89429"/>
</g>
</g>
</g>
<path id="Vector_27" d="M33.7056 35.0173C33.301 35.0173 32.9727 34.6889 32.9727 34.2841V25.1765C32.9727 24.7718 33.301 24.4434 33.7056 24.4434C34.1099 24.4434 34.4382 24.7718 34.4382 25.1765V34.2841C34.4382 34.6889 34.1099 35.0173 33.7056 35.0173Z" fill="#F89429"/>
<path id="Vector_28" d="M53.3097 49.5295H41.1116C40.83 49.5295 40.5732 49.3681 40.4512 49.1141C40.3292 48.8601 40.3635 48.5586 40.54 48.3382C41.9109 46.6253 42.3888 44.8983 41.9997 43.0597C41.6286 41.3029 42.2171 39.8005 43.658 38.8284C45.6166 37.5081 48.8043 37.5073 50.7629 38.8284C52.2038 39.8005 52.7923 41.3029 52.4212 43.0597C52.0328 44.8983 52.5101 46.6253 53.8809 48.3382C54.0574 48.5575 54.0921 48.8594 53.9697 49.1141C53.8478 49.3692 53.592 49.5295 53.3097 49.5295ZM42.5101 48.0632H51.912C50.9118 46.3665 50.6008 44.5861 50.9881 42.756C51.2343 41.5904 50.8834 40.6778 49.9445 40.0448C48.4627 39.0452 45.9594 39.0452 44.4776 40.0448C43.5386 40.6778 43.1874 41.5904 43.4336 42.756C43.8201 44.5861 43.5091 46.3665 42.5101 48.0632Z" fill="#F89429"/>
<path id="Vector_29" d="M47.2917 52.0022H47.1067C45.5582 52.0022 44.2979 50.7412 44.2979 49.1919V48.7957C44.2979 48.3909 44.6262 48.0625 45.0305 48.0625C45.4351 48.0625 45.7634 48.3909 45.7634 48.7957V49.1919C45.7634 49.9325 46.3663 50.5359 47.1067 50.5359H47.2917C48.0324 50.5359 48.6353 49.9325 48.6353 49.1919V48.7957C48.6353 48.3909 48.9632 48.0625 49.3679 48.0625C49.7725 48.0625 50.1008 48.3909 50.1008 48.7957V49.1919C50.1008 50.7423 48.8405 52.0022 47.2917 52.0022Z" fill="#F89429"/>
<path id="Vector_30" d="M45.606 39.4998C45.606 39.4998 45.6049 39.4998 45.6038 39.4998C45.1996 39.4987 44.8723 39.1703 44.873 38.7648C44.8771 36.7953 45.7472 35.5723 47.142 35.5723H47.2783C48.6743 35.5723 49.5436 36.796 49.5473 38.7655C49.5484 39.1703 49.2211 39.4998 48.8165 39.5009C48.8165 39.5009 48.8154 39.5009 48.8147 39.5009C48.4108 39.5009 48.0828 39.1732 48.0817 38.7696C48.081 38.4802 48.0397 37.0397 47.2783 37.0397H47.142C46.3806 37.0397 46.3386 38.4802 46.3386 38.7696C46.3375 39.1732 46.0095 39.4998 45.606 39.4998Z" fill="#F89429"/>
<g id="Clip path group_5">
<mask id="mask4_4577_23554" style="mask-type:luminance" maskUnits="userSpaceOnUse" x="35" y="32" width="24" height="24">
<g id="a612948d1d">
<path id="Vector_31" d="M35.9341 32.4453H58.5V55.0927H35.9341V32.4453Z" fill="white"/>
</g>
</mask>
<g mask="url(#mask4_4577_23554)">
<g id="Group_5">
<path id="Vector_32" d="M47.2106 55.0689C40.9938 55.0689 35.937 50.0079 35.937 43.7884C35.937 37.5688 40.9949 32.5078 47.2106 32.5078C53.4267 32.5078 58.4845 37.5688 58.4845 43.7884C58.4845 50.0079 53.4267 55.0689 47.2106 55.0689ZM47.2106 33.9741C41.8019 33.9741 37.4026 38.3772 37.4026 43.7884C37.4026 49.2003 41.803 53.6026 47.2106 53.6026C52.6185 53.6026 57.019 49.1996 57.019 43.7884C57.019 38.3764 52.6185 33.9741 47.2106 33.9741Z" fill="#F89429"/>
</g>
</g>
</g>
</g>
</g>
</svg>
