<svg width="72" height="72" viewBox="0 0 72 72" fill="none" xmlns="http://www.w3.org/2000/svg">
<g id="Group 290">
<rect id="Rectangle 384" width="72" height="72" fill="#EFEFFF"/>
<g id="Clip path group">
<mask id="mask0_4560_21711" style="mask-type:luminance" maskUnits="userSpaceOnUse" x="11" y="13" width="50" height="46">
<g id="4e53f185ed">
<path id="Vector" d="M11.2764 13.8438H60.7236V58.1597H11.2764V13.8438Z" fill="white" stroke="white" stroke-width="0.5"/>
</g>
</mask>
<g mask="url(#mask0_4560_21711)">
<g id="Group">
<path id="Vector_2" d="M45.428 28.1514C45.3575 28.0032 45.2312 27.8902 45.0769 27.8356C44.9226 27.7809 44.7526 27.7894 44.6056 27.8623L41.9537 29.1488C41.6488 29.297 41.5212 29.6626 41.667 29.9688L41.7812 30.2105C41.1118 30.1777 40.2299 30.0186 39.3661 29.8619C37.9448 29.6055 36.3328 29.314 34.9868 29.4245C33.3918 29.5557 32.3762 30.2397 31.9583 31.4569C31.4651 31.5213 30.888 31.4545 30.4604 31.2249C30.5297 31.0803 30.5406 30.9151 30.4896 30.762C30.4374 30.6065 30.3256 30.4778 30.1786 30.4049L27.5376 29.0953C27.2339 28.9459 26.8671 29.0686 26.7152 29.3735L23.1437 36.5372C23.0708 36.6842 23.0587 36.853 23.1109 37.0085C23.1631 37.164 23.2749 37.2916 23.4219 37.3657L26.0629 38.6752C26.1491 38.7178 26.2426 38.7384 26.335 38.7384C26.5123 38.7384 26.6848 38.6594 26.8015 38.5222L27.1926 38.7627L27.0347 39.0761C26.6314 39.8803 26.9533 40.8655 27.7563 41.2713C27.913 41.3514 28.0819 41.4037 28.2531 41.428C28.1924 42.0779 28.524 42.7302 29.1387 43.0424C29.3683 43.1591 29.6174 43.2186 29.8676 43.2186C30.0401 43.2186 30.2138 43.1907 30.3815 43.1348C30.4507 43.1129 30.5175 43.0838 30.5819 43.0522C30.7289 43.2538 30.9221 43.4239 31.1589 43.5442C31.3885 43.6596 31.6376 43.7203 31.8878 43.7203C32.0603 43.7203 32.2328 43.6924 32.4017 43.6365C32.477 43.611 32.5499 43.5794 32.6204 43.5442C32.7661 43.7397 32.9569 43.9074 33.1889 44.0252C33.4185 44.1406 33.6675 44.2002 33.919 44.2002C34.0915 44.2002 34.264 44.1722 34.4316 44.1175C34.7256 44.0191 34.9807 43.8442 35.1726 43.6122L35.6586 43.9122C35.9173 44.0738 36.2101 44.1564 36.5101 44.1564C36.6353 44.1564 36.7628 44.1418 36.8892 44.1127C37.3131 44.0119 37.6727 43.7519 37.9011 43.3802C37.9497 43.3012 37.9886 43.2186 38.0226 43.1336C38.1234 43.153 38.2254 43.1627 38.3275 43.1627C38.4538 43.1627 38.5814 43.1481 38.7065 43.1178C39.1317 43.0169 39.4913 42.757 39.7197 42.3865C39.8023 42.2504 39.863 42.1071 39.9031 41.9601C40.0501 42.0038 40.2031 42.0269 40.3586 42.0269C40.485 42.0269 40.6113 42.0123 40.7377 41.9819C41.1616 41.8811 41.5212 41.6211 41.7496 41.2506C41.8249 41.1279 41.8796 40.9979 41.9197 40.8667C42.125 40.9579 42.3448 41.0052 42.5696 41.0052C42.6923 41.0052 42.8162 40.9919 42.9389 40.9627C43.3677 40.8631 43.7321 40.6019 43.9617 40.2265C44.3687 39.5645 44.2472 38.7226 43.7139 38.2003C44.0188 37.6305 44.4392 37.2223 44.9907 36.9684L45.1 37.1993C45.1717 37.3475 45.2968 37.4617 45.4523 37.5163C45.5179 37.5394 45.5871 37.5515 45.6552 37.5515C45.7475 37.5515 45.8386 37.5309 45.9236 37.4896L48.5756 36.2019C48.8792 36.0537 49.008 35.688 48.8622 35.3819L45.428 28.1514ZM26.058 37.2977L24.5201 36.5335L27.5413 30.4717L29.0804 31.2358L26.058 37.2977ZM28.1317 39.6301L28.5435 38.8101C28.5921 38.7165 28.6735 38.6449 28.7767 38.6109C28.8775 38.5768 28.9857 38.5853 29.0804 38.6327C29.2736 38.7311 29.355 38.9789 29.2578 39.1733L28.846 39.9933C28.7974 40.0868 28.716 40.1585 28.6127 40.1925C28.5107 40.2265 28.4038 40.218 28.309 40.1707C28.1159 40.0735 28.0345 39.8257 28.1317 39.6301ZM29.9964 41.9637C29.8943 41.9965 29.7862 41.9892 29.6915 41.9418C29.4983 41.8434 29.4169 41.5956 29.5153 41.4013L30.7836 38.8745C30.8309 38.7797 30.9136 38.7093 31.0168 38.6752C31.1189 38.6412 31.227 38.6497 31.3205 38.6959C31.5149 38.7955 31.5951 39.0421 31.4979 39.2365L31.2889 39.6532C31.2889 39.6532 31.2889 39.6532 31.2889 39.6544L30.2296 41.7633C30.181 41.858 30.0972 41.9297 29.9964 41.9637ZM32.0166 42.463C31.9146 42.497 31.8064 42.4885 31.7117 42.4423C31.5185 42.3427 31.4371 42.0961 31.5355 41.9018L32.3847 40.2083C32.4321 40.1136 32.5159 40.0431 32.6179 40.0091C32.7188 39.9751 32.8281 39.9836 32.9216 40.031C33.116 40.1294 33.1962 40.3772 33.099 40.5715L32.8803 41.0077L32.4685 41.8276L32.2486 42.2638C32.2012 42.3597 32.1186 42.4302 32.0166 42.463ZM34.2798 42.7448C34.2324 42.8396 34.1498 42.91 34.0465 42.9441C33.9445 42.9781 33.8364 42.9696 33.7428 42.9222C33.5485 42.8238 33.4683 42.576 33.5655 42.3828L33.9773 41.5616C34.0247 41.4669 34.1073 41.3964 34.2093 41.3624C34.3114 41.3284 34.4195 41.3369 34.5142 41.3842C34.7074 41.4826 34.7888 41.7305 34.6916 41.9236L34.2798 42.7448ZM42.9158 39.5815C42.8587 39.6738 42.7688 39.7394 42.6619 39.7637C42.6024 39.7771 42.4858 39.7892 42.3703 39.7163L41.2296 38.9935L41.2236 39.0045C41.2211 39.0032 41.2199 39.002 41.2175 39.002L40.4546 38.5282C40.1655 38.3485 39.7865 38.4384 39.6079 38.7287C39.4305 39.0178 39.5192 39.398 39.8083 39.5766L40.5712 40.0504C40.7559 40.1658 40.8166 40.4197 40.7012 40.6043C40.6465 40.6942 40.5579 40.7586 40.4534 40.7829C40.3489 40.8072 40.242 40.7914 40.1521 40.7343L38.7089 39.8402C38.4198 39.6604 38.0408 39.7503 37.8634 40.0407C37.6849 40.3298 37.7735 40.71 38.0627 40.8886L38.5437 41.1874C38.5437 41.1874 38.5449 41.1874 38.5449 41.1887C38.7296 41.3053 38.7855 41.5531 38.6713 41.7402C38.6154 41.8301 38.5279 41.8945 38.4235 41.9188C38.319 41.9431 38.2121 41.9273 38.1222 41.8702L37.1491 41.2664C36.86 41.0878 36.481 41.1777 36.3024 41.4669C36.1238 41.7572 36.2137 42.1362 36.5029 42.316L36.9086 42.5687C36.9025 42.627 36.8831 42.6829 36.8527 42.7339C36.7981 42.8238 36.7094 42.8882 36.6037 42.9125C36.4992 42.9368 36.3923 42.921 36.3024 42.8651L35.763 42.5298L35.7873 42.4812C36.1907 41.677 35.8687 40.6918 35.0657 40.2861C34.8374 40.1707 34.592 40.1136 34.3429 40.1124C34.2567 39.6204 33.9518 39.1733 33.4744 38.9316C33.2411 38.8149 32.9909 38.7566 32.7382 38.7578C32.6471 38.2744 32.3434 37.837 31.8732 37.5977C31.4857 37.4021 31.0448 37.3693 30.6305 37.5054C30.4131 37.5783 30.2187 37.6925 30.0523 37.8407C29.9332 37.7192 29.7935 37.6147 29.6332 37.5345C29.2468 37.339 28.8047 37.3049 28.3904 37.4422C28.196 37.5066 28.0187 37.6062 27.8656 37.7326L27.3688 37.4276L29.9077 32.3328C30.373 32.5757 30.9026 32.6936 31.4141 32.7142L30.2102 34.551C30.1154 34.6968 30.0851 34.8766 30.13 35.043C30.1725 35.2118 30.2855 35.354 30.4386 35.4354C31.0265 35.7451 31.5744 35.9018 32.0895 35.9018C33.0638 35.9018 33.9214 35.3418 34.705 34.2048L42.787 39.0324C42.9705 39.1454 43.0288 39.3968 42.9158 39.5815ZM42.6789 37.5297L39.7257 35.7658C40.1412 35.5629 40.4923 35.2288 40.7522 34.7684C40.9211 34.472 40.8178 34.0967 40.5214 33.9278C40.2262 33.7589 39.8508 33.8634 39.6832 34.1598C39.1912 35.0296 38.2716 34.766 37.7675 34.5328C37.7043 34.5036 37.6375 34.4866 37.5707 34.4793L34.8216 32.8369C34.8204 32.8369 34.8204 32.8357 34.8191 32.8357C34.5276 32.6632 34.1498 32.7604 33.9773 33.0531C33.1196 34.5133 32.4381 34.8304 31.6424 34.6057L32.5548 33.2123C32.7965 32.8442 32.952 32.4883 33.0577 32.0558C33.5108 30.2081 35.9732 30.4996 39.1438 31.0742C40.3987 31.3014 41.5115 31.5018 42.3594 31.4338L44.4586 35.8545C43.7006 36.208 43.1053 36.768 42.6789 37.5297ZM45.9431 36.1096L43.0385 29.9918L44.5837 29.2411L47.4895 35.36L45.9431 36.1096ZM55.5837 30.8714C54.8731 30.8714 54.1964 31.0183 53.5817 31.2832L48.8574 23.065C50.0953 22.1272 50.8983 20.6403 50.8983 18.9663C50.8983 16.1395 48.6071 13.8398 45.7924 13.8398C43.1843 13.8398 41.028 15.8127 40.7243 18.3504H31.2768C30.9731 15.8127 28.8156 13.8398 26.2086 13.8398C23.3939 13.8398 21.1028 16.1395 21.1028 18.9663C21.1028 20.6403 21.9058 22.1272 23.1437 23.065L18.4193 31.2832C17.8046 31.0183 17.1268 30.8714 16.4173 30.8714C13.6026 30.8714 11.3115 33.1722 11.3115 35.999C11.3115 38.8259 13.6026 41.1255 16.4173 41.1255C17.1268 41.1255 17.8046 40.9785 18.4193 40.7149L23.1437 48.933C21.9058 49.8696 21.1028 51.3578 21.1028 53.0305C21.1028 55.8574 23.3939 58.1582 26.2086 58.1582C28.8156 58.1582 30.9731 56.1842 31.2768 53.6477H40.7243C41.028 56.1842 43.1843 58.1582 45.7924 58.1582C48.6071 58.1582 50.8983 55.8574 50.8983 53.0305C50.8983 51.3578 50.0953 49.8696 48.8574 48.933L53.5817 40.7149C54.1964 40.9785 54.8731 41.1255 55.5837 41.1255C58.3984 41.1255 60.6895 38.8259 60.6895 35.999C60.6895 33.1722 58.3984 30.8714 55.5837 30.8714ZM45.7924 15.0741C47.9305 15.0741 49.6689 16.821 49.6689 18.9675C49.6689 21.1153 47.9293 22.8622 45.7924 22.8622C43.6544 22.8622 41.916 21.1153 41.916 18.9675C41.9148 16.8198 43.6544 15.0741 45.7924 15.0741ZM22.3322 18.9675C22.3322 16.821 24.0718 15.0741 26.2086 15.0741C28.3455 15.0741 30.0851 16.821 30.0851 18.9675C30.0851 21.1153 28.3455 22.8622 26.2086 22.8622C24.0718 22.8622 22.3322 21.1153 22.3322 18.9675ZM12.5409 35.999C12.5409 33.8513 14.2805 32.1044 16.4173 32.1044C18.5554 32.1044 20.2938 33.8513 20.2938 35.999C20.2938 38.1456 18.5542 39.8937 16.4173 39.8937C14.2805 39.8937 12.5409 38.1456 12.5409 35.999ZM26.2086 56.924C24.0706 56.924 22.3322 55.1771 22.3322 53.0293C22.3322 50.8828 24.0718 49.1359 26.2086 49.1359C28.3455 49.1359 30.0851 50.8828 30.0851 53.0293C30.0851 55.1771 28.3467 56.924 26.2086 56.924ZM49.6689 53.0293C49.6689 55.1771 47.9293 56.924 45.7924 56.924C43.6544 56.924 41.916 55.1771 41.916 53.0293C41.916 50.8828 43.6556 49.1359 45.7924 49.1359C47.9293 49.1359 49.6689 50.8828 49.6689 53.0293ZM47.7932 48.3135C47.1785 48.0499 46.5019 47.9029 45.7924 47.9029C43.1843 47.9029 41.028 49.8757 40.7243 52.4134H31.2768C30.9731 49.8757 28.8156 47.9029 26.2086 47.9029C25.4992 47.9029 24.8213 48.0499 24.2066 48.3135L19.4823 40.0953C20.7214 39.1587 21.5231 37.6718 21.5231 35.9978C21.5231 34.3238 20.7214 32.8369 19.4823 31.9003L24.2066 23.6822C24.8213 23.9458 25.4992 24.0928 26.2086 24.0928C28.8156 24.0928 30.9731 22.1199 31.2768 19.5822H40.7243C41.028 22.1199 43.1843 24.0928 45.7924 24.0928C46.5019 24.0928 47.1785 23.9458 47.7932 23.6822L52.5188 31.9003C51.2797 32.8369 50.4779 34.3238 50.4779 35.9978C50.4779 37.6718 51.2797 39.1587 52.5188 40.0953L47.7932 48.3135ZM55.5837 39.8937C53.4457 39.8937 51.7073 38.1456 51.7073 35.999C51.7073 33.8513 53.4469 32.1044 55.5837 32.1044C57.7218 32.1044 59.4602 33.8513 59.4602 35.999C59.4602 38.1456 57.7206 39.8937 55.5837 39.8937Z" fill="#1B1BA6" stroke="#1B1BA6" stroke-width="0.5"/>
</g>
</g>
</g>
</g>
</svg>
