<svg width="65" height="64" viewBox="0 0 65 64" fill="none" xmlns="http://www.w3.org/2000/svg">
<g id="Group 280">
<rect id="Rectangle 380" x="0.666504" width="64" height="64" rx="32" fill="#E6FFE0"/>
<g id="Clip path group">
<mask id="mask0_4573_85" style="mask-type:luminance" maskUnits="userSpaceOnUse" x="13" y="14" width="39" height="36">
<g id="4e53f185ed">
<path id="Vector" d="M13.6665 14.9727H51.6665V49.0293H13.6665V14.9727Z" fill="white"/>
</g>
</mask>
<g mask="url(#mask0_4573_85)">
<g id="Group">
<path id="Vector_2" d="M39.9117 25.971C39.8576 25.8571 39.7605 25.7703 39.6419 25.7283C39.5234 25.6863 39.3927 25.6928 39.2797 25.7488L37.2417 26.7375C37.0074 26.8514 36.9094 27.1324 37.0214 27.3677L37.1091 27.5534C36.5947 27.5282 35.917 27.4059 35.2532 27.2855C34.1609 27.0885 32.9221 26.8645 31.8877 26.9494C30.6619 27.0502 29.8814 27.5758 29.5603 28.5113C29.1813 28.5608 28.7378 28.5094 28.4092 28.333C28.4624 28.2219 28.4708 28.0949 28.4316 27.9773C28.3915 27.8578 28.3056 27.7588 28.1926 27.7028L26.163 26.6964C25.9297 26.5816 25.6477 26.6759 25.531 26.9102L22.7863 32.4155C22.7303 32.5284 22.721 32.6582 22.7611 32.7777C22.8013 32.8972 22.8871 32.9952 23.0001 33.0522L25.0297 34.0585C25.096 34.0912 25.1679 34.1071 25.2388 34.1071C25.3751 34.1071 25.5077 34.0464 25.5973 33.9409L25.8979 34.1258L25.7765 34.3666C25.4666 34.9846 25.714 35.7418 26.3311 36.0536C26.4515 36.1152 26.5813 36.1553 26.7129 36.174C26.6662 36.6735 26.9211 37.1748 27.3935 37.4147C27.5699 37.5043 27.7613 37.5501 27.9536 37.5501C28.0862 37.5501 28.2197 37.5286 28.3485 37.4857C28.4017 37.4689 28.4531 37.4465 28.5026 37.4222C28.6155 37.5772 28.764 37.7079 28.946 37.8003C29.1225 37.889 29.3138 37.9357 29.5062 37.9357C29.6387 37.9357 29.7713 37.9142 29.9011 37.8712C29.9589 37.8516 30.0149 37.8274 30.0691 37.8003C30.1811 37.9506 30.3277 38.0794 30.506 38.17C30.6825 38.2587 30.8738 38.3044 31.0671 38.3044C31.1996 38.3044 31.3322 38.2829 31.461 38.2409C31.687 38.1653 31.883 38.0309 32.0305 37.8526L32.404 38.0832C32.6028 38.2073 32.8278 38.2708 33.0584 38.2708C33.1545 38.2708 33.2526 38.2596 33.3497 38.2372C33.6755 38.1597 33.9518 37.9599 34.1273 37.6743C34.1647 37.6136 34.1945 37.5501 34.2207 37.4847C34.2982 37.4997 34.3766 37.5072 34.455 37.5072C34.5521 37.5072 34.6501 37.4959 34.7463 37.4726C35.073 37.3951 35.3494 37.1953 35.5249 36.9106C35.5884 36.806 35.635 36.6959 35.6658 36.5829C35.7788 36.6165 35.8964 36.6343 36.0159 36.6343C36.113 36.6343 36.2101 36.6231 36.3072 36.5997C36.633 36.5222 36.9094 36.3225 37.0849 36.0377C37.1427 35.9434 37.1848 35.8435 37.2156 35.7427C37.3733 35.8127 37.5423 35.8491 37.715 35.8491C37.8093 35.8491 37.9045 35.8389 37.9988 35.8165C38.3284 35.7399 38.6085 35.5392 38.7849 35.2507C39.0976 34.7419 39.0043 34.095 38.5944 33.6935C38.8288 33.2557 39.1518 32.942 39.5756 32.7469L39.6597 32.9243C39.7147 33.0382 39.8109 33.1259 39.9304 33.1679C39.9808 33.1857 40.034 33.195 40.0863 33.195C40.1572 33.195 40.2273 33.1791 40.2926 33.1474L42.3306 32.1578C42.564 32.0439 42.6629 31.7629 42.5509 31.5276L39.9117 25.971ZM25.026 32.9999L23.8441 32.4127L26.1658 27.7542L27.3487 28.3414L25.026 32.9999ZM26.6196 34.7923L26.936 34.1622C26.9734 34.0903 27.0359 34.0352 27.1153 34.0091C27.1928 33.9829 27.2759 33.9895 27.3487 34.0259C27.4971 34.1015 27.5597 34.2919 27.485 34.4413L27.1685 35.0715C27.1312 35.1434 27.0686 35.1984 26.9893 35.2246C26.9108 35.2507 26.8287 35.2442 26.7559 35.2078C26.6074 35.1331 26.5449 34.9426 26.6196 34.7923ZM28.0526 36.5857C27.9742 36.6109 27.8911 36.6053 27.8183 36.5689C27.6698 36.4933 27.6073 36.3028 27.6829 36.1535L28.6575 34.2117C28.6939 34.1388 28.7574 34.0847 28.8368 34.0585C28.9152 34.0324 28.9983 34.0389 29.0702 34.0744C29.2195 34.151 29.2812 34.3405 29.2065 34.4899L29.0459 34.8101C29.0459 34.8101 29.0459 34.8101 29.0459 34.811L28.2318 36.4317C28.1945 36.5045 28.1301 36.5596 28.0526 36.5857ZM29.6051 36.9694C29.5267 36.9956 29.4436 36.989 29.3708 36.9535C29.2223 36.877 29.1598 36.6875 29.2354 36.5381L29.888 35.2367C29.9244 35.1639 29.9888 35.1097 30.0672 35.0836C30.1447 35.0575 30.2287 35.064 30.3006 35.1004C30.45 35.176 30.5116 35.3665 30.4369 35.5158L30.2689 35.851L29.9524 36.4812L29.7834 36.8163C29.747 36.8901 29.6835 36.9442 29.6051 36.9694ZM31.3444 37.186C31.3079 37.2588 31.2445 37.313 31.1651 37.3391C31.0867 37.3652 31.0036 37.3587 30.9317 37.3223C30.7823 37.2467 30.7207 37.0562 30.7954 36.9078L31.1119 36.2767C31.1483 36.2039 31.2118 36.1497 31.2902 36.1236C31.3686 36.0975 31.4517 36.104 31.5245 36.1404C31.673 36.216 31.7355 36.4065 31.6608 36.5549L31.3444 37.186ZM37.9811 34.755C37.9372 34.8259 37.8681 34.8764 37.786 34.895C37.7402 34.9053 37.6506 34.9146 37.5619 34.8586L36.6853 34.3031L36.6806 34.3115C36.6788 34.3106 36.6778 34.3097 36.676 34.3097L36.0897 33.9456C35.8675 33.8074 35.5762 33.8765 35.439 34.0996C35.3027 34.3218 35.3708 34.614 35.593 34.7513L36.1793 35.1153C36.3212 35.204 36.3679 35.3992 36.2792 35.5411C36.2372 35.6101 36.169 35.6596 36.0888 35.6783C36.0085 35.697 35.9263 35.6848 35.8572 35.6409L34.7481 34.9538C34.526 34.8157 34.2347 34.8848 34.0984 35.1079C33.9611 35.3301 34.0293 35.6223 34.2515 35.7595L34.6212 35.9892C34.6212 35.9892 34.6221 35.9892 34.6221 35.9901C34.764 36.0797 34.807 36.2702 34.7192 36.4139C34.6763 36.483 34.609 36.5325 34.5288 36.5512C34.4485 36.5698 34.3663 36.5577 34.2972 36.5138L33.5494 36.0498C33.3273 35.9126 33.036 35.9817 32.8987 36.2039C32.7615 36.427 32.8306 36.7183 33.0528 36.8565L33.3646 37.0506C33.3599 37.0954 33.345 37.1384 33.3217 37.1776C33.2796 37.2467 33.2115 37.2962 33.1303 37.3148C33.05 37.3335 32.9678 37.3214 32.8987 37.2784L32.4842 37.0208L32.5029 36.9834C32.8129 36.3654 32.5655 35.6083 31.9484 35.2965C31.7729 35.2078 31.5843 35.1639 31.3929 35.163C31.3266 34.7849 31.0923 34.4413 30.7254 34.2555C30.5462 34.1659 30.3538 34.1211 30.1597 34.122C30.0896 33.7505 29.8562 33.4144 29.495 33.2305C29.1971 33.0802 28.8583 33.055 28.5399 33.1595C28.3728 33.2155 28.2234 33.3033 28.0955 33.4172C28.004 33.3238 27.8967 33.2435 27.7734 33.1819C27.4766 33.0316 27.1368 33.0055 26.8184 33.111C26.669 33.1605 26.5327 33.237 26.4151 33.3341L26.0333 33.0998L27.9844 29.1844C28.342 29.3711 28.749 29.4616 29.1421 29.4775L28.2169 30.8891C28.1441 31.0011 28.1207 31.1393 28.1553 31.2672C28.188 31.3969 28.2748 31.5062 28.3924 31.5687C28.8443 31.8068 29.2653 31.9272 29.6611 31.9272C30.4098 31.9272 31.0689 31.4968 31.6711 30.623L37.8821 34.333C38.0231 34.4198 38.0679 34.6131 37.9811 34.755ZM37.799 33.1782L35.5295 31.8226C35.8488 31.6667 36.1186 31.41 36.3184 31.0562C36.4482 30.8284 36.3688 30.5399 36.141 30.4102C35.9142 30.2804 35.6257 30.3607 35.4969 30.5885C35.1188 31.2569 34.4121 31.0543 34.0246 30.8751C33.9761 30.8527 33.9247 30.8396 33.8734 30.834L31.7607 29.5718C31.7598 29.5718 31.7598 29.5709 31.7589 29.5709C31.5348 29.4383 31.2445 29.513 31.1119 29.738C30.4528 30.8601 29.9291 31.1038 29.3176 30.9311L30.0187 29.8603C30.2045 29.5774 30.324 29.3039 30.4052 28.9715C30.7534 27.5516 32.6457 27.7756 35.0824 28.2172C36.0467 28.3918 36.9019 28.5458 37.5535 28.4935L39.1667 31.8908C38.5842 32.1625 38.1267 32.5928 37.799 33.1782ZM40.3075 32.0868L38.0754 27.3854L39.2629 26.8084L41.496 31.5108L40.3075 32.0868ZM47.7164 28.0613C47.1702 28.0613 46.6502 28.1743 46.1778 28.3778L42.5472 22.0622C43.4985 21.3415 44.1156 20.1988 44.1156 18.9123C44.1156 16.7399 42.3549 14.9727 40.1918 14.9727C38.1874 14.9727 36.5303 16.4888 36.2969 18.439H29.0366C28.8032 16.4888 27.1452 14.9727 25.1417 14.9727C22.9786 14.9727 21.2179 16.7399 21.2179 18.9123C21.2179 20.1988 21.835 21.3415 22.7863 22.0622L19.1557 28.3778C18.6833 28.1743 18.1624 28.0613 17.6172 28.0613C15.4541 28.0613 13.6934 29.8295 13.6934 32.0019C13.6934 34.1743 15.4541 35.9416 17.6172 35.9416C18.1624 35.9416 18.6833 35.8286 19.1557 35.626L22.7863 41.9416C21.835 42.6614 21.2179 43.805 21.2179 45.0905C21.2179 47.2629 22.9786 49.0311 25.1417 49.0311C27.1452 49.0311 28.8032 47.5141 29.0366 45.5648H36.2969C36.5303 47.5141 38.1874 49.0311 40.1918 49.0311C42.3549 49.0311 44.1156 47.2629 44.1156 45.0905C44.1156 43.805 43.4985 42.6614 42.5472 41.9416L46.1778 35.626C46.6502 35.8286 47.1702 35.9416 47.7164 35.9416C49.8794 35.9416 51.6401 34.1743 51.6401 32.0019C51.6401 29.8295 49.8794 28.0613 47.7164 28.0613ZM40.1918 15.9212C41.8349 15.9212 43.1708 17.2636 43.1708 18.9133C43.1708 20.5638 41.8339 21.9063 40.1918 21.9063C38.5487 21.9063 37.2128 20.5638 37.2128 18.9133C37.2118 17.2627 38.5487 15.9212 40.1918 15.9212ZM22.1627 18.9133C22.1627 17.2636 23.4996 15.9212 25.1417 15.9212C26.7839 15.9212 28.1207 17.2636 28.1207 18.9133C28.1207 20.5638 26.7839 21.9063 25.1417 21.9063C23.4996 21.9063 22.1627 20.5638 22.1627 18.9133ZM14.6381 32.0019C14.6381 30.3513 15.975 29.0089 17.6172 29.0089C19.2602 29.0089 20.5962 30.3513 20.5962 32.0019C20.5962 33.6515 19.2593 34.9949 17.6172 34.9949C15.975 34.9949 14.6381 33.6515 14.6381 32.0019ZM25.1417 48.0826C23.4986 48.0826 22.1627 46.7402 22.1627 45.0896C22.1627 43.44 23.4996 42.0975 25.1417 42.0975C26.7839 42.0975 28.1207 43.44 28.1207 45.0896C28.1207 46.7402 26.7848 48.0826 25.1417 48.0826ZM43.1708 45.0896C43.1708 46.7402 41.8339 48.0826 40.1918 48.0826C38.5487 48.0826 37.2128 46.7402 37.2128 45.0896C37.2128 43.44 38.5496 42.0975 40.1918 42.0975C41.8339 42.0975 43.1708 43.44 43.1708 45.0896ZM41.7294 41.4655C41.257 41.2629 40.737 41.1499 40.1918 41.1499C38.1874 41.1499 36.5303 42.6661 36.2969 44.6163H29.0366C28.8032 42.6661 27.1452 41.1499 25.1417 41.1499C24.5965 41.1499 24.0756 41.2629 23.6032 41.4655L19.9725 35.1499C20.9248 34.4301 21.5409 33.2874 21.5409 32.001C21.5409 30.7145 20.9248 29.5718 19.9725 28.852L23.6032 22.5364C24.0756 22.739 24.5965 22.852 25.1417 22.852C27.1452 22.852 28.8032 21.3359 29.0366 19.3856H36.2969C36.5303 21.3359 38.1874 22.852 40.1918 22.852C40.737 22.852 41.257 22.739 41.7294 22.5364L45.361 28.852C44.4087 29.5718 43.7926 30.7145 43.7926 32.001C43.7926 33.2874 44.4087 34.4301 45.361 35.1499L41.7294 41.4655ZM47.7164 34.9949C46.0733 34.9949 44.7373 33.6515 44.7373 32.0019C44.7373 30.3513 46.0742 29.0089 47.7164 29.0089C49.3594 29.0089 50.6954 30.3513 50.6954 32.0019C50.6954 33.6515 49.3585 34.9949 47.7164 34.9949Z" fill="#22AD01"/>
</g>
</g>
</g>
</g>
</svg>
