<svg width="64" height="64" viewBox="0 0 64 64" fill="none" xmlns="http://www.w3.org/2000/svg">
<g id="Group 282">
<rect id="Rectangle 382" width="64" height="64" rx="32" fill="#EAEBFF"/>
<g id="Group 279">
<path id="Vector" fill-rule="evenodd" clip-rule="evenodd" d="M38.19 38.7039H25.822C25.5024 38.7039 25.2319 38.4323 25.2319 38.0881V37.348C25.2319 36.5846 25.822 35.9688 26.5842 35.9688H37.4032C38.1408 35.9688 38.7555 36.5846 38.7555 37.348V38.0881C38.7555 38.4569 38.485 38.7039 38.19 38.7039ZM26.4121 37.5214H37.5753V37.348C37.5753 37.2497 37.5016 37.1759 37.4032 37.1759H26.5842C26.4858 37.1759 26.4121 37.2497 26.4121 37.348V37.5214Z" fill="#4348B2"/>
<path id="Vector_2" fill-rule="evenodd" clip-rule="evenodd" d="M33.4684 37.2002C33.1242 37.2002 32.8537 36.9298 32.8537 36.5843V17.1159C32.8537 16.7704 33.1242 16.5 33.4684 16.5C33.8126 16.5 34.083 16.7704 34.083 17.1159V36.6335C34.0584 36.9298 33.788 37.2002 33.4684 37.2002ZM30.2968 37.2002C29.9526 37.2002 29.6821 36.9298 29.6821 36.5843V17.1159C29.6821 16.7704 29.9526 16.5 30.2968 16.5C30.641 16.5 30.9114 16.7704 30.9114 17.1159V36.6335C30.9114 36.9298 30.641 37.2002 30.2968 37.2002Z" fill="#4348B2"/>
<g id="Clip path group">
<mask id="mask0_4573_4312" style="mask-type:luminance" maskUnits="userSpaceOnUse" x="28" y="13" width="7" height="6">
<g id="a13e1796ae">
<path id="Vector_3" d="M28.9187 13H34.5833V18.5134H28.9187V13Z" fill="white"/>
</g>
</mask>
<g mask="url(#mask0_4573_4312)">
<g id="Group">
<path id="Vector_4" fill-rule="evenodd" clip-rule="evenodd" d="M31.8702 18.3966C30.3705 18.3966 29.1658 17.1649 29.1658 15.7106C29.1658 14.158 30.3705 13 31.8702 13C33.3946 13 34.5747 14.2084 34.5747 15.7106C34.5993 17.1649 33.37 18.3966 31.8702 18.3966ZM31.8702 14.158C31.0097 14.158 30.3705 14.8489 30.3705 15.6614C30.3705 16.4998 31.0589 17.1649 31.8702 17.1649C32.6816 17.1649 33.37 16.4998 33.37 15.6614C33.3946 14.8489 32.7307 14.158 31.8702 14.158Z" fill="#4348B2"/>
</g>
</g>
</g>
<path id="Vector_5" fill-rule="evenodd" clip-rule="evenodd" d="M39.9602 16.5244H33.9846C33.6404 16.5244 33.3699 16.2527 33.3699 15.9577C33.3699 15.6368 33.6404 15.3418 33.9846 15.3418H39.9848C40.329 15.3418 40.5994 15.6122 40.5994 15.9577C40.5994 16.2773 40.2798 16.5244 39.9602 16.5244ZM29.7804 16.5244H24.0998C23.7556 16.5244 23.4851 16.2527 23.4851 15.9577C23.4851 15.6368 23.7556 15.3418 24.0998 15.3418H29.8295C30.1737 15.3418 30.4442 15.6122 30.4442 15.9577C30.4442 16.2773 30.1246 16.5244 29.7804 16.5244Z" fill="#4348B2"/>
<path id="Vector_6" fill-rule="evenodd" clip-rule="evenodd" d="M26.7808 29.8568H21.3707C20.7806 29.8568 20.3135 29.6847 19.9693 29.3392C19.33 28.6988 19.3546 27.6391 19.3546 26.8253C19.3546 26.7024 19.3546 26.5795 19.3546 26.4811C19.3546 26.1357 19.6251 25.8652 19.9693 25.8652C20.3135 25.8652 20.5839 26.1357 20.5839 26.4811C20.5839 26.5795 20.5839 26.7024 20.5839 26.8511C20.5839 27.4178 20.5593 28.2058 20.8544 28.5267C20.879 28.5513 21.0265 28.6988 21.3953 28.6988H26.7808C27.1742 28.6988 27.2725 28.5513 27.3217 28.5267C27.6413 28.2058 27.6167 27.3933 27.6167 26.8253C27.6167 26.7024 27.6167 26.5795 27.6167 26.4811C27.6167 26.1357 27.8872 25.8652 28.2314 25.8652C28.551 25.8652 28.8461 26.1357 28.8461 26.4811C28.8461 26.5795 28.8461 26.6778 28.8461 26.7761C28.8461 27.6391 28.8706 28.6988 28.2314 29.3392C27.8134 29.6601 27.3709 29.8568 26.7808 29.8568Z" fill="#4348B2"/>
<path id="Vector_7" fill-rule="evenodd" clip-rule="evenodd" d="M28.1823 27.048H19.9939C19.7972 27.048 19.6251 26.9497 19.5268 26.7763C19.4284 26.6042 19.3792 26.4075 19.453 26.2342L23.5589 15.736C23.6572 15.4901 23.8539 15.3672 24.0998 15.3672C24.3223 15.3672 24.5681 15.4901 24.6419 15.736L28.7232 26.2342C28.7969 26.4075 28.7723 26.6042 28.674 26.7763C28.5511 26.9497 28.3789 27.048 28.1823 27.048ZM20.8544 25.8654H27.2972L24.0506 17.5848L20.8544 25.8654Z" fill="#4348B2"/>
<path id="Vector_8" fill-rule="evenodd" clip-rule="evenodd" d="M42.64 29.8568H37.2557C36.6656 29.8568 36.2231 29.6847 35.9035 29.3392C35.2384 28.6988 35.2384 27.6391 35.2876 26.7761C35.2876 26.6778 35.2876 26.5795 35.2876 26.4811C35.2876 26.1357 35.558 25.8652 35.9035 25.8652C36.2231 25.8652 36.5181 26.1357 36.5181 26.4811C36.5181 26.5795 36.5181 26.6778 36.5181 26.8253C36.5181 27.3933 36.4689 28.2058 36.7886 28.5267C36.8131 28.5513 36.9607 28.6988 37.3294 28.6988H42.7138C43.0826 28.6988 43.2301 28.5513 43.2547 28.5267C43.5743 28.2058 43.5251 27.4178 43.5251 26.8511C43.5251 26.7024 43.5251 26.604 43.5251 26.4811C43.5251 26.1357 43.7956 25.8652 44.1398 25.8652C44.484 25.8652 44.7544 26.1357 44.7544 26.4811C44.7544 26.5795 44.7544 26.7024 44.7544 26.8253C44.7544 27.6391 44.8036 28.6988 44.1398 29.3392C43.6972 29.6601 43.2547 29.8568 42.64 29.8568Z" fill="#4348B2"/>
<path id="Vector_9" fill-rule="evenodd" clip-rule="evenodd" d="M44.0414 27.048H35.8542C35.6563 27.048 35.4842 26.9497 35.3859 26.7763C35.2875 26.6042 35.2384 26.4075 35.3121 26.2342L39.3946 15.736C39.5176 15.4901 39.7143 15.3672 39.9601 15.3672C40.1814 15.3672 40.4272 15.4901 40.501 15.736L44.5823 26.2342C44.656 26.4075 44.6315 26.6042 44.5085 26.7763C44.4102 26.9497 44.2381 27.048 44.0414 27.048ZM36.7393 25.8654H43.1809L39.9601 17.5848L36.7393 25.8654Z" fill="#4348B2"/>
<path id="Vector_10" fill-rule="evenodd" clip-rule="evenodd" d="M24.4944 48.9298C24.3223 48.9298 24.1735 48.8561 24.026 48.7331C22.6492 47.0822 21.6658 46.7122 20.5594 46.293C18.445 45.505 16.011 44.642 11.2646 36.0664C10.65 34.9822 11.1663 33.9471 11.9776 33.4787C12.4202 33.2329 12.9131 33.1579 13.3557 33.2329C13.872 33.3312 14.3145 33.6754 14.6096 34.193C14.9292 34.7855 15.2242 35.3276 15.4947 35.8451C16.3306 37.3965 16.9944 38.6787 17.9287 39.64C18.2237 38.9491 18.9121 38.6049 19.6497 38.777L23.3376 39.64C25.3795 40.1084 26.0679 41.168 26.9284 42.4981C27.1251 42.8436 27.371 43.1878 27.6168 43.5332C27.8135 43.8049 27.7397 44.1737 27.4693 44.347C27.1988 44.5437 26.8301 44.4945 26.658 44.1982C26.4367 43.8049 26.2154 43.4594 25.9695 43.114C25.1582 41.8577 24.6665 41.1434 23.1163 40.7488L19.3793 39.9104C19.3301 39.8613 19.1088 39.8367 19.0105 40.1084C18.9859 40.2559 18.9367 40.4034 19.0842 40.5509C20.166 41.2418 21.592 41.6856 23.6818 41.8577C24.026 41.8822 24.2731 42.1527 24.2239 42.4981C24.1981 42.8436 23.9277 43.0894 23.5835 43.0402C17.7074 42.5227 16.4289 40.0838 14.4375 36.3369C14.167 35.8451 13.8966 35.3276 13.6015 34.7351C13.2573 34.1192 12.6661 34.4401 12.5923 34.4646C12.4939 34.5384 11.9776 34.8347 12.3218 35.426C16.8715 43.6315 19.0351 44.4207 21.0019 45.135C22.1821 45.5787 23.436 46.0225 24.9861 47.9439C25.1828 48.1664 25.1582 48.5856 24.9123 48.7823C24.7648 48.8561 24.6419 48.9298 24.4944 48.9298Z" fill="#4348B2"/>
<g id="Clip path group_2">
<mask id="mask1_4573_4312" style="mask-type:luminance" maskUnits="userSpaceOnUse" x="23" y="42" width="9" height="9">
<g id="08dacd75ba">
<path id="Vector_11" d="M23.5686 42.7441H31.1214V50.9989H23.5686V42.7441Z" fill="white"/>
</g>
</mask>
<g mask="url(#mask1_4573_4312)">
<g id="Group_2">
<path id="Vector_12" fill-rule="evenodd" clip-rule="evenodd" d="M27.1988 51.0001C27.0021 51.0001 26.7808 50.9509 26.6087 50.828L24.396 49.4966C23.8785 49.2016 23.7064 48.512 24.026 47.9698L26.6825 43.5333C26.8546 43.2628 27.1005 43.0895 27.3955 43.0158C27.6659 42.942 27.9856 43.0158 28.2314 43.1387L30.395 44.4454C30.6409 44.5929 30.8375 44.8155 30.9113 45.1351C30.9851 45.4313 30.9359 45.751 30.813 45.998L28.1577 50.4334C27.9856 50.705 27.7397 50.8771 27.4693 50.9509C27.3709 50.9755 27.2726 51.0001 27.1988 51.0001ZM25.0844 48.512L27.1742 49.7437L29.7312 45.4805L27.6414 44.2475L25.0844 48.512Z" fill="#4348B2"/>
</g>
</g>
</g>
<path id="Vector_13" fill-rule="evenodd" clip-rule="evenodd" d="M39.5177 48.929C39.3702 48.929 39.2473 48.8798 39.1243 48.7815C38.9031 48.5848 38.8293 48.2148 39.0752 47.9431C40.6241 46.0217 41.8534 45.5779 43.0581 45.1342C44.9512 44.4199 47.1394 43.6307 51.689 35.4497C51.984 34.883 51.5169 34.5376 51.4186 34.513C51.2956 34.4392 50.7547 34.1921 50.4105 34.7847C50.1155 35.3268 49.8451 35.8689 49.5746 36.3865C47.5832 40.1075 46.3035 42.5711 40.4274 43.0886C40.0832 43.1132 39.8127 42.8673 39.7882 42.5219C39.739 42.2023 39.9848 41.9306 40.329 41.8814C42.4434 41.7093 43.8694 41.2655 44.9266 40.5759C45.0741 40.4763 45.025 40.2796 45.0004 40.1813C44.902 39.9096 44.6562 39.9342 44.5824 39.9588L40.8945 40.8218C39.3456 41.1918 38.9031 41.9306 38.0425 43.1869C37.8459 43.4832 37.6 43.8778 37.3296 44.2724C37.1329 44.5429 36.7395 44.6166 36.5182 44.4199C36.2232 44.1974 36.174 43.8286 36.3707 43.5816C36.6411 43.2128 36.8378 42.8673 37.0591 42.5711C37.895 41.241 38.5834 40.2059 40.6241 39.6884L44.312 38.85C45.0742 38.6779 45.738 39.0233 46.0822 39.6884C47.0164 38.7516 47.6815 37.4707 48.5174 35.8689C48.7879 35.3514 49.0583 34.8093 49.4025 34.2671C50.0172 33.1571 51.1727 33.0587 51.984 33.5025C52.7954 33.9463 53.3609 35.0059 52.7462 36.1148C47.9765 44.6904 45.5659 45.5779 43.4515 46.3167C42.3451 46.7359 41.3371 47.106 39.9848 48.7569C39.8373 48.8307 39.6898 48.929 39.5177 48.929Z" fill="#4348B2"/>
<g id="Clip path group_3">
<mask id="mask2_4573_4312" style="mask-type:luminance" maskUnits="userSpaceOnUse" x="33" y="42" width="8" height="9">
<g id="94ba8b8114">
<path id="Vector_14" d="M33.0098 42.7441H40.2479V50.9989H33.0098V42.7441Z" fill="white"/>
</g>
</mask>
<g mask="url(#mask2_4573_4312)">
<g id="Group_3">
<path id="Vector_15" fill-rule="evenodd" clip-rule="evenodd" d="M36.8379 51.0001C36.7395 51.0001 36.6658 51.0001 36.5674 50.9755C36.2724 50.9017 36.0266 50.7296 35.9036 50.4579L33.2225 46.0226C33.0504 45.751 33.0258 45.4313 33.1242 45.1597C33.1979 44.8892 33.3946 44.6421 33.6405 44.4946L35.8544 43.1387C36.0757 43.0158 36.3708 42.942 36.6412 43.0158C36.9608 43.0895 37.1821 43.2628 37.3542 43.5333L40.0095 47.9698C40.3291 48.512 40.157 49.2016 39.6407 49.4966L37.428 50.828C37.2559 50.9509 37.0592 51.0001 36.8379 51.0001ZM34.2797 45.5051L36.8379 49.7683L38.9277 48.5611L36.3708 44.2733L34.2797 45.5051Z" fill="#4348B2"/>
</g>
</g>
</g>
</g>
</g>
</svg>
