<svg width="72" height="72" viewBox="0 0 72 72" fill="none" xmlns="http://www.w3.org/2000/svg">
<g id="Group 299">
<rect id="Rectangle 385" width="72" height="72" fill="#ECECFF"/>
<g id="Group 295">
<g id="Clip path group">
<mask id="mask0_4577_23582" style="mask-type:luminance" maskUnits="userSpaceOnUse" x="13" y="16" width="46" height="40">
<g id="49b30e92fa">
<path id="Vector" d="M13.5 16.0039H58.5V55.9955H13.5V16.0039Z" fill="white"/>
</g>
</mask>
<g mask="url(#mask0_4577_23582)">
<g id="Group">
<path id="Vector_2" d="M55.7873 18.8155C54.11 16.9771 51.7929 16.0176 49.2377 16.0176C45.5633 16.0176 42.2088 18.2559 40.7716 21.6135L37.3374 20.6537C36.6985 20.4942 35.9799 20.4942 35.421 20.8134L15.2121 29.8476C13.774 30.487 13.1351 32.1658 13.774 33.6051L17.5281 42.0788C17.2889 42.4787 17.1285 43.0384 17.1285 43.518C17.1285 44.2374 17.4484 44.9574 17.9268 45.5171L27.5918 55.1897C28.1509 55.7493 28.8693 55.9888 29.5888 55.9888C30.3083 55.9888 31.0269 55.7493 31.586 55.1897L47.3202 39.4413C47.7996 38.9616 48.0388 38.3223 48.1185 37.6829L48.4384 34.3253C48.7583 34.3253 48.9975 34.4051 49.3174 34.4051C54.3492 34.4051 58.503 30.2477 58.503 25.2112C58.4232 22.8134 57.5442 20.4942 55.7873 18.8155ZM15.2121 32.9657C14.9729 32.3263 15.2121 31.6071 15.8508 31.287L36.1385 22.2528C36.298 22.1729 36.4584 22.1729 36.6179 22.1729C36.6976 22.1729 36.8571 22.1729 36.9377 22.2528L44.0465 24.2517L35.4199 24.9708C34.781 25.0508 34.1424 25.2912 33.663 25.7699L18.727 40.7201L15.213 32.9657H15.2121ZM47.0811 28.7285L46.7613 32.486C46.2021 32.3263 45.7228 32.0859 45.2434 31.8466C45.3231 31.5264 45.4029 31.2072 45.4029 30.8871C45.4029 30.0073 45.083 29.1284 44.4441 28.489C43.1664 27.2103 41.0099 27.2103 39.7313 28.489C38.4536 29.7678 38.4536 31.9264 39.7313 33.2061C40.37 33.8454 41.249 34.1658 42.127 34.1658C43.0051 34.1658 43.8044 33.8454 44.5228 33.2061C45.1616 33.6062 45.9609 33.9254 46.6795 34.1658L46.52 37.6031C46.52 37.9233 46.3605 38.1626 46.2001 38.3223L30.466 54.0706C29.9866 54.5503 29.1883 54.5503 28.7089 54.0706L19.0449 44.3978C18.8058 44.1585 18.6452 43.8384 18.6452 43.518C18.6452 43.1979 18.725 42.9586 18.9651 42.7191L19.0449 42.6394L34.7015 26.9699C34.9405 26.7304 35.1807 26.6497 35.4199 26.6497L44.2856 25.8506C44.6852 25.8506 45.0042 25.9306 45.2443 26.2507L46.7622 27.7699C46.8419 27.8496 46.9217 27.9294 47.0014 28.09C47.0811 28.1698 47.0811 28.3295 47.0811 28.4102V28.7303V28.7285ZM42.7679 29.1284C43.007 29.2082 43.2471 29.3679 43.4863 29.5283C43.8062 29.8487 43.9657 30.1677 43.9657 30.6476C43.4863 30.1677 43.0867 29.688 42.7679 29.1284ZM43.2471 32.1658C42.5287 32.6455 41.5699 32.6455 41.0108 32.0061C40.372 31.3667 40.372 30.2477 41.0108 29.5283L41.0906 29.4486C41.6497 30.4881 42.3683 31.4476 43.2471 32.1668V32.1658ZM49.2377 32.8052C48.9984 32.8052 48.7583 32.8052 48.5191 32.7253L48.8391 28.8083V28.1689C48.9187 27.689 48.8391 27.1294 48.5999 26.6497L47.7209 24.6507C47.401 23.8518 46.6824 23.2922 45.8841 23.0518L42.3701 22.0922C43.5681 19.374 46.2837 17.6154 49.3194 17.6154C51.3964 17.6154 53.3128 18.4145 54.7509 19.9337C56.189 21.3731 56.9074 23.2113 56.9074 25.2103C56.8277 29.3679 53.4732 32.8052 49.2397 32.8052H49.2377Z" fill="#6969F1"/>
</g>
</g>
</g>
<path id="Vector_3" d="M35.1 45.0359L29.9087 45.436L30.6273 44.7167C31.9848 43.3581 32.1452 41.1996 31.1067 39.6804L31.7456 39.041C32.0654 38.7209 32.0654 38.2421 31.7456 37.9218C31.4257 37.6016 30.9472 37.6016 30.6273 37.9218L29.9885 38.5612C29.5091 38.241 28.9502 38.0017 28.3113 37.9218L29.4295 36.8027C29.7494 36.4826 29.7494 36.0036 29.4295 35.6835C29.1095 35.3633 28.6312 35.3633 28.3113 35.6835L24.9568 39.041L22.7204 41.2794C22.4005 41.5995 22.4005 42.0785 22.7204 42.3986C22.8799 42.5581 23.12 42.6379 23.2795 42.6379C23.439 42.6379 23.6791 42.5581 23.8386 42.3986L26.0749 40.1603C26.7935 39.441 27.9117 39.2805 28.7907 39.6804L24.9568 43.5177C24.6368 43.838 24.6368 44.3168 24.9568 44.6369C25.1161 44.7964 25.3565 44.8764 25.5158 44.8764C25.6752 44.8764 25.9154 44.7964 26.0749 44.6369L29.9087 40.7997C30.3084 41.6795 30.148 42.7985 29.4295 43.5177L27.1931 45.7562C26.9539 45.9955 26.8732 46.3156 27.0336 46.636C27.1931 46.9561 27.4332 47.1156 27.7522 47.1156H27.832L35.1798 46.556C35.6592 46.556 35.9781 46.1561 35.8984 45.6762C35.8186 45.1965 35.5785 45.0368 35.1 45.0368V45.0359Z" fill="#6969F1"/>
</g>
</g>
</svg>
