<svg width="72" height="73" viewBox="0 0 72 73" fill="none" xmlns="http://www.w3.org/2000/svg">
<rect y="0.5" width="72" height="72" fill="#E4F5FF"/>
<path d="M32.6606 31.2728L35.4992 21.3379" stroke="#0B9EF1" stroke-width="2" stroke-linecap="round"/>
<path d="M48.2725 31.2728L45.4339 21.3379" stroke="#0B9EF1" stroke-width="2" stroke-linecap="round"/>
<path d="M19.0356 12.8242L19.0356 61.0797" stroke="#0B9EF1" stroke-width="3" stroke-linecap="round"/>
<path d="M54.5171 19.918L13.358 19.918" stroke="#0B9EF1" stroke-width="2" stroke-linecap="round"/>
<mask id="path-6-inside-1_4549_21558" fill="white">
<rect x="24.7119" y="31.2734" width="32.6434" height="15.6121" rx="1"/>
</mask>
<rect x="24.7119" y="31.2734" width="32.6434" height="15.6121" rx="1" fill="#E4F5FF"/>
<rect x="24.7119" y="31.2734" width="32.6434" height="15.6121" rx="1" stroke="#0B9EF1" stroke-width="4" mask="url(#path-6-inside-1_4549_21558)"/>
<path d="M30.4918 42.0801V36.2619H32.8953C33.3309 36.2619 33.7068 36.3405 34.0231 36.4977C34.3413 36.653 34.5865 36.8765 34.7589 37.1681C34.9312 37.4579 35.0174 37.8017 35.0174 38.1994C35.0174 38.6028 34.9293 38.9456 34.7532 39.2278C34.5771 39.5081 34.3271 39.7221 34.0032 39.8699C33.6793 40.0157 33.2958 40.0886 32.8526 40.0886H31.3328V38.9806H32.5913C32.8034 38.9806 32.9805 38.9532 33.1225 38.8983C33.2665 38.8414 33.3754 38.7562 33.4492 38.6426C33.5231 38.527 33.56 38.3793 33.56 38.1994C33.56 38.0195 33.5231 37.8708 33.4492 37.7534C33.3754 37.6341 33.2665 37.545 33.1225 37.4863C32.9786 37.4257 32.8015 37.3954 32.5913 37.3954H31.8981V42.0801H30.4918ZM33.7674 39.421L35.2163 42.0801H33.6822L32.2617 39.421H33.7674ZM35.9487 42.0801V36.2619H40.0055V37.4039H37.355V38.5971H39.7982V39.742H37.355V40.938H40.0055V42.0801H35.9487ZM45.9979 36.2619V42.0801H44.8047L42.4894 38.7221H42.4525V42.0801H41.0462V36.2619H42.2564L44.5462 39.6142H44.5945V36.2619H45.9979ZM46.8518 37.4039V36.2619H51.7694V37.4039H50.0052V42.0801H48.6189V37.4039H46.8518Z" fill="#0B9EF1"/>
</svg>
