<svg width="64" height="64" viewBox="0 0 64 64" fill="none" xmlns="http://www.w3.org/2000/svg">
<g id="Group 276">
<rect id="Rectangle 379" width="64" height="64" rx="32" fill="#FFEEEA"/>
<g id="Clip path group">
<mask id="mask0_4573_4302" style="mask-type:luminance" maskUnits="userSpaceOnUse" x="17" y="14" width="30" height="36">
<g id="7e524269e4">
<path id="Vector" d="M17.1528 14.5H46.8468V49.5H17.1528V14.5Z" fill="white"/>
</g>
</mask>
<g mask="url(#mask0_4573_4302)">
<g id="Group">
<path id="Vector_2" d="M46.6877 43.4853C45.7497 41.8354 44.8105 40.1867 43.8714 38.538C43.1388 37.2481 42.405 35.9559 41.662 34.6476C41.7993 34.5772 41.9227 34.4861 42.0312 34.3765C42.1396 34.2669 42.2285 34.1423 42.2977 34.0038C42.3669 33.8654 42.4131 33.72 42.4361 33.5677C42.4592 33.4142 42.4581 33.2619 42.4327 33.1085C42.3254 32.1578 42.2112 31.2071 42.09 30.2587C42.0623 30.1238 42.0981 30.0072 42.1985 29.9126C42.8584 29.2296 43.5114 28.5397 44.1667 27.8532C44.2371 27.7874 44.3006 27.7147 44.3571 27.6351C44.4125 27.5555 44.4598 27.4725 44.499 27.3836C44.5383 27.2948 44.5683 27.2025 44.5879 27.1079C44.6086 27.0133 44.619 26.9163 44.619 26.8194C44.6202 26.7225 44.6109 26.6268 44.5913 26.5322C44.5729 26.4364 44.5452 26.3441 44.5071 26.2553C44.469 26.1664 44.4229 26.081 44.3687 26.0014C44.3133 25.9218 44.251 25.848 44.1806 25.7811C43.5472 25.0946 42.9149 24.4058 42.2735 23.7262C42.2135 23.6686 42.1708 23.6005 42.1454 23.5209C42.1212 23.4401 42.1177 23.3594 42.1362 23.2774C42.2769 22.3314 42.4096 21.3841 42.5342 20.4358C42.5515 20.3412 42.5596 20.2477 42.5573 20.1519C42.555 20.0562 42.5446 19.9627 42.5227 19.8693C42.5019 19.777 42.4719 19.687 42.4327 19.6005C42.3934 19.5139 42.3461 19.432 42.2896 19.3547C42.2331 19.2774 42.1708 19.207 42.1004 19.1424C42.03 19.079 41.9539 19.0224 41.872 18.974C41.79 18.9244 41.7035 18.8851 41.6135 18.854C41.5235 18.8228 41.4312 18.8009 41.3366 18.7894C40.3986 18.6048 39.4618 18.4133 38.5215 18.2367C38.3761 18.2171 38.2734 18.1398 38.2123 18.006C37.7392 17.1222 37.2627 16.2396 36.7816 15.3604C36.7251 15.2416 36.6513 15.1343 36.5613 15.0374C36.4713 14.9416 36.3686 14.8609 36.2532 14.7974C36.1378 14.7328 36.0155 14.6878 35.8863 14.6613C35.7559 14.6359 35.6267 14.6301 35.4952 14.6451C35.2575 14.6682 35.0314 14.7317 34.8156 14.8332C33.9711 15.2128 33.1346 15.6085 32.2982 16.0042C32.1759 16.07 32.0547 16.0688 31.9336 15.9996C31.0706 15.5716 30.203 15.1516 29.3377 14.7282C29.2557 14.6797 29.1704 14.6405 29.0815 14.6105C28.9915 14.5805 28.9004 14.5597 28.8069 14.5482C28.7123 14.5367 28.6189 14.5367 28.5243 14.5447C28.4308 14.554 28.3385 14.5724 28.2485 14.6001C28.1585 14.629 28.072 14.6659 27.9901 14.712C27.9082 14.7593 27.8309 14.8136 27.7605 14.8759C27.6901 14.9393 27.6267 15.0085 27.5701 15.0847C27.5147 15.1597 27.4663 15.2416 27.4282 15.327C26.954 16.1761 26.4879 17.0311 26.0068 17.8745C25.9445 17.9771 25.8557 18.0452 25.7391 18.0764C24.7838 18.2563 23.8262 18.4225 22.8698 18.5886C22.774 18.6013 22.6806 18.6232 22.5906 18.6544C22.4994 18.6855 22.4129 18.7259 22.3298 18.7744C22.2479 18.824 22.1706 18.8805 22.0991 18.9451C22.0287 19.0097 21.9641 19.0801 21.9075 19.1574C21.851 19.2347 21.8026 19.3178 21.7622 19.4043C21.7218 19.492 21.6918 19.5831 21.6699 19.6766C21.648 19.7701 21.6353 19.8647 21.633 19.9604C21.6307 20.0562 21.6376 20.1519 21.6549 20.2466C21.7772 21.203 21.8822 22.1618 22.001 23.1194C22.0264 23.2636 21.9837 23.3859 21.8752 23.4851C21.2315 24.1508 20.6142 24.8431 19.9496 25.4892C19.877 25.5584 19.8112 25.6334 19.7535 25.7165C19.6958 25.7984 19.6474 25.8861 19.607 25.9784C19.5678 26.0695 19.5366 26.1653 19.5158 26.2633C19.4951 26.3614 19.4847 26.4618 19.4847 26.5622C19.4835 26.6625 19.4939 26.7617 19.5135 26.861C19.5331 26.959 19.562 27.0548 19.6012 27.1471C19.6404 27.2394 19.6889 27.3271 19.7454 27.4102C19.802 27.4932 19.8666 27.5694 19.9393 27.6397C20.5923 28.3078 21.2118 29.0081 21.8499 29.69C21.9525 29.7823 21.9906 29.8976 21.9652 30.0338C21.8233 30.9948 21.6953 31.9582 21.558 32.9216C21.5303 33.067 21.5268 33.2135 21.5453 33.3612C21.5649 33.5088 21.6064 33.6496 21.6699 33.7834C21.7333 33.9184 21.8164 34.0396 21.9179 34.1469C22.0206 34.2553 22.1371 34.3453 22.2675 34.4157C22.3183 34.4457 22.3667 34.4791 22.4233 34.5138C22.3817 34.5922 22.3483 34.6591 22.3102 34.726C20.6604 37.6508 19.0209 40.5848 17.3503 43.4991C17.2718 43.6168 17.2303 43.746 17.2268 43.8879C17.2233 44.0298 17.2568 44.1614 17.3283 44.2837C17.3999 44.4048 17.4979 44.4994 17.6237 44.5652C17.7495 44.6309 17.8821 44.6575 18.0229 44.6471C19.7304 44.6171 21.438 44.6413 23.1455 44.6321C23.2286 44.624 23.3059 44.6413 23.3774 44.684C23.449 44.7256 23.502 44.7855 23.5343 44.8617C24.305 46.2208 25.0815 47.5753 25.8637 48.9252C25.9145 49.0579 25.9976 49.1652 26.1141 49.2459C26.2306 49.3267 26.3598 49.3671 26.5029 49.3659C26.6448 49.3659 26.774 49.3255 26.8894 49.2436C27.0059 49.1629 27.089 49.0544 27.1386 48.9217C28.7158 46.2277 30.293 43.5337 31.8724 40.8409C31.9117 40.7717 31.9578 40.7059 32.0144 40.6171C32.0743 40.7151 32.1182 40.7855 32.1597 40.857C33.7277 43.5672 35.2945 46.2762 36.8612 48.9875C36.9166 49.1259 37.0055 49.2378 37.1278 49.3244C37.2489 49.4109 37.385 49.4571 37.5339 49.4628C37.6839 49.4548 37.8177 49.4063 37.9377 49.3175C38.0577 49.2286 38.143 49.1144 38.1961 48.9748C38.9611 47.5961 39.7375 46.2243 40.5036 44.8455C40.5325 44.7752 40.5798 44.7209 40.6444 44.6817C40.7101 44.6425 40.7805 44.6263 40.8555 44.6333C42.5711 44.6425 44.2867 44.639 46.0012 44.6379C46.7269 44.6367 47.0419 44.1071 46.6877 43.4853ZM20.9788 26.8206C20.928 26.7652 20.8807 26.7064 20.8207 26.6371C20.8749 26.576 20.9234 26.5195 20.9742 26.4641C21.6249 25.7834 22.2687 25.0957 22.9263 24.422C23.1017 24.2512 23.2274 24.0493 23.3024 23.8162C23.3774 23.5832 23.3936 23.3455 23.3497 23.1044C23.217 22.1722 23.1259 21.2342 23.0013 20.3008C22.9713 20.0781 23.0255 19.9973 23.2528 19.9604C24.2047 19.8058 25.1519 19.6305 26.1014 19.4655C26.3287 19.4309 26.5352 19.3455 26.7221 19.2105C26.9079 19.0755 27.0533 18.9059 27.1571 18.7005C27.6036 17.8814 28.0616 17.0668 28.515 16.2511C28.5612 16.1646 28.612 16.0792 28.6708 15.9788C28.8381 16.0585 28.9962 16.1323 29.1519 16.2084C29.9284 16.588 30.7072 16.9641 31.4813 17.3472C31.6775 17.451 31.8874 17.5029 32.109 17.5041C32.3305 17.5053 32.5405 17.4556 32.7389 17.3553C33.6873 16.9122 34.6414 16.4796 35.6233 16.0308C35.9729 16.6896 36.3097 17.323 36.6466 17.9575C36.8035 18.2552 36.9558 18.5563 37.1185 18.8505C37.2154 19.0409 37.3504 19.2001 37.5223 19.327C37.6942 19.4528 37.8869 19.5335 38.0981 19.5681C39.0903 19.7493 40.0779 19.957 41.0701 20.1531C41.107 20.16 41.1428 20.1727 41.2085 20.1912C41.1693 20.4773 41.1336 20.7623 41.0932 21.0461C40.9813 21.8341 40.8624 22.621 40.7586 23.4101C40.7297 23.6109 40.747 23.807 40.8105 24.0008C40.874 24.1935 40.9755 24.362 41.1186 24.5073C41.7854 25.225 42.4511 25.9437 43.1145 26.6648C43.1665 26.7202 43.2149 26.7779 43.2761 26.8471L41.7381 28.4358C41.5247 28.6562 41.3147 28.8777 41.0978 29.0946C40.9386 29.2458 40.8244 29.4234 40.7528 29.6311C40.6824 29.8376 40.6628 30.0488 40.6963 30.2645C40.8151 31.2302 40.9282 32.1947 41.0436 33.1604C41.0528 33.2423 41.0586 33.3254 41.0689 33.4327C40.6086 33.5112 40.1575 33.5873 39.7064 33.6634C39.133 33.7581 38.5561 33.8469 37.9861 33.9496C37.7704 33.9853 37.5743 34.0684 37.3977 34.1965C37.2212 34.3257 37.0828 34.4872 36.9835 34.6822C36.5186 35.5256 36.0513 36.369 35.5817 37.2124C35.5448 37.2781 35.5056 37.3439 35.4583 37.4235C35.3937 37.397 35.3325 37.375 35.2737 37.3462C34.3991 36.9205 33.5258 36.497 32.6558 36.0655C32.4562 35.9606 32.2428 35.9075 32.0167 35.9063C31.7905 35.9052 31.5771 35.9559 31.3763 36.0586C30.4926 36.4809 29.6053 36.8951 28.7193 37.3116C28.6523 37.3427 28.582 37.3716 28.5 37.4085C28.2151 36.872 27.9382 36.3528 27.6636 35.8336C27.4513 35.4344 27.2425 35.0341 27.0302 34.6361C26.931 34.4295 26.7879 34.2576 26.6021 34.1226C26.4164 33.9876 26.2099 33.9046 25.9814 33.8723C24.9938 33.7096 24.0097 33.5135 23.0244 33.33C22.9725 33.3208 22.9228 33.3012 22.8479 33.2793C22.9044 32.8604 22.9609 32.4462 23.0186 32.0321C23.1098 31.3871 23.2021 30.7422 23.2897 30.0972C23.3232 29.8896 23.307 29.6865 23.2436 29.4857C23.1801 29.285 23.0751 29.1096 22.9298 28.9585C22.2767 28.2489 21.626 27.5359 20.9788 26.8206ZM44.6836 43.2661C43.2449 43.2661 41.8062 43.2695 40.3675 43.2626C40.2071 43.2499 40.0583 43.2845 39.9187 43.3653C39.7802 43.4449 39.6752 43.5568 39.606 43.7022C38.968 44.8525 38.3161 45.997 37.6712 47.1438C37.6308 47.2153 37.5881 47.2857 37.52 47.4011L33.0816 39.6987C32.9627 39.5325 32.8151 39.3987 32.6374 39.2972C32.4597 39.1968 32.2693 39.138 32.0651 39.1207C31.8274 39.1172 31.6025 39.1691 31.3913 39.2776C31.179 39.386 31.0048 39.5372 30.8687 39.7321C28.6754 43.5176 27.8182 45.0278 27.5528 45.5263C27.4801 45.6647 27.1294 46.2658 26.661 47.078C26.6241 47.1426 26.5814 47.2038 26.5283 47.2903C26.1072 46.5635 25.6988 45.8631 25.2949 45.1628C25.0123 44.6725 24.725 44.1844 24.4446 43.6918C24.3743 43.5522 24.2716 43.4426 24.1354 43.3641C23.9993 43.2868 23.8528 43.2522 23.697 43.2614C22.2502 43.2707 20.8034 43.2661 19.3566 43.2649H19.0647C19.1109 43.1761 19.1386 43.1103 19.1743 43.048C20.6823 40.3771 22.1902 37.705 23.697 35.0329C23.7224 34.9637 23.7685 34.9141 23.8343 34.883C23.9012 34.853 23.9693 34.8507 24.0385 34.876C24.5554 34.981 25.078 35.056 25.5949 35.1622C25.7103 35.1922 25.8003 35.2579 25.8637 35.3583C26.3356 36.2075 26.7983 37.0624 27.2586 37.9173C27.2967 38.0061 27.344 38.0892 27.3994 38.1677C27.4559 38.2461 27.5182 38.3177 27.5897 38.3834C27.6601 38.448 27.7363 38.5057 27.8193 38.5542C27.9013 38.6038 27.9889 38.6442 28.0801 38.6753C28.1701 38.7065 28.2635 38.7284 28.3593 38.7399C28.4551 38.7515 28.5508 38.7538 28.6466 38.7445C28.7423 38.7365 28.8358 38.7192 28.9281 38.6915C29.0204 38.6638 29.1081 38.6257 29.1923 38.5796C29.6365 38.403 30.0703 38.2034 30.4937 37.9819C30.8502 37.7742 31.2413 37.63 31.599 37.4247C31.7075 37.3577 31.824 37.3243 31.9497 37.3231C32.0374 37.3231 32.1205 37.3416 32.199 37.3785C33.0412 37.7973 33.8973 38.1896 34.7314 38.6257C34.818 38.673 34.9079 38.7099 35.0026 38.7388C35.096 38.7676 35.1929 38.7861 35.291 38.7953C35.3879 38.8057 35.486 38.8045 35.584 38.7942C35.6821 38.7838 35.7779 38.7642 35.8713 38.7342C35.9659 38.7042 36.0559 38.6661 36.1413 38.6188C36.2278 38.5703 36.3074 38.5149 36.3824 38.4515C36.4574 38.3869 36.5255 38.3165 36.5866 38.2392C36.6466 38.1619 36.6997 38.0788 36.7436 37.9911C37.167 37.1512 37.6539 36.3436 38.1027 35.5175C38.1684 35.3768 38.278 35.2971 38.4326 35.281C38.9853 35.1887 39.5322 35.0895 40.0802 34.9787C40.1413 34.9556 40.2013 34.9579 40.2613 34.9845C40.3213 35.0122 40.3629 35.056 40.3859 35.1172C41.7358 37.5089 43.0915 39.8971 44.4506 42.2842C44.6282 42.5957 44.8036 42.9073 45.0067 43.2672L44.6836 43.2661ZM31.9763 33.6011C32.2024 33.6023 32.4274 33.5931 32.6524 33.5723C32.8774 33.5504 33.1012 33.5192 33.3227 33.4765C33.5442 33.4339 33.7634 33.3796 33.9803 33.3162C34.1972 33.2516 34.4095 33.1766 34.6195 33.0912C34.8283 33.0058 35.0337 32.9101 35.2333 32.8051C35.4329 32.7001 35.6267 32.5847 35.8159 32.4601C36.004 32.3355 36.1863 32.2017 36.3617 32.0597C36.537 31.9178 36.7055 31.7667 36.8659 31.6075C37.0262 31.4483 37.1785 31.2821 37.3227 31.1079C37.467 30.9348 37.6031 30.7537 37.7289 30.5668C37.8558 30.3787 37.9723 30.1861 38.0807 29.9876C38.188 29.788 38.285 29.585 38.3726 29.3761C38.4603 29.1685 38.5376 28.9562 38.6045 28.7404C38.6703 28.5247 38.7268 28.3055 38.7718 28.0839C38.8168 27.8624 38.8514 27.6397 38.8745 27.4148C38.8976 27.1898 38.9091 26.9648 38.9103 26.7387C38.9114 26.5125 38.9011 26.2864 38.8803 26.0614C38.8595 25.8364 38.8272 25.6138 38.7845 25.3911C38.7407 25.1696 38.6865 24.9504 38.6219 24.7335C38.5572 24.5177 38.4822 24.3043 38.3969 24.0954C38.3115 23.8866 38.2157 23.6812 38.1096 23.4817C38.0046 23.2821 37.8892 23.0882 37.7646 22.9002C37.6389 22.7109 37.5062 22.5298 37.3631 22.3544C37.2201 22.1791 37.0689 22.0106 36.9097 21.8503C36.7505 21.6899 36.5843 21.5376 36.4101 21.3934C36.2359 21.2503 36.0548 21.1153 35.8679 20.9884C35.681 20.8627 35.4871 20.745 35.2887 20.6388C35.0891 20.5315 34.886 20.4335 34.6772 20.3469C34.4684 20.2592 34.2561 20.1831 34.0403 20.1162C33.8246 20.0504 33.6054 19.995 33.3838 19.95C33.1623 19.905 32.9397 19.8716 32.7147 19.8485C32.4897 19.8254 32.2647 19.8139 32.0386 19.8127C31.8124 19.8127 31.5875 19.8231 31.3625 19.8439C31.1375 19.8658 30.9137 19.8981 30.6922 19.942C30.4706 19.9847 30.2514 20.0389 30.0345 20.1046C29.8188 20.1693 29.6053 20.2442 29.3965 20.3308C29.1877 20.4162 28.9835 20.5131 28.7839 20.6192C28.5843 20.7242 28.3904 20.8407 28.2024 20.9653C28.0143 21.0899 27.8332 21.2249 27.6578 21.368C27.4824 21.5099 27.3152 21.6622 27.1548 21.8214C26.9944 21.9806 26.8433 22.1479 26.6991 22.3221C26.5548 22.4964 26.421 22.6775 26.2941 22.8656C26.1683 23.0525 26.0518 23.2463 25.9457 23.4447C25.8384 23.6443 25.7414 23.8485 25.6549 24.0562C25.5684 24.265 25.4911 24.4773 25.4253 24.6942C25.3596 24.91 25.3042 25.1292 25.2603 25.3507C25.2153 25.5722 25.1819 25.7949 25.1588 26.0199C25.1369 26.2449 25.1253 26.471 25.1253 26.6971C25.1253 26.9221 25.1369 27.1459 25.1588 27.3698C25.1807 27.5936 25.2142 27.8163 25.258 28.0366C25.3019 28.257 25.3561 28.4751 25.4219 28.6908C25.4865 28.9054 25.5615 29.1177 25.648 29.3254C25.7334 29.533 25.8291 29.7373 25.9353 29.9357C26.0403 30.1341 26.1556 30.3268 26.2802 30.5137C26.4048 30.7018 26.5375 30.8829 26.6806 31.0571C26.8225 31.2314 26.9725 31.3986 27.1306 31.5579C27.2898 31.7171 27.4548 31.8694 27.629 32.0124C27.802 32.1567 27.982 32.2905 28.1678 32.4163C28.3547 32.5432 28.5462 32.6597 28.7446 32.7658C28.9419 32.8731 29.145 32.9712 29.3515 33.0577C29.5592 33.1454 29.7703 33.2227 29.9849 33.2896C30.1995 33.3566 30.4176 33.4119 30.6368 33.4581C30.8571 33.5031 31.0798 33.5377 31.3036 33.5619C31.5263 33.5861 31.7513 33.5988 31.9763 33.6011ZM32.0282 21.1834C32.2093 21.1834 32.3893 21.1926 32.5693 21.2111C32.7493 21.2295 32.9281 21.2561 33.1058 21.2918C33.2835 21.3276 33.4588 21.3715 33.6319 21.4245C33.805 21.4776 33.9746 21.5387 34.1419 21.608C34.3092 21.6783 34.4718 21.7556 34.6322 21.841C34.7914 21.9264 34.946 22.0199 35.096 22.1214C35.246 22.2218 35.3914 22.3302 35.531 22.4456C35.6706 22.561 35.8044 22.6821 35.9325 22.8102C36.0594 22.9382 36.1805 23.0732 36.2947 23.2128C36.4101 23.3536 36.5174 23.499 36.6166 23.6501C36.717 23.8001 36.8093 23.9558 36.8947 24.1162C36.9801 24.2754 37.0562 24.4393 37.1254 24.6066C37.1935 24.7738 37.2547 24.9446 37.3066 25.1177C37.3585 25.2919 37.4023 25.4672 37.437 25.6449C37.4716 25.8226 37.4981 26.0014 37.5154 26.1814C37.5316 26.3614 37.5408 26.5425 37.5396 26.7237C37.5396 26.9037 37.5304 27.0848 37.5119 27.2648C37.4935 27.4448 37.4658 27.6236 37.43 27.8013C37.3943 27.9789 37.3504 28.1543 37.2974 28.3274C37.2443 28.5004 37.182 28.67 37.1128 28.8373C37.0424 29.0035 36.9651 29.1673 36.8785 29.3265C36.7932 29.4857 36.6997 29.6403 36.5982 29.7903C36.4978 29.9415 36.3894 30.0857 36.274 30.2253C36.1586 30.3649 36.0363 30.4987 35.9082 30.6256C35.7802 30.7537 35.6452 30.8748 35.5056 30.9891C35.3648 31.1033 35.2195 31.2106 35.0683 31.3098C34.9172 31.4102 34.7626 31.5025 34.6022 31.5867C34.4418 31.6721 34.278 31.7482 34.1107 31.8175C33.9434 31.8855 33.7727 31.9467 33.5996 31.9974C33.4265 32.0494 33.2512 32.0932 33.0735 32.1278C32.8958 32.1624 32.717 32.1878 32.5358 32.2051C32.3559 32.2224 32.1759 32.2305 31.9947 32.2293C31.8136 32.2282 31.6325 32.219 31.4525 32.2005C31.2725 32.182 31.0937 32.1544 30.9171 32.1186C30.7395 32.0828 30.5641 32.0378 30.391 31.9848C30.218 31.9317 30.0484 31.8694 29.8811 31.799C29.7149 31.7298 29.5511 31.6513 29.3919 31.5648C29.2327 31.4794 29.0781 31.386 28.9281 31.2844C28.7781 31.1829 28.6339 31.0744 28.4943 30.9591C28.3547 30.8437 28.222 30.7214 28.0939 30.5933C27.967 30.4641 27.8459 30.3291 27.7317 30.1895C27.6174 30.0488 27.5113 29.9034 27.4109 29.7523C27.3117 29.6011 27.2194 29.4454 27.1352 29.285C27.0498 29.1258 26.9736 28.9619 26.9056 28.7935C26.8363 28.6262 26.7764 28.4554 26.7256 28.2824C26.6737 28.1082 26.631 27.9328 26.5964 27.7551C26.5618 27.5774 26.5364 27.3986 26.5191 27.2186C26.5029 27.0386 26.4948 26.8575 26.496 26.6764C26.4971 26.4964 26.5075 26.3164 26.526 26.1364C26.5456 25.9576 26.5733 25.7799 26.6091 25.6022C26.6448 25.4257 26.6898 25.2515 26.744 25.0796C26.7971 24.9065 26.8583 24.7381 26.9286 24.5719C26.999 24.4046 27.0763 24.2431 27.1617 24.0839C27.2482 23.9258 27.3417 23.7712 27.4421 23.6213C27.5436 23.4724 27.6509 23.3282 27.7663 23.1886C27.8805 23.0502 28.0028 22.9175 28.1308 22.7894C28.2589 22.6625 28.3927 22.5425 28.5324 22.4283C28.672 22.3141 28.8173 22.2079 28.9673 22.1075C29.1173 22.0083 29.2719 21.916 29.4311 21.8306C29.5903 21.7464 29.753 21.6691 29.9203 21.601C30.0864 21.5318 30.2572 21.4718 30.4291 21.4199C30.6022 21.3668 30.7764 21.3241 30.9541 21.2884C31.1306 21.2538 31.3083 21.2272 31.4882 21.2099C31.6682 21.1926 31.8482 21.1834 32.0282 21.1834ZM28.9062 27.5694C28.8277 27.5001 28.7677 27.4194 28.7239 27.3259C28.6789 27.2325 28.6558 27.1333 28.6523 27.0294C28.65 26.9267 28.6673 26.8264 28.7054 26.7306C28.7446 26.6348 28.8 26.5495 28.8739 26.4768C28.9477 26.4041 29.0319 26.3487 29.1288 26.3106C29.2246 26.2737 29.325 26.2564 29.4288 26.261C29.5315 26.2645 29.6307 26.2887 29.723 26.3337C29.8165 26.3787 29.8972 26.4399 29.9653 26.5183C30.2872 26.8344 30.5987 27.1586 30.9344 27.499L32.957 25.473C33.3192 25.1107 33.6804 24.7473 34.0438 24.385C34.1107 24.3043 34.1926 24.2408 34.2861 24.1935C34.3807 24.1462 34.4811 24.1208 34.5861 24.1162C34.691 24.1104 34.7926 24.1277 34.8906 24.1658C34.9887 24.2039 35.0752 24.2593 35.1502 24.3343C35.2252 24.4081 35.2818 24.4946 35.3198 24.5927C35.3579 24.6908 35.3752 24.7923 35.3706 24.8973C35.366 25.0034 35.3406 25.1027 35.2933 25.1973C35.2471 25.2919 35.1837 25.3726 35.1029 25.4407C33.9053 26.6441 32.7054 27.8451 31.5021 29.045C31.4317 29.1258 31.3475 29.1892 31.2506 29.2342C31.1525 29.2781 31.0498 29.3011 30.9425 29.3011C30.8352 29.3011 30.7325 29.2781 30.6356 29.2342C30.5376 29.1892 30.4533 29.1258 30.383 29.045C29.8868 28.5581 29.3942 28.0655 28.9062 27.5694Z" fill="#F24E1E"/>
</g>
</g>
</g>
</g>
</svg>
