<svg width="72" height="72" viewBox="0 0 72 72" fill="none" xmlns="http://www.w3.org/2000/svg">
<g id="Group 289">
<rect id="Rectangle 384" width="72" height="72" fill="#E9FFE9"/>
<g id="Clip path group">
<mask id="mask0_4560_21682" style="mask-type:luminance" maskUnits="userSpaceOnUse" x="16" y="12" width="40" height="48">
<g id="7e524269e4">
<path id="Vector" d="M16.501 13.0176H55.499V58.9843H16.501V13.0176Z" fill="white" stroke="white" stroke-width="0.5"/>
</g>
</mask>
<g mask="url(#mask0_4560_21682)">
<g id="Group">
<path id="Vector_2" d="M55.2899 51.0864C54.058 48.9196 52.8246 46.7543 51.5912 44.589C50.629 42.8949 49.6653 41.1978 48.6895 39.4795C48.8698 39.3871 49.032 39.2674 49.1744 39.1234C49.3168 38.9795 49.4335 38.8158 49.5244 38.634C49.6153 38.4522 49.6759 38.2613 49.7062 38.0613C49.7365 37.8597 49.735 37.6597 49.7017 37.4582C49.5608 36.2096 49.4108 34.961 49.2517 33.7155C49.2153 33.5382 49.2623 33.3852 49.3941 33.2609C50.2608 32.3639 51.1185 31.4578 51.9791 30.5562C52.0715 30.4698 52.1549 30.3744 52.2291 30.2698C52.3019 30.1653 52.364 30.0562 52.4155 29.9395C52.467 29.8228 52.5064 29.7016 52.5322 29.5774C52.5595 29.4531 52.5731 29.3258 52.5731 29.1985C52.5746 29.0713 52.5625 28.9455 52.5367 28.8212C52.5125 28.6955 52.4761 28.5743 52.4261 28.4576C52.3761 28.3409 52.3155 28.2288 52.2443 28.1242C52.1716 28.0197 52.0897 27.9227 51.9973 27.8348C51.1654 26.9332 50.3351 26.0286 49.4926 25.1362C49.4138 25.0604 49.3577 24.971 49.3244 24.8664C49.2926 24.7604 49.288 24.6543 49.3123 24.5467C49.4971 23.3042 49.6714 22.0602 49.835 20.8147C49.8578 20.6904 49.8684 20.5677 49.8653 20.4419C49.8623 20.3161 49.8487 20.1934 49.8199 20.0707C49.7926 19.9494 49.7532 19.8313 49.7017 19.7176C49.6502 19.604 49.588 19.4964 49.5138 19.3949C49.4396 19.2933 49.3577 19.2009 49.2653 19.1161C49.1729 19.0327 49.0729 18.9585 48.9653 18.8948C48.8577 18.8297 48.7441 18.7782 48.6259 18.7372C48.5077 18.6963 48.3865 18.6675 48.2622 18.6524C47.0303 18.4099 45.7999 18.1584 44.565 17.9266C44.3741 17.9008 44.2392 17.7993 44.1589 17.6235C43.5376 16.4628 42.9118 15.3037 42.28 14.1491C42.2057 13.993 42.1088 13.8521 41.9906 13.7248C41.8724 13.599 41.7375 13.493 41.586 13.4096C41.4345 13.3248 41.2739 13.2657 41.1042 13.2308C40.9329 13.1975 40.7632 13.1899 40.5905 13.2096C40.2783 13.2399 39.9813 13.3232 39.698 13.4566C38.5888 13.9551 37.4903 14.4748 36.3917 14.9946C36.2311 15.0809 36.072 15.0794 35.9129 14.9885C34.7795 14.4263 33.64 13.8748 32.5036 13.3187C32.396 13.2551 32.2839 13.2035 32.1672 13.1641C32.049 13.1247 31.9293 13.0975 31.8066 13.0823C31.6823 13.0672 31.5596 13.0672 31.4353 13.0778C31.3126 13.0899 31.1914 13.1141 31.0732 13.1505C30.955 13.1884 30.8413 13.2369 30.7338 13.2975C30.6262 13.3596 30.5247 13.4308 30.4322 13.5127C30.3398 13.596 30.2565 13.6869 30.1822 13.7869C30.1095 13.8854 30.0458 13.993 29.9958 14.1051C29.3731 15.2203 28.7609 16.3431 28.129 17.4508C28.0472 17.5857 27.9305 17.6751 27.7775 17.716C26.5229 17.9523 25.2652 18.1705 24.0091 18.3887C23.8833 18.4054 23.7606 18.4342 23.6424 18.4751C23.5227 18.516 23.409 18.569 23.2999 18.6327C23.1924 18.6978 23.0908 18.7721 22.9969 18.8569C22.9045 18.9418 22.8196 19.0342 22.7454 19.1358C22.6711 19.2373 22.6075 19.3464 22.5544 19.46C22.5014 19.5752 22.462 19.6949 22.4332 19.8176C22.4044 19.9404 22.3878 20.0646 22.3847 20.1904C22.3817 20.3161 22.3908 20.4419 22.4135 20.5662C22.5741 21.8223 22.712 23.0815 22.8681 24.3391C22.9014 24.5285 22.8454 24.6892 22.7029 24.8195C21.8574 25.6938 21.0468 26.6029 20.174 27.4515C20.0785 27.5424 19.9921 27.6409 19.9164 27.75C19.8406 27.8575 19.777 27.9727 19.7239 28.0939C19.6724 28.2136 19.6315 28.3394 19.6042 28.4682C19.577 28.597 19.5633 28.7288 19.5633 28.8606C19.5618 28.9925 19.5754 29.1228 19.6012 29.2531C19.627 29.3819 19.6648 29.5077 19.7164 29.6289C19.7679 29.7501 19.8315 29.8653 19.9058 29.9744C19.98 30.0835 20.0649 30.1835 20.1603 30.2759C21.018 31.1532 21.8317 32.073 22.6696 32.9685C22.8044 33.0897 22.8545 33.2412 22.8211 33.42C22.6347 34.6822 22.4665 35.9475 22.2862 37.2127C22.2499 37.4036 22.2453 37.5961 22.2696 37.79C22.2953 37.984 22.3499 38.1688 22.4332 38.3446C22.5166 38.5219 22.6256 38.681 22.759 38.8219C22.8938 38.9643 23.0469 39.0825 23.2181 39.175C23.2848 39.2144 23.3484 39.2583 23.4227 39.3038C23.3681 39.4068 23.3242 39.4947 23.2742 39.5826C21.1074 43.4237 18.9542 47.277 16.7601 51.1045C16.6571 51.2591 16.6025 51.4288 16.598 51.6152C16.5934 51.8016 16.6374 51.9743 16.7313 52.1349C16.8253 52.294 16.9541 52.4183 17.1192 52.5046C17.2844 52.591 17.4586 52.6259 17.6435 52.6122C19.8861 52.5728 22.1286 52.6046 24.3712 52.5925C24.4803 52.5819 24.5818 52.6046 24.6758 52.6607C24.7697 52.7153 24.8394 52.7941 24.8819 52.8941C25.894 54.679 26.9138 56.4579 27.9412 58.2308C28.0078 58.405 28.1169 58.5459 28.27 58.652C28.423 58.7581 28.5927 58.8111 28.7806 58.8096C28.967 58.8096 29.1367 58.7566 29.2882 58.649C29.4413 58.5429 29.5504 58.4005 29.6155 58.2262C31.6869 54.6881 33.7582 51.15 35.8326 47.6134C35.8841 47.5225 35.9447 47.4361 36.019 47.3194C36.0978 47.4482 36.1553 47.5407 36.2099 47.6346C38.2691 51.1939 40.3268 54.7518 42.3845 58.3126C42.4573 58.4944 42.5739 58.6414 42.7346 58.7551C42.8937 58.8687 43.0725 58.9293 43.2679 58.9369C43.4649 58.9263 43.6407 58.8626 43.7983 58.746C43.9559 58.6293 44.068 58.4793 44.1377 58.2959C45.1423 56.4852 46.1621 54.6836 47.1682 52.8728C47.2061 52.7804 47.2682 52.7092 47.3531 52.6577C47.4394 52.6062 47.5319 52.5849 47.6303 52.594C49.8835 52.6062 52.1367 52.6016 54.3884 52.6001C55.3415 52.5986 55.7551 51.9031 55.2899 51.0864ZM21.5256 29.2001C21.4589 29.1273 21.3968 29.05 21.318 28.9591C21.3892 28.8788 21.4528 28.8046 21.5195 28.7318C22.3741 27.8378 23.2196 26.9348 24.0833 26.0498C24.3136 25.8256 24.4788 25.5604 24.5773 25.2543C24.6758 24.9483 24.697 24.6361 24.6394 24.3194C24.4652 23.0951 24.3455 21.8632 24.1818 20.6374C24.1424 20.3449 24.2136 20.2389 24.5121 20.1904C25.7622 19.9873 27.0062 19.757 28.2533 19.5403C28.5518 19.4949 28.823 19.3827 29.0685 19.2055C29.3125 19.0282 29.5034 18.8054 29.6398 18.5357C30.2262 17.4599 30.8277 16.3901 31.4232 15.3188C31.4838 15.2052 31.5505 15.0931 31.6278 14.9612C31.8475 15.0658 32.0551 15.1628 32.2596 15.2628C33.2794 15.7613 34.3022 16.2553 35.3189 16.7583C35.5765 16.8947 35.8523 16.9629 36.1432 16.9644C36.4341 16.9659 36.7099 16.9008 36.9705 16.7689C38.2161 16.1871 39.4692 15.6189 40.7587 15.0294C41.2178 15.8946 41.6602 16.7265 42.1027 17.5599C42.3088 17.9508 42.5088 18.3463 42.7224 18.7327C42.8497 18.9827 43.027 19.1918 43.2528 19.3585C43.4786 19.5237 43.7316 19.6297 44.0089 19.6752C45.312 19.9131 46.6091 20.1858 47.9122 20.4434C47.9607 20.4525 48.0076 20.4692 48.094 20.4934C48.0425 20.8692 47.9955 21.2435 47.9425 21.6162C47.7955 22.6511 47.6394 23.6845 47.5031 24.721C47.4652 24.9846 47.4879 25.2422 47.5712 25.4968C47.6546 25.7498 47.7879 25.9711 47.9758 26.162C48.8516 27.1045 49.7259 28.0485 50.5972 28.9955C50.6654 29.0682 50.729 29.144 50.8093 29.2349L48.7895 31.3214C48.5092 31.6108 48.2334 31.9018 47.9485 32.1866C47.7394 32.3851 47.5894 32.6185 47.4955 32.8912C47.4031 33.1624 47.3773 33.4397 47.4212 33.7231C47.5773 34.9914 47.7258 36.2581 47.8773 37.5264C47.8895 37.634 47.897 37.7431 47.9107 37.884C47.3061 37.987 46.7136 38.087 46.1212 38.187C45.3681 38.3113 44.6104 38.4279 43.8619 38.5628C43.5786 38.6098 43.321 38.7189 43.0891 38.8871C42.8573 39.0568 42.6755 39.2689 42.5452 39.525C41.9345 40.6326 41.3208 41.7403 40.7041 42.8479C40.6556 42.9343 40.6041 43.0207 40.542 43.1252C40.4571 43.0904 40.3768 43.0616 40.2996 43.0237C39.151 42.4646 38.0039 41.9085 36.8614 41.3418C36.5993 41.2039 36.319 41.1342 36.022 41.1327C35.725 41.1312 35.4447 41.1978 35.181 41.3327C34.0203 41.8873 32.8551 42.4312 31.6914 42.9782C31.6035 43.0192 31.5111 43.057 31.4035 43.1055C31.0292 42.4009 30.6656 41.7191 30.3049 41.0372C30.0261 40.5129 29.7519 39.9871 29.4731 39.4644C29.3428 39.1931 29.1549 38.9674 28.9109 38.7901C28.667 38.6128 28.3957 38.5037 28.0957 38.4613C26.7987 38.2476 25.5061 37.99 24.2121 37.7491C24.1439 37.737 24.0788 37.7112 23.9803 37.6824C24.0545 37.1324 24.1288 36.5884 24.2045 36.0445C24.3242 35.1974 24.4455 34.3504 24.5606 33.5034C24.6046 33.2306 24.5834 32.9639 24.5 32.7003C24.4167 32.4366 24.2788 32.2063 24.0879 32.0078C23.2302 31.0759 22.3756 30.1395 21.5256 29.2001ZM52.658 50.7985C50.7684 50.7985 48.8789 50.803 46.9894 50.7939C46.7788 50.7772 46.5833 50.8227 46.4 50.9288C46.2181 51.0333 46.0802 51.1803 45.9893 51.3712C45.1514 52.8819 44.2953 54.3851 43.4482 55.8912C43.3952 55.9852 43.3391 56.0776 43.2497 56.2291L37.4206 46.1133C37.2645 45.8951 37.0705 45.7193 36.8372 45.586C36.6039 45.4542 36.3538 45.3769 36.0856 45.3542C35.7735 45.3496 35.478 45.4178 35.2007 45.5602C34.9219 45.7027 34.6931 45.9012 34.5143 46.1572C31.6338 51.1288 30.508 53.1123 30.1595 53.7668C30.064 53.9487 29.6034 54.7381 28.9882 55.8049C28.9397 55.8897 28.8836 55.97 28.8139 56.0837C28.2609 55.1291 27.7245 54.2093 27.1941 53.2895C26.8229 52.6456 26.4456 52.0046 26.0774 51.3576C25.985 51.1742 25.8501 51.0303 25.6713 50.9273C25.4925 50.8257 25.3001 50.7803 25.0955 50.7924C23.1954 50.8045 21.2953 50.7985 19.3951 50.7969H19.0118C19.0724 50.6803 19.1087 50.5939 19.1557 50.5121C21.1362 47.0043 23.1166 43.4949 25.0955 39.9856C25.1288 39.8947 25.1895 39.8296 25.2758 39.7886C25.3637 39.7492 25.4531 39.7462 25.544 39.7795C26.2229 39.9174 26.9093 40.0159 27.5881 40.1553C27.7396 40.1947 27.8578 40.2811 27.9412 40.4129C28.5609 41.5282 29.1685 42.651 29.7731 43.7738C29.8231 43.8904 29.8852 43.9995 29.958 44.1026C30.0322 44.2056 30.114 44.2995 30.208 44.3859C30.3004 44.4708 30.4004 44.5465 30.5095 44.6102C30.6171 44.6753 30.7322 44.7284 30.852 44.7693C30.9701 44.8102 31.0929 44.839 31.2186 44.8541C31.3444 44.8693 31.4702 44.8723 31.5959 44.8602C31.7217 44.8496 31.8444 44.8269 31.9657 44.7905C32.0869 44.7541 32.202 44.7041 32.3127 44.6435C32.896 44.4117 33.4658 44.1495 34.0219 43.8586C34.4901 43.5859 35.0037 43.3965 35.4735 43.1267C35.6159 43.0389 35.7689 42.9949 35.9341 42.9934C36.0493 42.9934 36.1584 43.0176 36.2614 43.0661C37.3675 43.6162 38.4919 44.1314 39.5874 44.7041C39.701 44.7662 39.8192 44.8147 39.9435 44.8526C40.0662 44.8905 40.1935 44.9147 40.3223 44.9269C40.4496 44.9405 40.5784 44.939 40.7072 44.9253C40.836 44.9117 40.9617 44.8859 41.0845 44.8466C41.2087 44.8072 41.3269 44.7572 41.439 44.695C41.5527 44.6314 41.6572 44.5587 41.7557 44.4753C41.8542 44.3905 41.9436 44.298 42.0239 44.1965C42.1027 44.095 42.1724 43.9859 42.23 43.8707C42.7861 42.7676 43.4255 41.7069 44.0149 40.622C44.1013 40.4372 44.2453 40.3326 44.4483 40.3114C45.1741 40.1902 45.8923 40.0599 46.6121 39.9144C46.6924 39.8841 46.7712 39.8871 46.85 39.922C46.9288 39.9583 46.9833 40.0159 47.0136 40.0962C48.7865 43.2374 50.5669 46.3739 52.3519 49.509C52.5852 49.9181 52.8155 50.3272 53.0822 50.8L52.658 50.7985ZM35.969 38.1052C36.266 38.1067 36.5614 38.0946 36.8569 38.0673C37.1524 38.0385 37.4463 37.9976 37.7373 37.9415C38.0282 37.8855 38.3161 37.8143 38.601 37.7309C38.8858 37.6461 39.1646 37.5476 39.4404 37.4355C39.7147 37.3233 39.9844 37.1976 40.2465 37.0597C40.5087 36.9218 40.7632 36.7703 41.0117 36.6066C41.2587 36.443 41.4981 36.2672 41.7284 36.0808C41.9588 35.8944 42.18 35.6959 42.3906 35.4868C42.6012 35.2777 42.8012 35.0595 42.9906 34.8307C43.18 34.6034 43.3588 34.3656 43.524 34.1201C43.6907 33.8731 43.8437 33.6201 43.9862 33.3594C44.1271 33.0973 44.2544 32.8306 44.3695 32.5563C44.4847 32.2836 44.5862 32.0048 44.6741 31.7214C44.7605 31.4381 44.8347 31.1502 44.8938 30.8593C44.9529 30.5683 44.9984 30.2759 45.0287 29.9804C45.059 29.6849 45.0741 29.3895 45.0756 29.0925C45.0771 28.7955 45.0635 28.4985 45.0362 28.203C45.009 27.9075 44.9665 27.6151 44.9105 27.3227C44.8529 27.0317 44.7817 26.7438 44.6968 26.459C44.612 26.1756 44.5135 25.8953 44.4013 25.621C44.2892 25.3468 44.1634 25.0771 44.024 24.8149C43.8862 24.5528 43.7346 24.2982 43.571 24.0512C43.4058 23.8027 43.2316 23.5648 43.0437 23.3345C42.8558 23.1042 42.6573 22.883 42.4482 22.6724C42.2391 22.4617 42.0209 22.2617 41.7921 22.0723C41.5633 21.8844 41.3254 21.7071 41.0799 21.5405C40.8344 21.3753 40.5799 21.2207 40.3193 21.0813C40.0571 20.9404 39.7904 20.8116 39.5162 20.698C39.2419 20.5828 38.9631 20.4828 38.6797 20.3949C38.3964 20.3086 38.1085 20.2358 37.8176 20.1767C37.5266 20.1176 37.2342 20.0737 36.9387 20.0434C36.6432 20.0131 36.3478 19.9979 36.0508 19.9964C35.7538 19.9964 35.4583 20.0101 35.1628 20.0373C34.8674 20.0661 34.5734 20.1085 34.2825 20.1661C33.9916 20.2222 33.7037 20.2934 33.4188 20.3798C33.1354 20.4646 32.8551 20.5631 32.5809 20.6768C32.3066 20.7889 32.0384 20.9162 31.7763 21.0556C31.5141 21.1935 31.2596 21.3465 31.0126 21.5102C30.7656 21.6738 30.5277 21.8511 30.2974 22.039C30.0671 22.2254 29.8473 22.4254 29.6367 22.6345C29.4261 22.8436 29.2276 23.0633 29.0382 23.2921C28.8488 23.5209 28.673 23.7588 28.5063 24.0058C28.3412 24.2512 28.1881 24.5058 28.0487 24.7664C27.9078 25.0286 27.7805 25.2968 27.6669 25.5695C27.5532 25.8438 27.4517 26.1226 27.3654 26.4074C27.279 26.6908 27.2063 26.9787 27.1487 27.2696C27.0896 27.5606 27.0456 27.853 27.0153 28.1485C26.9865 28.4439 26.9714 28.7409 26.9714 29.0379C26.9714 29.3334 26.9865 29.6274 27.0153 29.9213C27.0441 30.2153 27.0881 30.5077 27.1456 30.7971C27.2032 31.0865 27.2744 31.3729 27.3608 31.6563C27.4457 31.9381 27.5442 32.2169 27.6578 32.4897C27.7699 32.7624 27.8957 33.0306 28.0351 33.2912C28.173 33.5519 28.3245 33.8049 28.4882 34.0504C28.6518 34.2974 28.8261 34.5353 29.014 34.7641C29.2003 34.9929 29.3973 35.2126 29.6049 35.4217C29.814 35.6308 30.0307 35.8308 30.2595 36.0187C30.4868 36.2081 30.7232 36.3839 30.9671 36.549C31.2126 36.7157 31.4641 36.8688 31.7247 37.0082C31.9838 37.1491 32.2505 37.2779 32.5218 37.3915C32.7945 37.5067 33.0718 37.6082 33.3536 37.6961C33.6355 37.784 33.9219 37.8567 34.2098 37.9173C34.4992 37.9764 34.7916 38.0219 35.0856 38.0537C35.378 38.0855 35.6735 38.1022 35.969 38.1052ZM36.0371 21.7965C36.275 21.7965 36.5114 21.8087 36.7478 21.8329C36.9842 21.8571 37.219 21.892 37.4524 21.939C37.6857 21.9859 37.9161 22.0435 38.1433 22.1132C38.3706 22.1829 38.5934 22.2632 38.8131 22.3541C39.0328 22.4466 39.2465 22.5481 39.4571 22.6602C39.6662 22.7724 39.8692 22.8951 40.0662 23.0284C40.2632 23.1603 40.4541 23.3027 40.6375 23.4542C40.8208 23.6057 40.9966 23.7648 41.1648 23.933C41.3314 24.1012 41.4905 24.2785 41.6406 24.4619C41.7921 24.6467 41.933 24.8376 42.0633 25.0361C42.1951 25.2331 42.3164 25.4377 42.4285 25.6483C42.5406 25.8574 42.6406 26.0726 42.7315 26.2923C42.8209 26.512 42.9012 26.7363 42.9694 26.9635C43.0376 27.1923 43.0952 27.4227 43.1406 27.656C43.1861 27.8894 43.221 28.1242 43.2437 28.3606C43.2649 28.597 43.277 28.8349 43.2755 29.0728C43.2755 29.3092 43.2634 29.5471 43.2391 29.7834C43.2149 30.0198 43.1785 30.2547 43.1316 30.488C43.0846 30.7214 43.027 30.9517 42.9573 31.179C42.8876 31.4063 42.8058 31.629 42.7149 31.8487C42.6224 32.0669 42.5209 32.2821 42.4073 32.4912C42.2951 32.7003 42.1724 32.9033 42.0391 33.1003C41.9072 33.2988 41.7648 33.4882 41.6133 33.6716C41.4618 33.8549 41.3011 34.0307 41.1329 34.1974C40.9647 34.3656 40.7875 34.5247 40.6041 34.6747C40.4193 34.8247 40.2283 34.9656 40.0298 35.0959C39.8313 35.2277 39.6283 35.349 39.4177 35.4596C39.2071 35.5717 38.9919 35.6717 38.7722 35.7626C38.5525 35.852 38.3282 35.9323 38.1009 35.999C37.8736 36.0672 37.6433 36.1248 37.41 36.1702C37.1766 36.2157 36.9418 36.249 36.7039 36.2717C36.4675 36.2945 36.2311 36.3051 35.9932 36.3036C35.7553 36.302 35.5174 36.2899 35.281 36.2657C35.0447 36.2414 34.8098 36.2051 34.578 36.1581C34.3446 36.1111 34.1143 36.052 33.887 35.9823C33.6597 35.9126 33.437 35.8308 33.2173 35.7384C32.9991 35.6475 32.7839 35.5444 32.5748 35.4308C32.3657 35.3186 32.1626 35.1959 31.9657 35.0626C31.7687 34.9292 31.5793 34.7868 31.3959 34.6353C31.2126 34.4837 31.0383 34.3231 30.8701 34.1549C30.7035 33.9852 30.5444 33.8079 30.3943 33.6246C30.2443 33.4397 30.1049 33.2488 29.9731 33.0503C29.8428 32.8518 29.7216 32.6473 29.611 32.4366C29.4988 32.2275 29.3988 32.0124 29.3094 31.7911C29.2185 31.5714 29.1397 31.3472 29.073 31.1199C29.0049 30.8911 28.9488 30.6608 28.9033 30.4274C28.8579 30.1941 28.8245 29.9592 28.8018 29.7228C28.7806 29.4864 28.77 29.2485 28.7715 29.0107C28.773 28.7743 28.7867 28.5379 28.8109 28.3015C28.8367 28.0667 28.873 27.8333 28.92 27.6C28.967 27.3681 29.0261 27.1393 29.0973 26.9135C29.167 26.6863 29.2473 26.465 29.3397 26.2468C29.4322 26.0271 29.5337 25.815 29.6458 25.6059C29.7595 25.3983 29.8822 25.1952 30.014 24.9983C30.1474 24.8028 30.2883 24.6134 30.4398 24.43C30.5898 24.2482 30.7504 24.074 30.9186 23.9058C31.0868 23.7391 31.2626 23.5815 31.4459 23.4315C31.6293 23.2815 31.8202 23.1421 32.0172 23.0103C32.2142 22.8799 32.4172 22.7587 32.6263 22.6466C32.8354 22.536 33.0491 22.4345 33.2688 22.3451C33.487 22.2541 33.7112 22.1754 33.937 22.1072C34.1643 22.0375 34.3931 21.9814 34.6264 21.9344C34.8583 21.889 35.0916 21.8541 35.328 21.8314C35.5644 21.8087 35.8008 21.7965 36.0371 21.7965ZM31.9369 30.1835C31.8338 30.0925 31.755 29.9865 31.6975 29.8637C31.6384 29.741 31.6081 29.6107 31.6035 29.4743C31.6005 29.3395 31.6232 29.2076 31.6732 29.0819C31.7247 28.9561 31.7975 28.844 31.8944 28.7485C31.9914 28.6531 32.102 28.5803 32.2293 28.5303C32.3551 28.4818 32.4869 28.4591 32.6233 28.4652C32.7581 28.4697 32.8885 28.5015 33.0097 28.5606C33.1324 28.6197 33.2385 28.7 33.3279 28.8031C33.7506 29.2182 34.1597 29.644 34.6007 30.091L37.2569 27.4302C37.7327 26.9545 38.207 26.4772 38.6843 26.0014C38.7722 25.8953 38.8798 25.812 39.0025 25.7498C39.1267 25.6877 39.2586 25.6544 39.3965 25.6483C39.5343 25.6407 39.6677 25.6635 39.7965 25.7135C39.9253 25.7635 40.0389 25.8362 40.1374 25.9347C40.2359 26.0317 40.3102 26.1453 40.3602 26.2741C40.4102 26.4029 40.4329 26.5362 40.4268 26.6741C40.4208 26.8135 40.3874 26.9438 40.3253 27.0681C40.2647 27.1923 40.1814 27.2984 40.0753 27.3878C38.5025 28.9682 36.9266 30.5456 35.3462 32.1215C35.2538 32.2275 35.1431 32.3109 35.0159 32.37C34.8871 32.4275 34.7522 32.4579 34.6113 32.4579C34.4704 32.4579 34.3355 32.4275 34.2082 32.37C34.0794 32.3109 33.9688 32.2275 33.8764 32.1215C33.2248 31.482 32.5778 30.835 31.9369 30.1835Z" fill="#4CC74C" stroke="#4CC74C" stroke-width="0.5"/>
</g>
</g>
</g>
</g>
</svg>
