<svg width="72" height="72" viewBox="0 0 72 72" fill="none" xmlns="http://www.w3.org/2000/svg">
<g id="Group 292">
<rect id="Rectangle 385" width="72" height="72" fill="#DCFEFF"/>
<g id="Group 277">
<g id="Clip path group">
<mask id="mask0_4560_21872" style="mask-type:luminance" maskUnits="userSpaceOnUse" x="47" y="31" width="12" height="13">
<g id="20256e5bb9">
<path id="Vector" d="M47.4375 31.3438H47.3125V31.4688V43.5523V43.6773H47.4375H58.5003H58.6253V43.5523V31.4688V31.3438H58.5003H47.4375Z" fill="white" stroke="white" stroke-width="0.25"/>
</g>
</mask>
<g mask="url(#mask0_4560_21872)">
<g id="Group">
<path id="Vector_2" d="M51.8118 31.9753C51.806 31.9596 51.8001 31.944 51.7942 31.9287L51.7499 31.813L51.6339 31.8561L51.126 32.045L51.0088 32.0885L51.0525 32.2058C51.072 32.2581 51.0908 32.3105 51.1096 32.3632C50.955 32.4747 50.8094 32.5994 50.6727 32.7362L50.6723 32.7365C50.0241 33.3898 49.666 34.2581 49.666 35.1814C49.666 35.9027 49.8841 36.5891 50.2884 37.1674C49.5534 37.6045 48.929 38.2095 48.4604 38.9352L48.4603 38.9355C47.8825 39.8346 47.5762 40.8786 47.5762 41.9539V42.8101C47.5762 43.136 47.8402 43.4006 48.165 43.4006H51.2094L51.2067 43.4105L51.3189 43.4479L51.8316 43.6188L51.9509 43.6585L51.9899 43.5389L52.0266 43.4266L52.0351 43.4006H58.0365C58.3632 43.4006 58.6253 43.1357 58.6253 42.8101V41.9539C58.6253 40.8404 58.2991 39.7647 57.6813 38.8455C57.22 38.1559 56.617 37.5852 55.9147 37.1675C56.319 36.5891 56.5371 35.9027 56.5371 35.1814C56.5371 34.2581 56.179 33.3898 55.5308 32.7365L55.5307 32.7364C54.8823 32.0847 54.0188 31.7246 53.1016 31.7246C52.6517 31.7246 52.2166 31.8107 51.8118 31.9753ZM56.707 39.5072L56.7071 39.5073C57.1928 40.2303 57.4492 41.0768 57.4492 41.9539V42.2179H48.7539V41.9539C48.7539 41.107 48.9945 40.2858 49.4486 39.5768C49.8737 38.9169 50.4639 38.3851 51.1613 38.0347C51.7281 38.4275 52.3993 38.6397 53.1016 38.6397C53.8038 38.6397 54.475 38.4275 55.0419 38.0348C55.7127 38.372 56.284 38.8756 56.707 39.5072ZM53.1016 32.9072C54.3452 32.9072 55.3594 33.9264 55.3594 35.1814C55.3594 36.4365 54.3451 37.4571 53.1016 37.4571C51.8563 37.4571 50.8421 36.4364 50.8421 35.1814C50.8421 33.9264 51.8562 32.9072 53.1016 32.9072Z" fill="#00BFC6" stroke="#00BFC6" stroke-width="0.25"/>
</g>
</g>
</g>
<g id="Clip path group_2">
<mask id="mask1_4560_21872" style="mask-type:luminance" maskUnits="userSpaceOnUse" x="30" y="13" width="12" height="13">
<g id="10804a3c09">
<path id="Vector_3" d="M30.3535 13.5293H30.2285V13.6543V25.2202V25.3452H30.3535H41.6035H41.7285V25.2202V13.6543V13.5293H41.6035H30.3535Z" fill="white" stroke="white" stroke-width="0.25"/>
</g>
</mask>
<g mask="url(#mask1_4560_21872)">
<g id="Group_2">
<path id="Vector_4" d="M38.6196 18.9708C38.5837 18.9494 38.5476 18.9283 38.5112 18.9077C38.9047 18.3498 39.117 17.6838 39.117 16.9861C39.117 16.0957 38.772 15.2591 38.147 14.6292C37.522 14.001 36.6903 13.6543 35.8065 13.6543C34.9227 13.6543 34.091 14.001 33.466 14.6292L40.284 20.7198C39.8293 20.0423 39.2364 19.4824 38.5458 19.0723C38.571 19.0388 38.5957 19.005 38.6196 18.9708ZM38.6196 18.9708C39.024 18.3935 39.242 17.7058 39.242 16.9861C39.242 16.0628 38.884 15.1945 38.2357 14.5412L38.2356 14.5411C37.5872 13.8893 36.7237 13.5293 35.8065 13.5293C34.8893 13.5293 34.0257 13.8893 33.3774 14.5411L33.3773 14.5412C32.729 15.1945 32.3709 16.0628 32.3709 16.9861C32.3709 17.7074 32.5891 18.3938 32.9934 18.9722L33.0672 19.0738C32.346 19.5011 31.7308 20.0932 31.272 20.8077L31.1673 20.7394C31.1672 20.7395 31.1671 20.7397 31.167 20.7398C31.0983 20.8451 31.035 20.9525 30.975 21.0604C30.8627 21.0907 30.7504 21.1221 30.6381 21.1548L30.5188 21.1896L30.5528 21.3091L30.6681 21.7141C30.4137 22.3606 30.2827 23.0526 30.2827 23.7586V24.6131C30.2827 24.9401 30.5445 25.2052 30.8716 25.2052H40.743C41.0682 25.2052 41.3319 24.9404 41.3319 24.6131V23.7586C41.3319 23.1145 41.2222 22.4812 41.0104 21.8854M38.6196 18.9708C39.3219 19.3899 39.925 19.9606 40.3878 20.6502L40.3879 20.6503C40.5292 20.8614 40.656 21.0813 40.7671 21.3087M40.7671 21.3087C40.7498 21.3032 40.7326 21.2977 40.7153 21.2923L40.6779 21.4116L40.7908 21.3578C40.783 21.3414 40.775 21.325 40.7671 21.3087ZM40.7671 21.3087C40.8594 21.3381 40.9506 21.3685 41.0408 21.3986L41.0413 21.3988L41.1601 21.4384L41.1203 21.5571L41.0104 21.8854M41.0104 21.8854C41.0055 21.8716 41.0006 21.8578 40.9956 21.844L40.8781 21.8868L40.9966 21.9265L41.0104 21.8854ZM32.155 21.3816L32.1551 21.3816C32.5802 20.7216 33.1703 20.1899 33.8662 19.8395C34.4332 20.2321 35.1045 20.4428 35.8065 20.4428C36.5101 20.4428 37.1814 20.2322 37.7483 19.8395C38.4176 20.1767 38.9889 20.6803 39.412 21.3103C39.8978 22.0351 40.1558 22.8817 40.1558 23.7586V24.0226H31.4588V23.7586C31.4588 22.9116 31.6994 22.0888 32.155 21.3816ZM35.8065 14.7103C37.0517 14.7103 38.0659 15.731 38.0659 16.9861C38.0659 18.2411 37.0517 19.2618 35.8065 19.2618C34.5629 19.2618 33.5487 18.2412 33.5487 16.9861C33.5487 15.7309 34.5629 14.7103 35.8065 14.7103Z" fill="#00BFC6" stroke="#00BFC6" stroke-width="0.25"/>
</g>
</g>
</g>
<path id="Vector_5" d="M25.2987 24.7506L25.3965 24.6744L25.3211 24.576L24.9907 24.1447L24.914 24.0446L24.8146 24.1221C24.5689 24.3138 24.3247 24.5137 24.0885 24.7188L23.9948 24.8001L24.0754 24.8944L24.4286 25.3078L24.5105 25.4037L24.6057 25.3209C24.8301 25.1255 25.0643 24.9332 25.2987 24.7506Z" fill="#00BFC6" stroke="#00BFC6" stroke-width="0.25"/>
<path id="Vector_6" d="M30.0031 22.1909L30.1205 22.1497L30.0799 22.0322L29.9025 21.5178L29.8617 21.3995L29.7434 21.4405C29.4495 21.5423 29.1544 21.6554 28.8662 21.7733L28.7508 21.8205L28.7978 21.9361L29.0029 22.4406L29.0501 22.557L29.1662 22.5092C29.4408 22.3961 29.7219 22.2895 30.0031 22.1909Z" fill="#00BFC6" stroke="#00BFC6" stroke-width="0.25"/>
<path id="Vector_7" d="M21.6411 28.6823L21.7099 28.5791L21.6072 28.5095L21.158 28.2051L21.054 28.1347L20.9841 28.239C20.8102 28.4982 20.6413 28.7671 20.4823 29.036L20.4192 29.1426L20.5253 29.2066L20.9891 29.4866L21.0966 29.5515L21.161 29.4437C21.3147 29.1865 21.4763 28.9295 21.6411 28.6823Z" fill="#00BFC6" stroke="#00BFC6" stroke-width="0.25"/>
<path id="Vector_8" d="M26.7724 23.7282L26.8774 23.6629L26.8132 23.5572L26.5317 23.0933L26.4663 22.9857L26.3591 23.0518C26.0937 23.2157 25.8298 23.3878 25.5723 23.5666L25.4701 23.6375L25.5405 23.7401L25.8482 24.1877L25.9193 24.2913L26.0225 24.2195C26.2662 24.0501 26.5199 23.8853 26.7724 23.7282Z" fill="#00BFC6" stroke="#00BFC6" stroke-width="0.25"/>
<path id="Vector_9" d="M28.3467 22.8718L28.4596 22.8184L28.4063 22.7054L28.1736 22.2123L28.1199 22.0985L28.0065 22.1529C27.7266 22.2871 27.4447 22.4297 27.1707 22.579L27.0617 22.6384L27.1203 22.7478L27.3774 23.228L27.4368 23.3388L27.5473 23.2788C27.8092 23.1365 28.0773 22.9993 28.3467 22.8718Z" fill="#00BFC6" stroke="#00BFC6" stroke-width="0.25"/>
<path id="Vector_10" d="M23.9431 25.9273L24.0326 25.8412L23.9471 25.7511L23.5727 25.3572L23.486 25.266L23.3954 25.3534C23.1692 25.5713 22.9478 25.796 22.7346 26.0256L22.6501 26.1166L22.7404 26.2017L23.136 26.5744L23.2274 26.6605L23.3131 26.5687C23.5168 26.3504 23.7285 26.1339 23.9431 25.9273Z" fill="#00BFC6" stroke="#00BFC6" stroke-width="0.25"/>
<path id="Vector_11" d="M22.7185 27.242L22.7975 27.147L22.7034 27.0669L22.29 26.7153L22.194 26.6337L22.1131 26.7303C21.9116 26.9712 21.7148 27.2188 21.5277 27.4699L21.4535 27.5695L21.5526 27.6443L21.9855 27.9715L22.086 28.0475L22.1612 27.9463C22.3385 27.7078 22.5274 27.472 22.7185 27.242Z" fill="#00BFC6" stroke="#00BFC6" stroke-width="0.25"/>
<path id="Vector_12" d="M20.7234 30.2274L20.7804 30.1175L20.6711 30.0595L20.1925 29.8056L20.0818 29.7468L20.0234 29.8578C19.8773 30.1351 19.7379 30.4205 19.6083 30.7058L19.5569 30.8191L19.6699 30.871L20.1614 31.0973L20.2752 31.1496L20.3273 31.0358C20.4517 30.7646 20.5858 30.493 20.7234 30.2274Z" fill="#00BFC6" stroke="#00BFC6" stroke-width="0.25"/>
<path id="Vector_13" d="M27.3685 53.4181L27.3113 53.5285L27.4214 53.5863C27.6871 53.7257 27.9609 53.8601 28.2331 53.9848L28.3473 54.037L28.399 53.9226L28.6237 53.4262L28.6749 53.313L28.562 53.2611C28.3018 53.1415 28.0417 53.0139 27.788 52.8814L27.6769 52.8233L27.6192 52.9346L27.3685 53.4181Z" fill="#00BFC6" stroke="#00BFC6" stroke-width="0.25"/>
<path id="Vector_14" d="M19.9254 44.0371L19.8804 43.9203L19.7636 43.9655L19.2591 44.1608L19.1428 44.2058L19.1875 44.3221C19.2957 44.604 19.412 44.8858 19.5332 45.1611L19.584 45.2765L19.699 45.2247L20.1938 45.0017L20.3069 44.9507L20.2568 44.8372C20.1403 44.5736 20.0288 44.3052 19.9254 44.0371Z" fill="#00BFC6" stroke="#00BFC6" stroke-width="0.25"/>
<path id="Vector_15" d="M20.6281 45.6174L20.5714 45.5054L20.4597 45.5626L19.9763 45.81L19.8655 45.8666L19.9217 45.9777C20.0579 46.2469 20.2038 46.5141 20.3528 46.7743L20.4152 46.8835L20.524 46.8204L20.9927 46.5486L21.1007 46.486L21.0382 46.3779C20.8948 46.1296 20.7575 45.8729 20.6281 45.6174Z" fill="#00BFC6" stroke="#00BFC6" stroke-width="0.25"/>
<path id="Vector_16" d="M28.9925 54.1773L28.9472 54.2929L29.0625 54.339C29.3413 54.4506 29.6268 54.5556 29.9106 54.6508L30.0292 54.6905L30.0689 54.5719L30.2414 54.0559L30.2809 53.9379L30.163 53.8979C29.8917 53.8058 29.6201 53.7056 29.3533 53.6005L29.2368 53.5546L29.1911 53.6711L28.9925 54.1773Z" fill="#00BFC6" stroke="#00BFC6" stroke-width="0.25"/>
<path id="Vector_17" d="M25.8322 52.4927L25.7637 52.5965L25.8672 52.6655C26.1183 52.8329 26.3757 52.9936 26.6329 53.146L26.7409 53.2099L26.8044 53.1017L27.0795 52.6329L27.1424 52.5258L27.0356 52.4622C26.7881 52.315 26.5426 52.1616 26.3053 52.0034L26.2008 51.9337L26.1317 52.0386L25.8322 52.4927Z" fill="#00BFC6" stroke="#00BFC6" stroke-width="0.25"/>
<path id="Vector_18" d="M21.8991 48.8442L21.8028 48.9226L21.8806 49.0194C22.0691 49.2537 22.2657 49.4865 22.4641 49.7094L22.5476 49.8033L22.641 49.7193L23.0447 49.3563L23.1374 49.273L23.0543 49.18C22.8639 48.9671 22.6766 48.7443 22.4973 48.5197L22.4185 48.421L22.3206 48.5007L21.8991 48.8442Z" fill="#00BFC6" stroke="#00BFC6" stroke-width="0.25"/>
<path id="Vector_19" d="M20.8599 47.3771L20.7559 47.4449L20.8231 47.5494C20.9854 47.8019 21.1575 48.0544 21.3329 48.2985L21.4063 48.4008L21.5081 48.3266L21.9475 48.0059L22.048 47.9326L21.9752 47.8318C21.8072 47.5991 21.6424 47.3584 21.4874 47.1178L21.4193 47.0122L21.314 47.0809L20.8599 47.3771Z" fill="#00BFC6" stroke="#00BFC6" stroke-width="0.25"/>
<path id="Vector_20" d="M23.6461 49.8127L23.5579 49.7231L23.4688 49.8118L23.0847 50.1943L22.9969 50.2817L23.0834 50.3702C23.2936 50.5853 23.5134 50.7969 23.7348 50.9987L23.8276 51.0832L23.9118 50.99L24.2764 50.5864L24.3599 50.4939L24.2676 50.4101C24.0562 50.218 23.8463 50.0162 23.6461 49.8127Z" fill="#00BFC6" stroke="#00BFC6" stroke-width="0.25"/>
<path id="Vector_21" d="M24.3992 51.4149L24.3206 51.5113L24.4167 51.5904C24.6475 51.7803 24.8868 51.9688 25.128 52.1476L25.229 52.2225L25.3033 52.1211L25.6255 51.6817L25.6991 51.5814L25.5992 51.5073C25.3681 51.336 25.1403 51.1583 24.9191 50.9758L24.822 50.8958L24.7426 50.9933L24.3992 51.4149Z" fill="#00BFC6" stroke="#00BFC6" stroke-width="0.25"/>
<path id="Vector_22" d="M48.6689 48.1795L48.594 48.2784L48.6924 48.354L49.122 48.6844L49.2215 48.7609L49.2976 48.6611C49.4927 48.4054 49.683 48.1412 49.862 47.8735L49.9308 47.7707L49.8287 47.7009L49.3811 47.3949L49.2773 47.3239L49.2069 47.4281C49.0358 47.6816 48.8548 47.9337 48.6689 48.1795Z" fill="#00BFC6" stroke="#00BFC6" stroke-width="0.25"/>
<path id="Vector_23" d="M46.1324 50.849L46.0373 50.9291L46.1168 51.0247L46.4651 51.443L46.5457 51.5397L46.6419 51.4584C46.8861 51.2519 47.1288 51.0355 47.3618 50.8139L47.4515 50.7287L47.3672 50.6382L46.9978 50.241L46.9121 50.1489L46.8205 50.2352C46.5975 50.4453 46.3665 50.6521 46.1324 50.849Z" fill="#00BFC6" stroke="#00BFC6" stroke-width="0.25"/>
<path id="Vector_24" d="M50.564 45.0129L50.5124 45.1259L50.6252 45.1782L51.1167 45.4061L51.2304 45.4588L51.2828 45.345C51.4174 45.0527 51.5437 44.7526 51.6616 44.453L51.7072 44.3371L51.5915 44.2911L51.0885 44.0909L50.9722 44.0446L50.9261 44.1611C50.8129 44.4473 50.6917 44.7334 50.564 45.0129Z" fill="#00BFC6" stroke="#00BFC6" stroke-width="0.25"/>
<path id="Vector_25" d="M49.7046 46.6487L49.6412 46.7552L49.7473 46.8195L50.2095 47.0994L50.3168 47.1644L50.3814 47.0569C50.5471 46.7813 50.706 46.4978 50.8566 46.2146L50.9152 46.1044L50.8051 46.0457L50.3266 45.7901L50.216 45.731L50.1573 45.8419C50.0133 46.1136 49.8613 46.3853 49.7046 46.6487Z" fill="#00BFC6" stroke="#00BFC6" stroke-width="0.25"/>
<path id="Vector_26" d="M47.4736 49.5839L47.3873 49.6741L47.4775 49.7605L47.8697 50.1365L47.9603 50.2233L48.0468 50.1324C48.2682 49.8995 48.4845 49.6586 48.6926 49.4144L48.7733 49.3198L48.6791 49.2386L48.2673 48.8838L48.1719 48.8016L48.0904 48.8977C47.8916 49.132 47.6849 49.3629 47.4736 49.5839Z" fill="#00BFC6" stroke="#00BFC6" stroke-width="0.25"/>
<path id="Vector_27" d="M41.4027 53.6575L41.2867 53.7023L41.3309 53.8185L41.5246 54.328L41.5694 54.4458L41.6869 54.4C41.9849 54.2837 42.2831 54.1592 42.5748 54.0281L42.6884 53.9771L42.6378 53.8633L42.4165 53.3652L42.3653 53.2502L42.2506 53.3022C41.9729 53.4281 41.687 53.5476 41.4027 53.6575Z" fill="#00BFC6" stroke="#00BFC6" stroke-width="0.25"/>
<path id="Vector_28" d="M43.0778 52.8984L42.9672 52.9557L43.0241 53.0665L43.2731 53.5516L43.3307 53.6639L43.4425 53.6051C43.7257 53.4561 44.0092 53.2988 44.2848 53.1348L44.3913 53.0714L44.3288 52.9644L44.0554 52.4956L43.9919 52.3867L43.8835 52.4512C43.6204 52.6077 43.3492 52.7579 43.0778 52.8984Z" fill="#00BFC6" stroke="#00BFC6" stroke-width="0.25"/>
<path id="Vector_29" d="M44.6629 51.9606L44.5597 52.0296L44.6281 52.1333L44.9276 52.5874L44.997 52.6927L45.1017 52.6223C45.3671 52.4437 45.6325 52.2553 45.8882 52.0635L45.9879 51.9887L45.9133 51.8888L45.5878 51.4526L45.5126 51.3518L45.4123 51.4276C45.1684 51.6117 44.9165 51.791 44.6629 51.9606Z" fill="#00BFC6" stroke="#00BFC6" stroke-width="0.25"/>
<g id="Clip path group_3">
<mask id="mask2_4560_21872" style="mask-type:luminance" maskUnits="userSpaceOnUse" x="13" y="24" width="37" height="35">
<g id="e8ef920558">
<path id="Vector_30" d="M13.5 24.6797H13.375V24.8047V58.3436V58.4686H13.5H49.5206H49.6456V58.3436V24.8047V24.6797H49.5206H13.5Z" fill="white" stroke="white" stroke-width="0.25"/>
</g>
</mask>
<g mask="url(#mask2_4560_21872)">
<g id="Group_3">
<g id="Vector_31">
<mask id="path-32-outside-1_4560_21872" maskUnits="userSpaceOnUse" x="12.5015" y="24.0879" width="37" height="35" fill="black">
<rect fill="white" x="12.5015" y="24.0879" width="37" height="35"/>
<path d="M40.7362 54.6041L40.5718 54.0849C40.51 54.1044 40.4498 54.124 40.3879 54.1435C40.3537 54.0898 40.3195 54.0361 40.2837 53.9824C39.8052 53.2711 39.1737 52.6884 38.4364 52.2733C38.8775 51.6955 39.1167 50.9908 39.1167 50.2502C39.1167 49.3599 38.7717 48.5233 38.1467 47.8934C37.5966 47.3384 36.8853 47.0047 36.1187 46.9315L36.9862 46.0591C37.1246 45.9191 37.1246 45.6928 36.9862 45.5545C36.8479 45.4145 36.6232 45.4145 36.4849 45.5545L36.161 45.8784V43.725C36.6965 43.6925 37.2271 43.5916 37.7463 43.4223C38.5715 43.1537 39.3202 42.7322 39.9696 42.1658C40.5979 41.6189 41.1089 40.963 41.4882 40.2159C41.786 39.6316 41.9911 39.0147 42.1001 38.375H47.9823L47.6731 38.6875C47.5347 38.8259 47.5347 39.0521 47.6731 39.1921C47.7431 39.2621 47.8342 39.2963 47.9237 39.2963C48.0149 39.2963 48.106 39.2621 48.176 39.1921L49.1005 38.2611C49.2388 38.1211 49.2388 37.8949 49.1005 37.7565L48.176 36.8255C48.036 36.6856 47.8114 36.6856 47.6731 36.8255C47.5347 36.9639 47.5347 37.1901 47.6731 37.3301L48.0019 37.6605H42.1832C42.232 36.8581 42.1311 36.0605 41.8837 35.2858C41.6412 34.5322 41.2717 33.8421 40.785 33.2301L41.7551 32.3219L44.5334 32.5872C44.5481 32.5888 44.5627 32.5888 44.5774 32.5888C44.6929 32.5888 44.8069 32.5449 44.8931 32.4635L47.8065 29.7307C47.9384 29.6054 47.9872 29.4133 47.9286 29.2392C47.87 29.0666 47.7154 28.9429 47.5331 28.9267L44.9582 28.6793L44.8947 26.075C44.8899 25.8911 44.7792 25.7284 44.6115 25.6567C44.4439 25.5851 44.2502 25.6193 44.1168 25.7446L41.2033 28.4791C41.1057 28.5686 41.052 28.6972 41.0552 28.8306L41.1236 31.6399L40.1552 32.5465C39.7222 32.1396 39.2339 31.7945 38.6984 31.5195C37.9579 31.137 37.162 30.9058 36.3352 30.8326C36.2766 30.8277 36.2196 30.8228 36.161 30.8196V26.3159L36.4719 26.6301C36.5419 26.6984 36.633 26.7342 36.7225 26.7342C36.8137 26.7342 36.9048 26.6984 36.9748 26.6301C37.1132 26.4901 37.1132 26.2639 36.9748 26.1239L36.0487 25.1929C35.9104 25.0529 35.6857 25.0529 35.5474 25.1929L34.6229 26.1239C34.4846 26.2639 34.4846 26.4901 34.6229 26.6301C34.7613 26.7684 34.9859 26.7684 35.1242 26.6301L35.4514 26.2997V30.8163C34.8947 30.844 34.3413 30.9465 33.8026 31.1223C32.9774 31.3893 32.2287 31.8124 31.5793 32.3788C30.951 32.9241 30.44 33.58 30.0607 34.3271C29.6799 35.0742 29.4504 35.875 29.3788 36.7083C29.3495 37.0274 29.3462 37.3447 29.3657 37.6605H23.8742L24.2274 37.3057C24.3657 37.1673 24.3657 36.9411 24.2274 36.8011C24.089 36.6611 23.8644 36.6611 23.7261 36.8011L22.8016 37.7321C22.6974 37.8363 22.6714 37.9877 22.7219 38.1162C22.3687 37.7598 21.9683 37.4554 21.5321 37.2097C21.9732 36.6318 22.2108 35.9271 22.2108 35.1849C22.2108 34.2962 21.8674 33.458 21.2424 32.8297C20.8338 32.4195 20.3407 32.1298 19.8003 31.9768C19.8198 31.9247 19.8394 31.8727 19.8605 31.8222L19.356 31.622C19.3234 31.705 19.2925 31.788 19.2599 31.8727C19.1428 31.8596 19.0223 31.8531 18.9019 31.8531C18.0164 31.8531 17.1864 32.1998 16.5614 32.8297C15.9364 33.458 15.5913 34.2962 15.5913 35.1849C15.5913 35.9271 15.8306 36.6318 16.2717 37.2097C15.5018 37.6426 14.8491 38.2578 14.3657 39.0066C13.8009 39.8855 13.5015 40.906 13.5015 41.9591V42.8136C13.5015 43.0707 13.7098 43.2791 13.9653 43.2791H18.9556C18.9719 43.3295 18.9881 43.38 19.0028 43.4288L19.4569 43.2791H23.8368C24.0939 43.2791 24.3006 43.0707 24.3006 42.8136V41.9591C24.3006 40.8686 23.9816 39.8187 23.3778 38.9187C23.2883 38.7852 23.1922 38.655 23.093 38.5313L23.7261 39.1677C23.7945 39.2377 23.8856 39.2719 23.9767 39.2719C24.0679 39.2719 24.1574 39.2377 24.2274 39.1677C24.3657 39.0277 24.3657 38.8015 24.2274 38.6631L23.9426 38.375H29.4488C29.4992 38.6729 29.5725 38.9675 29.6652 39.2572C29.9322 40.0873 30.3521 40.8409 30.9136 41.4952C31.4572 42.1283 32.1083 42.6427 32.8505 43.0252C33.591 43.4077 34.3869 43.6388 35.2137 43.712C35.2935 43.7185 35.3732 43.725 35.4514 43.7283V45.8703L35.1372 45.5545C34.9989 45.4145 34.7743 45.4145 34.6343 45.5545C34.496 45.6928 34.496 45.9191 34.6343 46.0591L35.5018 46.9315C34.732 47.0015 34.0191 47.3368 33.4657 47.8934C32.8407 48.5233 32.4973 49.3599 32.4973 50.2502C32.4973 50.9908 32.7349 51.6955 33.176 52.2733C32.4077 52.7063 31.7534 53.3215 31.2717 54.0719C31.2196 54.1533 31.1691 54.2363 31.1203 54.3193C31.065 54.3046 31.008 54.2884 30.951 54.2737L30.8062 54.7978C30.8273 54.8043 30.8485 54.8108 30.8713 54.8157C30.5669 55.5058 30.4074 56.2562 30.4074 57.0228V57.8773C30.4074 58.1344 30.6141 58.3444 30.8697 58.3444H40.7427C40.9983 58.3444 41.2066 58.1344 41.2066 57.8773V57.0228C41.2066 56.1845 41.0178 55.3707 40.6565 54.6302C40.6825 54.622 40.7102 54.6139 40.7362 54.6041ZM18.9019 32.7858C20.2153 32.7858 21.2847 33.8616 21.2847 35.1849C21.2847 36.5081 20.2153 37.5856 18.9019 37.5856C17.5868 37.5856 16.5174 36.5081 16.5174 35.1849C16.5174 33.8616 17.5868 32.7858 18.9019 32.7858ZM23.3745 42.3464H14.4292V41.9574C14.4292 41.0867 14.6766 40.2419 15.1437 39.5127C15.5946 38.8129 16.2261 38.253 16.9715 37.8933C17.5314 38.2985 18.1987 38.5183 18.9019 38.5183C19.6034 38.5183 20.2723 38.2985 20.8306 37.8933C21.55 38.2399 22.162 38.7705 22.6112 39.4411C23.1109 40.185 23.3745 41.0557 23.3745 41.9574V42.3464ZM44.413 31.6383L42.6617 31.4723L44.6262 29.6282L44.6685 29.5891L46.4214 29.7567L44.413 31.6383ZM43.9947 27.1346L44.037 28.9055L42.0302 30.7887L41.9878 29.0178L43.9947 27.1346ZM33.272 42.1951C32.6372 41.8679 32.079 41.4268 31.6151 40.8865C31.135 40.3266 30.7753 39.682 30.5474 38.9707C30.3195 38.2611 30.2365 37.527 30.3016 36.7897C30.3635 36.0768 30.5604 35.3916 30.8843 34.7519C31.2098 34.1123 31.6477 33.5507 32.1848 33.0836C32.7414 32.6002 33.3811 32.2389 34.0874 32.0094C34.6376 31.8303 35.204 31.7392 35.7736 31.7392C35.9331 31.7392 36.0943 31.7473 36.2538 31.7604C36.9618 31.8238 37.6421 32.0208 38.2769 32.3496C38.7164 32.5742 39.1167 32.8541 39.4764 33.1845L38.5552 34.0488C38.2981 33.8242 38.0132 33.6305 37.7056 33.4726C37.2157 33.2203 36.6916 33.0673 36.1447 33.0201C35.58 32.9697 35.0168 33.0332 34.4716 33.2106C33.9279 33.388 33.4348 33.6663 33.0051 34.0407C32.59 34.402 32.2515 34.8349 32.0008 35.3281C31.7502 35.8213 31.5988 36.3503 31.5516 36.8988C31.5012 37.4684 31.5646 38.0349 31.7404 38.5834C31.9162 39.1319 32.1945 39.6283 32.5656 40.0613C32.9237 40.4796 33.3534 40.8181 33.8433 41.0704C34.3332 41.3243 34.8589 41.4757 35.4042 41.5245C35.5295 41.5359 35.6532 41.5408 35.7769 41.5408C36.2163 41.5408 36.6525 41.4708 37.0774 41.3341C37.6226 41.1566 38.1158 40.8767 38.5455 40.504C38.9605 40.1426 39.2974 39.7097 39.5481 39.2165C39.7987 38.7233 39.9501 38.1944 39.9989 37.6442C40.0477 37.0746 39.9843 36.5081 39.8085 35.9613C39.6669 35.5153 39.4569 35.1035 39.1835 34.734L40.1063 33.8681C40.5018 34.3776 40.8029 34.9489 41.0015 35.5723C41.2294 36.2835 41.3124 37.0176 41.2489 37.7549C41.1854 38.4662 40.9901 39.1514 40.6646 39.7911C40.3391 40.4307 39.9012 40.9923 39.3641 41.4594C38.8091 41.9428 38.1678 42.3058 37.4631 42.5352C36.7567 42.7647 36.0275 42.8478 35.2951 42.7826C34.5887 42.7208 33.9068 42.5222 33.272 42.1951ZM38.9279 36.2477C39.1998 37.0941 39.1265 37.999 38.7245 38.7917C38.3208 39.5844 37.634 40.1719 36.7925 40.4454C35.951 40.7188 35.0526 40.6472 34.2648 40.2403C33.4771 39.835 32.8944 39.1449 32.6226 38.2969C32.3508 37.4489 32.4224 36.5456 32.826 35.7529C33.2297 34.9586 33.9149 34.3711 34.7564 34.0976C35.0917 33.9886 35.4367 33.9349 35.7785 33.9349C36.2961 33.9349 36.8104 34.0586 37.2841 34.3027C37.4956 34.4118 37.6926 34.542 37.8733 34.6885L36.9406 35.5625C36.869 35.5137 36.7925 35.4681 36.7128 35.4274C36.2229 35.1751 35.6662 35.1295 35.1421 35.2988C34.6197 35.4697 34.1932 35.8343 33.9426 36.3275C33.6919 36.8206 33.6464 37.3822 33.8156 37.9079C34.0972 38.7852 34.9061 39.3451 35.7769 39.3451C35.9852 39.3451 36.1984 39.3125 36.4068 39.2442C36.9309 39.0733 37.3573 38.7087 37.608 38.2155C37.8586 37.724 37.9025 37.1608 37.7333 36.6351C37.691 36.5 37.634 36.3714 37.5673 36.251L38.5015 35.3737C38.6822 35.639 38.827 35.932 38.9279 36.2477ZM36.8527 36.9216C37.0448 37.5205 36.7176 38.1634 36.1219 38.3571C36.008 38.3946 35.8908 38.4125 35.7753 38.4125C35.2967 38.4125 34.8524 38.1048 34.6962 37.6231C34.6034 37.3317 34.6294 37.0241 34.7661 36.7523C34.9045 36.4805 35.1389 36.2803 35.427 36.1875C35.5409 36.1501 35.6581 36.1305 35.7753 36.1305C35.9315 36.1305 36.0861 36.1631 36.231 36.2282L35.5018 36.9134C35.3147 37.0892 35.3049 37.3838 35.479 37.5726C35.5702 37.6703 35.6939 37.7207 35.8176 37.7207C35.9315 37.7207 36.0438 37.6784 36.1333 37.5954L36.8527 36.9216ZM35.8062 47.8495C37.1213 47.8495 38.1906 48.9269 38.1906 50.2502C38.1906 51.5735 37.1213 52.6493 35.8062 52.6493C34.4927 52.6493 33.4234 51.5735 33.4234 50.2502C33.4234 48.9269 34.4927 47.8495 35.8062 47.8495ZM40.2805 57.4118H31.3335V57.0228C31.3335 56.1504 31.5809 55.3056 32.0497 54.5781C32.5005 53.8766 33.132 53.3183 33.8775 52.9586C34.4357 53.3639 35.1047 53.582 35.8062 53.582C36.5093 53.582 37.1783 53.3639 37.7365 52.9586C38.4543 53.3036 39.0663 53.8359 39.5155 54.5048C40.0152 55.2487 40.2805 56.1194 40.2805 57.0228V57.4118Z"/>
</mask>
<path d="M40.7362 54.6041L40.5718 54.0849C40.51 54.1044 40.4498 54.124 40.3879 54.1435C40.3537 54.0898 40.3195 54.0361 40.2837 53.9824C39.8052 53.2711 39.1737 52.6884 38.4364 52.2733C38.8775 51.6955 39.1167 50.9908 39.1167 50.2502C39.1167 49.3599 38.7717 48.5233 38.1467 47.8934C37.5966 47.3384 36.8853 47.0047 36.1187 46.9315L36.9862 46.0591C37.1246 45.9191 37.1246 45.6928 36.9862 45.5545C36.8479 45.4145 36.6232 45.4145 36.4849 45.5545L36.161 45.8784V43.725C36.6965 43.6925 37.2271 43.5916 37.7463 43.4223C38.5715 43.1537 39.3202 42.7322 39.9696 42.1658C40.5979 41.6189 41.1089 40.963 41.4882 40.2159C41.786 39.6316 41.9911 39.0147 42.1001 38.375H47.9823L47.6731 38.6875C47.5347 38.8259 47.5347 39.0521 47.6731 39.1921C47.7431 39.2621 47.8342 39.2963 47.9237 39.2963C48.0149 39.2963 48.106 39.2621 48.176 39.1921L49.1005 38.2611C49.2388 38.1211 49.2388 37.8949 49.1005 37.7565L48.176 36.8255C48.036 36.6856 47.8114 36.6856 47.6731 36.8255C47.5347 36.9639 47.5347 37.1901 47.6731 37.3301L48.0019 37.6605H42.1832C42.232 36.8581 42.1311 36.0605 41.8837 35.2858C41.6412 34.5322 41.2717 33.8421 40.785 33.2301L41.7551 32.3219L44.5334 32.5872C44.5481 32.5888 44.5627 32.5888 44.5774 32.5888C44.6929 32.5888 44.8069 32.5449 44.8931 32.4635L47.8065 29.7307C47.9384 29.6054 47.9872 29.4133 47.9286 29.2392C47.87 29.0666 47.7154 28.9429 47.5331 28.9267L44.9582 28.6793L44.8947 26.075C44.8899 25.8911 44.7792 25.7284 44.6115 25.6567C44.4439 25.5851 44.2502 25.6193 44.1168 25.7446L41.2033 28.4791C41.1057 28.5686 41.052 28.6972 41.0552 28.8306L41.1236 31.6399L40.1552 32.5465C39.7222 32.1396 39.2339 31.7945 38.6984 31.5195C37.9579 31.137 37.162 30.9058 36.3352 30.8326C36.2766 30.8277 36.2196 30.8228 36.161 30.8196V26.3159L36.4719 26.6301C36.5419 26.6984 36.633 26.7342 36.7225 26.7342C36.8137 26.7342 36.9048 26.6984 36.9748 26.6301C37.1132 26.4901 37.1132 26.2639 36.9748 26.1239L36.0487 25.1929C35.9104 25.0529 35.6857 25.0529 35.5474 25.1929L34.6229 26.1239C34.4846 26.2639 34.4846 26.4901 34.6229 26.6301C34.7613 26.7684 34.9859 26.7684 35.1242 26.6301L35.4514 26.2997V30.8163C34.8947 30.844 34.3413 30.9465 33.8026 31.1223C32.9774 31.3893 32.2287 31.8124 31.5793 32.3788C30.951 32.9241 30.44 33.58 30.0607 34.3271C29.6799 35.0742 29.4504 35.875 29.3788 36.7083C29.3495 37.0274 29.3462 37.3447 29.3657 37.6605H23.8742L24.2274 37.3057C24.3657 37.1673 24.3657 36.9411 24.2274 36.8011C24.089 36.6611 23.8644 36.6611 23.7261 36.8011L22.8016 37.7321C22.6974 37.8363 22.6714 37.9877 22.7219 38.1162C22.3687 37.7598 21.9683 37.4554 21.5321 37.2097C21.9732 36.6318 22.2108 35.9271 22.2108 35.1849C22.2108 34.2962 21.8674 33.458 21.2424 32.8297C20.8338 32.4195 20.3407 32.1298 19.8003 31.9768C19.8198 31.9247 19.8394 31.8727 19.8605 31.8222L19.356 31.622C19.3234 31.705 19.2925 31.788 19.2599 31.8727C19.1428 31.8596 19.0223 31.8531 18.9019 31.8531C18.0164 31.8531 17.1864 32.1998 16.5614 32.8297C15.9364 33.458 15.5913 34.2962 15.5913 35.1849C15.5913 35.9271 15.8306 36.6318 16.2717 37.2097C15.5018 37.6426 14.8491 38.2578 14.3657 39.0066C13.8009 39.8855 13.5015 40.906 13.5015 41.9591V42.8136C13.5015 43.0707 13.7098 43.2791 13.9653 43.2791H18.9556C18.9719 43.3295 18.9881 43.38 19.0028 43.4288L19.4569 43.2791H23.8368C24.0939 43.2791 24.3006 43.0707 24.3006 42.8136V41.9591C24.3006 40.8686 23.9816 39.8187 23.3778 38.9187C23.2883 38.7852 23.1922 38.655 23.093 38.5313L23.7261 39.1677C23.7945 39.2377 23.8856 39.2719 23.9767 39.2719C24.0679 39.2719 24.1574 39.2377 24.2274 39.1677C24.3657 39.0277 24.3657 38.8015 24.2274 38.6631L23.9426 38.375H29.4488C29.4992 38.6729 29.5725 38.9675 29.6652 39.2572C29.9322 40.0873 30.3521 40.8409 30.9136 41.4952C31.4572 42.1283 32.1083 42.6427 32.8505 43.0252C33.591 43.4077 34.3869 43.6388 35.2137 43.712C35.2935 43.7185 35.3732 43.725 35.4514 43.7283V45.8703L35.1372 45.5545C34.9989 45.4145 34.7743 45.4145 34.6343 45.5545C34.496 45.6928 34.496 45.9191 34.6343 46.0591L35.5018 46.9315C34.732 47.0015 34.0191 47.3368 33.4657 47.8934C32.8407 48.5233 32.4973 49.3599 32.4973 50.2502C32.4973 50.9908 32.7349 51.6955 33.176 52.2733C32.4077 52.7063 31.7534 53.3215 31.2717 54.0719C31.2196 54.1533 31.1691 54.2363 31.1203 54.3193C31.065 54.3046 31.008 54.2884 30.951 54.2737L30.8062 54.7978C30.8273 54.8043 30.8485 54.8108 30.8713 54.8157C30.5669 55.5058 30.4074 56.2562 30.4074 57.0228V57.8773C30.4074 58.1344 30.6141 58.3444 30.8697 58.3444H40.7427C40.9983 58.3444 41.2066 58.1344 41.2066 57.8773V57.0228C41.2066 56.1845 41.0178 55.3707 40.6565 54.6302C40.6825 54.622 40.7102 54.6139 40.7362 54.6041ZM18.9019 32.7858C20.2153 32.7858 21.2847 33.8616 21.2847 35.1849C21.2847 36.5081 20.2153 37.5856 18.9019 37.5856C17.5868 37.5856 16.5174 36.5081 16.5174 35.1849C16.5174 33.8616 17.5868 32.7858 18.9019 32.7858ZM23.3745 42.3464H14.4292V41.9574C14.4292 41.0867 14.6766 40.2419 15.1437 39.5127C15.5946 38.8129 16.2261 38.253 16.9715 37.8933C17.5314 38.2985 18.1987 38.5183 18.9019 38.5183C19.6034 38.5183 20.2723 38.2985 20.8306 37.8933C21.55 38.2399 22.162 38.7705 22.6112 39.4411C23.1109 40.185 23.3745 41.0557 23.3745 41.9574V42.3464ZM44.413 31.6383L42.6617 31.4723L44.6262 29.6282L44.6685 29.5891L46.4214 29.7567L44.413 31.6383ZM43.9947 27.1346L44.037 28.9055L42.0302 30.7887L41.9878 29.0178L43.9947 27.1346ZM33.272 42.1951C32.6372 41.8679 32.079 41.4268 31.6151 40.8865C31.135 40.3266 30.7753 39.682 30.5474 38.9707C30.3195 38.2611 30.2365 37.527 30.3016 36.7897C30.3635 36.0768 30.5604 35.3916 30.8843 34.7519C31.2098 34.1123 31.6477 33.5507 32.1848 33.0836C32.7414 32.6002 33.3811 32.2389 34.0874 32.0094C34.6376 31.8303 35.204 31.7392 35.7736 31.7392C35.9331 31.7392 36.0943 31.7473 36.2538 31.7604C36.9618 31.8238 37.6421 32.0208 38.2769 32.3496C38.7164 32.5742 39.1167 32.8541 39.4764 33.1845L38.5552 34.0488C38.2981 33.8242 38.0132 33.6305 37.7056 33.4726C37.2157 33.2203 36.6916 33.0673 36.1447 33.0201C35.58 32.9697 35.0168 33.0332 34.4716 33.2106C33.9279 33.388 33.4348 33.6663 33.0051 34.0407C32.59 34.402 32.2515 34.8349 32.0008 35.3281C31.7502 35.8213 31.5988 36.3503 31.5516 36.8988C31.5012 37.4684 31.5646 38.0349 31.7404 38.5834C31.9162 39.1319 32.1945 39.6283 32.5656 40.0613C32.9237 40.4796 33.3534 40.8181 33.8433 41.0704C34.3332 41.3243 34.8589 41.4757 35.4042 41.5245C35.5295 41.5359 35.6532 41.5408 35.7769 41.5408C36.2163 41.5408 36.6525 41.4708 37.0774 41.3341C37.6226 41.1566 38.1158 40.8767 38.5455 40.504C38.9605 40.1426 39.2974 39.7097 39.5481 39.2165C39.7987 38.7233 39.9501 38.1944 39.9989 37.6442C40.0477 37.0746 39.9843 36.5081 39.8085 35.9613C39.6669 35.5153 39.4569 35.1035 39.1835 34.734L40.1063 33.8681C40.5018 34.3776 40.8029 34.9489 41.0015 35.5723C41.2294 36.2835 41.3124 37.0176 41.2489 37.7549C41.1854 38.4662 40.9901 39.1514 40.6646 39.7911C40.3391 40.4307 39.9012 40.9923 39.3641 41.4594C38.8091 41.9428 38.1678 42.3058 37.4631 42.5352C36.7567 42.7647 36.0275 42.8478 35.2951 42.7826C34.5887 42.7208 33.9068 42.5222 33.272 42.1951ZM38.9279 36.2477C39.1998 37.0941 39.1265 37.999 38.7245 38.7917C38.3208 39.5844 37.634 40.1719 36.7925 40.4454C35.951 40.7188 35.0526 40.6472 34.2648 40.2403C33.4771 39.835 32.8944 39.1449 32.6226 38.2969C32.3508 37.4489 32.4224 36.5456 32.826 35.7529C33.2297 34.9586 33.9149 34.3711 34.7564 34.0976C35.0917 33.9886 35.4367 33.9349 35.7785 33.9349C36.2961 33.9349 36.8104 34.0586 37.2841 34.3027C37.4956 34.4118 37.6926 34.542 37.8733 34.6885L36.9406 35.5625C36.869 35.5137 36.7925 35.4681 36.7128 35.4274C36.2229 35.1751 35.6662 35.1295 35.1421 35.2988C34.6197 35.4697 34.1932 35.8343 33.9426 36.3275C33.6919 36.8206 33.6464 37.3822 33.8156 37.9079C34.0972 38.7852 34.9061 39.3451 35.7769 39.3451C35.9852 39.3451 36.1984 39.3125 36.4068 39.2442C36.9309 39.0733 37.3573 38.7087 37.608 38.2155C37.8586 37.724 37.9025 37.1608 37.7333 36.6351C37.691 36.5 37.634 36.3714 37.5673 36.251L38.5015 35.3737C38.6822 35.639 38.827 35.932 38.9279 36.2477ZM36.8527 36.9216C37.0448 37.5205 36.7176 38.1634 36.1219 38.3571C36.008 38.3946 35.8908 38.4125 35.7753 38.4125C35.2967 38.4125 34.8524 38.1048 34.6962 37.6231C34.6034 37.3317 34.6294 37.0241 34.7661 36.7523C34.9045 36.4805 35.1389 36.2803 35.427 36.1875C35.5409 36.1501 35.6581 36.1305 35.7753 36.1305C35.9315 36.1305 36.0861 36.1631 36.231 36.2282L35.5018 36.9134C35.3147 37.0892 35.3049 37.3838 35.479 37.5726C35.5702 37.6703 35.6939 37.7207 35.8176 37.7207C35.9315 37.7207 36.0438 37.6784 36.1333 37.5954L36.8527 36.9216ZM35.8062 47.8495C37.1213 47.8495 38.1906 48.9269 38.1906 50.2502C38.1906 51.5735 37.1213 52.6493 35.8062 52.6493C34.4927 52.6493 33.4234 51.5735 33.4234 50.2502C33.4234 48.9269 34.4927 47.8495 35.8062 47.8495ZM40.2805 57.4118H31.3335V57.0228C31.3335 56.1504 31.5809 55.3056 32.0497 54.5781C32.5005 53.8766 33.132 53.3183 33.8775 52.9586C34.4357 53.3639 35.1047 53.582 35.8062 53.582C36.5093 53.582 37.1783 53.3639 37.7365 52.9586C38.4543 53.3036 39.0663 53.8359 39.5155 54.5048C40.0152 55.2487 40.2805 56.1194 40.2805 57.0228V57.4118Z" fill="#00BFC6"/>
<path d="M40.7362 54.6041L40.5718 54.0849C40.51 54.1044 40.4498 54.124 40.3879 54.1435C40.3537 54.0898 40.3195 54.0361 40.2837 53.9824C39.8052 53.2711 39.1737 52.6884 38.4364 52.2733C38.8775 51.6955 39.1167 50.9908 39.1167 50.2502C39.1167 49.3599 38.7717 48.5233 38.1467 47.8934C37.5966 47.3384 36.8853 47.0047 36.1187 46.9315L36.9862 46.0591C37.1246 45.9191 37.1246 45.6928 36.9862 45.5545C36.8479 45.4145 36.6232 45.4145 36.4849 45.5545L36.161 45.8784V43.725C36.6965 43.6925 37.2271 43.5916 37.7463 43.4223C38.5715 43.1537 39.3202 42.7322 39.9696 42.1658C40.5979 41.6189 41.1089 40.963 41.4882 40.2159C41.786 39.6316 41.9911 39.0147 42.1001 38.375H47.9823L47.6731 38.6875C47.5347 38.8259 47.5347 39.0521 47.6731 39.1921C47.7431 39.2621 47.8342 39.2963 47.9237 39.2963C48.0149 39.2963 48.106 39.2621 48.176 39.1921L49.1005 38.2611C49.2388 38.1211 49.2388 37.8949 49.1005 37.7565L48.176 36.8255C48.036 36.6856 47.8114 36.6856 47.6731 36.8255C47.5347 36.9639 47.5347 37.1901 47.6731 37.3301L48.0019 37.6605H42.1832C42.232 36.8581 42.1311 36.0605 41.8837 35.2858C41.6412 34.5322 41.2717 33.8421 40.785 33.2301L41.7551 32.3219L44.5334 32.5872C44.5481 32.5888 44.5627 32.5888 44.5774 32.5888C44.6929 32.5888 44.8069 32.5449 44.8931 32.4635L47.8065 29.7307C47.9384 29.6054 47.9872 29.4133 47.9286 29.2392C47.87 29.0666 47.7154 28.9429 47.5331 28.9267L44.9582 28.6793L44.8947 26.075C44.8899 25.8911 44.7792 25.7284 44.6115 25.6567C44.4439 25.5851 44.2502 25.6193 44.1168 25.7446L41.2033 28.4791C41.1057 28.5686 41.052 28.6972 41.0552 28.8306L41.1236 31.6399L40.1552 32.5465C39.7222 32.1396 39.2339 31.7945 38.6984 31.5195C37.9579 31.137 37.162 30.9058 36.3352 30.8326C36.2766 30.8277 36.2196 30.8228 36.161 30.8196V26.3159L36.4719 26.6301C36.5419 26.6984 36.633 26.7342 36.7225 26.7342C36.8137 26.7342 36.9048 26.6984 36.9748 26.6301C37.1132 26.4901 37.1132 26.2639 36.9748 26.1239L36.0487 25.1929C35.9104 25.0529 35.6857 25.0529 35.5474 25.1929L34.6229 26.1239C34.4846 26.2639 34.4846 26.4901 34.6229 26.6301C34.7613 26.7684 34.9859 26.7684 35.1242 26.6301L35.4514 26.2997V30.8163C34.8947 30.844 34.3413 30.9465 33.8026 31.1223C32.9774 31.3893 32.2287 31.8124 31.5793 32.3788C30.951 32.9241 30.44 33.58 30.0607 34.3271C29.6799 35.0742 29.4504 35.875 29.3788 36.7083C29.3495 37.0274 29.3462 37.3447 29.3657 37.6605H23.8742L24.2274 37.3057C24.3657 37.1673 24.3657 36.9411 24.2274 36.8011C24.089 36.6611 23.8644 36.6611 23.7261 36.8011L22.8016 37.7321C22.6974 37.8363 22.6714 37.9877 22.7219 38.1162C22.3687 37.7598 21.9683 37.4554 21.5321 37.2097C21.9732 36.6318 22.2108 35.9271 22.2108 35.1849C22.2108 34.2962 21.8674 33.458 21.2424 32.8297C20.8338 32.4195 20.3407 32.1298 19.8003 31.9768C19.8198 31.9247 19.8394 31.8727 19.8605 31.8222L19.356 31.622C19.3234 31.705 19.2925 31.788 19.2599 31.8727C19.1428 31.8596 19.0223 31.8531 18.9019 31.8531C18.0164 31.8531 17.1864 32.1998 16.5614 32.8297C15.9364 33.458 15.5913 34.2962 15.5913 35.1849C15.5913 35.9271 15.8306 36.6318 16.2717 37.2097C15.5018 37.6426 14.8491 38.2578 14.3657 39.0066C13.8009 39.8855 13.5015 40.906 13.5015 41.9591V42.8136C13.5015 43.0707 13.7098 43.2791 13.9653 43.2791H18.9556C18.9719 43.3295 18.9881 43.38 19.0028 43.4288L19.4569 43.2791H23.8368C24.0939 43.2791 24.3006 43.0707 24.3006 42.8136V41.9591C24.3006 40.8686 23.9816 39.8187 23.3778 38.9187C23.2883 38.7852 23.1922 38.655 23.093 38.5313L23.7261 39.1677C23.7945 39.2377 23.8856 39.2719 23.9767 39.2719C24.0679 39.2719 24.1574 39.2377 24.2274 39.1677C24.3657 39.0277 24.3657 38.8015 24.2274 38.6631L23.9426 38.375H29.4488C29.4992 38.6729 29.5725 38.9675 29.6652 39.2572C29.9322 40.0873 30.3521 40.8409 30.9136 41.4952C31.4572 42.1283 32.1083 42.6427 32.8505 43.0252C33.591 43.4077 34.3869 43.6388 35.2137 43.712C35.2935 43.7185 35.3732 43.725 35.4514 43.7283V45.8703L35.1372 45.5545C34.9989 45.4145 34.7743 45.4145 34.6343 45.5545C34.496 45.6928 34.496 45.9191 34.6343 46.0591L35.5018 46.9315C34.732 47.0015 34.0191 47.3368 33.4657 47.8934C32.8407 48.5233 32.4973 49.3599 32.4973 50.2502C32.4973 50.9908 32.7349 51.6955 33.176 52.2733C32.4077 52.7063 31.7534 53.3215 31.2717 54.0719C31.2196 54.1533 31.1691 54.2363 31.1203 54.3193C31.065 54.3046 31.008 54.2884 30.951 54.2737L30.8062 54.7978C30.8273 54.8043 30.8485 54.8108 30.8713 54.8157C30.5669 55.5058 30.4074 56.2562 30.4074 57.0228V57.8773C30.4074 58.1344 30.6141 58.3444 30.8697 58.3444H40.7427C40.9983 58.3444 41.2066 58.1344 41.2066 57.8773V57.0228C41.2066 56.1845 41.0178 55.3707 40.6565 54.6302C40.6825 54.622 40.7102 54.6139 40.7362 54.6041ZM18.9019 32.7858C20.2153 32.7858 21.2847 33.8616 21.2847 35.1849C21.2847 36.5081 20.2153 37.5856 18.9019 37.5856C17.5868 37.5856 16.5174 36.5081 16.5174 35.1849C16.5174 33.8616 17.5868 32.7858 18.9019 32.7858ZM23.3745 42.3464H14.4292V41.9574C14.4292 41.0867 14.6766 40.2419 15.1437 39.5127C15.5946 38.8129 16.2261 38.253 16.9715 37.8933C17.5314 38.2985 18.1987 38.5183 18.9019 38.5183C19.6034 38.5183 20.2723 38.2985 20.8306 37.8933C21.55 38.2399 22.162 38.7705 22.6112 39.4411C23.1109 40.185 23.3745 41.0557 23.3745 41.9574V42.3464ZM44.413 31.6383L42.6617 31.4723L44.6262 29.6282L44.6685 29.5891L46.4214 29.7567L44.413 31.6383ZM43.9947 27.1346L44.037 28.9055L42.0302 30.7887L41.9878 29.0178L43.9947 27.1346ZM33.272 42.1951C32.6372 41.8679 32.079 41.4268 31.6151 40.8865C31.135 40.3266 30.7753 39.682 30.5474 38.9707C30.3195 38.2611 30.2365 37.527 30.3016 36.7897C30.3635 36.0768 30.5604 35.3916 30.8843 34.7519C31.2098 34.1123 31.6477 33.5507 32.1848 33.0836C32.7414 32.6002 33.3811 32.2389 34.0874 32.0094C34.6376 31.8303 35.204 31.7392 35.7736 31.7392C35.9331 31.7392 36.0943 31.7473 36.2538 31.7604C36.9618 31.8238 37.6421 32.0208 38.2769 32.3496C38.7164 32.5742 39.1167 32.8541 39.4764 33.1845L38.5552 34.0488C38.2981 33.8242 38.0132 33.6305 37.7056 33.4726C37.2157 33.2203 36.6916 33.0673 36.1447 33.0201C35.58 32.9697 35.0168 33.0332 34.4716 33.2106C33.9279 33.388 33.4348 33.6663 33.0051 34.0407C32.59 34.402 32.2515 34.8349 32.0008 35.3281C31.7502 35.8213 31.5988 36.3503 31.5516 36.8988C31.5012 37.4684 31.5646 38.0349 31.7404 38.5834C31.9162 39.1319 32.1945 39.6283 32.5656 40.0613C32.9237 40.4796 33.3534 40.8181 33.8433 41.0704C34.3332 41.3243 34.8589 41.4757 35.4042 41.5245C35.5295 41.5359 35.6532 41.5408 35.7769 41.5408C36.2163 41.5408 36.6525 41.4708 37.0774 41.3341C37.6226 41.1566 38.1158 40.8767 38.5455 40.504C38.9605 40.1426 39.2974 39.7097 39.5481 39.2165C39.7987 38.7233 39.9501 38.1944 39.9989 37.6442C40.0477 37.0746 39.9843 36.5081 39.8085 35.9613C39.6669 35.5153 39.4569 35.1035 39.1835 34.734L40.1063 33.8681C40.5018 34.3776 40.8029 34.9489 41.0015 35.5723C41.2294 36.2835 41.3124 37.0176 41.2489 37.7549C41.1854 38.4662 40.9901 39.1514 40.6646 39.7911C40.3391 40.4307 39.9012 40.9923 39.3641 41.4594C38.8091 41.9428 38.1678 42.3058 37.4631 42.5352C36.7567 42.7647 36.0275 42.8478 35.2951 42.7826C34.5887 42.7208 33.9068 42.5222 33.272 42.1951ZM38.9279 36.2477C39.1998 37.0941 39.1265 37.999 38.7245 38.7917C38.3208 39.5844 37.634 40.1719 36.7925 40.4454C35.951 40.7188 35.0526 40.6472 34.2648 40.2403C33.4771 39.835 32.8944 39.1449 32.6226 38.2969C32.3508 37.4489 32.4224 36.5456 32.826 35.7529C33.2297 34.9586 33.9149 34.3711 34.7564 34.0976C35.0917 33.9886 35.4367 33.9349 35.7785 33.9349C36.2961 33.9349 36.8104 34.0586 37.2841 34.3027C37.4956 34.4118 37.6926 34.542 37.8733 34.6885L36.9406 35.5625C36.869 35.5137 36.7925 35.4681 36.7128 35.4274C36.2229 35.1751 35.6662 35.1295 35.1421 35.2988C34.6197 35.4697 34.1932 35.8343 33.9426 36.3275C33.6919 36.8206 33.6464 37.3822 33.8156 37.9079C34.0972 38.7852 34.9061 39.3451 35.7769 39.3451C35.9852 39.3451 36.1984 39.3125 36.4068 39.2442C36.9309 39.0733 37.3573 38.7087 37.608 38.2155C37.8586 37.724 37.9025 37.1608 37.7333 36.6351C37.691 36.5 37.634 36.3714 37.5673 36.251L38.5015 35.3737C38.6822 35.639 38.827 35.932 38.9279 36.2477ZM36.8527 36.9216C37.0448 37.5205 36.7176 38.1634 36.1219 38.3571C36.008 38.3946 35.8908 38.4125 35.7753 38.4125C35.2967 38.4125 34.8524 38.1048 34.6962 37.6231C34.6034 37.3317 34.6294 37.0241 34.7661 36.7523C34.9045 36.4805 35.1389 36.2803 35.427 36.1875C35.5409 36.1501 35.6581 36.1305 35.7753 36.1305C35.9315 36.1305 36.0861 36.1631 36.231 36.2282L35.5018 36.9134C35.3147 37.0892 35.3049 37.3838 35.479 37.5726C35.5702 37.6703 35.6939 37.7207 35.8176 37.7207C35.9315 37.7207 36.0438 37.6784 36.1333 37.5954L36.8527 36.9216ZM35.8062 47.8495C37.1213 47.8495 38.1906 48.9269 38.1906 50.2502C38.1906 51.5735 37.1213 52.6493 35.8062 52.6493C34.4927 52.6493 33.4234 51.5735 33.4234 50.2502C33.4234 48.9269 34.4927 47.8495 35.8062 47.8495ZM40.2805 57.4118H31.3335V57.0228C31.3335 56.1504 31.5809 55.3056 32.0497 54.5781C32.5005 53.8766 33.132 53.3183 33.8775 52.9586C34.4357 53.3639 35.1047 53.582 35.8062 53.582C36.5093 53.582 37.1783 53.3639 37.7365 52.9586C38.4543 53.3036 39.0663 53.8359 39.5155 54.5048C40.0152 55.2487 40.2805 56.1194 40.2805 57.0228V57.4118Z" stroke="#00BFC6" stroke-width="0.5" mask="url(#path-32-outside-1_4560_21872)"/>
</g>
</g>
</g>
</g>
<path id="Vector_32" d="M49.6419 28.0572L49.7431 27.9851L49.6716 27.8835C49.4962 27.6344 49.3126 27.3868 49.1239 27.1473L49.046 27.0483L48.9476 27.127L48.5245 27.4655L48.428 27.5427L48.504 27.64C48.6819 27.8681 48.8582 28.1042 49.0262 28.3417L49.0986 28.4441L49.2008 28.3714L49.6419 28.0572Z" fill="#00BFC6" stroke="#00BFC6" stroke-width="0.25"/>
<path id="Vector_33" d="M50.5997 29.6008L50.7076 29.5395L50.647 29.4312C50.4995 29.1673 50.3421 28.9017 50.1798 28.6443L50.1128 28.538L50.0069 28.6055L49.5495 28.8969L49.445 28.9634L49.5107 29.0685C49.6643 29.3142 49.8146 29.5681 49.9569 29.8219L50.0184 29.9316L50.1277 29.8694L50.5997 29.6008Z" fill="#00BFC6" stroke="#00BFC6" stroke-width="0.25"/>
<path id="Vector_34" d="M50.729 31.3932L50.7785 31.509L50.8939 31.4587L51.3903 31.2422L51.504 31.1926L51.4553 31.0785C51.3357 30.7984 51.2078 30.5179 51.0732 30.2454L51.0177 30.1331L50.9055 30.1888L50.4205 30.4297L50.3093 30.4849L50.3637 30.5965C50.4915 30.8585 50.6143 31.1252 50.729 31.3932Z" fill="#00BFC6" stroke="#00BFC6" stroke-width="0.25"/>
<path id="Vector_35" d="M48.5288 26.6181L48.6221 26.5356L48.5399 26.442C48.3403 26.2145 48.1321 25.9867 47.9205 25.7684L47.8328 25.6781L47.7431 25.7663L47.3557 26.1472L47.2672 26.2342L47.3536 26.3233C47.5555 26.5317 47.7542 26.7482 47.9449 26.9664L48.0277 27.061L48.1219 26.9778L48.5288 26.6181Z" fill="#00BFC6" stroke="#00BFC6" stroke-width="0.25"/>
<path id="Vector_36" d="M44.3935 23.1073L44.457 23.0002L44.3501 22.9363C44.0899 22.7809 43.8225 22.6283 43.553 22.487L43.4422 22.4289L43.3842 22.5397L43.1319 23.0214L43.0742 23.1318L43.1843 23.19C43.4411 23.3256 43.6963 23.4694 43.9452 23.6181L44.0529 23.6824L44.1168 23.5745L44.3935 23.1073Z" fill="#00BFC6" stroke="#00BFC6" stroke-width="0.25"/>
<path id="Vector_37" d="M47.2753 25.3043L47.3595 25.2126L47.2682 25.128C47.0453 24.9215 46.8142 24.7183 46.5816 24.5233L46.485 24.4424L46.4049 24.5396L46.0598 24.9579L45.981 25.0535L46.0759 25.1332C46.2973 25.319 46.5186 25.5145 46.7302 25.7116L46.8223 25.7974L46.9075 25.7047L47.2753 25.3043Z" fill="#00BFC6" stroke="#00BFC6" stroke-width="0.25"/>
<path id="Vector_38" d="M42.7965 22.2437L42.848 22.131L42.7357 22.0785C42.4616 21.9504 42.1795 21.8291 41.8976 21.716L41.781 21.6692L41.7348 21.7861L41.5346 22.2923L41.489 22.4077L41.6041 22.4541C41.8725 22.5625 42.1424 22.6788 42.404 22.8L42.518 22.8527L42.5702 22.7385L42.7965 22.2437Z" fill="#00BFC6" stroke="#00BFC6" stroke-width="0.25"/>
<path id="Vector_39" d="M45.8904 24.1295L45.9646 24.0297L45.865 23.955C45.6227 23.7733 45.3735 23.5945 45.1206 23.4254L45.0165 23.3557L44.947 23.46L44.6459 23.9125L44.577 24.0162L44.6803 24.0856C44.9211 24.2471 45.16 24.4167 45.3908 24.591L45.4914 24.6669L45.5665 24.5657L45.8904 24.1295Z" fill="#00BFC6" stroke="#00BFC6" stroke-width="0.25"/>
</g>
</g>
</svg>
