<svg width="72" height="72" viewBox="0 0 72 72" fill="none" xmlns="http://www.w3.org/2000/svg">
<g id="Group 291">
<rect id="Rectangle 385" width="72" height="72" fill="#FFFDDA"/>
<g id="Group 278">
<path id="Vector" fill-rule="evenodd" clip-rule="evenodd" d="M42.6302 43.1797H29.3825C29.0402 43.1797 28.7505 42.8887 28.7505 42.52V41.7274C28.7505 40.9097 29.3825 40.25 30.1989 40.25H41.7875C42.5775 40.25 43.2359 40.9097 43.2359 41.7274V42.52C43.2359 42.9151 42.9462 43.1797 42.6302 43.1797ZM30.0146 41.913H41.9718V41.7274C41.9718 41.622 41.8928 41.543 41.7875 41.543H30.1989C30.0936 41.543 30.0146 41.622 30.0146 41.7274V41.913Z" fill="#C5BC0E" stroke="#C5BC0E" stroke-width="0.5"/>
<path id="Vector_2" fill-rule="evenodd" clip-rule="evenodd" d="M37.5726 41.5689C37.2039 41.5689 36.9143 41.2792 36.9143 40.9092V20.0562C36.9143 19.6862 37.2039 19.3965 37.5726 19.3965C37.9413 19.3965 38.231 19.6862 38.231 20.0562V40.9619C38.2047 41.2792 37.915 41.5689 37.5726 41.5689ZM34.1755 41.5689C33.8068 41.5689 33.5171 41.2792 33.5171 40.9092V20.0562C33.5171 19.6862 33.8068 19.3965 34.1755 19.3965C34.5441 19.3965 34.8338 19.6862 34.8338 20.0562V40.9619C34.8338 41.2792 34.5441 41.5689 34.1755 41.5689Z" fill="#C5BC0E" stroke="#C5BC0E" stroke-width="0.5"/>
<g id="Clip path group">
<mask id="mask0_4560_21764" style="mask-type:luminance" maskUnits="userSpaceOnUse" x="32" y="15" width="8" height="7">
<g id="a13e1796ae">
<path id="Vector_3" d="M32.6992 15.6484H38.7667V21.554H32.6992V15.6484Z" fill="white" stroke="white" stroke-width="0.5"/>
</g>
</mask>
<g mask="url(#mask0_4560_21764)">
<g id="Group">
<path id="Vector_4" fill-rule="evenodd" clip-rule="evenodd" d="M35.8607 21.4289C34.2543 21.4289 32.9639 20.1095 32.9639 18.5518C32.9639 16.8888 34.2543 15.6484 35.8607 15.6484C37.4934 15.6484 38.7575 16.9428 38.7575 18.5518C38.7838 20.1095 37.4671 21.4289 35.8607 21.4289ZM35.8607 16.8888C34.939 16.8888 34.2543 17.6288 34.2543 18.4992C34.2543 19.3972 34.9916 20.1095 35.8607 20.1095C36.7297 20.1095 37.4671 19.3972 37.4671 18.4992C37.4934 17.6288 36.7824 16.8888 35.8607 16.8888Z" fill="#C5BC0E" stroke="#C5BC0E" stroke-width="0.5"/>
</g>
</g>
</g>
<path id="Vector_5" fill-rule="evenodd" clip-rule="evenodd" d="M44.5263 19.4229H38.1256C37.7569 19.4229 37.4673 19.1319 37.4673 18.8159C37.4673 18.4723 37.7569 18.1562 38.1256 18.1562H44.5526C44.9213 18.1562 45.211 18.4459 45.211 18.8159C45.211 19.1583 44.8686 19.4229 44.5263 19.4229ZM33.6224 19.4229H27.5378C27.1691 19.4229 26.8794 19.1319 26.8794 18.8159C26.8794 18.4723 27.1691 18.1562 27.5378 18.1562H33.6751C34.0438 18.1562 34.3334 18.4459 34.3334 18.8159C34.3334 19.1583 33.9911 19.4229 33.6224 19.4229Z" fill="#C5BC0E" stroke="#C5BC0E" stroke-width="0.5"/>
<path id="Vector_6" fill-rule="evenodd" clip-rule="evenodd" d="M30.4096 33.7032H24.6147C23.9826 33.7032 23.4823 33.5188 23.1136 33.1488C22.4289 32.4628 22.4552 31.3278 22.4552 30.4561C22.4552 30.3244 22.4552 30.1928 22.4552 30.0874C22.4552 29.7174 22.7449 29.4277 23.1136 29.4277C23.4823 29.4277 23.7719 29.7174 23.7719 30.0874C23.7719 30.1928 23.7719 30.3244 23.7719 30.4838C23.7719 31.0908 23.7456 31.9348 24.0616 32.2785C24.088 32.3048 24.246 32.4628 24.641 32.4628H30.4096C30.831 32.4628 30.9363 32.3048 30.989 32.2785C31.3313 31.9348 31.305 31.0644 31.305 30.4561C31.305 30.3244 31.305 30.1928 31.305 30.0874C31.305 29.7174 31.5947 29.4277 31.9634 29.4277C32.3057 29.4277 32.6217 29.7174 32.6217 30.0874C32.6217 30.1928 32.6217 30.2981 32.6217 30.4034C32.6217 31.3278 32.6481 32.4628 31.9634 33.1488C31.5157 33.4925 31.0416 33.7032 30.4096 33.7032Z" fill="#C5BC0E" stroke="#C5BC0E" stroke-width="0.5"/>
<path id="Vector_7" fill-rule="evenodd" clip-rule="evenodd" d="M31.9106 30.6952H23.1399C22.9292 30.6952 22.7448 30.5898 22.6395 30.4042C22.5342 30.2198 22.4815 30.0091 22.5605 29.8235L26.9584 18.5786C27.0637 18.3153 27.2744 18.1836 27.5378 18.1836C27.7761 18.1836 28.0394 18.3153 28.1184 18.5786L32.49 29.8235C32.569 30.0091 32.5427 30.2198 32.4373 30.4042C32.3057 30.5898 32.1213 30.6952 31.9106 30.6952ZM24.0616 29.4285H30.9626L27.4851 20.559L24.0616 29.4285Z" fill="#C5BC0E" stroke="#C5BC0E" stroke-width="0.5"/>
<path id="Vector_8" fill-rule="evenodd" clip-rule="evenodd" d="M47.397 33.7032H41.6297C40.9976 33.7032 40.5236 33.5188 40.1813 33.1488C39.4689 32.4628 39.4689 31.3278 39.5216 30.4034C39.5216 30.2981 39.5216 30.1928 39.5216 30.0874C39.5216 29.7174 39.8113 29.4277 40.1813 29.4277C40.5236 29.4277 40.8396 29.7174 40.8396 30.0874C40.8396 30.1928 40.8396 30.2981 40.8396 30.4561C40.8396 31.0644 40.787 31.9348 41.1293 32.2785C41.1556 32.3048 41.3137 32.4628 41.7087 32.4628H47.476C47.871 32.4628 48.029 32.3048 48.0553 32.2785C48.3977 31.9348 48.345 31.0908 48.345 30.4838C48.345 30.3244 48.345 30.2191 48.345 30.0874C48.345 29.7174 48.6347 29.4277 49.0034 29.4277C49.3721 29.4277 49.6618 29.7174 49.6618 30.0874C49.6618 30.1928 49.6618 30.3244 49.6618 30.4561C49.6618 31.3278 49.7144 32.4628 49.0034 33.1488C48.5294 33.4925 48.0553 33.7032 47.397 33.7032Z" fill="#C5BC0E" stroke="#C5BC0E" stroke-width="0.5"/>
<path id="Vector_9" fill-rule="evenodd" clip-rule="evenodd" d="M48.8979 30.6952H40.1285C39.9165 30.6952 39.7321 30.5898 39.6268 30.4042C39.5215 30.2198 39.4688 30.0091 39.5478 29.8235L43.9207 18.5786C44.0524 18.3153 44.263 18.1836 44.5264 18.1836C44.7634 18.1836 45.0267 18.3153 45.1057 18.5786L49.4773 29.8235C49.5563 30.0091 49.53 30.2198 49.3983 30.4042C49.293 30.5898 49.1086 30.6952 48.8979 30.6952ZM41.0765 29.4285H47.9762L44.5264 20.559L41.0765 29.4285Z" fill="#C5BC0E" stroke="#C5BC0E" stroke-width="0.5"/>
<path id="Vector_10" fill-rule="evenodd" clip-rule="evenodd" d="M27.9605 54.1341C27.7761 54.1341 27.6168 54.0551 27.4588 53.9234C25.984 52.1551 24.9306 51.7587 23.7456 51.3097C21.4808 50.4657 18.8737 49.5414 13.7897 40.3559C13.1314 39.1945 13.6844 38.0858 14.5535 37.5841C15.0275 37.3208 15.5555 37.2405 16.0295 37.3208C16.5825 37.4261 17.0566 37.7948 17.3726 38.3492C17.7149 38.9838 18.031 39.5645 18.3206 40.1188C19.216 41.7806 19.9271 43.1539 20.9278 44.1836C21.2438 43.4436 21.9812 43.0749 22.7712 43.2592L26.7214 44.1836C28.9085 44.6853 29.6459 45.8203 30.5676 47.245C30.7783 47.615 31.0416 47.9837 31.305 48.3537C31.5156 48.6447 31.4366 49.0397 31.147 49.2254C30.8573 49.436 30.4623 49.3834 30.2779 49.066C30.0409 48.6447 29.8039 48.2747 29.5405 47.9047C28.6715 46.559 28.1448 45.794 26.4844 45.3713L22.4815 44.4733C22.4288 44.4206 22.1918 44.3943 22.0865 44.6853C22.0602 44.8433 22.0075 45.0013 22.1655 45.1593C23.3242 45.8993 24.8516 46.3746 27.0901 46.559C27.4588 46.5853 27.7234 46.875 27.6708 47.245C27.6431 47.615 27.3534 47.8783 26.9848 47.8257C20.6908 47.2713 19.3214 44.6589 17.1882 40.6455C16.8986 40.1188 16.6089 39.5645 16.2929 38.9298C15.9242 38.2702 15.2908 38.6138 15.2118 38.6402C15.1065 38.7192 14.5535 39.0365 14.9221 39.6698C19.7954 48.459 22.1128 49.3044 24.2196 50.0694C25.4837 50.5447 26.8267 51.0201 28.4871 53.0781C28.6978 53.3164 28.6715 53.7654 28.4081 53.9761C28.2501 54.0551 28.1185 54.1341 27.9605 54.1341Z" fill="#C5BC0E" stroke="#C5BC0E" stroke-width="0.5"/>
<g id="Clip path group_2">
<mask id="mask1_4560_21764" style="mask-type:luminance" maskUnits="userSpaceOnUse" x="26" y="47" width="10" height="10">
<g id="08dacd75ba">
<path id="Vector_11" d="M26.9688 47.5078H35.0588V56.3497H26.9688V47.5078Z" fill="white" stroke="white" stroke-width="0.5"/>
</g>
</mask>
<g mask="url(#mask1_4560_21764)">
<g id="Group_2">
<path id="Vector_12" fill-rule="evenodd" clip-rule="evenodd" d="M30.8573 56.3493C30.6467 56.3493 30.4096 56.2966 30.2253 56.165L27.8552 54.7389C27.3008 54.4229 27.1165 53.6842 27.4588 53.1036L30.3043 48.3515C30.4886 48.0618 30.752 47.8761 31.068 47.7971C31.3577 47.7181 31.7 47.7971 31.9634 47.9288L34.2808 49.3285C34.5442 49.4865 34.7549 49.7248 34.8339 50.0672C34.9129 50.3845 34.8602 50.7269 34.7285 50.9915L31.8844 55.7423C31.7 56.0333 31.4367 56.2176 31.147 56.2966C31.0417 56.323 30.9363 56.3493 30.8573 56.3493ZM28.5925 53.6842L30.831 55.0036L33.5698 50.4372L31.3314 49.1165L28.5925 53.6842Z" fill="#C5BC0E" stroke="#C5BC0E" stroke-width="0.5"/>
</g>
</g>
</g>
<path id="Vector_13" fill-rule="evenodd" clip-rule="evenodd" d="M44.0524 54.1335C43.8944 54.1335 43.7627 54.0809 43.6311 53.9755C43.3941 53.7649 43.3151 53.3685 43.5784 53.0775C45.2375 51.0195 46.5542 50.5441 47.8446 50.0688C49.8724 49.3038 52.2162 48.4584 57.0894 39.6956C57.4054 39.0886 56.9051 38.7186 56.7997 38.6922C56.6681 38.6132 56.0887 38.3486 55.72 38.9832C55.404 39.5639 55.1143 40.1446 54.8246 40.6989C52.6915 44.6847 51.3208 47.3234 45.0268 47.8778C44.6581 47.9041 44.3684 47.6407 44.3421 47.2707C44.2894 46.9284 44.5528 46.6374 44.9215 46.5847C47.1863 46.4004 48.7137 45.925 49.8461 45.1864C50.0041 45.0797 49.9514 44.869 49.9251 44.7637C49.8197 44.4727 49.5564 44.499 49.4774 44.5254L45.5272 45.4497C43.8681 45.846 43.3941 46.6374 42.4723 47.9831C42.2617 48.3004 41.9983 48.7231 41.7086 49.1458C41.498 49.4354 41.0766 49.5145 40.8396 49.3038C40.5236 49.0654 40.4709 48.6704 40.6816 48.4058C40.9713 48.0107 41.1819 47.6407 41.419 47.3234C42.3143 45.8987 43.0517 44.79 45.2375 44.2357L49.1877 43.3377C50.0041 43.1533 50.7151 43.5233 51.0838 44.2357C52.0845 43.2323 52.7969 41.8603 53.6922 40.1446C53.9819 39.5903 54.2716 39.0096 54.6403 38.4289C55.2987 37.2399 56.5364 37.1346 57.4054 37.6099C58.2745 38.0852 58.8802 39.2203 58.2218 40.4079C53.1129 49.5935 50.5308 50.5441 48.266 51.3355C47.0809 51.7845 46.0012 52.1808 44.5528 53.9492C44.3948 54.0282 44.2368 54.1335 44.0524 54.1335Z" fill="#C5BC0E" stroke="#C5BC0E" stroke-width="0.5"/>
<g id="Clip path group_3">
<mask id="mask2_4560_21764" style="mask-type:luminance" maskUnits="userSpaceOnUse" x="36" y="47" width="10" height="10">
<g id="94ba8b8114">
<path id="Vector_14" d="M37.0811 47.5078H44.834V56.3497H37.0811V47.5078Z" fill="white" stroke="white" stroke-width="0.5"/>
</g>
</mask>
<g mask="url(#mask2_4560_21764)">
<g id="Group_3">
<path id="Vector_15" fill-rule="evenodd" clip-rule="evenodd" d="M41.1816 56.3493C41.0762 56.3493 40.9972 56.3493 40.8919 56.323C40.5759 56.244 40.3125 56.0596 40.1808 55.7686L37.309 51.0179C37.1247 50.7269 37.0984 50.3845 37.2037 50.0935C37.2827 49.8038 37.4934 49.5392 37.7567 49.3812L40.1282 47.9288C40.3652 47.7971 40.6812 47.7181 40.9709 47.7971C41.3132 47.8761 41.5502 48.0618 41.7346 48.3515L44.5787 53.1036C44.9211 53.6842 44.7367 54.4229 44.1837 54.7389L41.8136 56.165C41.6293 56.2966 41.4186 56.3493 41.1816 56.3493ZM38.4414 50.4635L41.1816 55.0299L43.42 53.7369L40.6812 49.1442L38.4414 50.4635Z" fill="#C5BC0E" stroke="#C5BC0E" stroke-width="0.5"/>
</g>
</g>
</g>
</g>
</g>
</svg>
