<svg width="72" height="72" viewBox="0 0 72 72" fill="none" xmlns="http://www.w3.org/2000/svg">
<g id="Group 297">
<rect id="Rectangle 384" width="72" height="72" fill="#E9FFE9"/>
<g id="Group 293">
<g id="Clip path group">
<mask id="mask0_4577_23546" style="mask-type:luminance" maskUnits="userSpaceOnUse" x="29" y="14" width="30" height="34">
<g id="527dfc3aae">
<path id="Vector" d="M29.6934 14.3906H58.4999V47.9704H29.6934V14.3906Z" fill="white"/>
</g>
</mask>
<g mask="url(#mask0_4577_23546)">
<g id="Group">
<path id="Vector_2" d="M57.6384 21.3394C48.5149 20.7198 45.9727 15.7058 45.8544 15.469C45.5464 14.8163 44.8743 14.3906 44.1404 14.3906C43.4111 14.3906 42.734 14.8163 42.4171 15.469C42.3174 15.6868 39.7799 20.7198 30.6424 21.3394C30.1592 21.3725 29.7808 21.7651 29.7808 22.2527V29.9298C30.0124 29.8873 30.2492 29.8636 30.491 29.8636C30.718 29.8636 30.9407 29.8826 31.1774 29.9204C31.3289 29.9442 31.471 29.9773 31.6224 30.0197V23.1041C41.1338 22.153 43.9558 16.5148 44.1357 16.2308C44.1595 16.2308 44.1875 16.2499 44.1926 16.2639V16.2733C44.3109 16.5148 47.1373 22.153 56.6443 23.1041V31.2068C56.6443 39.0027 48.1648 44.1919 44.969 45.8662C45.0682 46.2354 45.1204 46.6182 45.1204 47.0112C45.1204 47.3185 45.0873 47.6211 45.0305 47.9144C47.6299 46.6704 58.4907 40.8994 58.4907 31.2068V22.2527C58.4907 21.7651 58.1118 21.3725 57.6384 21.3394Z" fill="#4CC74C"/>
</g>
</g>
</g>
<path id="Vector_3" d="M51.4603 31.2402C51.4603 27.1961 48.1792 23.918 44.1314 23.918C40.0879 23.9226 36.8071 27.2007 36.8071 31.2402C36.8071 35.2801 40.0879 38.5629 44.1361 38.5629C48.1839 38.5629 51.4603 35.2848 51.4603 31.2402ZM47.5068 30.318L43.7997 34.0218C43.6058 34.2157 43.3453 34.3151 43.0895 34.3151C42.834 34.3151 42.5736 34.2157 42.3793 34.0218L40.5376 32.182C40.1447 31.789 40.1447 31.1553 40.5376 30.7628C40.9309 30.3702 41.5651 30.3702 41.958 30.7628L43.0895 31.8934L46.0868 28.8988C46.4796 28.5062 47.1139 28.5062 47.5068 28.8988C47.9 29.2914 47.8954 29.9301 47.5068 30.318Z" fill="#4CC74C"/>
<g id="Clip path group_2">
<mask id="mask1_4577_23546" style="mask-type:luminance" maskUnits="userSpaceOnUse" x="13" y="31" width="31" height="27">
<g id="80b9bf7fe2">
<path id="Vector_4" d="M13.5 31.7188H43.2495V57.6114H13.5V31.7188Z" fill="white"/>
</g>
</mask>
<g mask="url(#mask1_4577_23546)">
<g id="Group_2">
<path id="Vector_5" d="M43.1985 47.0143C43.1985 46.177 42.8196 45.4012 42.1569 44.8762C42.4412 44.4314 42.602 43.9205 42.602 43.3861C42.602 41.8816 41.3759 40.6521 39.8609 40.6521H33.1849C33.4313 39.8525 33.7436 38.7032 33.8717 37.4967C33.9617 36.6547 33.9235 35.7184 33.7483 34.7105C33.4975 33.2208 32.3376 32.0617 30.8557 31.8109C29.6577 31.617 28.5024 32.3928 28.247 33.5896L27.6836 36.2243C27.39 37.5866 26.6989 38.8119 25.6854 39.777L22.5798 42.7287C22.2909 42.9982 21.9265 43.1497 21.5239 43.1497H20.7238C20.5816 42.6197 20.0988 42.2318 19.5164 42.2318H14.7724C14.0813 42.2318 13.5132 42.7899 13.5132 43.4901V54.0009C13.5132 54.7012 14.0766 55.2593 14.7724 55.2593H19.5261C20.1082 55.2593 20.5863 54.8667 20.7331 54.3413H22.1582L22.3715 54.6727C23.5077 56.4892 25.4584 57.5863 27.5936 57.6101H28.1193C30.098 57.6101 33.0334 57.4823 35.7134 56.872C36.007 56.9717 36.2717 57.0142 36.5322 57.0142H39.3492C40.8549 57.0142 42.0861 55.7889 42.0861 54.2751C42.0861 53.7361 41.9202 53.206 41.6029 52.7472C42.2422 52.2176 42.6066 51.4608 42.6066 50.6472C42.6066 50.1172 42.4505 49.6066 42.1616 49.1572C42.8196 48.6322 43.1985 47.8564 43.1985 47.0143ZM17.1444 53.1826C16.5241 53.1826 16.0176 52.6763 16.0176 52.0474C16.0176 51.4231 16.5241 50.9121 17.1444 50.9121C17.7744 50.9121 18.2809 51.4231 18.2809 52.0474C18.2809 52.6763 17.7744 53.1826 17.1444 53.1826ZM36.0116 42.4966H39.8609C40.3577 42.4966 40.7556 42.8942 40.7556 43.3861C40.7556 43.8827 40.3577 44.285 39.8609 44.285H36.0116C35.5238 44.285 35.1169 43.8874 35.1169 43.3861C35.1118 42.8942 35.5191 42.4966 36.0116 42.4966ZM34.0041 55.3208C32.243 55.6043 30.207 55.7558 27.9534 55.7558H27.6077C26.1071 55.7418 24.7291 54.966 23.929 53.6839L23.4462 52.9178C23.2803 52.6479 22.9867 52.4871 22.6601 52.4871H20.7759V44.9942H21.5239C22.4 44.9942 23.2285 44.6632 23.8534 44.0673L26.959 41.1109C28.2423 39.8903 29.1133 38.334 29.4828 36.6075L30.0462 33.9822C30.098 33.7504 30.3161 33.6036 30.5528 33.6367C31.2533 33.7504 31.812 34.3085 31.9304 35.0228C32.0678 35.8602 32.1056 36.6266 32.0296 37.3027C31.8167 39.2516 31.0496 41.144 31.0212 41.2149C30.9028 41.5035 30.9313 41.8252 31.1065 42.0806C31.2817 42.3357 31.5659 42.4966 31.8735 42.4966H33.4123L33.3698 42.7003C32.2333 47.5016 28.351 47.1421 28.1855 47.1277C27.939 47.0992 27.6976 47.1655 27.5084 47.3216C27.3141 47.4731 27.1911 47.6908 27.1626 47.9319C27.1389 48.1827 27.2101 48.4238 27.3569 48.6178C27.5084 48.807 27.726 48.9348 27.9674 48.9585C27.9818 48.9679 28.1333 48.9819 28.3891 48.9819C29.1511 48.9819 31.064 48.8261 32.7211 47.4303C32.8204 48.1068 33.1802 48.7315 33.7249 49.1525C33.4313 49.6015 33.2799 50.1172 33.2799 50.6422C33.2799 51.4562 33.6396 52.2129 34.2739 52.7426C33.9566 53.2013 33.7911 53.7267 33.7911 54.2704C33.7864 54.6205 33.862 54.9753 34.0041 55.3208ZM39.3492 55.1646H36.5322C36.0354 55.1646 35.6375 54.7576 35.6375 54.2657C35.6375 53.7785 36.0354 53.3766 36.5322 53.3766H39.3492C39.8371 53.3766 40.2393 53.7739 40.2393 54.2657C40.2393 54.7576 39.8371 55.1646 39.3492 55.1646ZM39.8609 51.5364H36.0116C35.5238 51.5364 35.1169 51.1391 35.1169 50.6422C35.1169 50.1503 35.5238 49.753 36.0116 49.753H39.8609C40.3577 49.753 40.7556 50.1503 40.7556 50.6422C40.7556 51.1391 40.3577 51.5364 39.8609 51.5364ZM40.462 47.9082H35.4101C34.9226 47.9082 34.52 47.5109 34.52 47.0143C34.52 46.5221 34.9179 46.1248 35.4101 46.1248H40.4667C40.9542 46.1248 41.3615 46.5225 41.3615 47.0143C41.3615 47.5109 40.9542 47.9082 40.462 47.9082Z" fill="#4CC74C"/>
</g>
</g>
</g>
</g>
</g>
</svg>
