<svg width="20" height="20" viewBox="0 0 20 20" fill="none" xmlns="http://www.w3.org/2000/svg">
<g id="heroicons:currency-rupee">
<path id="Vector" d="M12.5 6.875H7.5M12.5 9.375H7.5M10 14.375L7.5 11.875H8.75C9.41304 11.875 10.0489 11.6116 10.5178 11.1428C10.9866 10.6739 11.25 10.038 11.25 9.375C11.25 8.71196 10.9866 8.07607 10.5178 7.60723C10.0489 7.13839 9.41304 6.875 8.75 6.875M17.5 10C17.5 10.9849 17.306 11.9602 16.9291 12.8701C16.5522 13.7801 15.9997 14.6069 15.3033 15.3033C14.6069 15.9997 13.7801 16.5522 12.8701 16.9291C11.9602 17.306 10.9849 17.5 10 17.5C9.01509 17.5 8.03982 17.306 7.12987 16.9291C6.21993 16.5522 5.39314 15.9997 4.6967 15.3033C4.00026 14.6069 3.44781 13.7801 3.0709 12.8701C2.69399 11.9602 2.5 10.9849 2.5 10C2.5 8.01088 3.29018 6.10322 4.6967 4.6967C6.10322 3.29018 8.01088 2.5 10 2.5C11.9891 2.5 13.8968 3.29018 15.3033 4.6967C16.7098 6.10322 17.5 8.01088 17.5 10Z" stroke="#60798C" stroke-width="1.2" stroke-linecap="round" stroke-linejoin="round"/>
</g>
</svg>
