<svg width="24" height="32" viewBox="0 0 24 32" fill="none" xmlns="http://www.w3.org/2000/svg">
<path d="M12 16.0042L18 13.0042L12 10.0042V20.0042" stroke="#4B5563" style="stroke:#4B5563;stroke:color(display-p3 0.2941 0.3333 0.3882);stroke-opacity:1;" stroke-width="2" stroke-linecap="round" stroke-linejoin="round"/>
<path d="M7.99914 19.9941L2.49914 23.1341C2.34524 23.2214 2.21723 23.3478 2.12817 23.5007C2.03911 23.6535 1.99219 23.8272 1.99219 24.0041C1.99219 24.181 2.03911 24.3548 2.12817 24.5076C2.21723 24.6604 2.34524 24.7869 2.49914 24.8741L10.9991 29.7341C11.3032 29.9097 11.6481 30.0021 11.9991 30.0021C12.3502 30.0021 12.6951 29.9097 12.9991 29.7341L21.4991 24.8741C21.653 24.7869 21.781 24.6604 21.8701 24.5076C21.9592 24.3548 22.0061 24.181 22.0061 24.0041C22.0061 23.8272 21.9592 23.6535 21.8701 23.5007C21.781 23.3478 21.653 23.2214 21.4991 23.1341L15.9991 20.0041M6.48914 20.8541L17.5091 27.1541M17.5091 20.8541L6.49914 27.1541" stroke="#4B5563" style="stroke:#4B5563;stroke:color(display-p3 0.2941 0.3333 0.3882);stroke-opacity:1;" stroke-width="2" stroke-linecap="round" stroke-linejoin="round"/>
</svg>
