<svg width="24" height="25" viewBox="0 0 24 25" fill="none" xmlns="http://www.w3.org/2000/svg">
<g id="heroicons-solid:chevron-up">
<path id="Vector" fill-rule="evenodd" clip-rule="evenodd" d="M6.35072 8.78955C6.57575 8.56459 6.88092 8.43821 7.19912 8.43821C7.51732 8.43821 7.82249 8.56459 8.04752 8.78955L11.9991 12.7412L15.9507 8.78955C16.177 8.57096 16.4802 8.45001 16.7948 8.45274C17.1094 8.45548 17.4104 8.58168 17.6329 8.80417C17.8554 9.02666 17.9816 9.32763 17.9843 9.64227C17.9871 9.95691 17.8661 10.26 17.6475 10.4864L12.8475 15.2864C12.6225 15.5113 12.3173 15.6377 11.9991 15.6377C11.6809 15.6377 11.3758 15.5113 11.1507 15.2864L6.35072 10.4864C6.12575 10.2613 5.99938 9.95615 5.99938 9.63795C5.99938 9.31976 6.12575 9.01459 6.35072 8.78955Z" fill="#222222"/>
</g>
</svg>
