<svg width="32" height="32" viewBox="0 0 32 32" fill="none" xmlns="http://www.w3.org/2000/svg">
<mask id="path-1-inside-1_1654_10570" fill="white">
<path d="M29 28.2542H25.75V3.75415H27C27.1989 3.75415 27.3897 3.67513 27.5303 3.53448C27.671 3.39383 27.75 3.20306 27.75 3.00415C27.75 2.80524 27.671 2.61447 27.5303 2.47382C27.3897 2.33317 27.1989 2.25415 27 2.25415H5C4.80109 2.25415 4.61032 2.33317 4.46967 2.47382C4.32902 2.61447 4.25 2.80524 4.25 3.00415C4.25 3.20306 4.32902 3.39383 4.46967 3.53448C4.61032 3.67513 4.80109 3.75415 5 3.75415H6.25V28.2542H3C2.80109 28.2542 2.61032 28.3332 2.46967 28.4738C2.32902 28.6145 2.25 28.8052 2.25 29.0042C2.25 29.2031 2.32902 29.3938 2.46967 29.5345C2.61032 29.6751 2.80109 29.7542 3 29.7542H29C29.1989 29.7542 29.3897 29.6751 29.5303 29.5345C29.671 29.3938 29.75 29.2031 29.75 29.0042C29.75 28.8052 29.671 28.6145 29.5303 28.4738C29.3897 28.3332 29.1989 28.2542 29 28.2542ZM7.75 3.75415H24.25V28.2542H19.75V23.0042C19.75 22.8052 19.671 22.6145 19.5303 22.4738C19.3897 22.3332 19.1989 22.2542 19 22.2542H13C12.8011 22.2542 12.6103 22.3332 12.4697 22.4738C12.329 22.6145 12.25 22.8052 12.25 23.0042V28.2542H7.75V3.75415ZM18.25 28.2542H13.75V23.7542H18.25V28.2542ZM11.25 8.00415C11.25 7.80524 11.329 7.61447 11.4697 7.47382C11.6103 7.33317 11.8011 7.25415 12 7.25415H14C14.1989 7.25415 14.3897 7.33317 14.5303 7.47382C14.671 7.61447 14.75 7.80524 14.75 8.00415C14.75 8.20306 14.671 8.39383 14.5303 8.53448C14.3897 8.67513 14.1989 8.75415 14 8.75415H12C11.8011 8.75415 11.6103 8.67513 11.4697 8.53448C11.329 8.39383 11.25 8.20306 11.25 8.00415ZM17.25 8.00415C17.25 7.80524 17.329 7.61447 17.4697 7.47382C17.6103 7.33317 17.8011 7.25415 18 7.25415H20C20.1989 7.25415 20.3897 7.33317 20.5303 7.47382C20.671 7.61447 20.75 7.80524 20.75 8.00415C20.75 8.20306 20.671 8.39383 20.5303 8.53448C20.3897 8.67513 20.1989 8.75415 20 8.75415H18C17.8011 8.75415 17.6103 8.67513 17.4697 8.53448C17.329 8.39383 17.25 8.20306 17.25 8.00415ZM11.25 13.0042C11.25 12.8052 11.329 12.6145 11.4697 12.4738C11.6103 12.3332 11.8011 12.2542 12 12.2542H14C14.1989 12.2542 14.3897 12.3332 14.5303 12.4738C14.671 12.6145 14.75 12.8052 14.75 13.0042C14.75 13.2031 14.671 13.3938 14.5303 13.5345C14.3897 13.6751 14.1989 13.7542 14 13.7542H12C11.8011 13.7542 11.6103 13.6751 11.4697 13.5345C11.329 13.3938 11.25 13.2031 11.25 13.0042ZM17.25 13.0042C17.25 12.8052 17.329 12.6145 17.4697 12.4738C17.6103 12.3332 17.8011 12.2542 18 12.2542H20C20.1989 12.2542 20.3897 12.3332 20.5303 12.4738C20.671 12.6145 20.75 12.8052 20.75 13.0042C20.75 13.2031 20.671 13.3938 20.5303 13.5345C20.3897 13.6751 20.1989 13.7542 20 13.7542H18C17.8011 13.7542 17.6103 13.6751 17.4697 13.5345C17.329 13.3938 17.25 13.2031 17.25 13.0042ZM12 18.7542C11.8011 18.7542 11.6103 18.6751 11.4697 18.5345C11.329 18.3938 11.25 18.2031 11.25 18.0042C11.25 17.8052 11.329 17.6145 11.4697 17.4738C11.6103 17.3332 11.8011 17.2542 12 17.2542H14C14.1989 17.2542 14.3897 17.3332 14.5303 17.4738C14.671 17.6145 14.75 17.8052 14.75 18.0042C14.75 18.2031 14.671 18.3938 14.5303 18.5345C14.3897 18.6751 14.1989 18.7542 14 18.7542H12ZM17.25 18.0042C17.25 17.8052 17.329 17.6145 17.4697 17.4738C17.6103 17.3332 17.8011 17.2542 18 17.2542H20C20.1989 17.2542 20.3897 17.3332 20.5303 17.4738C20.671 17.6145 20.75 17.8052 20.75 18.0042C20.75 18.2031 20.671 18.3938 20.5303 18.5345C20.3897 18.6751 20.1989 18.7542 20 18.7542H18C17.8011 18.7542 17.6103 18.6751 17.4697 18.5345C17.329 18.3938 17.25 18.2031 17.25 18.0042Z"/>
</mask>
<path d="M29 28.2542H25.75V3.75415H27C27.1989 3.75415 27.3897 3.67513 27.5303 3.53448C27.671 3.39383 27.75 3.20306 27.75 3.00415C27.75 2.80524 27.671 2.61447 27.5303 2.47382C27.3897 2.33317 27.1989 2.25415 27 2.25415H5C4.80109 2.25415 4.61032 2.33317 4.46967 2.47382C4.32902 2.61447 4.25 2.80524 4.25 3.00415C4.25 3.20306 4.32902 3.39383 4.46967 3.53448C4.61032 3.67513 4.80109 3.75415 5 3.75415H6.25V28.2542H3C2.80109 28.2542 2.61032 28.3332 2.46967 28.4738C2.32902 28.6145 2.25 28.8052 2.25 29.0042C2.25 29.2031 2.32902 29.3938 2.46967 29.5345C2.61032 29.6751 2.80109 29.7542 3 29.7542H29C29.1989 29.7542 29.3897 29.6751 29.5303 29.5345C29.671 29.3938 29.75 29.2031 29.75 29.0042C29.75 28.8052 29.671 28.6145 29.5303 28.4738C29.3897 28.3332 29.1989 28.2542 29 28.2542ZM7.75 3.75415H24.25V28.2542H19.75V23.0042C19.75 22.8052 19.671 22.6145 19.5303 22.4738C19.3897 22.3332 19.1989 22.2542 19 22.2542H13C12.8011 22.2542 12.6103 22.3332 12.4697 22.4738C12.329 22.6145 12.25 22.8052 12.25 23.0042V28.2542H7.75V3.75415ZM18.25 28.2542H13.75V23.7542H18.25V28.2542ZM11.25 8.00415C11.25 7.80524 11.329 7.61447 11.4697 7.47382C11.6103 7.33317 11.8011 7.25415 12 7.25415H14C14.1989 7.25415 14.3897 7.33317 14.5303 7.47382C14.671 7.61447 14.75 7.80524 14.75 8.00415C14.75 8.20306 14.671 8.39383 14.5303 8.53448C14.3897 8.67513 14.1989 8.75415 14 8.75415H12C11.8011 8.75415 11.6103 8.67513 11.4697 8.53448C11.329 8.39383 11.25 8.20306 11.25 8.00415ZM17.25 8.00415C17.25 7.80524 17.329 7.61447 17.4697 7.47382C17.6103 7.33317 17.8011 7.25415 18 7.25415H20C20.1989 7.25415 20.3897 7.33317 20.5303 7.47382C20.671 7.61447 20.75 7.80524 20.75 8.00415C20.75 8.20306 20.671 8.39383 20.5303 8.53448C20.3897 8.67513 20.1989 8.75415 20 8.75415H18C17.8011 8.75415 17.6103 8.67513 17.4697 8.53448C17.329 8.39383 17.25 8.20306 17.25 8.00415ZM11.25 13.0042C11.25 12.8052 11.329 12.6145 11.4697 12.4738C11.6103 12.3332 11.8011 12.2542 12 12.2542H14C14.1989 12.2542 14.3897 12.3332 14.5303 12.4738C14.671 12.6145 14.75 12.8052 14.75 13.0042C14.75 13.2031 14.671 13.3938 14.5303 13.5345C14.3897 13.6751 14.1989 13.7542 14 13.7542H12C11.8011 13.7542 11.6103 13.6751 11.4697 13.5345C11.329 13.3938 11.25 13.2031 11.25 13.0042ZM17.25 13.0042C17.25 12.8052 17.329 12.6145 17.4697 12.4738C17.6103 12.3332 17.8011 12.2542 18 12.2542H20C20.1989 12.2542 20.3897 12.3332 20.5303 12.4738C20.671 12.6145 20.75 12.8052 20.75 13.0042C20.75 13.2031 20.671 13.3938 20.5303 13.5345C20.3897 13.6751 20.1989 13.7542 20 13.7542H18C17.8011 13.7542 17.6103 13.6751 17.4697 13.5345C17.329 13.3938 17.25 13.2031 17.25 13.0042ZM12 18.7542C11.8011 18.7542 11.6103 18.6751 11.4697 18.5345C11.329 18.3938 11.25 18.2031 11.25 18.0042C11.25 17.8052 11.329 17.6145 11.4697 17.4738C11.6103 17.3332 11.8011 17.2542 12 17.2542H14C14.1989 17.2542 14.3897 17.3332 14.5303 17.4738C14.671 17.6145 14.75 17.8052 14.75 18.0042C14.75 18.2031 14.671 18.3938 14.5303 18.5345C14.3897 18.6751 14.1989 18.7542 14 18.7542H12ZM17.25 18.0042C17.25 17.8052 17.329 17.6145 17.4697 17.4738C17.6103 17.3332 17.8011 17.2542 18 17.2542H20C20.1989 17.2542 20.3897 17.3332 20.5303 17.4738C20.671 17.6145 20.75 17.8052 20.75 18.0042C20.75 18.2031 20.671 18.3938 20.5303 18.5345C20.3897 18.6751 20.1989 18.7542 20 18.7542H18C17.8011 18.7542 17.6103 18.6751 17.4697 18.5345C17.329 18.3938 17.25 18.2031 17.25 18.0042Z" fill="#4B5563" stroke="#4B5563" style="fill:#4B5563;fill:color(display-p3 0.2941 0.3333 0.3882);fill-opacity:1;stroke:#4B5563;stroke:color(display-p3 0.2941 0.3333 0.3882);stroke-opacity:1;" stroke-width="5" mask="url(#path-1-inside-1_1654_10570)"/>
</svg>
