<svg width="33" height="32" viewBox="0 0 33 32" fill="none" xmlns="http://www.w3.org/2000/svg">
<path d="M7.25 2.74731L6.33887 5.84569L4.8125 4.97356V8.44169H6.25V7.44169H8.25V8.44169H9.6875V4.97356L8.16113 5.84575L7.25 2.74731ZM25.25 2.74731L24.3389 5.84575L22.8125 4.97356V8.44169H24.25V7.44169H26.25V8.44169H27.6875V4.97356L26.1611 5.84575L25.25 2.74731ZM4.8125 9.56669V26.4417H9.6875V9.56669H4.8125ZM22.8125 9.56669V26.4417H27.6875V9.56669H22.8125ZM6.25 11.4417H8.25V13.6917H6.25V11.4417ZM10.8125 11.4417V12.5667H21.6875V11.4417H10.8125ZM24.25 11.4417H26.25V13.5667H24.25V11.4417ZM3.6875 13.6341C2.99787 14.7351 2.08938 15.7889 1.25 16.7714V18.4611C2.06687 17.5861 2.97187 16.6443 3.6875 15.6503V13.6341ZM28.8125 13.6341V15.6502C29.5281 16.6441 30.4331 17.586 31.25 18.4611V16.7714C30.4106 15.7889 29.5021 14.7351 28.8125 13.6341ZM6.25 15.4417H8.25V16.5667H6.25V15.4417ZM24.25 15.4417H26.25V16.5667H24.25V15.4417ZM6.25 19.4417H8.25V20.5667H6.25V19.4417ZM24.25 19.4417H26.25V20.5667H24.25V19.4417ZM1.25 23.4417V24.5667H3.6875V23.4417H1.25ZM6.25 23.4417H8.25V24.5667H6.25V23.4417ZM10.8125 23.4417V24.5667H14.4669C13.0727 24.7617 11.8418 25.1675 10.8125 25.6434V26.4417H11.8125V26.4584C13.0502 25.9531 14.5619 25.5667 16.25 25.5667C17.9381 25.5667 19.4498 25.9531 20.6875 26.4584V26.4417H21.6875V25.6434C20.6583 25.1675 19.4273 24.7618 18.0331 24.5667H21.6875V23.4417H10.8125ZM24.25 23.4417H26.25V24.5667H24.25V23.4417ZM28.8125 23.4417V24.5667H31.25V23.4417H28.8125ZM3.8125 27.5667V30.4417H10.6875V27.5667H3.8125ZM21.8125 27.5667V30.4417H28.6875V27.5667H21.8125Z" fill="#4B5563" style="fill:#4B5563;fill:color(display-p3 0.2941 0.3333 0.3882);fill-opacity:1;"/>
</svg>
