<svg width="32" height="32" viewBox="0 0 32 32" fill="none" xmlns="http://www.w3.org/2000/svg">
<path d="M18.2133 23.0561H19.9253L19.952 22.9548L14.7853 17.3988L14.8187 17.3042H15.152C16.4542 17.3042 17.5164 16.9717 18.3387 16.3068C19.1627 15.6419 19.6293 14.7522 19.7387 13.6375H21.0213V12.5575H19.7013C19.6373 12.0873 19.492 11.6597 19.2653 11.2748C19.0387 10.889 18.752 10.5517 18.4053 10.2628H21.0213V9.18282H10.98V10.3401H15.2307C16.0991 10.3401 16.8147 10.5357 17.3773 10.9268C17.94 11.3179 18.2884 11.8615 18.4227 12.5575H10.98V13.6375H18.456C18.3573 14.4073 18.0204 15.013 17.4453 15.4548C16.872 15.8966 16.1262 16.1175 15.208 16.1175H13.0027V17.4042L18.2133 23.0561ZM16.004 28.0041C14.3453 28.0041 12.7853 27.6895 11.324 27.0601C9.86356 26.4299 8.59289 25.5748 7.512 24.4948C6.43111 23.4148 5.57556 22.1455 4.94533 20.6868C4.31511 19.2281 4 17.6686 4 16.0082C4 14.3477 4.31511 12.7877 4.94533 11.3281C5.57467 9.86771 6.42844 8.59704 7.50667 7.51615C8.58489 6.43526 9.85467 5.57971 11.316 4.94948C12.7773 4.31926 14.3373 4.00415 15.996 4.00415C17.6547 4.00415 19.2147 4.31926 20.676 4.94948C22.1364 5.57882 23.4071 6.43304 24.488 7.51215C25.5689 8.59126 26.4244 9.86104 27.0547 11.3215C27.6849 12.7819 28 14.3415 28 16.0001C28 17.6588 27.6853 19.2188 27.056 20.6801C26.4267 22.1415 25.5716 23.4121 24.4907 24.4921C23.4098 25.5721 22.1404 26.4277 20.6827 27.0588C19.2249 27.6899 17.6653 28.005 16.004 28.0041ZM16 26.6708C18.9778 26.6708 21.5 25.6375 23.5667 23.5708C25.6333 21.5041 26.6667 18.9819 26.6667 16.0041C26.6667 13.0264 25.6333 10.5041 23.5667 8.43748C21.5 6.37082 18.9778 5.33748 16 5.33748C13.0222 5.33748 10.5 6.37082 8.43333 8.43748C6.36667 10.5041 5.33333 13.0264 5.33333 16.0041C5.33333 18.9819 6.36667 21.5041 8.43333 23.5708C10.5 25.6375 13.0222 26.6708 16 26.6708Z" fill="#4B5563" style="fill:#4B5563;fill:color(display-p3 0.2941 0.3333 0.3882);fill-opacity:1;"/>
</svg>
