<svg width="20" height="17" viewBox="0 0 20 17" fill="none" xmlns="http://www.w3.org/2000/svg">
<g clip-path="url(#clip0_1038_4859)">
<path d="M19.2494 0.333496H13.2494C12.8374 0.333496 12.2604 0.572496 11.9694 0.863496L4.53039 8.3025C4.46069 8.37215 4.4054 8.45485 4.36768 8.54587C4.32996 8.6369 4.31055 8.73446 4.31055 8.833C4.31055 8.93153 4.32996 9.02909 4.36768 9.12012C4.4054 9.21115 4.46069 9.29385 4.53039 9.3635L10.9694 15.8025C11.039 15.8722 11.1217 15.9275 11.2128 15.9652C11.3038 16.0029 11.4014 16.0223 11.4999 16.0223C11.5984 16.0223 11.696 16.0029 11.787 15.9652C11.878 15.9275 11.9607 15.8722 12.0304 15.8025L19.4694 8.3635C19.7614 8.0715 19.9994 7.4955 19.9994 7.0835V1.0835C19.9994 0.884584 19.9204 0.693818 19.7797 0.553166C19.6391 0.412514 19.4483 0.333496 19.2494 0.333496ZM15.4994 6.3335C15.3023 6.33343 15.1072 6.29455 14.9252 6.21909C14.7432 6.14362 14.5778 6.03304 14.4385 5.89366C14.2992 5.75428 14.1888 5.58882 14.1134 5.40675C14.0381 5.22468 13.9993 5.02954 13.9994 4.8325C13.9995 4.63545 14.0383 4.44034 14.1138 4.25832C14.1893 4.07629 14.2998 3.91092 14.4392 3.77163C14.5786 3.63234 14.7441 3.52187 14.9261 3.44652C15.1082 3.37118 15.3033 3.33243 15.5004 3.3325C15.8983 3.33263 16.2799 3.49084 16.5613 3.77234C16.8426 4.05383 17.0005 4.43554 17.0004 4.8335C17.0003 5.23145 16.842 5.61306 16.5605 5.89436C16.2791 6.17567 15.8973 6.33363 15.4994 6.3335Z" fill="#F58220"/>
<path d="M1.99939 8.8335L10.4994 0.333496H9.24939C8.83739 0.333496 8.26039 0.572496 7.96939 0.863496L0.530387 8.3025C0.460692 8.37215 0.405404 8.45485 0.367683 8.54587C0.329962 8.6369 0.310547 8.73446 0.310547 8.833C0.310547 8.93153 0.329962 9.02909 0.367683 9.12012C0.405404 9.21115 0.460692 9.29385 0.530387 9.3635L6.96939 15.8025C7.03904 15.8722 7.12174 15.9275 7.21276 15.9652C7.30379 16.0029 7.40136 16.0223 7.49989 16.0223C7.59842 16.0223 7.69598 16.0029 7.78701 15.9652C7.87804 15.9275 7.96074 15.8722 8.03039 15.8025L8.50039 15.3325L1.99939 8.8335Z" fill="#F58220"/>
</g>
<defs>
<clipPath id="clip0_1038_4859">
<rect width="20" height="16" fill="white" transform="translate(0 0.333496)"/>
</clipPath>
</defs>
</svg>
