<svg width="73" height="73" viewBox="0 0 73 73" fill="none" xmlns="http://www.w3.org/2000/svg">
<g id="bi:house-fill">
<rect width="72" height="72" transform="translate(0.5 0.5)" fill="#ECECFF"/>
<g id="Group 285">
<g id="Group">
<path id="Vector" d="M38.4392 18.3889C37.9249 17.8748 37.2274 17.5859 36.5001 17.5859C35.7729 17.5859 35.0754 17.8748 34.5611 18.3889L16.3309 36.6164C16.2034 36.7439 16.1022 36.8953 16.0332 37.0619C15.9642 37.2285 15.9287 37.407 15.9287 37.5873C15.9287 37.7676 15.9642 37.9462 16.0332 38.1128C16.1022 38.2794 16.2034 38.4307 16.3309 38.5582C16.5884 38.8157 16.9376 38.9604 17.3018 38.9604C17.4821 38.9604 17.6606 38.9249 17.8272 38.8559C17.9938 38.7869 18.1451 38.6857 18.2726 38.5582L36.5001 20.328L54.7276 38.5582C54.9851 38.8157 55.3344 38.9604 55.6985 38.9604C56.0627 38.9604 56.4119 38.8157 56.6694 38.5582C56.9269 38.3007 57.0716 37.9515 57.0716 37.5873C57.0716 37.2232 56.9269 36.8739 56.6694 36.6164L50.2133 30.163V21.1316C50.2133 20.7679 50.0688 20.4191 49.8116 20.1619C49.5545 19.9047 49.2057 19.7603 48.842 19.7603H46.0993C45.7356 19.7603 45.3868 19.9047 45.1297 20.1619C44.8725 20.4191 44.728 20.7679 44.728 21.1316V24.6778L38.4392 18.3889Z" fill="#6969F1"/>
<path id="Vector_2" d="M36.5002 23.3066L52.956 39.7624V51.3006C52.956 52.3917 52.5225 53.4381 51.751 54.2096C50.9795 54.9811 49.9331 55.4146 48.842 55.4146H24.1584C23.0673 55.4146 22.0209 54.9811 21.2494 54.2096C20.4779 53.4381 20.0444 52.3917 20.0444 51.3006V39.7624L36.5002 23.3066Z" fill="#6969F1"/>
<path id="Vector_3" fill-rule="evenodd" clip-rule="evenodd" d="M44.2391 39.8929C44.4137 39.8929 44.5813 39.8287 44.7048 39.7144C44.8283 39.6001 44.8977 39.4451 44.8977 39.2834C44.8977 39.1218 44.8283 38.9668 44.7048 38.8525C44.5813 38.7382 44.4137 38.674 44.2391 38.674C44.0644 38.674 43.8968 38.7382 43.7733 38.8525C43.6498 38.9668 43.5804 39.1218 43.5804 39.2834C43.5804 39.4451 43.6498 39.6001 43.7733 39.7144C43.8968 39.8287 44.0644 39.8929 44.2391 39.8929ZM44.2391 40.7055C44.4409 40.7055 44.6407 40.6687 44.8272 40.5973C45.0136 40.5258 45.1831 40.4211 45.3258 40.289C45.4685 40.157 45.5817 40.0002 45.6589 39.8276C45.7362 39.6551 45.7759 39.4702 45.7759 39.2834C45.7759 39.0967 45.7362 38.9118 45.6589 38.7392C45.5817 38.5667 45.4685 38.4099 45.3258 38.2779C45.1831 38.1458 45.0136 38.041 44.8272 37.9696C44.6407 37.8981 44.4409 37.8613 44.2391 37.8613C43.8315 37.8613 43.4405 38.0112 43.1523 38.2779C42.8641 38.5445 42.7022 38.9063 42.7022 39.2834C42.7022 39.6606 42.8641 40.0223 43.1523 40.289C43.4405 40.5557 43.8315 40.7055 44.2391 40.7055ZM38.7503 41.9245C38.5174 41.9245 38.294 42.0101 38.1293 42.1625C37.9646 42.3149 37.8721 42.5216 37.8721 42.7371C37.8721 42.9526 37.9646 43.1593 38.1293 43.3117C38.294 43.4641 38.5174 43.5497 38.7503 43.5497H41.824V51.676C41.824 51.8916 41.9165 52.0983 42.0812 52.2507C42.2459 52.4031 42.4693 52.4887 42.7022 52.4887C42.9351 52.4887 43.1585 52.4031 43.3232 52.2507C43.4879 52.0983 43.5804 51.8916 43.5804 51.676V48.0192H44.8977V51.676C44.8977 51.8916 44.9902 52.0983 45.1549 52.2507C45.3196 52.4031 45.543 52.4887 45.7759 52.4887C46.0088 52.4887 46.2322 52.4031 46.3969 52.2507C46.5616 52.0983 46.6541 51.8916 46.6541 51.676V46.7665C47.304 46.663 47.8884 46.3378 48.2918 45.8551C48.6953 45.3724 48.8885 44.7673 48.8333 44.1592C48.7782 43.5512 48.4787 42.9843 47.994 42.5706C47.5092 42.1569 46.8745 41.9263 46.215 41.9245H38.7503ZM47.5323 44.3624C47.5323 44.1468 47.4398 43.9401 47.2751 43.7878C47.1104 43.6354 46.887 43.5497 46.6541 43.5497V45.175C46.887 45.175 47.1104 45.0894 47.2751 44.937C47.4398 44.7846 47.5323 44.5779 47.5323 44.3624Z" fill="white"/>
</g>
<path id="Vector_4" d="M37.8375 39.6125C37.6955 39.0203 37.1343 38.6649 36.5934 38.8278L33.0028 39.8789L28.3235 35.1191L27.032 35.4967L29.8314 40.8043L26.4708 41.7888L25.1387 40.6488L24.1582 40.9375L25.3889 43.2767L25.9095 44.2612L26.9914 43.9503L30.582 42.8918L33.5234 42.0331L37.114 40.9893C37.6617 40.8117 37.9795 40.2047 37.8375 39.6125Z" fill="white"/>
</g>
</g>
</svg>
