<svg width="72" height="73" viewBox="0 0 72 73" fill="none" xmlns="http://www.w3.org/2000/svg">
<g id="bi:house-fill">
<rect width="72" height="72" transform="translate(0 0.5)" fill="#E9FFE9"/>
<g id="Group">
<path id="Vector" d="M38.1923 16.4917C37.6109 15.9105 36.8225 15.584 36.0004 15.584C35.1783 15.584 34.3899 15.9105 33.8085 16.4917L13.2007 37.0964C13.0566 37.2405 12.9422 37.4116 12.8642 37.5999C12.7862 37.7882 12.7461 37.9901 12.7461 38.1939C12.7461 38.3977 12.7862 38.5996 12.8642 38.7879C12.9422 38.9762 13.0566 39.1473 13.2007 39.2914C13.4918 39.5825 13.8866 39.746 14.2982 39.746C14.502 39.746 14.7039 39.7059 14.8922 39.6279C15.0805 39.5499 15.2516 39.4355 15.3957 39.2914L36.0004 18.6836L56.6051 39.2914C56.8962 39.5825 57.2909 39.746 57.7026 39.746C58.1142 39.746 58.509 39.5825 58.8001 39.2914C59.0912 39.0003 59.2547 38.6056 59.2547 38.1939C59.2547 37.7823 59.0912 37.3875 58.8001 37.0964L51.502 29.8014V19.592C51.502 19.1809 51.3386 18.7866 51.0479 18.4959C50.7572 18.2052 50.3629 18.0419 49.9518 18.0419H46.8515C46.4404 18.0419 46.0461 18.2052 45.7554 18.4959C45.4647 18.7866 45.3013 19.1809 45.3013 19.592V23.6007L38.1923 16.4917Z" fill="#4CC74C"/>
<path id="Vector_2" d="M36.0003 22.0508L54.6022 40.6527V53.6957C54.6022 54.9291 54.1122 56.1119 53.2401 56.9841C52.368 57.8562 51.1851 58.3461 49.9517 58.3461H22.0489C20.8155 58.3461 19.6327 57.8562 18.7605 56.9841C17.8884 56.1119 17.3984 54.9291 17.3984 53.6957V40.6527L36.0003 22.0508Z" fill="#4CC74C"/>
</g>
<path id="Vector_3" d="M43.3993 43.8793C43.3993 43.4246 43.3373 43.0112 43.2753 42.5772L45.6315 40.4896L43.5647 36.9139L40.5677 37.9267C39.9063 37.3686 39.1622 36.9346 38.3355 36.6246L37.7154 33.5449H33.5817L32.9616 36.6246C32.1348 36.9346 31.3908 37.3686 30.7294 37.9267L27.7324 36.9139L25.6655 40.4896L28.0218 42.5772C27.9598 43.0112 27.8978 43.4246 27.8978 43.8793C27.8978 44.334 27.9598 44.7474 28.0218 45.1814L25.6655 47.269L27.7324 50.8447L30.7294 49.8319C31.3908 50.39 32.1348 50.824 32.9616 51.134L33.5817 54.2137H37.7154L38.3355 51.134C39.1622 50.824 39.9063 50.39 40.5677 49.8319L43.5647 50.8447L45.6315 47.269L43.2753 45.1814C43.3373 44.7474 43.3993 44.334 43.3993 43.8793ZM35.6485 48.013C33.375 48.013 31.5148 46.1529 31.5148 43.8793C31.5148 41.6057 33.375 39.7455 35.6485 39.7455C37.9221 39.7455 39.7823 41.6057 39.7823 43.8793C39.7823 46.1529 37.9221 48.013 35.6485 48.013Z" fill="white"/>
</g>
</svg>
