<svg width="270" height="262" viewBox="0 0 270 262" fill="none" xmlns="http://www.w3.org/2000/svg">
<path d="M106.384 168.961C106.384 168.961 106.767 174.437 106.718 179.333C95.4505 181.624 83.6915 181.713 83.6915 181.713H74.5969C74.5969 181.713 74.4003 173.307 74.9214 168.686C94.5656 165.588 106.384 168.961 106.384 168.961Z" fill="#7CBFE8"/>
<path d="M90.0992 178.948C90.1188 174.838 87.5822 170.188 83.089 170.168C78.7334 170.148 75.1448 172.803 74.9186 176.746C73.552 193.617 74.9776 214.766 74.9776 214.766C74.958 217.617 77.4651 219.937 80.5818 219.947C83.5511 219.967 85.9992 217.853 86.2156 215.169L90.0402 179.823C90.0795 179.538 90.0992 179.243 90.0992 178.948Z" fill="#7CBFE8"/>
<mask id="mask0_5212_25538" style="mask-type:luminance" maskUnits="userSpaceOnUse" x="74" y="251" width="16" height="11">
<path d="M74.8945 251.096H89.9964V261.026H74.8945V251.096Z" fill="white"/>
</mask>
<g mask="url(#mask0_5212_25538)">
<path d="M87.4104 259.937C85.1884 258.305 82.8582 257.656 81.5899 255.493C81.698 254.293 80.6165 252.868 78.9451 252.789C77.2835 252.71 76.1725 253.841 76.1528 255.021C76.1528 255.188 76.143 255.385 76.1626 255.542C76.1626 255.542 74.8845 260.419 76.2413 260.487C77.6079 260.546 86.1519 260.969 86.1519 260.969C86.1519 260.969 88.895 261.028 87.4104 259.937Z" fill="#573961"/>
</g>
<path d="M81.0191 207.971C78.0302 207.862 75.5132 210.094 75.2085 213.024C75.1888 213.044 75.179 213.064 75.1593 213.093C74.9823 216.003 73.3011 218.206 72.9766 228.392C72.6521 238.568 76.1032 254.584 76.1032 254.584C76.0442 256.255 76.9782 257.524 78.6496 257.592C80.3211 257.651 81.4911 256.668 81.5501 254.997L86.3579 214.509C86.3972 214.283 86.4267 214.047 86.4365 213.811C86.5447 210.704 84.126 208.089 81.0191 207.971Z" fill="#BA735D"/>
<path d="M81.0463 207.519C75.2553 207.106 74.8718 212.347 74.6555 213.359C74.4294 214.362 72.7383 222.857 72.7383 222.857C72.7383 222.857 76.6711 224.666 85.5886 223.988L86.4047 214.195C86.5817 212.858 86.6505 207.912 81.0463 207.519Z" fill="#7CBFE8"/>
<path d="M81.9005 221.69C77.5253 221.523 73.5335 220.471 73.4844 220.461L73.5532 220.166C73.622 220.186 80.0128 221.867 85.4695 221.287L85.499 221.592C84.3192 221.71 83.1 221.739 81.9005 221.69Z" fill="#59A7CE"/>
<path d="M106.691 176.748C106.298 172.648 103.309 168.283 98.8357 168.715C94.5097 169.138 91.2061 172.127 91.3733 176.07C91.7075 193 95.2274 213.893 95.2274 213.893C95.5027 216.734 98.236 218.789 101.323 218.494C104.292 218.209 106.514 215.869 106.455 213.175L106.721 177.623C106.731 177.338 106.721 177.043 106.691 176.748Z" fill="#7CBFE8"/>
<mask id="mask1_5212_25538" style="mask-type:luminance" maskUnits="userSpaceOnUse" x="97" y="248" width="16" height="14">
<path d="M97.5488 248.584H112.651V261.031H97.5488V248.584Z" fill="white"/>
</mask>
<g mask="url(#mask1_5212_25538)">
<path d="M111.793 257.841C109.512 256.298 107.162 255.737 105.815 253.623C105.874 252.414 104.744 251.037 103.072 251.018C101.401 250.998 100.329 252.168 100.368 253.358C100.368 253.525 100.368 253.712 100.398 253.879C100.398 253.879 99.2967 258.795 100.663 258.815C102.02 258.824 110.574 258.923 110.574 258.923C110.574 258.923 113.327 258.874 111.793 257.841Z" fill="#573961"/>
</g>
<path d="M100.551 206.539C97.5717 206.726 95.2907 209.203 95.2809 212.143C95.2711 212.172 95.2514 212.192 95.2416 212.212C95.3595 215.132 93.9044 217.492 94.6025 227.658C95.2907 237.814 100.335 253.408 100.335 253.408C100.443 255.079 101.505 256.249 103.176 256.141C104.838 256.033 105.899 254.941 105.791 253.27L106.529 212.507C106.538 212.271 106.538 212.035 106.529 211.799C106.332 208.702 103.658 206.342 100.551 206.539Z" fill="#BA735D"/>
<path d="M100.542 206.076C94.7407 206.253 94.8882 211.504 94.7702 212.526C94.6424 213.549 93.8066 222.181 93.8066 222.181C93.8066 222.181 97.9066 223.577 106.706 222.014L106.539 212.192C106.578 210.845 106.156 205.909 100.542 206.076Z" fill="#7CBFE8"/>
<path d="M102.811 220.095C98.4361 220.37 94.3558 219.721 94.3066 219.712L94.3558 219.417C94.4246 219.426 100.943 220.459 106.311 219.328L106.38 219.633C105.22 219.869 104.001 220.016 102.811 220.095Z" fill="#59A7CE"/>
<path d="M123.325 74.4091C123.325 74.4091 124.446 83.5429 121.3 96.9045C120.543 99.4314 121.978 102.096 124.495 102.843C127.012 103.6 129.667 102.145 130.424 99.6182C130.493 99.3527 130.552 99.0872 130.581 98.8316C130.581 98.8316 132.459 87.2692 128.487 72.7376C128.271 71.8331 127.582 71.0564 126.619 70.7713C125.183 70.3387 123.669 71.1645 123.247 72.6098C123.06 73.2292 123.099 73.8585 123.325 74.4091Z" fill="#BA735D"/>
<path d="M122.733 69.0211C122.389 71.2038 123.038 73.6225 123.038 73.6225C123.038 73.6225 123.314 75.5987 125.477 75.8936C127.649 76.1788 128.475 73.6126 128.475 73.6126C128.475 73.6126 130.56 64.1248 130.334 63.8692C130.098 63.6135 129.803 64.0756 129.803 64.0756C129.803 64.0756 130.098 62.591 129.763 62.3747C129.429 62.1584 128.967 62.6009 128.967 62.6009C128.967 62.6009 129.114 61.7455 128.8 61.6078C128.475 61.48 127.935 62.5222 127.935 62.5222C127.935 62.5222 128.072 61.7356 127.59 61.4603C127.118 61.1949 125.142 65.7569 124.857 66.6713C124.769 66.9367 124.651 67.4972 124.523 68.1461C123.776 68.8245 124.297 65.5504 123.864 65.3833C123.432 65.2162 123.078 66.8384 122.733 69.0211Z" fill="#BA735D"/>
<path d="M99.7161 118.385C97.7497 121.099 98.5362 123.802 101.24 125.759C102.941 126.998 104.485 126.86 106.323 126.162L106.195 126.899C106.195 126.899 112.97 124.668 120.796 114.954C128.612 105.24 130.175 100.284 130.175 100.284C131.198 98.2295 130.628 95.6929 128.72 94.2968C126.597 92.7531 123.618 93.2349 122.064 95.3684C121.946 95.5356 121.838 95.6929 121.749 95.8699C121.749 95.8699 119.616 99.4585 113.579 105.987C107.542 112.525 101.23 115.898 101.23 115.898C100.453 116.32 100.276 117.618 99.7161 118.385Z" fill="#BA735D"/>
<path d="M100.502 126.143C102.203 127.382 104.347 127.598 106.195 126.9C106.195 126.9 110.885 125.357 116.971 119.231L108.968 110.412C104.71 114.04 101.23 115.898 101.23 115.898C100.453 116.321 99.7551 116.911 99.1947 117.678C97.2185 120.392 97.8084 124.187 100.502 126.143Z" fill="#FEEFEC"/>
<path d="M105.559 163.19L106.385 168.962C107.024 173.356 104.34 177.368 100.407 177.938L84.0859 180.278C80.1433 180.848 76.4366 177.722 75.8172 173.317L75.011 167.536C74.3916 163.151 77.0659 159.159 80.9888 158.589L97.3 156.249C101.233 155.689 104.93 158.795 105.559 163.19Z" fill="#7CBFE8"/>
<path d="M89.2342 101.965C87.1695 101.985 85.4981 103.676 85.5177 105.74L85.5767 114.127H85.5866C85.7439 116.064 87.3662 117.588 89.3522 117.568C91.4169 117.558 93.0884 115.867 93.0785 113.793L93.0195 105.691C92.9999 103.617 91.3088 101.955 89.2342 101.965Z" fill="#BA735D"/>
<path d="M105.934 119.073C104.037 117.52 99.3074 115.474 96.1316 114.186C94.1358 113.38 92.0121 112.967 89.8785 112.987C87.8531 112.997 85.8573 113.39 83.9695 114.137C80.0859 115.671 73.3412 118.473 71.9746 123.33C69.9688 130.419 73.8623 143.279 74.5604 152.708C75.0421 160.623 74.3637 168.931 74.3637 168.931C74.3637 168.931 77.4903 170.297 90.8617 170.199C104.233 170.111 106.878 168.105 106.878 168.105L106.966 151.951C107.173 149.493 107.419 146.583 107.724 143.142C108.982 129.239 108.923 121.501 105.934 119.073Z" fill="#FEEFEC"/>
<path d="M70.631 120.066C73.3938 118.149 76.3434 118.994 78.2606 121.747C79.4601 123.497 79.8534 125.366 79.1258 127.194C79.1258 127.194 76.7465 133.939 66.8556 141.539C56.9744 149.139 51.97 150.575 51.97 150.575C49.8954 151.548 47.3588 150.919 46.0118 148.972C44.5075 146.799 45.0483 143.81 47.2212 142.306C47.3785 142.198 47.5456 142.099 47.7226 142.011V142.001C47.7226 142.001 51.3604 139.966 58.0265 134.077C64.6925 128.187 68.2025 121.934 68.2025 121.934L68.6548 121.806C69.0874 121.03 69.8543 120.607 70.631 120.066Z" fill="#BA735D"/>
<path d="M78.4766 121.462C79.6859 123.212 79.8531 125.365 79.1255 127.194C79.1255 127.194 77.4737 131.874 71.2206 137.823L62.5488 129.564C66.2653 125.375 68.2022 121.934 68.2022 121.934C68.6348 121.167 69.2444 120.469 70.0309 119.938C72.7839 118.021 76.5692 118.709 78.4766 121.462Z" fill="#FEEFEC"/>
<path d="M82.6504 114.671C82.6504 114.671 85.2165 118.388 90.7912 117.876C96.3758 117.355 96.6707 114.406 96.6707 114.406C96.6707 114.406 95.6187 113.885 94.5077 113.501C93.3967 113.128 93.0624 112.164 93.0624 112.164L85.5606 112.567C85.5606 112.567 85.3542 113.423 84.5873 113.777C83.8204 114.13 82.6504 114.671 82.6504 114.671Z" fill="#BA735D"/>
<path d="M85.5176 106.885C85.5176 106.885 86.6679 108.89 89.1554 109.657C91.6429 110.424 93.0194 110.149 93.0194 110.149L93.0488 110.552C93.0488 110.552 90.3942 112.204 85.5471 111.299C85.5372 109.48 85.5176 106.885 85.5176 106.885Z" fill="#965847"/>
<path d="M89.9154 119.425C84.085 119.464 81.2927 115.61 81.2632 115.57C81.2239 115.502 81.2337 115.413 81.3026 115.364C81.3714 115.315 81.4599 115.334 81.509 115.393C81.5385 115.443 84.5668 119.611 90.928 119.08C97.2402 118.55 97.7219 115.01 97.7317 114.971C97.7416 114.892 97.8104 114.833 97.8989 114.843C97.9775 114.853 98.0365 114.931 98.0267 115.01C98.007 115.167 97.5253 118.825 90.9575 119.375C90.5938 119.405 90.2496 119.425 89.9154 119.425Z" fill="#ABC6DA"/>
<path d="M84.053 104.528C84.053 104.528 86.5798 110.85 91.9972 110.762C97.4146 110.664 98.1422 105.118 97.041 99.8288C95.9497 94.5392 94.1799 89.9772 90.1291 89.5839C86.0784 89.1906 82.0374 91.511 82.008 96.1811C81.9883 100.841 84.053 104.528 84.053 104.528Z" fill="#BA735D"/>
<path d="M90.3926 105.387L95.6133 104.207C95.6133 104.207 95.7215 106.35 93.5093 106.685C91.2971 107.029 90.3926 105.387 90.3926 105.387Z" fill="white"/>
<path d="M84.28 95.2712C84.28 95.2712 85.0862 93.9734 87.1903 93.6588C89.2943 93.3343 93.3844 95.0942 94.869 93.1967C95.4196 94.3077 95.6752 94.9468 95.6752 94.9468C95.6752 94.9468 97.4351 91.2401 94.5839 88.32C91.7424 85.4098 88.4291 85.4491 87.5639 85.98C86.6987 86.511 86.0792 86.7961 83.8867 87.209C81.6942 87.6121 79.0887 89.3032 79.2264 90.6994C79.3739 92.0955 77.8794 93.9046 77.9187 97.2081C77.9679 100.512 80.8781 102.478 81.6254 103.992C82.3726 105.506 83.6016 107.119 85.0666 106.421C83.6901 103.225 83.9752 101.475 84.3095 99.3908C84.6438 97.3163 84.28 95.2712 84.28 95.2712Z" fill="#38293F"/>
<path d="M38.805 124.923C38.805 124.923 42.9049 133.172 52.904 142.571C54.9294 144.262 55.2047 147.281 53.5037 149.316C51.8127 151.341 48.7942 151.607 46.759 149.916C46.5526 149.739 46.3658 149.552 46.1888 149.345C46.1888 149.345 38.2544 140.742 33.5646 126.408C33.2401 125.523 33.3876 124.49 34.0365 123.723C35 122.563 36.7206 122.406 37.8808 123.379C38.3724 123.782 38.687 124.343 38.805 124.923Z" fill="#BA735D"/>
<path d="M37.6194 120.085C38.6026 122.061 38.7009 124.568 38.7009 124.568C38.7009 124.568 39.0352 126.544 37.0492 127.478C35.0631 128.422 33.4998 126.21 33.4998 126.21C33.4998 126.21 28.6527 117.794 28.8002 117.469C28.9477 117.155 29.3704 117.509 29.3704 117.509C29.3704 117.509 28.6429 116.181 28.8985 115.876C29.1541 115.562 29.7244 115.837 29.7244 115.837C29.7244 115.837 29.3311 115.07 29.5966 114.844C29.862 114.628 30.6879 115.454 30.6879 115.454C30.6879 115.454 30.3241 114.746 30.6977 114.343C31.0812 113.94 34.3356 117.695 34.8763 118.472C35.0435 118.708 35.3286 119.209 35.6432 119.79C36.5576 120.203 35.073 117.233 35.4367 116.938C35.8104 116.653 36.6362 118.098 37.6194 120.085Z" fill="#BA735D"/>
<path d="M164.942 105.457C164.942 105.457 164.558 102.724 167.184 101.396C169.799 100.069 171.185 101.377 172.178 101.278C173.171 101.17 174.882 99.2826 178.304 100.344C181.715 101.406 182.138 104.434 182.639 104.916C183.141 105.398 186.13 105.732 187.585 108.702C189.05 111.681 187.192 114.964 187.024 115.672C186.857 116.38 188.106 120.864 185.854 123.469C183.603 126.075 181.224 125.642 180.604 126.212C179.985 126.773 177.891 128.67 173.417 129.093C168.944 129.506 166.377 126.832 165.119 126.694C163.86 126.556 160.282 123.941 160.154 120.431C160.036 116.921 161.088 116.705 161.058 115.8C161.029 114.906 160.144 114.04 160.557 110.756C160.96 107.482 164.509 106.598 164.942 105.457Z" fill="#38293F"/>
<path d="M161.482 133.998C163.429 133.163 165.73 134.175 166.615 136.25C167.214 137.685 166.998 139.249 166.162 140.35C165.828 140.792 162.839 144.676 156.97 148.323C150.736 152.207 144.984 154.419 144.984 154.419C143.401 155.098 141.533 154.272 140.816 152.59C140.098 150.899 140.806 148.982 142.389 148.314C142.389 148.314 146.666 146.573 151.405 143.004C156.134 139.435 160.008 135.149 160.008 135.149C160.381 134.657 160.883 134.254 161.482 133.998Z" fill="#BA735D"/>
<path d="M166.614 136.25C167.214 137.685 166.998 139.249 166.162 140.35C165.897 140.704 163.95 143.24 160.204 146.101C159.112 145.492 157.402 143.909 155.18 139.878C158.031 137.331 160.007 135.149 160.007 135.149C160.381 134.657 160.882 134.254 161.482 133.998C163.429 133.163 165.729 134.175 166.614 136.25Z" fill="#BA735D"/>
<path d="M136.106 131.402C139.163 140.457 144.866 147.408 146.311 149.09C146.439 149.198 146.547 149.335 146.655 149.473C147.688 150.869 147.334 152.885 145.859 153.976C144.384 155.067 142.349 154.822 141.317 153.416C141.277 153.367 141.248 153.317 141.209 153.268C134.021 142.905 133.117 131.835 133.117 131.835C132.891 131.107 132.527 130.881 133.205 130.379C134.051 129.76 135.211 129.908 135.801 130.704C135.958 130.91 136.057 131.156 136.106 131.402Z" fill="#BA735D"/>
<path d="M163.562 160.703C163.562 160.703 158.646 164.862 156.316 170.417C153.996 175.972 153.603 179.895 160.976 180.721C168.36 181.547 169.324 182.304 171.546 182.559C173.778 182.805 186.893 181.861 184.642 173.789C182.4 165.727 177.779 160.88 177.779 160.88C177.779 160.88 175.754 158.294 171.28 157.714C166.797 157.124 163.562 160.703 163.562 160.703Z" fill="#FDC442"/>
<path d="M177.773 121.628C177.773 121.628 175.64 127.124 170.685 126.898C165.739 126.682 165.297 121.677 166.319 116.987C167.352 112.288 169.711 107.313 174.588 107.844C179.474 108.385 181.519 113.802 177.773 121.628Z" fill="#BA735D"/>
<path d="M172.839 121.295C174.353 121.335 175.553 122.593 175.523 124.107L175.366 130.675C175.336 132.199 174.078 133.399 172.554 133.369C171.04 133.33 169.84 132.071 169.87 130.557L170.027 123.98C170.056 122.465 171.315 121.266 172.839 121.295Z" fill="#BA735D"/>
<path d="M171.137 129.738C173.211 129.532 175.296 129.935 177.164 130.849C179.504 131.99 184.164 134.586 184.538 135.284C185.079 136.296 183.417 143.867 181.47 148.989C179.533 154.112 178.354 158.074 178.442 160.031C178.521 161.987 177.488 165.261 170.193 165.448C162.888 165.625 163.35 162.105 163.144 160.011C162.927 157.927 161.747 153.355 161.374 152.303C161.01 151.251 158.375 148.97 159.063 145.381C159.752 141.792 160.509 140.917 160.774 139.138C161.03 137.348 161.177 134.704 161.718 133.809C162.259 132.904 167.656 130.387 170.193 129.876C170.508 129.817 170.822 129.768 171.137 129.738Z" fill="#FDC442"/>
<path d="M172.551 121.984L167.664 120.941C167.664 120.941 167.586 122.947 169.651 123.232C171.725 123.527 172.551 121.984 172.551 121.984Z" fill="white"/>
<mask id="mask2_5212_25538" style="mask-type:luminance" maskUnits="userSpaceOnUse" x="160" y="248" width="14" height="14">
<path d="M160.469 248.584H173.054V261.031H160.469V248.584Z" fill="white"/>
</mask>
<g mask="url(#mask2_5212_25538)">
<path d="M160.667 258.855C161.168 257.744 165.976 256.732 166.399 253.271C166.271 252.052 167.156 250.95 168.385 250.823C169.614 250.685 170.705 251.58 170.843 252.809C170.843 252.809 170.961 253.772 171.344 254.991C171.728 256.22 172.504 258.383 170.558 258.59C168.601 258.796 163.351 259.357 163.351 259.357C163.351 259.357 160.165 259.966 160.667 258.855Z" fill="#573961"/>
</g>
<path d="M161.099 218.634C160.873 216.136 162.702 213.924 165.199 213.698C167.588 213.472 169.722 215.153 170.095 217.483C172.17 224.838 172.74 231.533 171.786 239.517C170.833 247.49 170.803 252.495 170.803 252.495C170.921 253.724 170.017 254.815 168.788 254.923C167.559 255.041 166.477 254.137 166.359 252.908C165.071 238.966 161.532 220.905 161.178 219.145C161.178 219.116 161.168 219.076 161.158 219.047C161.158 219.017 161.158 219.007 161.158 219.007C161.128 218.889 161.119 218.762 161.099 218.634Z" fill="#BA735D"/>
<path d="M156.136 182.255C156.009 181.734 156.5 180.171 156.471 179.63C156.245 175.176 158.604 172.669 162.842 172.738C167.079 172.816 170.619 175.392 170.835 179.846C170.845 180.013 170.845 180.171 170.845 180.338C172.084 201.722 170.236 218.378 170.236 218.378H170.226C170.245 218.486 170.255 218.594 170.255 218.702C170.393 221.357 168.446 223.471 165.929 223.421C163.53 223.382 161.465 221.406 161.151 218.938L156.136 182.255Z" fill="#BA735D"/>
<path d="M162.77 171.646C167.008 171.724 170.626 175.391 170.842 179.845C170.852 180.012 170.852 180.17 170.852 180.337C171.216 186.551 171.314 192.361 171.275 197.484L158.09 197.582L155.731 181.163C155.603 180.652 155.524 180.121 155.495 179.58C155.278 175.126 158.533 171.577 162.77 171.646Z" fill="#C5C7DD"/>
<mask id="mask3_5212_25538" style="mask-type:luminance" maskUnits="userSpaceOnUse" x="183" y="248" width="13" height="14">
<path d="M183.119 248.584H195.704V261.031H183.119V248.584Z" fill="white"/>
</mask>
<g mask="url(#mask3_5212_25538)">
<path d="M184.542 259.321C184.738 258.122 189.124 255.9 188.632 252.449C188.189 251.298 188.76 250 189.91 249.558C191.06 249.116 192.348 249.686 192.791 250.836C192.791 250.836 193.155 251.741 193.853 252.822C194.531 253.904 195.858 255.791 194.02 256.499C192.191 257.207 187.265 259.105 187.265 259.105C187.265 259.105 184.355 260.53 184.542 259.321Z" fill="#573961"/>
</g>
<path d="M174.517 220.364C173.642 218.014 174.841 215.408 177.181 214.533C179.443 213.698 181.93 214.759 182.903 216.922C186.817 223.48 189.107 229.802 190.258 237.756C191.418 245.7 192.686 250.548 192.686 250.548C193.109 251.698 192.519 252.986 191.369 253.419C190.209 253.841 188.93 253.261 188.498 252.101C183.631 238.966 175.52 222.448 174.723 220.845C174.713 220.816 174.694 220.777 174.674 220.747C174.664 220.727 174.664 220.718 174.664 220.718C174.605 220.6 174.556 220.482 174.517 220.364Z" fill="#BA735D"/>
<path d="M169.107 182.255C168.989 181.734 169.47 180.171 169.451 179.63C169.225 175.176 171.574 172.669 175.812 172.738C180.059 172.816 183.589 175.392 183.815 179.846C183.825 180.013 183.825 180.171 183.825 180.338C185.064 201.722 183.206 218.378 183.206 218.378C183.215 218.486 183.225 218.594 183.235 218.702C183.363 221.357 181.426 223.471 178.899 223.421C176.5 223.382 174.445 221.406 174.131 218.938H174.121L169.107 182.255Z" fill="#BA735D"/>
<path d="M175.74 171.646C179.977 171.724 183.596 175.391 183.822 179.845C183.831 180.012 183.832 180.17 183.832 180.337C184.195 186.551 184.294 192.361 184.244 197.484L171.06 197.582L168.7 181.163C168.582 180.652 168.503 180.121 168.474 179.58C168.248 175.126 171.502 171.577 175.74 171.646Z" fill="#C5C7DD"/>
<path d="M169.953 126.829C169.953 126.829 173.267 127.212 175.499 124.971C175.489 125.561 175.489 125.561 175.489 125.561C175.489 125.561 174.122 128.156 169.924 128.284C169.943 127.468 169.953 126.829 169.953 126.829Z" fill="#965847"/>
<path d="M163.22 132.71C163.22 132.71 162.955 135.866 170.102 135.522C177.26 135.168 181.655 133.182 181.655 133.182C181.655 133.182 179.541 131.904 177.722 131.009C175.903 130.114 175.382 130.006 175.392 129.367C172.482 128.797 169.906 129.092 169.906 129.092C169.906 129.092 169.916 129.682 168.893 130.036C167.88 130.39 164.508 131.845 163.22 132.71Z" fill="#BA735D"/>
<path d="M167.252 113.795C167.252 113.795 168.097 111.514 169.641 111.013C171.194 110.501 171.843 112.32 173.76 112.704C175.678 113.087 177.025 112.428 177.634 113.136C178.234 113.844 178.775 115.476 177.467 116.951C176.15 118.426 176.671 119.92 176.877 121.444C177.084 122.978 175.294 124.079 175.501 124.974C177.801 123.853 184.133 114.631 178.922 109.312C173.711 104.002 166.514 108.584 167.252 113.795Z" fill="#38293F"/>
<path d="M158.835 165.97C158.835 165.97 154.46 171.387 152.838 180.314C151.225 189.232 144.028 200.726 144.864 209.181C151.658 208.218 162.768 212.701 178.588 213.871C194.397 215.051 201.919 205.091 201.919 205.091C201.919 205.091 192.47 182.104 187.417 174.15C182.353 166.196 180.603 164.672 180.603 164.672L158.835 165.97Z" fill="#FDC442"/>
<path d="M163.207 161.017C163.207 161.017 170.846 162.748 178.269 161.44C178.309 159.238 178.653 157.596 178.653 157.596C178.653 157.596 170.964 158.304 162.656 157.311C163.01 159.1 163.207 161.017 163.207 161.017Z" fill="#F26346"/>
<path d="M215.36 145.658V145.648C208.085 150.436 200.101 151.911 198.125 152.216C197.977 152.225 197.82 152.245 197.663 152.284C196.139 152.658 195.264 154.398 195.696 156.178C196.129 157.967 197.712 159.108 199.236 158.734C199.295 158.724 199.344 158.705 199.393 158.695C210.346 155.637 217.337 148.794 217.337 148.794C217.907 148.401 218.192 147.604 217.995 146.779C217.75 145.766 216.845 145.117 215.97 145.323C215.744 145.382 215.537 145.5 215.36 145.658Z" fill="#BA735D"/>
<path d="M184.916 135.534C183.068 134.246 180.522 134.698 179.243 136.556C178.349 137.834 178.29 139.437 178.949 140.735C179.214 141.256 181.564 145.818 186.932 150.842C192.635 156.181 196.715 158.216 196.715 158.216C198.219 159.258 200.294 158.884 201.336 157.38C202.378 155.876 202.014 153.811 200.5 152.759C200.5 152.759 196.42 150.016 192.212 145.346C188.004 140.676 186.224 137.028 186.224 137.028C185.929 136.448 185.497 135.927 184.916 135.534Z" fill="#BA735D"/>
<path d="M179.234 136.556C178.35 137.834 178.291 139.437 178.949 140.735C179.156 141.148 180.699 144.127 184.023 147.853C185.252 147.519 187.297 146.349 190.325 142.878C187.857 139.663 186.225 137.028 186.225 137.028C185.93 136.448 185.497 135.927 184.917 135.534C183.069 134.246 180.522 134.698 179.234 136.556Z" fill="#BA735D"/>
<path d="M152.373 199.196C153.788 199.305 155.096 198.194 155.214 196.778C155.332 195.352 154.221 194.044 152.795 193.936C151.37 193.818 150.072 194.929 149.954 196.345C149.836 197.771 150.937 199.078 152.373 199.196Z" fill="#FFDC97"/>
<path d="M169.515 202.844C170.941 202.962 172.248 201.851 172.366 200.435C172.475 199.009 171.373 197.701 169.948 197.583C168.522 197.475 167.214 198.586 167.106 200.002C166.988 201.428 168.09 202.735 169.515 202.844Z" fill="#FFDC97"/>
<path d="M190.416 200.523C191.842 200.641 193.14 199.53 193.258 198.104C193.376 196.678 192.265 195.38 190.839 195.263C189.423 195.145 188.116 196.256 187.998 197.681C187.889 199.107 188.991 200.405 190.416 200.523Z" fill="#FFDC97"/>
<path d="M178.297 189.726C179.723 189.844 181.03 188.733 181.139 187.307C181.257 185.881 180.155 184.584 178.73 184.466C177.304 184.348 175.996 185.459 175.878 186.884C175.77 188.31 176.871 189.608 178.297 189.726Z" fill="#FFDC97"/>
<path d="M161.786 183.473C161.718 183.463 161.659 183.492 161.609 183.541L161.786 183.473Z" fill="#FFDC97"/>
<path d="M161.99 180.839C161.42 180.8 161.076 180.888 160.545 181.105L160.525 181.114L160.515 181.124C160.319 181.242 160.132 181.36 159.945 181.488C159.925 181.508 159.916 181.518 159.896 181.527C159.621 181.754 159.414 182.019 159.286 182.334C159.099 182.638 158.991 182.963 158.981 183.327C158.932 183.69 158.981 184.035 159.119 184.359C159.198 184.693 159.355 184.988 159.601 185.254C159.758 185.401 159.925 185.558 160.092 185.706C160.486 185.971 160.918 186.129 161.39 186.168C161.626 186.158 161.862 186.148 162.098 186.139C162.56 186.05 162.963 185.853 163.317 185.558C163.327 185.539 163.347 185.529 163.367 185.509C163.17 185.637 162.983 185.755 162.796 185.883C162.806 185.873 162.826 185.863 162.836 185.863C162.619 185.932 162.403 186.001 162.187 186.08C162.206 186.07 162.226 186.07 162.246 186.06C162.01 186.08 161.774 186.089 161.538 186.099C161.548 186.099 161.557 186.099 161.567 186.099C161.931 186.148 162.275 186.099 162.6 185.962C162.934 185.883 163.229 185.726 163.485 185.48C163.77 185.264 163.966 184.998 164.104 184.683C164.291 184.379 164.399 184.054 164.409 183.69C164.399 183.454 164.389 183.218 164.369 182.983C164.281 182.52 164.094 182.117 163.789 181.763C163.622 181.616 163.455 181.459 163.288 181.311C162.904 181.036 162.472 180.878 161.99 180.839Z" fill="#FFDC97"/>
<path d="M169.545 173.584C170.971 173.702 172.278 172.591 172.387 171.175C172.505 169.749 171.403 168.442 169.978 168.324C168.552 168.216 167.244 169.327 167.126 170.742C167.018 172.168 168.12 173.476 169.545 173.584Z" fill="#FFDC97"/>
<path d="M166.755 155.169C168.181 155.287 169.489 154.176 169.607 152.75C169.725 151.325 168.614 150.027 167.188 149.909C165.762 149.791 164.465 150.902 164.347 152.328C164.229 153.753 165.33 155.051 166.755 155.169Z" fill="#FFDC97"/>
<path d="M172.395 145.728C173.82 145.846 175.128 144.735 175.236 143.309C175.354 141.883 174.253 140.586 172.827 140.468C171.402 140.35 170.094 141.461 169.976 142.886C169.868 144.312 170.969 145.61 172.395 145.728Z" fill="#FFDC97"/>
<path d="M201.692 205.368C201.367 205.182 201.004 205.054 200.61 205.024C199.195 204.906 197.887 206.017 197.769 207.443C197.73 207.895 197.818 208.328 197.995 208.721C199.883 207.394 201.191 205.958 201.692 205.368Z" fill="#FFDC97"/>
<path d="M186.643 213.518C186.712 212.112 185.621 210.853 184.225 210.735C182.799 210.617 181.491 211.728 181.373 213.154C181.354 213.429 181.383 213.704 181.442 213.96C182.524 213.95 184.805 213.872 186.643 213.518Z" fill="#FFDC97"/>
<path d="M161.887 211.445C162.084 211.111 162.222 210.737 162.251 210.344C162.369 208.919 161.258 207.611 159.833 207.503C158.417 207.385 157.109 208.496 156.991 209.912C156.972 210.098 156.981 210.275 157.001 210.452L161.887 211.445Z" fill="#FFDC97"/>
<path d="M186.619 172.904C185.725 173.278 185.046 174.123 184.968 175.126C184.85 176.552 185.961 177.85 187.386 177.968C188.084 178.027 188.753 177.781 189.274 177.358C188.222 175.402 187.072 173.602 186.619 172.904Z" fill="#FFDC97"/>
<path d="M156.119 170.426C155.794 171.085 154.939 172.874 154.162 175.175C154.241 175.184 154.319 175.204 154.398 175.204C155.824 175.322 157.131 174.211 157.24 172.795C157.318 171.842 156.856 170.957 156.119 170.426Z" fill="#FFDC97"/>
<path d="M163.213 161.016L161.119 163.139C161.552 163.847 162.299 164.358 163.164 164.427C164.59 164.545 165.897 163.434 166.006 162.009C166.025 161.832 166.015 161.665 165.996 161.488C164.944 161.34 163.213 161.016 163.213 161.016Z" fill="#FFDC97"/>
<path d="M176.582 161.705L175.265 161.813C175.235 161.931 175.216 162.049 175.206 162.177C175.088 163.603 176.189 164.9 177.625 165.018C178.598 165.097 179.522 164.596 180.043 163.809C180.043 163.809 178.195 162.806 176.582 161.705Z" fill="#FFDC97"/>
<path d="M181.618 148.815C180.202 148.697 178.894 149.808 178.776 151.234C178.698 152.168 179.15 153.053 179.878 153.574L181.618 148.815Z" fill="#FFDC97"/>
<path d="M175.48 134.911C175.913 135.364 176.493 135.659 177.152 135.718C178.381 135.816 179.521 135 179.885 133.85C178.469 134.371 176.277 134.774 175.48 134.911Z" fill="#FFDC97"/>
<path d="M161.394 137.694C161.246 137.684 161.099 137.684 160.961 137.704C160.922 138.127 160.814 139.159 160.519 140.27C160.243 141.302 159.939 142.148 159.781 142.551C160.135 142.767 160.538 142.915 160.971 142.954C162.387 143.072 163.694 141.961 163.812 140.535C163.93 139.11 162.819 137.812 161.394 137.694Z" fill="#FFDC97"/>
<path d="M136.195 131.402C136.195 131.402 136.106 129.583 135.683 128.168C135.261 126.752 135.123 125.523 134.956 124.815C134.798 124.107 134.199 124.943 134.307 125.739C134.415 126.545 134.474 127.076 134.13 126.998C133.786 126.919 131.387 122.79 130.875 122.554C130.374 122.327 130.227 122.524 130.728 123.497C131.161 124.333 132.458 126.998 132.458 126.998C132.458 126.998 129.961 124.146 129.479 123.586C128.988 123.016 128.358 123.232 129.057 124.225C129.755 125.228 131.475 127.696 131.475 127.696C131.475 127.696 128.545 125.218 128.083 125.041C127.611 124.864 127.483 125.346 128.103 125.965C128.722 126.575 130.639 128.335 130.551 128.364C130.472 128.394 128.998 127.824 128.309 127.588C127.611 127.361 127.267 127.509 127.867 128.06C128.467 128.6 130.256 129.387 130.492 129.515C130.718 129.633 132.272 131.206 132.921 132.366C133.579 133.526 136.195 133.221 136.195 131.402Z" fill="#BA735D"/>
<path d="M214.631 146.614C214.631 146.614 215.575 145.051 216.617 144.009C217.659 142.966 218.367 141.954 218.849 141.403C219.331 140.853 219.459 141.875 218.977 142.534C218.505 143.183 218.2 143.625 218.544 143.724C218.888 143.812 222.959 141.325 223.509 141.364C224.07 141.393 224.109 141.639 223.205 142.259C222.418 142.789 220.009 144.51 220.009 144.51C220.009 144.51 223.559 143.193 224.257 142.927C224.955 142.671 225.407 143.143 224.316 143.694C223.224 144.245 220.55 145.601 220.55 145.601C220.55 145.601 224.306 144.805 224.797 144.874C225.289 144.933 225.171 145.434 224.335 145.68C223.5 145.916 220.983 146.555 221.042 146.624C221.091 146.683 222.664 146.88 223.382 147.007C224.099 147.135 224.325 147.43 223.539 147.627C222.752 147.823 220.806 147.666 220.55 147.656C220.284 147.656 218.171 148.295 217.05 149.013C215.919 149.721 213.756 148.217 214.631 146.614Z" fill="#BA735D"/>
<path d="M98.3592 115.113C98.3592 115.113 102.439 114.955 107.011 112.006C110.403 119.763 113.825 122.133 113.825 122.133L107.503 128.229L99.3719 118.436C99.3719 118.436 97.8971 117.207 98.3592 115.113Z" fill="#FEEFEC"/>
<mask id="mask4_5212_25538" style="mask-type:luminance" maskUnits="userSpaceOnUse" x="0" y="0" width="136" height="93">
<path d="M0.3125 0.777344H135.295V92.529H0.3125V0.777344Z" fill="white"/>
</mask>
<g mask="url(#mask4_5212_25538)">
<path d="M135.163 0.777344V11.7989L4.93891 90.3463L0.386719 83.0805L135.163 0.777344Z" fill="#ABC6DA"/>
</g>
<mask id="mask5_5212_25538" style="mask-type:luminance" maskUnits="userSpaceOnUse" x="132" y="0" width="139" height="93">
<path d="M132.777 0.777344H270.002V92.529H132.777V0.777344Z" fill="white"/>
</mask>
<g mask="url(#mask5_5212_25538)">
<path d="M135.156 0.763672V11.7951L265.38 90.3425L269.933 83.0766L135.156 0.763672Z" fill="#ABC6DA"/>
</g>
<mask id="mask6_5212_25538" style="mask-type:luminance" maskUnits="userSpaceOnUse" x="17" y="74" width="11" height="188">
<path d="M17 74.9062H27.0679V261.025H17V74.9062Z" fill="white"/>
</mask>
<g mask="url(#mask6_5212_25538)">
<path d="M17.75 260.81H26.2546V76.4609H17.75V260.81Z" fill="#ABC6DA"/>
</g>
<mask id="mask7_5212_25538" style="mask-type:luminance" maskUnits="userSpaceOnUse" x="241" y="74" width="13" height="188">
<path d="M241.01 74.9062H253.595V261.025H241.01V74.9062Z" fill="white"/>
</mask>
<g mask="url(#mask7_5212_25538)">
<path d="M243.518 260.81H252.022V76.4609H243.518V260.81Z" fill="#ABC6DA"/>
</g>
<path d="M43.6855 58.8822V15.248H66.7611V45.5599L43.6855 58.8822Z" fill="#ABC6DA"/>
<path d="M205.577 242.554C205.518 242.289 205.478 242.013 205.469 241.738C205.41 239.673 206.816 237.874 208.605 237.726C210.394 237.579 211.889 239.132 211.948 241.197C212.97 247.244 211.682 256.22 211.682 256.22C211.623 256.987 210.965 257.813 209.972 257.902C209.254 257.961 208.31 257.449 208.163 256.26C207.484 251.58 205.872 244.058 205.577 242.554Z" fill="#BA735D"/>
<path d="M203.374 223.529C203.315 223.205 203.285 222.88 203.285 222.536C203.295 219.774 205.242 217.611 207.641 217.719C209.941 217.827 211.809 219.96 211.957 222.576C212.783 230.628 211.908 241.522 211.908 241.522C211.898 243.596 210.443 245.209 208.653 245.12C207.031 245.052 205.694 243.606 205.458 241.797L203.374 223.529Z" fill="#BA735D"/>
<mask id="mask8_5212_25538" style="mask-type:luminance" maskUnits="userSpaceOnUse" x="203" y="253" width="11" height="9">
<path d="M203.256 253.615H213.324V261.029H203.256V253.615Z" fill="white"/>
</mask>
<g mask="url(#mask8_5212_25538)">
<path d="M205.23 259.171C205.78 258.384 207.678 258.069 208.11 256.427C208.11 256.388 208.11 256.349 208.11 256.309C208.179 255.189 209.025 254.304 209.988 254.343C210.962 254.373 211.689 255.307 211.62 256.437C211.62 256.467 211.61 256.506 211.61 256.545C211.61 256.545 212.515 260.272 211.06 260.223C209.615 260.164 205.682 260.026 205.682 260.026C205.682 260.026 204.689 259.947 205.23 259.171Z" fill="#BA735D"/>
</g>
<mask id="mask9_5212_25538" style="mask-type:luminance" maskUnits="userSpaceOnUse" x="203" y="256" width="11" height="6">
<path d="M203.256 256.129H213.324V261.025H203.256V256.129Z" fill="white"/>
</mask>
<g mask="url(#mask9_5212_25538)">
<path d="M205.23 259.172C205.338 259.014 205.505 258.867 205.701 258.739C206.262 259.201 207.491 259.28 209.516 259.005C210.598 258.857 211.375 258.572 211.876 258.326C211.935 259.27 211.807 260.243 211.07 260.224C209.615 260.165 205.682 260.027 205.682 260.027C205.682 260.027 204.689 259.948 205.23 259.172Z" fill="#C5C7DD"/>
</g>
<path d="M183.482 196.785C183.61 196.716 183.758 196.657 183.905 196.608C185.498 195.93 191.191 193.305 196.008 188.713C196.402 188.28 196.913 187.936 197.503 187.759C199.105 187.287 200.688 188.241 201.023 189.893C201.249 190.994 200.865 192.125 200.118 192.901C200.118 192.901 194.268 199.302 185.134 201.603V201.593C185.075 201.613 185.026 201.632 184.977 201.652C183.62 202.045 182.293 201.249 182.008 199.853C181.762 198.624 182.401 197.346 183.482 196.785Z" fill="#BA735D"/>
<path d="M192.57 191.604C193.73 190.748 194.891 189.785 196.011 188.713C196.405 188.28 196.916 187.936 197.506 187.759C199.109 187.287 200.692 188.241 201.026 189.893C201.252 190.994 200.868 192.125 200.121 192.901C200.121 192.901 198.696 194.465 196.149 196.323C195.028 195.527 193.711 194.121 192.57 191.604Z" fill="#C5C7DD"/>
<path d="M196.208 242.227C196.149 241.962 196.109 241.696 196.099 241.411C196.04 239.346 197.446 237.557 199.236 237.409C201.025 237.252 202.52 238.806 202.579 240.87C203.601 246.917 202.303 255.893 202.303 255.893C202.254 256.67 201.596 257.496 200.593 257.575C199.885 257.634 198.941 257.122 198.793 255.933C198.115 251.253 196.503 243.741 196.208 242.227Z" fill="#BA735D"/>
<path d="M194.003 223.203C193.944 222.889 193.914 222.554 193.914 222.22C193.924 219.447 195.871 217.294 198.27 217.402C200.57 217.501 202.438 219.644 202.586 222.249C203.402 230.302 202.537 241.205 202.537 241.205C202.527 243.27 201.072 244.883 199.282 244.804C197.66 244.725 196.323 243.29 196.087 241.481L194.003 223.203Z" fill="#BA735D"/>
<path d="M195.431 211.15C195.431 211.15 194.979 218.868 195.677 222.191C196.375 225.514 211.742 224.875 212.794 222.092C213.846 219.3 212.627 210.343 212.627 210.343C212.627 210.343 211.831 207.03 203.621 207.384C195.402 207.738 195.431 211.15 195.431 211.15Z" fill="#D49B90"/>
<path d="M201.653 186.246C201.653 186.246 196.934 187.446 196.314 188.498C195.764 189.451 194.997 199.087 195.312 208.427C195.371 210.177 196.737 211.554 198.34 211.455L209.814 210.738C211.357 210.639 212.537 209.214 212.458 207.523C212.321 204.494 212.144 199.805 212.213 196.304C212.321 190.71 212.586 188.734 212.075 187.839C211.564 186.944 206.048 185.224 201.653 186.246Z" fill="#C5C7DD"/>
<path d="M204.281 179.451C205.766 179.51 206.926 180.877 206.857 182.509L206.67 186.786C206.601 188.408 205.343 189.676 203.858 189.617C202.364 189.549 201.213 188.182 201.282 186.56L201.459 182.283C201.528 180.651 202.796 179.392 204.281 179.451Z" fill="#BA735D"/>
<path d="M179.383 187.388C179.383 187.388 181.369 192.324 185.754 197.141C185.823 197.2 185.882 197.279 185.941 197.348C186.865 198.469 186.806 200.15 185.813 201.113C184.81 202.067 183.247 201.939 182.323 200.818C182.215 200.7 182.126 200.563 182.048 200.425C181.192 199.147 178.498 194.821 176.384 188.184C176.335 188.066 176.296 187.939 176.266 187.821V187.811C176.148 187.231 176.306 186.611 176.738 186.198C177.377 185.589 178.38 185.667 178.97 186.385C179.206 186.68 179.344 187.034 179.383 187.388Z" fill="#BA735D"/>
<path d="M178.814 185.382C179.197 186.375 179.344 187.141 179.344 187.141C179.413 187.436 179.167 188.292 178.056 188.616C176.945 188.931 176.326 187.997 176.326 187.997C176.326 187.997 174.999 184.448 175.146 184.32C175.304 184.192 175.854 185.057 175.854 185.057C175.854 185.057 175.215 183.749 175.392 183.641C175.569 183.523 176.356 184.585 176.356 184.585C176.356 184.585 175.697 183.248 175.913 183.051C176.12 182.855 176.955 184.143 176.955 184.143C176.955 184.143 176.474 183.022 176.631 182.855C176.788 182.678 177.201 183.307 177.467 183.799C177.604 184.054 177.909 184.644 178.184 185.165C178.253 185.028 177.909 184.054 178.106 183.995C178.302 183.946 178.43 184.389 178.814 185.382Z" fill="#BA735D"/>
<path d="M195.304 208.063C192.796 217.659 191.027 222.28 186.298 230.814C185.354 232.515 186.416 233.37 187.753 233.715C188.883 234.01 190.319 233.528 191.528 233.882C193.77 234.531 195.854 235.789 198.234 236.025C200.613 236.251 202.894 234.993 205.263 235.307C207.633 235.622 209.678 236.33 212.047 235.986C214.427 235.642 215.449 233.911 217.288 233.341C219.117 232.781 220.336 232.613 221.919 232.033C222.597 231.787 222.823 231.296 223.049 230.794C223.452 229.939 223.079 228.366 222.705 227.825C217.789 220.687 216.039 215.437 212.451 207.984C206.994 209.253 201.203 208.987 195.707 208.132C195.717 208.112 195.304 208.063 195.304 208.063Z" fill="#FF9688"/>
<path d="M233.213 191.771C233.213 191.771 229.388 195.458 223.322 198.181C223.233 198.211 223.145 198.25 223.056 198.289C221.739 198.958 221.139 200.492 221.729 201.711C222.319 202.94 223.863 203.392 225.19 202.723C225.337 202.645 225.475 202.566 225.603 202.468C226.92 201.632 231.178 198.741 235.779 193.57C235.877 193.481 235.956 193.393 236.035 193.285V193.275C236.369 192.803 236.457 192.193 236.212 191.672C235.828 190.886 234.835 190.601 233.99 191.023C233.645 191.2 233.38 191.466 233.213 191.771Z" fill="#BA735D"/>
<path d="M234.532 190.188C233.775 190.935 233.342 191.565 233.342 191.565C233.165 191.801 233.067 192.656 234.011 193.354C234.955 194.042 235.908 193.433 235.908 193.433C235.908 193.433 238.553 190.739 238.455 190.562C238.366 190.395 237.501 190.965 237.501 190.965C237.501 190.965 238.612 190.031 238.494 189.864C238.366 189.697 237.196 190.365 237.196 190.365C237.196 190.365 238.347 189.411 238.219 189.156C238.091 188.91 236.793 189.756 236.793 189.756C236.793 189.756 237.688 188.92 237.609 188.713C237.521 188.497 236.882 188.92 236.439 189.254C236.203 189.431 235.682 189.854 235.22 190.218C235.21 190.07 235.918 189.323 235.741 189.205C235.574 189.077 235.289 189.431 234.532 190.188Z" fill="#BA735D"/>
<mask id="mask10_5212_25538" style="mask-type:luminance" maskUnits="userSpaceOnUse" x="195" y="253" width="9" height="9">
<path d="M195.707 253.615H203.258V261.029H195.707V253.615Z" fill="white"/>
</mask>
<g mask="url(#mask10_5212_25538)">
<path d="M195.862 258.844C196.403 258.067 198.311 257.743 198.743 256.101C198.743 256.061 198.743 256.022 198.743 255.983C198.812 254.862 199.648 253.987 200.621 254.016C201.594 254.056 202.322 254.99 202.253 256.111C202.253 256.15 202.243 256.189 202.243 256.219V256.229C202.243 256.229 203.138 259.945 201.693 259.896C200.247 259.847 196.315 259.709 196.315 259.709C196.315 259.709 195.322 259.621 195.862 258.844Z" fill="#BA735D"/>
</g>
<mask id="mask11_5212_25538" style="mask-type:luminance" maskUnits="userSpaceOnUse" x="195" y="256" width="9" height="6">
<path d="M195.707 256.129H203.258V261.025H195.707V256.129Z" fill="white"/>
</mask>
<g mask="url(#mask11_5212_25538)">
<path d="M195.862 258.844C195.971 258.686 196.138 258.549 196.334 258.411C196.895 258.873 198.124 258.962 200.149 258.676C201.231 258.529 201.998 258.254 202.509 257.998C202.568 258.952 202.44 259.925 201.693 259.896C200.247 259.846 196.315 259.709 196.315 259.709C196.315 259.709 195.322 259.62 195.862 258.844Z" fill="#C5C7DD"/>
</g>
<path d="M206.881 182.648C206.881 182.648 204.207 184.408 201.434 182.855C201.414 183.219 201.365 184.035 201.365 184.035C201.365 184.035 202.791 185.559 206.714 185.795C206.753 184.772 206.881 182.648 206.881 182.648Z" fill="#965847"/>
<path d="M209.462 180.023C209.462 180.023 206.955 184.172 202.786 183.74C198.863 183.336 197.005 180.239 198.263 175.894C199.512 171.548 202.501 166.72 207.24 167.281C211.979 167.841 214.093 174.38 209.462 180.023Z" fill="#BA735D"/>
<path d="M210.127 171.095C210.127 171.095 207.905 173.003 205.329 172.619C202.753 172.236 202.291 171.292 201.691 170.948C201.091 170.594 199.764 170.564 199.135 169.385C198.506 168.205 201.868 164.557 205.742 165.53C209.616 166.504 210.618 168.451 210.845 168.922C211.071 169.394 211.553 170.368 211.553 170.368L210.127 171.095Z" fill="#38293F"/>
<path d="M211.278 169.826C211.278 169.826 213.687 172.786 213.352 175.234C213.018 177.682 211.268 178.478 210.255 179.825C209.233 181.182 207.778 182.421 206.883 182.647C208.879 179.619 209.026 178.704 208.564 176.355C208.092 174.005 208.82 171.714 208.82 171.714L211.278 169.826Z" fill="#38293F"/>
<path fill-rule="evenodd" clip-rule="evenodd" d="M200.455 177.799C200.455 177.799 199.127 180.621 200.278 181.014C201.428 181.407 202.608 179.864 203.031 178.91C201.477 178.684 200.661 178.123 200.455 177.799Z" fill="#841A1A"/>
<path fill-rule="evenodd" clip-rule="evenodd" d="M203.029 178.91C203.029 178.91 201.318 178.349 200.453 177.799C200.61 178.595 201.476 179.5 203.029 178.91Z" fill="white"/>
<path d="M212.813 176.137C212.813 176.137 214.288 175.851 216.294 177.13C218.3 178.408 217.572 181.092 218.683 182.537C219.804 183.973 222.409 185.034 221.534 188.22C220.659 191.406 215.547 191.15 214.16 189.183C212.774 187.217 213 184.415 213.177 180.993C213.344 177.562 212.391 176.579 212.391 176.579L212.813 176.137Z" fill="#38293F"/>
<path d="M225.267 198.621C225.139 198.523 225.001 198.444 224.854 198.376C223.32 197.461 217.873 194.01 213.773 188.917C213.449 188.445 212.987 188.032 212.407 187.767C210.804 187.039 208.946 187.62 208.248 189.065C207.786 190.028 207.943 191.13 208.562 191.975C208.562 191.975 213.38 198.916 222.514 202.712L222.524 202.702C222.573 202.731 222.622 202.761 222.671 202.78C224.018 203.4 225.582 202.908 226.171 201.689C226.693 200.617 226.28 199.329 225.267 198.621Z" fill="#BA735D"/>
<path d="M216.785 192.191C215.753 191.198 214.73 190.097 213.777 188.917C213.452 188.445 212.99 188.032 212.41 187.767C210.807 187.039 208.949 187.62 208.251 189.065C207.789 190.028 207.946 191.12 208.576 191.975C208.576 191.975 209.746 193.666 212.036 195.839C213.374 195.328 215.065 194.276 216.785 192.191Z" fill="#C5C7DD"/>
<path d="M68.4766 121.502C68.4766 121.502 69.5384 119.781 72.6945 118.218C75.8505 116.655 80.8058 115.455 80.8058 115.455C80.8058 115.455 81.0418 131.373 80.8058 131.373C80.5797 131.373 72.7141 137.557 72.7141 137.557L71.3967 134.657L68.4766 121.502Z" fill="#FEEFEC"/>
<path d="M136.808 187.275C136.759 187.403 136.71 187.541 136.68 187.688C136.169 189.193 134.36 194.561 130.506 199.143C130.122 199.516 129.896 200.126 129.778 200.676C129.454 202.21 130.29 203.469 131.833 203.793C132.846 204.009 133.701 203.636 134.36 202.918C134.36 202.918 139.856 197.569 141.321 188.858H141.311C141.331 188.809 141.341 188.76 141.351 188.711C141.626 187.423 140.8 186.155 139.502 185.879C138.371 185.643 137.251 186.243 136.808 187.275Z" fill="#BA735D"/>
<path d="M131.737 204.002C132.75 204.209 133.752 203.855 134.411 203.147C134.411 203.147 135.178 202.361 136.22 200.915C135.424 199.952 133.959 198.457 131.806 197.268C131.344 197.926 130.842 198.575 130.311 199.214C129.938 199.588 129.662 200.07 129.544 200.63C129.22 202.164 130.203 203.678 131.737 204.002Z" fill="#38293F"/>
<path d="M127.172 243.624C127.202 243.397 127.212 243.161 127.202 242.926C127.074 241.195 125.57 239.887 123.839 240.005C122.109 240.123 120.801 241.628 120.919 243.368C120.467 248.559 122.492 255.894 122.492 255.894C122.61 256.533 123.318 257.133 124.282 257.064C124.97 257.015 125.835 256.464 125.875 255.442C126.12 251.44 127.015 244.931 127.172 243.624Z" fill="#BA735D"/>
<path d="M138.139 244.302C138.208 244.086 138.267 243.86 138.287 243.624C138.464 241.894 137.205 240.35 135.485 240.173C133.754 239.996 132.211 241.245 132.034 242.975C130.687 248.019 131.424 255.589 131.424 255.589C131.434 256.238 132.024 256.946 132.987 257.045C133.676 257.123 134.619 256.72 134.836 255.727C135.76 251.814 137.766 245.561 138.139 244.302Z" fill="#BA735D"/>
<path d="M136.615 218.405C136.615 218.405 137.519 225.258 137.047 228.257C136.566 231.246 121.572 231.54 120.382 229.112C119.193 226.684 119.832 218.641 119.832 218.641C119.832 218.641 120.412 215.632 128.425 215.495C136.438 215.357 136.615 218.405 136.615 218.405Z" fill="#C5C7DD"/>
<path d="M127.164 198.879C127.164 198.879 131.883 199.233 132.63 200.069C133.309 200.816 135.452 209.193 136.534 217.471C136.73 219.025 135.609 220.441 134.056 220.588L122.897 221.68C121.392 221.817 120.055 220.736 119.888 219.241C119.573 216.557 119.052 212.398 118.472 209.321C117.548 204.405 116.997 202.704 117.361 201.848C117.725 200.983 122.789 198.633 127.164 198.879Z" fill="#38293F"/>
<path d="M119.262 194.14C119.262 194.14 122.025 198.142 126.528 197.454C130.746 196.815 132.712 193.609 131.296 189.333C129.88 185.066 126.587 180.415 121.484 181.261C116.381 182.106 114.198 188.782 119.262 194.14Z" fill="#BA735D"/>
<path d="M124.385 193.018C122.94 193.156 121.878 194.444 122.025 195.889L122.389 199.694C122.537 201.139 123.815 202.191 125.26 202.054C126.705 201.916 127.767 200.628 127.63 199.183L127.256 195.378C127.118 193.932 125.83 192.88 124.385 193.018Z" fill="#BA735D"/>
<path d="M138.873 176.838C138.873 176.838 138.962 181.586 136.868 187.161C136.828 187.24 136.799 187.318 136.779 187.397C136.376 188.656 137.064 190.003 138.323 190.406C139.581 190.809 140.928 190.121 141.331 188.862C141.381 188.715 141.41 188.577 141.43 188.429C141.705 187.073 142.482 182.54 141.853 176.346C141.853 176.228 141.843 176.12 141.823 176.012L141.813 176.002C141.705 175.481 141.322 175.038 140.791 174.871C139.984 174.616 139.119 175.058 138.864 175.864C138.755 176.189 138.765 176.533 138.873 176.838Z" fill="#BA735D"/>
<path d="M138.622 174.988C138.661 175.942 138.818 176.62 138.818 176.62C138.867 176.876 139.408 177.486 140.519 177.328C141.64 177.171 141.846 176.178 141.846 176.178C141.846 176.178 141.679 172.796 141.502 172.737C141.316 172.688 141.148 173.602 141.148 173.602C141.148 173.602 141.227 172.304 141.021 172.275C140.824 172.245 140.519 173.415 140.519 173.415C140.519 173.415 140.598 172.078 140.342 171.999C140.077 171.921 139.821 173.278 139.821 173.278C139.821 173.278 139.821 172.186 139.615 172.108C139.408 172.029 139.28 172.697 139.231 173.189C139.202 173.445 139.153 174.054 139.103 174.575C138.985 174.487 138.926 173.572 138.73 173.592C138.533 173.622 138.592 174.035 138.622 174.988Z" fill="#BA735D"/>
<path d="M103.002 183.288C103.002 183.288 104.546 187.791 108.42 192.314C108.479 192.373 108.538 192.432 108.587 192.501C109.393 193.553 109.206 195.047 108.164 195.863C107.112 196.669 105.608 196.473 104.802 195.431C104.713 195.313 104.634 195.195 104.566 195.067C103.838 193.877 101.567 189.885 100.043 183.849C99.9937 183.74 99.9741 183.632 99.9544 183.514C99.8856 182.983 100.092 182.443 100.534 182.099C101.203 181.577 102.167 181.705 102.688 182.374C102.894 182.649 103.002 182.964 103.002 183.288Z" fill="#BA735D"/>
<path d="M102.608 181.467C102.903 182.371 102.992 183.06 102.992 183.06C103.031 183.325 102.726 184.082 101.625 184.318C100.524 184.554 99.9932 183.679 99.9932 183.679C99.9932 183.679 98.9903 180.444 99.1476 180.336C99.2951 180.228 99.767 181.024 99.767 181.024C99.767 181.024 99.2558 179.835 99.4327 179.736C99.6097 179.638 100.288 180.631 100.288 180.631C100.288 180.631 99.7572 179.412 99.9833 179.245C100.2 179.078 100.908 180.267 100.908 180.267C100.908 180.267 100.534 179.245 100.691 179.097C100.858 178.95 101.212 179.54 101.429 179.982C101.547 180.218 101.802 180.769 102.019 181.241C102.097 181.113 101.842 180.238 102.038 180.198C102.235 180.149 102.313 180.562 102.608 181.467Z" fill="#BA735D"/>
<path d="M108.261 192.157C108.37 192.255 108.468 192.354 108.556 192.472C109.677 193.612 113.758 197.722 119.224 200.17C119.725 200.337 120.178 200.662 120.532 201.104C121.485 202.353 121.249 203.916 120.011 204.87C119.185 205.509 118.172 205.587 117.268 205.243C117.268 205.243 110.002 202.756 104.889 195.549H104.899C104.86 195.51 104.83 195.47 104.801 195.431C103.994 194.389 104.181 192.885 105.233 192.078C106.148 191.361 107.416 191.429 108.261 192.157Z" fill="#BA735D"/>
<path d="M120.105 205.004C119.289 205.633 118.227 205.751 117.332 205.397C117.332 205.397 116.29 205.023 114.727 204.178C115.031 202.968 115.69 200.982 117.106 198.977C117.814 199.37 118.551 199.734 119.308 200.078C119.81 200.245 120.262 200.569 120.616 201.022C121.579 202.26 121.353 204.04 120.105 205.004Z" fill="#38293F"/>
<path d="M128.206 228.012C128.245 227.747 128.255 227.471 128.235 227.186C128.068 224.866 125.994 223.607 123.663 223.775C121.441 223.932 119.809 225.279 119.819 227.471C119.465 234.255 120.92 243.37 120.92 243.37C121.038 245.1 122.543 246.408 124.283 246.29C125.856 246.172 127.075 244.923 127.193 243.399L128.206 228.012Z" fill="#BA735D"/>
<path d="M123.738 223.273C121.516 223.431 119.815 225.279 119.825 227.472C119.599 231.817 119.746 237.117 120.149 240.371H127.848L128.212 228.012C128.251 227.747 128.261 227.472 128.241 227.187C128.074 224.866 126.058 223.116 123.738 223.273Z" fill="#C5C7DD"/>
<path d="M120.146 240.371H127.844L127.893 238.602H119.969L120.146 240.371Z" fill="#A2A6CC"/>
<path d="M137.243 227.511C137.243 227.236 137.213 226.96 137.164 226.685C136.692 224.404 134.48 223.558 132.209 224.03C130.026 224.473 128.561 225.918 128.856 228.091C129.416 234.855 132.071 243.694 132.071 243.694C132.425 245.395 134.087 246.496 135.788 246.142C137.341 245.828 138.383 244.422 138.295 242.898L137.243 227.511Z" fill="#BA735D"/>
<path d="M132.18 223.411C129.997 223.863 128.562 225.918 128.857 228.091C129.22 232.427 130.076 237.667 130.902 240.833L138.531 239.8L137.243 227.511C137.243 227.235 137.214 226.96 137.165 226.685C136.693 224.404 134.461 222.939 132.18 223.411Z" fill="#C5C7DD"/>
<path d="M130.905 240.831L138.535 239.799L138.358 238.088L130.521 239.219L130.905 240.831Z" fill="#A2A6CC"/>
<mask id="mask12_5212_25538" style="mask-type:luminance" maskUnits="userSpaceOnUse" x="120" y="253" width="11" height="9">
<path d="M120.197 253.615H130.265V261.029H120.197V253.615Z" fill="white"/>
</mask>
<g mask="url(#mask12_5212_25538)">
<path d="M128.476 258.257C127.994 257.588 126.165 257.264 125.841 255.868C125.841 255.838 125.841 255.799 125.841 255.769C125.841 254.825 125.074 254.068 124.13 254.068C123.196 254.068 122.429 254.825 122.429 255.769C122.429 255.799 122.429 255.838 122.429 255.868C122.429 255.868 121.338 258.965 122.753 258.965C124.159 258.965 127.994 258.965 127.994 258.965C127.994 258.965 128.957 258.925 128.476 258.257Z" fill="#BA735D"/>
<path d="M128.476 258.255C128.014 257.616 126.343 257.292 125.9 256.063C125.694 256.073 125.399 256.132 125.143 256.358C124.76 256.702 124.367 257.066 123.659 256.948C123.118 256.849 122.734 256.22 122.371 256.033C122.174 256.682 121.545 258.963 122.754 258.963C124.16 258.963 127.994 258.963 127.994 258.963C127.994 258.963 128.958 258.924 128.476 258.255Z" fill="#38293F"/>
</g>
<mask id="mask13_5212_25538" style="mask-type:luminance" maskUnits="userSpaceOnUse" x="130" y="253" width="8" height="9">
<path d="M130.266 253.615H137.817V261.029H130.266V253.615Z" fill="white"/>
</mask>
<g mask="url(#mask13_5212_25538)">
<path d="M137.514 258.257C137.032 257.588 135.204 257.264 134.879 255.868C134.879 255.838 134.879 255.799 134.879 255.769C134.879 254.825 134.122 254.068 133.178 254.068C132.234 254.068 131.468 254.825 131.468 255.769C131.468 255.799 131.468 255.838 131.477 255.868H131.468C131.468 255.868 130.386 258.965 131.792 258.965C133.198 258.965 137.032 258.965 137.032 258.965C137.032 258.965 137.996 258.925 137.514 258.257Z" fill="#BA735D"/>
<path d="M137.514 258.255C137.052 257.616 135.391 257.292 134.938 256.063C134.732 256.073 134.437 256.132 134.181 256.358C133.798 256.702 133.414 257.066 132.697 256.948C132.156 256.849 131.773 256.22 131.419 256.033C131.212 256.682 130.583 258.963 131.792 258.963C133.198 258.963 137.033 258.963 137.033 258.963C137.033 258.963 137.996 258.924 137.514 258.255Z" fill="#38293F"/>
</g>
<path d="M117.285 199.076C117.285 199.076 118.789 199.686 119.664 199.764C120.53 199.853 121.749 199.627 121.749 199.627L119.763 201.662L117.285 199.076Z" fill="#38293F"/>
<path d="M135.673 211.927C135.673 211.927 136.853 217.413 137.512 222.417C133.422 224.216 119.254 223.322 119.254 223.322C119.254 223.322 119.598 217.767 118.988 212.408C125.3 209.124 135.673 211.927 135.673 211.927Z" fill="#38293F"/>
<path d="M119.281 188.615C119.281 188.615 119.389 187.494 120.264 186.57C121.13 185.645 122.437 186.186 124.266 185.203C126.095 184.23 126.272 182.194 126.272 182.194L128.159 183.767C128.159 183.767 128.327 181.496 126.665 180.415C125.003 179.323 124.079 179.618 123.017 179.618C121.955 179.618 120.756 178.527 118.495 179.481C116.233 180.434 115.683 181.526 115.388 182.804C115.083 184.092 113.372 185.37 113.51 187.681C113.638 190.001 114.621 190.797 115.683 191.574C116.745 192.341 117.374 194.386 118.986 195.664C120.589 196.952 122.25 196.677 122.25 196.677C122.25 196.677 121.513 196.107 120.943 194.74C120.373 193.383 120.913 190.896 119.281 188.615Z" fill="#38293F"/>
<path d="M126.23 193.009C126.23 193.009 128.393 191.976 129.593 190.875C129.858 193.038 128.472 194.385 126.23 193.009Z" fill="white"/>
<path d="M122.251 196.676C122.251 196.676 123.185 197.305 124.827 197.433C126.459 197.57 127.442 197.266 127.442 197.266L127.472 197.639C127.472 197.639 125.997 199.203 122.3 198.799C122.202 197.757 122.094 196.676 122.094 196.676H122.251Z" fill="#965847"/>
</svg>
