<svg width="73" height="73" viewBox="0 0 73 73" fill="none" xmlns="http://www.w3.org/2000/svg">
<g id="bi:house-fill">
<rect width="72" height="72" transform="translate(0.5 0.5)" fill="#FFF3E6"/>
<g id="Group 283">
<g id="Group">
<g id="Group 288">
<path id="Vector" d="M40.2871 15.6029C39.6871 15.003 38.8734 14.666 38.0249 14.666C37.1765 14.666 36.3627 15.003 35.7627 15.6029L14.4941 36.869C14.3453 37.0177 14.2273 37.1943 14.1468 37.3887C14.0663 37.5831 14.0249 37.7914 14.0249 38.0017C14.0249 38.2121 14.0663 38.4204 14.1468 38.6148C14.2273 38.8091 14.3453 38.9857 14.4941 39.1345C14.7945 39.4349 15.2019 39.6037 15.6268 39.6037C15.8372 39.6037 16.0455 39.5622 16.2398 39.4817C16.4342 39.4012 16.6107 39.2832 16.7595 39.1345L38.0249 17.8652L59.2903 39.1345C59.5907 39.4349 59.9982 39.6037 60.423 39.6037C60.8479 39.6037 61.2553 39.4349 61.5557 39.1345C61.8561 38.8341 62.0249 38.4266 62.0249 38.0017C62.0249 37.5769 61.8561 37.1694 61.5557 36.869L54.0236 29.3398V18.8027C54.0236 18.3784 53.855 17.9715 53.555 17.6714C53.2549 17.3714 52.848 17.2028 52.4237 17.2028H49.224C48.7997 17.2028 48.3927 17.3714 48.0927 17.6714C47.7927 17.9715 47.6241 18.3784 47.6241 18.8027V22.9401L40.2871 15.6029Z" fill="#F89429"/>
<path id="Vector_2" d="M38.0246 20.873L57.2229 40.0721V53.5338C57.2229 54.8067 56.7173 56.0276 55.8172 56.9277C54.9171 57.8278 53.6963 58.3335 52.4233 58.3335H23.6258C22.3528 58.3335 21.132 57.8278 20.2319 56.9277C19.3318 56.0276 18.8262 54.8067 18.8262 53.5338V40.0721L38.0246 20.873Z" fill="#F89429"/>
</g>
</g>
<path id="Vector (Stroke)" fill-rule="evenodd" clip-rule="evenodd" d="M25.5784 39.8855C25.2201 39.4915 25.2492 38.8816 25.6432 38.5234C27.6884 36.664 30.8633 35.669 33.6385 35.6615L33.6411 35.6615H46.3511C46.8837 35.6615 47.3154 36.0932 47.3154 36.6257C47.3154 37.1583 46.8837 37.59 46.3511 37.59H33.6425C31.2367 37.5969 28.5588 38.4792 26.9406 39.9504C26.5465 40.3086 25.9366 40.2796 25.5784 39.8855Z" fill="white"/>
<path id="Vector (Stroke)_2" fill-rule="evenodd" clip-rule="evenodd" d="M47.5984 43.9035C47.9566 44.2976 47.9276 44.9074 47.5335 45.2657C45.4883 47.125 42.3135 48.1201 39.5383 48.1276L39.5357 48.1276H26.8256C26.2931 48.1276 25.8613 47.6959 25.8613 47.1633C25.8613 46.6308 26.2931 46.199 26.8256 46.199H39.5343C41.94 46.1922 44.618 45.3099 46.2362 43.8387C46.6303 43.4804 47.2401 43.5095 47.5984 43.9035Z" fill="white"/>
<path id="Vector 26 (Stroke)" fill-rule="evenodd" clip-rule="evenodd" d="M42.051 30.3876C42.4817 30.0744 43.0848 30.1696 43.398 30.6003L47.6035 36.383L46.8236 36.9502L47.6035 36.383C47.9055 36.7983 47.8776 37.368 47.5364 37.7518L46.8157 37.1112L47.5364 37.7518L43.3389 42.4742C42.9851 42.8723 42.3756 42.9081 41.9775 42.5543C41.5795 42.2005 41.5436 41.591 41.8974 41.193L45.6481 36.9733L41.8383 31.7346C41.5251 31.3039 41.6203 30.7008 42.051 30.3876Z" fill="white"/>
<path id="Vector 27 (Stroke)" fill-rule="evenodd" clip-rule="evenodd" d="M31.1262 53.3995C30.6955 53.7127 30.0925 53.6175 29.7792 53.1868L25.5738 47.4041L26.3536 46.837L25.5738 47.4041C25.2717 46.9888 25.2996 46.4191 25.6408 46.0353L26.3615 46.6759L25.6408 46.0353L29.8384 41.3129C30.1922 40.9148 30.8017 40.879 31.1997 41.2328C31.5978 41.5866 31.6336 42.1961 31.2798 42.5941L27.5291 46.8138L31.3389 52.0525C31.6522 52.4832 31.5569 53.0863 31.1262 53.3995Z" fill="white"/>
</g>
</g>
</svg>
