<svg width="20" height="21" viewBox="0 0 20 21" fill="none" xmlns="http://www.w3.org/2000/svg">
<g id="iconoir:page-star">
<g id="Group">
<path id="Vector" d="M16.6673 10.0384V4.82924C16.6674 4.76347 16.6544 4.69832 16.6293 4.63755C16.6041 4.57677 16.5672 4.52156 16.5207 4.47508L13.8973 1.85174C13.8036 1.75795 13.6765 1.70519 13.544 1.70508H3.83398C3.70138 1.70508 3.5742 1.75776 3.48043 1.85152C3.38666 1.94529 3.33398 2.07247 3.33398 2.20508V17.8717C3.33398 18.0044 3.38666 18.1315 3.48043 18.2253C3.5742 18.3191 3.70138 18.3717 3.83398 18.3717H9.16732M6.66732 8.37174H13.334M6.66732 5.03841H10.0007M6.66732 11.7051H9.16732" stroke="#0078D4" stroke-width="1.2" stroke-linecap="round" stroke-linejoin="round"/>
<path id="Vector_2" d="M13.3347 1.70508V4.53841C13.3347 4.67102 13.3874 4.7982 13.4811 4.89196C13.5749 4.98573 13.7021 5.03841 13.8347 5.03841H16.668M13.5897 14.2992L14.3472 12.6934C14.3676 12.6475 14.4009 12.6085 14.4431 12.5811C14.4852 12.5538 14.5344 12.5392 14.5847 12.5392C14.6349 12.5392 14.6841 12.5538 14.7263 12.5811C14.7684 12.6085 14.8017 12.6475 14.8222 12.6934L15.5805 14.2992L17.2738 14.5584C17.4913 14.5917 17.578 14.8717 17.4213 15.0317L16.1955 16.2817L16.4847 18.0467C16.5213 18.2734 16.2938 18.4467 16.0997 18.3392L14.5847 17.5059L13.0697 18.3392C12.8747 18.4467 12.648 18.2734 12.6847 18.0467L12.9738 16.2817L11.7488 15.0317C11.5905 14.8717 11.678 14.5917 11.8955 14.5584L13.5897 14.2992Z" stroke="#0078D4" stroke-width="1.2" stroke-linecap="round" stroke-linejoin="round"/>
</g>
</g>
</svg>
