<svg width="82" height="83" viewBox="0 0 82 83" fill="none" xmlns="http://www.w3.org/2000/svg">
<rect y="0.318359" width="82" height="82" rx="5" fill="#F1F9FF"/>
<mask id="mask0_4277_20923" style="mask-type:luminance" maskUnits="userSpaceOnUse" x="16" y="20" width="50" height="42">
<path d="M16.3994 25.7168C16.3994 22.9554 18.638 20.7168 21.3994 20.7168H60.5994C63.3608 20.7168 65.5994 22.9554 65.5994 25.7168V56.9168C65.5994 59.6782 63.3608 61.9168 60.5994 61.9168H21.3994C18.638 61.9168 16.3994 59.6782 16.3994 56.9168V25.7168Z" fill="white"/>
</mask>
<g mask="url(#mask0_4277_20923)">
<path fill-rule="evenodd" clip-rule="evenodd" d="M61.1577 28.3458C61.1577 28.5962 61.3557 28.8083 61.606 28.8083H62.7702C64.3119 28.8083 65.5994 30.1646 65.5994 31.8792V58.8292C65.5994 60.5438 64.3119 61.9 62.7702 61.9H19.2286C17.6869 61.9 16.3994 60.5438 16.3994 58.8292V31.8792C16.3994 30.1646 17.6869 28.8083 19.2286 28.8083H45.4762C45.7265 28.8083 45.9244 28.5962 45.9244 28.3458C45.9244 24.1375 49.3369 20.7188 53.5411 20.7188C57.7453 20.7188 61.1577 24.1375 61.1577 28.3458ZM48.0113 33.5883C46.4354 31.9215 44.5447 30.2042 42.2509 30.2042H19.2286C18.414 30.2042 17.7932 30.9729 17.7932 31.8792V58.8292C17.7932 59.7354 18.414 60.5042 19.2286 60.5042H62.7702C63.5848 60.5042 64.2057 59.7354 64.2057 58.8292V31.8792C64.2057 30.9729 63.5848 30.2042 62.7702 30.2042C61.6878 30.2042 60.7773 30.9632 60.2697 31.9193C58.9899 34.3299 56.4564 35.9729 53.5411 35.9729C51.3638 35.9729 49.3994 35.0565 48.0113 33.5883ZM24.1661 38.5208C24.1661 36.3625 25.9119 34.6146 28.0682 34.6146C30.2244 34.6146 31.9702 36.3625 31.9702 38.5208C31.9702 40.6792 30.2244 42.4292 28.0682 42.4292C25.9119 42.4292 24.1661 40.6792 24.1661 38.5208ZM25.5598 38.5208C25.5598 39.9083 26.6827 41.0333 28.0682 41.0333C29.4536 41.0333 30.5765 39.9083 30.5765 38.5208C30.5765 37.1333 29.4536 36.0104 28.0682 36.0104C26.6827 36.0104 25.5598 37.1333 25.5598 38.5208ZM35.6994 50.525C35.6994 51.5292 35.0432 52.3833 33.8807 52.9854C32.4702 53.7167 30.2702 54.1 28.0682 54.1C25.864 54.1 23.6661 53.7167 22.2557 52.9854C21.0932 52.3833 20.4369 51.5292 20.4369 50.525C20.4369 46.3042 23.8536 42.8813 28.0682 42.8813C32.2827 42.8813 35.6994 46.3042 35.6994 50.525ZM34.3057 50.525C34.3057 47.075 31.514 44.2792 28.0682 44.2792C24.6244 44.2792 21.8307 47.075 21.8307 50.525C21.8307 51.0563 22.2807 51.4271 22.8973 51.7458C24.1494 52.3958 26.1098 52.7042 28.0682 52.7042C30.0265 52.7042 31.9869 52.3958 33.239 51.7458C33.8557 51.4271 34.3057 51.0563 34.3057 50.525ZM61.1577 38.0938V42.9813C61.1577 43.3667 60.8452 43.6792 60.4598 43.6792H39.3182C38.9327 43.6792 38.6202 43.3667 38.6202 42.9813V38.0938C38.6202 37.7083 38.9327 37.3938 39.3182 37.3938H60.4598C60.8452 37.3938 61.1577 37.7083 61.1577 38.0938ZM59.764 40.5375C59.764 39.5733 58.9824 38.7917 58.0182 38.7917H41.7598C40.7956 38.7917 40.014 39.5733 40.014 40.5375C40.014 41.5017 40.7956 42.2833 41.7598 42.2833H58.0182C58.9824 42.2833 59.764 41.5017 59.764 40.5375ZM21.6202 57.4208C21.2369 57.4208 20.9244 57.1063 20.9244 56.7229C20.9244 56.3375 21.2369 56.0229 21.6202 56.0229H29.5077C29.8911 56.0229 30.2036 56.3375 30.2036 56.7229C30.2036 57.1063 29.8911 57.4208 29.5077 57.4208H21.6202ZM52.5744 57.4208C52.189 57.4208 51.8765 57.1063 51.8765 56.7229C51.8765 56.3375 52.189 56.0229 52.5744 56.0229H60.4598C60.8452 56.0229 61.1577 56.3375 61.1577 56.7229C61.1577 57.1063 60.8452 57.4208 60.4598 57.4208H52.5744ZM39.3182 48.8542C38.9327 48.8542 38.6202 48.5417 38.6202 48.1563C38.6202 47.7708 38.9327 47.4583 39.3182 47.4583H55.5327C55.9182 47.4583 56.2307 47.7708 56.2307 48.1563C56.2307 48.5417 55.9182 48.8542 55.5327 48.8542H39.3182ZM39.3182 53.2229C38.9327 53.2229 38.6202 52.9104 38.6202 52.525C38.6202 52.1396 38.9327 51.8271 39.3182 51.8271H55.5327C55.9182 51.8271 56.2307 52.1396 56.2307 52.525C56.2307 52.9104 55.9182 53.2229 55.5327 53.2229H39.3182ZM53.5411 22.1167C50.1077 22.1167 47.3182 24.9083 47.3182 28.3458C47.3182 31.7854 50.1077 34.5771 53.5411 34.5771C56.9744 34.5771 59.764 31.7854 59.764 28.3458C59.764 24.9083 56.9744 22.1167 53.5411 22.1167ZM56.6702 25.6604C56.9682 25.4167 57.4077 25.4625 57.6515 25.7625C57.8932 26.0604 57.8473 26.5021 57.5494 26.7438L52.2765 31.0333C52.1244 31.1563 51.9265 31.2104 51.7327 31.1813C51.539 31.1521 51.3661 31.0438 51.2577 30.8813L49.3932 28.1C49.1786 27.7813 49.264 27.3479 49.5848 27.1313C49.9036 26.9167 50.3369 27.0021 50.5515 27.3229C51.3231 28.4736 52.9167 28.7124 53.9917 27.8383L56.6702 25.6604Z" fill="#0078D4"/>
</g>
</svg>
