<svg width="25" height="24" viewBox="0 0 25 24" fill="none" xmlns="http://www.w3.org/2000/svg">
<rect x="0.5" width="24" height="24" rx="12" fill="#BA9E59"/>
<path d="M14.5449 5.5527C14.7469 5.50628 14.9584 5.5239 15.1499 5.60312C15.3414 5.68234 15.5035 5.81923 15.6137 5.99478L16.6056 7.57848C16.6856 7.70603 16.7934 7.81384 16.921 7.89382L18.5047 8.88575C18.6806 8.99585 18.8178 9.15806 18.8972 9.3498C18.9767 9.54154 18.9943 9.75327 18.9478 9.95552L18.5286 11.7757C18.4948 11.9228 18.4948 12.0757 18.5286 12.2228L18.9478 14.044C18.9939 14.2459 18.976 14.4572 18.8966 14.6486C18.8172 14.8399 18.6802 15.0018 18.5047 15.1118L16.921 16.1047C16.7934 16.1847 16.6856 16.2925 16.6056 16.42L15.6137 18.0037C15.5037 18.1795 15.3416 18.3166 15.1501 18.396C14.9586 18.4754 14.747 18.4931 14.5449 18.4468L12.7237 18.0277C12.577 17.994 12.4245 17.994 12.2777 18.0277L10.4565 18.4468C10.2544 18.4931 10.0429 18.4754 9.85132 18.396C9.65978 18.3166 9.49774 18.1795 9.3877 18.0037L8.39577 16.42C8.3155 16.2924 8.20734 16.1846 8.07943 16.1047L6.49673 15.1128C6.32099 15.0027 6.1839 14.8407 6.10449 14.6491C6.02509 14.4576 6.00732 14.2461 6.05365 14.044L6.47178 12.2228C6.50559 12.0757 6.50559 11.9228 6.47178 11.7757L6.05265 9.95552C6.00619 9.75317 6.024 9.54137 6.1036 9.34962C6.1832 9.15786 6.32062 8.99571 6.49673 8.88575L8.07943 7.89382C8.20734 7.81396 8.3155 7.70614 8.39577 7.57848L9.3877 5.99478C9.49781 5.81942 9.65976 5.68265 9.85108 5.60344C10.0424 5.52423 10.2536 5.5065 10.4555 5.5527L12.2777 5.97083C12.4245 6.00449 12.577 6.00449 12.7237 5.97083L14.5449 5.5527Z" stroke="white" stroke-width="1.5"/>
<path d="M10.0215 12.5342L12.0522 14.4792L14.9811 9.51953" stroke="white" stroke-width="1.5" stroke-linecap="round" stroke-linejoin="round"/>
</svg>
