<svg width="49" height="49" viewBox="0 0 49 49" fill="none" xmlns="http://www.w3.org/2000/svg">
<path d="M0.306641 4.5C0.306641 2.29086 2.0975 0.5 4.30664 0.5H44.3066C46.5158 0.5 48.3066 2.29086 48.3066 4.5V48.5H4.30664C2.0975 48.5 0.306641 46.7091 0.306641 44.5V4.5Z" fill="#ECF7FF"/>
<path d="M17.3065 12.0098C16.76 12.0098 16.3067 12.4631 16.3067 13.009V14.0085H13.3067C12.7265 14.0085 12.3066 14.428 12.3066 15.0076V34.9942C12.3066 35.5738 12.7265 35.9934 13.3067 35.9934H30.9913L29.9912 34.9942H13.3067V19.5048H34.3064V30.7518L35.3065 31.7513V15.0076C35.3065 14.428 34.8866 14.0085 34.3064 14.0085H31.3064V13.009C31.3064 12.4631 30.8531 12.0098 30.3066 12.0098H29.3065C28.76 12.0098 28.3067 12.4631 28.3067 13.009V14.0085H19.3067V13.009C19.3067 12.4631 18.8531 12.0098 18.3066 12.0098H17.3065ZM17.3065 13.009H18.3066V16.0071H17.3065V13.009ZM29.3065 13.009H30.3066V16.0071H29.3065V13.009ZM13.3067 15.0076H16.3067V16.0071C16.3067 16.5533 16.76 17.0063 17.3065 17.0063H18.3066C18.8531 17.0063 19.3067 16.5533 19.3067 16.0071V15.0076H28.3067V16.0071C28.3067 16.5533 28.76 17.0063 29.3065 17.0063H30.3066C30.8531 17.0063 31.3064 16.5533 31.3064 16.0071V15.0076H34.3064V18.5053H13.3067V15.0076ZM16.3067 22.0029V26.5H23.8916C23.8366 26.3099 23.837 26.2896 23.8321 26.2647C23.8169 26.1897 23.8066 26.0953 23.8066 26.0003C23.8066 25.8254 23.8363 25.6553 23.8965 25.5005H17.3065V23.0024H30.3066V25.5005H28.9219C29.0718 25.5706 29.2015 25.6657 29.3163 25.7807L30.037 26.5H31.3064V22.0029H16.3067ZM25.3077 25.5005C25.0311 25.5005 24.8067 25.7246 24.8067 26.0003C24.8067 26.0312 24.81 26.061 24.8155 26.0901C24.821 26.1199 25.4904 28.5479 25.6513 29.132C25.6744 29.2149 25.7172 29.289 25.7783 29.3506L32.8036 36.3957C33.6048 37.1923 34.9055 37.192 35.7061 36.3944C36.1564 35.9958 36.3066 35.4475 36.3066 34.9492C36.3066 34.451 36.1063 34.0032 35.7559 33.6045L28.6122 26.4891C28.5524 26.4293 28.4789 26.3858 28.3975 26.3622C27.8286 26.2003 25.488 25.533 25.461 25.5239C25.4124 25.509 25.3611 25.5005 25.3077 25.5005ZM26.0263 26.7253C26.3539 26.8194 26.8096 26.95 27.4354 27.1285L26.418 28.1492C26.2813 27.6534 26.1408 27.1409 26.0263 26.7253ZM28.3438 27.6328L34.328 33.5936L32.877 35.0507L26.9119 29.0704L28.3438 27.6328ZM16.3067 27.9989V32.4957H27.5019L26.5069 31.4966H17.3065V28.9981H24.5762C24.4712 28.6134 24.3768 28.2786 24.3018 27.9989H16.3067ZM35.0342 34.3013C35.2158 34.519 35.3047 34.7325 35.3047 34.9502C35.3056 35.258 35.2164 35.4921 35.0418 35.6469L35.0205 35.6664L34.999 35.6879C34.6119 36.0732 34.0004 36.0905 33.5887 35.7523L35.0342 34.3013Z" fill="#0078D4"/>
</svg>
