<svg width="49" height="49" viewBox="0 0 49 49" fill="none" xmlns="http://www.w3.org/2000/svg">
<path d="M0.589844 4.04101C0.589844 1.83188 2.3807 0.0410156 4.58984 0.0410156H44.5898C46.799 0.0410156 48.5898 1.83188 48.5898 4.04102V48.041H4.58984C2.3807 48.041 0.589844 46.2502 0.589844 44.041V4.04101Z" fill="#ECF7FF"/>
<path d="M17.5897 11.5508C17.0432 11.5508 16.5899 12.0041 16.5899 12.55V13.5495H13.5899C13.0097 13.5495 12.5898 13.9691 12.5898 14.5487V34.5352C12.5898 35.1148 13.0097 35.5344 13.5899 35.5344H31.2745L30.2744 34.5352H13.5899V19.0458H34.5896V30.2928L35.5897 31.2923V14.5487C35.5897 13.9691 35.1698 13.5495 34.5896 13.5495H31.5896V12.55C31.5896 12.0041 31.1363 11.5508 30.5898 11.5508H29.5897C29.0432 11.5508 28.5899 12.0041 28.5899 12.55V13.5495H19.5899V12.55C19.5899 12.0041 19.1363 11.5508 18.5898 11.5508H17.5897ZM17.5897 12.55H18.5898V15.5482H17.5897V12.55ZM29.5897 12.55H30.5898V15.5482H29.5897V12.55ZM13.5899 14.5487H16.5899V15.5482C16.5899 16.0943 17.0432 16.5473 17.5897 16.5473H18.5898C19.1363 16.5473 19.5899 16.0943 19.5899 15.5482V14.5487H28.5899V15.5482C28.5899 16.0943 29.0432 16.5473 29.5897 16.5473H30.5898C31.1363 16.5473 31.5896 16.0943 31.5896 15.5482V14.5487H34.5896V18.0463H13.5899V14.5487ZM16.5899 21.5439V26.041H24.1748C24.1199 25.851 24.1202 25.8306 24.1153 25.8057C24.1001 25.7307 24.0898 25.6363 24.0898 25.5413C24.0898 25.3664 24.1195 25.1964 24.1797 25.0415H17.5897V22.5434H30.5898V25.0415H29.2051C29.355 25.1117 29.4847 25.2067 29.5995 25.3218L30.3202 26.041H31.5896V21.5439H16.5899ZM25.5909 25.0415C25.3143 25.0415 25.0899 25.2656 25.0899 25.5413C25.0899 25.5722 25.0932 25.602 25.0987 25.6311C25.1042 25.6609 25.7736 28.0889 25.9345 28.673C25.9576 28.7559 26.0004 28.83 26.0615 28.8916L33.0868 35.9367C33.888 36.7334 35.1887 36.733 35.9893 35.9355C36.4396 35.5368 36.5898 34.9885 36.5898 34.4903C36.5898 33.992 36.3895 33.5442 36.0391 33.1456L28.8954 26.0301C28.8356 25.9703 28.7621 25.9269 28.6807 25.9032C28.1118 25.7413 25.7712 25.074 25.7442 25.0649C25.6956 25.05 25.6443 25.0415 25.5909 25.0415ZM26.3095 26.2663C26.6371 26.3604 27.0928 26.491 27.7186 26.6695L26.7012 27.6902C26.5645 27.1944 26.424 26.6819 26.3095 26.2663ZM28.627 27.1738L34.6112 33.1346L33.1602 34.5917L27.1951 28.6114L28.627 27.1738ZM16.5899 27.54V32.0368H27.7851L26.7901 31.0376H17.5897V28.5391H24.8595C24.7544 28.1545 24.66 27.8196 24.585 27.54H16.5899ZM35.3174 33.8424C35.499 34.06 35.5879 34.2735 35.5879 34.4912C35.5888 34.799 35.4996 35.0331 35.325 35.188L35.3037 35.2074L35.2822 35.229C34.8951 35.6142 34.2836 35.6315 33.8719 35.2933L35.3174 33.8424Z" fill="#0078D4"/>
</svg>
