<svg width="33" height="33" viewBox="0 0 33 33" fill="none" xmlns="http://www.w3.org/2000/svg">
<path d="M15.7479 15.5252H17.6145V14.5918H16.1172L14.8665 9.33852C14.8425 9.23602 14.7844 9.14467 14.7019 9.07932C14.6194 9.01396 14.5171 8.97844 14.4119 8.97852H12.4065C12.3012 8.97844 12.199 9.01396 12.1165 9.07932C12.0339 9.14467 11.9759 9.23602 11.9519 9.33852L10.6999 14.5918H9.19852V15.5252H15.7479ZM12.7759 9.91052H14.0412L15.1559 14.5892H11.6612L12.7759 9.91052ZM14.8119 20.6718H12.0052C11.9438 20.6717 11.883 20.6836 11.8262 20.707C11.7694 20.7304 11.7178 20.7647 11.6743 20.8081C11.6309 20.8514 11.5964 20.9029 11.5728 20.9596C11.5493 21.0163 11.5372 21.0771 11.5372 21.1385V23.4785C11.537 23.54 11.549 23.601 11.5725 23.6578C11.5959 23.7147 11.6304 23.7663 11.6739 23.8098C11.7174 23.8533 11.769 23.8878 11.8259 23.9112C11.8827 23.9347 11.9437 23.9467 12.0052 23.9465H14.8119C14.8734 23.9467 14.9343 23.9347 14.9912 23.9112C15.048 23.8878 15.0997 23.8533 15.1432 23.8098C15.1867 23.7663 15.2211 23.7147 15.2446 23.6578C15.268 23.601 15.28 23.54 15.2799 23.4785V21.1385C15.2799 21.0771 15.2677 21.0163 15.2442 20.9596C15.2207 20.9029 15.1862 20.8514 15.1427 20.8081C15.0992 20.7647 15.0476 20.7304 14.9909 20.707C14.9341 20.6836 14.8733 20.6717 14.8119 20.6718ZM14.3452 23.0105H12.4732V21.6065H14.3399L14.3452 23.0105ZM8.73052 20.6718H9.66652V23.0105H8.73052V20.6718ZM23.7012 17.3958H24.6372V19.7345H23.7012V17.3958ZM23.7012 13.1865H24.6372V15.5252H23.7012V13.1865ZM29.3159 9.91052H22.7665C22.7051 9.91052 22.6443 9.92263 22.5876 9.94617C22.5309 9.9697 22.4794 10.0042 22.4361 10.0477C22.3927 10.0911 22.3584 10.1427 22.335 10.1995C22.3116 10.2563 22.2997 10.3171 22.2999 10.3785V19.2678H3.58386C3.52246 19.2678 3.46167 19.28 3.40496 19.3035C3.34826 19.327 3.29675 19.3615 3.2534 19.405C3.21005 19.4485 3.1757 19.5001 3.15233 19.5569C3.12896 19.6136 3.11701 19.6745 3.11719 19.7358V25.3492C3.11701 25.4106 3.12896 25.4714 3.15233 25.5282C3.1757 25.5849 3.21005 25.6366 3.2534 25.68C3.29675 25.7235 3.34826 25.758 3.40496 25.7815C3.46167 25.8051 3.52246 25.8172 3.58386 25.8172H29.3172C29.3787 25.8174 29.4396 25.8054 29.4965 25.7819C29.5534 25.7585 29.605 25.724 29.6485 25.6805C29.692 25.637 29.7265 25.5853 29.7499 25.5285C29.7734 25.4716 29.7854 25.4107 29.7852 25.3492V10.3785C29.7854 10.3169 29.7733 10.2558 29.7498 10.1989C29.7263 10.142 29.6917 10.0902 29.648 10.0467C29.6044 10.0032 29.5526 9.96877 29.4956 9.9454C29.4386 9.92202 29.3775 9.91016 29.3159 9.91052ZM22.2985 22.0745H16.6839V20.2078H22.2985V22.0745ZM4.05186 20.2078H10.1345V24.8865H4.05186V20.2078ZM11.0692 20.2078H15.7479V22.0745H15.7319V23.0078H15.7479V24.8745H11.0692V20.2078ZM16.6839 23.0078H22.2985V24.8745H16.6839V23.0078ZM28.8479 24.8745H23.2332V16.9292H28.8479V24.8745ZM23.2332 15.9932V10.8465H28.8479V15.9932H23.2332Z" fill="#0078D4"/>
</svg>
