<svg width="720" height="332" viewBox="0 0 720 332" fill="none" xmlns="http://www.w3.org/2000/svg">
<path d="M533.272 201.834L529.524 200.953C529.943 201.021 530.359 201.082 530.78 201.149C532.169 201.447 533.56 201.745 534.957 202.049C534.394 201.975 533.835 201.907 533.272 201.834ZM509.585 197.178C508.618 196.938 507.643 196.692 506.679 196.455L507.072 196.524L510.72 197.346L509.585 197.178ZM523.071 200.53C520.943 199.995 518.839 199.482 516.712 198.95C517.813 199.118 518.922 199.298 520.024 199.468C522.105 199.948 524.209 200.451 526.304 200.944C525.228 200.808 524.147 200.664 523.071 200.53ZM485.468 192.132C484.66 191.926 483.871 191.735 483.066 191.529L483.086 191.533C484.013 191.751 484.951 191.979 485.879 192.2L485.468 192.132ZM498.805 195.596C496.901 195.099 494.988 194.596 493.09 194.105C493.955 194.252 494.816 194.391 495.682 194.539C497.838 195.058 499.961 195.551 502.126 196.079C501.021 195.92 499.909 195.753 498.805 195.596ZM512.985 199.314C510.305 198.6 507.66 197.913 504.996 197.211C506.37 197.412 507.746 197.615 509.123 197.818C511.784 198.475 514.461 199.145 517.128 199.808C515.745 199.641 514.365 199.478 512.985 199.314ZM-557.25 257.745L-556.319 257.561C-555.609 257.54 -554.901 257.515 -554.192 257.494L-555.058 257.637C-555.787 257.674 -556.52 257.708 -557.25 257.745ZM460.245 186.607L459.409 186.389C459.788 186.481 460.161 186.568 460.542 186.661L460.245 186.607ZM474.404 190.343C472.636 189.865 470.889 189.403 469.136 188.937C469.824 189.062 470.508 189.183 471.196 189.309C473.059 189.773 474.936 190.249 476.799 190.714C475.998 190.587 475.204 190.469 474.404 190.343ZM488.455 194.165C485.897 193.469 483.333 192.768 480.782 192.078C482.188 192.305 483.601 192.543 485.01 192.774C487.523 193.415 490.058 194.076 492.595 194.737C491.214 194.545 489.832 194.354 488.455 194.165ZM502.865 198.14C499.805 197.281 496.76 196.435 493.733 195.601C495.274 195.817 496.808 196.02 498.352 196.239C501.485 197.059 504.6 197.864 507.737 198.688C506.11 198.499 504.49 198.323 502.865 198.14ZM-565.35 258.139C-564.808 258.013 -564.271 257.885 -563.73 257.759L-560.602 257.677C-561.129 257.78 -561.652 257.886 -562.18 257.988C-563.236 258.038 -564.293 258.09 -565.35 258.139ZM-570.128 259.226L-569.064 258.986L-566.936 258.893L-567.865 259.07C-568.619 259.122 -569.371 259.176 -570.128 259.226ZM-574.55 260.218L-574.402 260.185L-573.732 260.143L-574.55 260.218ZM449.158 184.683C447.503 184.235 445.838 183.779 444.178 183.327L446.641 183.807C448.252 184.221 449.894 184.659 451.522 185.085C450.731 184.949 449.947 184.818 449.158 184.683ZM463.472 188.646C461.054 187.961 458.631 187.272 456.248 186.612C457.416 186.817 458.602 187.04 459.771 187.247C462.348 187.924 464.911 188.591 467.491 189.27C466.152 189.063 464.807 188.849 463.472 188.646ZM478.141 192.786L469.094 190.232C470.709 190.484 472.319 190.729 473.938 190.984C476.853 191.765 479.806 192.577 482.751 193.382C481.209 193.176 479.68 192.988 478.141 192.786ZM492.845 197.026C489.462 196.034 486.073 195.037 482.741 194.084C484.483 194.316 486.239 194.568 487.986 194.806C491.44 195.753 494.861 196.675 498.332 197.635C496.504 197.433 494.671 197.222 492.845 197.026ZM-573.226 258.484C-572.547 258.302 -571.866 258.124 -571.189 257.941C-569.918 257.912 -568.646 257.885 -567.375 257.854C-568.055 258.011 -568.739 258.162 -569.419 258.317C-570.689 258.372 -571.956 258.43 -573.226 258.484ZM-577.863 259.717C-577.332 259.578 -576.804 259.436 -576.273 259.295C-575.239 259.253 -574.206 259.21 -573.173 259.166L-574.776 259.521C-575.806 259.585 -576.833 259.653 -577.863 259.717ZM-582.431 260.891L-581.378 260.62C-580.662 260.578 -579.948 260.536 -579.233 260.492C-579.553 260.561 -579.87 260.631 -580.19 260.7C-580.938 260.763 -581.683 260.828 -582.431 260.891ZM-586.72 261.972L-586.488 261.914L-585.64 261.848L-585.7 261.86L-586.72 261.972ZM423.495 178.697C422.014 178.28 420.521 177.854 419.051 177.446C419.531 177.544 420.017 177.647 420.497 177.746C422.213 178.198 423.91 178.637 425.628 179.091L423.495 178.697ZM437.999 182.783C435.647 182.117 433.315 181.465 430.967 180.802C432.122 181.018 433.262 181.221 434.42 181.439C436.795 182.078 439.206 182.741 441.601 183.394C440.403 183.194 439.192 182.98 437.999 182.783ZM452.825 187.068C449.955 186.227 447.075 185.379 444.246 184.567C445.724 184.816 447.207 185.071 448.689 185.324C451.665 186.141 454.607 186.932 457.603 187.764C456.006 187.526 454.418 187.301 452.825 187.068ZM467.892 191.46C464.477 190.459 461.099 189.482 457.698 188.489C459.463 188.752 461.231 189.018 463.002 189.288C466.342 190.222 469.711 191.178 473.077 192.131C471.35 191.911 469.614 191.676 467.892 191.46ZM483.082 196.016C479.408 194.904 475.718 193.779 472.103 192.71C473.958 192.946 475.816 193.186 477.677 193.429C481.334 194.472 485.002 195.523 488.697 196.594C486.823 196.397 484.952 196.207 483.082 196.016ZM-580.947 258.79C-580.208 258.562 -579.473 258.331 -578.736 258.101C-577.269 258.073 -575.806 258.039 -574.342 258.008C-575.115 258.215 -575.887 258.422 -576.662 258.626C-578.088 258.683 -579.519 258.736 -580.947 258.79ZM-585.49 260.169C-584.831 259.971 -584.17 259.773 -583.512 259.573C-582.25 259.526 -580.99 259.476 -579.729 259.427C-580.413 259.605 -581.1 259.78 -581.784 259.956C-583.019 260.029 -584.256 260.098 -585.49 260.169ZM-589.945 261.494C-589.401 261.335 -588.853 261.179 -588.31 261.018C-587.286 260.961 -586.264 260.901 -585.242 260.842C-585.797 260.981 -586.356 261.117 -586.911 261.255L-589.945 261.494ZM-594.267 262.75C-593.913 262.65 -593.564 262.545 -593.211 262.444C-592.477 262.388 -591.748 262.328 -591.016 262.271L-592.042 262.522C-592.784 262.598 -593.525 262.676 -594.267 262.75ZM-598.432 263.922L-598.101 263.829C-597.789 263.799 -597.474 263.77 -597.163 263.74L-597.333 263.781C-597.701 263.826 -598.065 263.876 -598.432 263.922ZM397.667 172.453C396.196 172.032 394.777 171.648 393.313 171.234C393.623 171.3 393.924 171.36 394.233 171.426C395.797 171.847 397.382 172.283 398.951 172.707C398.525 172.624 398.093 172.536 397.667 172.453ZM412.087 176.637C409.915 176.007 407.733 175.367 405.575 174.747C406.66 174.96 407.739 175.17 408.826 175.387C411.096 176.011 413.342 176.617 415.632 177.255C414.441 177.042 413.273 176.847 412.087 176.637ZM427.348 181.074C424.381 180.198 421.479 179.37 418.531 178.508C420.021 178.777 421.531 179.064 423.027 179.338C425.881 180.136 428.758 180.952 431.624 181.76C430.196 181.528 428.772 181.3 427.348 181.074ZM442.204 185.534C438.956 184.555 435.7 183.57 432.487 182.617C434.178 182.892 435.851 183.148 437.547 183.429C440.843 184.368 444.161 185.324 447.497 186.292C445.735 186.04 443.962 185.779 442.204 185.534ZM457.88 190.253C454.134 189.112 450.449 188.013 446.731 186.892C448.606 187.16 450.489 187.439 452.369 187.714C456.011 188.771 459.665 189.838 463.324 190.908C461.506 190.685 459.693 190.469 457.88 190.253ZM473.375 195.053C469.43 193.825 465.477 192.591 461.582 191.4C463.533 191.637 465.475 191.861 467.432 192.105C471.291 193.245 475.211 194.427 479.13 195.61C477.209 195.419 475.293 195.238 473.375 195.053ZM-588.64 259.07C-587.842 258.789 -587.041 258.511 -586.246 258.228C-584.655 258.202 -583.062 258.179 -581.47 258.151C-582.292 258.404 -583.115 258.655 -583.94 258.906C-585.505 258.963 -587.072 259.017 -588.64 259.07ZM-592.964 260.582C-592.235 260.332 -591.509 260.077 -590.781 259.824C-589.362 259.777 -587.943 259.734 -586.526 259.685C-587.269 259.907 -588.008 260.136 -588.754 260.356C-590.155 260.435 -591.56 260.509 -592.964 260.582ZM-597.275 262.048C-596.629 261.831 -595.987 261.611 -595.345 261.391C-594.116 261.328 -592.887 261.267 -591.661 261.202C-592.333 261.397 -593.002 261.594 -593.675 261.789C-594.872 261.878 -596.075 261.961 -597.275 262.048ZM-601.547 263.461C-601.009 263.285 -600.469 263.109 -599.933 262.931L-596.921 262.714C-597.473 262.87 -598.025 263.023 -598.577 263.178C-599.566 263.274 -600.556 263.367 -601.547 263.461ZM-605.695 264.805C-605.315 264.684 -604.93 264.566 -604.55 264.444C-603.827 264.377 -603.109 264.306 -602.388 264.238C-602.762 264.341 -603.141 264.439 -603.516 264.541C-604.243 264.629 -604.967 264.719 -605.695 264.805ZM-609.624 266.044L-609.233 265.922C-608.898 265.883 -608.561 265.846 -608.227 265.807L-608.502 265.881L-609.624 266.044ZM370.852 165.827C369.692 165.494 368.522 165.154 367.357 164.818C367.799 164.916 368.236 165.011 368.679 165.109C369.862 165.434 371.063 165.772 372.258 166.105C371.786 166.009 371.324 165.922 370.852 165.827ZM386.062 170.256C383.968 169.633 381.886 169.017 379.819 168.413C380.695 168.595 381.578 168.781 382.456 168.964C384.657 169.58 386.87 170.204 389.067 170.817C388.062 170.627 387.065 170.445 386.062 170.256ZM400.949 174.699C398.162 173.867 395.366 173.028 392.588 172.204C394.113 172.495 395.647 172.794 397.176 173.09C399.881 173.861 402.64 174.67 405.391 175.472C403.912 175.215 402.423 174.952 400.949 174.699ZM416.398 179.352C413.164 178.364 409.964 177.399 406.766 176.434C408.379 176.716 409.985 176.99 411.605 177.276L421.384 180.116C419.716 179.856 418.061 179.608 416.398 179.352ZM431.913 184.134C428.272 183.008 424.631 181.883 421.018 180.777C422.96 181.08 424.926 181.406 426.876 181.717C430.348 182.74 433.895 183.818 437.425 184.883C435.586 184.631 433.747 184.379 431.913 184.134ZM447.797 189.074C443.848 187.832 439.937 186.616 436.031 185.402C437.936 185.663 439.83 185.911 441.741 186.179C445.692 187.365 449.624 188.538 453.592 189.737C451.656 189.51 449.727 189.294 447.797 189.074ZM463.747 194.14C459.545 192.8 455.349 191.462 451.188 190.152C453.256 190.39 455.34 190.651 457.414 190.898C461.454 192.128 465.587 193.423 469.7 194.704C467.715 194.516 465.727 194.32 463.747 194.14ZM-588.036 255.915C-548.22 239.095 -512.389 218.479 -475.883 197.465C-341.953 120.369 -198.779 38.0153 185.301 119.536M-596.261 259.319C-595.458 258.996 -594.662 258.665 -593.862 258.338C-592.148 258.316 -590.434 258.294 -588.723 258.267C-589.562 258.565 -590.403 258.86 -591.245 259.155C-592.916 259.21 -594.587 259.269 -596.261 259.319ZM-600.412 260.966C-599.645 260.663 -598.879 260.36 -598.115 260.055C-596.545 260.01 -594.977 259.961 -593.41 259.91C-594.211 260.185 -595.018 260.456 -595.821 260.729C-597.35 260.809 -598.879 260.891 -600.412 260.966ZM-604.531 262.563C-603.814 262.288 -603.093 262.018 -602.379 261.74C-600.984 261.675 -599.59 261.608 -598.199 261.538C-598.938 261.786 -599.681 262.03 -600.424 262.275C-601.791 262.373 -603.159 262.47 -604.531 262.563ZM-608.605 264.112C-607.972 263.874 -607.34 263.635 -606.708 263.396C-605.515 263.317 -604.318 263.244 -603.127 263.162C-603.773 263.373 -604.416 263.588 -605.064 263.796C-606.242 263.904 -607.425 264.006 -608.605 264.112ZM-612.663 265.607C-612.135 265.415 -611.61 265.218 -611.085 265.024L-608.135 264.765C-608.678 264.936 -609.219 265.109 -609.762 265.279L-612.663 265.607ZM-616.66 267.037L-615.518 266.632C-614.8 266.554 -614.086 266.47 -613.371 266.389L-614.506 266.734C-615.224 266.834 -615.94 266.938 -616.66 267.037ZM-620.353 268.334L-619.907 268.182L-618.922 268.052L-619.308 268.164C-619.655 268.222 -620.005 268.276 -620.353 268.334ZM344.273 159.085C343.279 158.791 342.272 158.489 341.282 158.2L341.539 158.259C342.771 158.603 343.99 158.938 345.221 159.283L344.273 159.085ZM359.369 163.552C357.224 162.919 355.079 162.285 352.926 161.645C353.94 161.863 354.977 162.1 355.992 162.319C358.052 162.906 360.148 163.518 362.228 164.119C361.276 163.93 360.32 163.738 359.369 163.552ZM374.34 168.07C371.802 167.29 369.25 166.502 366.752 165.749C367.959 165.99 369.147 166.218 370.358 166.463C373.192 167.283 375.99 168.08 378.834 168.908C377.343 168.634 375.826 168.339 374.34 168.07ZM390.037 172.871L380.455 169.94C382.158 170.255 383.87 170.576 385.581 170.896C388.63 171.795 391.729 172.728 394.816 173.653C393.214 173.386 391.633 173.135 390.037 172.871ZM405.684 177.741C402.137 176.621 398.59 175.503 395.097 174.419C396.875 174.718 398.668 175.031 400.453 175.336C404.108 176.431 407.706 177.488 411.384 178.599C409.483 178.312 407.577 178.02 405.684 177.741ZM421.673 182.786C417.778 181.553 413.894 180.329 410.015 179.107C411.984 179.403 413.947 179.693 415.923 179.996C419.685 181.142 423.507 182.329 427.319 183.509C425.43 183.26 423.556 183.029 421.673 182.786ZM437.835 187.965C433.669 186.616 429.517 185.275 425.409 183.965C427.41 184.227 429.427 184.508 431.435 184.777C435.603 186.066 439.736 187.332 443.936 188.644C441.903 188.417 439.863 188.183 437.835 187.965ZM454.312 193.317C449.897 191.876 445.5 190.45 441.112 189.029C443.181 189.256 445.252 189.486 447.327 189.722C451.599 191.062 455.943 192.452 460.278 193.835C458.287 193.657 456.3 193.488 454.312 193.317ZM-603.881 259.527C-603.077 259.157 -602.272 258.79 -601.473 258.418C-599.668 258.402 -597.867 258.381 -596.065 258.36C-596.914 258.703 -597.765 259.045 -598.618 259.385C-600.37 259.434 -602.126 259.481 -603.881 259.527ZM-607.779 261.298C-607.004 260.951 -606.228 260.604 -605.456 260.253C-603.791 260.211 -602.129 260.164 -600.467 260.118C-601.276 260.438 -602.081 260.761 -602.893 261.077C-604.522 261.152 -606.149 261.227 -607.779 261.298ZM-611.676 263.031C-610.944 262.711 -610.221 262.385 -609.493 262.061C-607.967 261.996 -606.449 261.925 -604.927 261.855C-605.698 262.151 -606.467 262.448 -607.241 262.74C-608.719 262.838 -610.195 262.939 -611.676 263.031ZM-615.604 264.72C-614.919 264.428 -614.238 264.134 -613.555 263.839C-612.19 263.755 -610.827 263.666 -609.464 263.577C-610.185 263.846 -610.91 264.112 -611.636 264.378C-612.956 264.494 -614.278 264.609 -615.604 264.72ZM-619.5 266.352C-618.876 266.094 -618.249 265.838 -617.627 265.577C-616.455 265.482 -615.28 265.39 -614.111 265.291C-614.767 265.528 -615.43 265.759 -616.088 265.993C-617.222 266.117 -618.364 266.231 -619.5 266.352ZM-623.345 267.927C-622.82 267.715 -622.294 267.504 -621.77 267.292C-620.811 267.192 -619.854 267.089 -618.897 266.989C-619.43 267.176 -619.962 267.365 -620.497 267.55C-621.446 267.676 -622.394 267.804 -623.345 267.927ZM-627.109 269.424C-626.735 269.277 -626.364 269.127 -625.991 268.98C-625.295 268.891 -624.6 268.802 -623.906 268.711C-624.283 268.839 -624.655 268.968 -625.033 269.095C-625.724 269.205 -626.416 269.316 -627.109 269.424ZM-630.681 270.799L-630.209 270.619L-629.194 270.463L-629.613 270.6L-630.681 270.799ZM317.685 152.171L317.484 152.112L317.722 152.181L317.685 152.171ZM332.129 156.549C330.264 155.985 328.387 155.411 326.533 154.853C327.312 155.027 328.073 155.186 328.854 155.361C331.018 155.987 333.129 156.576 335.308 157.213C334.253 156.995 333.18 156.764 332.129 156.549ZM347.854 161.314C345.21 160.505 342.626 159.735 339.986 158.93C341.256 159.195 342.523 159.458 343.797 159.726C346.321 160.467 348.871 161.229 351.406 161.979C350.212 161.748 349.045 161.541 347.854 161.314ZM363.28 166.125C360.182 165.152 357.071 164.172 354.011 163.225C355.617 163.536 357.251 163.87 358.864 164.186C361.998 165.124 365.109 166.045 368.274 167.002C366.604 166.705 364.944 166.417 363.28 166.125ZM379.157 171.092C375.618 169.979 372.114 168.892 368.578 167.782C370.343 168.097 372.08 168.388 373.853 168.71C377.378 169.78 380.939 170.875 384.493 171.965C382.718 171.677 380.925 171.374 379.157 171.092ZM395.184 176.23C391.398 175.004 387.597 173.769 383.873 172.583C385.76 172.889 387.653 173.2 389.549 173.513C393.334 174.68 397.111 175.842 400.935 177.037C399.008 176.758 397.104 176.502 395.184 176.23ZM411.548 181.506C407.384 180.159 403.251 178.833 399.095 177.491C401.126 177.783 403.166 178.084 405.206 178.385C409.268 179.657 413.366 180.955 417.468 182.254C415.496 182.006 413.514 181.746 411.548 181.506ZM428.081 186.947C423.752 185.508 419.409 184.058 415.154 182.668C417.167 182.92 419.183 183.173 421.204 183.433C425.507 184.801 429.813 186.172 434.164 187.572C432.131 187.356 430.109 187.155 428.081 186.947ZM444.928 192.533C440.309 190.995 435.733 189.486 431.126 187.957C433.205 188.173 435.281 188.387 437.364 188.612C441.862 190.062 446.403 191.542 450.949 193.026C448.939 192.856 446.934 192.695 444.928 192.533ZM-611.486 259.709C-610.7 259.298 -609.921 258.882 -609.139 258.467C-607.266 258.457 -605.39 258.451 -603.52 258.438C-604.347 258.821 -605.175 259.204 -606.007 259.584C-607.832 259.63 -609.659 259.669 -611.486 259.709ZM-615.141 261.603C-614.376 261.213 -613.621 260.815 -612.86 260.422C-611.11 260.384 -609.356 260.351 -607.608 260.311C-608.42 260.678 -609.238 261.038 -610.055 261.402C-611.747 261.473 -613.445 261.536 -615.141 261.603ZM-618.837 263.46C-618.093 263.09 -617.35 262.72 -616.61 262.345C-614.988 262.284 -613.368 262.222 -611.75 262.156C-612.538 262.502 -613.332 262.841 -614.124 263.183C-615.693 263.278 -617.265 263.369 -618.837 263.46ZM-622.547 265.28C-621.831 264.933 -621.11 264.591 -620.398 264.241C-618.923 264.157 -617.453 264.069 -615.981 263.981C-616.725 264.299 -617.467 264.617 -618.212 264.93C-619.657 265.048 -621.099 265.167 -622.547 265.28ZM-626.233 267.046C-625.573 266.736 -624.918 266.42 -624.26 266.106C-622.935 266.005 -621.615 265.899 -620.294 265.792C-620.989 266.08 -621.679 266.37 -622.377 266.654C-623.66 266.788 -624.946 266.918 -626.233 267.046ZM-629.919 268.757C-629.321 268.484 -628.73 268.205 -628.137 267.93C-627.001 267.819 -625.86 267.713 -624.726 267.599C-625.352 267.851 -625.98 268.1 -626.608 268.348C-627.709 268.487 -628.815 268.622 -629.919 268.757ZM-633.615 270.418C-633.098 270.189 -632.582 269.961 -632.068 269.729C-631.12 269.615 -630.176 269.495 -629.23 269.379C-629.766 269.586 -630.308 269.789 -630.845 269.995C-631.769 270.136 -632.688 270.28 -633.615 270.418ZM-637.16 271.974C-636.777 271.809 -636.388 271.649 -636.006 271.483C-635.334 271.385 -634.655 271.293 -633.984 271.194C-634.376 271.34 -634.774 271.481 -635.167 271.626C-635.828 271.745 -636.497 271.858 -637.16 271.974ZM-640.542 273.419L-640.065 273.215C-639.713 273.155 -639.365 273.092 -639.013 273.032C-639.155 273.083 -639.295 273.135 -639.436 273.186L-640.542 273.419ZM289.732 144.795L287.081 144.002L287.285 144.05C288.237 144.324 289.218 144.617 290.178 144.897L289.732 144.795ZM305.078 149.441C303.447 148.935 301.8 148.419 300.196 147.93L301.712 148.276C303.532 148.809 305.359 149.347 307.171 149.874C306.465 149.725 305.781 149.589 305.078 149.441ZM320.556 154.233C318.034 153.454 315.499 152.665 312.98 151.887C314.373 152.188 315.784 152.502 317.182 152.807C319.552 153.514 321.976 154.257 324.387 154.99C323.103 154.733 321.836 154.488 320.556 154.233ZM336.425 159.178C333.298 158.189 330.228 157.238 327.129 156.268C328.623 156.571 330.123 156.876 331.624 157.184C334.766 158.135 337.917 159.093 341.058 160.044C339.515 159.755 337.963 159.461 336.425 159.178ZM352.088 164.18C348.698 163.095 345.302 162.004 341.943 160.939C343.747 161.277 345.537 161.605 347.351 161.951C350.699 162.98 354.096 164.043 357.497 165.108C355.692 164.798 353.884 164.484 352.088 164.18ZM368.587 169.46C364.686 168.198 360.869 166.992 356.993 165.746C358.914 166.077 360.859 166.427 362.789 166.765C366.553 167.941 370.321 169.12 374.096 170.304C372.252 170.015 370.424 169.741 368.587 169.46ZM384.706 174.76C380.678 173.43 376.641 172.096 372.665 170.801C374.664 171.112 376.648 171.411 378.655 171.73C382.665 173 386.724 174.304 390.793 175.614C388.767 175.332 386.724 175.033 384.706 174.76ZM401.65 180.33C397.226 178.864 392.891 177.456 388.488 176.003C390.555 176.288 392.63 176.582 394.705 176.875C398.98 178.25 403.263 179.63 407.564 181.022C405.586 180.783 403.622 180.56 401.65 180.33ZM418.36 185.968C413.844 184.436 409.312 182.895 404.867 181.41C406.933 181.656 408.993 181.897 411.067 182.151C415.528 183.605 420.039 185.09 424.564 186.587C422.496 186.378 420.424 186.169 418.36 185.968ZM435.621 191.799C430.806 190.165 426.056 188.573 421.25 186.944C423.363 187.153 425.49 187.38 427.611 187.596C432.306 189.149 437.009 190.706 441.739 192.282C439.699 192.12 437.656 191.953 435.621 191.799ZM-619.118 259.867C-618.358 259.411 -617.601 258.955 -616.846 258.495C-614.897 258.493 -612.949 258.486 -611.002 258.476C-611.813 258.904 -612.631 259.327 -613.447 259.751C-615.336 259.792 -617.225 259.833 -619.118 259.867ZM-622.54 261.88C-621.79 261.442 -621.034 261.008 -620.289 260.567C-618.464 260.536 -616.642 260.5 -614.822 260.463C-615.615 260.87 -616.408 261.279 -617.207 261.683C-618.982 261.751 -620.76 261.818 -622.54 261.88ZM-625.978 263.855C-625.246 263.44 -624.513 263.024 -623.786 262.605C-622.086 262.548 -620.387 262.49 -618.692 262.426C-619.466 262.814 -620.234 263.205 -621.012 263.588C-622.665 263.68 -624.321 263.767 -625.978 263.855ZM-629.43 265.792C-628.724 265.403 -628.028 265.006 -627.326 264.614C-625.758 264.533 -624.188 264.455 -622.623 264.37C-623.373 264.735 -624.125 265.098 -624.88 265.459C-626.395 265.573 -627.913 265.683 -629.43 265.792ZM-632.951 267.699C-632.268 267.332 -631.589 266.963 -630.909 266.594C-629.466 266.491 -628.026 266.383 -626.585 266.277C-627.31 266.619 -628.045 266.954 -628.774 267.292C-630.165 267.43 -631.555 267.568 -632.951 267.699ZM-636.442 269.535C-635.802 269.202 -635.157 268.873 -634.52 268.536C-633.236 268.419 -631.955 268.298 -630.675 268.175C-631.357 268.487 -632.041 268.795 -632.725 269.103C-633.961 269.251 -635.202 269.392 -636.442 269.535ZM-639.929 271.326C-639.345 271.031 -638.759 270.737 -638.179 270.439C-637.078 270.314 -635.975 270.189 -634.876 270.062C-635.475 270.327 -636.066 270.597 -636.668 270.859C-637.755 271.015 -638.841 271.173 -639.929 271.326ZM-643.382 273.048C-642.896 272.81 -642.418 272.565 -641.935 272.325C-641.018 272.2 -640.107 272.068 -639.194 271.938C-639.712 272.159 -640.228 272.383 -640.75 272.603C-641.626 272.753 -642.503 272.901 -643.382 273.048ZM-646.794 274.683L-645.686 274.154C-645.025 274.046 -644.363 273.939 -643.703 273.829L-644.846 274.296L-646.794 274.683ZM-650.051 276.207L-649.516 275.963L-648.522 275.772L-649.031 275.97L-650.051 276.207ZM277.798 142.162C276.149 141.648 274.507 141.139 272.877 140.637L274.566 141.037C276.259 141.539 277.982 142.061 279.687 142.571C279.054 142.432 278.43 142.301 277.798 142.162ZM293.259 146.99C290.715 146.198 288.157 145.395 285.612 144.602C286.792 144.865 288.007 145.153 289.191 145.419C291.832 146.215 294.429 146.981 297.077 147.782C295.803 147.517 294.528 147.252 293.259 146.99ZM308.884 151.928C306.015 151.008 303.146 150.088 300.318 149.195C301.753 149.496 303.164 149.779 304.605 150.084C307.541 150.983 310.53 151.916 313.505 152.841C311.971 152.542 310.411 152.222 308.884 151.928ZM325.107 157.122C321.696 156.028 318.292 154.94 314.886 153.849C316.609 154.187 318.337 154.529 320.068 154.873C323.471 155.931 326.833 156.962 330.243 158.024C328.516 157.711 326.826 157.429 325.107 157.122ZM341.329 162.406C337.574 161.171 333.806 159.927 330.11 158.729C332.033 159.077 333.996 159.458 335.93 159.814C339.555 160.959 343.251 162.149 346.934 163.33C345.061 163.019 343.193 162.711 341.329 162.406ZM357.89 167.835C353.814 166.488 349.814 165.189 345.765 163.861C347.717 164.184 349.649 164.492 351.609 164.824C355.701 166.133 359.76 167.422 363.86 168.738C361.872 168.438 359.868 168.127 357.89 167.835ZM374.614 173.44C370.316 171.994 366.012 170.544 361.77 169.134C363.871 169.449 365.993 169.78 368.105 170.103C372.226 171.441 376.438 172.838 380.632 174.223C378.619 173.955 376.62 173.7 374.614 173.44ZM391.62 179.171C387.075 177.626 382.578 176.115 378.077 174.601C380.13 174.871 382.166 175.126 384.228 175.406C388.775 176.902 393.293 178.38 397.854 179.886C395.776 179.647 393.691 179.401 391.62 179.171ZM408.875 185.079C404.123 183.446 399.383 181.819 394.683 180.219C396.84 180.464 399.012 180.726 401.177 180.979C405.74 182.499 410.401 184.083 415.047 185.657C412.987 185.461 410.928 185.266 408.875 185.079ZM426.374 191.132C421.448 189.416 416.537 187.712 411.675 186.037C413.748 186.23 415.818 186.419 417.897 186.62C422.787 188.274 427.644 189.906 432.551 191.572C430.489 191.419 428.432 191.278 426.374 191.132ZM-626.756 259.982C-626.029 259.486 -625.3 258.992 -624.577 258.492C-622.583 258.497 -620.592 258.496 -618.6 258.495C-619.374 258.962 -620.142 259.432 -620.921 259.894C-622.865 259.926 -624.809 259.956 -626.756 259.982ZM-629.927 262.12C-629.208 261.643 -628.494 261.162 -627.782 260.681C-625.893 260.656 -624.009 260.626 -622.125 260.595C-622.892 261.046 -623.66 261.495 -624.433 261.942C-626.263 262.003 -628.092 262.065 -629.927 262.12ZM-633.121 264.218C-632.417 263.763 -631.722 263.3 -631.023 262.84C-629.241 262.788 -627.464 262.727 -625.688 262.667C-626.448 263.102 -627.217 263.529 -627.984 263.959C-629.695 264.048 -631.405 264.137 -633.121 264.218ZM-636.362 266.272C-635.667 265.836 -634.973 265.399 -634.283 264.957C-632.63 264.881 -630.98 264.8 -629.332 264.717C-630.078 265.131 -630.829 265.54 -631.581 265.95C-633.172 266.062 -634.768 266.166 -636.362 266.272ZM-639.633 268.293C-638.949 267.877 -638.261 267.466 -637.582 267.044C-636.072 266.945 -634.56 266.85 -633.054 266.747C-633.769 267.132 -634.48 267.519 -635.2 267.9C-636.677 268.033 -638.153 268.165 -639.633 268.293ZM-642.913 270.266C-642.264 269.883 -641.619 269.496 -640.975 269.109C-639.584 268.99 -638.199 268.864 -636.814 268.739C-637.502 269.099 -638.186 269.459 -638.879 269.814C-640.222 269.968 -641.565 270.12 -642.913 270.266ZM-646.188 272.177C-645.582 271.83 -644.986 271.475 -644.384 271.124C-643.147 270.992 -641.909 270.862 -640.676 270.725C-641.327 271.054 -641.982 271.38 -642.638 271.705C-643.818 271.866 -645.004 272.02 -646.188 272.177ZM-649.535 274.056C-648.971 273.743 -648.407 273.429 -647.846 273.112C-646.762 272.971 -645.684 272.825 -644.603 272.68C-645.201 272.973 -645.81 273.256 -646.412 273.545C-647.453 273.716 -648.489 273.89 -649.535 274.056ZM-652.791 275.834C-652.307 275.573 -651.816 275.319 -651.335 275.056C-650.468 274.922 -649.595 274.792 -648.732 274.654C-649.238 274.891 -649.746 275.125 -650.254 275.36C-651.097 275.521 -651.946 275.675 -652.791 275.834ZM-656.004 277.542C-655.641 277.355 -655.285 277.162 -654.923 276.972C-654.279 276.854 -653.64 276.731 -652.998 276.613C-653.367 276.779 -653.729 276.95 -654.1 277.116C-654.736 277.257 -655.365 277.404 -656.004 277.542ZM-659.063 279.1L-658.548 278.838L-657.582 278.635L-658.089 278.855C-658.412 278.938 -658.739 279.018 -659.063 279.1ZM250.062 134.64C248.455 134.134 246.832 133.618 245.245 133.125C245.909 133.285 246.592 133.458 247.258 133.618C248.889 134.108 250.557 134.621 252.209 135.123L250.062 134.64ZM265.535 139.508L258.44 137.275C259.527 137.523 260.587 137.754 261.677 138.005C264.214 138.777 266.738 139.542 269.281 140.319C268.038 140.052 266.774 139.771 265.535 139.508ZM281.355 144.558C278.564 143.657 275.761 142.746 273.008 141.869C274.482 142.188 275.953 142.503 277.434 142.827C280.207 143.685 283.027 144.573 285.831 145.45C284.331 145.147 282.847 144.856 281.355 144.558ZM297.748 149.839C294.306 148.722 290.921 147.641 287.495 146.535C289.274 146.897 291.085 147.283 292.875 147.651C296.221 148.702 299.532 149.73 302.906 150.798C301.176 150.471 299.468 150.16 297.748 149.839ZM313.903 155.153C310.233 153.94 306.554 152.722 302.926 151.536C304.78 151.886 306.618 152.225 308.481 152.584C312.185 153.763 315.923 154.965 319.657 156.164C317.739 155.828 315.811 155.481 313.903 155.153ZM330.598 160.678C326.578 159.336 322.612 158.029 318.628 156.71C320.645 157.063 322.659 157.413 324.686 157.775C328.589 159.035 332.519 160.313 336.472 161.606C334.505 161.29 332.554 160.985 330.598 160.678ZM347.43 166.346C343.127 164.892 338.832 163.444 334.568 162.015C336.664 162.349 338.796 162.715 340.903 163.059C345.128 164.442 349.359 165.827 353.607 167.225C351.542 166.926 349.486 166.636 347.43 166.346ZM364.462 172.138C359.983 170.603 355.527 169.082 351.104 167.583C353.223 167.886 355.324 168.174 357.454 168.487C361.824 169.936 366.278 171.439 370.718 172.932C368.631 172.666 366.54 172.396 364.462 172.138ZM381.881 178.124C377.13 176.485 372.414 174.868 367.694 173.249C369.845 173.52 372.019 173.813 374.179 174.093C378.853 175.663 383.488 177.208 388.199 178.803C386.09 178.572 383.984 178.347 381.881 178.124ZM399.404 184.238C394.53 182.526 389.651 180.81 384.852 179.145C386.964 179.373 389.066 179.59 391.185 179.826C395.959 181.448 400.796 183.11 405.634 184.774C403.552 184.587 401.481 184.418 399.404 184.238ZM417.272 190.508C412.15 188.699 407.109 186.942 402.021 185.155C404.155 185.343 406.293 185.537 408.433 185.733C413.419 187.449 418.421 189.175 423.462 190.926C421.398 190.783 419.334 190.644 417.272 190.508ZM-634.409 260.067C-633.726 259.535 -633.051 258.996 -632.375 258.457C-630.331 258.469 -628.285 258.484 -626.244 258.492C-626.982 259.001 -627.727 259.505 -628.47 260.008C-630.447 260.032 -632.429 260.049 -634.409 260.067ZM-637.334 262.32C-636.654 261.803 -635.98 261.28 -635.306 260.758C-633.369 260.741 -631.429 260.728 -629.494 260.705C-630.23 261.199 -630.973 261.685 -631.713 262.174C-633.585 262.227 -635.46 262.273 -637.334 262.32ZM-640.31 264.54C-639.628 264.038 -638.946 263.537 -638.271 263.029C-636.445 262.984 -634.622 262.936 -632.799 262.887C-633.524 263.361 -634.25 263.833 -634.981 264.301C-636.755 264.383 -638.53 264.465 -640.31 264.54ZM-643.305 266.718C-642.633 266.236 -641.961 265.757 -641.296 265.272C-639.577 265.2 -637.864 265.12 -636.15 265.041C-636.865 265.494 -637.576 265.951 -638.296 266.399C-639.962 266.508 -641.631 266.616 -643.305 266.718ZM-646.316 268.85C-645.659 268.394 -645.011 267.931 -644.36 267.47C-642.758 267.374 -641.158 267.276 -639.563 267.174C-640.274 267.611 -640.988 268.045 -641.705 268.477C-643.237 268.607 -644.778 268.726 -646.316 268.85ZM-649.386 270.948C-648.743 270.515 -648.107 270.075 -647.468 269.637C-645.989 269.52 -644.509 269.403 -643.032 269.281C-643.722 269.691 -644.424 270.092 -645.119 270.499C-646.54 270.65 -647.959 270.803 -649.386 270.948ZM-652.474 272.985C-651.856 272.583 -651.237 272.181 -650.625 271.774C-649.275 271.64 -647.931 271.498 -646.588 271.357C-647.254 271.739 -647.925 272.118 -648.597 272.498C-649.884 272.664 -651.18 272.824 -652.474 272.985ZM-655.589 274.983C-654.997 274.609 -654.4 274.239 -653.813 273.862C-652.626 273.716 -651.437 273.573 -650.254 273.424C-650.867 273.765 -651.475 274.11 -652.093 274.447C-653.259 274.626 -654.42 274.808 -655.589 274.983ZM-658.672 276.904C-658.146 276.583 -657.63 276.257 -657.108 275.934C-656.065 275.781 -655.03 275.621 -653.992 275.462C-654.563 275.767 -655.131 276.074 -655.705 276.377C-656.69 276.556 -657.682 276.729 -658.672 276.904ZM-661.79 278.767C-661.328 278.494 -660.872 278.217 -660.411 277.942C-659.563 277.795 -658.713 277.648 -657.867 277.499C-658.357 277.751 -658.849 278.001 -659.341 278.25C-660.159 278.422 -660.971 278.598 -661.79 278.767ZM-664.838 280.526C-664.487 280.326 -664.134 280.128 -663.785 279.926C-663.163 279.801 -662.541 279.677 -661.922 279.549C-662.304 279.738 -662.693 279.921 -663.076 280.108C-663.66 280.251 -664.253 280.386 -664.838 280.526ZM-667.721 282.149C-667.539 282.049 -667.353 281.953 -667.171 281.852C-666.85 281.777 -666.533 281.7 -666.211 281.625C-666.394 281.711 -666.581 281.793 -666.764 281.879C-667.083 281.969 -667.4 282.061 -667.721 282.149ZM221.911 126.887C220.4 126.41 218.871 125.922 217.37 125.451C217.936 125.591 218.483 125.717 219.052 125.856C220.677 126.349 222.343 126.867 223.986 127.371C223.297 127.211 222.598 127.045 221.911 126.887ZM237.618 131.852C235.395 131.144 233.217 130.464 231.001 129.761C232.078 130.013 233.144 130.258 234.224 130.512C236.524 131.22 238.795 131.91 241.103 132.623C239.945 132.368 238.772 132.105 237.618 131.852ZM253.68 137.033C250.865 136.121 248.037 135.201 245.245 134.304C246.74 134.637 248.254 134.982 249.755 135.32C252.493 136.174 255.267 137.054 258.026 137.922C256.565 137.618 255.134 137.333 253.68 137.033ZM270.007 142.338C266.612 141.223 263.267 140.141 259.901 139.046C261.646 139.412 263.417 139.798 265.17 140.17C268.497 141.225 271.815 142.273 275.176 143.348C273.449 143.009 271.725 142.671 270.007 142.338ZM286.178 147.687C282.599 146.501 279.017 145.313 275.46 144.141C277.308 144.505 279.134 144.852 280.993 145.224C284.644 146.398 288.317 147.583 291.984 148.767C290.057 148.413 288.095 148.032 286.178 147.687ZM303.037 153.321C299.083 151.987 295.143 150.662 291.238 149.36C293.27 149.733 295.317 150.118 297.361 150.5C301.151 151.734 304.998 153.005 308.844 154.275C306.893 153.944 304.979 153.644 303.037 153.321ZM319.995 159.048C315.716 157.598 311.467 156.166 307.211 154.73C309.295 155.082 311.394 155.445 313.489 155.806C317.739 157.209 321.948 158.584 326.227 160.006C324.146 159.684 322.065 159.361 319.995 159.048ZM337.062 164.905C332.653 163.381 328.23 161.849 323.886 160.366C325.986 160.689 328.076 161.004 330.187 161.335C334.53 162.786 338.932 164.276 343.329 165.762C341.234 165.471 339.147 165.186 337.062 164.905ZM354.574 170.951C349.818 169.297 345.134 167.69 340.419 166.061C342.598 166.36 344.811 166.69 347.001 166.998C351.611 168.558 356.219 170.117 360.877 171.708C358.771 171.451 356.671 171.199 354.574 170.951ZM372.149 177.12C367.29 175.408 362.44 173.703 357.637 172.026C359.772 172.283 361.896 172.529 364.039 172.795C368.829 174.434 373.642 176.089 378.478 177.758C376.363 177.539 374.257 177.331 372.149 177.12ZM390.009 183.439C384.945 181.636 379.92 179.857 374.914 178.091C377.084 178.312 379.27 178.549 381.449 178.779C386.377 180.487 391.36 182.228 396.357 183.979C394.242 183.8 392.118 183.609 390.009 183.439ZM408.178 189.932C402.942 188.052 397.749 186.2 392.559 184.35C394.693 184.526 396.834 184.712 398.974 184.895C404.144 186.708 409.273 188.494 414.483 190.331C412.379 190.196 410.275 190.06 408.178 189.932ZM-642.11 260.127C-641.473 259.553 -640.837 258.977 -640.206 258.398C-638.117 258.419 -636.032 258.434 -633.946 258.447C-634.64 258.994 -635.336 259.541 -636.035 260.083C-638.059 260.101 -640.082 260.117 -642.11 260.127ZM-644.789 262.492C-644.148 261.932 -643.501 261.376 -642.866 260.811C-640.886 260.803 -638.907 260.789 -636.933 260.773C-637.623 261.304 -638.31 261.838 -639.007 262.363C-640.932 262.41 -642.86 262.452 -644.789 262.492ZM-647.499 264.821C-646.861 264.281 -646.223 263.739 -645.59 263.191C-643.714 263.154 -641.837 263.116 -639.963 263.073C-640.655 263.589 -641.346 264.106 -642.044 264.616C-643.858 264.689 -645.681 264.754 -647.499 264.821ZM-650.245 267.12C-649.61 266.598 -648.985 266.068 -648.356 265.541C-646.58 265.477 -644.806 265.411 -643.034 265.342C-643.722 265.839 -644.418 266.331 -645.112 266.823C-646.821 266.924 -648.53 267.025 -650.245 267.12ZM-653.042 269.37C-652.414 268.87 -651.79 268.367 -651.17 267.863C-649.496 267.773 -647.832 267.672 -646.166 267.574C-646.851 268.054 -647.542 268.529 -648.234 269.003C-649.832 269.129 -651.436 269.251 -653.042 269.37ZM-655.876 271.579C-655.25 271.097 -654.62 270.62 -654 270.133C-652.459 270.021 -650.919 269.91 -649.384 269.791C-650.053 270.245 -650.719 270.699 -651.393 271.148C-652.885 271.295 -654.379 271.438 -655.876 271.579ZM-658.74 273.745C-658.13 273.291 -657.518 272.838 -656.915 272.379C-655.488 272.246 -654.068 272.107 -652.647 271.969C-653.296 272.396 -653.94 272.825 -654.595 273.247C-655.975 273.416 -657.354 273.583 -658.74 273.745ZM-661.608 275.851C-661.025 275.433 -660.454 275.005 -659.876 274.582C-658.578 274.433 -657.281 274.284 -655.989 274.129C-656.622 274.53 -657.259 274.929 -657.897 275.324C-659.131 275.504 -660.37 275.677 -661.608 275.851ZM-664.548 277.917C-663.992 277.532 -663.443 277.143 -662.892 276.753C-661.723 276.592 -660.562 276.424 -659.398 276.258C-660 276.626 -660.614 276.985 -661.222 277.348C-662.329 277.541 -663.435 277.731 -664.548 277.917ZM-667.48 279.907C-666.965 279.562 -666.445 279.221 -665.935 278.873C-664.943 278.711 -663.946 278.553 -662.958 278.387C-663.504 278.707 -664.055 279.022 -664.605 279.339C-665.562 279.531 -666.52 279.719 -667.48 279.907ZM-670.399 281.828C-669.955 281.541 -669.507 281.257 -669.067 280.968C-668.247 280.812 -667.436 280.647 -666.618 280.485C-667.086 280.749 -667.547 281.018 -668.018 281.28C-668.809 281.464 -669.603 281.646 -670.399 281.828ZM-673.245 283.637C-672.91 283.429 -672.583 283.214 -672.25 283.005C-671.66 282.874 -671.07 282.744 -670.482 282.612C-670.836 282.803 -671.186 282.997 -671.541 283.185C-672.109 283.336 -672.675 283.487 -673.245 283.637ZM-676.039 285.333L-675.522 285.021C-675.23 284.947 -674.933 284.876 -674.641 284.8L-675.19 285.082C-675.471 285.167 -675.758 285.248 -676.039 285.333ZM193.438 118.93C192.194 118.538 190.938 118.136 189.694 117.743C190.22 117.874 190.738 118.001 191.265 118.133C192.595 118.54 193.951 118.962 195.287 119.374C194.677 119.23 194.047 119.073 193.438 118.93ZM209.744 124.126C207.586 123.429 205.455 122.748 203.32 122.064C204.357 122.313 205.402 122.566 206.443 122.817C208.658 123.505 210.818 124.159 213.049 124.857C211.937 124.605 210.853 124.374 209.744 124.126ZM225.775 129.328C222.9 128.396 220.011 127.456 217.141 126.526C218.63 126.865 220.167 127.237 221.664 127.581C224.464 128.463 227.289 129.362 230.097 130.249C228.652 129.939 227.214 129.634 225.775 129.328ZM241.918 134.626C238.751 133.574 235.582 132.521 232.46 131.497C234.089 131.85 235.68 132.176 237.318 132.533C240.561 133.569 243.839 134.628 247.125 135.692C245.394 135.34 243.64 134.972 241.918 134.626ZM258.512 140.128C254.903 138.926 251.332 137.748 247.739 136.556C249.6 136.935 251.461 137.315 253.332 137.701C256.909 138.86 260.465 140.004 264.061 141.174C262.203 140.82 260.358 140.476 258.512 140.128ZM275.258 145.778C271.329 144.444 267.392 143.105 263.516 141.804C265.54 142.191 267.608 142.609 269.644 143.004C273.431 144.247 277.275 145.526 281.111 146.798C279.149 146.449 277.209 146.118 275.258 145.778ZM292.25 151.547C288.036 150.105 283.879 148.7 279.703 147.282C281.74 147.643 283.744 147.977 285.793 148.347C290.008 149.748 294.211 151.142 298.469 152.57C296.397 152.23 294.309 151.877 292.25 151.547ZM309.468 157.488C305.045 155.958 300.631 154.432 296.252 152.928C298.375 153.273 300.503 153.623 302.637 153.978C306.962 155.433 311.314 156.905 315.676 158.384C313.593 158.074 311.539 157.789 309.468 157.488ZM326.935 163.571C322.266 161.934 317.62 160.31 313.009 158.71C315.188 159.031 317.393 159.373 319.584 159.705C324.12 161.249 328.706 162.826 333.305 164.41C331.177 164.127 329.052 163.845 326.935 163.571ZM344.683 169.808C339.82 168.092 334.999 166.403 330.171 164.708C332.328 164.991 334.476 165.268 336.645 165.561C341.449 167.217 346.22 168.85 351.064 170.53C348.93 170.282 346.808 170.047 344.683 169.808ZM362.552 176.18C357.547 174.385 352.528 172.581 347.601 170.834C349.775 171.082 351.97 171.351 354.153 171.608C359.041 173.311 364.004 175.061 368.961 176.808C366.823 176.598 364.681 176.381 362.552 176.18ZM380.826 182.733C375.594 180.846 370.434 179.003 365.248 177.145C367.403 177.352 369.561 177.562 371.725 177.779C376.837 179.58 381.944 181.378 387.108 183.213C385.009 183.046 382.919 182.892 380.826 182.733ZM399.196 189.414C393.848 187.461 388.516 185.519 383.238 183.61C385.351 183.774 387.458 183.925 389.577 184.096C394.831 185.966 400.111 187.854 405.423 189.761C403.343 189.637 401.272 189.53 399.196 189.414ZM-649.845 260.15C-649.254 259.536 -648.662 258.924 -648.077 258.305C-645.956 258.334 -643.838 258.357 -641.721 258.38C-642.361 258.965 -643.002 259.552 -643.65 260.132C-645.714 260.141 -647.778 260.148 -649.845 260.15ZM-652.271 262.634C-651.679 262.037 -651.091 261.436 -650.505 260.834C-648.476 260.834 -646.452 260.824 -644.427 260.816C-645.074 261.388 -645.725 261.955 -646.379 262.522C-648.34 262.562 -650.303 262.603 -652.271 262.634ZM-654.719 265.071C-654.128 264.496 -653.55 263.908 -652.967 263.326C-651.034 263.297 -649.107 263.26 -647.18 263.222C-647.831 263.781 -648.493 264.331 -649.152 264.884C-651.005 264.951 -652.861 265.013 -654.719 265.071ZM-657.241 267.478C-656.644 266.915 -656.05 266.35 -655.461 265.781C-653.642 265.724 -651.822 265.667 -650.008 265.604C-650.657 266.143 -651.31 266.68 -651.966 267.213C-653.72 267.306 -655.48 267.392 -657.241 267.478ZM-659.805 269.854C-659.204 269.305 -658.597 268.76 -658.003 268.206C-656.292 268.123 -654.584 268.036 -652.879 267.948C-653.52 268.465 -654.157 268.986 -654.806 269.496C-656.47 269.619 -658.134 269.741 -659.805 269.854ZM-662.382 272.168C-661.791 271.647 -661.205 271.125 -660.622 270.598C-659.01 270.491 -657.403 270.378 -655.798 270.262C-656.442 270.763 -657.087 271.262 -657.738 271.757C-659.281 271.899 -660.833 272.033 -662.382 272.168ZM-665.004 274.452C-664.42 273.955 -663.851 273.446 -663.273 272.944C-661.776 272.815 -660.278 272.689 -658.787 272.554C-659.42 273.03 -660.062 273.497 -660.702 273.966C-662.134 274.13 -663.564 274.296 -665.004 274.452ZM-667.684 276.678C-667.114 276.21 -666.548 275.738 -665.983 275.265C-664.595 275.117 -663.216 274.96 -661.837 274.803C-662.463 275.257 -663.1 275.704 -663.734 276.153C-665.045 276.334 -666.365 276.505 -667.684 276.678ZM-670.41 278.868C-669.846 278.422 -669.275 277.981 -668.717 277.53C-667.477 277.368 -666.235 277.21 -665.001 277.044C-665.593 277.457 -666.184 277.871 -666.782 278.28C-667.991 278.477 -669.195 278.678 -670.41 278.868ZM-673.122 280.977C-672.597 280.577 -672.074 280.176 -671.554 279.772C-670.439 279.6 -669.33 279.423 -668.223 279.244C-668.792 279.627 -669.359 280.013 -669.936 280.39C-670.991 280.592 -672.06 280.781 -673.122 280.977ZM-675.875 283.043C-675.388 282.686 -674.914 282.321 -674.433 281.96C-673.471 281.787 -672.511 281.609 -671.553 281.432C-672.075 281.767 -672.599 282.101 -673.125 282.432C-674.041 282.636 -674.951 282.845 -675.875 283.043ZM-678.628 285.008C-678.206 284.71 -677.786 284.412 -677.367 284.111C-676.585 283.946 -675.797 283.786 -675.019 283.619C-675.478 283.901 -675.945 284.177 -676.408 284.456C-677.145 284.643 -677.888 284.825 -678.628 285.008ZM-681.366 286.899C-681.032 286.673 -680.692 286.45 -680.361 286.222C-679.776 286.081 -679.2 285.933 -678.618 285.79C-678.981 286.003 -679.355 286.21 -679.721 286.421C-680.269 286.581 -680.815 286.743 -681.366 286.899ZM-683.878 288.59C-683.717 288.485 -683.561 288.375 -683.401 288.269L-682.537 288.03C-682.703 288.123 -682.865 288.219 -683.032 288.312L-683.878 288.59ZM165.481 111.043L161.709 109.844L163.062 110.189C164.333 110.581 165.618 110.982 166.888 111.374C166.415 111.261 165.954 111.156 165.481 111.043ZM181.478 116.194C179.342 115.5 177.189 114.795 175.075 114.113C176.153 114.376 177.261 114.659 178.343 114.925C180.456 115.587 182.59 116.26 184.729 116.938C183.641 116.686 182.562 116.443 181.478 116.194ZM197.645 121.45C194.835 120.529 192.082 119.644 189.288 118.733C190.611 119.041 191.89 119.321 193.219 119.633C196.12 120.554 199.011 121.468 201.923 122.396C200.5 122.082 199.061 121.76 197.645 121.45ZM213.631 126.75C210.574 125.733 207.503 124.709 204.472 123.709C206.14 124.079 207.793 124.439 209.471 124.814C212.544 125.804 215.668 126.825 218.777 127.837C217.068 127.479 215.331 127.101 213.631 126.75ZM230.512 132.384C226.915 131.172 223.359 129.986 219.799 128.798C221.668 129.19 223.566 129.602 225.446 130.002C228.941 131.142 232.414 132.268 235.942 133.429C234.115 133.068 232.329 132.738 230.512 132.384ZM247.289 138.068C243.365 136.735 239.441 135.404 235.542 134.088C237.534 134.481 239.545 134.887 241.551 135.289C245.413 136.566 249.302 137.859 253.191 139.152C251.219 138.787 249.249 138.424 247.289 138.068ZM264.158 143.847C260.091 142.442 256.025 141.038 252.014 139.669C254.061 140.047 256.086 140.408 258.144 140.795C262.203 142.152 266.314 143.542 270.432 144.936C268.348 144.579 266.231 144.196 264.158 143.847ZM281.697 149.903C277.232 148.352 272.83 146.841 268.397 145.311C270.542 145.677 272.712 146.063 274.87 146.439C279.214 147.91 283.524 149.359 287.9 150.85C285.816 150.522 283.77 150.223 281.697 149.903ZM299.08 156.007C294.487 154.387 289.887 152.764 285.359 151.182C287.514 151.52 289.668 151.855 291.835 152.202C296.354 153.749 300.938 155.339 305.517 156.925C303.371 156.619 301.215 156.304 299.08 156.007ZM316.914 162.307C312.078 160.588 307.294 158.9 302.509 157.213C304.687 157.521 306.866 157.828 309.055 158.147C313.776 159.782 318.5 161.42 323.272 163.089C321.141 162.818 319.034 162.568 316.914 162.307ZM334.87 168.73C329.859 166.931 324.866 165.144 319.907 163.377C322.096 163.651 324.303 163.942 326.505 164.226C331.426 165.95 336.37 167.688 341.339 169.441C339.182 169.203 337.019 168.959 334.87 168.73ZM353.123 175.323C347.961 173.449 342.809 171.58 337.717 169.748C339.893 169.984 342.071 170.221 344.258 170.466C349.276 172.243 354.363 174.063 359.453 175.884C357.334 175.687 355.234 175.512 353.123 175.323ZM371.628 182.053C366.268 180.094 360.976 178.177 355.661 176.246C357.812 176.442 359.96 176.634 362.12 176.838C367.405 178.729 372.649 180.595 377.982 182.515C375.862 182.358 373.742 182.202 371.628 182.053ZM390.256 188.926C384.794 186.901 379.32 184.871 373.946 182.902C376.087 183.056 378.245 183.23 380.392 183.393C385.721 185.317 391.127 187.29 396.536 189.265C394.443 189.151 392.346 189.034 390.256 188.926ZM-657.602 260.133C-657.066 259.485 -656.538 258.831 -656.01 258.177C-653.854 258.215 -651.696 258.255 -649.543 258.287C-650.136 258.915 -650.74 259.534 -651.342 260.154C-653.424 260.153 -655.516 260.141 -657.602 260.133ZM-659.778 262.729C-659.237 262.095 -658.707 261.453 -658.173 260.814C-656.113 260.822 -654.053 260.832 -651.997 260.835C-652.593 261.445 -653.197 262.049 -653.801 262.653C-655.791 262.68 -657.783 262.707 -659.778 262.729ZM-662.013 265.29C-661.464 264.669 -660.915 264.047 -660.374 263.42C-658.412 263.4 -656.453 263.373 -654.496 263.346C-655.095 263.94 -655.694 264.533 -656.301 265.12C-658.202 265.18 -660.104 265.239 -662.013 265.29ZM-664.274 267.801C-663.723 267.199 -663.169 266.598 -662.626 265.99C-660.76 265.942 -658.901 265.886 -657.042 265.829C-657.644 266.407 -658.245 266.987 -658.856 267.559C-660.657 267.645 -662.466 267.723 -664.274 267.801ZM-666.581 270.283C-666.025 269.698 -665.478 269.109 -664.931 268.517C-663.168 268.442 -661.402 268.369 -659.644 268.287C-660.249 268.848 -660.861 269.404 -661.475 269.96C-663.173 270.07 -664.874 270.18 -666.581 270.283ZM-668.923 272.717C-668.371 272.157 -667.832 271.587 -667.289 271.02C-665.617 270.92 -663.954 270.812 -662.289 270.703C-662.897 271.248 -663.518 271.782 -664.134 272.321C-665.726 272.457 -667.322 272.589 -668.923 272.717ZM-671.333 275.108C-670.778 274.566 -670.226 274.021 -669.678 273.472C-668.125 273.35 -666.571 273.227 -665.024 273.096C-665.628 273.616 -666.235 274.133 -666.845 274.648C-668.339 274.804 -669.834 274.958 -671.333 275.108ZM-673.783 277.457C-673.23 276.938 -672.674 276.422 -672.129 275.896C-670.687 275.753 -669.252 275.603 -667.816 275.453C-668.408 275.945 -668.995 276.442 -669.595 276.927C-670.987 277.108 -672.382 277.285 -673.783 277.457ZM-676.257 279.75C-675.718 279.261 -675.184 278.769 -674.653 278.275C-673.326 278.114 -671.999 277.954 -670.679 277.786C-671.263 278.252 -671.847 278.717 -672.438 279.177C-673.708 279.37 -674.981 279.562 -676.257 279.75ZM-678.768 281.988C-678.25 281.539 -677.746 281.078 -677.236 280.623C-676.017 280.446 -674.809 280.261 -673.597 280.078C-674.171 280.517 -674.755 280.949 -675.335 281.383C-676.474 281.589 -677.621 281.789 -678.768 281.988ZM-681.347 284.175C-680.844 283.756 -680.345 283.334 -679.849 282.909C-678.78 282.727 -677.703 282.551 -676.64 282.364C-677.179 282.76 -677.73 283.148 -678.275 283.54C-679.299 283.751 -680.318 283.967 -681.347 284.175ZM-683.925 286.283C-683.462 285.912 -682.991 285.548 -682.534 285.172C-681.609 284.989 -680.692 284.798 -679.775 284.609C-680.28 284.964 -680.785 285.32 -681.296 285.671C-682.166 285.881 -683.049 286.079 -683.925 286.283ZM-686.507 288.323C-686.099 288.01 -685.697 287.693 -685.294 287.376C-684.546 287.205 -683.803 287.032 -683.057 286.859C-683.485 287.146 -683.907 287.439 -684.339 287.723C-685.063 287.923 -685.779 288.128 -686.507 288.323ZM-689.036 290.229C-688.73 290.003 -688.432 289.773 -688.128 289.545C-687.598 289.407 -687.06 289.274 -686.532 289.133C-686.861 289.343 -687.19 289.554 -687.521 289.762C-688.024 289.921 -688.532 290.074 -689.036 290.229ZM-691.545 292.039L-691.037 291.679C-690.763 291.596 -690.494 291.51 -690.221 291.428L-690.77 291.757C-691.029 291.849 -691.284 291.947 -691.545 292.039ZM137.368 103.013C135.977 102.565 134.63 102.142 133.249 101.699L134.134 101.928L138.55 103.3L137.368 103.013ZM152.996 108.097C150.86 107.404 148.704 106.699 146.57 106.006C147.552 106.25 148.517 106.483 149.503 106.729C151.689 107.418 153.916 108.134 156.121 108.834C155.082 108.589 154.033 108.339 152.996 108.097ZM168.976 113.335C166.453 112.497 163.938 111.664 161.449 110.848C162.746 111.156 164.02 111.45 165.324 111.762C168.039 112.631 170.72 113.477 173.461 114.361C171.977 114.026 170.452 113.664 168.976 113.335ZM185.564 118.846C182.448 117.809 179.34 116.776 176.231 115.745C177.894 116.123 179.571 116.508 181.244 116.892C184.237 117.863 187.258 118.85 190.262 119.826C188.676 119.486 187.141 119.18 185.564 118.846ZM202.227 124.459C198.676 123.253 195.111 122.038 191.613 120.863C193.505 121.271 195.455 121.719 197.358 122.134C200.764 123.252 204.224 124.404 207.68 125.555C205.853 125.183 204.043 124.824 202.227 124.459ZM219.125 130.193C215.245 128.866 211.436 127.584 207.587 126.276C209.507 126.667 211.386 127.028 213.318 127.428C217.248 128.734 221.139 130.017 225.099 131.342C223.112 130.961 221.102 130.564 219.125 130.193ZM236.115 136.059C232.042 134.648 227.964 133.236 223.932 131.852C226.003 132.249 228.076 132.646 230.16 133.051C234.14 134.391 238.174 135.765 242.202 137.134C240.164 136.768 238.142 136.415 236.115 136.059ZM253.559 142.126C249.135 140.576 244.742 139.045 240.371 137.529C242.532 137.914 244.745 138.337 246.92 138.732C251.197 140.189 255.489 141.654 259.818 143.142C257.72 142.794 255.644 142.464 253.559 142.126ZM271.056 148.277C266.484 146.666 261.933 145.066 257.395 143.475C259.532 143.827 261.633 144.151 263.784 144.512C268.357 146.088 272.947 147.673 277.556 149.27C275.393 148.942 273.206 148.595 271.056 148.277ZM288.907 154.632C284.144 152.926 279.369 151.212 274.678 149.55C276.875 149.88 279.085 150.221 281.294 150.562C285.9 152.165 290.584 153.819 295.26 155.466C293.125 155.174 291.03 154.914 288.907 154.632ZM306.99 161.106C301.974 159.299 297.033 157.538 292.063 155.761C294.259 156.058 296.46 156.358 298.668 156.666C303.607 158.404 308.518 160.126 313.505 161.894C311.332 161.631 309.152 161.359 306.99 161.106ZM325.237 167.739C320.106 165.868 314.975 163.997 309.913 162.168C312.103 162.43 314.296 162.694 316.496 162.965C321.493 164.742 326.551 166.557 331.612 168.374C329.474 168.15 327.364 167.953 325.237 167.739ZM343.705 174.494C338.407 172.545 333.139 170.616 327.903 168.707C330.08 168.93 332.26 169.156 334.448 169.389C339.652 171.258 344.893 173.151 350.163 175.062C348.012 174.874 345.849 174.673 343.705 174.494ZM362.506 181.433C357.036 179.406 351.597 177.399 346.183 175.407C348.348 175.592 350.527 175.791 352.7 175.985C358.068 177.931 363.446 179.886 368.865 181.865C366.743 181.719 364.621 181.572 362.506 181.433ZM381.444 188.501C375.872 186.412 370.288 184.317 364.801 182.28C366.934 182.423 369.063 182.564 371.201 182.715C376.636 184.704 382.173 186.758 387.698 188.803C385.611 188.699 383.527 188.598 381.444 188.501ZM362.089 182.096C367.649 184.157 373.288 186.269 378.927 188.379C185.976 179.644 9.54248 200.912 -166.686 222.155C-273.7 235.055 -380.642 247.943 -491.153 254.092C-396.159 246.441 -304.445 233.298 -212.198 220.077C-32.248 194.286 149.745 168.214 362.089 182.096ZM343.299 175.158C348.759 177.164 354.269 179.202 359.793 181.248C148.293 167.705 -33.1334 193.71 -212.539 219.422C-309.806 233.363 -406.482 247.212 -507.027 254.625C-419.695 245.856 -335.913 231.727 -251.333 217.459C-70.8788 187.015 113.222 155.951 343.299 175.158ZM185.301 119.536C189.034 120.784 192.788 122.045 196.569 123.323C-166.294 51.619 -316.527 127.6 -457.587 198.996C-498.26 219.582 -538.174 239.779 -582.226 255.928M-665.41 260.088C-664.931 259.403 -664.456 258.714 -663.986 258.022C-661.797 258.071 -659.611 258.112 -657.426 258.151C-657.964 258.814 -658.505 259.473 -659.051 260.128C-661.168 260.119 -663.288 260.106 -665.41 260.088ZM-667.347 262.79C-666.859 262.116 -666.366 261.446 -665.885 260.767C-663.795 260.784 -661.706 260.799 -659.62 260.809C-660.163 261.456 -660.702 262.107 -661.254 262.747C-663.281 262.767 -665.316 262.778 -667.347 262.79ZM-669.325 265.459C-668.829 264.8 -668.332 264.142 -667.844 263.476C-665.848 263.465 -663.851 263.457 -661.859 263.439C-662.407 264.07 -662.955 264.7 -663.51 265.325C-665.447 265.372 -667.383 265.418 -669.325 265.459ZM-671.341 268.088C-670.841 267.449 -670.347 266.803 -669.856 266.156C-667.944 266.117 -666.037 266.071 -664.132 266.024C-664.688 266.644 -665.254 267.254 -665.819 267.867C-667.657 267.944 -669.495 268.019 -671.341 268.088ZM-673.402 270.672C-672.896 270.052 -672.402 269.423 -671.905 268.794C-670.09 268.728 -668.281 268.658 -666.476 268.582C-667.04 269.187 -667.613 269.786 -668.185 270.384C-669.919 270.486 -671.661 270.578 -673.402 270.672ZM-675.534 273.229C-675.019 272.62 -674.503 272.011 -673.997 271.396C-672.292 271.304 -670.586 271.215 -668.887 271.116C-669.447 271.695 -670.007 272.274 -670.574 272.845C-672.224 272.976 -673.874 273.107 -675.534 273.229ZM-677.69 275.719C-677.176 275.136 -676.66 274.556 -676.154 273.966C-674.543 273.85 -672.94 273.725 -671.338 273.601C-671.903 274.162 -672.463 274.728 -673.036 275.283C-674.582 275.435 -676.136 275.576 -677.69 275.719ZM-679.904 278.189C-679.386 277.626 -678.877 277.056 -678.368 276.486C-676.865 276.349 -675.359 276.214 -673.861 276.07C-674.423 276.607 -674.991 277.139 -675.562 277.67C-677.006 277.845 -678.448 278.023 -679.904 278.189ZM-682.143 280.583C-681.637 280.054 -681.141 279.514 -680.643 278.979C-679.233 278.821 -677.831 278.655 -676.43 278.487C-676.998 279.009 -677.581 279.52 -678.159 280.035C-679.48 280.224 -680.814 280.401 -682.143 280.583ZM-684.472 282.951C-683.964 282.442 -683.455 281.932 -682.954 281.417C-681.672 281.244 -680.391 281.068 -679.115 280.89C-679.665 281.373 -680.219 281.853 -680.776 282.331C-682.006 282.54 -683.234 282.75 -684.472 282.951ZM-686.814 285.242C-686.319 284.767 -685.817 284.298 -685.33 283.818C-684.172 283.633 -683.016 283.446 -681.868 283.254C-682.4 283.702 -682.925 284.156 -683.465 284.599C-684.577 284.817 -685.695 285.029 -686.814 285.242ZM-689.189 287.481C-688.721 287.052 -688.26 286.617 -687.799 286.182C-686.762 285.989 -685.733 285.787 -684.702 285.589C-685.214 286 -685.725 286.414 -686.243 286.822C-687.222 287.044 -688.204 287.264 -689.189 287.481ZM-691.599 289.646C-691.165 289.265 -690.741 288.875 -690.313 288.49C-689.429 288.3 -688.539 288.115 -687.66 287.92C-688.131 288.282 -688.61 288.639 -689.088 288.996C-689.925 289.214 -690.757 289.434 -691.599 289.646ZM-694.033 291.726C-693.655 291.408 -693.276 291.091 -692.903 290.77C-692.164 290.587 -691.432 290.398 -690.7 290.21C-691.133 290.526 -691.581 290.834 -692.018 291.148C-692.684 291.346 -693.364 291.531 -694.033 291.726ZM-696.446 293.713C-696.136 293.464 -695.818 293.222 -695.512 292.972C-694.993 292.825 -694.477 292.675 -693.96 292.527C-694.285 292.751 -694.611 292.975 -694.939 293.197C-695.443 293.368 -695.939 293.545 -696.446 293.713ZM-698.695 295.499C-698.547 295.385 -698.405 295.266 -698.259 295.152C-698.007 295.071 -697.753 294.992 -697.502 294.911C-697.661 295.015 -697.814 295.122 -697.973 295.225L-698.695 295.499ZM406.851 195.896C404.792 195.834 402.734 195.768 400.676 195.712C394.91 193.535 389.251 191.426 383.553 189.291C385.647 189.39 387.742 189.487 389.84 189.594C395.5 191.689 401.126 193.762 406.851 195.896ZM415.385 196.162C413.337 196.094 411.29 196.029 409.244 195.967C403.588 193.857 398.015 191.799 392.419 189.725C394.533 189.836 396.655 189.961 398.773 190.079C404.291 192.095 409.809 194.11 415.385 196.162ZM423.996 196.472C421.948 196.393 419.901 196.322 417.854 196.251C412.35 194.225 406.878 192.218 401.433 190.227C403.541 190.348 405.646 190.467 407.756 190.595C413.129 192.528 418.563 194.5 423.996 196.472ZM432.691 196.825C430.626 196.738 428.561 196.644 426.498 196.563C421.163 194.626 415.798 192.67 410.525 190.771C412.632 190.901 414.74 191.033 416.851 191.171C422.074 193.02 427.403 194.936 432.691 196.825ZM441.443 197.209C439.388 197.114 437.334 197.024 435.281 196.935C430.045 195.062 424.793 193.178 419.622 191.346C421.724 191.487 423.838 191.644 425.945 191.793C431.082 193.58 436.242 195.381 441.443 197.209ZM450.187 197.636C448.172 197.534 446.16 197.438 444.147 197.342C439.006 195.533 433.937 193.77 428.858 192C430.96 192.152 433.061 192.297 435.168 192.456C440.114 194.143 445.177 195.908 450.187 197.636ZM459.091 198.117C457.04 198.002 454.986 197.882 452.936 197.774C448.069 196.093 443.105 194.347 438.295 192.702C440.354 192.861 442.415 193.023 444.477 193.189C449.307 194.805 454.202 196.463 459.091 198.117ZM468.038 198.631C466.004 198.508 463.971 198.391 461.938 198.275C457.178 196.662 452.37 195.016 447.667 193.441C449.728 193.611 451.798 193.795 453.863 193.972C458.564 195.508 463.282 197.056 468.038 198.631ZM477.065 199.192C475.044 199.061 473.025 198.939 471.005 198.815C466.396 197.287 461.782 195.755 457.226 194.263C459.249 194.44 461.266 194.608 463.292 194.792C467.876 196.253 472.431 197.696 477.065 199.192ZM486.196 199.814C484.176 199.674 482.154 199.529 480.135 199.395C475.684 197.953 471.269 196.537 466.868 195.131C468.888 195.318 470.91 195.511 472.933 195.706C477.361 197.079 481.723 198.408 486.196 199.814ZM495.249 200.465C493.293 200.319 491.337 200.175 489.382 200.035C485.087 198.682 480.86 197.376 476.609 196.054C478.617 196.251 480.634 196.464 482.645 196.668C486.846 197.934 491.011 199.173 495.249 200.465ZM504.328 201.158C502.462 201.01 500.599 200.874 498.735 200.732C494.644 199.48 490.648 198.298 486.597 197.075C488.531 197.276 490.461 197.468 492.4 197.675C496.363 198.827 500.328 199.979 504.328 201.158ZM513.541 201.922C511.709 201.767 509.877 201.613 508.046 201.463C504.236 200.337 500.494 199.26 496.711 198.154C498.614 198.362 500.518 198.574 502.425 198.789C506.108 199.817 509.825 200.87 513.541 201.922ZM522.749 202.724C520.98 202.565 519.211 202.401 517.443 202.248C513.934 201.25 510.458 200.277 506.973 199.297C508.828 199.511 510.694 199.742 512.552 199.963C515.924 200.861 519.351 201.803 522.749 202.724ZM531.916 203.558C530.278 203.404 528.644 203.26 527.007 203.11C523.867 202.255 520.733 201.405 517.615 200.567C519.287 200.77 520.958 200.97 522.634 201.177C525.707 201.954 528.821 202.764 531.916 203.558ZM541.186 204.469C539.677 204.317 538.169 204.171 536.66 204.024C533.968 203.329 531.263 202.621 528.586 201.937C530.011 202.12 531.433 202.298 532.859 202.484C535.631 203.142 538.398 203.796 541.186 204.469ZM550.145 205.389C548.896 205.257 547.644 205.121 546.396 204.993C544.276 204.476 542.133 203.94 540.023 203.432C541.094 203.576 542.169 203.725 543.24 203.871C545.543 204.378 547.832 204.871 550.145 205.389ZM558.319 206.255C557.655 206.181 556.992 206.114 556.329 206.042C554.963 205.733 553.582 205.409 552.221 205.104C552.722 205.176 553.228 205.253 553.73 205.323L558.319 206.255ZM-654.76 254.799C-657.065 254.729 -659.372 254.656 -661.68 254.577C-646.934 232.072 -636.088 206.448 -625.041 180.328C-603.552 129.51 -581.276 76.8383 -527.849 41.8777C-449.526 -9.37466 -304.03 -22.6009 4.40924 63.6362C-291.457 -14.8312 -432.268 2.1062 -511.121 54.1006C-561.899 87.5817 -586.925 135.575 -611.126 181.987C-624.512 207.658 -637.652 232.84 -654.76 254.799ZM-646.531 255.046C-648.808 254.983 -651.089 254.91 -653.369 254.841C-636.341 232.896 -623.231 207.775 -609.878 182.166C-585.712 135.822 -560.721 87.8983 -510.106 54.5235C-428.971 1.02423 -281.768 -15.1193 33.8358 72.3634C-270.107 -7.44403 -412.825 12.8231 -494.826 67.3393C-542.359 98.9401 -569.436 142.028 -595.687 183.801C-611.5 208.967 -627.016 233.653 -646.531 255.046ZM-638.346 255.249C-640.594 255.197 -642.841 255.142 -645.092 255.081C-625.684 233.713 -610.216 209.1 -594.453 184.015C-568.237 142.296 -541.196 99.2662 -493.806 67.7602C-409.423 11.6593 -260.306 -7.95218 64.0579 81.2301C-249.864 -0.415527 -394.712 23.9024 -480.401 81.3799C-524.157 110.732 -552.446 148.708 -579.949 185.632C-598.305 210.276 -616.318 234.442 -638.346 255.249ZM-630.198 255.429C-632.42 255.384 -634.644 255.338 -636.869 255.286C-614.973 234.509 -597.027 210.429 -578.74 185.879C-551.269 148.998 -523.015 111.066 -479.38 81.7968C-391.658 22.9544 -241.606 -0.97699 89.8731 88.8045L91.3579 89.2666C-232.44 6.31741 -378.773 35.7701 -468.52 96.5566C-507.772 123.143 -536.176 155.709 -563.881 187.476C-584.906 211.584 -605.533 235.225 -630.198 255.429ZM-622.104 255.587C-624.292 255.548 -626.481 255.502 -628.67 255.459C-604.171 235.292 -583.633 211.756 -562.704 187.759C-535.03 156.028 -506.66 123.497 -467.495 96.9715C-376.717 35.4884 -227.716 6.22757 105.692 93.7244C107.157 94.1839 108.58 94.6171 110.057 95.0826C-220.465 13.0265 -366.414 49.1975 -460.337 113.486C-494.036 136.551 -521.021 163.222 -547.446 189.341C-571.281 212.898 -594.663 236.003 -622.104 255.587ZM-614.049 255.702C-616.196 255.674 -618.344 255.646 -620.495 255.611C-593.263 236.073 -570.004 213.088 -546.298 189.657C-519.899 163.563 -492.94 136.917 -459.308 113.897C-364.647 49.1044 -216.912 12.9775 120.823 98.5051C122.984 99.1919 125.164 99.8884 127.327 100.576C-304.422 -2.74887 -421.743 97.8385 -530.586 191.22C-557.387 214.213 -583.681 236.759 -614.049 255.702ZM-606.021 255.798C-608.133 255.777 -610.245 255.753 -612.358 255.726C-582.246 236.835 -556.112 214.423 -529.479 191.573C-420.066 97.7037 -302.035 -3.44452 137.286 103.751C139.636 104.508 142.038 105.297 144.419 106.074C-269.872 10.9026 -395.925 105.299 -513.247 193.124C-543.187 215.536 -572.558 237.519 -606.021 255.798ZM-598.062 255.869C-600.119 255.853 -602.176 255.834 -604.235 255.814C-571.083 237.592 -541.914 215.765 -512.187 193.512C-394.346 105.298 -267.588 10.4981 152.836 108.814C155.935 109.824 158.99 110.809 162.111 111.833C-235.172 24.5194 -369.782 112.719 -495.363 195.052C-528.645 216.873 -561.3 238.273 -598.062 255.869ZM-590.116 255.907C-592.12 255.902 -594.122 255.896 -596.129 255.884C-559.748 238.351 -527.357 217.118 -494.348 195.475C-368.33 112.856 -233.24 24.2902 168.744 114.032C172.232 115.184 175.763 116.362 179.282 117.535C-200.69 38.128 -343.356 120.167 -476.843 197.007C-513.687 218.217 -549.841 239.022 -590.116 255.907ZM-574.364 255.918C-576.216 255.922 -578.067 255.924 -579.919 255.925C-536.432 239.844 -496.931 219.854 -456.688 199.485C-315.192 127.869 -164.421 51.6466 201.919 125.138C205.908 126.488 209.902 127.841 213.914 129.204C-131.962 65.0189 -289.23 135.022 -437.473 201.021C-482.269 220.965 -526.244 240.538 -574.364 255.918ZM-566.535 255.884C-568.304 255.896 -570.073 255.908 -571.845 255.915C-524.387 240.601 -480.91 221.253 -436.634 201.54C-287.943 135.34 -130.139 65.1171 218.782 130.86C222.998 132.303 227.295 133.796 231.576 135.28C-97.5388 78.3575 -261.35 142.422 -416.343 203.088C-465.611 222.374 -513.996 241.306 -566.535 255.884ZM-558.761 255.835C-560.393 255.849 -562.026 255.856 -563.658 255.867C-511.931 241.353 -464.18 222.663 -415.566 203.634C-260.141 142.799 -95.8639 78.5226 235.769 136.73C240.29 138.295 244.794 139.85 249.359 141.444C-63.1294 91.5483 -232.766 149.804 -393.996 205.204C-448.16 223.815 -501.378 242.098 -558.761 255.835ZM-550.995 255.75C-552.494 255.766 -553.994 255.785 -555.495 255.8C-499.091 242.121 -446.644 224.107 -393.285 205.773C-231.613 150.221 -61.4691 91.7992 253.191 142.791C257.824 144.413 262.498 146.06 267.181 147.711C-28.6939 104.633 -203.35 157.179 -370.183 207.376C-429.726 225.292 -488.278 242.902 -550.995 255.75ZM-543.271 255.65C-544.585 255.67 -545.899 255.692 -547.215 255.709C-485.682 242.907 -428.091 225.582 -369.539 207.964C-202.248 157.629 -27.0901 104.923 270.664 148.937C275.522 150.655 280.435 152.406 285.361 154.166C5.979 117.603 -172.851 164.527 -344.574 209.611C-410.102 226.815 -474.602 243.744 -543.271 255.65ZM-535.589 255.532C-536.642 255.55 -537.696 255.563 -538.749 255.581C-471.553 243.703 -408.269 227.093 -343.995 210.218C-171.807 165.011 7.5351 117.952 288.516 155.295C293.547 157.092 298.562 158.88 303.637 160.705C40.8127 130.386 -141.03 171.857 -316.732 211.92C-388.988 228.396 -460.205 244.632 -535.589 255.532ZM-527.874 255.383L-530.053 255.426C-456.524 244.529 -386.864 228.652 -316.215 212.543C-140.022 172.368 42.3724 130.792 306.582 161.766C311.719 163.618 316.952 165.531 322.167 167.433C76.0552 143.055 -107.515 179.169 -286.061 214.316C-365.948 230.042 -444.832 245.57 -527.874 255.383ZM-520.271 255.222L-520.865 255.237C-440.219 245.384 -363.384 230.263 -285.604 214.953C-106.556 179.706 77.5497 143.488 324.832 168.402C330.164 170.344 335.507 172.293 340.899 174.272C111.8 155.497 -71.7834 186.454 -251.729 216.813C-340.451 231.78 -428.291 246.598 -520.271 255.222ZM-111.317 225.013C-230.822 237.005 -351.201 249.081 -474.926 253.828C-370.049 247.365 -268.256 235.096 -166.396 222.818C10.3875 201.508 187.383 180.182 381.036 189.169C386.789 191.322 392.511 193.455 398.344 195.655C225.506 191.219 57.9696 208.025 -111.317 225.013ZM-543.028 256.329L-540.976 256.297L-541.713 256.401C-542.448 256.428 -543.182 256.456 -543.917 256.481L-543.028 256.329ZM-550.722 256.429C-549.683 256.417 -548.642 256.409 -547.603 256.395C-548.099 256.48 -548.592 256.567 -549.088 256.651L-552.29 256.751L-550.722 256.429ZM-558.436 256.513C-557.125 256.501 -555.816 256.485 -554.507 256.47C-555.206 256.611 -555.91 256.747 -556.609 256.886C-557.888 256.923 -559.168 256.954 -560.448 256.989C-559.777 256.83 -559.105 256.673 -558.436 256.513ZM-566.175 256.563L-561.729 256.537L-564.065 257.084C-565.539 257.124 -567.012 257.166 -568.488 257.201C-567.718 256.987 -566.946 256.776 -566.175 256.563ZM-573.969 256.599C-572.333 256.595 -570.698 256.589 -569.063 256.581C-569.896 256.809 -570.724 257.04 -571.559 257.266C-573.167 257.3 -574.776 257.336 -576.387 257.369C-575.578 257.114 -574.774 256.856 -573.969 256.599ZM-581.791 256.608C-580.027 256.609 -578.266 256.605 -576.506 256.602C-577.383 256.88 -578.267 257.152 -579.148 257.427C-580.857 257.459 -582.57 257.485 -584.28 257.513C-583.45 257.212 -582.618 256.911 -581.791 256.608ZM-589.634 256.591C-587.792 256.596 -585.948 256.608 -584.106 256.611C-584.969 256.924 -585.827 257.241 -586.693 257.552C-588.511 257.582 -590.328 257.612 -592.15 257.636C-591.31 257.29 -590.471 256.94 -589.634 256.591ZM-597.542 256.556C-595.601 256.569 -593.663 256.576 -591.723 256.582C-592.596 256.945 -593.475 257.301 -594.352 257.659C-596.23 257.681 -598.107 257.702 -599.987 257.719C-599.17 257.333 -598.356 256.945 -597.542 256.556ZM-605.45 256.485C-603.456 256.505 -601.461 256.523 -599.469 256.539C-600.314 256.94 -601.157 257.343 -602.006 257.741C-603.953 257.757 -605.904 257.766 -607.852 257.778C-607.05 257.349 -606.246 256.92 -605.45 256.485ZM-613.428 256.393C-611.371 256.419 -609.311 256.447 -607.255 256.47C-608.072 256.913 -608.895 257.349 -609.716 257.787C-611.715 257.799 -613.713 257.809 -615.716 257.814C-614.949 257.343 -614.191 256.866 -613.428 256.393ZM-621.435 256.279C-619.327 256.314 -617.222 256.341 -615.118 256.369C-615.899 256.852 -616.683 257.334 -617.47 257.813C-619.515 257.814 -621.561 257.814 -623.609 257.81C-622.883 257.301 -622.156 256.792 -621.435 256.279ZM-629.477 256.126C-627.332 256.168 -625.188 256.211 -623.046 256.25C-623.782 256.771 -624.519 257.292 -625.259 257.809C-627.345 257.804 -629.436 257.791 -631.525 257.779C-630.84 257.231 -630.156 256.68 -629.477 256.126ZM-637.575 255.951C-635.384 256.003 -633.193 256.051 -631.005 256.095C-631.698 256.658 -632.398 257.214 -633.098 257.769C-635.218 257.758 -637.339 257.744 -639.463 257.724C-638.828 257.137 -638.204 256.542 -637.575 255.951ZM-645.705 255.749C-643.486 255.808 -641.269 255.862 -639.052 255.914C-639.692 256.514 -640.332 257.113 -640.978 257.707C-643.134 257.684 -645.291 257.659 -647.451 257.63C-646.866 257.005 -646.283 256.379 -645.705 255.749ZM-653.883 255.508C-651.639 255.576 -649.392 255.649 -647.149 255.713C-647.733 256.349 -648.319 256.983 -648.91 257.613C-651.093 257.581 -653.282 257.541 -655.468 257.503C-654.936 256.84 -654.406 256.177 -653.883 255.508ZM-662.12 255.245C-659.836 255.323 -657.554 255.395 -655.273 255.466C-655.804 256.142 -656.345 256.809 -656.885 257.479C-659.095 257.44 -661.308 257.399 -663.523 257.351C-663.049 256.652 -662.586 255.949 -662.12 255.245ZM-907.01 232.426C-823.671 245.443 -742.696 252.439 -663.485 255.196C-663.956 255.905 -664.43 256.614 -664.91 257.318C-742.632 255.593 -822.832 249.225 -906.64 236.135L-907.01 236.787C-823.229 249.872 -743.06 256.251 -665.373 257.99C-665.85 258.687 -666.324 259.385 -666.811 260.074C-742.987 259.389 -822.371 253.659 -906.64 240.497L-907.01 241.149C-822.781 254.305 -743.435 260.046 -667.3 260.752C-667.788 261.437 -668.281 262.119 -668.777 262.797C-743.373 263.169 -821.911 258.093 -906.64 244.858L-907.01 245.51C-822.325 258.737 -743.826 263.83 -669.272 263.484C-669.77 264.159 -670.282 264.825 -670.79 265.492C-743.77 266.944 -821.446 262.526 -906.64 249.219L-907.01 249.87C-821.877 263.167 -744.249 267.607 -671.318 266.191C-671.819 266.844 -672.326 267.492 -672.836 268.139C-744.175 270.692 -820.964 266.962 -906.64 253.579L-907.01 254.231C-821.412 267.601 -744.683 271.357 -673.399 268.845C-673.907 269.484 -674.415 270.124 -674.933 270.756C-744.594 274.433 -820.474 271.4 -906.64 257.941L-907.01 258.593C-820.948 272.035 -745.136 275.103 -675.54 271.48C-676.055 272.1 -676.571 272.721 -677.095 273.334C-745.041 278.155 -819.985 275.837 -906.64 262.302L-907.01 262.953C-820.474 276.47 -745.606 278.83 -677.726 274.072C-678.249 274.677 -678.783 275.272 -679.315 275.87C-745.507 281.861 -819.487 280.275 -906.64 266.662L-907.01 267.314C-820.007 280.903 -746.112 282.543 -679.992 276.636C-680.518 277.219 -681.055 277.795 -681.591 278.371C-745.992 285.555 -818.982 284.716 -906.64 271.024L-907.01 271.676C-819.541 285.338 -746.651 286.241 -682.329 279.162C-682.852 279.719 -683.378 280.276 -683.912 280.827C-746.488 289.227 -818.464 289.158 -906.64 275.385L-907.01 276.037C-819.081 289.771 -747.22 289.93 -684.737 281.661C-685.255 282.187 -685.766 282.717 -686.292 283.236C-747.001 292.882 -817.936 293.601 -906.64 279.746L-907.01 280.397C-818.607 294.206 -747.81 293.592 -687.197 284.11C-687.718 284.616 -688.245 285.119 -688.775 285.619C-747.568 296.525 -817.425 298.042 -906.64 284.107L-907.01 284.758C-818.152 298.638 -748.447 297.251 -689.749 286.543C-690.256 287.013 -690.779 287.47 -691.294 287.934C-748.137 300.138 -816.884 302.488 -906.641 288.469L-907.011 289.12C-817.717 303.067 -749.15 300.889 -692.414 288.942C-692.901 289.371 -693.396 289.796 -693.89 290.221C-748.736 303.742 -816.346 306.933 -906.641 292.829L-907.011 293.48C-817.304 307.492 -749.919 304.511 -695.186 291.318C-695.632 291.691 -696.068 292.071 -696.52 292.441C-749.331 307.318 -815.778 311.381 -906.641 297.189L-907.011 297.841C-816.948 311.909 -750.781 308.137 -698.103 293.699C-698.491 294.006 -698.874 294.317 -699.264 294.622C-749.989 310.875 -815.225 315.83 -906.641 301.552L-907.011 302.203C-816.652 316.317 -751.761 311.751 -701.181 296.081C-701.493 296.316 -701.808 296.549 -702.123 296.782C-750.707 314.423 -814.698 320.274 -906.641 305.913L-907.011 306.564C-816.463 320.706 -752.917 315.362 -704.481 298.493C-704.648 298.613 -704.82 298.729 -704.988 298.848C-751.395 317.933 -814.109 324.726 -906.641 310.273L-907.011 310.924C-817.149 324.96 -755.275 319.091 -709.141 301.421C-753.23 321.56 -814.36 329.047 -906.641 314.633L-907.011 315.285C-819.044 329.025 -759.231 323.011 -715.495 305.141C-757.169 325.489 -816.249 333.114 -906.642 318.996L-907.012 319.647C-821.004 333.081 -763.201 326.969 -721.736 308.997C-761.129 329.455 -818.207 337.169 -906.642 323.356L-907.012 324.008C-809.446 339.246 -749.803 328.509 -709.99 303.392C-707.706 302.188 -705.491 300.934 -703.312 299.654C-700.938 298.484 -698.601 297.288 -696.327 296.045C-693.886 294.925 -691.501 293.762 -689.152 292.572C-686.556 291.467 -683.997 290.332 -681.488 289.157C-678.843 288.113 -676.241 287.036 -673.675 285.929C-670.843 284.899 -668.053 283.835 -665.3 282.741C-662.421 281.777 -659.573 280.789 -656.765 279.768C-653.693 278.828 -650.665 277.851 -647.661 276.854C-644.448 275.956 -641.261 275.034 -638.11 274.083C-634.869 273.262 -631.653 272.417 -628.464 271.547C-625.007 270.759 -621.583 269.939 -618.177 269.102C-614.528 268.359 -610.905 267.59 -607.303 266.799C-603.535 266.117 -599.782 265.417 -596.055 264.691C-592.193 264.076 -588.344 263.446 -584.519 262.792C-580.484 262.236 -576.465 261.664 -572.462 261.07C-568.267 260.578 -564.084 260.069 -559.917 259.541C-555.544 259.113 -551.182 258.671 -546.835 258.21C-542.436 257.862 -538.049 257.495 -533.671 257.117C-528.935 256.827 -524.21 256.518 -519.493 256.198C-514.675 255.983 -509.864 255.754 -505.059 255.512C-370.615 251.718 -240.333 238.649 -111.075 225.678C58.772 208.636 226.854 191.77 400.267 196.384C496.637 232.775 602.591 275.07 719.194 323.947L720.001 323.417C604.034 274.808 498.601 232.716 402.626 196.453C404.692 196.511 406.758 196.573 408.826 196.637C502.706 231.667 605.797 272.415 719.194 319.587L720.001 319.056C607.254 272.154 504.694 231.609 411.219 196.708C413.289 196.774 415.361 196.847 417.433 196.919C508.811 230.579 609.028 269.773 719.197 315.227L719.998 314.692C610.513 269.52 510.85 230.533 419.901 197.008C421.961 197.082 424.019 197.149 426.08 197.23C514.948 229.51 612.283 267.145 719.199 310.866L719.995 310.331C613.798 266.905 517.038 229.479 428.627 197.337C430.704 197.421 432.784 197.511 434.863 197.601C521.181 228.486 615.605 264.551 719.201 306.506L719.993 305.969C617.135 264.312 523.299 228.456 437.454 197.71C439.542 197.804 441.631 197.906 443.721 198.005C527.464 227.482 618.975 261.981 719.204 302.147L719.991 301.608C620.548 261.756 529.654 227.466 446.423 198.137C448.446 198.237 450.467 198.33 452.491 198.435C533.719 226.512 622.264 259.383 719.206 297.786L719.989 297.243C623.858 259.163 535.982 226.521 455.289 198.591C457.357 198.702 459.426 198.817 461.495 198.935C540.121 225.584 625.69 256.848 719.209 293.427L719.986 292.882C627.297 256.626 542.416 225.595 464.341 199.093C466.413 199.214 468.488 199.346 470.562 199.474C546.576 224.684 629.151 254.33 719.213 289.068L719.98 288.52C630.793 254.119 548.953 224.718 473.53 199.658C475.583 199.788 477.634 199.915 479.689 200.051C553.075 223.812 632.64 251.828 719.216 284.707L719.978 284.157C634.329 251.63 555.553 223.872 482.802 200.267C484.85 200.406 486.898 200.546 488.946 200.692C559.676 222.989 636.188 249.358 719.222 280.349L719.973 279.795C637.896 249.162 562.208 223.058 492.145 200.917C494.197 201.067 496.253 201.231 498.307 201.387C566.355 222.207 639.783 246.911 719.226 275.989L719.967 275.433C641.542 246.73 569.001 222.303 501.675 201.645C503.652 201.799 505.63 201.956 507.61 202.117C573.015 221.461 643.341 244.461 719.231 271.631L719.964 271.07C645.247 244.321 575.896 221.591 511.337 202.428C513.229 202.586 515.119 202.738 517.013 202.901C579.754 220.753 646.95 242.038 719.239 267.271L719.955 266.705C648.949 241.919 582.824 220.922 521.028 203.258C522.88 203.423 524.733 203.592 526.587 203.763C586.617 220.105 650.638 239.652 719.244 262.913L719.95 262.343C652.707 239.545 589.85 220.3 530.843 204.149C532.638 204.318 534.437 204.501 536.233 204.675C593.542 219.494 654.369 237.291 719.255 258.556L719.94 257.979C656.591 237.218 597.102 219.754 540.976 205.14C542.644 205.307 544.311 205.472 545.981 205.643C600.545 218.924 658.151 234.958 719.264 254.197L719.93 253.614C660.585 234.933 604.546 219.272 551.38 206.213C552.892 206.373 554.404 206.529 555.916 206.693C607.689 218.416 662.017 232.667 719.274 249.84L719.919 249.25C664.735 232.699 612.282 218.874 562.2 207.391C563.492 207.536 564.784 207.682 566.077 207.83C615.003 217.978 665.98 230.416 719.289 245.483L719.904 244.885C669.152 230.541 620.53 218.597 573.76 208.721C574.516 208.811 575.272 208.905 576.028 208.996C622.195 217.565 669.873 228.161 719.307 241.127L719.885 240.521C674.527 228.624 630.65 218.725 588.056 210.546C630.817 217.466 674.52 226.107 719.33 236.772L719.862 236.152C681.446 227.009 643.842 219.354 606.948 212.988C644.047 218.115 681.495 224.524 719.358 232.416L719.835 231.787C674.823 222.402 630.397 215.105 586.452 209.574C579.277 208.42 572.123 207.306 564.999 206.248C557.395 204.886 549.848 203.597 542.323 202.34C534.528 200.825 526.775 199.357 519.083 197.956C510.914 196.254 502.796 194.602 494.762 193.032C486.517 191.225 478.366 189.503 470.263 187.823C462.018 185.938 453.841 184.111 445.743 182.35C437.07 180.286 428.471 178.282 419.977 176.36C410.971 174.147 402.092 172.032 393.289 169.974C384.737 167.82 376.278 165.732 367.911 163.716C359.374 161.51 350.916 159.364 342.566 157.295C332.407 154.602 322.434 152.039 312.563 149.547C303.724 147.173 294.991 144.872 286.369 142.647C277.633 140.26 269.004 137.944 260.478 135.697C250.339 132.879 240.324 130.143 230.468 127.512C221.031 124.855 211.72 122.279 202.546 119.793C193.009 117.074 183.594 114.435 174.332 111.892C164.602 109.087 154.992 106.358 145.548 103.735C136.074 100.979 126.71 98.2931 117.503 95.7051C108.194 92.972 99.0012 90.3105 89.9501 87.7375C80.6105 84.966 71.4208 82.2867 62.3475 79.6792C-286.584 -24.864 -445.493 -13.1005 -528.863 41.4557C-582.48 76.5407 -604.788 129.291 -626.31 180.183C-637.376 206.35 -648.241 232.017 -663.05 254.528C-742.288 251.784 -823.287 244.795 -906.644 231.775L-907.01 232.426Z" fill="#D4EBFC"/>
</svg>
