<svg width="49" height="49" viewBox="0 0 49 49" fill="none" xmlns="http://www.w3.org/2000/svg">
<rect x="0.306641" y="0.5" width="48" height="48" rx="4" fill="#ECF7FF"/>
<path d="M17.5059 16.9129H24.1947C24.4402 16.9129 24.6387 16.714 24.6387 16.4682C24.6387 16.2227 24.4398 16.0234 24.1947 16.0234H17.5059C17.2604 16.0234 17.0615 16.2227 17.0615 16.4682C17.0615 16.714 17.2604 16.9129 17.5059 16.9129Z" fill="#0078D4"/>
<path d="M15.9415 20.9211H28.9953C29.2408 20.9211 29.4394 20.7218 29.4394 20.4763C29.4394 20.2305 29.2404 20.0312 28.9953 20.0312H15.9415C15.696 20.0312 15.4971 20.2305 15.4971 20.4763C15.4971 20.7218 15.696 20.9211 15.9415 20.9211Z" fill="#0078D4"/>
<path d="M15.9411 24.9302H23.5859C23.8314 24.9302 24.03 24.7312 24.03 24.4858C24.03 24.2403 23.831 24.041 23.5859 24.041H15.9411C15.6957 24.041 15.4971 24.2403 15.4971 24.4858C15.4971 24.7312 15.6957 24.9302 15.9411 24.9302Z" fill="#0078D4"/>
<mask id="mask0_3641_24172" style="mask-type:luminance" maskUnits="userSpaceOnUse" x="12" y="10" width="25" height="29">
<path d="M12.3066 10.7051H36.3066V38.2956H12.3066V10.7051Z" fill="white"/>
</mask>
<g mask="url(#mask0_3641_24172)">
<path d="M36.1754 23.3283C36.035 22.5655 35.6062 21.9029 34.9679 21.4628C34.3296 21.0228 33.5575 20.8578 32.7964 20.9985C32.7375 21.0094 32.68 21.0254 32.6231 21.0394V16.4559C32.6231 16.3382 32.5759 16.2251 32.4927 16.1413L27.1848 10.8283C27.1638 10.8077 27.1415 10.7891 27.1169 10.7728C27.1109 10.7685 27.1046 10.7661 27.0983 10.7621C27.0797 10.7512 27.061 10.7402 27.0404 10.7315C27.0314 10.7275 27.0215 10.7259 27.0121 10.7229C26.9942 10.7166 26.9766 10.7099 26.9576 10.7059C26.9287 10.6999 26.8994 10.6973 26.8698 10.6973H12.7595C12.514 10.6973 12.3154 10.8962 12.3154 11.142V37.8291C12.3154 38.0752 12.514 38.2741 12.7595 38.2741H32.1787C32.4242 38.2741 32.6231 38.0752 32.6231 37.8291V35.4796L33.6337 34.0107C34.3731 32.9363 34.1017 31.4593 33.0283 30.7189L31.9592 29.9824C33.1949 27.4324 33.7794 27.0941 34.3455 26.7675C34.7311 26.5446 35.1682 26.2921 35.7117 25.5021C36.1511 24.8638 36.3158 24.0917 36.1754 23.3283ZM13.2039 37.3847V11.5867H26.426V16.4559C26.426 16.7018 26.625 16.901 26.8704 16.901H29.5106C29.7561 16.901 29.9547 16.7018 29.9547 16.4559C29.9547 16.2104 29.7561 16.0112 29.5106 16.0112H27.3145V12.2158L31.7346 16.6402V21.4226C31.4226 21.6265 31.1505 21.8909 30.933 22.2073C30.3891 22.9973 30.3099 23.4959 30.2391 23.9357C30.136 24.5813 30.0242 25.2516 28.0876 27.3127L27.0195 26.5759C26.625 26.3044 26.1626 26.1604 25.6829 26.1604C24.9012 26.1604 24.1717 26.5429 23.731 27.1833L22.6416 28.7656C22.5747 28.8624 22.5494 28.9825 22.5707 29.0986C22.592 29.215 22.6585 29.3171 22.7557 29.3847L31.7343 35.5754V37.3847H13.2039ZM32.9019 33.5064L32.0646 34.7229L23.6259 28.9033L24.4631 27.6869C24.7379 27.288 25.1936 27.0499 25.6832 27.0499C25.982 27.0499 26.27 27.1397 26.5155 27.3087L32.524 31.4517C33.1939 31.9137 33.3636 32.8351 32.9019 33.5064ZM34.9795 24.9981C34.5498 25.6225 34.2494 25.7958 33.9011 25.9967C33.2295 26.3846 32.5366 26.7854 31.219 29.4725L28.8277 27.8239C30.8661 25.6335 30.9938 24.8425 31.1159 24.0764C31.1798 23.6792 31.2343 23.3363 31.6645 22.7119C31.9692 22.2692 32.4282 21.9708 32.9571 21.8733C33.486 21.7762 34.0209 21.8906 34.4636 22.1956C34.9064 22.501 35.2037 22.9607 35.3012 23.4899C35.399 24.0188 35.2849 24.5544 34.9795 24.9981Z" fill="#0078D4"/>
</g>
<path d="M25.4456 28.79C25.3066 28.9923 25.3572 29.2687 25.5594 29.4084L30.9036 33.0937C30.9808 33.1473 31.0686 33.1726 31.1554 33.1726C31.2968 33.1726 31.4355 33.1054 31.5217 32.98C31.661 32.778 31.6101 32.501 31.4082 32.3612L26.0637 28.6763C25.8611 28.5369 25.585 28.5878 25.4456 28.79Z" fill="#0078D4"/>
<path d="M18.2643 28.1797C16.0096 28.1797 14.1748 30.0155 14.1748 32.2732C14.1748 34.5298 16.0093 36.3666 18.2643 36.3666C20.5196 36.3666 22.3538 34.5301 22.3538 32.2732C22.3538 30.0155 20.5196 28.1797 18.2643 28.1797ZM18.2643 35.4768C16.4996 35.4768 15.0636 34.0388 15.0636 32.2728C15.0636 30.5058 16.4996 29.0685 18.2643 29.0685C20.0293 29.0685 21.465 30.5058 21.465 32.2728C21.465 34.0388 20.0296 35.4768 18.2643 35.4768Z" fill="#0078D4"/>
<path d="M20.279 30.1216C20.0654 29.9992 19.7943 30.073 19.6723 30.2869L17.902 33.3748L16.7434 32.4737C16.5494 32.3223 16.2707 32.3573 16.12 32.5512C15.9693 32.7455 16.0042 33.0249 16.1978 33.1756L17.7599 34.392C17.8384 34.4532 17.9349 34.4855 18.0327 34.4855C18.0616 34.4855 18.0899 34.4825 18.1185 34.4769C18.2449 34.4519 18.354 34.3737 18.4179 34.262L20.443 30.729C20.5651 30.5158 20.4916 30.2437 20.279 30.1216Z" fill="#0078D4"/>
</svg>
