<svg width="49" height="49" viewBox="0 0 49 49" fill="none" xmlns="http://www.w3.org/2000/svg">
<path d="M0.306641 4.5C0.306641 2.29086 2.0975 0.5 4.30664 0.5H44.3066C46.5158 0.5 48.3066 2.29086 48.3066 4.5V48.5H4.30664C2.0975 48.5 0.306641 46.7091 0.306641 44.5V4.5Z" fill="#ECF7FF"/>
<mask id="mask0_3641_24147" style="mask-type:luminance" maskUnits="userSpaceOnUse" x="12" y="11" width="25" height="27">
<path d="M12.3066 11.9785H36.3066V37.022H12.3066V11.9785Z" fill="white"/>
</mask>
<g mask="url(#mask0_3641_24147)">
<path d="M15.7362 19.0202V21.5733C15.7362 21.7454 15.876 21.8852 16.0478 21.8852H18.6C18.7718 21.8852 18.9116 21.7454 18.9116 21.5733V19.0202C18.9116 18.8481 18.7718 18.7086 18.6 18.7086H16.0478C15.876 18.7086 15.7362 18.8481 15.7362 19.0202ZM16.3594 19.3321H18.2881V21.2617H16.3594V19.3321ZM20.0339 19.4628C20.0339 19.291 20.1734 19.1512 20.3455 19.1512H24.9937C25.1655 19.1512 25.3053 19.291 25.3053 19.4628C25.3053 19.6349 25.1655 19.7747 24.9937 19.7747H20.3455C20.1734 19.7747 20.0339 19.6352 20.0339 19.4628ZM20.0339 21.1307C20.0339 20.9586 20.1734 20.8191 20.3455 20.8191H26.2884C26.4602 20.8191 26.6 20.9586 26.6 21.1307C26.6 21.3028 26.4602 21.4426 26.2884 21.4426H20.3455C20.1734 21.4426 20.0339 21.3028 20.0339 21.1307ZM18.6 23.7427H16.0478C15.876 23.7427 15.7362 23.8825 15.7362 24.0543V26.6074C15.7362 26.7795 15.876 26.9193 16.0478 26.9193H18.6C18.7718 26.9193 18.9116 26.7795 18.9116 26.6074V24.0543C18.9116 23.8825 18.7724 23.7427 18.6 23.7427ZM18.2881 26.2958H16.3594V24.3662H18.2881V26.2958ZM20.0339 24.4969C20.0339 24.3251 20.1734 24.1853 20.3455 24.1853H24.9937C25.1655 24.1853 25.3053 24.3251 25.3053 24.4969C25.3053 24.669 25.1655 24.8088 24.9937 24.8088H20.3455C20.1734 24.8088 20.0339 24.6696 20.0339 24.4969ZM20.0339 26.1648C20.0339 25.993 20.1734 25.8532 20.3455 25.8532H23.889C24.0611 25.8532 24.2006 25.993 24.2006 26.1648C24.2006 26.3369 24.0611 26.4767 23.889 26.4767H20.3455C20.1734 26.4767 20.0339 26.3369 20.0339 26.1648ZM18.6 28.7768H16.0478C15.876 28.7768 15.7362 28.9166 15.7362 29.0884V31.6416C15.7362 31.8137 15.876 31.9535 16.0478 31.9535H18.6C18.7718 31.9535 18.9116 31.8137 18.9116 31.6416V29.0884C18.9116 28.9166 18.7724 28.7768 18.6 28.7768ZM18.2881 31.3306H16.3594V29.4006H18.2881V31.3306ZM20.0339 29.5311C20.0339 29.3593 20.1734 29.2195 20.3455 29.2195H23.5333C23.7051 29.2195 23.8449 29.3593 23.8449 29.5311C23.8449 29.7032 23.7051 29.8429 23.5333 29.8429H20.3455C20.1734 29.8429 20.0339 29.7038 20.0339 29.5311ZM20.0339 31.1989C20.0339 31.0271 20.1734 30.8873 20.3455 30.8873H24.222C24.3938 30.8873 24.5336 31.0271 24.5336 31.1989C24.5336 31.371 24.3938 31.5108 24.222 31.5108H20.3455C20.1734 31.5108 20.0339 31.371 20.0339 31.1989ZM36.1281 27.4652L34.084 25.9867V24.1926C34.084 24.0205 33.9442 23.8807 33.7724 23.8807H32.4762C32.3041 23.8807 32.1646 24.0205 32.1646 24.1926V24.5978L30.023 23.0489V15.1243C30.023 14.4465 29.4717 13.894 28.7938 13.894H25.1438V13.5996C25.1438 13.4275 25.004 13.2877 24.8322 13.2877H22.6664C22.5668 12.5495 21.9327 11.9785 21.1679 11.9785C20.4035 11.9785 19.7694 12.5495 19.6704 13.2883H17.5046C17.3325 13.2883 17.193 13.4281 17.193 13.5999V13.8946H13.5429C12.8651 13.8946 12.3135 14.4465 12.3135 15.125V35.7925C12.3135 36.4707 12.8651 37.0223 13.5429 37.0223H28.7932C29.4711 37.0223 30.0227 36.4707 30.0227 35.7925V33.8348H34.1842C34.356 33.8348 34.4958 33.695 34.4958 33.5232V28.4713L35.091 28.9015C35.1447 28.9399 35.2084 28.9607 35.2739 28.9607C35.2905 28.9607 35.3071 28.9592 35.3231 28.9565C35.4047 28.9435 35.478 28.8982 35.5263 28.8312L36.1984 27.9012C36.299 27.7611 36.2679 27.5661 36.1281 27.4652ZM32.7878 24.5042H33.4608V25.5356L32.7878 25.0489V24.5042ZM28.7932 14.5175C29.1278 14.5175 29.3995 14.7898 29.3995 15.1243V23.0489L28.5903 23.6346V15.8602C28.5903 15.6881 28.4506 15.5483 28.2788 15.5483H25.1432V14.5175H28.7932ZM17.8162 13.9118H19.9684C20.1402 13.9118 20.28 13.772 20.28 13.5999V13.4909C20.28 13.0009 20.6782 12.6023 21.1679 12.6023C21.658 12.6023 22.0562 13.0009 22.0562 13.4909V13.5999C22.0562 13.772 22.196 13.9118 22.3678 13.9118H24.52V16.1168H17.8162V13.9118ZM24.8316 16.7397C25.0037 16.7397 25.1432 16.5999 25.1432 16.4281V16.1718H27.9672V24.0851L23.2945 27.4652C23.1547 27.5661 23.1236 27.7611 23.2241 27.9006L23.8962 28.8309C23.9445 28.8979 24.0179 28.9429 24.0994 28.9559C24.1809 28.9689 24.2646 28.9492 24.3316 28.9009L24.9267 28.4707V33.5226C24.9267 33.6944 25.0665 33.8342 25.2383 33.8342H27.9672V34.4906H14.369V16.1718H17.193V16.4281C17.193 16.5999 17.3325 16.7397 17.5046 16.7397H24.8316ZM29.3995 35.7919C29.3995 36.1268 29.1272 36.3985 28.7932 36.3985H13.5429C13.2084 36.3985 12.9367 36.1262 12.9367 35.7919V15.1243C12.9367 14.7898 13.209 14.5175 13.5429 14.5175H17.193V15.5483H14.0574C13.8856 15.5483 13.7458 15.6881 13.7458 15.8602V34.8019C13.7458 34.9737 13.8856 35.1135 14.0574 35.1135H28.2788C28.4506 35.1135 28.5903 34.9737 28.5903 34.8019V33.8339H29.3995V35.7919ZM32.6652 33.2104H30.5629V29.5519H32.6652V33.2104ZM33.8727 33.2104H33.2884V29.2403C33.2884 29.0682 33.1486 28.9284 32.9768 28.9284H30.2513C30.0792 28.9284 29.9397 29.0682 29.9397 29.2403V33.2104H25.5499V28.0193L29.7114 25.0087L33.8733 28.0193V33.2104H33.8727ZM35.2039 28.2125L29.8938 24.3719C29.8394 24.3324 29.7754 24.3125 29.7111 24.3125C29.6465 24.3125 29.5828 24.3324 29.5282 24.3719L24.2184 28.2125L23.9113 27.7874L29.7111 23.5923L35.5106 27.7874L35.2039 28.2125ZM28.85 28.9284H26.3041C26.132 28.9284 25.9925 29.0682 25.9925 29.2403V31.8221C25.9925 31.9939 26.132 32.1337 26.3041 32.1337H28.85C29.0218 32.1337 29.1616 31.9939 29.1616 31.8221V29.2403C29.1616 29.0682 29.0218 28.9284 28.85 28.9284ZM28.5384 31.5108H26.6157V29.5525H28.5384V31.5108Z" fill="#0078D4"/>
</g>
</svg>
