<svg width="73" height="73" viewBox="0 0 73 73" fill="none" xmlns="http://www.w3.org/2000/svg">
<g id="streamline:insurance-hand-solid">
<rect width="72" height="72" transform="translate(0.5 0.5)" fill="#FFF7D9"/>
<g id="Group 287">
<path id="Vector" fill-rule="evenodd" clip-rule="evenodd" d="M22.2476 30.5H15.9287V44.2143L22.1961 50.4817C23.4697 51.7557 24.9819 52.7663 26.6461 53.4558C28.3104 54.1452 30.0942 54.5001 31.8956 54.5H51.9287C53.2927 54.5 54.6008 53.9582 55.5653 52.9937C56.5297 52.0292 57.0716 50.7211 57.0716 49.3571C57.0716 47.9932 56.5297 46.6851 55.5653 45.7206C54.6008 44.7561 53.2927 44.2143 51.9287 44.2143H42.4076C42.0511 45.4162 41.3885 46.5049 40.4845 47.3736C39.5806 48.2422 38.4664 48.8611 37.2513 49.1695C36.0361 49.4778 34.7617 49.4651 33.5529 49.1326C32.3442 48.8001 31.2426 48.1591 30.3561 47.2726L25.3847 42.3011C25.1857 42.1021 25.0278 41.8659 24.9201 41.6059C24.8124 41.3458 24.757 41.0672 24.757 40.7857C24.757 40.5043 24.8124 40.2256 24.9201 39.9656C25.0278 39.7056 25.1857 39.4693 25.3847 39.2703C25.5837 39.0713 25.82 38.9134 26.08 38.8057C26.34 38.698 26.6187 38.6426 26.9001 38.6426C27.1816 38.6426 27.4603 38.698 27.7203 38.8057C27.9803 38.9134 28.2166 39.0713 28.4156 39.2703L33.387 44.2417C33.9107 44.7642 34.6116 45.0708 35.3508 45.1006C36.0899 45.1305 36.8133 44.8814 37.3773 44.4028C37.9414 43.9241 38.305 43.251 38.3959 42.5168C38.4868 41.7827 38.2984 41.0412 37.8681 40.4394L31.947 34.5183C30.6734 33.2443 29.1613 32.2337 27.497 31.5442C25.8328 30.8548 24.049 30.4999 22.2476 30.5Z" fill="#FFD21C"/>
<path id="Vector_2" d="M47.9253 31.415C47.4243 31.415 46.9968 31.2369 46.6428 30.8806C46.2888 30.5244 46.1118 30.0958 46.1118 29.5948C46.1118 29.0938 46.29 28.6663 46.6462 28.3123C47.0025 27.9583 47.4315 27.7812 47.9332 27.7812C48.435 27.7812 48.8625 27.9598 49.2157 28.3167C49.569 28.6737 49.746 29.1024 49.7467 29.6026C49.7475 30.1029 49.569 30.5304 49.2112 30.8851C48.8535 31.2399 48.4248 31.4169 47.9253 31.4161M43.8506 22.7188H52.0068L54.1061 18.5H41.7525L43.8506 22.7188ZM44.1386 36.5H51.7188C53.1663 36.5 54.3963 35.9934 55.4088 34.9801C56.4221 33.9669 56.9287 32.7346 56.9287 31.2834C56.9287 30.6774 56.8248 30.0871 56.6171 29.5126C56.4093 28.9381 56.1093 28.415 55.7171 27.9432L52.2948 23.8438H43.5626L40.1403 27.9432C39.7481 28.415 39.4481 28.9381 39.2403 29.5126C39.0326 30.0864 38.9287 30.6766 38.9287 31.2834C38.9287 32.7346 39.4353 33.9669 40.4486 34.9801C41.4618 35.9934 42.6918 36.5 44.1386 36.5Z" fill="#FFD21C"/>
</g>
</g>
</svg>
