<svg width="20" height="20" viewBox="0 0 20 20" fill="none" xmlns="http://www.w3.org/2000/svg">
<g id="iconamoon:profile-light">
<g id="Group">
<path id="Vector" d="M3.3335 15.0013C3.3335 14.1172 3.68469 13.2694 4.30981 12.6443C4.93493 12.0192 5.78277 11.668 6.66683 11.668H13.3335C14.2176 11.668 15.0654 12.0192 15.6905 12.6443C16.3156 13.2694 16.6668 14.1172 16.6668 15.0013C16.6668 15.4433 16.4912 15.8673 16.1787 16.1798C15.8661 16.4924 15.4422 16.668 15.0002 16.668H5.00016C4.55814 16.668 4.13421 16.4924 3.82165 16.1798C3.50909 15.8673 3.3335 15.4433 3.3335 15.0013Z" stroke="#1877F2" stroke-width="1.5" stroke-linejoin="round"/>
<path id="Vector_2" d="M10 8.33398C11.3807 8.33398 12.5 7.2147 12.5 5.83398C12.5 4.45327 11.3807 3.33398 10 3.33398C8.61929 3.33398 7.5 4.45327 7.5 5.83398C7.5 7.2147 8.61929 8.33398 10 8.33398Z" stroke="#1877F2" stroke-width="1.5"/>
</g>
</g>
</svg>
