<svg width="708" height="617" viewBox="0 0 708 617" fill="none" xmlns="http://www.w3.org/2000/svg">
<path d="M28.1085 644.973C17.8941 670.57 12.9368 697.707 9.87979 725.204C5.06237 731.294 0.872241 737.705 0.879066 743.468C0.887258 750.386 2.66147 766.088 6.95535 771.284C13.692 779.436 23.0471 784.343 32.509 788.581C67.3925 804.203 97.8612 823.35 130.025 844.944C140.07 851.688 158.28 867.735 171.146 867.72C177.153 867.713 183.339 867.203 189.277 868.365C254.68 881.163 321.544 882.201 387.818 882.457C458.404 882.73 529.079 883.134 599.635 880.707C670.868 878.257 739.769 877.771 809.617 860.466C860.007 847.982 913.255 834.656 947.925 789.162C1005.67 713.387 1028 610.169 1028.58 513.171C1029.31 391.651 1009.86 266.576 965.606 154.715C934.681 76.5532 872.882 2.78281 789.864 0.314505C751.455 -0.82748 710.272 30.602 686.293 61.7473C670.271 82.5583 669.206 116.467 661.308 141.413C646.795 187.248 628.98 232.936 594.675 264.946C564.439 293.158 522.306 300.612 493.225 331.208C465.463 360.416 444.055 395.698 415.981 424.597C363.567 478.552 307.375 512.414 237.981 532.267C197.797 543.764 157.326 550.257 116.693 558.901L115.671 559.118C95.6962 563.364 75.4155 567.674 59.6116 582.959C44.4935 597.581 35.9511 625.32 28.1085 644.973Z" fill="#1877F2" fill-opacity="0.8"/>
</svg>
