<svg width="30" height="30" viewBox="0 0 30 30" fill="none" xmlns="http://www.w3.org/2000/svg">
<path d="M23.208 15.0003H12.2448M8.37503 15.0003H6.79199M8.37503 15.0003C8.37503 14.4872 8.57883 13.9952 8.94161 13.6324C9.30438 13.2697 9.79641 13.0659 10.3095 13.0659C10.8225 13.0659 11.3145 13.2697 11.6773 13.6324C12.0401 13.9952 12.2439 14.4872 12.2439 15.0003C12.2439 15.5133 12.0401 16.0054 11.6773 16.3681C11.3145 16.7309 10.8225 16.9347 10.3095 16.9347C9.79641 16.9347 9.30438 16.7309 8.94161 16.3681C8.57883 16.0054 8.37503 15.5133 8.37503 15.0003ZM23.208 20.863H18.1075M18.1075 20.863C18.1075 21.3762 17.9032 21.8688 17.5404 22.2316C17.1775 22.5945 16.6854 22.7983 16.1722 22.7983C15.6591 22.7983 15.1671 22.5936 14.8043 22.2309C14.4416 21.8681 14.2378 21.3761 14.2378 20.863M18.1075 20.863C18.1075 20.3499 17.9032 19.8582 17.5404 19.4953C17.1775 19.1324 16.6854 18.9286 16.1722 18.9286C15.6591 18.9286 15.1671 19.1324 14.8043 19.4952C14.4416 19.858 14.2378 20.35 14.2378 20.863M14.2378 20.863H6.79199M23.208 9.13755H20.4528M16.583 9.13755H6.79199M16.583 9.13755C16.583 8.62451 16.7868 8.13248 17.1496 7.76971C17.5124 7.40693 18.0044 7.20313 18.5175 7.20312C18.7715 7.20312 19.023 7.25316 19.2577 7.35037C19.4924 7.44759 19.7057 7.59008 19.8853 7.76971C20.0649 7.94933 20.2074 8.16258 20.3046 8.39728C20.4019 8.63197 20.4519 8.88352 20.4519 9.13755C20.4519 9.39159 20.4019 9.64313 20.3046 9.87783C20.2074 10.1125 20.0649 10.3258 19.8853 10.5054C19.7057 10.685 19.4924 10.8275 19.2577 10.9247C19.023 11.0219 18.7715 11.072 18.5175 11.072C18.0044 11.072 17.5124 10.8682 17.1496 10.5054C16.7868 10.1426 16.583 9.65059 16.583 9.13755Z" stroke="#5F7284" stroke-width="1.5" stroke-miterlimit="10" stroke-linecap="round"/>
</svg>
