<svg width="20" height="21" viewBox="0 0 20 21" fill="none" xmlns="http://www.w3.org/2000/svg">
<g id="mage:dashboard-plus">
<g id="Group">
<path id="Vector" d="M7.13018 11.2884H3.90102C3.47318 11.2908 3.06369 11.4625 2.76201 11.7659C2.46034 12.0693 2.29101 12.4797 2.29102 12.9076V16.1367C2.2908 16.3482 2.33229 16.5577 2.41312 16.7531C2.49396 16.9486 2.61254 17.1261 2.76209 17.2757C2.91163 17.4252 3.0892 17.5438 3.28464 17.6246C3.48007 17.7055 3.68953 17.747 3.90102 17.7467H7.13018C7.55809 17.7472 7.96871 17.578 8.27207 17.2762C8.57542 16.9744 8.74675 16.5646 8.74852 16.1367V12.9076C8.74874 12.695 8.70703 12.4845 8.62577 12.288C8.54452 12.0916 8.42533 11.9131 8.27501 11.7628C8.12469 11.6124 7.9462 11.4932 7.74975 11.412C7.55331 11.3307 7.34277 11.289 7.13018 11.2892M7.13018 2.33008H3.90102C3.68953 2.32986 3.48007 2.37135 3.28464 2.45219C3.0892 2.53302 2.91163 2.6516 2.76209 2.80115C2.61254 2.95069 2.49396 3.12827 2.41312 3.3237C2.33229 3.51913 2.2908 3.72859 2.29102 3.94008V7.16925C2.29057 7.59715 2.45979 8.00777 2.76158 8.31113C3.06337 8.61448 3.47312 8.78581 3.90102 8.78758H7.13018C7.34277 8.7878 7.55331 8.74609 7.74975 8.66484C7.9462 8.58359 8.12469 8.46439 8.27501 8.31407C8.42533 8.16375 8.54452 7.98526 8.62577 7.78881C8.70703 7.59237 8.74874 7.38183 8.74852 7.16925V3.94008C8.74675 3.51218 8.57542 3.10243 8.27207 2.80064C7.96871 2.49885 7.55809 2.32963 7.13018 2.33008ZM16.0977 2.33008H12.8685C12.4406 2.32963 12.03 2.49885 11.7266 2.80064C11.4233 3.10243 11.2519 3.51218 11.2502 3.94008V7.16925C11.2504 7.59839 11.421 8.00989 11.7244 8.31334C12.0279 8.61678 12.4394 8.78736 12.8685 8.78758H16.0977C16.5256 8.78581 16.9353 8.61448 17.2371 8.31113C17.5389 8.00777 17.7081 7.59715 17.7077 7.16925V3.94008C17.7079 3.72859 17.6664 3.51913 17.5856 3.3237C17.5047 3.12827 17.3862 2.95069 17.2366 2.80115C17.0871 2.6516 16.9095 2.53302 16.7141 2.45219C16.5186 2.37135 16.3092 2.32986 16.0977 2.33008Z" stroke="#0078D4" stroke-linecap="round" stroke-linejoin="round"/>
</g>
<path id="Vector_2" d="M18.0292 17.2579L18.0292 17.2579L16.5556 15.7848C16.9255 15.3039 17.103 14.7018 17.0523 14.0962C17.0004 13.4757 16.7129 12.8986 16.2488 12.4835C15.7846 12.0684 15.1792 11.8467 14.5568 11.864C13.9343 11.8814 13.3421 12.1364 12.9019 12.5767C12.4616 13.017 12.2066 13.6091 12.1892 14.2316C12.1719 14.854 12.3936 15.4594 12.8087 15.9236C13.2238 16.3877 13.8009 16.6752 14.4214 16.7271C15.027 16.7778 15.6291 16.6003 16.11 16.2304L17.5831 17.704L17.5831 17.704C17.6124 17.7333 17.6471 17.7566 17.6854 17.7724C17.7237 17.7883 17.7647 17.7964 17.8061 17.7964C17.8476 17.7964 17.8886 17.7883 17.9269 17.7724C17.9651 17.7566 17.9999 17.7333 18.0292 17.704C18.0585 17.6747 18.0817 17.6399 18.0976 17.6017C18.1135 17.5634 18.1216 17.5224 18.1216 17.4809C18.1216 17.4395 18.1135 17.3985 18.0976 17.3602C18.0817 17.3219 18.0585 17.2872 18.0292 17.2579ZM16.4304 14.2992C16.4304 14.5364 16.3837 14.7713 16.293 14.9904C16.2022 15.2095 16.0692 15.4086 15.9015 15.5763C15.7338 15.744 15.5347 15.877 15.3156 15.9678C15.0965 16.0585 14.8616 16.1052 14.6244 16.1052C14.3873 16.1052 14.1524 16.0585 13.9333 15.9678C13.7142 15.877 13.5151 15.744 13.3474 15.5763C13.1797 15.4086 13.0467 15.2095 12.9559 14.9904C12.8652 14.7713 12.8185 14.5364 12.8185 14.2992C12.8185 13.8203 13.0087 13.3609 13.3474 13.0222C13.6861 12.6835 14.1455 12.4933 14.6244 12.4933C15.1034 12.4933 15.5628 12.6835 15.9015 13.0222C16.2402 13.3609 16.4304 13.8203 16.4304 14.2992Z" fill="#0078D4" stroke="#0078D4" stroke-width="0.1"/>
</g>
</svg>
