<svg width="14" height="15" viewBox="0 0 14 15" fill="none" xmlns="http://www.w3.org/2000/svg">
<path fill-rule="evenodd" clip-rule="evenodd" d="M10.7205 3.61651C10.236 3.12915 9.65959 2.74272 9.02472 2.47958C8.38986 2.21644 7.70911 2.08182 7.02187 2.08351C4.14094 2.08351 1.79375 4.42851 1.79375 7.30945C1.79194 8.22674 2.03252 9.12822 2.49112 9.92264L1.75 12.6312L4.522 11.9032C5.28851 12.3207 6.14728 12.5398 7.02012 12.5406H7.02231C9.90369 12.5406 12.2483 10.1961 12.25 7.31295C12.25 5.91689 11.7066 4.60439 10.7205 3.61607V3.61651ZM7.02187 11.6573H7.02012C6.24206 11.6573 5.47827 11.4484 4.80856 11.0523L4.64975 10.9582L3.00388 11.3891L3.44313 9.7857L3.34075 9.62164C2.90517 8.92917 2.67461 8.12751 2.67575 7.30945C2.67575 4.91545 4.62569 2.96726 7.02363 2.96726C7.59432 2.96576 8.15963 3.07752 8.68683 3.29606C9.21402 3.5146 9.69261 3.83557 10.0949 4.24039C10.4991 4.64328 10.8195 5.12222 11.0376 5.64957C11.2557 6.17693 11.3673 6.74226 11.3658 7.31295C11.3658 9.70914 9.41631 11.6573 7.02187 11.6573ZM9.40406 8.4032C9.27413 8.33845 8.63144 8.02257 8.512 7.9797C8.39256 7.93507 8.30506 7.91451 8.218 8.04445C8.1305 8.1757 7.88113 8.47014 7.80456 8.5572C7.72931 8.64251 7.65231 8.65476 7.52238 8.58957C7.39113 8.52482 6.97069 8.38614 6.4715 7.94032C6.08344 7.5947 5.8205 7.16595 5.74525 7.03601C5.66825 6.90476 5.7365 6.83476 5.80169 6.76914C5.86119 6.71139 5.93294 6.61732 5.99813 6.54032C6.06287 6.46551 6.08563 6.41082 6.12937 6.32332C6.17225 6.23626 6.15037 6.15926 6.11756 6.09451C6.08519 6.02976 5.824 5.38532 5.71463 5.1237C5.60831 4.86907 5.50069 4.90495 5.42063 4.90014C5.34538 4.89664 5.25831 4.89664 5.17125 4.89664C5.08375 4.89664 4.942 4.92901 4.82213 5.0607C4.70269 5.19064 4.36581 5.50695 4.36581 6.1492C4.36581 6.79189 4.83394 7.41357 4.89956 7.50107C4.96431 7.58639 5.8205 8.90545 7.13081 9.47157C7.37366 9.57646 7.62193 9.66832 7.87456 9.74676C8.18738 9.84564 8.47262 9.83207 8.69837 9.79926C8.9495 9.76207 9.47056 9.48339 9.57994 9.17757C9.688 8.87351 9.688 8.61189 9.65519 8.5572C9.62281 8.50251 9.53575 8.4697 9.40406 8.4032Z" fill="#61D765"/>
</svg>
