<svg width="25" height="24" viewBox="0 0 25 24" fill="none" xmlns="http://www.w3.org/2000/svg">
<g id="mdi:attachment-plus">
<path id="Vector" d="M7.44531 13.5H13.4953C13.2853 13.97 13.1253 14.47 13.0353 15H7.44531C4.40531 15 1.94531 12.54 1.94531 9.5C1.94531 6.46 4.40531 4 7.44531 4H17.9453C20.1553 4 21.9453 5.79 21.9453 8C21.9453 8.91 21.6353 9.74 21.1153 10.41C20.5753 10.2 19.9953 10.07 19.3953 10.03C19.8275 9.72344 20.1508 9.28725 20.3185 8.78462C20.4862 8.28199 20.4896 7.73903 20.328 7.23439C20.1665 6.72974 19.8485 6.28963 19.4201 5.9778C18.9917 5.66597 18.4752 5.49862 17.9453 5.5H7.44531C5.23531 5.5 3.44531 7.29 3.44531 9.5C3.44531 11.71 5.23531 13.5 7.44531 13.5ZM9.44531 10.5C8.89531 10.5 8.44531 10.05 8.44531 9.5C8.44531 8.95 8.89531 8.5 9.44531 8.5H16.9453V7H9.44531C8.78227 7 8.14639 7.26339 7.67755 7.73223C7.2087 8.20107 6.94531 8.83696 6.94531 9.5C6.94531 10.163 7.2087 10.7989 7.67755 11.2678C8.14639 11.7366 8.78227 12 9.44531 12H14.4853C15.0596 11.3571 15.7656 10.8455 16.5553 10.5H9.44531ZM19.9453 15V12H17.9453V15H14.9453V17H17.9453V20H19.9453V17H22.9453V15H19.9453Z" fill="#222222"/>
</g>
</svg>
