<svg width="16" height="17" viewBox="0 0 16 17" fill="none" xmlns="http://www.w3.org/2000/svg">
<g id="mdi:tick-circle-outline">
<path id="Vector" d="M8.00065 2.08008C4.33398 2.08008 1.33398 5.08008 1.33398 8.74675C1.33398 12.4134 4.33398 15.4134 8.00065 15.4134C11.6673 15.4134 14.6673 12.4134 14.6673 8.74675C14.6673 5.08008 11.6673 2.08008 8.00065 2.08008ZM8.00065 14.0801C5.06065 14.0801 2.66732 11.6867 2.66732 8.74675C2.66732 5.80675 5.06065 3.41341 8.00065 3.41341C10.9407 3.41341 13.334 5.80675 13.334 8.74675C13.334 11.6867 10.9407 14.0801 8.00065 14.0801ZM11.5323 6.27508C11.2721 6.01302 10.8485 6.01227 10.5873 6.27341L6.66732 10.1934L5.4111 8.94205C5.15113 8.68308 4.73058 8.68349 4.47111 8.94296C4.21128 9.20278 4.21128 9.62404 4.47111 9.88387L6.66732 12.0801L11.5306 7.21675C11.7905 6.9569 11.7912 6.53584 11.5323 6.27508Z" fill="#0F273A"/>
</g>
</svg>
