<svg width="25" height="25" viewBox="0 0 25 25" fill="none" xmlns="http://www.w3.org/2000/svg">
<path d="M5.116 19.833C4.65533 19.833 4.271 19.679 3.963 19.371C3.655 19.063 3.50067 18.6783 3.5 18.217V7.44901C3.5 6.98834 3.65433 6.60401 3.963 6.29601C4.27167 5.98801 4.65567 5.83367 5.115 5.83301H19.885C20.345 5.83301 20.729 5.98734 21.037 6.29601C21.345 6.60467 21.4993 6.98901 21.5 7.44901V18.218C21.5 18.678 21.3457 19.0623 21.037 19.371C20.7283 19.6797 20.3443 19.8337 19.885 19.833H5.116ZM5.116 18.833H15.5V6.83301H5.116C4.962 6.83301 4.82067 6.89701 4.692 7.02501C4.56333 7.15301 4.49933 7.29434 4.5 7.44901V18.218C4.5 18.3713 4.564 18.5123 4.692 18.641C4.82 18.7697 4.961 18.8337 5.115 18.833M16.5 18.833H19.885C20.0383 18.833 20.1793 18.769 20.308 18.641C20.4367 18.513 20.5007 18.3717 20.5 18.217V7.44901C20.5 7.29501 20.436 7.15367 20.308 7.02501C20.18 6.89634 20.039 6.83234 19.885 6.83301H16.5V18.833ZM17.808 9.52501H19.192V8.14101H17.808V9.52501ZM18.5 13.603C18.7067 13.603 18.8867 13.5263 19.04 13.373C19.1933 13.2197 19.27 13.04 19.27 12.834C19.27 12.628 19.1933 12.448 19.04 12.294C18.8867 12.14 18.7067 12.0633 18.5 12.064C18.2933 12.0647 18.1133 12.1413 17.96 12.294C17.8067 12.4467 17.73 12.6267 17.73 12.834C17.73 13.0413 17.8067 13.2213 17.96 13.374C18.1133 13.5267 18.2933 13.6023 18.5 13.603ZM18.5 17.604C18.7067 17.604 18.8867 17.5273 19.04 17.374C19.1933 17.2207 19.27 17.0407 19.27 16.834C19.27 16.6273 19.1933 16.4473 19.04 16.294C18.8867 16.1407 18.7067 16.064 18.5 16.064C18.2933 16.064 18.1133 16.1407 17.96 16.294C17.8067 16.4473 17.73 16.6273 17.73 16.834C17.73 17.0407 17.8067 17.2207 17.96 17.374C18.1133 17.5273 18.2933 17.604 18.5 17.604ZM11.25 16.334C10.9273 16.334 10.6297 16.2623 10.357 16.119C10.0843 15.975 9.85267 15.8427 9.662 15.722C9.482 15.6053 9.326 15.5117 9.194 15.441C9.062 15.3703 8.914 15.3343 8.75 15.333C8.57933 15.333 8.412 15.376 8.248 15.462C8.084 15.548 7.941 15.641 7.819 15.741L7.087 15.033C7.27033 14.8843 7.505 14.7307 7.791 14.572C8.07767 14.4127 8.39733 14.333 8.75 14.333C9.07333 14.333 9.36167 14.4027 9.615 14.542C9.86833 14.6807 10.0903 14.8103 10.281 14.931C10.4563 15.057 10.6247 15.1553 10.786 15.226C10.9473 15.2967 11.102 15.3323 11.25 15.333C11.4207 15.333 11.588 15.29 11.752 15.204C11.916 15.118 12.059 15.025 12.181 14.925L12.914 15.633C12.7307 15.7817 12.4957 15.9357 12.209 16.095C11.9223 16.2537 11.6027 16.333 11.25 16.333M11.25 11.333C10.9273 11.333 10.6297 11.2613 10.357 11.118C10.0843 10.974 9.85267 10.8417 9.662 10.721C9.482 10.6043 9.326 10.5107 9.194 10.44C9.062 10.3693 8.914 10.3337 8.75 10.333C8.57933 10.333 8.412 10.376 8.248 10.462C8.084 10.548 7.941 10.641 7.819 10.741L7.087 10.033C7.27033 9.88434 7.505 9.73067 7.791 9.57201C8.07767 9.41267 8.39733 9.33301 8.75 9.33301C9.07333 9.33301 9.36167 9.40267 9.615 9.54201C9.86833 9.68067 10.0903 9.81034 10.281 9.93101C10.4563 10.057 10.6247 10.1553 10.786 10.226C10.9473 10.2967 11.102 10.3323 11.25 10.333C11.4207 10.333 11.588 10.29 11.752 10.204C11.916 10.118 12.059 10.025 12.181 9.92501L12.914 10.633C12.7307 10.7817 12.4957 10.9357 12.209 11.095C11.9223 11.2537 11.6027 11.333 11.25 11.333Z" fill="#0078D4"/>
</svg>
