<svg width="20" height="21" viewBox="0 0 20 21" fill="none" xmlns="http://www.w3.org/2000/svg">
<g id="mingcute:department-line">
<g id="Group 171">
<circle id="Ellipse 106" cx="10.0007" cy="4.14226" r="1.68777" fill="white" stroke="#0078D4" stroke-width="1.2"/>
<circle id="Ellipse 108" cx="4.10418" cy="15.9343" r="1.68777" fill="white" stroke="#0078D4" stroke-width="1.2"/>
<circle id="Ellipse 107" cx="15.8971" cy="15.9343" r="1.68777" fill="white" stroke="#0078D4" stroke-width="1.2"/>
<g id="Union">
<mask id="path-4-outside-1_3113_23803" maskUnits="userSpaceOnUse" x="2.57031" y="4.58203" width="15" height="11" fill="black">
<rect fill="white" x="2.57031" y="4.58203" width="15" height="11"/>
<path fill-rule="evenodd" clip-rule="evenodd" d="M10.4844 6.08203C10.4844 5.80589 10.2605 5.58203 9.98438 5.58203C9.70823 5.58203 9.48438 5.80589 9.48438 6.08203V9.85547H5.07031C4.24189 9.85547 3.57031 10.527 3.57031 11.3555V13.9957C3.57031 14.2718 3.79417 14.4957 4.07031 14.4957C4.34645 14.4957 4.57031 14.2718 4.57031 13.9957V11.3555C4.57031 11.0793 4.79417 10.8555 5.07031 10.8555H14.9294C15.2055 10.8555 15.4294 11.0793 15.4294 11.3555V13.9957C15.4294 14.2718 15.6532 14.4957 15.9294 14.4957C16.2055 14.4957 16.4294 14.2718 16.4294 13.9957V11.3555C16.4294 10.527 15.7578 9.85547 14.9294 9.85547H10.4844V6.08203Z"/>
</mask>
<path fill-rule="evenodd" clip-rule="evenodd" d="M10.4844 6.08203C10.4844 5.80589 10.2605 5.58203 9.98438 5.58203C9.70823 5.58203 9.48438 5.80589 9.48438 6.08203V9.85547H5.07031C4.24189 9.85547 3.57031 10.527 3.57031 11.3555V13.9957C3.57031 14.2718 3.79417 14.4957 4.07031 14.4957C4.34645 14.4957 4.57031 14.2718 4.57031 13.9957V11.3555C4.57031 11.0793 4.79417 10.8555 5.07031 10.8555H14.9294C15.2055 10.8555 15.4294 11.0793 15.4294 11.3555V13.9957C15.4294 14.2718 15.6532 14.4957 15.9294 14.4957C16.2055 14.4957 16.4294 14.2718 16.4294 13.9957V11.3555C16.4294 10.527 15.7578 9.85547 14.9294 9.85547H10.4844V6.08203Z" fill="#0078D4"/>
<path d="M9.48438 9.85547V10.1055H9.73438V9.85547H9.48438ZM10.4844 9.85547H10.2344V10.1055H10.4844V9.85547ZM9.98438 5.83203C10.1224 5.83203 10.2344 5.94396 10.2344 6.08203H10.7344C10.7344 5.66782 10.3986 5.33203 9.98438 5.33203V5.83203ZM9.73438 6.08203C9.73438 5.94396 9.8463 5.83203 9.98438 5.83203V5.33203C9.57016 5.33203 9.23438 5.66782 9.23438 6.08203H9.73438ZM9.73438 9.85547V6.08203H9.23438V9.85547H9.73438ZM5.07031 10.1055H9.48438V9.60547H5.07031V10.1055ZM3.82031 11.3555C3.82031 10.6651 4.37996 10.1055 5.07031 10.1055V9.60547C4.10381 9.60547 3.32031 10.389 3.32031 11.3555H3.82031ZM3.82031 13.9957V11.3555H3.32031V13.9957H3.82031ZM4.07031 14.2457C3.93224 14.2457 3.82031 14.1338 3.82031 13.9957H3.32031C3.32031 14.4099 3.6561 14.7457 4.07031 14.7457V14.2457ZM4.32031 13.9957C4.32031 14.1338 4.20838 14.2457 4.07031 14.2457V14.7457C4.48453 14.7457 4.82031 14.4099 4.82031 13.9957H4.32031ZM4.32031 11.3555V13.9957H4.82031V11.3555H4.32031ZM5.07031 10.6055C4.6561 10.6055 4.32031 10.9413 4.32031 11.3555H4.82031C4.82031 11.2174 4.93224 11.1055 5.07031 11.1055V10.6055ZM14.9294 10.6055H5.07031V11.1055H14.9294V10.6055ZM15.6794 11.3555C15.6794 10.9413 15.3436 10.6055 14.9294 10.6055V11.1055C15.0674 11.1055 15.1794 11.2174 15.1794 11.3555H15.6794ZM15.6794 13.9957V11.3555H15.1794V13.9957H15.6794ZM15.9294 14.2457C15.7913 14.2457 15.6794 14.1338 15.6794 13.9957H15.1794C15.1794 14.4099 15.5152 14.7457 15.9294 14.7457V14.2457ZM16.1794 13.9957C16.1794 14.1338 16.0674 14.2457 15.9294 14.2457V14.7457C16.3436 14.7457 16.6794 14.4099 16.6794 13.9957H16.1794ZM16.1794 11.3555V13.9957H16.6794V11.3555H16.1794ZM14.9294 10.1055C15.6197 10.1055 16.1794 10.6651 16.1794 11.3555H16.6794C16.6794 10.389 15.8959 9.60547 14.9294 9.60547V10.1055ZM10.4844 10.1055H14.9294V9.60547H10.4844V10.1055ZM10.2344 6.08203V9.85547H10.7344V6.08203H10.2344Z" fill="#0078D4" mask="url(#path-4-outside-1_3113_23803)"/>
</g>
</g>
</g>
</svg>
