<svg width="20" height="20" viewBox="0 0 20 20" fill="none" xmlns="http://www.w3.org/2000/svg">
<path d="M2.5 1.25L14.4003 1.25C14.7318 1.25 15.0497 1.3817 15.2842 1.61612C15.5186 1.85054 15.4419 2.16848 15.4419 2.5V8.75H17.5C17.8315 8.75 18.1495 8.8817 18.3839 9.11612C18.6183 9.35054 18.75 9.66848 18.75 10V17.75C18.75 18.3023 18.3023 18.75 17.75 18.75H2.25C1.69772 18.75 1.25 18.3023 1.25 17.75V2.5C1.25 2.16848 1.3817 1.85054 1.61612 1.61612C1.85054 1.3817 2.16848 1.25 2.5 1.25ZM12.7083 17.9167V12.7083H7.5V17.8674L12.7083 17.9167ZM1.97552 16.9167C1.97552 17.469 2.42323 17.9167 2.97552 17.9167H6.66667V12.5C6.66667 12.3342 6.75779 12.1753 6.875 12.0581C6.99221 11.9408 7.12591 11.875 7.29167 11.875H12.9167C12.9167 11.875 13.2161 11.9408 13.3333 12.0581C13.4505 12.1753 13.5417 12.3342 13.5417 12.5V17.9167H16.9167C17.469 17.9167 17.9167 17.469 17.9167 16.9167V10.5833C17.9167 10.031 17.469 9.58333 16.9167 9.58333H15.7917C15.2394 9.58333 14.7917 9.13562 14.7917 8.58333V3.08333C14.7917 2.53105 14.344 2.08333 13.7917 2.08333H2.97551C2.42323 2.08333 1.97552 2.53105 1.97552 3.08333V16.9167Z" fill="#0078D4"/>
<path d="M5.41669 4.58398H12.9167" stroke="#0078D4" stroke-linecap="round"/>
<path d="M5.41669 6.66602H12.9167" stroke="#0078D4" stroke-linecap="round"/>
<path d="M5.41669 8.75H12.9167" stroke="#0078D4" stroke-linecap="round"/>
<circle cx="3.74998" cy="4.58268" r="0.416667" fill="#0078D4"/>
<circle cx="3.74998" cy="6.66667" r="0.416667" fill="#0078D4"/>
<circle cx="3.74998" cy="8.75065" r="0.416667" fill="#0078D4"/>
</svg>
