<svg width="20" height="20" viewBox="0 0 20 20" fill="none" xmlns="http://www.w3.org/2000/svg">
<g id="mynaui:briefcase">
<g id="Group">
<path id="Vector" d="M6.92319 5.5V4.9C6.92319 3.5725 6.92319 2.5 9.38486 2.5H10.6149C13.0765 2.5 13.0765 3.5725 13.0765 4.9V5.5M6.92319 17.5H13.0765C16.1682 17.5 16.7224 16.2917 16.884 14.8225L17.4607 8.8225C17.669 6.9925 17.1299 5.5 13.8457 5.5H6.15402C2.86986 5.5 2.33152 6.9925 2.53902 8.8225L3.11569 14.8225C3.27736 16.2917 3.83152 17.5 6.92319 17.5Z" stroke="#60798C" stroke-width="1.2" stroke-linecap="round" stroke-linejoin="round"/>
<path id="Vector_2" d="M8.17698 11.1085C6.22424 10.8931 4.34796 10.2283 2.69531 9.16602M11.862 11.1085C13.8147 10.8931 15.691 10.2283 17.3436 9.16602M11.667 11.2493C11.667 11.6914 11.4914 12.1153 11.1788 12.4279C10.8663 12.7404 10.4423 12.916 10.0003 12.916C9.55829 12.916 9.13436 12.7404 8.8218 12.4279C8.50924 12.1153 8.33365 11.6914 8.33365 11.2493C8.33365 10.8073 8.50924 10.3834 8.8218 10.0708C9.13436 9.75828 9.55829 9.58268 10.0003 9.58268C10.4423 9.58268 10.8663 9.75828 11.1788 10.0708C11.4914 10.3834 11.667 10.8073 11.667 11.2493Z" stroke="#60798C" stroke-width="1.2" stroke-linecap="round" stroke-linejoin="round"/>
</g>
</g>
</svg>
