<svg width="25" height="24" viewBox="0 0 25 24" fill="none" xmlns="http://www.w3.org/2000/svg">
<rect x="0.5" width="24" height="24" rx="12" fill="white"/>
<path d="M7.12402 15.0643V12.8234H9.36493V15.0643H7.12402ZM7.87099 13.5704V14.3174H8.61796V13.5704H7.87099ZM7.12402 12.0764V9.83554H9.36493V12.0764H7.12402ZM7.87099 10.5825V11.3295H8.61796V10.5825H7.87099ZM7.12402 9.08857V6.84766H9.36493V9.08857H7.12402ZM7.87099 7.59463V8.3416H8.61796V7.59463H7.87099ZM10.8589 11.3295V10.5825H17.5816V11.3295H10.8589ZM16.0877 13.5704V14.3174H10.8589V13.5704H16.0877ZM10.8589 7.59463H19.0755V8.3416H10.8589V7.59463ZM7.12402 18.0522V15.8113H9.36493V18.0522H7.12402ZM7.87099 16.5583V17.3052H8.61796V16.5583H7.87099ZM10.8589 17.3052V16.5583H17.5816V17.3052H10.8589Z" fill="#2C2C2C"/>
</svg>
