<svg width="41" height="40" viewBox="0 0 41 40" fill="none" xmlns="http://www.w3.org/2000/svg">
<rect x="40.8408" y="40" width="40" height="40" rx="20" transform="rotate(-180 40.8408 40)" fill="white"/>
<path d="M16.4353 29.8001C17.084 30.4502 18.137 30.4508 18.7864 29.8014L27.4116 21.1762L27.8745 20.6903C28.2427 20.3039 28.2425 19.6964 27.874 19.3102L27.41 18.8239L18.7846 10.1984C18.1351 9.549 17.0821 9.549 16.4327 10.1984V10.1984C15.7831 10.8481 15.7833 11.9014 16.4331 12.5508L22.9289 19.0417C23.4586 19.5709 23.4587 20.4293 22.9293 20.9587L16.4365 27.4515C15.7881 28.0999 15.7876 29.1511 16.4353 29.8001V29.8001Z" fill="#0078D4"/>
</svg>
