<svg width="32" height="32" viewBox="0 0 32 32" fill="none" xmlns="http://www.w3.org/2000/svg">
<rect width="32" height="32" fill="white"/>
<path fill-rule="evenodd" clip-rule="evenodd" d="M8.49219 11.8828H23.4395V20.1163H8.49219V11.8828ZM9.99219 13.5312V18.4679H21.9395V13.5312H9.99219Z" fill="#0078D4"/>
<path d="M28.271 15.4422L25.2937 15.4422C25.0999 15.4422 24.9554 15.6115 24.9554 15.8065L24.9554 16.1922C24.9554 16.3872 25.0999 16.5565 25.2937 16.5565L28.271 16.5565L27.0714 17.8124L27.0712 17.8126C26.9378 17.9532 26.9351 18.1846 27.0658 18.3282L27.309 18.5955C27.309 18.5956 27.3091 18.5956 27.3091 18.5957C27.4411 18.7421 27.6594 18.7416 27.7921 18.5958L29.9232 16.2539C29.9232 16.2538 29.9233 16.2537 29.9233 16.2537C30.0528 16.1127 30.0524 15.8857 29.9234 15.7439L29.9234 15.7439L27.7913 13.402C27.7912 13.4019 27.7912 13.4019 27.7911 13.4018C27.6591 13.2554 27.4408 13.2559 27.3082 13.4017L27.0649 13.669C27.0649 13.6691 27.0648 13.6691 27.0648 13.6692C26.9328 13.8129 26.9356 14.0445 27.0703 14.1851C27.0703 14.1851 27.0704 14.1852 27.0704 14.1852L28.271 15.4422Z" fill="#0078D4" stroke="#0078D4" stroke-width="0.15"/>
<path d="M15.4517 4.66861V7.93215C15.4517 8.12709 15.5962 8.29647 15.79 8.29647H16.141C16.3348 8.29647 16.4793 8.12709 16.4793 7.93215V4.66862L17.6058 5.96813L17.606 5.96831C17.7372 6.11871 17.9595 6.12229 18.0942 5.9743L18.3375 5.70698C18.3375 5.70693 18.3375 5.70689 18.3376 5.70684C18.4671 5.56587 18.4667 5.3388 18.3377 5.19707L16.2066 2.85512C16.2066 2.85507 16.2065 2.85503 16.2065 2.85498C16.0745 2.70854 15.8562 2.70903 15.7235 2.85482L15.7235 2.85484L13.5924 5.19798C13.5924 5.19804 13.5923 5.1981 13.5923 5.19817C13.4628 5.33914 13.4632 5.56617 13.5922 5.70789L13.8354 5.97522C13.8355 5.97527 13.8355 5.97532 13.8356 5.97537C13.9703 6.12479 14.193 6.12115 14.3242 5.96926L14.3241 5.96933L14.2674 5.92021L14.3242 5.96922L15.4517 4.66861ZM15.4517 4.66861V4.55411M15.4517 4.66861V4.55411M15.4517 4.55411L15.5267 4.4676L15.4517 4.55411Z" fill="#0078D4" stroke="#0078D4" stroke-width="0.15"/>
<path d="M15.4517 27.3314V24.0678C15.4517 23.8729 15.5962 23.7035 15.79 23.7035H16.141C16.3348 23.7035 16.4793 23.8729 16.4793 24.0678V27.3314L17.6058 26.0319L17.606 26.0317C17.7372 25.8813 17.9595 25.8777 18.0942 26.0257L18.3375 26.293C18.3375 26.2931 18.3375 26.2931 18.3376 26.2932C18.4671 26.4341 18.4667 26.6612 18.3377 26.8029L16.2066 29.1449C16.2066 29.1449 16.2065 29.145 16.2065 29.145C16.0745 29.2915 15.8562 29.291 15.7235 29.1452L15.7235 29.1452L13.5924 26.802C13.5924 26.802 13.5923 26.8019 13.5923 26.8018C13.4628 26.6609 13.4632 26.4338 13.5922 26.2921L13.8354 26.0248C13.8355 26.0247 13.8355 26.0247 13.8356 26.0246C13.9703 25.8752 14.193 25.8788 14.3242 26.0307L14.3241 26.0307L14.2674 26.0798L14.3242 26.0308L15.4517 27.3314ZM15.4517 27.3314V27.4459M15.4517 27.3314V27.4459M15.4517 27.4459L15.5267 27.5324L15.4517 27.4459Z" fill="#0078D4" stroke="#0078D4" stroke-width="0.15"/>
<path d="M3.72902 15.4422L6.70629 15.4422C6.90011 15.4422 7.04456 15.6115 7.04456 15.8065L7.04456 16.1922C7.04456 16.3872 6.90011 16.5565 6.70629 16.5565L3.72902 16.5565L4.92863 17.8124L4.92879 17.8126C5.0622 17.9532 5.06495 18.1846 4.93425 18.3282L4.691 18.5955C4.69095 18.5956 4.69091 18.5956 4.69087 18.5957C4.55889 18.7421 4.34058 18.7416 4.20792 18.5958L2.07682 16.2539C2.07677 16.2538 2.07672 16.2537 2.07667 16.2537C1.94717 16.1127 1.94759 15.8857 2.07655 15.7439L2.07656 15.7439L4.20875 13.402C4.20879 13.4019 4.20884 13.4019 4.20888 13.4018C4.34087 13.2554 4.55916 13.2559 4.69182 13.4017L4.93508 13.669C4.93514 13.6691 4.93519 13.6691 4.93524 13.6692C5.06721 13.8129 5.06442 14.0445 4.9297 14.1851C4.92967 14.1851 4.92965 14.1852 4.92962 14.1852L3.72902 15.4422Z" fill="#0078D4" stroke="#0078D4" stroke-width="0.15"/>
</svg>
