<svg width="274" height="275" viewBox="0 0 274 275" fill="none" xmlns="http://www.w3.org/2000/svg">
<g opacity="0.25">
<g opacity="0.41">
<path d="M271.022 175.595C271.277 170.882 271.163 166.148 270.669 161.461C268.35 139.435 257.849 118.665 242.393 104.01C236.879 98.7817 230.605 94.0982 227.017 87.197C220.974 75.5745 221.431 62.2174 213.931 50.7423C206.422 39.2535 195.48 30.2942 183.139 25.693C146.345 11.974 94.8322 34.3118 99.4705 82.0154C99.4869 82.1862 99.5051 82.4353 99.5251 82.7503C100.142 92.659 92.9142 100.99 83.7163 101.225C49.7688 102.092 20.5475 130.257 14.2948 165.933C10.2734 188.877 16.8582 214.025 32.4548 230.256C44.0973 242.371 59.7175 249.028 75.3463 253.601C106.681 262.772 139.656 264.694 171.966 261.187C202.209 257.905 234.111 248.549 253.671 223.511C264.104 210.153 270.082 193.025 271.022 175.595Z" fill="#53D0F7"/>
</g>
<g opacity="0.31">
<path d="M261.872 25.1333C263.768 18.3277 260.178 11.1572 253.853 9.11742C247.529 7.07767 240.865 10.9411 238.97 17.7467C237.074 24.5523 240.665 31.7229 246.989 33.7626C253.313 35.8024 259.977 31.9389 261.872 25.1333Z" fill="#53D0F7"/>
</g>
<g opacity="0.31">
<path d="M230.842 7.79966C231.271 10.2262 229.79 12.5679 227.535 13.0296C225.28 13.4913 223.104 11.8982 222.675 9.47167C222.246 7.04516 223.726 4.70343 225.981 4.24174C228.237 3.78004 230.413 5.37315 230.842 7.79966Z" fill="#53D0F7"/>
</g>
<g opacity="0.31">
<path d="M82.5535 34.4119C83.2604 31.1905 81.4066 27.9624 78.413 27.2017C75.4193 26.441 72.4194 28.4359 71.7126 31.6573C71.0057 34.8787 72.8594 38.1069 75.8531 38.8675C78.8467 39.6282 81.8466 37.6334 82.5535 34.4119Z" fill="#53D0F7"/>
</g>
<g opacity="0.31">
<path d="M27.6638 265.26C28.8167 259.969 25.7657 254.675 20.8493 253.434C15.9329 252.194 11.0128 255.477 9.85991 260.767C8.70704 266.058 11.758 271.352 16.6744 272.593C21.5908 273.833 26.5109 270.55 27.6638 265.26Z" fill="#53D0F7"/>
</g>
</g>
<path opacity="0.58" d="M37.9096 23.9549C39.4157 23.9549 40.6366 22.6411 40.6366 21.0204C40.6366 19.3998 39.4157 18.0859 37.9096 18.0859C36.4035 18.0859 35.1826 19.3998 35.1826 21.0204C35.1826 22.6411 36.4035 23.9549 37.9096 23.9549Z" fill="#FFA000"/>
<path opacity="0.58" d="M2.16342 169.928C2.16342 170.571 1.67923 171.092 1.08171 171.092C0.484195 171.092 0 170.571 0 169.928C0 169.285 0.484195 168.764 1.08171 168.764C1.67923 168.764 2.16342 169.285 2.16342 169.928Z" fill="#FFA000"/>
<path opacity="0.58" d="M270.072 49.5107C270.072 50.1537 269.588 50.6747 268.99 50.6747C268.393 50.6747 267.909 50.1537 267.909 49.5107C267.909 48.8677 268.393 48.3467 268.99 48.3467C269.588 48.3467 270.072 48.8684 270.072 49.5107Z" fill="#FFA000"/>
<path opacity="0.58" d="M18.495 2.00386C18.495 2.64685 18.0108 3.16788 17.4133 3.16788C16.8157 3.16788 16.3315 2.64685 16.3315 2.00386C16.3315 1.36088 16.8157 0.839844 17.4133 0.839844C18.0108 0.839844 18.495 1.36088 18.495 2.00386Z" fill="#2F7DED"/>
<path opacity="0.58" d="M272.236 127.154C272.236 127.797 271.751 128.318 271.154 128.318C270.556 128.318 270.072 127.797 270.072 127.154C270.072 126.511 270.556 125.99 271.154 125.99C271.751 125.99 272.236 126.511 272.236 127.154Z" fill="#2F7DED"/>
<path opacity="0.58" d="M112.82 2.00386C112.82 2.64685 112.336 3.16788 111.738 3.16788C111.141 3.16788 110.657 2.64685 110.657 2.00386C110.657 1.36088 111.141 0.839844 111.738 0.839844C112.336 0.839844 112.82 1.36088 112.82 2.00386Z" fill="#2F7DED"/>
<path opacity="0.58" d="M187.73 6.26429C187.352 8.1678 185.612 9.38073 183.843 8.97446C182.074 8.5682 180.947 6.69533 181.325 4.79247C181.702 2.88896 183.443 1.67603 185.211 2.0823C186.979 2.48856 188.107 4.36077 187.73 6.26429Z" fill="#FFA000"/>
<g opacity="0.25">
<g opacity="0.47">
<path d="M29.8175 40.8015C26.9505 35.0511 20.2942 32.89 14.9499 35.9758C9.60619 39.061 3.88555 48.3679 6.75253 54.1182C9.61952 59.8685 18.1465 55.3448 24.2108 55.4211C32.6687 55.5281 32.6851 46.5524 29.8175 40.8015Z" fill="#53D0F7"/>
</g>
<g opacity="0.47">
<path d="M269.789 215.589C273.582 209.098 274.533 201.044 273.743 193.423C272.958 185.851 270.802 177.906 267.791 171.019C264.937 164.492 260.805 158.669 259.628 151.399C258.072 141.793 262.147 132.56 263.092 123.138C264.975 104.38 253.195 87.8518 238.581 78.927C226.711 71.6782 212.796 68.9582 199.149 69.1519C186.867 69.326 174.606 71.671 162.704 74.824C151.235 77.8621 140.021 81.8661 127.998 80.603C117.999 79.5524 108.994 75.0835 99.6822 71.7512C77.4511 63.7955 50.521 62.6732 30.1921 74.7848C17.1456 82.558 8.01376 95.1809 3.96386 108.753C0.997492 118.693 0.117581 130.124 2.2913 140.184C4.73409 151.488 9.24697 161.446 8.05558 173.353C7.07749 183.125 3.74207 192.651 4.03658 202.563C4.28989 211.082 7.25566 219.602 11.8661 226.492C12.1643 226.937 12.4812 227.376 12.8381 227.766H256.826C261.934 224.802 266.701 220.873 269.789 215.589Z" fill="#53D0F7"/>
</g>
<g opacity="0.81">
<path d="M238.491 209.084C239.355 201.845 237.332 195.12 237.597 188.084C238.108 174.553 249.659 165.212 253.684 153.049C258.781 137.647 258.537 120.388 252.347 105.38C249.364 98.1468 245.006 91.4249 239.055 86.776C229.881 79.6094 217.86 78.0378 206.555 78.9468C189.73 80.2999 171.977 87.8298 155.06 85.7763C145.725 84.643 142.875 74.1975 138.053 67.3074C132.601 59.5147 125.175 53.3934 116.965 49.319C101.844 41.8146 83.6971 41.1044 68.2428 47.9092C51.7433 55.1736 37.3623 72.9148 38.3077 92.9788C38.7452 102.261 42.3388 111.48 40.6753 120.6C38.587 132.046 30.2454 142.476 24.2006 151.801C17.5249 162.101 13.4835 174.383 12.6908 186.913C11.7921 201.12 15.0809 215.596 21.9523 227.765H232.692C235.75 222.034 237.709 215.637 238.491 209.084Z" fill="#53D0F7"/>
</g>
</g>
<path d="M254.732 230.56H15.0831C14.554 230.56 14.125 230.099 14.125 229.529C14.125 228.96 14.554 228.499 15.0831 228.499H254.732C255.261 228.499 255.69 228.961 255.69 229.529C255.69 230.099 255.261 230.56 254.732 230.56Z" fill="#233863"/>
<path d="M217.234 168.693H170.623C168.749 168.693 167.225 167.052 167.225 165.036V134.607C167.225 132.178 169.061 130.202 171.318 130.202H204.758C205.093 130.202 205.364 130.494 205.364 130.854C205.364 131.214 205.093 131.506 204.758 131.506H171.318C169.729 131.506 168.436 132.897 168.436 134.607V165.036C168.436 166.333 169.417 167.389 170.622 167.389H217.233C218.438 167.389 219.419 166.333 219.419 165.036V135.402C219.419 133.254 217.795 131.506 215.799 131.506H209.339C209.004 131.506 208.733 131.214 208.733 130.854C208.733 130.494 209.004 130.202 209.339 130.202H215.799C218.464 130.202 220.631 132.535 220.631 135.402V165.036C220.631 167.053 219.107 168.693 217.234 168.693Z" fill="#FFA000"/>
<path d="M169.437 167.802C169.27 167.802 169.104 167.728 168.984 167.584C168.762 167.314 168.784 166.902 169.034 166.663L188.076 148.434C188.325 148.194 188.71 148.218 188.931 148.487C189.154 148.756 189.131 149.169 188.882 149.408L169.84 167.637C169.724 167.748 169.58 167.802 169.437 167.802Z" fill="#FFA000"/>
<path d="M218.225 168.305C218.082 168.305 217.938 168.251 217.823 168.141L198.809 150.003C198.559 149.765 198.536 149.353 198.757 149.083C198.979 148.812 199.362 148.789 199.612 149.028L218.627 167.166C218.877 167.404 218.9 167.817 218.678 168.086C218.559 168.231 218.392 168.305 218.225 168.305Z" fill="#FFA000"/>
<path d="M193.933 153.46C193.302 153.46 192.672 153.247 192.135 152.822L168.026 133.756C167.756 133.543 167.698 133.135 167.896 132.844C168.094 132.555 168.473 132.49 168.743 132.706L192.853 151.771C193.496 152.28 194.361 152.281 195.007 151.776L218.602 133.264C218.872 133.053 219.251 133.117 219.448 133.407C219.646 133.698 219.586 134.106 219.316 134.319L195.72 152.83C195.185 153.25 194.559 153.46 193.933 153.46Z" fill="#FFA000"/>
<path d="M217.644 126.138C218.147 126.535 218.824 126.538 219.329 126.142L239.382 110.409C238.608 109.379 237.425 108.72 236.098 108.72H200.133C199.023 108.72 198.037 109.279 197.398 110.148C197.421 110.162 197.447 110.165 197.468 110.183L217.644 126.138Z" fill="#2F7DED"/>
<path d="M220.044 127.197C219.579 127.562 219.034 127.744 218.49 127.744C217.943 127.744 217.395 127.56 216.929 127.19L213.866 124.769L198.395 139.58C198.383 139.591 198.369 139.595 198.356 139.605C198.689 139.755 199.055 139.84 199.439 139.84H237.533C237.749 139.84 237.957 139.808 238.159 139.757L222.759 125.067L220.044 127.197Z" fill="#2F7DED"/>
<path d="M212.867 123.978L196.825 111.292C196.71 111.664 196.646 112.06 196.646 112.473V136.834C196.646 137.638 196.944 138.364 197.422 138.904C197.453 138.793 197.502 138.687 197.588 138.605L212.867 123.978Z" fill="#2F7DED"/>
<path d="M239.22 139.028C239.254 139.061 239.274 139.104 239.301 139.143C239.92 138.592 240.324 137.768 240.324 136.836V113.269C240.324 112.655 240.21 112.071 240.005 111.537L223.76 124.282L239.22 139.028Z" fill="#2F7DED"/>
<g opacity="0.69">
<path d="M240.392 200.349H208.757C206.883 200.349 205.359 198.709 205.359 196.692V176.933C205.359 174.504 207.195 172.528 209.452 172.528H238.958C241.622 172.528 243.79 174.86 243.79 177.728V196.692C243.79 198.709 242.265 200.349 240.392 200.349ZM209.452 173.833C207.863 173.833 206.57 175.223 206.57 176.933V196.692C206.57 197.989 207.551 199.045 208.756 199.045H240.391C241.596 199.045 242.577 197.989 242.577 196.692V177.728C242.577 175.58 240.953 173.833 238.957 173.833H209.452Z" fill="white"/>
<path d="M220.276 185.578L206.702 198.581L207.508 199.555L221.082 186.552L220.276 185.578Z" fill="white"/>
<path d="M228.729 185.997L227.925 186.973L241.484 199.905L242.287 198.93L228.729 185.997Z" fill="white"/>
<path d="M224.577 189.486C224.092 189.486 223.607 189.323 223.193 188.996L206 175.4L206.717 174.349L223.91 187.945C224.307 188.258 224.841 188.259 225.24 187.948L243.052 173.974L243.766 175.027L225.954 189.001C225.543 189.324 225.06 189.486 224.577 189.486Z" fill="white"/>
</g>
<path d="M240.092 117.048C244.296 117.048 247.704 113.38 247.704 108.856C247.704 104.332 244.296 100.664 240.092 100.664C235.887 100.664 232.479 104.332 232.479 108.856C232.479 113.38 235.887 117.048 240.092 117.048Z" fill="#FFA000"/>
<path d="M238.406 112.021H237.571V106.6L236.725 107.159V106.23L237.571 105.623H238.406V112.021Z" fill="white"/>
<path d="M240.187 111.608C239.899 111.288 239.755 110.843 239.755 110.271V107.362C239.755 106.787 239.9 106.34 240.189 106.022C240.478 105.704 240.899 105.545 241.452 105.545C242.008 105.545 242.43 105.703 242.717 106.02C243.005 106.337 243.149 106.785 243.149 107.362V110.271C243.149 110.846 243.005 111.293 242.716 111.611C242.427 111.929 242.005 112.088 241.452 112.088C240.896 112.088 240.474 111.928 240.187 111.608ZM242.104 110.985C242.245 110.82 242.315 110.581 242.315 110.271V107.362C242.315 107.051 242.245 106.813 242.107 106.647C241.968 106.481 241.749 106.399 241.452 106.399C241.155 106.399 240.937 106.481 240.798 106.647C240.659 106.813 240.589 107.051 240.589 107.362V110.271C240.589 110.582 240.66 110.821 240.8 110.985C240.94 111.151 241.158 111.234 241.452 111.234C241.747 111.234 241.964 111.152 242.104 110.985Z" fill="white"/>
<path d="M71.1435 106.569C70.7278 106.569 70.3224 106.389 70.0212 106.052L64.8908 100.321C64.5496 99.9404 64.0727 99.7226 63.5824 99.7226L13.1772 99.6594C10.3793 99.6594 8.10254 97.2094 8.10254 94.1986V73.6317C8.10254 70.6202 10.3793 68.1709 13.1778 68.1709H66.9306C70.1169 68.1709 72.7094 70.96 72.7094 74.3888V104.886C72.7094 105.575 72.3252 106.188 71.7313 106.446C71.5404 106.528 71.3411 106.569 71.1435 106.569ZM13.1778 69.4751C11.0471 69.4751 9.31454 71.3395 9.31454 73.6317V94.1986C9.31454 96.4908 11.0471 98.3552 13.1778 98.3552L63.583 98.4184C64.4011 98.4184 65.1956 98.7823 65.764 99.4168L70.8938 105.148C71.0423 105.314 71.212 105.264 71.2786 105.236C71.3447 105.207 71.498 105.116 71.498 104.885V74.3881C71.498 71.6786 69.4491 69.4745 66.9312 69.4745H13.1778V69.4751Z" fill="#2F7DED"/>
<path d="M58.5664 80.3316H45.6519C45.3168 80.3316 45.0459 80.0394 45.0459 79.6795C45.0459 79.3195 45.3168 79.0273 45.6519 79.0273H58.5664C58.9015 79.0273 59.1724 79.3195 59.1724 79.6795C59.1724 80.0394 58.9015 80.3316 58.5664 80.3316Z" fill="#FFA000"/>
<path d="M37.7891 80.3316H18.0196C17.6845 80.3316 17.4136 80.0394 17.4136 79.6795C17.4136 79.3195 17.6845 79.0273 18.0196 79.0273H37.7891C38.1242 79.0273 38.3951 79.3195 38.3951 79.6795C38.3951 80.0394 38.1242 80.3316 37.7891 80.3316Z" fill="#FFA000"/>
<path d="M58.566 85.2827H26.0396C25.7045 85.2827 25.4336 84.9906 25.4336 84.6306C25.4336 84.2707 25.7045 83.9785 26.0396 83.9785H58.5666C58.9018 83.9785 59.1726 84.2707 59.1726 84.6306C59.172 84.9906 58.9012 85.2827 58.566 85.2827Z" fill="#FFA000"/>
<path d="M58.5675 90.2349H37.0157C36.6805 90.2349 36.4097 89.9427 36.4097 89.5828C36.4097 89.2228 36.6805 88.9307 37.0157 88.9307H58.5675C58.9026 88.9307 59.1735 89.2228 59.1735 89.5828C59.1735 89.9427 58.9026 90.2349 58.5675 90.2349Z" fill="#FFA000"/>
<path d="M64.2173 71.4933H46.7063C46.1476 71.4933 45.6125 71.7378 45.2247 72.1715L40.8681 77.0382C40.3609 77.6049 39.4707 77.2182 39.4707 76.4317V69.0492V50.5351C39.4707 47.9247 41.4372 45.8086 43.863 45.8086H64.9148C66.8886 45.8086 68.489 47.5308 68.489 49.6547V66.8972C68.4878 69.4359 66.5759 71.4933 64.2173 71.4933Z" fill="#FFA000"/>
<path d="M48.708 59.2207C48.708 60.1122 48.0365 60.8341 47.2087 60.8341C46.3803 60.8341 45.7095 60.1115 45.7095 59.2207C45.7095 58.33 46.3809 57.6074 47.2087 57.6074C48.0365 57.6074 48.708 58.33 48.708 59.2207Z" fill="white"/>
<path d="M55.7353 59.2207C55.7353 60.1122 55.0639 60.8341 54.2361 60.8341C53.4083 60.8341 52.7368 60.1115 52.7368 59.2207C52.7368 58.33 53.4083 57.6074 54.2361 57.6074C55.0645 57.6074 55.7353 58.33 55.7353 59.2207Z" fill="white"/>
<path d="M61.428 60.8341C62.256 60.8341 62.9272 60.1118 62.9272 59.2207C62.9272 58.3297 62.256 57.6074 61.428 57.6074C60.5999 57.6074 59.9287 58.3297 59.9287 59.2207C59.9287 60.1118 60.5999 60.8341 61.428 60.8341Z" fill="white"/>
<path d="M64.4562 136.465C69.2349 126.205 65.3801 113.72 55.8461 108.577C46.3121 103.435 34.7093 107.583 29.9305 117.843C25.1518 128.102 29.0067 140.588 38.5407 145.73C48.0746 150.872 59.6774 146.724 64.4562 136.465Z" fill="#2F7DED"/>
<path d="M47.1908 138.562C45.0589 138.562 43.267 136.845 43.0221 134.569L42.9434 133.842H51.4377L51.3589 134.569C51.1141 136.846 49.3215 138.562 47.1908 138.562ZM44.385 135.146C44.8044 136.39 45.9122 137.258 47.1908 137.258C48.4689 137.258 49.5766 136.39 49.996 135.146H44.385Z" fill="white"/>
<path d="M54.6478 130.828H39.7329V123.457C39.7329 119.209 42.9447 115.752 46.8922 115.752H47.4867C51.4348 115.752 54.6472 119.208 54.6472 123.457L54.6478 130.828ZM40.9449 129.524H53.4352V123.457C53.4352 119.928 50.767 117.056 47.4867 117.056H46.8922C43.6125 117.056 40.9449 119.927 40.9449 123.457V129.524Z" fill="white"/>
<path d="M54.0451 135.143H40.3361C38.9441 135.143 37.8115 133.925 37.8115 132.427V132.239C37.8115 130.742 38.9441 129.523 40.3361 129.523H54.0451C55.437 129.523 56.5696 130.742 56.5696 132.239V132.427C56.5696 133.925 55.437 135.143 54.0451 135.143ZM40.3398 130.828C39.6126 130.828 39.0235 131.462 39.0235 132.24V132.428C39.0235 133.207 39.6126 133.84 40.3361 133.84H54.0451C54.7686 133.84 55.3576 133.207 55.3576 132.428V132.24C55.3576 131.462 54.7686 130.828 54.0451 130.828H40.3398Z" fill="white"/>
<path d="M84.4703 32.7615C89.2051 27.6664 89.2051 19.4058 84.4703 14.3108C79.7355 9.21578 72.0589 9.21579 67.3241 14.3108C62.5893 19.4058 62.5893 27.6665 67.3241 32.7615C72.0589 37.8565 79.7355 37.8565 84.4703 32.7615Z" fill="#2F7DED"/>
<path d="M75.2241 18.375H76.57V26.0517H75.2241V18.375ZM75.2241 27.2522H76.57V28.7005H75.2241V27.2522Z" fill="white"/>
<path d="M239.491 52.6504H175.922C172.543 52.6504 169.805 55.5973 169.805 59.2328V85.0173V95.2991C169.805 96.3947 171.045 96.9333 171.751 96.1436L177.818 89.3662C178.358 88.763 179.104 88.4219 179.882 88.4219L239.49 88.3476C242.41 88.3476 244.775 85.8011 244.775 82.6605V58.3381C244.776 55.1962 242.41 52.6504 239.491 52.6504Z" fill="#FFA000"/>
<path d="M201.087 66.1411H185.814C185.479 66.1411 185.208 65.849 185.208 65.489C185.208 65.1291 185.479 64.8369 185.814 64.8369H201.087C201.422 64.8369 201.693 65.1291 201.693 65.489C201.693 65.849 201.422 66.1411 201.087 66.1411Z" fill="white"/>
<path d="M233.767 66.1411H210.387C210.052 66.1411 209.781 65.849 209.781 65.489C209.781 65.1291 210.052 64.8369 210.387 64.8369H233.767C234.102 64.8369 234.373 65.1291 234.373 65.489C234.373 65.849 234.101 66.1411 233.767 66.1411Z" fill="white"/>
<path d="M224.281 71.9956H185.814C185.478 71.9956 185.208 71.7035 185.208 71.3435C185.208 70.9836 185.478 70.6914 185.814 70.6914H224.281C224.616 70.6914 224.887 70.9836 224.887 71.3435C224.887 71.7035 224.616 71.9956 224.281 71.9956Z" fill="white"/>
<path d="M211.302 77.8521H185.814C185.479 77.8521 185.208 77.5599 185.208 77.2C185.208 76.84 185.479 76.5479 185.814 76.5479H211.302C211.637 76.5479 211.908 76.84 211.908 77.2C211.908 77.5599 211.637 77.8521 211.302 77.8521Z" fill="white"/>
<path d="M158.67 54.0156H176.381C176.946 54.0156 177.487 54.2634 177.879 54.701L182.285 59.6231C182.799 60.1963 183.699 59.8057 183.699 59.0095V51.5428V32.8181C183.699 30.1777 181.71 28.0381 179.257 28.0381H157.965C155.969 28.0381 154.351 29.7799 154.351 31.9279V49.3673C154.35 51.9347 156.284 54.0156 158.67 54.0156Z" fill="#2F7DED"/>
<path d="M174.355 41.6033C174.355 42.5045 175.034 43.2348 175.871 43.2348C176.709 43.2348 177.387 42.5045 177.387 41.6033C177.387 40.702 176.709 39.9717 175.871 39.9717C175.034 39.971 174.355 40.702 174.355 41.6033Z" fill="white"/>
<path d="M167.247 41.6033C167.247 42.5045 167.926 43.2348 168.763 43.2348C169.601 43.2348 170.279 42.5045 170.279 41.6033C170.279 40.702 169.601 39.9717 168.763 39.9717C167.926 39.971 167.247 40.702 167.247 41.6033Z" fill="white"/>
<path d="M159.973 41.6033C159.973 42.5045 160.652 43.2348 161.489 43.2348C162.327 43.2348 163.006 42.5045 163.006 41.6033C163.006 40.702 162.327 39.9717 161.489 39.9717C160.652 39.971 159.973 40.702 159.973 41.6033Z" fill="white"/>
<path d="M248.856 64.4773C252.532 60.5214 252.532 54.1075 248.856 50.1516C245.18 46.1957 239.219 46.1957 235.543 50.1516C231.867 54.1075 231.867 60.5214 235.543 64.4773C239.219 68.4332 245.18 68.4332 248.856 64.4773Z" fill="#2F7DED"/>
<path d="M243.28 62.043H241.985V53.6262L240.671 54.4941V53.0523L241.985 52.1094H243.28V62.043Z" fill="white"/>
<g opacity="0.61">
<path d="M160.64 204.333H144.778C144.443 204.333 144.172 204.041 144.172 203.68C144.172 203.32 144.443 203.028 144.778 203.028H160.64C160.975 203.028 161.246 203.32 161.246 203.68C161.246 204.04 160.975 204.333 160.64 204.333Z" fill="white"/>
<path d="M194.581 204.333H170.298C169.963 204.333 169.692 204.041 169.692 203.68C169.692 203.32 169.963 203.028 170.298 203.028H194.58C194.915 203.028 195.186 203.32 195.186 203.68C195.187 204.04 194.915 204.333 194.581 204.333Z" fill="white"/>
<path d="M184.73 210.414H144.778C144.443 210.414 144.172 210.122 144.172 209.761C144.172 209.401 144.443 209.109 144.778 209.109H184.73C185.065 209.109 185.336 209.401 185.336 209.761C185.336 210.121 185.065 210.414 184.73 210.414Z" fill="white"/>
<path d="M171.249 216.498H144.778C144.443 216.498 144.172 216.206 144.172 215.845C144.172 215.485 144.443 215.193 144.778 215.193H171.249C171.584 215.193 171.855 215.485 171.855 215.845C171.855 216.206 171.584 216.498 171.249 216.498Z" fill="white"/>
<path d="M58.4066 194.709H17.4131C17.078 194.709 16.8071 194.417 16.8071 194.056C16.8071 193.696 17.078 193.404 17.4131 193.404H58.4066C58.7417 193.404 59.0126 193.696 59.0126 194.056C59.0126 194.417 58.7417 194.709 58.4066 194.709Z" fill="white"/>
<path d="M58.4066 181.079H17.4131C17.078 181.079 16.8071 180.787 16.8071 180.427C16.8071 180.066 17.078 179.774 17.4131 179.774H58.4066C58.7417 179.774 59.0126 180.066 59.0126 180.427C59.0126 180.787 58.7417 181.079 58.4066 181.079Z" fill="white"/>
<path d="M58.4056 187.896H36.3047C35.9696 187.896 35.6987 187.605 35.6987 187.244C35.6987 186.883 35.9696 186.592 36.3047 186.592H58.4056C58.7407 186.592 59.0116 186.883 59.0116 187.244C59.0116 187.605 58.7407 187.896 58.4056 187.896Z" fill="white"/>
<path d="M58.4056 173.85H36.3047C35.9696 173.85 35.6987 173.559 35.6987 173.198C35.6987 172.837 35.9696 172.546 36.3047 172.546H58.4056C58.7407 172.546 59.0116 172.837 59.0116 173.198C59.0116 173.559 58.7407 173.85 58.4056 173.85Z" fill="white"/>
<path d="M58.4062 167.346H43.501C43.1659 167.346 42.895 167.055 42.895 166.694C42.895 166.333 43.1659 166.042 43.501 166.042H58.4062C58.7413 166.042 59.0122 166.333 59.0122 166.694C59.0122 167.055 58.7413 167.346 58.4062 167.346Z" fill="white"/>
</g>
<path d="M148.951 68.7355C148.934 68.727 148.888 68.7264 148.899 68.71C156.324 58.0565 147.031 43.9129 138.935 43.039C136.176 39.3396 132.477 36.3484 127.98 34.5583C125.6 33.6108 123.154 33.0885 120.717 32.947C120.673 26.3522 115.695 21.0205 109.556 21.0205C103.39 21.0205 98.392 26.3991 98.392 33.0343C98.392 36.1201 99.4822 38.9249 101.26 41.0527C99.4616 43.0136 97.9182 45.2895 96.7231 47.8523C96.4407 48.4581 96.1892 49.0711 95.9523 49.6867C86.8938 49.358 79.1109 56.7399 78.3953 66.5607C77.8892 73.5076 81.0495 79.8527 86.126 83.3949C83.0445 85.1432 81.0944 87.5515 80.8914 90.3399C80.655 93.5842 82.8324 96.7163 86.5247 99.1395C85.76 100.798 85.3334 102.628 85.3334 104.554C85.3334 112.021 91.7103 118.075 99.5762 118.075C104.893 118.075 109.526 115.307 111.973 111.209C113.672 112.397 115.549 113.493 117.578 114.443C128.059 119.352 138.48 118.572 140.854 112.703C141.496 111.114 141.479 109.315 140.91 107.44C141.541 107.325 142.16 107.172 142.764 106.964C163.944 99.6853 166.8 77.4333 148.951 68.7355Z" fill="#233863"/>
<path d="M152.939 165.963L151.523 161.663L162.148 155.143L162.482 154.938V153.821C162.482 132.81 149.935 115.776 134.457 115.776H118.026L118.238 116.198L89.2605 116.449C82.0357 116.512 75.9115 122.097 73.5275 129.905L53.1162 178.931L56.0535 179.318L72.7936 181.522L73.1718 231.358L144.943 231.378L147.312 190.71L150.01 185.967L151.311 183.681C154.261 178.494 154.873 171.833 152.939 165.963Z" fill="#2F7DED"/>
<path d="M92.9172 184.395L75.9195 182.262C75.7534 182.242 75.634 182.08 75.6534 181.901C75.6728 181.721 75.8273 181.599 75.9898 181.614L92.4499 183.679L97.1234 161.976C97.1616 161.801 97.324 161.692 97.4876 161.732C97.6506 161.773 97.7524 161.948 97.7143 162.124L92.9172 184.395Z" fill="#374081"/>
<path d="M110.657 137.707C100.745 137.707 92.6816 129.03 92.6816 118.364V116.182C92.6816 115.92 92.878 115.709 93.121 115.709C93.364 115.709 93.5603 115.92 93.5603 116.182V118.364C93.5603 128.509 101.23 136.762 110.657 136.762C120.084 136.762 127.753 128.509 127.753 118.364V116.182C127.753 115.92 127.949 115.709 128.192 115.709C128.435 115.709 128.631 115.92 128.631 116.182V118.364C128.631 129.03 120.568 137.707 110.657 137.707Z" fill="#233863"/>
<path d="M98.6591 127.18C98.5185 127.18 98.3803 127.107 98.2955 126.973C96.6229 124.315 95.7388 121.207 95.7388 117.984V116.182C95.7388 115.92 95.9351 115.709 96.1781 115.709C96.4205 115.709 96.6175 115.92 96.6175 116.182V117.984C96.6175 121.017 97.4495 123.943 99.0233 126.443C99.1596 126.659 99.1063 126.953 98.9057 127.099C98.83 127.154 98.7439 127.18 98.6591 127.18Z" fill="#233863"/>
<path d="M110.657 134.037C107.24 134.037 104.025 132.828 101.361 130.54C101.172 130.378 101.14 130.081 101.292 129.877C101.444 129.672 101.721 129.641 101.909 129.802C104.416 131.953 107.441 133.091 110.657 133.091C113.869 133.091 116.891 131.956 119.398 129.809C119.586 129.644 119.864 129.68 120.015 129.884C120.167 130.088 120.135 130.385 119.945 130.548C117.282 132.831 114.07 134.037 110.657 134.037Z" fill="#233863"/>
<path d="M123.257 126.141C123.183 126.141 123.109 126.121 123.04 126.079C122.829 125.95 122.755 125.662 122.875 125.435C124.067 123.174 124.698 120.599 124.698 117.984V116.182C124.698 115.92 124.894 115.709 125.137 115.709C125.38 115.709 125.576 115.92 125.576 116.182V117.984C125.576 120.762 124.907 123.499 123.639 125.901C123.558 126.055 123.41 126.141 123.257 126.141Z" fill="#233863"/>
<path d="M153.394 244.555L142.074 226.235C139.492 222.674 138.007 218.355 134.998 217.474L132.97 216.918L132.983 216.884L82.2094 203.307L86.3981 183.31L56.0532 179.315L46.682 212.576C46.07 215.444 46.0997 218.308 46.6687 220.997C48.1279 229.399 54.9 236.034 63.3804 236.194L116.915 236.05C122.475 242.315 139.86 255.142 139.86 255.142C140.679 255.908 141.932 255.815 142.645 254.934C143.11 254.358 143.228 253.585 143.031 252.902C143.12 252.885 143.173 252.873 143.173 252.873C143.229 252.89 143.275 252.897 143.329 252.913L144.072 253.688C144.933 254.589 146.324 254.566 147.16 253.638L147.213 253.58C147.588 253.164 147.782 252.632 147.814 252.093L147.829 252.111C148.669 253.035 150.059 253.052 150.918 252.148L150.973 252.09C151.832 251.187 151.847 249.691 151.007 248.767L150.798 248.536C150.769 248.452 150.739 248.37 150.708 248.29C151.532 248.789 152.598 248.681 153.306 247.935L153.361 247.878C154.219 246.975 154.234 245.479 153.394 244.555Z" fill="#FFBA94"/>
<path d="M150.876 248.638C150.797 248.638 150.718 248.606 150.659 248.54L143.926 241.13C143.809 241.001 143.812 240.795 143.931 240.669C144.052 240.544 144.244 240.545 144.359 240.674L151.093 248.085C151.21 248.213 151.208 248.42 151.088 248.546C151.028 248.607 150.952 248.638 150.876 248.638Z" fill="#FB8E77"/>
<path d="M147.299 251.547C147.22 251.547 147.141 251.514 147.083 251.449L140.349 244.039C140.232 243.91 140.235 243.703 140.354 243.578C140.475 243.453 140.667 243.454 140.783 243.583L147.516 250.993C147.633 251.122 147.63 251.329 147.511 251.454C147.452 251.516 147.375 251.547 147.299 251.547Z" fill="#FB8E77"/>
<path d="M143.048 253.058C142.972 253.058 142.896 253.028 142.838 252.967L135.9 245.778C135.779 245.654 135.775 245.447 135.891 245.317C136.008 245.188 136.2 245.185 136.32 245.308L143.258 252.497C143.378 252.621 143.382 252.828 143.266 252.958C143.206 253.024 143.127 253.058 143.048 253.058Z" fill="#FB8E77"/>
<path d="M87.2924 204.992C87.2615 204.992 87.2299 204.987 87.1996 204.977L71.5727 199.573C71.4133 199.518 71.3261 199.335 71.3776 199.162C71.4279 198.991 71.6 198.897 71.7588 198.952L87.3857 204.356C87.5451 204.411 87.6323 204.595 87.5808 204.767C87.5396 204.904 87.4208 204.992 87.2924 204.992Z" fill="#FB8E77"/>
<path d="M125.22 59.6494C122.237 60.1313 119.407 63.0991 117.14 66.3609C116.789 66.865 116.406 67.3267 115.994 67.7447C112.959 70.8266 108.552 71.1279 105.122 69.1096L104.287 68.9498C100.567 68.2364 97.0143 70.9036 96.3514 74.9069L96.329 75.0432C95.666 79.0465 98.1445 82.8691 101.865 83.5825L103.547 83.9053L103.104 86.581C102.837 88.193 102.765 89.7939 102.866 91.3564L98.9584 114.961C97.827 121.795 102.057 128.321 108.408 129.539C114.758 130.756 120.823 126.204 121.954 119.37L123.515 109.943C132.136 109.983 139.794 103.36 141.358 93.9146L141.657 92.1056L145.368 69.6945C141.191 69.1396 126.413 66.6844 125.22 59.6494Z" fill="#FFBA94"/>
<path opacity="0.46" d="M120.702 107.836L120.367 107.772C111.326 106.039 105.062 97.3482 105.487 87.7335C105.557 86.1599 104.827 84.6712 103.547 83.9062L103.104 86.5819C102.126 92.4867 103.739 98.2423 107.063 102.502L121.783 120.537L123.509 110.112L123.146 109.944C131.917 110.178 139.772 103.496 141.357 93.9155L141.657 92.1065C139.907 102.677 130.525 109.719 120.702 107.836Z" fill="#FB8E77"/>
<path d="M123.508 102.743C123.428 102.743 123.348 102.709 123.289 102.642C123.175 102.511 123.179 102.305 123.3 102.181C123.317 102.164 125.037 100.44 127.06 101.584C127.207 101.668 127.265 101.866 127.187 102.025C127.109 102.185 126.925 102.245 126.778 102.162C125.143 101.237 123.775 102.596 123.717 102.654C123.658 102.713 123.584 102.743 123.508 102.743Z" fill="#FB8E77"/>
<path d="M128.403 81.2819C128.294 81.9425 127.707 82.3826 127.093 82.2646C126.479 82.1472 126.07 81.516 126.18 80.8554C126.29 80.1948 126.876 79.7546 127.489 79.8727C128.103 79.9907 128.512 80.6213 128.403 81.2819Z" fill="#233863"/>
<path d="M141.763 83.8444C141.653 84.505 141.067 84.9451 140.453 84.8271C139.84 84.7097 139.431 84.0785 139.54 83.4179C139.649 82.7573 140.236 82.3171 140.85 82.4352C141.463 82.5532 141.872 83.1838 141.763 83.8444Z" fill="#233863"/>
<path d="M130.911 90.4712C130.359 90.4712 129.711 90.3642 128.956 90.0968C128.796 90.0408 128.71 89.8562 128.763 89.6854C128.816 89.5139 128.987 89.4213 129.145 89.4773C131.693 90.3805 132.783 89.2543 133.132 88.7281C133.195 88.6322 133.221 88.5135 133.204 88.3942L131.904 79.2059C131.879 79.0279 131.992 78.8616 132.158 78.8349C132.32 78.8075 132.478 78.9294 132.503 79.1081L133.803 88.297C133.844 88.5846 133.781 88.8722 133.625 89.107C133.308 89.5843 132.504 90.4712 130.911 90.4712Z" fill="#FB8E77"/>
<path d="M122.324 97.5247L119.984 96.0711C117.086 94.2706 116.092 90.2823 117.766 87.1633L117.939 86.8418L126.831 92.3665L124.382 96.9319C123.966 97.7066 123.044 97.972 122.324 97.5247Z" fill="white"/>
<path d="M123.724 87.0836C119.825 87.0836 116.652 83.673 116.647 79.4767C116.643 75.2778 119.815 71.8581 123.717 71.8535C123.719 71.8535 123.722 71.8535 123.724 71.8535C125.612 71.8535 127.387 72.6432 128.723 74.0785C130.061 75.5158 130.799 77.4271 130.801 79.461C130.805 83.66 127.633 87.0797 123.732 87.0836C123.729 87.0836 123.726 87.0836 123.724 87.0836ZM117.859 79.4754C117.863 82.9531 120.493 85.7793 123.724 85.7793C123.726 85.7793 123.728 85.7793 123.731 85.7793C126.964 85.7761 129.592 82.942 129.589 79.4617C129.587 77.776 128.975 76.192 127.866 75.0013C126.759 73.8125 125.289 73.1577 123.724 73.1577C123.722 73.1577 123.72 73.1577 123.718 73.1577C120.484 73.1617 117.856 75.9951 117.859 79.4754Z" fill="white"/>
<path d="M139.815 90.454C135.917 90.454 132.743 87.0435 132.738 82.8471C132.734 78.6482 135.906 75.2285 139.807 75.2246C139.81 75.2246 139.813 75.2246 139.815 75.2246C143.714 75.2246 146.887 78.6352 146.892 82.8315C146.896 87.0304 143.724 90.4501 139.822 90.4547C139.819 90.454 139.818 90.454 139.815 90.454ZM133.95 82.8452C133.954 86.3229 136.585 89.1491 139.815 89.1491C139.818 89.1491 139.819 89.1491 139.821 89.1491C143.055 89.1452 145.683 86.3112 145.68 82.8315C145.676 79.3538 143.046 76.5275 139.815 76.5275C139.813 76.5275 139.811 76.5275 139.808 76.5275C136.575 76.5314 133.947 79.3655 133.95 82.8452Z" fill="white"/>
<path d="M133.16 81.9927C133.14 81.9927 133.121 81.9921 133.1 81.9895L130.58 81.7254C130.247 81.6908 130.003 81.3712 130.036 81.0132C130.068 80.6546 130.361 80.3885 130.697 80.4276L133.218 80.6918C133.551 80.7263 133.795 81.0458 133.762 81.4039C133.732 81.7403 133.468 81.9927 133.16 81.9927Z" fill="white"/>
<path d="M122.793 69.3186C123.179 69.4718 123.665 69.3929 124.139 69.346C124.614 69.2879 125.094 69.2416 125.511 69.2182C125.93 69.194 126.411 69.1836 126.891 69.1869C127.366 69.179 127.86 69.2006 128.222 69.0036C128.573 68.8191 128.696 68.3424 128.242 67.792C127.815 67.2547 126.74 66.7062 125.354 66.7825C123.971 66.8667 122.974 67.5357 122.619 68.1181C122.239 68.7173 122.422 69.1758 122.793 69.3186Z" fill="#233863"/>
<path d="M143.665 73.143C143.254 73.1371 142.826 72.8756 142.4 72.6487C141.976 72.41 141.544 72.1824 141.162 71.9985C140.779 71.814 140.333 71.6184 139.886 71.4358C139.444 71.2441 138.977 71.0738 138.703 70.7504C138.437 70.4426 138.482 69.9503 139.09 69.6118C139.668 69.2753 140.855 69.1795 142.122 69.7866C143.385 70.3996 144.092 71.409 144.229 72.0905C144.383 72.7961 144.06 73.1541 143.665 73.143Z" fill="#233863"/>
<path d="M100.588 78.369C100.453 78.369 100.33 78.2712 100.295 78.1238C100.253 77.9491 100.351 77.7717 100.513 77.7267L102.672 77.1294L101.691 73.2343C101.648 73.0602 101.743 72.8815 101.904 72.8346C102.068 72.785 102.232 72.89 102.276 73.0641L103.417 77.5976L100.662 78.3592C100.638 78.3658 100.613 78.369 100.588 78.369Z" fill="#FB8E77"/>
<path d="M177.641 143.259H160.943C159.308 143.259 157.983 141.834 157.983 140.075V105.541C157.983 103.782 159.308 102.356 160.943 102.356H177.641C179.275 102.356 180.6 103.782 180.6 105.541V140.075C180.601 141.833 179.275 143.259 177.641 143.259Z" fill="#233863"/>
<path d="M191.944 173.412L190.087 137.162L190.527 132.764C191.144 126.61 189.458 120.458 185.88 115.613C185.539 115.152 185.203 114.694 184.869 114.26V108.345C184.869 107.053 183.896 106.007 182.697 106.007C181.539 106.007 180.601 107.016 180.601 108.262V110.507C180.601 114.776 177.388 118.238 173.421 118.244L167.149 118.253L157.764 117.391C156.543 117.279 155.459 118.261 155.355 119.575C155.27 120.653 155.874 121.622 156.768 122.001C156.685 122.027 156.602 122.056 156.518 122.088L156.257 122.064C155.036 121.952 153.952 122.934 153.848 124.248C153.744 125.562 154.657 126.728 155.877 126.84L155.883 126.841C155.501 127.219 155.233 127.733 155.171 128.327C155.035 129.637 155.92 130.829 157.137 130.976L158.123 131.094C158.168 131.129 158.21 131.164 158.258 131.2C158.258 131.2 158.283 131.252 158.327 131.337C157.711 131.607 157.23 132.198 157.113 132.953C156.934 134.108 157.665 135.21 158.738 135.403C158.738 135.403 165.639 137.849 168.619 138.753L166.096 152.814L165.558 155.812L162.146 155.144L151.521 161.664L152.938 165.964C154.871 171.834 154.259 178.496 151.309 183.682L150.008 185.969L155.199 188.263C161.751 191.159 171.232 194.171 178.253 192.378C180.531 191.796 182.297 191.092 183.67 190.261C188.726 187.42 192.242 180.935 191.944 173.412Z" fill="#FFBA94"/>
<path d="M166.248 123.089C166.239 123.089 166.23 123.089 166.221 123.088L156.603 122.204C156.437 122.189 156.312 122.031 156.327 121.852C156.341 121.673 156.495 121.54 156.655 121.555L166.273 122.438C166.439 122.453 166.563 122.612 166.549 122.791C166.535 122.961 166.403 123.089 166.248 123.089Z" fill="#FB8E77"/>
<path d="M166.436 127.919C166.427 127.919 166.419 127.919 166.409 127.918L156.791 127.035C156.625 127.02 156.501 126.861 156.515 126.682C156.529 126.503 156.681 126.369 156.843 126.385L166.462 127.269C166.628 127.284 166.751 127.442 166.737 127.621C166.724 127.791 166.592 127.919 166.436 127.919Z" fill="#FB8E77"/>
<path d="M168.027 132.736C168.015 132.736 168.004 132.736 167.992 132.734L158.402 131.538C158.236 131.517 158.117 131.356 158.136 131.177C158.156 130.998 158.311 130.871 158.473 130.891L168.062 132.087C168.228 132.108 168.347 132.269 168.328 132.448C168.31 132.614 168.179 132.736 168.027 132.736Z" fill="#FB8E77"/>
<path d="M161.628 173.184C161.606 173.184 161.582 173.181 161.558 173.175C161.395 173.133 161.295 172.958 161.334 172.782L166.142 150.839C166.18 150.664 166.338 150.552 166.507 150.597C166.669 150.638 166.77 150.813 166.732 150.989L161.923 172.933C161.89 173.083 161.766 173.184 161.628 173.184Z" fill="#FB8E77"/>
<path d="M151.378 162.126L145.252 146.871C145.186 146.706 145.257 146.513 145.411 146.442C145.563 146.37 145.742 146.446 145.809 146.613L151.666 161.198L162.331 154.654C162.476 154.566 162.662 154.619 162.745 154.776C162.828 154.932 162.777 155.132 162.632 155.221L151.378 162.126Z" fill="#374081"/>
</svg>
