<svg width="32" height="33" viewBox="0 0 32 33" fill="none" xmlns="http://www.w3.org/2000/svg">
<g id="streamline:insurance-hand-solid">
<path id="Vector" d="M6.21259 13.25H6.21257H2.5V21.6857L6.53184 25.7176L6.53189 25.7176C7.33453 26.5205 8.28748 27.1574 9.3363 27.5919C10.3851 28.0264 11.5093 28.25 12.6446 28.25H26C26.7767 28.25 27.5216 27.9415 28.0708 27.3922C28.62 26.843 28.9286 26.0981 28.9286 25.3214C28.9286 24.5447 28.62 23.7998 28.0708 23.2506C27.5216 22.7014 26.7767 22.3929 26 22.3929H20.0119C19.733 23.1354 19.2912 23.8078 18.717 24.3596C18.0519 24.9987 17.2321 25.4541 16.338 25.681C15.4439 25.9078 14.5062 25.8985 13.6169 25.6538C12.7275 25.4091 11.9169 24.9376 11.2647 24.2853C11.2647 24.2853 11.2647 24.2853 11.2647 24.2852L7.95045 20.971C7.77134 20.7919 7.62927 20.5792 7.53234 20.3452C7.43542 20.1112 7.38553 19.8604 7.38553 19.6071C7.38553 19.3539 7.43542 19.103 7.53235 18.869C7.62927 18.635 7.77134 18.4224 7.95045 18.2433C8.12955 18.0642 8.34218 17.9221 8.57618 17.8252L8.76752 18.2871L8.57618 17.8252C8.81019 17.7283 9.061 17.6784 9.31429 17.6784C9.56757 17.6784 9.81838 17.7283 10.0524 17.8252C10.2864 17.9221 10.499 18.0642 10.6781 18.2433L13.992 21.5572L6.21259 13.25ZM6.21259 13.25C7.34786 13.25 8.47201 13.4736 9.52084 13.9081C10.5697 14.3426 11.5226 14.9795 12.3253 15.7824L12.3253 15.7824M6.21259 13.25L12.3253 15.7824M12.3253 15.7824L16.2414 19.6985C16.4398 19.9918 16.5255 20.3475 16.4819 20.6998C16.4367 21.0647 16.256 21.3993 15.9756 21.6373C15.6952 21.8752 15.3356 21.999 14.9682 21.9842C14.6009 21.9693 14.2527 21.8171 13.9924 21.5576L12.3253 15.7824Z" stroke="#1877F2"/>
<path id="Vector_2" d="M15.843 5.78922L15.843 5.78932C15.7172 5.95342 15.5733 6.21008 15.3563 6.59915C15.3563 6.59916 15.3563 6.59918 15.3563 6.5992L15.2473 6.79478L15.2473 6.79481L15.2277 6.83004L15.2276 6.83011L15.2226 6.83914C15.1269 7.01154 15.0329 7.18076 14.8794 7.29713C14.7246 7.41479 14.5384 7.4567 14.3519 7.49866C14.3479 7.49956 14.344 7.50045 14.34 7.50134C14.34 7.50135 14.3399 7.50136 14.3399 7.50137L14.3022 7.50998L14.302 7.51001L14.09 7.55801L14.09 7.55801C13.6681 7.6535 13.3924 7.71669 13.2067 7.79014L13.2064 7.79024C13.1166 7.82548 13.0706 7.85456 13.0469 7.87508C13.0263 7.89289 13.0222 7.90425 13.0197 7.91234L13.0197 7.91245C13.0196 7.91265 13.0195 7.91286 13.0195 7.9131C13.0158 7.92457 13.0001 7.97343 13.1056 8.14158C13.2164 8.31724 13.4054 8.53926 13.6922 8.87512L15.843 5.78922ZM15.843 5.78922C15.9052 5.70794 15.9468 5.67107 15.9717 5.6546C15.9835 5.64676 15.9906 5.64419 15.9935 5.64333C15.996 5.6426 15.9974 5.64248 15.9996 5.64248C16.0018 5.64248 16.0031 5.64259 16.0056 5.64331C16.0084 5.64416 16.0155 5.64673 16.0273 5.65458C16.0522 5.67106 16.0939 5.70798 16.1562 5.78932C16.282 5.95342 16.4259 6.2101 16.6429 6.5992L16.643 6.59926L16.7519 6.79415L16.7523 6.79493L16.7712 6.82948L16.7715 6.8301C16.7739 6.83428 16.7762 6.83846 16.7785 6.84264C16.8738 7.01393 16.967 7.18154 17.1199 7.29718C17.2746 7.4148 17.4608 7.45671 17.6473 7.49866L17.659 7.50131L17.6593 7.50137L17.697 7.50998L17.6972 7.51001L17.9092 7.55801L17.9092 7.55801C18.3311 7.65348 18.6065 7.71669 18.7925 7.79016L18.7927 7.79024M15.843 5.78922L18.7927 7.79024M14.0093 11.3715L14.1092 11.3671C14.0999 11.1559 14.1275 10.8583 14.1711 10.4112L14.1711 10.4112L14.1931 10.1855L14.1931 10.1855L14.1932 10.1843L14.1965 10.146L14.1975 10.1354C14.2174 9.93507 14.2361 9.745 14.1791 9.56117L14.1791 9.56116C14.1216 9.37589 13.9977 9.23141 13.8689 9.08131L13.8618 9.07305L13.8617 9.07285L13.8369 9.04412L13.8367 9.04385L13.6923 8.87521L16.7874 11.225L16.5892 11.1334L16.5892 11.1333L16.5861 11.132C16.5751 11.1274 16.5646 11.1226 16.5546 11.1177L16.5546 11.1177L16.5526 11.1167L16.5427 11.1122C16.3689 11.0317 16.1939 10.9508 15.9996 10.9508C15.8046 10.9508 15.6292 11.0323 15.4547 11.1133L15.4469 11.1169L15.4465 11.1171L15.4106 11.1336L15.4105 11.1336L15.2118 11.225L15.2118 11.225C14.8168 11.4068 14.5579 11.525 14.3662 11.5796L14.366 11.5797C14.2725 11.6065 14.2205 11.6106 14.1927 11.6088C14.1716 11.6074 14.166 11.6029 14.1638 11.6011C14.1636 11.601 14.1635 11.6008 14.1634 11.6007L14.1629 11.6004C14.1629 11.6004 14.1629 11.6004 14.1628 11.6003C14.1602 11.5987 14.1185 11.5728 14.1092 11.3669L14.0093 11.3715ZM14.0093 11.3715C14.0193 11.5915 14.0656 11.6521 14.1026 11.6801L14.0969 10.1368L14.0936 10.1758L14.0716 10.4015C14.0283 10.8455 13.9996 11.1515 14.0093 11.3715ZM17.633 11.5796L17.6331 11.5797C17.7266 11.6065 17.7787 11.6106 17.8064 11.6088C17.8276 11.6074 17.8331 11.6029 17.8354 11.6011C17.8355 11.601 17.8357 11.6008 17.8358 11.6007L17.8362 11.6004C17.8363 11.6004 17.8363 11.6004 17.8364 11.6003C17.8389 11.5987 17.8807 11.5727 17.89 11.3669C17.8996 11.1558 17.8714 10.8585 17.8281 10.4111L17.8061 10.1855L17.8059 10.1843L17.8027 10.146L17.8016 10.1354C17.7818 9.93506 17.763 9.74499 17.8201 9.56117L17.8201 9.56116C17.8776 9.37589 18.0015 9.23141 18.1303 9.08131L18.1373 9.07305L18.1375 9.07285L18.1623 9.04412L18.1625 9.04385L18.3069 8.87521C18.5938 8.53919 18.7828 8.31719 18.8933 8.14156L18.8933 8.14156C18.999 7.97353 18.9835 7.92485 18.9797 7.91297C18.9796 7.91273 18.9795 7.91251 18.9795 7.9123L17.633 11.5796ZM17.633 11.5796C17.4413 11.525 17.1824 11.4069 16.7875 11.225L17.633 11.5796ZM18.7927 7.79024C18.8826 7.82548 18.9286 7.85456 18.9523 7.87508M18.7927 7.79024L18.9523 7.87508M14.1696 6.92481C14.4243 6.86715 14.4763 6.84981 14.5166 6.81915C14.5586 6.78748 14.5923 6.73748 14.7233 6.50281M14.1696 6.92481L14.1475 6.82728L14.1475 6.82728M14.1696 6.92481L14.1475 6.82728M14.1696 6.92481L13.9576 6.97281M14.1475 6.82728C14.2753 6.79833 14.3484 6.78037 14.394 6.76629C14.4376 6.75286 14.4486 6.74522 14.4561 6.73954L14.4564 6.7393C14.4645 6.73316 14.4761 6.72322 14.5029 6.68225C14.5307 6.63993 14.5702 6.57187 14.6359 6.45407M14.1475 6.82728L13.9359 6.87519L13.9576 6.97281M14.6359 6.45407L14.6359 6.45417L14.7233 6.50281M14.6359 6.45407L14.7233 6.50281M14.6359 6.45407L14.7552 6.23984L14.7552 6.23983C14.9562 5.87896 15.1261 5.57482 15.2875 5.36374C15.4513 5.14929 15.6735 4.94248 15.9996 4.94248C16.3257 4.94248 16.5476 5.14938 16.7119 5.36363L16.712 5.36374C16.8729 5.57407 17.0418 5.8772 17.2418 6.23587L17.2439 6.23973L17.2439 6.23979L17.3636 6.45407L17.3636 6.45417C17.4292 6.57195 17.4686 6.64002 17.4963 6.68238C17.5232 6.72336 17.5348 6.73354 17.5432 6.73994L17.4826 6.81948M14.7233 6.50281L14.8426 6.28848L18.4893 11.3935L18.5892 11.398C18.5892 11.3979 18.5892 11.3979 18.5892 11.3979C18.6012 11.1297 18.5673 10.781 18.527 10.3665L18.5268 10.3639L18.5268 10.3638L18.5031 10.1179L18.5031 10.1177C18.4899 9.98302 18.4834 9.90336 18.482 9.85091C18.4806 9.80067 18.4843 9.78237 18.4885 9.76867C18.4925 9.75595 18.4991 9.74004 18.5278 9.70113C18.558 9.66024 18.6077 9.6003 18.6942 9.49917L18.6942 9.49917L18.8526 9.31417L18.8526 9.31415L18.8546 9.31181C19.1198 9.00175 19.3441 8.73947 19.4859 8.51406C19.6327 8.28109 19.7425 8.00814 19.6481 7.70446L19.6481 7.70441C19.5523 7.3969 19.3037 7.23925 19.0493 7.1388L19.0493 7.13879C18.8075 7.04343 18.479 6.96914 18.0942 6.88211L18.0847 6.87994L18.0846 6.87993L17.8514 6.82729C17.8514 6.82729 17.8513 6.82728 17.8513 6.82728C17.7237 6.79834 17.6506 6.78036 17.6049 6.76631C17.5612 6.75286 17.5502 6.74527 17.543 6.7398L17.4826 6.81948M17.4826 6.81948C17.4406 6.78748 17.4069 6.73748 17.2763 6.50281L17.4826 6.81948ZM13.9576 6.97281L13.9366 6.97748L13.9355 6.87528M13.9576 6.97281L13.9355 6.87528M13.9355 6.87528L13.9149 6.87986L13.9145 6.87994L13.9049 6.88211C13.5202 6.96914 13.1917 7.04343 12.9499 7.13879L12.9499 7.1388C12.6954 7.23925 12.4469 7.3969 12.3511 7.70441L12.3511 7.70446C12.2567 8.00817 12.3665 8.28114 12.5136 8.51445L13.9355 6.87528ZM15.4848 11.87L15.4848 11.87L15.479 11.8726C15.1173 12.0392 14.8092 12.1811 14.5591 12.2526C14.299 12.3272 14.0002 12.3557 13.7398 12.1581L13.7398 12.1581C13.4847 11.9645 13.4221 11.6717 13.41 11.3982M15.4848 11.87L13.41 11.3982M15.4848 11.87L15.703 11.7693L15.4848 11.87ZM13.41 11.3982C13.398 11.1296 13.432 10.78 13.4723 10.3649L13.4724 10.3641L13.4724 10.3641L13.4964 10.1178M13.41 11.3982L13.4964 10.1178M13.4964 10.1178C13.4964 10.1178 13.4964 10.1178 13.4964 10.1178M13.4964 10.1178L13.5959 10.1275L13.4964 10.1178M13.4964 10.1178C13.5094 9.98293 13.5159 9.90331 13.5172 9.85093C13.5185 9.8004 13.5147 9.78245 13.5104 9.76888L13.5103 9.76847C13.5065 9.75603 13.5002 9.74046 13.4713 9.70124C13.4412 9.66039 13.3915 9.60047 13.3049 9.49917M13.4964 10.1178L13.3049 9.49917M13.3049 9.49917L13.3809 9.43415L13.3049 9.49917ZM13.3049 9.49917C13.3049 9.49915 13.3049 9.49913 13.3049 9.49911M13.3049 9.49917L13.3049 9.49911M13.3049 9.49911L13.1466 9.31417M13.3049 9.49911L13.1466 9.31417M13.1466 9.31417L13.1466 9.3141L13.1404 9.30686C12.8774 8.99898 12.6547 8.73831 12.5137 8.51448L13.1466 9.31417ZM18.9523 7.87508C18.9728 7.89284 18.9769 7.90418 18.9795 7.91227L18.9523 7.87508ZM16.062 11.6671C16.0191 11.6511 16.0069 11.6508 15.9996 11.6508C15.9922 11.6508 15.9801 11.6511 15.9371 11.6671C15.8925 11.6838 15.8232 11.7141 15.7031 11.7693L16.062 11.6671ZM16.062 11.6671C16.1067 11.6838 16.176 11.7141 16.2961 11.7693L16.062 11.6671ZM16.5174 11.8712C16.88 12.0383 17.1891 12.1808 17.4399 12.2526L16.2962 11.7693L16.5147 11.87L16.5148 11.87L16.5174 11.8712Z" fill="#1877F2" stroke="#1877F2" stroke-width="0.2"/>
<g id="Vector_3">
<mask id="path-3-outside-1_1799_16426" maskUnits="userSpaceOnUse" x="19.3164" y="10.6875" width="9" height="9" fill="black">
<rect fill="white" x="19.3164" y="10.6875" width="9" height="9"/>
<path fill-rule="evenodd" clip-rule="evenodd" d="M23.664 12.3735C23.5326 12.5448 23.3846 12.8095 23.1693 13.1955L23.0603 13.3912L23.0406 13.4265C22.9406 13.6065 22.8556 13.7592 22.7193 13.8625C22.5816 13.9672 22.4136 14.0048 22.2183 14.0488L22.1803 14.0575L21.9683 14.1055C21.55 14.2002 21.265 14.2652 21.0703 14.3422C20.88 14.4168 20.84 14.4785 20.8246 14.5275C20.8083 14.5795 20.808 14.6592 20.9213 14.8398C21.037 15.0232 21.232 15.2518 21.5166 15.5852L21.6613 15.7542L21.6863 15.7832C21.8206 15.9398 21.9326 16.0705 21.984 16.2358C22.035 16.4002 22.018 16.5725 21.9973 16.7818L21.994 16.8208L21.972 17.0465C21.9286 17.4905 21.9 17.7965 21.9096 18.0165C21.9196 18.2365 21.966 18.2972 22.003 18.3252C22.0356 18.3502 22.0963 18.3775 22.294 18.3208C22.495 18.2635 22.7623 18.1412 23.154 17.9608L23.3526 17.8695L23.389 17.8528C23.5706 17.7685 23.728 17.6958 23.9 17.6958C24.072 17.6958 24.2293 17.7685 24.411 17.8525C24.4228 17.8583 24.435 17.8638 24.4476 17.8692L24.646 17.9608C25.0376 18.1412 25.305 18.2635 25.506 18.3208C25.7036 18.3775 25.7643 18.3502 25.797 18.3252C25.834 18.2972 25.8803 18.2362 25.8903 18.0165C25.9003 17.7965 25.871 17.4905 25.828 17.0465L25.806 16.8208L25.8026 16.7818C25.782 16.5725 25.765 16.4002 25.816 16.2358C25.8673 16.0705 25.9793 15.9398 26.1136 15.7832L26.1386 15.7542L26.2833 15.5852C26.568 15.2518 26.763 15.0232 26.8783 14.8398C26.992 14.6592 26.9916 14.5798 26.9753 14.5275C26.96 14.4785 26.92 14.4168 26.7296 14.3422C26.5346 14.2652 26.25 14.2002 25.8316 14.1055L25.6196 14.0575L25.5816 14.0488C25.3863 14.0048 25.2183 13.9672 25.0806 13.8625C24.944 13.7592 24.8596 13.6068 24.7593 13.4265L24.74 13.3912L24.6306 13.1955C24.4153 12.8095 24.2673 12.5448 24.136 12.3735C24.0046 12.2022 23.938 12.1875 23.9 12.1875C23.862 12.1875 23.795 12.2022 23.664 12.3735ZM23.2673 12.0695C23.4256 11.8622 23.622 11.6875 23.9 11.6875C24.178 11.6875 24.374 11.8622 24.533 12.0695C24.689 12.2735 24.8546 12.5705 25.057 12.9335L25.1766 13.1478C25.3073 13.3825 25.341 13.4325 25.383 13.4645C25.423 13.4948 25.4753 13.5122 25.7296 13.5698L25.963 13.6225C26.355 13.7112 26.678 13.7842 26.913 13.8768C27.157 13.9732 27.3706 14.1148 27.453 14.3792C27.5343 14.6408 27.443 14.8815 27.3016 15.1058C27.1643 15.3242 26.945 15.5808 26.677 15.8942L26.5186 16.0792C26.3463 16.2805 26.3103 16.3298 26.2933 16.3842C26.2763 16.4398 26.2776 16.5042 26.304 16.7725L26.3276 17.0185C26.3683 17.4372 26.4013 17.7785 26.3896 18.0385C26.378 18.3035 26.318 18.5575 26.0996 18.7235C25.877 18.8922 25.618 18.8735 25.368 18.8015C25.1256 18.7322 24.8236 18.5932 24.457 18.4242L24.2383 18.3235C23.999 18.2135 23.948 18.1958 23.9 18.1958C23.852 18.1958 23.801 18.2135 23.5616 18.3235L23.3433 18.4242C22.9763 18.5932 22.6743 18.7322 22.432 18.8015C22.182 18.8732 21.923 18.8922 21.7006 18.7235C21.482 18.5575 21.422 18.3035 21.4103 18.0388C21.3986 17.7788 21.4316 17.4372 21.4723 17.0188L21.4963 16.7725C21.5223 16.5038 21.5236 16.4398 21.5063 16.3842C21.4896 16.3298 21.4536 16.2808 21.2813 16.0792L21.123 15.8942C20.8553 15.5808 20.636 15.3242 20.4986 15.1062C20.357 14.8815 20.2656 14.6408 20.347 14.3792C20.4293 14.1148 20.643 13.9732 20.887 13.8768C21.122 13.7842 21.445 13.7112 21.837 13.6225L21.858 13.6178L22.07 13.5698C22.3246 13.5122 22.3766 13.4948 22.417 13.4642C22.459 13.4325 22.4926 13.3825 22.6236 13.1478L22.743 12.9335C22.9453 12.5702 23.111 12.2735 23.267 12.0695"/>
</mask>
<path fill-rule="evenodd" clip-rule="evenodd" d="M23.664 12.3735C23.5326 12.5448 23.3846 12.8095 23.1693 13.1955L23.0603 13.3912L23.0406 13.4265C22.9406 13.6065 22.8556 13.7592 22.7193 13.8625C22.5816 13.9672 22.4136 14.0048 22.2183 14.0488L22.1803 14.0575L21.9683 14.1055C21.55 14.2002 21.265 14.2652 21.0703 14.3422C20.88 14.4168 20.84 14.4785 20.8246 14.5275C20.8083 14.5795 20.808 14.6592 20.9213 14.8398C21.037 15.0232 21.232 15.2518 21.5166 15.5852L21.6613 15.7542L21.6863 15.7832C21.8206 15.9398 21.9326 16.0705 21.984 16.2358C22.035 16.4002 22.018 16.5725 21.9973 16.7818L21.994 16.8208L21.972 17.0465C21.9286 17.4905 21.9 17.7965 21.9096 18.0165C21.9196 18.2365 21.966 18.2972 22.003 18.3252C22.0356 18.3502 22.0963 18.3775 22.294 18.3208C22.495 18.2635 22.7623 18.1412 23.154 17.9608L23.3526 17.8695L23.389 17.8528C23.5706 17.7685 23.728 17.6958 23.9 17.6958C24.072 17.6958 24.2293 17.7685 24.411 17.8525C24.4228 17.8583 24.435 17.8638 24.4476 17.8692L24.646 17.9608C25.0376 18.1412 25.305 18.2635 25.506 18.3208C25.7036 18.3775 25.7643 18.3502 25.797 18.3252C25.834 18.2972 25.8803 18.2362 25.8903 18.0165C25.9003 17.7965 25.871 17.4905 25.828 17.0465L25.806 16.8208L25.8026 16.7818C25.782 16.5725 25.765 16.4002 25.816 16.2358C25.8673 16.0705 25.9793 15.9398 26.1136 15.7832L26.1386 15.7542L26.2833 15.5852C26.568 15.2518 26.763 15.0232 26.8783 14.8398C26.992 14.6592 26.9916 14.5798 26.9753 14.5275C26.96 14.4785 26.92 14.4168 26.7296 14.3422C26.5346 14.2652 26.25 14.2002 25.8316 14.1055L25.6196 14.0575L25.5816 14.0488C25.3863 14.0048 25.2183 13.9672 25.0806 13.8625C24.944 13.7592 24.8596 13.6068 24.7593 13.4265L24.74 13.3912L24.6306 13.1955C24.4153 12.8095 24.2673 12.5448 24.136 12.3735C24.0046 12.2022 23.938 12.1875 23.9 12.1875C23.862 12.1875 23.795 12.2022 23.664 12.3735ZM23.2673 12.0695C23.4256 11.8622 23.622 11.6875 23.9 11.6875C24.178 11.6875 24.374 11.8622 24.533 12.0695C24.689 12.2735 24.8546 12.5705 25.057 12.9335L25.1766 13.1478C25.3073 13.3825 25.341 13.4325 25.383 13.4645C25.423 13.4948 25.4753 13.5122 25.7296 13.5698L25.963 13.6225C26.355 13.7112 26.678 13.7842 26.913 13.8768C27.157 13.9732 27.3706 14.1148 27.453 14.3792C27.5343 14.6408 27.443 14.8815 27.3016 15.1058C27.1643 15.3242 26.945 15.5808 26.677 15.8942L26.5186 16.0792C26.3463 16.2805 26.3103 16.3298 26.2933 16.3842C26.2763 16.4398 26.2776 16.5042 26.304 16.7725L26.3276 17.0185C26.3683 17.4372 26.4013 17.7785 26.3896 18.0385C26.378 18.3035 26.318 18.5575 26.0996 18.7235C25.877 18.8922 25.618 18.8735 25.368 18.8015C25.1256 18.7322 24.8236 18.5932 24.457 18.4242L24.2383 18.3235C23.999 18.2135 23.948 18.1958 23.9 18.1958C23.852 18.1958 23.801 18.2135 23.5616 18.3235L23.3433 18.4242C22.9763 18.5932 22.6743 18.7322 22.432 18.8015C22.182 18.8732 21.923 18.8922 21.7006 18.7235C21.482 18.5575 21.422 18.3035 21.4103 18.0388C21.3986 17.7788 21.4316 17.4372 21.4723 17.0188L21.4963 16.7725C21.5223 16.5038 21.5236 16.4398 21.5063 16.3842C21.4896 16.3298 21.4536 16.2808 21.2813 16.0792L21.123 15.8942C20.8553 15.5808 20.636 15.3242 20.4986 15.1062C20.357 14.8815 20.2656 14.6408 20.347 14.3792C20.4293 14.1148 20.643 13.9732 20.887 13.8768C21.122 13.7842 21.445 13.7112 21.837 13.6225L21.858 13.6178L22.07 13.5698C22.3246 13.5122 22.3766 13.4948 22.417 13.4642C22.459 13.4325 22.4926 13.3825 22.6236 13.1478L22.743 12.9335C22.9453 12.5702 23.111 12.2735 23.267 12.0695" fill="#1877F2"/>
<path d="M23.664 12.3735L23.8227 12.4952L23.8229 12.495L23.664 12.3735ZM23.1693 13.1955L22.9947 13.0981L22.9946 13.0982L23.1693 13.1955ZM23.0603 13.3912L22.8856 13.2938L22.8856 13.2939L23.0603 13.3912ZM23.0406 13.4265L22.8659 13.3292L22.8658 13.3294L23.0406 13.4265ZM22.7193 13.8625L22.5985 13.7031L22.5983 13.7033L22.7193 13.8625ZM22.2183 14.0488L22.1744 13.8537L22.1738 13.8538L22.2183 14.0488ZM22.1803 14.0575L22.2245 14.2526L22.2248 14.2525L22.1803 14.0575ZM21.9683 14.1055L22.0125 14.3006L22.0125 14.3006L21.9683 14.1055ZM21.0703 14.3422L21.1434 14.5284L21.1439 14.5281L21.0703 14.3422ZM20.8246 14.5275L21.0155 14.5874L21.0155 14.5872L20.8246 14.5275ZM20.9213 14.8398L20.7519 14.9461L20.7522 14.9466L20.9213 14.8398ZM21.5166 15.5852L21.3646 15.715L21.3647 15.7152L21.5166 15.5852ZM21.6613 15.7542L21.5094 15.8842L21.5098 15.8848L21.6613 15.7542ZM21.6863 15.7832L21.8381 15.653L21.8378 15.6526L21.6863 15.7832ZM21.984 16.2358L22.175 16.1766L22.175 16.1765L21.984 16.2358ZM21.9973 16.7818L21.7983 16.7622L21.798 16.7648L21.9973 16.7818ZM21.994 16.8208L22.1931 16.8402L22.1933 16.8379L21.994 16.8208ZM21.972 17.0465L22.171 17.0659L22.171 17.0659L21.972 17.0465ZM21.9096 18.0165L21.7098 18.0253L21.7099 18.0256L21.9096 18.0165ZM22.003 18.3252L22.1245 18.1663L22.1237 18.1657L22.003 18.3252ZM22.294 18.3208L22.2391 18.1285L22.2389 18.1286L22.294 18.3208ZM23.154 17.9608L23.0704 17.7791L23.0703 17.7792L23.154 17.9608ZM23.3526 17.8695L23.2693 17.6877L23.2691 17.6878L23.3526 17.8695ZM23.389 17.8528L23.4724 18.0346L23.4732 18.0342L23.389 17.8528ZM24.411 17.8525L24.4991 17.6729L24.4949 17.671L24.411 17.8525ZM24.4476 17.8692L24.5316 17.6875L24.5253 17.6848L24.4476 17.8692ZM24.646 17.9608L24.5621 18.1424L24.5623 18.1425L24.646 17.9608ZM25.506 18.3208L25.5611 18.1286L25.5608 18.1285L25.506 18.3208ZM25.797 18.3252L25.6763 18.1657L25.6754 18.1663L25.797 18.3252ZM25.8903 18.0165L26.0901 18.0256L26.0901 18.0256L25.8903 18.0165ZM25.828 17.0465L26.027 17.0272L26.027 17.0271L25.828 17.0465ZM25.806 16.8208L25.6067 16.8379L25.6069 16.8402L25.806 16.8208ZM25.8026 16.7818L26.0019 16.7648L26.0017 16.7622L25.8026 16.7818ZM25.816 16.2358L25.625 16.1765L25.625 16.1766L25.816 16.2358ZM26.1136 15.7832L25.9622 15.6526L25.9618 15.653L26.1136 15.7832ZM26.1386 15.7542L26.2901 15.8848L26.2906 15.8842L26.1386 15.7542ZM26.2833 15.5852L26.4352 15.7152L26.4354 15.715L26.2833 15.5852ZM26.8783 14.8398L26.709 14.7333L26.709 14.7333L26.8783 14.8398ZM26.9753 14.5275L27.1662 14.4679L27.1662 14.4678L26.9753 14.5275ZM26.7296 14.3422L26.6562 14.5282L26.6566 14.5284L26.7296 14.3422ZM25.8316 14.1055L25.7875 14.3006L25.7875 14.3006L25.8316 14.1055ZM25.6196 14.0575L25.5752 14.2525L25.5755 14.2526L25.6196 14.0575ZM25.5816 14.0488L25.6261 13.8538L25.6256 13.8537L25.5816 14.0488ZM25.0806 13.8625L25.2017 13.7033L25.2013 13.703L25.0806 13.8625ZM24.7593 13.4265L24.5839 13.5225L24.5845 13.5237L24.7593 13.4265ZM24.74 13.3912L24.9154 13.2952L24.9146 13.2936L24.74 13.3912ZM24.6306 13.1955L24.456 13.2929L24.4561 13.2931L24.6306 13.1955ZM24.533 12.0695L24.6919 11.948L24.6917 11.9478L24.533 12.0695ZM25.057 12.9335L24.8823 13.0309L24.8824 13.031L25.057 12.9335ZM25.1766 13.1478L25.3514 13.0505L25.3513 13.0503L25.1766 13.1478ZM25.383 13.4645L25.2618 13.6236L25.2621 13.6239L25.383 13.4645ZM25.7296 13.5698L25.6854 13.7649L25.6856 13.7649L25.7296 13.5698ZM25.963 13.6225L26.0071 13.4274L26.007 13.4274L25.963 13.6225ZM26.913 13.8768L26.9864 13.6908L26.9863 13.6908L26.913 13.8768ZM27.453 14.3792L27.644 14.3198L27.6439 14.3197L27.453 14.3792ZM27.3016 15.1058L27.1324 14.9992L27.1324 14.9993L27.3016 15.1058ZM26.677 15.8942L26.8289 16.0242L26.829 16.0242L26.677 15.8942ZM26.5186 16.0792L26.6706 16.2092L26.6706 16.2092L26.5186 16.0792ZM26.2933 16.3842L26.1024 16.3244L26.102 16.3258L26.2933 16.3842ZM26.304 16.7725L26.5031 16.7533L26.503 16.753L26.304 16.7725ZM26.3276 17.0185L26.1286 17.0377L26.1286 17.0378L26.3276 17.0185ZM26.3896 18.0385L26.1898 18.0295L26.1898 18.0297L26.3896 18.0385ZM26.0996 18.7235L26.2204 18.8829L26.2207 18.8827L26.0996 18.7235ZM25.368 18.8015L25.4233 18.6093L25.423 18.6092L25.368 18.8015ZM24.457 18.4242L24.5407 18.2425L24.5406 18.2425L24.457 18.4242ZM24.2383 18.3235L24.3219 18.1418L24.3218 18.1418L24.2383 18.3235ZM23.5616 18.3235L23.4781 18.1418L23.4779 18.1419L23.5616 18.3235ZM23.3433 18.4242L23.427 18.6058L23.4271 18.6058L23.3433 18.4242ZM22.432 18.8015L22.377 18.6092L22.3769 18.6092L22.432 18.8015ZM21.7006 18.7235L21.5797 18.8828L21.5798 18.8828L21.7006 18.7235ZM21.4103 18.0388L21.6101 18.03L21.6101 18.0299L21.4103 18.0388ZM21.4723 17.0188L21.2733 16.9994L21.2733 16.9995L21.4723 17.0188ZM21.4963 16.7725L21.6954 16.7919L21.6954 16.7918L21.4963 16.7725ZM21.5063 16.3842L21.3151 16.4428L21.3154 16.4436L21.5063 16.3842ZM21.2813 16.0792L21.4334 15.9492L21.4333 15.9491L21.2813 16.0792ZM21.123 15.8942L20.9709 16.0241L20.971 16.0242L21.123 15.8942ZM20.4986 15.1062L20.6679 14.9996L20.6678 14.9995L20.4986 15.1062ZM20.347 14.3792L20.156 14.3197L20.156 14.3198L20.347 14.3792ZM20.887 13.8768L20.8136 13.6908L20.8135 13.6908L20.887 13.8768ZM21.837 13.6225L21.7936 13.4273L21.7929 13.4274L21.837 13.6225ZM21.858 13.6178L21.9014 13.8131L21.9021 13.8129L21.858 13.6178ZM22.07 13.5698L22.1141 13.7649L22.1141 13.7649L22.07 13.5698ZM22.417 13.4642L22.2966 13.3045L22.2959 13.305L22.417 13.4642ZM22.6236 13.1478L22.7983 13.2453L22.7984 13.2451L22.6236 13.1478ZM22.743 12.9335L22.5682 12.8362L22.5682 12.8362L22.743 12.9335ZM23.5052 12.2518C23.3628 12.4376 23.2065 12.7183 22.9947 13.0981L23.344 13.2929C23.5628 12.9007 23.7025 12.6521 23.8227 12.4952L23.5052 12.2518ZM22.9946 13.0982L22.8856 13.2938L23.235 13.4885L23.344 13.2928L22.9946 13.0982ZM22.8856 13.2939L22.8659 13.3292L23.2154 13.5238L23.2351 13.4884L22.8856 13.2939ZM22.8658 13.3294C22.7609 13.5183 22.695 13.6299 22.5985 13.7031L22.8401 14.0219C23.0163 13.8884 23.1204 13.6947 23.2155 13.5236L22.8658 13.3294ZM22.5983 13.7033C22.5015 13.7768 22.3794 13.8075 22.1744 13.8537L22.2623 14.2439C22.4479 14.2021 22.6618 14.1575 22.8404 14.0217L22.5983 13.7033ZM22.1738 13.8538L22.1358 13.8625L22.2248 14.2525L22.2628 14.2438L22.1738 13.8538ZM22.1361 13.8624L21.9241 13.9104L22.0125 14.3006L22.2245 14.2526L22.1361 13.8624ZM21.9242 13.9104C21.513 14.0035 21.2094 14.0721 20.9967 14.1562L21.1439 14.5281C21.3206 14.4582 21.5869 14.3969 22.0125 14.3006L21.9242 13.9104ZM20.9973 14.156C20.8914 14.1975 20.8107 14.2416 20.751 14.2932C20.6851 14.3502 20.6517 14.4105 20.6338 14.4678L21.0155 14.5872C21.0155 14.5872 21.0155 14.5873 21.0154 14.5875C21.0154 14.5876 21.0153 14.5879 21.0152 14.5882C21.015 14.5888 21.0146 14.5896 21.0142 14.5906C21.0133 14.5926 21.0122 14.5946 21.0111 14.5964C21.0085 14.6003 21.0078 14.6 21.0127 14.5957C21.0244 14.5856 21.0589 14.5615 21.1434 14.5284L20.9973 14.156ZM20.6338 14.4676C20.5912 14.6032 20.6272 14.7473 20.7519 14.9461L21.0907 14.7336C21.04 14.6526 21.0236 14.6079 21.0186 14.5877C21.0164 14.5787 21.0169 14.5765 21.0168 14.5792C21.0167 14.5824 21.016 14.5857 21.0155 14.5874L20.6338 14.4676ZM20.7522 14.9466C20.8775 15.1452 21.0844 15.387 21.3646 15.715L21.6687 15.4553C21.3795 15.1166 21.1965 14.9012 21.0905 14.7331L20.7522 14.9466ZM21.3647 15.7152L21.5094 15.8842L21.8132 15.6241L21.6686 15.4551L21.3647 15.7152ZM21.5098 15.8848L21.5348 15.9138L21.8378 15.6526L21.8128 15.6236L21.5098 15.8848ZM21.5345 15.9134C21.675 16.0772 21.7561 16.1765 21.793 16.2951L22.175 16.1765C22.1092 15.9645 21.9663 15.8025 21.8381 15.653L21.5345 15.9134ZM21.793 16.2951C21.8297 16.4136 21.8199 16.5431 21.7983 16.7622L22.1963 16.8015C22.2161 16.6019 22.2402 16.3867 22.175 16.1766L21.793 16.2951ZM21.798 16.7648L21.7947 16.8038L22.1933 16.8379L22.1966 16.7989L21.798 16.7648ZM21.7949 16.8014L21.7729 17.0271L22.171 17.0659L22.193 16.8402L21.7949 16.8014ZM21.7729 17.0271C21.7302 17.4649 21.6994 17.7877 21.7098 18.0253L22.1095 18.0077C22.1006 17.8053 22.1271 17.5161 22.171 17.0659L21.7729 17.0271ZM21.7099 18.0256C21.7207 18.2643 21.7729 18.4019 21.8823 18.4846L22.1237 18.1657C22.1272 18.1683 22.1315 18.1724 22.1347 18.1768C22.1375 18.1806 22.1364 18.1803 22.1333 18.1721C22.1262 18.1534 22.1139 18.1066 22.1094 18.0074L21.7099 18.0256ZM21.8814 18.484C21.9266 18.5186 21.9871 18.5475 22.0736 18.5532C22.1499 18.5582 22.2396 18.5445 22.3491 18.5131L22.2389 18.1286C22.1507 18.1539 22.1112 18.1548 22.0997 18.1541C22.0955 18.1538 22.099 18.1535 22.1068 18.1566C22.1153 18.1599 22.1218 18.1643 22.1245 18.1663L21.8814 18.484ZM22.3488 18.5132C22.5683 18.4506 22.8526 18.3198 23.2376 18.1425L23.0703 17.7792C22.672 17.9625 22.4216 18.0764 22.2391 18.1285L22.3488 18.5132ZM23.2375 18.1425L23.4362 18.0512L23.2691 17.6878L23.0704 17.7791L23.2375 18.1425ZM23.436 18.0513L23.4724 18.0346L23.3056 17.671L23.2693 17.6877L23.436 18.0513ZM23.4732 18.0342C23.6638 17.9457 23.7801 17.8958 23.9 17.8958V17.4958C23.6759 17.4958 23.4775 17.5913 23.3048 17.6714L23.4732 18.0342ZM23.9 17.8958C24.02 17.8958 24.1362 17.9458 24.327 18.034L24.4949 17.671C24.3224 17.5912 24.124 17.4958 23.9 17.4958V17.8958ZM24.3229 18.0321C24.3383 18.0396 24.354 18.0467 24.37 18.0535L24.5253 17.6848C24.516 17.6809 24.5072 17.677 24.4991 17.6729L24.3229 18.0321ZM24.3637 18.0507L24.5621 18.1424L24.7299 17.7793L24.5316 17.6876L24.3637 18.0507ZM24.5623 18.1425C24.9474 18.3198 25.2316 18.4506 25.4511 18.5132L25.5608 18.1285C25.3783 18.0764 25.1279 17.9625 24.7296 17.7792L24.5623 18.1425ZM25.4509 18.5131C25.5604 18.5445 25.65 18.5582 25.7264 18.5532C25.8128 18.5475 25.8734 18.5186 25.9185 18.484L25.6754 18.1663C25.6781 18.1643 25.6846 18.1599 25.6931 18.1566C25.701 18.1535 25.7045 18.1538 25.7003 18.1541C25.6888 18.1548 25.6493 18.1539 25.5611 18.1286L25.4509 18.5131ZM25.9177 18.4846C26.0271 18.4018 26.0793 18.2638 26.0901 18.0256L25.6905 18.0074C25.686 18.1064 25.6738 18.1533 25.6667 18.172C25.6636 18.1803 25.6623 18.1806 25.6651 18.1769C25.6683 18.1726 25.6726 18.1685 25.6763 18.1657L25.9177 18.4846ZM26.0901 18.0256C26.1009 17.7878 26.0694 17.4644 26.027 17.0272L25.6289 17.0658C25.6726 17.5166 25.6997 17.8052 25.6905 18.0074L26.0901 18.0256ZM26.027 17.0271L26.005 16.8014L25.6069 16.8402L25.6289 17.0659L26.027 17.0271ZM26.0053 16.8038L26.0019 16.7648L25.6034 16.7989L25.6067 16.8379L26.0053 16.8038ZM26.0017 16.7622C25.9801 16.5431 25.9702 16.4136 26.007 16.2951L25.625 16.1766C25.5597 16.3867 25.5839 16.6019 25.6036 16.8015L26.0017 16.7622ZM26.007 16.2951C26.0438 16.1765 26.125 16.0772 26.2655 15.9134L25.9618 15.653C25.8337 15.8025 25.6908 15.9645 25.625 16.1765L26.007 16.2951ZM26.2651 15.9138L26.2901 15.8848L25.9872 15.6236L25.9622 15.6526L26.2651 15.9138ZM26.2906 15.8842L26.4352 15.7152L26.1314 15.4551L25.9867 15.6241L26.2906 15.8842ZM26.4354 15.715C26.7155 15.3871 26.9226 15.1451 27.0476 14.9463L26.709 14.7333C26.6034 14.9012 26.4205 15.1166 26.1312 15.4553L26.4354 15.715ZM27.0476 14.9463C27.1727 14.7474 27.2086 14.6037 27.1662 14.4679L26.7844 14.5871C26.784 14.5857 26.7832 14.5824 26.7831 14.5792C26.783 14.5765 26.7836 14.5787 26.7814 14.5876C26.7764 14.6078 26.76 14.6523 26.709 14.7333L27.0476 14.9463ZM27.1662 14.4678C27.1483 14.4105 27.1148 14.3502 27.0489 14.2932C26.9893 14.2416 26.9085 14.1975 26.8027 14.156L26.6566 14.5284C26.7411 14.5615 26.7755 14.5856 26.7873 14.5957C26.7922 14.6 26.7914 14.6003 26.7889 14.5964C26.7877 14.5946 26.7867 14.5926 26.7858 14.5906C26.7853 14.5896 26.785 14.5888 26.7848 14.5882C26.7847 14.5879 26.7846 14.5876 26.7845 14.5875C26.7845 14.5873 26.7844 14.5872 26.7844 14.5872L27.1662 14.4678ZM26.8031 14.1561C26.5902 14.0721 26.287 14.0035 25.8758 13.9104L25.7875 14.3006C26.2129 14.3968 26.4791 14.4582 26.6562 14.5282L26.8031 14.1561ZM25.8758 13.9104L25.6638 13.8624L25.5755 14.2526L25.7875 14.3006L25.8758 13.9104ZM25.6641 13.8625L25.6261 13.8538L25.5372 14.2438L25.5752 14.2525L25.6641 13.8625ZM25.6256 13.8537C25.4205 13.8075 25.2984 13.7768 25.2017 13.7033L24.9596 14.0217C25.1382 14.1575 25.3521 14.2021 25.5377 14.2439L25.6256 13.8537ZM25.2013 13.703C25.1046 13.6299 25.0396 13.519 24.9341 13.3293L24.5845 13.5237C24.6797 13.6947 24.7833 13.8884 24.96 14.022L25.2013 13.703ZM24.9348 13.3305L24.9154 13.2952L24.5645 13.4872L24.5839 13.5225L24.9348 13.3305ZM24.9146 13.2936L24.8052 13.0979L24.4561 13.2931L24.5654 13.4887L24.9146 13.2936ZM24.8053 13.0981C24.5934 12.7183 24.4371 12.4376 24.2947 12.2518L23.9772 12.4952C24.0975 12.6521 24.2372 12.9007 24.456 13.2929L24.8053 13.0981ZM24.2947 12.2518C24.2224 12.1575 24.1573 12.0918 24.0935 12.0496C24.022 12.0021 23.9571 11.9875 23.9 11.9875V12.3875C23.8949 12.3875 23.8863 12.3868 23.8775 12.3842C23.8696 12.3818 23.8677 12.3798 23.8725 12.3829C23.8844 12.3908 23.9182 12.4182 23.9772 12.4952L24.2947 12.2518ZM23.9 11.9875C23.8429 11.9875 23.778 12.0021 23.7064 12.0495C23.6425 12.0918 23.5773 12.1576 23.5051 12.252L23.8229 12.495C23.8816 12.4181 23.9154 12.3908 23.9273 12.383C23.932 12.3799 23.9302 12.3819 23.9223 12.3842C23.9136 12.3868 23.9051 12.3875 23.9 12.3875V11.9875ZM23.4263 12.1909C23.5737 11.9978 23.7183 11.8875 23.9 11.8875V11.4875C23.5257 11.4875 23.2776 11.7265 23.1084 11.9481L23.4263 12.1909ZM23.9 11.8875C24.0817 11.8875 24.2259 11.9977 24.3743 12.1912L24.6917 11.9478C24.5221 11.7266 24.2743 11.4875 23.9 11.4875V11.8875ZM24.3741 12.191C24.5192 12.3808 24.677 12.6626 24.8823 13.0309L25.2317 12.8361C25.0323 12.4784 24.8587 12.1662 24.6919 11.948L24.3741 12.191ZM24.8824 13.031L25.002 13.2453L25.3513 13.0503L25.2316 12.836L24.8824 13.031ZM25.0019 13.2451C25.0667 13.3616 25.1112 13.4389 25.1457 13.4917C25.1821 13.5472 25.2156 13.5884 25.2618 13.6236L25.5042 13.3054C25.504 13.3052 25.5042 13.3054 25.5045 13.3057C25.5047 13.3059 25.5042 13.3054 25.5027 13.3038C25.4995 13.3 25.4927 13.2914 25.4804 13.2726C25.4549 13.2337 25.4172 13.1688 25.3514 13.0505L25.0019 13.2451ZM25.2621 13.6239C25.3077 13.6584 25.355 13.679 25.4172 13.6981C25.4754 13.716 25.5593 13.7363 25.6854 13.7649L25.7739 13.3748C25.6457 13.3457 25.5763 13.3285 25.5347 13.3157C25.5148 13.3096 25.5061 13.306 25.5031 13.3045C25.5018 13.3039 25.5018 13.3039 25.5026 13.3043C25.5034 13.3048 25.504 13.3052 25.5038 13.3051L25.2621 13.6239ZM25.6856 13.7649L25.9189 13.8176L26.007 13.4274L25.7737 13.3747L25.6856 13.7649ZM25.9189 13.8176C26.317 13.9076 26.6223 13.9772 26.8396 14.0629L26.9863 13.6908C26.7337 13.5912 26.3929 13.5147 26.0071 13.4274L25.9189 13.8176ZM26.8395 14.0629C27.0627 14.151 27.2066 14.2607 27.262 14.4386L27.6439 14.3197C27.5347 13.969 27.2513 13.7954 26.9864 13.6908L26.8395 14.0629ZM27.262 14.4385C27.3172 14.6161 27.2629 14.7922 27.1324 14.9992L27.4709 15.2124C27.6231 14.9708 27.7514 14.6655 27.644 14.3198L27.262 14.4385ZM27.1324 14.9993C27.0046 15.2024 26.7968 15.4463 26.525 15.7642L26.829 16.0242C27.0931 15.7153 27.324 15.4459 27.4709 15.2123L27.1324 14.9993ZM26.525 15.7641L26.3667 15.9491L26.6706 16.2092L26.8289 16.0242L26.525 15.7641ZM26.3667 15.9491C26.2813 16.0489 26.2245 16.117 26.1868 16.1681C26.1467 16.2225 26.1199 16.2685 26.1024 16.3244L26.4842 16.4439C26.4846 16.4427 26.4848 16.4417 26.4868 16.4381C26.4895 16.4332 26.4954 16.4235 26.5087 16.4055C26.5363 16.368 26.5836 16.3108 26.6706 16.2092L26.3667 15.9491ZM26.102 16.3258C26.0849 16.3818 26.0807 16.4354 26.0825 16.5039C26.0842 16.5687 26.0919 16.6589 26.1049 16.792L26.503 16.753C26.4898 16.6178 26.4836 16.5416 26.4823 16.4933C26.4817 16.47 26.4824 16.4576 26.4831 16.451C26.4836 16.4459 26.4841 16.4442 26.4846 16.4426L26.102 16.3258ZM26.1049 16.7917L26.1286 17.0377L26.5267 16.9993L26.5031 16.7533L26.1049 16.7917ZM26.1286 17.0378C26.1698 17.4623 26.2007 17.787 26.1898 18.0295L26.5894 18.0475C26.6019 17.77 26.5668 17.412 26.5267 16.9992L26.1286 17.0378ZM26.1898 18.0297C26.1789 18.2772 26.1242 18.4536 25.9786 18.5643L26.2207 18.8827C26.5117 18.6614 26.577 18.3298 26.5895 18.0473L26.1898 18.0297ZM25.9789 18.5641C25.8323 18.6751 25.6526 18.6753 25.4233 18.6093L25.3126 18.9937C25.5833 19.0717 25.9217 19.1092 26.2204 18.8829L25.9789 18.5641ZM25.423 18.6092C25.1989 18.5451 24.9131 18.4142 24.5407 18.2425L24.3733 18.6058C24.7342 18.7722 25.0524 18.9192 25.313 18.9938L25.423 18.6092ZM24.5406 18.2425L24.3219 18.1418L24.1547 18.5052L24.3733 18.6058L24.5406 18.2425ZM24.3218 18.1418C24.2031 18.0872 24.124 18.0522 24.0673 18.031C24.0072 18.0086 23.9573 17.9958 23.9 17.9958V18.3958C23.8907 18.3958 23.8902 18.3919 23.9275 18.4058C23.9681 18.421 24.0342 18.4498 24.1548 18.5052L24.3218 18.1418ZM23.9 17.9958C23.8427 17.9958 23.7927 18.0086 23.7326 18.031C23.676 18.0522 23.5968 18.0872 23.4781 18.1418L23.6452 18.5052C23.7658 18.4498 23.8318 18.421 23.8725 18.4058C23.9097 18.3919 23.9093 18.3958 23.9 18.3958V17.9958ZM23.4779 18.1419L23.2596 18.2425L23.4271 18.6058L23.6454 18.5051L23.4779 18.1419ZM23.2597 18.2425C22.8869 18.4141 22.6011 18.5451 22.377 18.6092L22.487 18.9938C22.7475 18.9192 23.0657 18.7722 23.427 18.6058L23.2597 18.2425ZM22.3769 18.6092C22.1471 18.6751 21.9677 18.675 21.8215 18.5642L21.5798 18.8828C21.8783 19.1093 22.2169 19.0712 22.4871 18.9938L22.3769 18.6092ZM21.8216 18.5642C21.6757 18.4535 21.621 18.2771 21.6101 18.03L21.2105 18.0476C21.223 18.3299 21.2883 18.6615 21.5797 18.8828L21.8216 18.5642ZM21.6101 18.0299C21.5992 17.7874 21.6301 17.4623 21.6714 17.0382L21.2733 16.9995C21.2331 17.4121 21.1981 17.7703 21.2105 18.0478L21.6101 18.0299ZM21.6714 17.0382L21.6954 16.7919L21.2973 16.7531L21.2733 16.9994L21.6714 17.0382ZM21.6954 16.7918C21.7083 16.6586 21.7159 16.5683 21.7175 16.5035C21.7192 16.4349 21.7148 16.3811 21.6973 16.3247L21.3154 16.4436C21.3158 16.4451 21.3163 16.4467 21.3168 16.4516C21.3175 16.458 21.3182 16.4703 21.3176 16.4934C21.3164 16.5417 21.3104 16.6178 21.2972 16.7532L21.6954 16.7918ZM21.6975 16.3255C21.6802 16.2689 21.6532 16.2225 21.6132 16.1682C21.5755 16.1172 21.5187 16.0491 21.4334 15.9492L21.1293 16.2091C21.2163 16.3109 21.2636 16.3681 21.2912 16.4056C21.3044 16.4236 21.3103 16.4332 21.3129 16.4379C21.3147 16.4412 21.3148 16.4419 21.3151 16.4428L21.6975 16.3255ZM21.4333 15.9491L21.2749 15.7641L20.971 16.0242L21.1294 16.2092L21.4333 15.9491ZM21.275 15.7643C21.0035 15.4464 20.7956 15.2024 20.6679 14.9996L20.3294 15.2128C20.4763 15.4459 20.7072 15.7153 20.9709 16.0241L21.275 15.7643ZM20.6678 14.9995C20.5371 14.7921 20.4828 14.6161 20.538 14.4385L20.156 14.3198C20.0485 14.6656 20.1769 14.9709 20.3295 15.2128L20.6678 14.9995ZM20.5379 14.4386C20.5934 14.2607 20.7373 14.151 20.9604 14.0629L20.8135 13.6908C20.5487 13.7954 20.2653 13.969 20.156 14.3197L20.5379 14.4386ZM20.9603 14.0629C21.1777 13.9772 21.4829 13.9076 21.8811 13.8176L21.7929 13.4274C21.407 13.5147 21.0663 13.5912 20.8136 13.6908L20.9603 14.0629ZM21.8804 13.8177L21.9014 13.8131L21.8146 13.4226L21.7936 13.4273L21.8804 13.8177ZM21.9021 13.8129L22.1141 13.7649L22.0258 13.3748L21.8138 13.4228L21.9021 13.8129ZM22.1141 13.7649C22.2405 13.7363 22.3245 13.716 22.3828 13.698C22.4453 13.6787 22.4925 13.658 22.538 13.6234L22.2959 13.305C22.2957 13.3052 22.2961 13.3048 22.2969 13.3044C22.2976 13.3039 22.2976 13.304 22.2964 13.3046C22.2934 13.306 22.2848 13.3096 22.2649 13.3158C22.2235 13.3285 22.1542 13.3457 22.0258 13.3748L22.1141 13.7649ZM22.5374 13.6239C22.5841 13.5886 22.6178 13.5473 22.6542 13.4918C22.6888 13.4391 22.7333 13.3617 22.7983 13.2453L22.449 13.0503C22.383 13.1686 22.3452 13.2336 22.3197 13.2724C22.3074 13.2911 22.3006 13.2997 22.2975 13.3033C22.2961 13.3049 22.2957 13.3053 22.296 13.305C22.2964 13.3046 22.2967 13.3044 22.2966 13.3045L22.5374 13.6239ZM22.7984 13.2451L22.9177 13.0308L22.5682 12.8362L22.4489 13.0505L22.7984 13.2451ZM22.9177 13.0308C23.1229 12.6624 23.2807 12.3808 23.4259 12.191L23.1081 11.948C22.9412 12.1662 22.7677 12.4779 22.5682 12.8362L22.9177 13.0308Z" fill="#1877F2" mask="url(#path-3-outside-1_1799_16426)"/>
</g>
</g>
</svg>
