<svg width="82" height="83" viewBox="0 0 82 83" fill="none" xmlns="http://www.w3.org/2000/svg">
<rect y="0.318359" width="82" height="82" rx="5" fill="#F1F9FF"/>
<path fill-rule="evenodd" clip-rule="evenodd" d="M19.6087 43.2836C19.6087 46.045 21.8472 48.2836 24.6087 48.2836H38.3546C41.116 48.2836 43.3546 46.045 43.3546 43.2836V32.6039C43.3546 31.3433 42.3202 30.3128 41.0558 30.3128H21.9075C20.643 30.3128 19.6087 31.3433 19.6087 32.6039V43.2836ZM43.921 49.4011H19.0538C18.7425 49.4011 18.4873 49.1478 18.4873 48.8481V32.6039C18.4873 30.7227 20.0205 29.1953 21.9075 29.1953H41.0558C42.9447 29.1953 44.4759 30.7227 44.4759 32.6039V48.8365C44.4875 49.1478 44.2323 49.4011 43.921 49.4011Z" fill="#0078D4"/>
<path fill-rule="evenodd" clip-rule="evenodd" d="M22.0851 40.8164C22.0851 43.5778 24.3237 45.8164 27.0851 45.8164H35.8893C38.6507 45.8164 40.8893 43.5778 40.8893 40.8164V37.7796C40.8893 35.0182 38.6507 32.7796 35.8893 32.7796H27.0851C24.3237 32.7796 22.0851 35.0182 22.0851 37.7796V40.8164ZM41.4441 46.9339H21.5186C21.2074 46.9339 20.9521 46.6787 20.9521 46.3693V32.6037C20.9521 32.0952 21.3852 31.6621 21.8976 31.6621H41.0439C41.5543 31.6621 41.9874 32.0933 41.9874 32.6037V46.3693C42.0106 46.6787 41.7554 46.9339 41.4441 46.9339Z" fill="#0078D4"/>
<mask id="mask0_4277_20867" style="mask-type:luminance" maskUnits="userSpaceOnUse" x="16" y="48" width="31" height="6">
<path d="M16.5 50.9663C16.5 49.4629 17.7188 48.2441 19.2222 48.2441H44.1668C45.6702 48.2441 46.889 49.4629 46.889 50.9663C46.889 52.4698 45.6702 53.6885 44.1668 53.6885H19.2222C17.7188 53.6885 16.5 52.4698 16.5 50.9663Z" fill="white"/>
</mask>
<g mask="url(#mask0_4277_20867)">
<path fill-rule="evenodd" clip-rule="evenodd" d="M19.1835 49.4005C18.3221 49.3995 17.6233 50.0976 17.6233 50.959C17.6233 51.7111 18.2323 52.3201 18.9883 52.3201H43.9889C44.7429 52.3201 45.3539 51.7111 45.3539 50.959C45.3539 50.0973 44.6554 49.3987 43.7937 49.3987H36.3772C35.7536 49.3987 35.2481 49.9043 35.2481 50.5278C35.2481 50.8391 34.9929 51.0924 34.6797 51.0924H28.2724C27.9611 51.0924 27.7059 50.8391 27.7059 50.5394C27.7059 49.9156 27.2006 49.4098 26.5768 49.409L19.1835 49.4005ZM43.9889 53.4376H18.9883C17.6117 53.4376 16.5 52.3201 16.5 50.959V48.8342C16.5 48.5249 16.7552 48.2812 17.0665 48.2812H28.2956C28.6069 48.2812 28.8621 48.5345 28.8621 48.8458C28.8621 49.4694 29.3676 49.9749 29.9912 49.9749H33.0092C33.6328 49.9749 34.1383 49.4694 34.1383 48.8458C34.1383 48.5345 34.3935 48.2929 34.7048 48.2929H45.9339C46.2452 48.2929 46.5004 48.5461 46.5004 48.8574V50.9822C46.4753 52.322 45.3655 53.4376 43.9889 53.4376Z" fill="#0078D4"/>
</g>
<mask id="mask1_4277_20867" style="mask-type:luminance" maskUnits="userSpaceOnUse" x="48" y="26" width="18" height="31">
<path d="M48.374 31.4707C48.374 28.7093 50.6126 26.4707 53.374 26.4707H60.5C63.2614 26.4707 65.5 28.7093 65.5 31.4707V51.1674C65.5 53.9289 63.2614 56.1674 60.5 56.1674H53.374C50.6126 56.1674 48.374 53.9289 48.374 51.1674V31.4707Z" fill="white"/>
</mask>
<g mask="url(#mask1_4277_20867)">
<path fill-rule="evenodd" clip-rule="evenodd" d="M50.8858 28.0237C50.2632 28.0237 49.7625 28.5206 49.7625 29.1412V53.496C49.7625 54.1147 50.2632 54.6135 50.8858 54.6135H63.2459C63.8666 54.6135 64.3673 54.1147 64.3673 53.496V29.1412C64.3673 28.5206 63.8666 28.0237 63.2459 28.0237H50.8858ZM63.2459 55.731H50.8858C49.6407 55.731 48.6411 54.7256 48.6411 53.496V29.1412C48.6411 27.9 49.6523 26.9043 50.8858 26.9043H63.2459C64.491 26.9043 65.4887 27.9116 65.4887 29.1412V53.496C65.4887 54.7353 64.491 55.731 63.2459 55.731Z" fill="#0078D4"/>
</g>
<mask id="mask2_4277_20867" style="mask-type:luminance" maskUnits="userSpaceOnUse" x="48" y="30" width="18" height="3">
<path d="M48.374 31.6682C48.374 31.2582 48.7064 30.9258 49.1164 30.9258H64.7576C65.1676 30.9258 65.5 31.2582 65.5 31.6682C65.5 32.0782 65.1676 32.4106 64.7576 32.4106H49.1164C48.7064 32.4106 48.374 32.0782 48.374 31.6682Z" fill="white"/>
</mask>
<g mask="url(#mask2_4277_20867)">
<path fill-rule="evenodd" clip-rule="evenodd" d="M64.9332 32.1605H49.1954C48.8841 32.1605 48.6289 31.9072 48.6289 31.6075C48.6289 31.2962 48.8841 31.043 49.1954 31.043H64.9332C65.2445 31.043 65.4997 31.2962 65.4997 31.6075C65.4881 31.9169 65.2445 32.1605 64.9332 32.1605Z" fill="#0078D4"/>
</g>
<mask id="mask3_4277_20867" style="mask-type:luminance" maskUnits="userSpaceOnUse" x="48" y="50" width="18" height="2">
<path d="M48.374 50.969C48.374 50.559 48.7064 50.2266 49.1164 50.2266H64.7576C65.1676 50.2266 65.5 50.559 65.5 50.969C65.5 51.379 65.1676 51.7114 64.7576 51.7114H49.1164C48.7064 51.7114 48.374 51.379 48.374 50.969Z" fill="white"/>
</mask>
<g mask="url(#mask3_4277_20867)">
<path fill-rule="evenodd" clip-rule="evenodd" d="M64.9332 51.592H49.1954C48.8841 51.592 48.6289 51.3387 48.6289 51.0274C48.6289 50.7181 48.8841 50.4629 49.1954 50.4629H64.9332C65.2445 50.4629 65.4997 50.7181 65.4997 51.0274C65.4881 51.3387 65.2445 51.592 64.9332 51.592Z" fill="#0078D4"/>
</g>
<path fill-rule="evenodd" clip-rule="evenodd" d="M28.9838 39.1897C28.8407 39.1897 28.7054 39.3115 28.7054 39.4662V43.3272C28.7054 43.4702 28.8291 43.6036 28.9838 43.6036H33.9932C34.1362 43.6036 34.2696 43.4818 34.2696 43.3272V39.4662C34.2696 39.3231 34.1478 39.1897 33.9932 39.1897H28.9838ZM33.9932 44.7211H28.9838C28.2162 44.7211 27.584 44.1025 27.584 43.3272V39.4662C27.584 38.7025 28.2065 38.0703 28.9838 38.0703H33.9932C34.7588 38.0703 35.3929 38.6909 35.3929 39.4662V43.3272C35.391 44.0909 34.7588 44.7211 33.9932 44.7211Z" fill="#0078D4"/>
<path fill-rule="evenodd" clip-rule="evenodd" d="M33.5372 39.188C33.2259 39.188 32.9707 38.9328 32.9707 38.6332V35.2923C32.9707 35.1376 32.8373 35.0042 32.6827 35.0042H30.2833C30.1287 35.0042 29.9953 35.1376 29.9953 35.2923V38.6332C29.9953 38.9444 29.74 39.1977 29.4288 39.1977C29.1156 39.1977 28.8604 38.9444 28.8604 38.6332V35.2923C28.8604 34.517 29.4945 33.8867 30.2717 33.8867H32.6711C33.4483 33.8867 34.0824 34.517 34.0824 35.2923V38.6332C34.1037 38.9444 33.8485 39.188 33.5372 39.188Z" fill="#0078D4"/>
<path fill-rule="evenodd" clip-rule="evenodd" d="M31.4815 42.5067C31.1702 42.5067 30.915 42.2515 30.915 41.9518V40.8575C30.915 40.5462 31.1702 40.293 31.4815 40.293C31.7947 40.293 32.048 40.5462 32.048 40.8575V41.9518C32.048 42.2515 31.7928 42.5067 31.4815 42.5067Z" fill="#0078D4"/>
<path fill-rule="evenodd" clip-rule="evenodd" d="M54.3933 37.9353C53.0377 38.9624 51.6676 40.3036 52.1187 41.9435C52.5283 43.4261 53.3934 44.7731 54.7001 45.9696C56.0378 47.1944 58.1052 47.1987 59.4436 45.9747C60.749 44.7808 61.6129 43.4315 62.0235 41.9435C62.4743 40.3048 61.1013 38.9666 59.7468 37.94C58.6829 37.1337 58.0315 36.2118 57.5689 35.5595C57.3036 35.1893 56.8261 35.1833 56.5694 35.5595C56.108 36.2119 55.4569 37.1295 54.3933 37.9353ZM57.0701 48.9037C56.9696 48.9037 56.8826 48.8805 56.7936 48.8263C52.894 46.6358 51.5058 43.991 51.0167 42.1639C50.485 40.1513 50.9065 38.6568 50.9161 38.6026C50.9722 38.4132 51.1172 38.2701 51.3067 38.214C53.8046 37.518 54.9163 35.9462 55.6491 34.906C56.115 34.2525 56.4804 33.7344 57.0585 33.7344C57.6482 33.7344 58.0155 34.2525 58.4699 34.906C59.2026 35.9462 60.324 37.518 62.8123 38.214C63.0018 38.2701 63.1448 38.4132 63.2009 38.6026C63.2241 38.6684 63.634 40.1513 63.1023 42.1639C62.6131 43.991 61.225 46.6242 57.3253 48.8263C57.2596 48.8708 57.1591 48.9037 57.0701 48.9037Z" fill="#0078D4"/>
<path fill-rule="evenodd" clip-rule="evenodd" d="M55.9601 43.5697C55.8151 43.5697 55.6701 43.5137 55.5599 43.4035L54.3709 42.2299C54.1485 42.0095 54.1485 41.6557 54.3709 41.4449C54.5932 41.2245 54.9489 41.2245 55.1597 41.4449C55.5947 41.8789 56.2988 41.8793 56.7343 41.4458L58.9569 39.2332C59.1792 39.0108 59.533 39.0108 59.7437 39.2332C59.9661 39.4555 59.9661 39.8093 59.7437 40.0181L56.3448 43.4151C56.2482 43.5137 56.1051 43.5697 55.9601 43.5697Z" fill="#0078D4"/>
<mask id="mask4_4277_20867" style="mask-type:luminance" maskUnits="userSpaceOnUse" x="30" y="21" width="28" height="10">
<path d="M30.5557 25.8497C30.5557 23.3212 32.6054 21.2715 35.1339 21.2715H53.1995C55.728 21.2715 57.7778 23.3212 57.7778 25.8497C57.7778 28.3782 55.728 30.428 53.1995 30.428H35.1339C32.6054 30.428 30.5557 28.3782 30.5557 25.8497Z" fill="white"/>
</mask>
<g mask="url(#mask4_4277_20867)">
<path fill-rule="evenodd" clip-rule="evenodd" d="M31.4815 30.312C31.1702 30.312 30.915 30.0587 30.915 29.7474V23.6959C30.915 22.358 32.0035 21.2715 33.3492 21.2715H55.1829C55.8268 21.2715 56.4377 21.5267 56.9037 21.9791C57.3599 22.4334 57.6151 23.0405 57.6151 23.694V27.468C57.6151 27.7773 57.3599 28.0325 57.0487 28.0325C56.7354 28.0325 56.4802 27.7773 56.4802 27.468V23.6959C56.4802 23.3537 56.3468 23.0193 56.0916 22.7776C55.848 22.534 55.5135 22.389 55.1713 22.389H33.3376C32.6164 22.389 32.0267 22.9767 32.0267 23.6959V29.759C32.048 30.0703 31.7928 30.312 31.4815 30.312Z" fill="#0078D4"/>
</g>
<mask id="mask5_4277_20867" style="mask-type:luminance" maskUnits="userSpaceOnUse" x="30" y="52" width="28" height="10">
<path d="M30.5552 56.7853C30.5552 54.2568 32.6049 52.207 35.1334 52.207H53.199C55.7275 52.207 57.7773 54.2568 57.7773 56.7853C57.7773 59.3138 55.7275 61.3635 53.199 61.3635H35.1334C32.6049 61.3635 30.5552 59.3138 30.5552 56.7853Z" fill="white"/>
</mask>
<g mask="url(#mask5_4277_20867)">
<path fill-rule="evenodd" clip-rule="evenodd" d="M55.1927 61.3626H33.3589C32.0152 61.3626 30.9248 60.278 30.9248 58.9382V52.8751C30.9248 52.5638 31.18 52.3105 31.4932 52.3105C31.8045 52.3105 32.0597 52.5638 32.0597 52.8751V58.9382C32.0597 59.6574 32.6475 60.2451 33.3705 60.2451H55.2043C55.9255 60.2451 56.5151 59.6574 56.5151 58.9382V55.1662C56.5151 54.8549 56.7703 54.6016 57.0816 54.6016C57.3929 54.6016 57.6481 54.8549 57.6481 55.1662V58.9382C57.6249 60.278 56.5383 61.3626 55.1927 61.3626Z" fill="#0078D4"/>
</g>
</svg>
