<svg width="592" height="609" viewBox="0 0 592 609" fill="none" xmlns="http://www.w3.org/2000/svg">
<path d="M424.766 364.347C423.73 365.471 421.954 365.53 420.83 364.465C419.705 363.4 419.646 361.624 420.711 360.529C421.777 359.404 423.523 359.345 424.647 360.411C425.772 361.446 425.831 363.222 424.766 364.347ZM419.616 359.493C418.018 361.21 418.107 363.932 419.824 365.53C421.54 367.158 424.233 367.069 425.861 365.353C427.488 363.636 427.399 360.943 425.683 359.316C423.967 357.688 421.244 357.777 419.616 359.493Z" fill="#B8CCDB"/>
<path d="M415.715 245.528C414.65 246.653 412.874 246.712 411.779 245.647C410.654 244.581 410.595 242.835 411.631 241.711C412.696 240.586 414.472 240.527 415.597 241.592C416.721 242.628 416.78 244.404 415.715 245.528ZM410.566 240.675C408.938 242.391 409.027 245.114 410.743 246.741C412.46 248.339 415.182 248.28 416.78 246.564C418.408 244.847 418.319 242.125 416.603 240.497C414.886 238.87 412.193 238.958 410.566 240.675Z" fill="#B8CCDB"/>
<path d="M336.821 244.737C335.755 245.862 333.98 245.921 332.885 244.856C331.76 243.79 331.701 242.044 332.766 240.92C333.802 239.795 335.578 239.736 336.702 240.801C337.827 241.867 337.886 243.613 336.821 244.737ZM331.671 239.884C330.073 241.6 330.133 244.323 331.849 245.951C333.565 247.549 336.288 247.49 337.916 245.773C339.514 244.057 339.425 241.334 337.708 239.706C335.992 238.108 333.299 238.168 331.671 239.884Z" fill="#B8CCDB"/>
<path d="M365.414 216.524C364.378 217.649 362.602 217.708 361.478 216.643C360.353 215.607 360.294 213.831 361.36 212.707C362.425 211.582 364.2 211.523 365.295 212.588C366.42 213.654 366.479 215.429 365.414 216.524ZM360.294 211.701C358.667 213.417 358.755 216.11 360.472 217.738C362.188 219.365 364.881 219.276 366.509 217.56C368.136 215.844 368.048 213.121 366.331 211.493C364.615 209.895 361.892 209.984 360.294 211.701Z" fill="#B8CCDB"/>
<path d="M341.709 267.72C340.673 268.844 338.898 268.903 337.773 267.838C336.649 266.773 336.589 265.027 337.655 263.902C338.72 262.777 340.496 262.718 341.591 263.784C342.715 264.819 342.774 266.595 341.709 267.72ZM336.56 262.866C334.962 264.583 335.051 267.305 336.767 268.933C338.483 270.531 341.176 270.442 342.804 268.726C344.432 267.009 344.343 264.316 342.626 262.689C340.91 261.061 338.187 261.15 336.56 262.866Z" fill="#B8CCDB"/>
<path d="M417.926 284.391C416.86 285.486 415.085 285.546 413.96 284.51C412.836 283.444 412.806 281.669 413.842 280.544C414.907 279.42 416.683 279.39 417.807 280.426C418.932 281.491 418.962 283.267 417.926 284.391ZM412.777 279.538C411.149 281.255 411.238 283.948 412.954 285.575C414.671 287.203 417.393 287.114 418.991 285.398C420.619 283.681 420.53 280.959 418.814 279.361C417.097 277.733 414.375 277.822 412.777 279.538Z" fill="#B8CCDB"/>
<path d="M366.143 345.86C365.077 346.985 363.302 347.044 362.177 345.979C361.053 344.943 361.023 343.167 362.059 342.043C363.124 340.918 364.9 340.859 366.024 341.924C367.149 342.99 367.178 344.765 366.143 345.86ZM360.993 341.036C359.366 342.753 359.455 345.446 361.171 347.073C362.887 348.701 365.61 348.612 367.208 346.896C368.836 345.18 368.747 342.457 367.03 340.829C365.314 339.231 362.591 339.32 360.993 341.036Z" fill="#B8CCDB"/>
<path d="M305.023 306.672C303.958 307.797 302.183 307.856 301.058 306.791C299.933 305.755 299.904 303.979 300.94 302.855C302.005 301.73 303.781 301.671 304.905 302.736C306 303.802 306.059 305.577 305.023 306.672ZM299.874 301.849C298.247 303.565 298.335 306.258 300.052 307.886C301.768 309.513 304.491 309.425 306.089 307.708C307.716 305.992 307.628 303.269 305.911 301.671C304.195 300.044 301.472 300.132 299.874 301.849Z" fill="#B8CCDB"/>
<path d="M360.783 377.579C359.718 378.703 357.942 378.763 356.818 377.697C355.693 376.632 355.664 374.856 356.699 373.761C357.765 372.637 359.54 372.578 360.665 373.613C361.76 374.679 361.819 376.454 360.783 377.579ZM355.634 372.726C354.006 374.442 354.095 377.165 355.812 378.763C357.528 380.39 360.221 380.302 361.849 378.585C363.476 376.869 363.387 374.176 361.671 372.548C359.955 370.92 357.232 371.009 355.634 372.726Z" fill="#B8CCDB"/>
<path d="M289.398 347.094C288.333 348.219 286.558 348.278 285.463 347.213C284.338 346.177 284.279 344.401 285.344 343.277C286.38 342.152 288.156 342.093 289.28 343.158C290.405 344.224 290.464 345.999 289.398 347.094ZM284.249 342.271C282.622 343.987 282.71 346.68 284.427 348.308C286.143 349.935 288.866 349.846 290.493 348.13C292.091 346.414 292.003 343.691 290.286 342.093C288.57 340.465 285.877 340.554 284.249 342.271Z" fill="#B8CCDB"/>
<path d="M249.113 327.538C248.078 328.663 246.302 328.722 245.177 327.656C244.053 326.591 244.023 324.845 245.059 323.721C246.124 322.596 247.9 322.537 248.995 323.602C250.119 324.668 250.179 326.414 249.113 327.538ZM243.964 322.685C242.366 324.401 242.455 327.124 244.171 328.751C245.888 330.349 248.581 330.29 250.208 328.574C251.836 326.857 251.747 324.135 250.031 322.507C248.314 320.909 245.592 320.968 243.964 322.685Z" fill="#B8CCDB"/>
<path d="M311.107 404.302C310.042 405.426 308.267 405.485 307.172 404.42C306.047 403.355 305.988 401.579 307.053 400.484C308.089 399.36 309.865 399.3 310.989 400.366C312.114 401.401 312.173 403.177 311.107 404.302ZM305.958 399.448C304.331 401.165 304.419 403.887 306.136 405.485C307.852 407.113 310.575 407.024 312.173 405.308C313.8 403.591 313.712 400.898 311.995 399.271C310.279 397.643 307.586 397.732 305.958 399.448Z" fill="#B8CCDB"/>
<path d="M270.151 402.489C269.085 403.584 267.339 403.643 266.215 402.607C265.09 401.542 265.031 399.767 266.096 398.642C267.132 397.517 268.908 397.488 270.032 398.524C271.157 399.589 271.216 401.365 270.151 402.489ZM265.001 397.636C263.403 399.352 263.463 402.045 265.179 403.673C266.895 405.3 269.618 405.212 271.246 403.495C272.844 401.779 272.784 399.056 271.068 397.458C269.322 395.831 266.629 395.919 265.001 397.636Z" fill="#B8CCDB"/>
<path d="M260.65 467.067C259.615 468.162 257.839 468.221 256.715 467.156C255.59 466.12 255.531 464.345 256.596 463.22C257.662 462.096 259.407 462.066 260.532 463.102C261.657 464.167 261.716 465.943 260.65 467.067ZM255.501 462.214C253.903 463.93 253.992 466.623 255.708 468.251C257.425 469.879 260.118 469.79 261.745 468.073C263.343 466.357 263.284 463.634 261.568 462.036C259.851 460.409 257.129 460.498 255.501 462.214Z" fill="#B8CCDB"/>
<path d="M161.004 483.46C159.939 484.555 158.163 484.614 157.038 483.578C155.914 482.513 155.884 480.737 156.92 479.613C157.985 478.488 159.761 478.459 160.886 479.494C161.981 480.56 162.04 482.335 161.004 483.46ZM155.855 478.606C154.227 480.323 154.316 483.045 156.032 484.644C157.749 486.271 160.442 486.182 162.069 484.466C163.697 482.75 163.608 480.027 161.892 478.429C160.175 476.801 157.453 476.89 155.855 478.606Z" fill="#B8CCDB"/>
<path d="M113.945 457.511C112.88 458.635 111.104 458.695 109.98 457.629C108.885 456.593 108.826 454.818 109.861 453.693C110.927 452.569 112.702 452.51 113.827 453.575C114.952 454.64 115.011 456.416 113.945 457.511ZM108.796 452.657C107.169 454.403 107.257 457.096 108.974 458.724C110.69 460.352 113.413 460.263 115.011 458.547C116.638 456.83 116.55 454.108 114.833 452.48C113.117 450.882 110.424 450.941 108.796 452.657Z" fill="#B8CCDB"/>
<path d="M73.2735 437.555C72.2081 438.68 70.4325 438.739 69.308 437.674C68.1834 436.608 68.1243 434.863 69.1896 433.738C70.255 432.613 72.0306 432.554 73.1551 433.62C74.25 434.655 74.3092 436.431 73.2735 437.555ZM68.1243 432.702C66.4966 434.419 66.5854 437.141 68.3018 438.769C70.0182 440.367 72.7112 440.278 74.3388 438.562C75.9664 436.845 75.8777 434.152 74.1613 432.525C72.4449 430.897 69.7223 430.986 68.1243 432.702Z" fill="#B8CCDB"/>
<path d="M239.213 391.722C238.148 392.846 236.372 392.905 235.277 391.84C234.152 390.775 234.093 389.029 235.159 387.904C236.194 386.78 237.97 386.72 239.095 387.786C240.219 388.851 240.249 390.597 239.213 391.722ZM234.064 386.868C232.436 388.585 232.525 391.307 234.241 392.935C235.958 394.533 238.68 394.474 240.278 392.757C241.906 391.041 241.817 388.318 240.101 386.691C238.384 385.093 235.691 385.152 234.064 386.868Z" fill="#B8CCDB"/>
<path d="M268.989 438.155C267.953 439.28 266.177 439.339 265.053 438.273C263.928 437.208 263.869 435.462 264.934 434.338C266 433.213 267.746 433.154 268.87 434.219C269.995 435.255 270.054 437.031 268.989 438.155ZM263.839 433.302C262.241 435.018 262.3 437.741 264.017 439.368C265.733 440.966 268.456 440.907 270.083 439.161C271.711 437.445 271.622 434.752 269.906 433.124C268.19 431.497 265.467 431.585 263.839 433.302Z" fill="#B8CCDB"/>
<path d="M151.531 382.636C150.466 383.76 148.69 383.82 147.566 382.754C146.441 381.689 146.412 379.943 147.447 378.818C148.513 377.694 150.288 377.635 151.413 378.7C152.508 379.765 152.567 381.511 151.531 382.636ZM146.382 377.783C144.754 379.499 144.843 382.221 146.56 383.849C148.276 385.447 150.969 385.388 152.597 383.672C154.224 381.955 154.135 379.233 152.419 377.605C150.703 376.007 147.98 376.066 146.382 377.783Z" fill="#B8CCDB"/>
<path d="M217.678 463.335C216.642 464.459 214.867 464.519 213.742 463.453C212.618 462.388 212.558 460.612 213.624 459.517C214.689 458.393 216.435 458.334 217.56 459.399C218.684 460.435 218.743 462.21 217.678 463.335ZM212.529 458.481C210.931 460.198 210.99 462.92 212.706 464.548C214.452 466.146 217.145 466.087 218.773 464.371C220.401 462.625 220.312 459.932 218.595 458.304C216.879 456.676 214.156 456.765 212.529 458.481Z" fill="#B8CCDB"/>
<path d="M165.867 83.7137C164.802 84.8382 163.026 84.8678 161.902 83.8321C160.807 82.7667 160.748 80.9911 161.783 79.8666C162.849 78.7716 164.624 78.7124 165.749 79.7482C166.873 80.8136 166.903 82.5891 165.867 83.7137ZM160.718 78.8604C159.09 80.5768 159.179 83.2994 160.896 84.8974C162.612 86.525 165.335 86.4363 166.933 84.7199C168.56 83.0034 168.471 80.2809 166.755 78.6828C165.039 77.0552 162.316 77.144 160.718 78.8604Z" fill="#B8CCDB"/>
<path d="M205.992 195.018C204.927 196.143 203.181 196.202 202.056 195.137C200.932 194.101 200.873 192.325 201.938 191.201C202.974 190.076 204.749 190.017 205.874 191.082C206.998 192.148 207.058 193.894 205.992 195.018ZM200.843 190.195C199.215 191.911 199.304 194.604 201.021 196.232C202.737 197.859 205.46 197.771 207.087 196.054C208.685 194.338 208.596 191.615 206.88 189.988C205.164 188.389 202.471 188.478 200.843 190.195Z" fill="#B8CCDB"/>
<path d="M142.242 208.507C141.177 209.602 139.431 209.661 138.306 208.625C137.182 207.56 137.123 205.784 138.188 204.66C139.224 203.535 140.999 203.505 142.124 204.541C143.248 205.607 143.308 207.382 142.242 208.507ZM137.093 203.653C135.465 205.37 135.554 208.092 137.271 209.69C138.987 211.318 141.71 211.229 143.337 209.513C144.935 207.796 144.876 205.074 143.16 203.476C141.443 201.848 138.721 201.937 137.093 203.653Z" fill="#B8CCDB"/>
<path d="M63.3674 207.708C62.3021 208.832 60.5561 208.892 59.4315 207.826C58.307 206.761 58.2478 204.985 59.3132 203.861C60.3785 202.766 62.1245 202.707 63.2491 203.772C64.3736 204.808 64.4328 206.583 63.3674 207.708ZM58.2182 202.855C56.6202 204.571 56.6794 207.294 58.3958 208.892C60.1122 210.519 62.8348 210.43 64.4624 208.714C66.0604 206.998 66.0012 204.305 64.2848 202.677C62.5684 201.049 59.8458 201.138 58.2182 202.855Z" fill="#B8CCDB"/>
<path d="M14.875 309.071C13.8097 310.196 12.0341 310.225 10.9095 309.189C9.785 308.124 9.75541 306.349 10.7912 305.224C11.8565 304.099 13.6321 304.07 14.7567 305.106C15.8516 306.171 15.9108 307.947 14.875 309.071ZM9.72581 304.218C8.09819 305.934 8.18697 308.657 9.90337 310.255C11.6198 311.882 14.3424 311.794 15.9404 310.077C17.568 308.361 17.4792 305.638 15.7628 304.04C14.0464 302.413 11.3238 302.501 9.72581 304.218Z" fill="#B8CCDB"/>
<path d="M5.01565 226.27C3.9503 227.395 2.2043 227.454 1.07976 226.388C-0.0447862 225.353 -0.103969 223.577 0.961386 222.453C1.99715 221.328 3.77274 221.269 4.89728 222.334C6.02182 223.399 6.08101 225.175 5.01565 226.27ZM-0.13356 221.446C-1.76119 223.163 -1.67241 225.856 0.0439954 227.483C1.7604 229.111 4.48298 229.022 6.1106 227.306C7.70863 225.589 7.64945 222.867 5.93304 221.269C4.21663 219.641 1.49407 219.73 -0.13356 221.446Z" fill="#B8CCDB"/>
<path d="M144.838 541.759C143.802 542.884 142.026 542.943 140.902 541.878C139.777 540.842 139.718 539.066 140.783 537.942C141.849 536.817 143.624 536.758 144.719 537.824C145.844 538.889 145.903 540.664 144.838 541.759ZM139.718 536.936C138.09 538.652 138.179 541.345 139.896 542.973C141.612 544.6 144.305 544.512 145.933 542.795C147.56 541.079 147.471 538.356 145.755 536.729C144.039 535.131 141.316 535.19 139.718 536.936Z" fill="#B8CCDB"/>
<path d="M109.973 527.294C108.907 528.419 107.132 528.478 106.007 527.412C104.912 526.377 104.853 524.601 105.889 523.476C106.954 522.352 108.73 522.293 109.854 523.358C110.979 524.423 111.008 526.169 109.973 527.294ZM104.823 522.441C103.196 524.157 103.285 526.88 105.001 528.507C106.717 530.135 109.44 530.046 111.038 528.33C112.666 526.613 112.577 523.891 110.86 522.263C109.144 520.665 106.451 520.724 104.823 522.441Z" fill="#B8CCDB"/>
<path d="M44.2478 483.792C43.212 484.917 41.4364 484.976 40.3119 483.91C39.1873 482.845 39.1577 481.099 40.1935 479.975C41.2589 478.85 43.0345 478.791 44.159 479.856C45.2539 480.892 45.3131 482.667 44.2478 483.792ZM39.1282 478.939C37.5005 480.655 37.5893 483.378 39.3057 485.005C41.0221 486.603 43.7151 486.544 45.3427 484.828C46.9704 483.111 46.8816 480.389 45.1652 478.761C43.4488 477.163 40.7262 477.222 39.1282 478.939Z" fill="#B8CCDB"/>
<mask id="mask0_5201_24025" style="mask-type:luminance" maskUnits="userSpaceOnUse" x="131" y="601" width="10" height="8">
<path d="M131.324 601.654H140.232V608.905H131.324V601.654Z" fill="white"/>
</mask>
<g mask="url(#mask0_5201_24025)">
<path d="M137.682 608.554C136.646 609.648 134.87 609.708 133.746 608.642C132.621 607.607 132.562 605.831 133.627 604.706C134.693 603.582 136.468 603.523 137.563 604.588C138.688 605.653 138.747 607.429 137.682 608.554ZM132.532 603.7C130.934 605.417 131.023 608.11 132.74 609.737C134.456 611.365 137.149 611.276 138.777 609.56C140.404 607.843 140.315 605.121 138.599 603.523C136.883 601.895 134.16 601.984 132.532 603.7Z" fill="#B8CCDB"/>
</g>
<path d="M75.8633 568.686C74.798 569.781 73.0224 569.84 71.9274 568.805C70.8029 567.739 70.7437 565.964 71.8091 564.839C72.8448 563.715 74.6204 563.656 75.7449 564.721C76.8695 565.786 76.9287 567.562 75.8633 568.686ZM70.7141 563.833C69.0865 565.549 69.1752 568.242 70.8917 569.87C72.6081 571.498 75.3306 571.409 76.9287 569.693C78.5563 567.976 78.4675 565.254 76.7511 563.656C75.0347 562.028 72.3417 562.117 70.7141 563.833Z" fill="#B8CCDB"/>
<path d="M-2.42185 550.073C-3.4872 551.198 -5.2628 551.257 -6.38733 550.191C-7.51187 549.126 -7.54147 547.35 -6.50571 546.256C-5.44035 545.131 -3.66476 545.072 -2.54021 546.137C-1.44527 547.173 -1.38609 548.949 -2.42185 550.073ZM-7.57106 545.22C-9.19869 546.936 -9.10991 549.659 -7.3935 551.286C-5.6771 552.884 -2.98411 552.796 -1.35649 551.079C0.271133 549.363 0.182352 546.67 -1.53405 545.042C-3.25045 543.415 -5.97303 543.503 -7.57106 545.22Z" fill="#B8CCDB"/>
<path d="M557.34 10.5884C556.275 11.7129 554.499 11.7721 553.404 10.7068C552.279 9.671 552.22 7.89541 553.286 6.77087C554.321 5.64633 556.097 5.61674 557.221 6.65249C558.346 7.71785 558.376 9.49344 557.34 10.5884ZM552.191 5.7647C550.563 7.4811 550.652 10.1741 552.368 11.8017C554.085 13.4293 556.807 13.3406 558.405 11.6242C560.033 9.90775 559.944 7.18518 558.228 5.58714C556.511 3.95952 553.818 4.04829 552.191 5.7647Z" fill="#B8CCDB"/>
<path d="M562.233 33.585C561.197 34.7095 559.421 34.7687 558.297 33.7034C557.172 32.6676 557.113 30.892 558.178 29.7675C559.244 28.6429 560.99 28.5838 562.114 29.6491C563.239 30.7145 563.298 32.4605 562.233 33.585ZM557.083 28.7317C555.485 30.4481 555.545 33.1707 557.261 34.7983C558.977 36.4259 561.7 36.3372 563.328 34.6208C564.955 32.9044 564.866 30.1818 563.15 28.5542C561.434 26.9561 558.711 27.0153 557.083 28.7317Z" fill="#B8CCDB"/>
<mask id="mask1_5201_24025" style="mask-type:luminance" maskUnits="userSpaceOnUse" x="578" y="99" width="14" height="16">
<path d="M578.742 99.4336H592V114.585H578.742V99.4336Z" fill="white"/>
</mask>
<g mask="url(#mask1_5201_24025)">
<path d="M586.68 111.743C585.614 112.868 583.839 112.897 582.714 111.861C581.59 110.796 581.56 109.02 582.596 107.896C583.661 106.771 585.437 106.742 586.532 107.777C587.656 108.843 587.715 110.618 586.68 111.743ZM581.531 106.89C579.903 108.606 579.992 111.329 581.708 112.927C583.424 114.554 586.147 114.466 587.745 112.749C589.373 111.033 589.284 108.31 587.568 106.712C585.851 105.085 583.129 105.173 581.531 106.89Z" fill="#B8CCDB"/>
</g>
<path d="M525.553 72.5653C524.487 73.6602 522.712 73.7194 521.587 72.6836C520.463 71.6183 520.404 69.8427 521.469 68.7181C522.534 67.5936 524.31 67.564 525.405 68.5998C526.529 69.6651 526.589 71.4407 525.553 72.5653ZM520.404 67.712C518.776 69.4284 518.865 72.151 520.581 73.749C522.298 75.3766 524.99 75.2878 526.618 73.5714C528.246 71.855 528.157 69.1324 526.441 67.5344C524.724 65.9068 522.002 65.9956 520.404 67.712Z" fill="#B8CCDB"/>
<path d="M581.281 143.43C580.246 144.555 578.47 144.614 577.345 143.549C576.221 142.484 576.162 140.737 577.227 139.613C578.292 138.488 580.068 138.429 581.163 139.495C582.287 140.53 582.347 142.306 581.281 143.43ZM576.132 138.577C574.534 140.294 574.623 143.016 576.339 144.644C578.056 146.242 580.749 146.183 582.376 144.466C584.004 142.75 583.915 140.027 582.199 138.4C580.482 136.772 577.76 136.861 576.132 138.577Z" fill="#B8CCDB"/>
<path d="M509.93 112.981C508.864 114.106 507.089 114.135 505.964 113.1C504.869 112.034 504.81 110.259 505.846 109.134C506.911 108.01 508.687 107.98 509.811 109.016C510.936 110.081 510.965 111.857 509.93 112.981ZM504.781 108.128C503.153 109.844 503.242 112.567 504.958 114.165C506.674 115.793 509.397 115.704 510.995 113.987C512.623 112.271 512.534 109.548 510.818 107.95C509.101 106.323 506.408 106.412 504.781 108.128Z" fill="#B8CCDB"/>
<path d="M469.65 93.3875C468.615 94.512 466.839 94.5712 465.715 93.5059C464.59 92.4701 464.531 90.6945 465.596 89.57C466.661 88.4454 468.437 88.3863 469.532 89.4516C470.657 90.517 470.716 92.2926 469.65 93.3875ZM464.501 88.5638C462.903 90.2802 462.992 92.9732 464.708 94.6008C466.425 96.2285 469.118 96.1397 470.745 94.4233C472.373 92.7069 472.284 89.9843 470.568 88.3567C468.851 86.7586 466.129 86.8474 464.501 88.5638Z" fill="#B8CCDB"/>
<path d="M531.641 170.167C530.575 171.292 528.8 171.351 527.675 170.285C526.58 169.22 526.521 167.474 527.557 166.35C528.622 165.225 530.398 165.166 531.522 166.231C532.647 167.296 532.676 169.042 531.641 170.167ZM526.491 165.314C524.864 167.03 524.953 169.753 526.669 171.38C528.385 172.978 531.108 172.919 532.706 171.203C534.334 169.486 534.245 166.764 532.528 165.136C530.812 163.538 528.089 163.597 526.491 165.314Z" fill="#B8CCDB"/>
<path d="M490.66 168.352C489.595 169.477 487.819 169.536 486.724 168.471C485.6 167.405 485.541 165.63 486.606 164.535C487.642 163.41 489.417 163.351 490.542 164.387C491.666 165.452 491.726 167.228 490.66 168.352ZM485.511 163.499C483.883 165.215 483.972 167.938 485.689 169.536C487.405 171.164 490.128 171.075 491.755 169.359C493.353 167.642 493.294 164.949 491.548 163.322C489.832 161.694 487.139 161.783 485.511 163.499Z" fill="#B8CCDB"/>
<path d="M481.176 232.919C480.111 234.043 478.365 234.073 477.24 233.037C476.116 231.972 476.056 230.196 477.122 229.072C478.187 227.977 479.933 227.918 481.058 228.953C482.182 230.019 482.241 231.794 481.176 232.919ZM476.027 228.065C474.429 229.782 474.488 232.504 476.204 234.102C477.921 235.73 480.643 235.641 482.271 233.925C483.869 232.209 483.81 229.516 482.093 227.888C480.377 226.26 477.654 226.349 476.027 228.065Z" fill="#B8CCDB"/>
<path d="M459.75 157.579C458.685 158.703 456.909 158.763 455.785 157.697C454.69 156.662 454.63 154.886 455.666 153.761C456.732 152.637 458.507 152.578 459.632 153.643C460.756 154.708 460.786 156.484 459.75 157.579ZM454.601 152.755C452.973 154.472 453.062 157.165 454.778 158.792C456.495 160.42 459.217 160.331 460.815 158.615C462.443 156.898 462.354 154.176 460.638 152.548C458.921 150.95 456.228 151.039 454.601 152.755Z" fill="#B8CCDB"/>
<path d="M489.526 204.015C488.49 205.139 486.714 205.198 485.59 204.133C484.465 203.097 484.406 201.322 485.471 200.197C486.507 199.073 488.283 199.013 489.407 200.079C490.532 201.144 490.591 202.89 489.526 204.015ZM484.376 199.161C482.778 200.878 482.838 203.6 484.554 205.228C486.27 206.856 488.993 206.767 490.621 205.05C492.219 203.334 492.159 200.611 490.443 198.984C488.697 197.386 486.004 197.445 484.376 199.161Z" fill="#B8CCDB"/>
<path d="M372.025 148.497C370.989 149.621 369.214 149.681 368.089 148.615C366.965 147.579 366.905 145.804 367.971 144.679C369.036 143.555 370.782 143.496 371.907 144.561C373.031 145.626 373.09 147.402 372.025 148.497ZM366.905 143.673C365.278 145.39 365.367 148.083 367.083 149.71C368.799 151.338 371.492 151.249 373.12 149.533C374.748 147.816 374.659 145.094 372.943 143.466C371.226 141.868 368.504 141.957 366.905 143.673Z" fill="#B8CCDB"/>
<path d="M438.203 229.204C437.168 230.329 435.392 230.388 434.267 229.323C433.143 228.287 433.084 226.511 434.149 225.387C435.214 224.262 436.96 224.203 438.085 225.268C439.21 226.334 439.269 228.08 438.203 229.204ZM433.054 224.351C431.456 226.067 431.515 228.79 433.232 230.417C434.948 232.015 437.671 231.956 439.298 230.24C440.896 228.523 440.837 225.801 439.121 224.173C437.404 222.575 434.682 222.634 433.054 224.351Z" fill="#B8CCDB"/>
<path d="M235.377 74.9266C234.341 76.0511 232.566 76.1103 231.441 75.045C230.317 73.9796 230.257 72.204 231.323 71.1091C232.388 69.9845 234.164 69.9253 235.259 70.9907C236.383 72.0264 236.442 73.802 235.377 74.9266ZM230.228 70.0733C228.63 71.7897 228.718 74.5123 230.435 76.1399C232.151 77.7379 234.844 77.6492 236.472 75.9328C238.1 74.2163 238.011 71.5234 236.294 69.8957C234.578 68.2681 231.855 68.3569 230.228 70.0733Z" fill="#B8CCDB"/>
<path d="M294.783 132.635L410.611 241.745L411.617 240.65L295.345 131.126L276.701 131.954L137.613 0.945312H135.453L276.139 133.464L294.783 132.635Z" fill="#B8CCDB"/>
<path d="M215.857 131.866L331.684 240.946L332.72 239.851L216.419 130.327L197.775 131.155L59.5158 0.945312H57.3555L197.213 132.665L215.857 131.866Z" fill="#B8CCDB"/>
<path d="M318.355 173.977L360.318 213.188L361.325 211.797L318.918 171.964L300.008 172.527L117.802 0.945312H115.316L299.445 174.539L318.355 173.977Z" fill="#B8CCDB"/>
<path d="M294.645 225.173L336.609 264.384L337.615 262.993L295.208 223.161L276.298 223.723L39.7001 0.945312H37.2734L275.735 225.735L294.645 225.173Z" fill="#B8CCDB"/>
<path d="M348.921 220.408L412.813 280.571L413.819 279.506L349.483 218.899L330.84 219.728L98.5626 0.945312H96.4023L330.277 221.237L348.921 220.408Z" fill="#B8CCDB"/>
<path d="M355.53 300.133L419.422 360.296L420.428 359.23L356.093 298.623L337.449 299.452L20.5353 0.945312H18.375L336.887 300.961L355.53 300.133Z" fill="#B8CCDB"/>
<path d="M245.189 232.986L361.017 342.066L362.023 341.001L245.752 231.476L227.108 232.275L-18.5155 0.945312H-20.6758L226.546 233.785L245.189 232.986Z" fill="#B8CCDB"/>
<path d="M257.923 262.908L299.886 302.682L300.922 301.823L258.515 261.902L239.575 262.464L-27 11.2773V13.0529L239.013 263.471L257.923 262.908Z" fill="#B8CCDB"/>
<path d="M297.193 318.683L355.67 373.785L356.676 372.69L297.756 317.174L279.112 318.002L-27 29.6758V31.7177L278.55 319.512L297.193 318.683Z" fill="#B8CCDB"/>
<path d="M198.766 262.751L284.291 343.304L285.297 342.238L199.329 261.242L180.685 262.07L-27 66.4297V68.4716L180.123 263.58L198.766 262.751Z" fill="#B8CCDB"/>
<path d="M211.492 293.007L243.748 323.281L244.754 322.097L212.054 290.995L193.144 291.587L-27 84.3457V86.7724L192.581 293.57L211.492 293.007Z" fill="#B8CCDB"/>
<path d="M250.762 348.48L305.983 400.504L307.018 399.41L251.324 346.97L232.68 347.769L-27 103.182V105.224L232.118 349.308L250.762 348.48Z" fill="#B8CCDB"/>
<path d="M163.166 302.736L264.907 398.588L265.943 397.493L163.728 301.226L145.084 302.025L-27 139.943V141.985L144.522 303.564L163.166 302.736Z" fill="#B8CCDB"/>
<path d="M98.3272 315.193L255.289 463.011L256.296 461.916L98.8895 313.683L80.2457 314.482L-27 213.451V215.493L79.6835 316.021L98.3272 315.193Z" fill="#B8CCDB"/>
<path d="M59.0866 388.464L155.886 479.64L156.892 478.575L60.5367 387.813L60.2407 369.169L-27 286.959V289.001L58.7611 369.82L59.0866 388.464Z" fill="#B8CCDB"/>
<path d="M23.9299 373.759L108.833 453.72L109.839 452.625L25.4096 373.108L25.1136 354.435L-27 305.34V307.382L23.634 355.086L23.9299 373.759Z" fill="#B8CCDB"/>
<path d="M69.2963 432.826L-27 342.094V344.165L68.2901 433.892L69.2963 432.826Z" fill="#B8CCDB"/>
<path d="M175.891 332.691L234.101 387.497L235.107 386.402L176.424 330.678L157.514 331.241L-27 157.588V160.044L156.981 333.253L175.891 332.691Z" fill="#B8CCDB"/>
<path d="M215.161 388.466L263.872 434.365L264.907 433.27L215.723 386.927L197.08 387.756L-27 176.697V178.739L196.517 389.265L215.161 388.466Z" fill="#B8CCDB"/>
<path d="M114.337 349.372L146.564 379.409L147.57 378.018L114.899 347.359L95.9893 347.951L-27 232.094V234.491L95.427 349.934L114.337 349.372Z" fill="#B8CCDB"/>
<path d="M148.162 398.883L212.054 459.046L213.06 457.951L148.724 397.374L130.081 398.173L-27 250.207V252.249L129.518 399.682L148.162 398.883Z" fill="#B8CCDB"/>
<path d="M161.738 78.8346L79.0548 0.945312H76.8945L160.732 79.9296L161.738 78.8346Z" fill="#B8CCDB"/>
<path d="M201.901 190.135L0.992333 0.945312H-1.16797L200.865 191.23L201.901 190.135Z" fill="#B8CCDB"/>
<path d="M138.16 203.626L-27 48.0547V50.0966L137.124 204.691L138.16 203.626Z" fill="#B8CCDB"/>
<path d="M59.2642 202.825L-27 121.562V123.604L58.2284 203.92L59.2642 202.825Z" fill="#B8CCDB"/>
<path d="M10.7609 304.187L-27 268.586V270.628L9.75474 305.252L10.7609 304.187Z" fill="#B8CCDB"/>
<path d="M0.935979 221.381L-27 195.072V197.114L-0.099785 222.476L0.935979 221.381Z" fill="#B8CCDB"/>
<path d="M23.4564 428.452L139.758 537.976L140.764 536.911L24.9361 427.801L24.6401 409.157L-27 360.506V362.548L23.1605 409.808L23.4564 428.452Z" fill="#B8CCDB"/>
<path d="M-11.6707 413.74L104.601 523.264L105.607 522.169L-10.1911 413.089L-10.487 394.415L-27 378.879V380.921L-11.9667 395.066L-11.6707 413.74Z" fill="#B8CCDB"/>
<path d="M40.1766 478.903L-27 415.633V417.675L39.1704 479.998L40.1766 478.903Z" fill="#B8CCDB"/>
<path d="M15.9989 494.916L132.271 604.441L133.277 603.376L17.4786 494.265L17.1826 475.622L-27 434.014V436.056L15.703 476.273L15.9989 494.916Z" fill="#B8CCDB"/>
<path d="M72.1668 564.193L-27 470.768V472.81L71.1606 565.259L72.1668 564.193Z" fill="#B8CCDB"/>
<path d="M553.235 5.73941L548.174 0.945312H545.984L552.229 6.80477L553.235 5.73941Z" fill="#B8CCDB"/>
<path d="M558.153 29.266L527.702 0.945312H525.896L557.147 30.3609L558.153 29.266Z" fill="#B8CCDB"/>
<path d="M576.621 64.4819L557.978 65.3105L489.647 0.945312H487.457L557.415 66.8198L576.059 65.9912L591.507 80.551V78.5387L576.621 64.4819Z" fill="#B8CCDB"/>
<path d="M582.56 106.859L470.106 0.945312H467.945L581.554 107.925L582.56 106.859Z" fill="#B8CCDB"/>
<path d="M478.462 29.5619L520.455 68.8913L521.461 67.5892L479.024 27.5792L460.114 28.1415L431.231 0.945312H428.598L459.552 30.1242L478.462 29.5619Z" fill="#B8CCDB"/>
<path d="M517.735 84.5757L576.211 139.649L577.217 138.554L518.297 83.0664L499.653 83.8654L411.584 0.945312H409.424L499.091 85.4043L517.735 84.5757Z" fill="#B8CCDB"/>
<path d="M419.295 28.6149L504.819 109.168L505.825 108.102L419.857 27.1057L401.213 27.9343L372.567 0.945312H370.377L400.651 29.4436L419.295 28.6149Z" fill="#B8CCDB"/>
<path d="M432.026 58.6816L464.253 89.2514L465.289 88.3636L432.618 57.6755L413.708 58.2377L352.894 0.945312H351.178L413.116 59.2439L432.026 58.6816Z" fill="#B8CCDB"/>
<path d="M471.297 114.346L526.518 166.371L527.525 165.276L471.86 112.837L453.216 113.666L333.541 0.945312H331.381L452.654 115.175L471.297 114.346Z" fill="#B8CCDB"/>
<path d="M383.7 68.5954L485.441 164.448L486.477 163.353L384.262 67.0861L365.618 67.9147L294.506 0.945312H292.346L365.056 69.424L383.7 68.5954Z" fill="#B8CCDB"/>
<path d="M318.852 81.0541L475.784 228.872L476.82 227.807L319.414 79.5448L300.77 80.3735L216.459 0.945312H214.299L300.208 81.8827L318.852 81.0541Z" fill="#B8CCDB"/>
<path d="M396.388 98.3661L454.627 153.469L455.634 152.67L396.98 97.3599L378.07 97.9222L275.145 0.945312H273.369L377.478 98.9284L396.388 98.3661Z" fill="#B8CCDB"/>
<path d="M435.65 154.327L484.39 200.226L485.426 199.131L436.212 152.818L417.598 153.646L255.487 0.945312H253.297L417.036 155.155L435.65 154.327Z" fill="#B8CCDB"/>
<path d="M334.859 115.057L367.086 145.39L368.092 144.295L335.421 114.05L316.511 114.613L195.949 0.945312H194.262L315.949 115.619L334.859 115.057Z" fill="#B8CCDB"/>
<path d="M368.683 164.744L432.575 224.907L433.581 223.841L369.245 163.234L350.601 164.063L177.422 0.945312H175.262L350.039 165.572L368.683 164.744Z" fill="#B8CCDB"/>
<path d="M231.299 70.0454L157.938 0.945312H155.777L230.293 71.1404L231.299 70.0454Z" fill="#B8CCDB"/>
</svg>
