<svg width="293" height="143" viewBox="0 0 293 143" fill="none" xmlns="http://www.w3.org/2000/svg">
<g filter="url(#filter0_d_3641_24583)">
<rect x="16.1982" y="16.2227" width="260" height="110" rx="10" fill="white" shape-rendering="crispEdges"/>
<path d="M40.6986 61.2227V51.0408H42.5431V55.3512H47.2611V51.0408H49.1105V61.2227H47.2611V56.8974H42.5431V61.2227H40.6986ZM54.4177 61.3718C53.6521 61.3718 52.9909 61.2127 52.434 60.8945C51.8805 60.573 51.4546 60.119 51.1563 59.5323C50.858 58.9424 50.7089 58.248 50.7089 57.4492C50.7089 56.6637 50.858 55.9743 51.1563 55.381C51.4579 54.7844 51.8789 54.3204 52.4191 53.989C52.9594 53.6542 53.5941 53.4869 54.3232 53.4869C54.7939 53.4869 55.238 53.5631 55.6556 53.7156C56.0766 53.8647 56.4478 54.0967 56.7693 54.4116C57.0941 54.7264 57.3493 55.1275 57.5349 55.6147C57.7205 56.0986 57.8133 56.6753 57.8133 57.3448V57.8967H51.5541V56.6836H56.0882C56.0848 56.3389 56.0103 56.0323 55.8644 55.7638C55.7186 55.4921 55.5148 55.2783 55.2529 55.1225C54.9944 54.9667 54.6928 54.8888 54.3481 54.8888C53.9802 54.8888 53.657 54.9783 53.3786 55.1573C53.1002 55.333 52.8831 55.565 52.7274 55.8533C52.5749 56.1384 52.497 56.4516 52.4937 56.793V57.8519C52.4937 58.296 52.5749 58.6772 52.7373 58.9954C52.8997 59.3103 53.1267 59.5522 53.4184 59.7212C53.7101 59.887 54.0515 59.9698 54.4426 59.9698C54.7044 59.9698 54.9414 59.9334 55.1535 59.8604C55.3656 59.7842 55.5496 59.6732 55.7053 59.5273C55.8611 59.3815 55.9788 59.2009 56.0583 58.9854L57.7387 59.1744C57.6327 59.6185 57.4305 60.0063 57.1322 60.3377C56.8372 60.6658 56.4594 60.921 55.9987 61.1033C55.538 61.2823 55.011 61.3718 54.4177 61.3718ZM59.3358 61.2227V53.5863H61.0809V54.859H61.1604C61.2996 54.4182 61.5383 54.0785 61.8763 53.8398C62.2177 53.5979 62.6072 53.4769 63.0447 53.4769C63.1441 53.4769 63.2551 53.4819 63.3778 53.4918C63.5037 53.4985 63.6081 53.5101 63.691 53.5266V55.1822C63.6147 55.1557 63.4938 55.1325 63.328 55.1126C63.1656 55.0894 63.0082 55.0778 62.8557 55.0778C62.5276 55.0778 62.2326 55.149 61.9708 55.2915C61.7123 55.4308 61.5084 55.6246 61.3593 55.8732C61.2101 56.1218 61.1356 56.4085 61.1356 56.7333V61.2227H59.3358ZM67.9529 61.3718C67.1872 61.3718 66.526 61.2127 65.9692 60.8945C65.4157 60.573 64.9898 60.119 64.6915 59.5323C64.3932 58.9424 64.2441 58.248 64.2441 57.4492C64.2441 56.6637 64.3932 55.9743 64.6915 55.381C64.9931 54.7844 65.414 54.3204 65.9543 53.989C66.4945 53.6542 67.1292 53.4869 67.8584 53.4869C68.329 53.4869 68.7732 53.5631 69.1908 53.7156C69.6117 53.8647 69.9829 54.0967 70.3044 54.4116C70.6292 54.7264 70.8844 55.1275 71.07 55.6147C71.2557 56.0986 71.3485 56.6753 71.3485 57.3448V57.8967H65.0892V56.6836H69.6233C69.62 56.3389 69.5454 56.0323 69.3996 55.7638C69.2538 55.4921 69.0499 55.2783 68.7881 55.1225C68.5296 54.9667 68.228 54.8888 67.8833 54.8888C67.5154 54.8888 67.1922 54.9783 66.9138 55.1573C66.6354 55.333 66.4183 55.565 66.2625 55.8533C66.1101 56.1384 66.0322 56.4516 66.0289 56.793V57.8519C66.0289 58.296 66.1101 58.6772 66.2725 58.9954C66.4349 59.3103 66.6619 59.5522 66.9536 59.7212C67.2452 59.887 67.5866 59.9698 67.9777 59.9698C68.2396 59.9698 68.4765 59.9334 68.6887 59.8604C68.9008 59.7842 69.0847 59.6732 69.2405 59.5273C69.3963 59.3815 69.5139 59.2009 69.5935 58.9854L71.2739 59.1744C71.1678 59.6185 70.9656 60.0063 70.6673 60.3377C70.3724 60.6658 69.9945 60.921 69.5338 61.1033C69.0731 61.2823 68.5461 61.3718 67.9529 61.3718ZM76.3437 61.2227V53.5863H78.1434V61.2227H76.3437ZM77.2485 52.5025C76.9635 52.5025 76.7182 52.408 76.5127 52.2191C76.3072 52.0269 76.2045 51.7965 76.2045 51.5281C76.2045 51.2563 76.3072 51.0259 76.5127 50.837C76.7182 50.6448 76.9635 50.5487 77.2485 50.5487C77.5368 50.5487 77.7821 50.6448 77.9843 50.837C78.1898 51.0259 78.2925 51.2563 78.2925 51.5281C78.2925 51.7965 78.1898 52.0269 77.9843 52.2191C77.7821 52.408 77.5368 52.5025 77.2485 52.5025ZM86.0296 55.6048L84.3889 55.7837C84.3425 55.618 84.2613 55.4622 84.1453 55.3164C84.0326 55.1706 83.8802 55.0529 83.6879 54.9634C83.4957 54.8739 83.2604 54.8292 82.982 54.8292C82.6075 54.8292 82.2926 54.9104 82.0374 55.0728C81.7855 55.2352 81.6612 55.4457 81.6645 55.7042C81.6612 55.9263 81.7424 56.1069 81.9081 56.2461C82.0771 56.3853 82.3556 56.4996 82.7433 56.5891L84.0459 56.8675C84.7684 57.0233 85.3054 57.2702 85.6567 57.6083C86.0113 57.9464 86.1903 58.3888 86.1936 58.9357C86.1903 59.4163 86.0494 59.8406 85.771 60.2085C85.4959 60.573 85.1131 60.8581 84.6226 61.0636C84.1321 61.2691 83.5686 61.3718 82.9323 61.3718C81.9976 61.3718 81.2452 61.1763 80.6752 60.7852C80.1051 60.3907 79.7654 59.8422 79.656 59.1396L81.411 58.9705C81.4905 59.3152 81.6595 59.5754 81.9181 59.7511C82.1766 59.9267 82.513 60.0146 82.9273 60.0146C83.3548 60.0146 83.6979 59.9267 83.9564 59.7511C84.2182 59.5754 84.3492 59.3583 84.3492 59.0998C84.3492 58.881 84.2646 58.7004 84.0956 58.5579C83.9299 58.4154 83.6714 58.306 83.32 58.2298L82.0175 57.9563C81.285 57.8039 80.7431 57.547 80.3918 57.1857C80.0405 56.8211 79.8664 56.3604 79.8698 55.8036C79.8664 55.333 79.9941 54.9253 80.2526 54.5806C80.5144 54.2326 80.8773 53.9641 81.3414 53.7752C81.8087 53.583 82.3473 53.4869 82.9571 53.4869C83.852 53.4869 84.5563 53.6774 85.07 54.0586C85.5871 54.4397 85.9069 54.9551 86.0296 55.6048ZM94.9635 53.5863V54.9783H90.5736V53.5863H94.9635ZM91.6574 51.7567H93.4571V58.9258C93.4571 59.1677 93.4936 59.3533 93.5665 59.4826C93.6427 59.6085 93.7422 59.6947 93.8648 59.7411C93.9874 59.7875 94.1233 59.8107 94.2725 59.8107C94.3852 59.8107 94.4879 59.8024 94.5807 59.7859C94.6768 59.7693 94.7497 59.7544 94.7994 59.7411L95.1027 61.1481C95.0066 61.1812 94.8691 61.2177 94.6901 61.2575C94.5144 61.2972 94.299 61.3204 94.0438 61.3271C93.593 61.3403 93.187 61.2724 92.8257 61.1232C92.4645 60.9708 92.1778 60.7354 91.9656 60.4173C91.7568 60.0991 91.6541 59.7013 91.6574 59.2241V51.7567ZM98.4324 56.7482V61.2227H96.6327V51.0408H98.3927V54.8839H98.4822C98.6611 54.453 98.9379 54.1133 99.3124 53.8647C99.6903 53.6128 100.171 53.4869 100.754 53.4869C101.284 53.4869 101.747 53.5979 102.141 53.82C102.536 54.042 102.841 54.3668 103.056 54.7944C103.275 55.2219 103.384 55.744 103.384 56.3604V61.2227H101.584V56.6388C101.584 56.1251 101.452 55.7257 101.187 55.4407C100.925 55.1523 100.557 55.0082 100.083 55.0082C99.7648 55.0082 99.4798 55.0778 99.2279 55.217C98.9793 55.3529 98.7838 55.5501 98.6412 55.8086C98.502 56.0671 98.4324 56.3803 98.4324 56.7482ZM108.599 61.3718C107.834 61.3718 107.172 61.2127 106.616 60.8945C106.062 60.573 105.636 60.119 105.338 59.5323C105.04 58.9424 104.891 58.248 104.891 57.4492C104.891 56.6637 105.04 55.9743 105.338 55.381C105.64 54.7844 106.061 54.3204 106.601 53.989C107.141 53.6542 107.776 53.4869 108.505 53.4869C108.976 53.4869 109.42 53.5631 109.837 53.7156C110.258 53.8647 110.629 54.0967 110.951 54.4116C111.276 54.7264 111.531 55.1275 111.717 55.6147C111.902 56.0986 111.995 56.6753 111.995 57.3448V57.8967H105.736V56.6836H110.27C110.266 56.3389 110.192 56.0323 110.046 55.7638C109.9 55.4921 109.696 55.2783 109.435 55.1225C109.176 54.9667 108.874 54.8888 108.53 54.8888C108.162 54.8888 107.839 54.9783 107.56 55.1573C107.282 55.333 107.065 55.565 106.909 55.8533C106.757 56.1384 106.679 56.4516 106.675 56.793V57.8519C106.675 58.296 106.757 58.6772 106.919 58.9954C107.081 59.3103 107.308 59.5522 107.6 59.7212C107.892 59.887 108.233 59.9698 108.624 59.9698C108.886 59.9698 109.123 59.9334 109.335 59.8604C109.547 59.7842 109.731 59.6732 109.887 59.5273C110.043 59.3815 110.16 59.2009 110.24 58.9854L111.92 59.1744C111.814 59.6185 111.612 60.0063 111.314 60.3377C111.019 60.6658 110.641 60.921 110.18 61.1033C109.72 61.2823 109.193 61.3718 108.599 61.3718ZM126.168 56.1317C126.168 57.2288 125.962 58.1684 125.551 58.9506C125.144 59.7295 124.587 60.3261 123.881 60.7404C123.178 61.1547 122.381 61.3619 121.489 61.3619C120.598 61.3619 119.799 61.1547 119.093 60.7404C118.39 60.3228 117.834 59.7246 117.423 58.9457C117.015 58.1635 116.811 57.2255 116.811 56.1317C116.811 55.0347 117.015 54.0967 117.423 53.3178C117.834 52.5356 118.39 51.9374 119.093 51.5231C119.799 51.1088 120.598 50.9016 121.489 50.9016C122.381 50.9016 123.178 51.1088 123.881 51.5231C124.587 51.9374 125.144 52.5356 125.551 53.3178C125.962 54.0967 126.168 55.0347 126.168 56.1317ZM124.313 56.1317C124.313 55.3595 124.192 54.7082 123.95 54.1779C123.712 53.6443 123.38 53.2416 122.956 52.9698C122.532 52.6947 122.043 52.5572 121.489 52.5572C120.936 52.5572 120.447 52.6947 120.023 52.9698C119.599 53.2416 119.265 53.6443 119.024 54.1779C118.785 54.7082 118.666 55.3595 118.666 56.1317C118.666 56.904 118.785 57.5569 119.024 58.0906C119.265 58.6209 119.599 59.0236 120.023 59.2987C120.447 59.5704 120.936 59.7063 121.489 59.7063C122.043 59.7063 122.532 59.5704 122.956 59.2987C123.38 59.0236 123.712 58.6209 123.95 58.0906C124.192 57.5569 124.313 56.904 124.313 56.1317ZM129.408 61.2227L127.25 53.5863H129.085L130.427 58.9556H130.497L131.869 53.5863H133.684L135.056 58.9258H135.13L136.453 53.5863H138.292L136.13 61.2227H134.255L132.823 56.0621H132.719L131.287 61.2227H129.408ZM141.348 56.7482V61.2227H139.549V53.5863H141.269V54.8839H141.358C141.534 54.4563 141.814 54.1166 142.199 53.8647C142.586 53.6128 143.065 53.4869 143.635 53.4869C144.162 53.4869 144.621 53.5996 145.013 53.8249C145.407 54.0503 145.712 54.3768 145.927 54.8043C146.146 55.2319 146.254 55.7506 146.25 56.3604V61.2227H144.451V56.6388C144.451 56.1284 144.318 55.729 144.053 55.4407C143.791 55.1523 143.428 55.0082 142.964 55.0082C142.649 55.0082 142.369 55.0778 142.124 55.217C141.882 55.3529 141.691 55.5501 141.552 55.8086C141.416 56.0671 141.348 56.3803 141.348 56.7482ZM151.461 61.3718C150.695 61.3718 150.034 61.2127 149.477 60.8945C148.924 60.573 148.498 60.119 148.199 59.5323C147.901 58.9424 147.752 58.248 147.752 57.4492C147.752 56.6637 147.901 55.9743 148.199 55.381C148.501 54.7844 148.922 54.3204 149.462 53.989C150.002 53.6542 150.637 53.4869 151.366 53.4869C151.837 53.4869 152.281 53.5631 152.699 53.7156C153.12 53.8647 153.491 54.0967 153.812 54.4116C154.137 54.7264 154.392 55.1275 154.578 55.6147C154.763 56.0986 154.856 56.6753 154.856 57.3448V57.8967H148.597V56.6836H153.131C153.128 56.3389 153.053 56.0323 152.907 55.7638C152.762 55.4921 152.558 55.2783 152.296 55.1225C152.037 54.9667 151.736 54.8888 151.391 54.8888C151.023 54.8888 150.7 54.9783 150.422 55.1573C150.143 55.333 149.926 55.565 149.77 55.8533C149.618 56.1384 149.54 56.4516 149.537 56.793V57.8519C149.537 58.296 149.618 58.6772 149.78 58.9954C149.943 59.3103 150.17 59.5522 150.461 59.7212C150.753 59.887 151.094 59.9698 151.486 59.9698C151.747 59.9698 151.984 59.9334 152.196 59.8604C152.409 59.7842 152.593 59.6732 152.748 59.5273C152.904 59.3815 153.022 59.2009 153.101 58.9854L154.782 59.1744C154.676 59.6185 154.473 60.0063 154.175 60.3377C153.88 60.6658 153.502 60.921 153.042 61.1033C152.581 61.2823 152.054 61.3718 151.461 61.3718ZM156.379 61.2227V53.5863H158.124V54.859H158.203C158.343 54.4182 158.581 54.0785 158.919 53.8398C159.261 53.5979 159.65 53.4769 160.088 53.4769C160.187 53.4769 160.298 53.4819 160.421 53.4918C160.547 53.4985 160.651 53.5101 160.734 53.5266V55.1822C160.658 55.1557 160.537 55.1325 160.371 55.1126C160.209 55.0894 160.051 55.0778 159.899 55.0778C159.571 55.0778 159.276 55.149 159.014 55.2915C158.755 55.4308 158.551 55.6246 158.402 55.8732C158.253 56.1218 158.179 56.4085 158.179 56.7333V61.2227H156.379ZM163.688 51.0408V52.055C163.688 52.3467 163.632 52.65 163.519 52.9648C163.41 53.2764 163.259 53.5747 163.067 53.8597C162.875 54.1415 162.656 54.3834 162.411 54.5856L161.575 54.0437C161.758 53.7686 161.917 53.4719 162.053 53.1538C162.189 52.8323 162.256 52.4693 162.256 52.065V51.0408H163.688ZM170.194 55.6048L168.553 55.7837C168.507 55.618 168.425 55.4622 168.309 55.3164C168.197 55.1706 168.044 55.0529 167.852 54.9634C167.66 54.8739 167.424 54.8292 167.146 54.8292C166.772 54.8292 166.457 54.9104 166.201 55.0728C165.95 55.2352 165.825 55.4457 165.829 55.7042C165.825 55.9263 165.906 56.1069 166.072 56.2461C166.241 56.3853 166.52 56.4996 166.907 56.5891L168.21 56.8675C168.932 57.0233 169.469 57.2702 169.821 57.6083C170.175 57.9464 170.354 58.3888 170.358 58.9357C170.354 59.4163 170.214 59.8406 169.935 60.2085C169.66 60.573 169.277 60.8581 168.787 61.0636C168.296 61.2691 167.733 61.3718 167.096 61.3718C166.162 61.3718 165.409 61.1763 164.839 60.7852C164.269 60.3907 163.929 59.8422 163.82 59.1396L165.575 58.9705C165.655 59.3152 165.824 59.5754 166.082 59.7511C166.341 59.9267 166.677 60.0146 167.091 60.0146C167.519 60.0146 167.862 59.9267 168.12 59.7511C168.382 59.5754 168.513 59.3583 168.513 59.0998C168.513 58.881 168.429 58.7004 168.26 58.5579C168.094 58.4154 167.835 58.306 167.484 58.2298L166.182 57.9563C165.449 57.8039 164.907 57.547 164.556 57.1857C164.205 56.8211 164.031 56.3604 164.034 55.8036C164.031 55.333 164.158 54.9253 164.417 54.5806C164.678 54.2326 165.041 53.9641 165.505 53.7752C165.973 53.583 166.511 53.4869 167.121 53.4869C168.016 53.4869 168.72 53.6774 169.234 54.0586C169.751 54.4397 170.071 54.9551 170.194 55.6048ZM178.645 61.3718C177.883 61.3718 177.228 61.2044 176.682 60.8697C176.138 60.5349 175.719 60.0726 175.424 59.4826C175.132 58.8893 174.986 58.2066 174.986 57.4343C174.986 56.6587 175.135 55.9743 175.434 55.381C175.732 54.7844 176.153 54.3204 176.696 53.989C177.243 53.6542 177.89 53.4869 178.635 53.4869C179.255 53.4869 179.804 53.6012 180.281 53.8299C180.762 54.0553 181.144 54.3751 181.429 54.7894C181.714 55.2004 181.877 55.681 181.917 56.2312H180.196C180.127 55.8633 179.961 55.5567 179.699 55.3114C179.441 55.0629 179.094 54.9386 178.66 54.9386C178.292 54.9386 177.969 55.038 177.691 55.2369C177.412 55.4324 177.195 55.7141 177.04 56.082C176.887 56.4499 176.811 56.8907 176.811 57.4045C176.811 57.9248 176.887 58.3723 177.04 58.7468C177.192 59.118 177.406 59.4047 177.681 59.6069C177.959 59.8058 178.286 59.9052 178.66 59.9052C178.925 59.9052 179.162 59.8555 179.371 59.756C179.583 59.6533 179.761 59.5058 179.903 59.3136C180.046 59.1213 180.143 58.8877 180.196 58.6126H181.917C181.874 59.1528 181.714 59.6317 181.439 60.0494C181.164 60.4637 180.79 60.7885 180.316 61.0238C179.842 61.2558 179.285 61.3718 178.645 61.3718ZM186.725 61.3718C185.98 61.3718 185.333 61.2077 184.786 60.8796C184.24 60.5515 183.815 60.0924 183.514 59.5025C183.215 58.9125 183.066 58.2231 183.066 57.4343C183.066 56.6455 183.215 55.9544 183.514 55.3612C183.815 54.7679 184.24 54.3072 184.786 53.979C185.333 53.6509 185.98 53.4869 186.725 53.4869C187.471 53.4869 188.117 53.6509 188.664 53.979C189.211 54.3072 189.634 54.7679 189.932 55.3612C190.234 55.9544 190.384 56.6455 190.384 57.4343C190.384 58.2231 190.234 58.9125 189.932 59.5025C189.634 60.0924 189.211 60.5515 188.664 60.8796C188.117 61.2077 187.471 61.3718 186.725 61.3718ZM186.735 59.93C187.14 59.93 187.478 59.819 187.75 59.5969C188.021 59.3716 188.224 59.07 188.356 58.6921C188.492 58.3143 188.56 57.8933 188.56 57.4293C188.56 56.962 188.492 56.5394 188.356 56.1616C188.224 55.7804 188.021 55.4772 187.75 55.2518C187.478 55.0264 187.14 54.9137 186.735 54.9137C186.321 54.9137 185.976 55.0264 185.701 55.2518C185.429 55.4772 185.226 55.7804 185.09 56.1616C184.957 56.5394 184.891 56.962 184.891 57.4293C184.891 57.8933 184.957 58.3143 185.09 58.6921C185.226 59.07 185.429 59.3716 185.701 59.5969C185.976 59.819 186.321 59.93 186.735 59.93ZM193.712 56.7482V61.2227H191.912V53.5863H193.632V54.8839H193.722C193.897 54.4563 194.177 54.1166 194.562 53.8647C194.95 53.6128 195.429 53.4869 195.999 53.4869C196.526 53.4869 196.985 53.5996 197.376 53.8249C197.77 54.0503 198.075 54.3768 198.291 54.8043C198.509 55.2319 198.617 55.7506 198.614 56.3604V61.2227H196.814V56.6388C196.814 56.1284 196.681 55.729 196.416 55.4407C196.154 55.1523 195.792 55.0082 195.328 55.0082C195.013 55.0082 194.733 55.0778 194.487 55.217C194.245 55.3529 194.055 55.5501 193.916 55.8086C193.78 56.0671 193.712 56.3803 193.712 56.7482ZM204.256 53.5863V54.9783H199.867V53.5863H204.256ZM200.95 51.7567H202.75V58.9258C202.75 59.1677 202.787 59.3533 202.859 59.4826C202.936 59.6085 203.035 59.6947 203.158 59.7411C203.28 59.7875 203.416 59.8107 203.565 59.8107C203.678 59.8107 203.781 59.8024 203.874 59.7859C203.97 59.7693 204.043 59.7544 204.092 59.7411L204.396 61.1481C204.3 61.1812 204.162 61.2177 203.983 61.2575C203.807 61.2972 203.592 61.3204 203.337 61.3271C202.886 61.3403 202.48 61.2724 202.119 61.1232C201.757 60.9708 201.471 60.7354 201.259 60.4173C201.05 60.0991 200.947 59.7013 200.95 59.2241V51.7567ZM207.959 61.3768C207.475 61.3768 207.039 61.2906 206.652 61.1183C206.267 60.9426 205.962 60.6841 205.737 60.3427C205.515 60.0013 205.404 59.5804 205.404 59.0799C205.404 58.649 205.483 58.2927 205.642 58.011C205.801 57.7293 206.018 57.5039 206.294 57.3349C206.569 57.1658 206.879 57.0382 207.223 56.9521C207.571 56.8626 207.931 56.7979 208.302 56.7582C208.75 56.7118 209.112 56.6703 209.391 56.6339C209.669 56.5941 209.871 56.5344 209.997 56.4549C210.127 56.372 210.191 56.2444 210.191 56.0721V56.0423C210.191 55.6677 210.08 55.3777 209.858 55.1722C209.636 54.9667 209.316 54.864 208.899 54.864C208.458 54.864 208.108 54.9601 207.85 55.1523C207.594 55.3446 207.422 55.5716 207.333 55.8335L205.652 55.5948C205.785 55.1308 206.004 54.743 206.309 54.4315C206.613 54.1166 206.986 53.8813 207.427 53.7255C207.868 53.5664 208.355 53.4869 208.889 53.4869C209.257 53.4869 209.623 53.5299 209.987 53.6161C210.352 53.7023 210.685 53.8448 210.987 54.0437C211.288 54.2392 211.53 54.506 211.713 54.8441C211.898 55.1822 211.991 55.6048 211.991 56.1119V61.2227H210.261V60.1737H210.201C210.092 60.3858 209.938 60.5846 209.739 60.7702C209.543 60.9525 209.296 61.1 208.998 61.2127C208.703 61.3221 208.357 61.3768 207.959 61.3768ZM208.426 60.0543C208.788 60.0543 209.101 59.9831 209.366 59.8406C209.631 59.6947 209.835 59.5025 209.978 59.2638C210.123 59.0252 210.196 58.765 210.196 58.4833V57.5835C210.14 57.6299 210.044 57.6729 209.908 57.7127C209.775 57.7525 209.626 57.7873 209.46 57.8171C209.295 57.8469 209.131 57.8735 208.968 57.8967C208.806 57.9199 208.665 57.9397 208.546 57.9563C208.277 57.9928 208.037 58.0524 207.825 58.1353C207.613 58.2182 207.445 58.3342 207.323 58.4833C207.2 58.6291 207.139 58.8181 207.139 59.0501C207.139 59.3815 207.26 59.6317 207.502 59.8008C207.744 59.9698 208.052 60.0543 208.426 60.0543ZM217.132 61.3718C216.369 61.3718 215.715 61.2044 215.168 60.8697C214.624 60.5349 214.205 60.0726 213.91 59.4826C213.618 58.8893 213.473 58.2066 213.473 57.4343C213.473 56.6587 213.622 55.9743 213.92 55.381C214.218 54.7844 214.639 54.3204 215.183 53.989C215.73 53.6542 216.376 53.4869 217.122 53.4869C217.742 53.4869 218.29 53.6012 218.767 53.8299C219.248 54.0553 219.631 54.3751 219.916 54.7894C220.201 55.2004 220.363 55.681 220.403 56.2312H218.683C218.613 55.8633 218.447 55.5567 218.186 55.3114C217.927 55.0629 217.581 54.9386 217.147 54.9386C216.779 54.9386 216.456 55.038 216.177 55.2369C215.899 55.4324 215.682 55.7141 215.526 56.082C215.373 56.4499 215.297 56.8907 215.297 57.4045C215.297 57.9248 215.373 58.3723 215.526 58.7468C215.678 59.118 215.892 59.4047 216.167 59.6069C216.446 59.8058 216.772 59.9052 217.147 59.9052C217.412 59.9052 217.649 59.8555 217.858 59.756C218.07 59.6533 218.247 59.5058 218.389 59.3136C218.532 59.1213 218.63 58.8877 218.683 58.6126H220.403C220.36 59.1528 220.201 59.6317 219.926 60.0494C219.651 60.4637 219.276 60.7885 218.802 61.0238C218.328 61.2558 217.771 61.3718 217.132 61.3718ZM225.694 53.5863V54.9783H221.304V53.5863H225.694ZM222.388 51.7567H224.188V58.9258C224.188 59.1677 224.224 59.3533 224.297 59.4826C224.373 59.6085 224.473 59.6947 224.595 59.7411C224.718 59.7875 224.854 59.8107 225.003 59.8107C225.116 59.8107 225.218 59.8024 225.311 59.7859C225.407 59.7693 225.48 59.7544 225.53 59.7411L225.833 61.1481C225.737 61.1812 225.6 61.2177 225.421 61.2575C225.245 61.2972 225.029 61.3204 224.774 61.3271C224.323 61.3403 223.917 61.2724 223.556 61.1232C223.195 60.9708 222.908 60.7354 222.696 60.4173C222.487 60.0991 222.385 59.7013 222.388 59.2241V51.7567ZM239.119 51.0408V61.2227H237.478L232.68 54.2873H232.596V61.2227H230.751V51.0408H232.402L237.195 57.9812H237.284V51.0408H239.119ZM244.38 61.3718C243.634 61.3718 242.988 61.2077 242.441 60.8796C241.894 60.5515 241.47 60.0924 241.168 59.5025C240.87 58.9125 240.721 58.2231 240.721 57.4343C240.721 56.6455 240.87 55.9544 241.168 55.3612C241.47 54.7679 241.894 54.3072 242.441 53.979C242.988 53.6509 243.634 53.4869 244.38 53.4869C245.125 53.4869 245.772 53.6509 246.319 53.979C246.866 54.3072 247.288 54.7679 247.586 55.3612C247.888 55.9544 248.039 56.6455 248.039 57.4343C248.039 58.2231 247.888 58.9125 247.586 59.5025C247.288 60.0924 246.866 60.5515 246.319 60.8796C245.772 61.2077 245.125 61.3718 244.38 61.3718ZM244.39 59.93C244.794 59.93 245.132 59.819 245.404 59.5969C245.676 59.3716 245.878 59.07 246.01 58.6921C246.146 58.3143 246.214 57.8933 246.214 57.4293C246.214 56.962 246.146 56.5394 246.01 56.1616C245.878 55.7804 245.676 55.4772 245.404 55.2518C245.132 55.0264 244.794 54.9137 244.39 54.9137C243.975 54.9137 243.631 55.0264 243.356 55.2518C243.084 55.4772 242.88 55.7804 242.744 56.1616C242.611 56.5394 242.545 56.962 242.545 57.4293C242.545 57.8933 242.611 58.3143 242.744 58.6921C242.88 59.07 243.084 59.3716 243.356 59.5969C243.631 59.819 243.975 59.93 244.39 59.93ZM250.675 61.332C250.373 61.332 250.115 61.226 249.899 61.0138C249.684 60.8017 249.578 60.5432 249.581 60.2383C249.578 59.94 249.684 59.6848 249.899 59.4727C250.115 59.2605 250.373 59.1545 250.675 59.1545C250.967 59.1545 251.22 59.2605 251.436 59.4727C251.654 59.6848 251.765 59.94 251.769 60.2383C251.765 60.4405 251.712 60.6244 251.61 60.7901C251.51 60.9558 251.378 61.0884 251.212 61.1879C251.05 61.284 250.871 61.332 250.675 61.332Z" fill="#263238"/>
<path d="M80.8659 90.1772V82.6772H82.1386V90.1772H80.8659ZM77.7522 87.0636V85.7908H85.2522V87.0636H77.7522ZM91.6855 80.4272C92.1627 80.431 92.64 80.5219 93.1173 80.6999C93.5945 80.878 94.0302 81.1734 94.4241 81.5863C94.818 81.9954 95.1343 82.5541 95.373 83.2624C95.6116 83.9708 95.7309 84.859 95.7309 85.9272C95.7309 86.9613 95.6324 87.8799 95.4355 88.6829C95.2423 89.4821 94.962 90.1564 94.5945 90.7056C94.2309 91.2549 93.7877 91.6715 93.265 91.9556C92.7461 92.2397 92.1589 92.3817 91.5036 92.3817C90.8521 92.3817 90.2707 92.253 89.7593 91.9954C89.2517 91.734 88.8351 91.3723 88.5093 90.9102C88.1874 90.4442 87.9809 89.9045 87.89 89.2908H89.2764C89.4014 89.8249 89.6495 90.2662 90.0207 90.6147C90.3957 90.9594 90.89 91.1317 91.5036 91.1317C92.4014 91.1317 93.1097 90.7397 93.6286 89.9556C94.1514 89.1715 94.4127 88.0636 94.4127 86.6317H94.3218C94.1097 86.9499 93.8578 87.2246 93.5661 87.4556C93.2745 87.6867 92.9506 87.8647 92.5945 87.9897C92.2385 88.1147 91.8597 88.1772 91.4582 88.1772C90.7915 88.1772 90.1798 88.0124 89.623 87.6829C89.0699 87.3495 88.6267 86.8931 88.2934 86.3136C87.9639 85.7302 87.7991 85.0636 87.7991 84.3136C87.7991 83.6014 87.9582 82.9499 88.2764 82.359C88.5983 81.7643 89.0491 81.2908 89.6286 80.9386C90.212 80.5863 90.8976 80.4158 91.6855 80.4272ZM91.6855 81.6772C91.2082 81.6772 90.7783 81.7965 90.3957 82.0352C90.0169 82.27 89.7158 82.5882 89.4923 82.9897C89.2726 83.3874 89.1627 83.8287 89.1627 84.3136C89.1627 84.7984 89.2688 85.2397 89.4809 85.6374C89.6968 86.0314 89.9904 86.3458 90.3616 86.5806C90.7366 86.8117 91.1627 86.9272 91.64 86.9272C91.9999 86.9272 92.3351 86.8571 92.6457 86.717C92.9563 86.573 93.2271 86.378 93.4582 86.1317C93.693 85.8817 93.8767 85.5995 94.0093 85.2852C94.1419 84.967 94.2082 84.6355 94.2082 84.2908C94.2082 83.8363 94.0983 83.4102 93.8786 83.0124C93.6627 82.6147 93.3635 82.2927 92.9809 82.0465C92.6021 81.8003 92.1703 81.6772 91.6855 81.6772ZM102.056 80.5863V92.2227H100.647V82.0636H100.579L97.738 83.9499V82.5181L100.647 80.5863H102.056ZM110.266 92.2227L115.471 81.9272V81.8363H109.471V80.5863H116.926V81.9045L111.744 92.2227H110.266ZM117.833 89.8363V88.6772L122.947 80.5863H123.788V82.3817H123.22L119.356 88.4954V88.5863H126.242V89.8363H117.833ZM123.31 92.2227V89.484V88.9442V80.5863H124.651V92.2227H123.31ZM132.008 92.3817C131.341 92.3817 130.741 92.2492 130.207 91.984C129.673 91.7189 129.245 91.3552 128.923 90.8931C128.601 90.431 128.425 89.9045 128.394 89.3136H129.758C129.811 89.8401 130.05 90.2757 130.474 90.6204C130.902 90.9613 131.413 91.1317 132.008 91.1317C132.485 91.1317 132.909 91.02 133.281 90.7965C133.656 90.573 133.949 90.2662 134.161 89.8761C134.377 89.4821 134.485 89.0371 134.485 88.5408C134.485 88.0333 134.373 87.5806 134.15 87.1829C133.93 86.7814 133.627 86.4651 133.241 86.234C132.854 86.003 132.413 85.8855 131.917 85.8817C131.561 85.878 131.195 85.9329 130.82 86.0465C130.445 86.1564 130.137 86.2984 129.894 86.4727L128.576 86.3136L129.281 80.5863H135.326V81.8363H130.462L130.053 85.2681H130.122C130.36 85.0787 130.659 84.9215 131.019 84.7965C131.379 84.6715 131.754 84.609 132.144 84.609C132.856 84.609 133.491 84.7795 134.048 85.1204C134.608 85.4575 135.048 85.9196 135.366 86.5067C135.688 87.0939 135.849 87.7643 135.849 88.5181C135.849 89.2605 135.682 89.9234 135.349 90.5067C135.019 91.0863 134.565 91.5446 133.985 91.8817C133.406 92.2151 132.747 92.3817 132.008 92.3817ZM143.129 85.7795V87.0295H138.038V85.7795H143.129ZM145.193 89.8363V88.6772L150.306 80.5863H151.147V82.3817H150.579L146.715 88.4954V88.5863H153.602V89.8363H145.193ZM150.67 92.2227V89.484V88.9442V80.5863H152.011V92.2227H150.67ZM159.367 92.3817C158.701 92.3817 158.1 92.2492 157.566 91.984C157.032 91.7189 156.604 91.3552 156.282 90.8931C155.96 90.431 155.784 89.9045 155.754 89.3136H157.117C157.17 89.8401 157.409 90.2757 157.833 90.6204C158.261 90.9613 158.773 91.1317 159.367 91.1317C159.845 91.1317 160.269 91.02 160.64 90.7965C161.015 90.573 161.309 90.2662 161.521 89.8761C161.737 89.4821 161.845 89.0371 161.845 88.5408C161.845 88.0333 161.733 87.5806 161.509 87.1829C161.29 86.7814 160.987 86.4651 160.6 86.234C160.214 86.003 159.773 85.8855 159.276 85.8817C158.92 85.878 158.555 85.9329 158.18 86.0465C157.805 86.1564 157.496 86.2984 157.254 86.4727L155.935 86.3136L156.64 80.5863H162.685V81.8363H157.822L157.413 85.2681H157.481C157.72 85.0787 158.019 84.9215 158.379 84.7965C158.738 84.6715 159.113 84.609 159.504 84.609C160.216 84.609 160.85 84.7795 161.407 85.1204C161.968 85.4575 162.407 85.9196 162.725 86.5067C163.047 87.0939 163.208 87.7643 163.208 88.5181C163.208 89.2605 163.042 89.9234 162.708 90.5067C162.379 91.0863 161.924 91.5446 161.345 91.8817C160.765 92.2151 160.106 92.3817 159.367 92.3817ZM169.329 92.3817C168.852 92.3742 168.374 92.2833 167.897 92.109C167.42 91.9348 166.984 91.6412 166.59 91.2283C166.196 90.8117 165.88 90.2492 165.641 89.5408C165.403 88.8287 165.283 87.9348 165.283 86.859C165.283 85.8287 165.38 84.9158 165.573 84.1204C165.766 83.3211 166.047 82.6488 166.414 82.1033C166.782 81.5541 167.225 81.1374 167.744 80.8533C168.266 80.5692 168.855 80.4272 169.511 80.4272C170.162 80.4272 170.742 80.5579 171.249 80.8192C171.761 81.0768 172.177 81.4367 172.499 81.8988C172.821 82.3609 173.03 82.8931 173.124 83.4954H171.738C171.609 82.9727 171.359 82.5389 170.988 82.1942C170.617 81.8495 170.124 81.6772 169.511 81.6772C168.609 81.6772 167.899 82.0692 167.38 82.8533C166.865 83.6374 166.605 84.7378 166.602 86.1545H166.693C166.905 85.8325 167.157 85.5579 167.448 85.3306C167.744 85.0996 168.069 84.9215 168.426 84.7965C168.782 84.6715 169.158 84.609 169.556 84.609C170.223 84.609 170.833 84.7757 171.386 85.109C171.939 85.4386 172.382 85.895 172.715 86.4783C173.049 87.0579 173.215 87.7227 173.215 88.4727C173.215 89.1924 173.054 89.8514 172.732 90.4499C172.41 91.0446 171.958 91.5181 171.374 91.8704C170.795 92.2189 170.113 92.3893 169.329 92.3817ZM169.329 91.1317C169.806 91.1317 170.234 91.0124 170.613 90.7738C170.996 90.5352 171.297 90.2151 171.516 89.8136C171.74 89.4121 171.852 88.9651 171.852 88.4727C171.852 87.9916 171.744 87.5541 171.528 87.1602C171.316 86.7624 171.022 86.4461 170.647 86.2113C170.276 85.9764 169.852 85.859 169.374 85.859C169.015 85.859 168.679 85.931 168.369 86.0749C168.058 86.2151 167.785 86.4083 167.551 86.6545C167.319 86.9007 167.138 87.1829 167.005 87.5011C166.872 87.8155 166.806 88.1469 166.806 88.4954C166.806 88.9575 166.914 89.3893 167.13 89.7908C167.35 90.1924 167.649 90.5162 168.028 90.7624C168.41 91.0086 168.844 91.1317 169.329 91.1317ZM180.472 85.7795V87.0295H175.381V85.7795H180.472ZM186.604 92.3817C185.748 92.3817 185.019 92.1488 184.417 91.6829C183.815 91.2132 183.354 90.5333 183.036 89.6431C182.718 88.7492 182.559 87.6696 182.559 86.4045C182.559 85.1469 182.718 84.073 183.036 83.1829C183.358 82.2889 183.82 81.6071 184.423 81.1374C185.029 80.6639 185.756 80.4272 186.604 80.4272C187.453 80.4272 188.178 80.6639 188.781 81.1374C189.387 81.6071 189.849 82.2889 190.167 83.1829C190.489 84.073 190.65 85.1469 190.65 86.4045C190.65 87.6696 190.491 88.7492 190.173 89.6431C189.854 90.5333 189.394 91.2132 188.792 91.6829C188.19 92.1488 187.461 92.3817 186.604 92.3817ZM186.604 91.1317C187.453 91.1317 188.112 90.7227 188.582 89.9045C189.051 89.0863 189.286 87.9196 189.286 86.4045C189.286 85.3969 189.178 84.5389 188.962 83.8306C188.75 83.1223 188.444 82.5825 188.042 82.2113C187.644 81.8401 187.165 81.6545 186.604 81.6545C185.764 81.6545 185.106 82.0692 184.633 82.8988C184.159 83.7245 183.923 84.8931 183.923 86.4045C183.923 87.412 184.029 88.2681 184.241 88.9727C184.453 89.6772 184.758 90.2132 185.156 90.5806C185.557 90.948 186.04 91.1317 186.604 91.1317ZM196.9 80.5863V92.2227H195.491V82.0636H195.423L192.582 83.9499V82.5181L195.491 80.5863H196.9ZM204.337 80.5863V92.2227H202.928V82.0636H202.86L200.019 83.9499V82.5181L202.928 80.5863H204.337ZM207.684 92.2227V91.1999L211.525 86.9954C211.976 86.503 212.347 86.0749 212.639 85.7113C212.93 85.3439 213.146 84.9992 213.286 84.6772C213.43 84.3514 213.502 84.0105 213.502 83.6545C213.502 83.2454 213.404 82.8912 213.207 82.592C213.014 82.2927 212.748 82.0617 212.411 81.8988C212.074 81.7359 211.695 81.6545 211.275 81.6545C210.828 81.6545 210.438 81.7473 210.104 81.9329C209.775 82.1147 209.519 82.3704 209.337 82.6999C209.159 83.0295 209.07 83.4158 209.07 83.859H207.729C207.729 83.1772 207.887 82.5787 208.201 82.0636C208.515 81.5484 208.944 81.1469 209.485 80.859C210.031 80.5711 210.642 80.4272 211.32 80.4272C212.002 80.4272 212.606 80.5711 213.133 80.859C213.659 81.1469 214.072 81.5352 214.372 82.0238C214.671 82.5124 214.82 83.056 214.82 83.6545C214.82 84.0825 214.743 84.5011 214.587 84.9102C214.436 85.3155 214.171 85.7681 213.792 86.2681C213.417 86.7643 212.896 87.3704 212.229 88.0863L209.616 90.8817V90.9727H215.025V92.2227H207.684Z" fill="#0078D4"/>
</g>
<defs>
<filter id="filter0_d_3641_24583" x="0.198242" y="0.222656" width="292" height="142" filterUnits="userSpaceOnUse" color-interpolation-filters="sRGB">
<feFlood flood-opacity="0" result="BackgroundImageFix"/>
<feColorMatrix in="SourceAlpha" type="matrix" values="0 0 0 0 0 0 0 0 0 0 0 0 0 0 0 0 0 0 127 0" result="hardAlpha"/>
<feOffset/>
<feGaussianBlur stdDeviation="8"/>
<feComposite in2="hardAlpha" operator="out"/>
<feColorMatrix type="matrix" values="0 0 0 0 0.916667 0 0 0 0 0.916667 0 0 0 0 0.916667 0 0 0 1 0"/>
<feBlend mode="normal" in2="BackgroundImageFix" result="effect1_dropShadow_3641_24583"/>
<feBlend mode="normal" in="SourceGraphic" in2="effect1_dropShadow_3641_24583" result="shape"/>
</filter>
</defs>
</svg>
