<svg width="15" height="18" viewBox="0 0 15 18" fill="none" xmlns="http://www.w3.org/2000/svg">
<path d="M6.74807 3.1922C6.62233 2.84988 6.37037 2.56864 6.04387 2.40618C5.71737 2.24372 5.34108 2.21235 4.99218 2.3185C3.33828 2.82844 2.18242 4.24777 2.43059 5.88978C2.70986 7.71176 3.32729 9.46548 4.25107 11.0606C5.16634 12.6514 6.36655 14.0602 7.79175 15.2166C9.0734 16.2534 10.8718 15.9679 12.1398 14.778C12.4066 14.5277 12.5684 14.1855 12.5927 13.8205C12.617 13.4555 12.5019 13.0948 12.2707 12.8114L11.363 11.7014C11.1812 11.4782 10.9365 11.3148 10.6607 11.2323C10.3849 11.1499 10.0907 11.1522 9.81621 11.239L7.72206 11.902L7.3566 11.5246C6.89633 11.0469 6.49356 10.5169 6.15654 9.94549C5.83015 9.36726 5.57557 8.75134 5.39844 8.11141L5.25735 7.60997L6.87216 6.12265C7.08582 5.92519 7.2357 5.66847 7.30262 5.38534C7.36954 5.10222 7.35046 4.80556 7.24781 4.53334L6.74807 3.1922ZM4.49244 0.693497C5.25591 0.459907 6.07981 0.527137 6.79531 0.88141C7.51081 1.23568 8.06373 1.85018 8.34078 2.59897L8.83883 3.93841C9.05922 4.52678 9.09931 5.16747 8.95399 5.77872C8.80867 6.38998 8.48453 6.94407 8.02292 7.3703L7.19002 8.13691C7.29711 8.43267 7.44159 8.77093 7.62857 9.09899C7.81555 9.42196 8.03312 9.71602 8.232 9.95569L9.30287 9.61573C9.90156 9.42671 10.5432 9.42174 11.1447 9.60145C11.7463 9.78115 12.2801 10.1373 12.677 10.6237L13.5847 11.7337C14.0891 12.3505 14.3406 13.1359 14.2882 13.9311C14.2358 14.7262 13.8835 15.4718 13.3025 16.0172C11.6129 17.6031 8.85412 18.2609 6.72428 16.5373C5.13708 15.25 3.80032 13.6816 2.78075 11.9105C1.74999 10.1315 1.06106 8.17535 0.74949 6.14305C0.341538 3.43527 2.28441 1.37342 4.49244 0.695197" fill="#8C96A1"/>
</svg>
