<svg width="32" height="33" viewBox="0 0 32 33" fill="none" xmlns="http://www.w3.org/2000/svg">
<rect width="32" height="32" transform="translate(0 0.974609)" fill="white"/>
<path fill-rule="evenodd" clip-rule="evenodd" d="M5.83141 4.96875C5.96494 4.96848 6.08854 5.03923 6.15592 5.15451L8.50803 9.17844C8.61255 9.35724 8.55233 9.58691 8.37353 9.69143C8.19473 9.79594 7.96505 9.73572 7.86054 9.55692L6.20718 6.72839V25.1533C6.20718 25.3604 6.03928 25.5283 5.83218 25.5283C5.62507 25.5283 5.45718 25.3604 5.45718 25.1533V6.73966L3.82653 9.5556C3.72275 9.73482 3.49332 9.79598 3.3141 9.69219C3.13487 9.58841 3.07371 9.35898 3.1775 9.17976L5.50766 5.15583C5.57457 5.04028 5.69788 4.96902 5.83141 4.96875Z" fill="#0078D4"/>
<path fill-rule="evenodd" clip-rule="evenodd" d="M28.3691 27.4818C28.3694 27.6153 28.2987 27.7389 28.1834 27.8063L24.1595 30.1584C23.9807 30.2629 23.751 30.2027 23.6465 30.0239C23.5419 29.8451 23.6022 29.6154 23.781 29.5109L26.6095 27.8576L8.18462 27.8576C7.97751 27.8576 7.80962 27.6897 7.80962 27.4826C7.80962 27.2755 7.97751 27.1076 8.18462 27.1076L26.5982 27.1076L23.7823 25.4769C23.6031 25.3731 23.5419 25.1437 23.6457 24.9645C23.7495 24.7853 23.9789 24.7241 24.1581 24.8279L28.1821 27.158C28.2976 27.225 28.3689 27.3483 28.3691 27.4818Z" fill="#0078D4"/>
<path fill-rule="evenodd" clip-rule="evenodd" d="M9.20117 5.625H8.18555V4.875H9.20117C9.40828 4.875 9.57617 5.04289 9.57617 5.25C9.57617 5.45711 9.40828 5.625 9.20117 5.625ZM10.8574 5.25C10.8574 5.04289 11.0253 4.875 11.2324 4.875H13.2637C13.4708 4.875 13.6387 5.04289 13.6387 5.25C13.6387 5.45711 13.4708 5.625 13.2637 5.625H11.2324C11.0253 5.625 10.8574 5.45711 10.8574 5.25ZM14.9199 5.25C14.9199 5.04289 15.0878 4.875 15.2949 4.875H17.3262C17.5333 4.875 17.7012 5.04289 17.7012 5.25C17.7012 5.45711 17.5333 5.625 17.3262 5.625H15.2949C15.0878 5.625 14.9199 5.45711 14.9199 5.25ZM18.9824 5.25C18.9824 5.04289 19.1503 4.875 19.3574 4.875H21.3887C21.5958 4.875 21.7637 5.04289 21.7637 5.25C21.7637 5.45711 21.5958 5.625 21.3887 5.625H19.3574C19.1503 5.625 18.9824 5.45711 18.9824 5.25ZM23.0449 5.25C23.0449 5.04289 23.2128 4.875 23.4199 4.875H25.4512C25.6583 4.875 25.8262 5.04289 25.8262 5.25C25.8262 5.45711 25.6583 5.625 25.4512 5.625H23.4199C23.2128 5.625 23.0449 5.45711 23.0449 5.25ZM27.1074 5.25C27.1074 5.04289 27.2753 4.875 27.4824 4.875H28.873V6.28965C28.873 6.49676 28.7052 6.66465 28.498 6.66465C28.2909 6.66465 28.123 6.49676 28.123 6.28965V5.625H27.4824C27.2753 5.625 27.1074 5.45711 27.1074 5.25ZM28.498 7.99395C28.7052 7.99395 28.873 8.16184 28.873 8.36895V10.4482C28.873 10.6553 28.7052 10.8232 28.498 10.8232C28.2909 10.8232 28.123 10.6553 28.123 10.4482V8.36895C28.123 8.16184 28.2909 7.99395 28.498 7.99395ZM28.498 12.1525C28.7052 12.1525 28.873 12.3204 28.873 12.5275V14.6068C28.873 14.8139 28.7052 14.9818 28.498 14.9818C28.2909 14.9818 28.123 14.8139 28.123 14.6068V12.5275C28.123 12.3204 28.2909 12.1525 28.498 12.1525ZM28.498 16.3111C28.7052 16.3111 28.873 16.479 28.873 16.6861V18.7654C28.873 18.9725 28.7052 19.1404 28.498 19.1404C28.2909 19.1404 28.123 18.9725 28.123 18.7654V16.6861C28.123 16.479 28.2909 16.3111 28.498 16.3111ZM28.498 20.4697C28.7052 20.4697 28.873 20.6376 28.873 20.8447V22.924C28.873 23.1311 28.7052 23.299 28.498 23.299C28.2909 23.299 28.123 23.1311 28.123 22.924V20.8447C28.123 20.6376 28.2909 20.4697 28.498 20.4697ZM28.498 24.6283C28.7052 24.6283 28.873 24.7962 28.873 25.0033V26.043H28.123V25.0033C28.123 24.7962 28.2909 24.6283 28.498 24.6283Z" fill="#0078D4"/>
<path fill-rule="evenodd" clip-rule="evenodd" d="M13.7339 8.10398C13.8804 8.25042 13.8804 8.48786 13.7339 8.63431L9.90579 12.4624C9.75934 12.6089 9.52191 12.6089 9.37546 12.4624C9.22901 12.316 9.22901 12.0785 9.37546 11.9321L13.2036 8.10398C13.35 7.95753 13.5875 7.95753 13.7339 8.10398Z" fill="#0078D4"/>
<path fill-rule="evenodd" clip-rule="evenodd" d="M24.4214 18.7641C24.5679 18.9106 24.5679 19.148 24.4214 19.2945L20.5933 23.1226C20.4468 23.269 20.2094 23.269 20.063 23.1226C19.9165 22.9761 19.9165 22.7387 20.063 22.5923L23.8911 18.7641C24.0375 18.6177 24.275 18.6177 24.4214 18.7641Z" fill="#0078D4"/>
<path fill-rule="evenodd" clip-rule="evenodd" d="M17.2359 8.3696C17.3823 8.51605 17.3823 8.75348 17.2359 8.89993L10.0738 16.062C9.92731 16.2085 9.68988 16.2085 9.54343 16.062C9.39698 15.9156 9.39698 15.6782 9.54343 15.5317L16.7055 8.3696C16.852 8.22315 17.0894 8.22315 17.2359 8.3696Z" fill="#0078D4"/>
<path fill-rule="evenodd" clip-rule="evenodd" d="M24.1753 15.4321C24.3218 15.5785 24.3218 15.816 24.1753 15.9624L17.0132 23.1245C16.8668 23.271 16.6293 23.271 16.4829 23.1245C16.3364 22.9781 16.3364 22.7407 16.4829 22.5942L23.645 15.4321C23.7914 15.2857 24.0289 15.2857 24.1753 15.4321Z" fill="#0078D4"/>
<path fill-rule="evenodd" clip-rule="evenodd" d="M20.8765 8.3696C21.0229 8.51605 21.0229 8.75348 20.8765 8.89993L10.1519 19.6245C10.0054 19.771 9.768 19.771 9.62155 19.6245C9.47511 19.4781 9.47511 19.2407 9.62155 19.0942L20.3462 8.3696C20.4926 8.22315 20.73 8.22315 20.8765 8.3696Z" fill="#0078D4"/>
<path fill-rule="evenodd" clip-rule="evenodd" d="M24.1753 11.9321C24.3218 12.0785 24.3218 12.316 24.1753 12.4624L13.4507 23.187C13.3043 23.3335 13.0668 23.3335 12.9204 23.187C12.7739 23.0406 12.7739 22.8032 12.9204 22.6567L23.645 11.9321C23.7914 11.7857 24.0289 11.7857 24.1753 11.9321Z" fill="#0078D4"/>
<path fill-rule="evenodd" clip-rule="evenodd" d="M24.1753 8.38132C24.3218 8.52777 24.3218 8.7652 24.1753 8.91165L10.0738 23.0132C9.92731 23.1597 9.68988 23.1597 9.54343 23.0132C9.39698 22.8668 9.39698 22.6293 9.54343 22.4829L23.645 8.38132C23.7914 8.23487 24.0289 8.23487 24.1753 8.38132Z" fill="#0078D4"/>
</svg>
