<svg width="16" height="16" viewBox="0 0 16 16" fill="none" xmlns="http://www.w3.org/2000/svg">
<path fill-rule="evenodd" clip-rule="evenodd" d="M3.2003 2.92174C3.20016 2.97154 3.18608 3.02031 3.15965 3.06252C3.13321 3.10472 3.09549 3.13869 3.05075 3.16056C3.00601 3.18243 2.95604 3.19133 2.9065 3.18626C2.85695 3.1812 2.80982 3.16235 2.77044 3.13188L1.07124 1.81028C1.03931 1.78534 1.0135 1.75345 0.995737 1.71704C0.977979 1.68063 0.96875 1.64065 0.96875 1.60014C0.96875 1.55963 0.977979 1.51966 0.995737 1.48325C1.0135 1.44684 1.03931 1.41495 1.07124 1.39001L2.77044 0.0673434C2.80996 0.0367536 2.85729 0.0178888 2.90703 0.0129007C2.95676 0.00791249 3.00689 0.0170018 3.05171 0.0391317C3.09653 0.0612617 3.13422 0.0955415 3.16049 0.138061C3.18677 0.180581 3.20056 0.229629 3.2003 0.27961V1.06894H9.6003V0.277477C9.60029 0.227491 9.61433 0.178508 9.64081 0.136116C9.6673 0.0937236 9.70516 0.0596286 9.75009 0.0377203C9.79502 0.015812 9.8452 0.0069726 9.89491 0.0122104C9.94462 0.0174482 9.99186 0.0365523 10.0312 0.0673434L11.7294 1.38894C11.7613 1.41388 11.7871 1.44577 11.8049 1.48218C11.8226 1.51859 11.8319 1.55857 11.8319 1.59908C11.8319 1.63959 11.8226 1.67956 11.8049 1.71597C11.7871 1.75238 11.7613 1.78427 11.7294 1.80921L10.0312 3.13188C9.99179 3.16272 9.94445 3.18184 9.89465 3.18704C9.84484 3.19224 9.79458 3.18331 9.74961 3.16127C9.70464 3.13923 9.66679 3.10498 9.64039 3.06243C9.61398 3.01988 9.60009 2.97075 9.6003 2.92068V2.13348H3.2003V2.92174ZM10.1336 5.33348H2.66697C2.52552 5.33348 2.38987 5.38967 2.28985 5.48969C2.18983 5.58971 2.13364 5.72536 2.13364 5.86681V13.3335C2.13364 13.4749 2.18983 13.6106 2.28985 13.7106C2.38987 13.8106 2.52552 13.8668 2.66697 13.8668H10.1336C10.2751 13.8668 10.4107 13.8106 10.5108 13.7106C10.6108 13.6106 10.667 13.4749 10.667 13.3335V5.86681C10.667 5.72536 10.6108 5.58971 10.5108 5.48969C10.4107 5.38967 10.2751 5.33348 10.1336 5.33348ZM2.66697 4.26681C2.24262 4.26681 1.83566 4.43538 1.5356 4.73544C1.23554 5.0355 1.06697 5.44246 1.06697 5.86681V13.3335C1.06697 13.7578 1.23554 14.1648 1.5356 14.4648C1.83566 14.7649 2.24262 14.9335 2.66697 14.9335H10.1336C10.558 14.9335 10.9649 14.7649 11.265 14.4648C11.5651 14.1648 11.7336 13.7578 11.7336 13.3335V5.86681C11.7336 5.44246 11.5651 5.0355 11.265 4.73544C10.9649 4.43538 10.558 4.26681 10.1336 4.26681H2.66697ZM15.7219 6.40014H14.9336V12.8001H15.7219C15.7717 12.8003 15.8205 12.8144 15.8627 12.8408C15.9049 12.8672 15.9388 12.905 15.9607 12.9497C15.9826 12.9944 15.9915 13.0444 15.9864 13.094C15.9814 13.1435 15.9625 13.1906 15.932 13.23L14.6104 14.9292C14.5855 14.9611 14.5536 14.987 14.5172 15.0047C14.4808 15.0225 14.4408 15.0317 14.4003 15.0317C14.3598 15.0317 14.3198 15.0225 14.2834 15.0047C14.247 14.987 14.2151 14.9611 14.1902 14.9292L12.8675 13.23C12.837 13.1906 12.8181 13.1433 12.8131 13.0937C12.8081 13.044 12.8171 12.994 12.8391 12.9492C12.8611 12.9044 12.8952 12.8667 12.9375 12.8404C12.9799 12.814 13.0288 12.8001 13.0787 12.8001H13.867V6.40014H13.0787C13.0289 6.4 12.9801 6.38592 12.9379 6.35948C12.8957 6.33305 12.8618 6.29533 12.8399 6.25059C12.818 6.20585 12.8091 6.15588 12.8142 6.10634C12.8193 6.05679 12.8381 6.00966 12.8686 5.97028L14.1902 4.27108C14.2151 4.23916 14.247 4.21334 14.2834 4.19558C14.3198 4.17782 14.3598 4.16859 14.4003 4.16859C14.4408 4.16859 14.4808 4.17782 14.5172 4.19558C14.5536 4.21334 14.5855 4.23916 14.6104 4.27108L15.9331 5.97028C15.9636 6.00973 15.9825 6.05696 15.9875 6.1066C15.9925 6.15624 15.9835 6.20629 15.9615 6.25107C15.9395 6.29585 15.9054 6.33355 15.8631 6.35991C15.8207 6.38626 15.7718 6.4002 15.7219 6.40014Z" fill="#037EDB"/>
</svg>
