<svg width="32" height="32" viewBox="0 0 32 32" fill="none" xmlns="http://www.w3.org/2000/svg">
<path d="M28.7257 14.7265C29.131 15.2945 29.3337 15.5798 29.3337 15.9998C29.3337 16.4212 29.131 16.7052 28.7257 17.2732C26.9043 19.8278 22.2523 25.3332 16.0003 25.3332C9.74699 25.3332 5.09633 19.8265 3.27499 17.2732C2.86966 16.7052 2.66699 16.4198 2.66699 15.9998C2.66699 15.5785 2.86966 15.2945 3.27499 14.7265C5.09633 12.1718 9.74833 6.6665 16.0003 6.6665C22.2537 6.6665 26.9043 12.1732 28.7257 14.7265Z" stroke="#1877F2" stroke-width="1.5" stroke-linecap="round" stroke-linejoin="round"/>
<path d="M20 16C20 14.9391 19.5786 13.9217 18.8284 13.1716C18.0783 12.4214 17.0609 12 16 12C14.9391 12 13.9217 12.4214 13.1716 13.1716C12.4214 13.9217 12 14.9391 12 16C12 17.0609 12.4214 18.0783 13.1716 18.8284C13.9217 19.5786 14.9391 20 16 20C17.0609 20 18.0783 19.5786 18.8284 18.8284C19.5786 18.0783 20 17.0609 20 16Z" stroke="#1877F2" stroke-width="1.5" stroke-linecap="round" stroke-linejoin="round"/>
</svg>
