<svg width="16" height="16" viewBox="0 0 16 16" fill="none" xmlns="http://www.w3.org/2000/svg">
<path d="M2.66634 1.33301H13.333C14.0663 1.33301 14.6663 1.93301 14.6663 2.66634V6.66634H6.66634V13.333H9.69967C9.81967 13.533 9.93967 13.7197 10.0597 13.893C10.253 14.1797 10.4397 14.4397 10.613 14.6663H2.66634C1.93301 14.6663 1.33301 14.0663 1.33301 13.333V2.66634C1.33301 1.93301 1.93301 1.33301 2.66634 1.33301ZM5.33301 2.66634H2.66634V9.33301H5.33301V2.66634ZM2.66634 10.6663V13.333H5.33301V10.6663H2.66634ZM6.66634 5.33301H13.333V2.66634H6.66634V5.33301ZM12.333 14.6663C12.333 14.6663 11.9463 14.233 11.4863 13.6063C11.4263 13.5197 11.3597 13.4263 11.293 13.333C10.6663 12.4397 9.99967 11.2597 9.99967 10.333C9.99967 9.06634 11.0663 7.99967 12.333 7.99967C12.6863 7.99967 13.0263 8.08634 13.333 8.23301C14.113 8.61301 14.6663 9.41967 14.6663 10.333C14.6663 11.3597 13.8463 12.693 13.1797 13.6063C12.7197 14.233 12.333 14.6663 12.333 14.6663ZM11.533 10.3997C11.533 10.7997 11.8663 11.1997 12.333 11.1997C12.7997 11.1997 13.1997 10.7997 13.133 10.3997C13.133 9.99967 12.733 9.59967 12.333 9.59967C11.933 9.59967 11.533 9.93301 11.533 10.3997Z" fill="#037EDB"/>
</svg>
