<svg width="24" height="24" viewBox="0 0 24 24" fill="none" xmlns="http://www.w3.org/2000/svg">
<path d="M12.95 2V4.02C17.34 4.56 20.45 8.55 19.91 12.94C19.45 16.58 16.59 19.47 12.95 19.9V21.9C18.45 21.35 22.45 16.47 21.9 10.97C21.45 6.22 17.68 2.47 12.95 2ZM10.95 2.03C9 2.22 7.14 2.97 5.62 4.23L7.05 5.71C8.17 4.81 9.52 4.23 10.95 4.03V2.03ZM4.21 5.64C2.96044 7.15782 2.19109 9.01331 2 10.97H4C4.19 9.55 4.75 8.2 5.64 7.07L4.21 5.64ZM2.01 12.97C2.21 14.93 2.98 16.78 4.22 18.3L5.64 16.87C4.75684 15.7396 4.19386 14.3926 4.01 12.97H2.01ZM7.05 18.34L5.62 19.71C7.13497 20.9724 8.98936 21.7587 10.95 21.97V19.97C9.52737 19.7861 8.18035 19.2232 7.05 18.34Z" fill="#525252"/>
<path d="M12.5 9C12.5 8.86739 12.4473 8.74021 12.3536 8.64645C12.2598 8.55268 12.1326 8.5 12 8.5C11.8674 8.5 11.7402 8.55268 11.6464 8.64645C11.5527 8.74021 11.5 8.86739 11.5 9V11.5H9C8.86739 11.5 8.74021 11.5527 8.64645 11.6464C8.55268 11.7402 8.5 11.8674 8.5 12C8.5 12.1326 8.55268 12.2598 8.64645 12.3536C8.74021 12.4473 8.86739 12.5 9 12.5H11.5V15C11.5 15.1326 11.5527 15.2598 11.6464 15.3536C11.7402 15.4473 11.8674 15.5 12 15.5C12.1326 15.5 12.2598 15.4473 12.3536 15.3536C12.4473 15.2598 12.5 15.1326 12.5 15V12.5H15C15.1326 12.5 15.2598 12.4473 15.3536 12.3536C15.4473 12.2598 15.5 12.1326 15.5 12C15.5 11.8674 15.4473 11.7402 15.3536 11.6464C15.2598 11.5527 15.1326 11.5 15 11.5H12.5V9Z" fill="#525252"/>
</svg>
