<svg width="32" height="33" viewBox="0 0 32 33" fill="none" xmlns="http://www.w3.org/2000/svg">
<path d="M23.351 0.000377218C23.6366 0.000377218 23.918 0.0189144 24.1797 0.0625315C24.4375 0.0957448 24.6919 0.151944 24.9397 0.230457C25.1869 0.304606 25.4318 0.4002 25.6746 0.517239C25.9113 0.629553 26.1544 0.766946 26.3976 0.916334C26.8087 1.17804 27.2132 1.38958 27.6254 1.55859C28.4366 1.88402 29.2948 2.0773 30.1672 2.13107C30.6085 2.16378 31.0653 2.1805 31.5379 2.18123V6.54293C31.5379 7.37092 31.4321 8.15821 31.2206 8.90479C31.0173 9.64214 30.7286 10.3532 30.3602 11.0235C29.9934 11.6929 29.5594 12.3231 29.0648 12.9045C28.5629 13.4993 28.0192 14.0576 27.4379 14.575C26.8483 15.0933 26.2282 15.5758 25.5809 16.0198C24.9324 16.4705 24.2804 16.886 23.6247 17.2662L23.3629 17.4221L23.1012 17.2662C22.4286 16.8769 21.7717 16.4611 21.1319 16.0198C20.4811 15.5805 19.8607 15.0978 19.2749 14.575C18.694 14.0575 18.1506 13.4993 17.6491 12.9045C17.1562 12.3204 16.7202 11.6905 16.3472 11.0235C15.9854 10.3501 15.697 9.63976 15.4868 8.90479C15.2753 8.13547 15.1704 7.34077 15.1749 6.54293V2.18123C15.6475 2.1805 16.1047 2.16378 16.5467 2.13107C16.9826 2.10144 17.4156 2.03911 17.8421 1.94461C18.2598 1.85083 18.6774 1.72652 19.0885 1.55859C19.515 1.38621 19.9239 1.17333 20.3098 0.922877C20.7895 0.611015 21.2759 0.380936 21.7557 0.229367C22.2724 0.0711343 22.8106 -0.00611097 23.351 0.000377218ZM30.4409 3.25312C29.6155 3.21272 28.7978 3.07473 28.0049 2.84203C27.2164 2.60622 26.4653 2.26003 25.7739 1.81375C25.4151 1.57888 25.0258 1.39434 24.6169 1.26527C24.2082 1.14201 23.7833 1.08099 23.3564 1.08426C22.9263 1.08164 22.4983 1.14264 22.0861 1.26527C21.6767 1.39049 21.2879 1.5753 20.9324 1.81375C20.2395 2.26202 19.4865 2.6097 18.6959 2.84639C17.9232 3.07101 17.113 3.20841 16.2654 3.25857V6.54838C16.2654 7.27024 16.3591 7.96375 16.5467 8.62891C16.7379 9.28931 17.0012 9.92668 17.3318 10.5295C17.6665 11.1386 18.061 11.7128 18.5095 12.2437C18.9642 12.7791 19.4494 13.2774 19.9728 13.7506C20.4962 14.2239 21.0447 14.6622 21.6183 15.0657C22.1976 15.4699 22.777 15.8395 23.3564 16.1747C23.9496 15.8299 24.5277 15.46 25.0891 15.0657C25.6671 14.6633 26.2186 14.2241 26.74 13.7506C27.2634 13.2774 27.7497 12.7791 28.2044 12.2437C28.6529 11.7128 29.0474 11.1386 29.3821 10.5295C29.711 9.92734 29.9704 9.28971 30.1552 8.62891C30.3487 7.95247 30.4449 7.25193 30.4409 6.54838V3.25312Z" fill="#037EDB"/>
<path fill-rule="evenodd" clip-rule="evenodd" d="M27.4158 5.13484L26.936 4.72266L26.4933 4.76082L21.7391 10.3743L20.1198 8.06263L19.6836 7.98848L19.1788 8.34941L19.1035 8.78558L21.1851 11.7581L21.4218 11.8889L21.9201 11.9195L22.1752 11.8082L27.4475 5.57646L27.4158 5.13484Z" fill="#037EDB"/>
<path d="M0 30.0002V25.5791C0 24.4745 0.895432 23.5791 2 23.5791H4.42114C5.0022 23.5791 5.55453 23.3264 5.93444 22.8868L8.61876 19.7803C8.99866 19.3406 9.551 19.0879 10.1321 19.0879H18.2052C19.1353 19.0879 19.8894 19.8419 19.8894 20.7721C19.8894 21.7023 19.1353 22.4563 18.2052 22.4563H14.2207C13.6006 22.4563 13.0979 22.959 13.0979 23.5791V23.8247C13.0979 24.9293 13.9933 25.8247 15.0979 25.8247H21.3999C21.9809 25.8247 22.5333 25.572 22.9132 25.1324L27.0252 20.3736C27.6108 19.6959 28.6615 19.6959 29.2471 20.3736C29.7235 20.9249 29.7235 21.7421 29.2471 22.2935L21.4578 31.3078C21.0779 31.7475 20.5256 32.0002 19.9445 32.0002H2C0.895431 32.0002 0 31.1047 0 30.0002Z" stroke="#037EDB" stroke-width="1.5"/>
</svg>
