<svg width="203" height="149" viewBox="0 0 203 149" fill="none" xmlns="http://www.w3.org/2000/svg">
<g clip-path="url(#clip0_1649_7359)">
<path d="M203 0H0V149H203V0Z" fill="#E7EFE7"/>
<path d="M23.4083 129.846C23.4083 129.846 10.6031 121.748 12.4593 104.23C14.3754 86.1478 24.7414 86.4887 41.474 68.0658C49.503 59.2256 50.6577 51.3036 52.6966 40.9427C55.069 28.8883 68.5726 15.0254 88.9194 16.4319C113.182 18.1091 110.751 43.698 141.383 33.4087C157.533 27.9839 177.515 37.9293 174.23 63.5451C172.179 79.54 205.982 96.9968 187.095 128.941L23.4083 129.846Z" fill="white"/>
<path d="M76.7021 92.0678C61.5085 81.847 67.5615 57.3621 52.3679 47.1416C52.1194 47.3085 51.8704 47.4757 51.6213 47.6422C48.3414 49.8445 45.0612 52.047 41.781 54.2489C36.2304 57.9754 30.6799 61.7019 25.1293 65.429C24.8806 65.5958 24.6316 65.7627 24.3828 65.9296C39.5764 76.1501 33.5238 100.634 48.7174 110.856C57.7969 104.76 66.8764 98.6631 75.9559 92.5687C76.2049 92.4015 76.4534 92.2353 76.7021 92.0678Z" fill="#007C9D"/>
<path d="M79.8913 93.5061C70.0182 98.899 60.1448 104.291 50.272 109.685C35.3176 97.286 43.4661 72.2674 28.5117 59.8682C38.3846 54.4753 48.2579 49.0824 58.1308 43.6895C73.0856 56.0886 64.937 81.1066 79.8913 93.5061Z" fill="#CFE0F6"/>
<path d="M79.8913 93.5061C70.0182 98.899 60.1448 104.291 50.272 109.685C35.3176 97.286 43.4661 72.2674 28.5117 59.8682C38.3846 54.4753 48.2579 49.0824 58.1308 43.6895C73.0856 56.0886 64.937 81.1066 79.8913 93.5061Z" fill="#CFE0F6"/>
<path d="M28.5107 59.8682C28.5107 59.8682 28.5107 59.8682 27.6992 60.3113C42.6536 72.7105 34.5049 97.7285 49.4592 110.127C49.7296 109.98 50 109.832 50.2704 109.684C35.3169 97.2853 43.465 72.267 28.5107 59.8682Z" fill="#93C9E1"/>
<path d="M47.0475 56.0395C47.2397 56.2844 47.185 56.5976 46.9338 56.735C43.2254 58.7608 39.5175 60.786 35.8091 62.8115C35.5574 62.9489 35.2045 62.8583 35.0123 62.6134C34.8207 62.3687 34.8623 62.0618 35.1141 61.9244C38.8222 59.8989 42.5306 57.8737 46.2387 55.8482C46.4896 55.7108 46.8556 55.7945 47.0475 56.0395Z" fill="#93C9E1"/>
<path d="M49.3814 59.6512C49.5254 59.9224 49.4331 60.2564 49.1817 60.3938C45.4733 62.419 41.7654 64.4448 38.057 66.4703C37.8053 66.6077 37.4899 66.4963 37.3459 66.2254C37.2022 65.9539 37.2842 65.6258 37.536 65.4881C41.2444 63.4626 44.9522 61.4371 48.6606 59.4119C48.9118 59.2742 49.2377 59.3797 49.3814 59.6512Z" fill="#93C9E1"/>
<path d="M51.116 63.5884C51.2224 63.8801 51.1009 64.2297 50.8494 64.3673C47.1413 66.3928 43.4331 68.4183 39.725 70.4438C39.4736 70.5809 39.1872 70.454 39.0808 70.1622C38.9745 69.8705 39.0881 69.5248 39.3396 69.3874C43.0477 67.3622 46.7559 65.3367 50.4643 63.3109C50.7154 63.1738 51.0094 63.2966 51.116 63.5884Z" fill="#93C9E1"/>
<path d="M52.4017 67.7721C52.4816 68.0788 52.3395 68.4396 52.088 68.5767C48.3799 70.6025 44.6718 72.6277 40.9633 74.6535C40.7119 74.7909 40.4461 74.6529 40.3663 74.3466C40.287 74.0399 40.4236 73.6818 40.6754 73.5444C44.3835 71.5192 48.0916 69.4937 51.7998 67.4679C52.0512 67.3302 52.3221 67.4658 52.4017 67.7721Z" fill="#93C9E1"/>
<path d="M65.928 65.9045C65.99 66.2206 65.8357 66.5887 65.584 66.726C59.7722 69.9003 53.9607 73.0749 48.149 76.2495C47.8972 76.3869 47.6444 76.2421 47.5822 75.9259C47.5202 75.6097 47.6723 75.2432 47.924 75.1058C53.7358 71.9312 59.5473 68.7569 65.3588 65.5823C65.6108 65.4449 65.866 65.5889 65.928 65.9045Z" fill="#93C9E1"/>
<path d="M66.8442 70.8334C66.9021 71.1514 66.7459 71.5203 66.4942 71.6577C58.6443 75.9453 50.7945 80.2335 42.9443 84.5214C42.6923 84.6582 42.4411 84.5125 42.3832 84.1942C42.325 83.8766 42.482 83.5065 42.7335 83.3688C50.5833 79.0815 58.4335 74.7935 66.2834 70.5053C66.5353 70.3685 66.786 70.5151 66.8442 70.8334Z" fill="#93C9E1"/>
<path d="M67.7993 75.7405C67.8667 76.0537 67.7192 76.4172 67.4674 76.5549C59.6176 80.8428 51.7674 85.1307 43.9176 89.4181C43.6658 89.556 43.4057 89.4139 43.3383 89.1013C43.2709 88.7887 43.422 88.4225 43.6734 88.2848C51.5236 83.9969 59.3734 79.7092 67.2236 75.421C67.475 75.2842 67.7319 75.4273 67.7993 75.7405Z" fill="#93C9E1"/>
<path d="M69.0024 80.5131C69.092 80.8135 68.964 81.1666 68.7125 81.3046C60.8624 85.5925 53.0125 89.8795 45.1624 94.1675C44.9112 94.3051 44.6311 94.1746 44.5417 93.8736C44.4516 93.5733 44.5861 93.216 44.8376 93.0783C52.6877 88.7907 60.5373 84.5033 68.3875 80.2154C68.6392 80.0774 68.9126 80.2118 69.0024 80.5131Z" fill="#93C9E1"/>
<path d="M70.6523 85.0412C70.7774 85.3225 70.6797 85.659 70.4274 85.7957C62.5778 90.084 54.7276 94.3722 46.8778 98.6601C46.6261 98.7972 46.3161 98.6833 46.1911 98.402C46.066 98.1207 46.173 97.778 46.4241 97.6406C54.2743 93.353 62.1242 89.0657 69.9743 84.7778C70.2257 84.6404 70.5267 84.7599 70.6523 85.0412Z" fill="#93C9E1"/>
<path d="M68.6625 91.5569C68.8363 91.8111 68.7792 92.1252 68.5275 92.2629C62.1089 95.7689 55.6898 99.2752 49.2709 102.782C49.0194 102.919 48.6687 102.827 48.4952 102.572C48.3209 102.317 48.3896 101.996 48.6413 101.859C55.0602 98.3519 61.4788 94.8466 67.8979 91.3406C68.1499 91.2029 68.4888 91.3016 68.6625 91.5569Z" fill="#93C9E1"/>
<path opacity="0.5" d="M37.038 73.9481C39.3243 66.8965 40.7865 57.8942 40.0746 53.5518C36.2203 55.6571 32.366 57.7622 28.5117 59.8679C33.0532 63.6331 35.4641 68.562 37.038 73.9481Z" fill="white"/>
<path opacity="0.4" d="M79.891 93.5068C73.5794 88.2739 71.3832 80.7923 69.8282 72.96C68.6486 77.5322 67.1213 83.4537 66.5789 88.5671C65.9552 93.7237 66.3171 98.073 67.0493 100.521C71.3301 98.183 75.6105 95.8443 79.891 93.5068Z" fill="#93C9E1"/>
<path d="M59.2212 65.2049L57.0253 63.2178L54.6973 64.6354L55.404 57.3604L59.9284 57.9295L59.2212 65.2049Z" fill="#F15A29"/>
<path opacity="0.4" d="M59.2212 65.2049L57.0253 63.2178L54.6973 64.6354L55.404 57.3604L59.9284 57.9295L59.2212 65.2049Z" fill="#93C9E1"/>
<path d="M64.4923 59.4149L61.9272 60.7124L62.0146 63.6855L56.5371 59.6795L59.0148 55.4092L64.4923 59.4149Z" fill="#F15A29"/>
<path d="M61.3038 53.2725C62.5554 56.1369 61.5017 59.5889 58.9506 60.9826C56.3999 62.3758 53.3172 61.1832 52.0659 58.3188C50.8147 55.4541 51.8684 52.0021 54.4194 50.609C56.9702 49.2152 60.0525 50.4078 61.3038 53.2725Z" fill="#F7BD33"/>
<path d="M54.6805 51.2075C52.424 52.44 51.4921 55.4933 52.5988 58.0278C53.7059 60.5617 56.4326 61.617 58.6894 60.3844C60.9457 59.1519 61.8778 56.0983 60.7708 53.5644C59.6641 51.0299 56.9371 49.975 54.6805 51.2075ZM58.5235 60.0051C56.4534 61.136 53.9519 60.1681 52.9366 57.8434C51.9211 55.5187 52.7761 52.7172 54.8462 51.5866C56.9163 50.456 59.418 51.4239 60.4333 53.7486C61.4488 56.0733 60.5938 58.8745 58.5235 60.0051Z" fill="#F15A29"/>
<path d="M58.075 53.9629L56.1313 53.9638L55.024 55.6293C54.8781 55.7089 54.818 55.9065 54.8895 56.0701L56.0839 58.8042C56.1554 58.9681 56.3313 59.0361 56.4775 58.9565L57.152 58.5882L56.7349 57.6328C56.5045 57.1053 56.6983 56.4694 57.1685 56.2128C57.6384 55.9559 58.206 56.1756 58.4366 56.7033L58.8537 57.6587L59.5282 57.2901C59.6741 57.2102 59.7344 57.0133 59.6627 56.8494L58.4682 54.1149C58.397 53.9516 58.2208 53.8834 58.075 53.9629Z" fill="#F15A29"/>
<path d="M59.2273 54.1633L56.2083 52.8706C55.8989 52.7383 55.5541 52.9114 55.4372 53.2571C55.4339 53.2667 55.4331 53.2762 55.4304 53.286C55.4261 53.2965 55.4204 53.3054 55.4169 53.3164L54.2733 56.6972C54.1564 57.0432 54.3117 57.4306 54.6208 57.5629C54.9297 57.6952 55.2748 57.5224 55.3917 57.1764L56.3436 54.3621L58.804 55.4161C59.1128 55.5484 59.4582 55.3753 59.5748 55.0293C59.6918 54.6833 59.5361 54.2956 59.2273 54.1633Z" fill="#F15A29"/>
<path d="M30.3437 113.06C29.1527 112.64 27.798 112.489 26.8158 111.557C25.7551 110.552 25.7989 109.239 25.4194 107.876C24.6185 105.005 22.8421 103.63 20.8135 102.175C19.4512 103.931 18.5188 106.036 17.8416 108.031C16.6988 111.396 18.689 112.276 19.9111 114.949C20.9442 117.21 20.0004 120.483 20.4895 122.896C20.9017 124.931 22.5926 127.63 24.6783 128.175C29.2182 129.361 33.721 126.934 34.0634 121.929C34.1771 120.265 34.2737 114.444 30.3437 113.06Z" fill="#007C9D"/>
<path d="M32.1554 129.671C32.3906 129.665 32.6272 129.671 32.8657 129.699L32.8965 129.703C25.1027 120.646 21.2381 105.466 21.197 105.302C21.1585 105.149 21.0137 105.059 20.8754 105.101C20.7366 105.143 20.6548 105.301 20.693 105.454C20.7338 105.618 24.5107 120.457 32.1554 129.671Z" fill="#33314F"/>
<path d="M22.5785 111.274C22.5552 111.275 22.5314 111.272 22.5084 111.266C20.8812 110.823 19.3546 109.25 19.291 109.183C19.186 109.074 19.1811 108.892 19.2804 108.776C19.3792 108.661 19.5449 108.656 19.6499 108.764C19.6637 108.779 21.0398 110.197 22.477 110.661C22.739 110.279 23.423 109.064 23.1688 107.068C23.1491 106.91 23.2484 106.765 23.3913 106.743C23.5334 106.722 23.6663 106.83 23.6864 106.987C24.0277 109.673 22.8132 111.124 22.7615 111.184C22.713 111.241 22.647 111.272 22.5785 111.274Z" fill="#33314F"/>
<path d="M24.5354 116.201C24.5102 116.202 24.4837 116.199 24.4583 116.191C23.2933 115.836 20.9518 114.226 20.853 114.158C20.7304 114.073 20.6941 113.896 20.7702 113.761C20.8468 113.626 21.0081 113.586 21.1302 113.67C21.1523 113.685 23.2224 115.108 24.38 115.56C24.6437 114.852 25.3853 112.693 25.2757 111.108C25.2646 110.949 25.3723 110.811 25.5163 110.799C25.6584 110.783 25.7856 110.906 25.7964 111.064C25.9388 113.124 24.8142 115.914 24.766 116.032C24.7246 116.134 24.6337 116.198 24.5354 116.201Z" fill="#33314F"/>
<path d="M27.0661 121.88C25.1757 121.94 22.1264 120.346 21.994 120.277C21.8644 120.208 21.8089 120.037 21.8714 119.893C21.9334 119.75 22.0893 119.689 22.2198 119.758C22.2512 119.774 25.284 121.359 27.0441 121.305C27.3627 120.676 28.6865 117.893 28.6914 115.199C28.6917 115.04 28.8105 114.911 28.9532 114.911C29.0974 114.912 29.2141 115.041 29.2141 115.2C29.2084 118.408 27.4978 121.598 27.425 121.732C27.3811 121.813 27.3051 121.864 27.2203 121.872C27.1697 121.876 27.118 121.879 27.0661 121.88Z" fill="#33314F"/>
<path d="M28.6211 125.903C26.6396 125.965 23.8658 125.173 23.734 125.135C23.5943 125.095 23.511 124.937 23.5478 124.784C23.5843 124.63 23.728 124.538 23.8669 124.579C23.9018 124.588 27.3241 125.566 29.1771 125.279C29.5176 124.859 31.2888 122.499 31.5698 118.636C31.5812 118.477 31.7081 118.361 31.8513 118.372C31.995 118.385 32.1022 118.523 32.0905 118.681C31.7655 123.156 29.5861 125.645 29.494 125.75C29.4548 125.793 29.4044 125.822 29.35 125.832C29.1254 125.873 28.8799 125.895 28.6211 125.903Z" fill="#33314F"/>
<path d="M41.3044 110.834C40.0426 110.271 38.5823 109.985 37.5852 108.885C36.5085 107.697 36.6544 106.275 36.3434 104.761C35.6881 101.571 33.8613 99.9176 31.7672 98.1543C30.1573 99.9378 28.9877 102.139 28.1035 104.244C26.6115 107.795 28.7073 108.931 29.8349 111.944C30.7882 114.492 29.519 117.961 29.8706 120.626C30.1667 122.873 31.8013 125.957 34.0256 126.736C38.8671 128.435 43.9377 126.205 44.6821 120.802C44.9297 119.005 45.4689 112.693 41.3044 110.834Z" fill="#00A79D"/>
<path d="M42.4064 129.905L43.1884 129.961C35.1244 119.463 31.962 102.096 31.9287 101.911C31.8983 101.741 31.7481 101.63 31.5952 101.663C31.4409 101.697 31.3405 101.861 31.3705 102.031C31.403 102.215 34.5008 119.234 42.4064 129.905Z" fill="#CFE0F6"/>
<path d="M32.983 108.52C32.9575 108.519 32.9321 108.514 32.9072 108.505C31.173 107.877 29.6332 106.03 29.5682 105.952C29.4624 105.824 29.471 105.626 29.5872 105.509C29.7033 105.393 29.8833 105.403 29.9891 105.531C30.0032 105.548 31.392 107.211 32.918 107.845C33.2306 107.454 34.0637 106.197 33.9371 104.006C33.927 103.833 34.0461 103.684 34.2028 103.673C34.3585 103.663 34.4946 103.793 34.5046 103.966C34.6752 106.914 33.2482 108.379 33.1873 108.439C33.131 108.495 33.0571 108.524 32.983 108.52Z" fill="#CFE0F6"/>
<path d="M34.7397 114.046C34.7121 114.045 34.6842 114.039 34.6566 114.028C33.418 113.537 30.9958 111.577 30.8932 111.494C30.7665 111.391 30.7398 111.195 30.8326 111.056C30.9257 110.917 31.1041 110.887 31.2305 110.99C31.2535 111.008 33.395 112.741 34.6187 113.336C34.9578 112.59 35.9241 110.313 35.923 108.582C35.923 108.409 36.0505 108.269 36.2072 108.269C36.3629 108.264 36.4917 108.409 36.4922 108.582C36.493 110.831 35.0639 113.759 35.0033 113.882C34.95 113.991 34.8463 114.052 34.7397 114.046Z" fill="#CFE0F6"/>
<path d="M37.0658 120.444C35.0085 120.338 31.8165 118.332 31.6776 118.245C31.5418 118.159 31.4947 117.967 31.5732 117.817C31.6514 117.667 31.8252 117.615 31.9613 117.701C31.994 117.722 35.1695 119.716 37.0847 119.818C37.4775 119.163 39.1226 116.26 39.3286 113.335C39.3408 113.163 39.4799 113.033 39.6342 113.047C39.7909 113.061 39.9078 113.211 39.8959 113.384C39.6504 116.867 37.5554 120.176 37.4661 120.315C37.4128 120.399 37.3259 120.448 37.2336 120.448C37.1789 120.448 37.1226 120.447 37.0658 120.444Z" fill="#CFE0F6"/>
<path d="M38.4531 124.951C36.2967 124.839 33.344 123.728 33.2035 123.675C33.0549 123.618 32.9762 123.44 33.0273 123.277C33.0787 123.113 33.2411 123.026 33.3892 123.083C33.4263 123.097 37.07 124.467 39.103 124.323C39.5041 123.897 41.6034 121.496 42.1964 117.326C42.2205 117.155 42.3669 117.04 42.5215 117.065C42.6769 117.092 42.7832 117.252 42.7586 117.422C42.0716 122.253 39.5198 124.758 39.4118 124.863C39.3661 124.906 39.3095 124.933 39.2494 124.94C39.0034 124.963 38.7349 124.965 38.4531 124.951Z" fill="#CFE0F6"/>
<path opacity="0.4" d="M33.5375 120.355C28.6503 120.355 23.8914 118.488 20.1016 115.151C20.8131 117.376 20.0352 120.355 20.4892 122.595C20.9014 124.63 22.5922 127.329 24.678 127.874C26.7196 128.408 28.7526 128.208 30.4042 127.374C30.9637 128.168 31.5475 128.937 32.156 129.671C32.3912 129.665 32.6277 129.671 32.8662 129.699L32.8971 129.703C32.1922 128.884 31.5202 128.015 30.8795 127.111C31.4758 126.748 32.0112 126.294 32.4664 125.756C32.9406 126.196 33.4641 126.54 34.0255 126.737C36.203 127.5 38.4254 127.468 40.2811 126.711C40.9472 127.82 41.6547 128.891 42.4061 129.906L43.1881 129.962C42.3444 128.863 41.5551 127.689 40.8168 126.468C42.8192 125.457 44.3051 123.537 44.6819 120.802C44.7853 120.053 44.9382 118.516 44.7801 116.846C41.4212 119.112 37.5222 120.355 33.5375 120.355Z" fill="#93C9E1"/>
<path d="M173.307 113.013C174.498 112.593 175.853 112.441 176.835 111.51C177.896 110.505 177.852 109.192 178.232 107.829C179.033 104.958 180.809 103.583 182.838 102.128C184.2 103.884 185.132 105.989 185.81 107.984C186.953 111.349 184.962 112.229 183.74 114.902C182.707 117.163 183.651 120.436 183.162 122.85C182.749 124.884 181.059 127.583 178.973 128.128C174.433 129.314 169.93 126.887 169.587 121.882C169.474 120.218 169.377 114.397 173.307 113.013Z" fill="#007C9D"/>
<path d="M171.495 129.925C171.26 129.92 171.024 129.926 170.785 129.954L170.754 129.958C178.548 120.901 182.413 105.721 182.454 105.557C182.492 105.404 182.637 105.314 182.775 105.356C182.914 105.398 182.996 105.556 182.958 105.709C182.917 105.873 179.14 120.712 171.495 129.925Z" fill="#33314F"/>
<path d="M181.072 111.529C181.095 111.53 181.119 111.528 181.142 111.521C182.77 111.078 184.296 109.504 184.36 109.438C184.465 109.328 184.47 109.147 184.37 109.031C184.272 108.916 184.106 108.911 184.001 109.019C183.987 109.035 182.611 110.452 181.174 110.915C180.912 110.534 180.228 109.319 180.482 107.323C180.502 107.165 180.403 107.02 180.26 106.998C180.118 106.977 179.985 107.085 179.965 107.242C179.623 109.929 180.838 111.379 180.89 111.439C180.938 111.495 181.004 111.527 181.072 111.529Z" fill="#33314F"/>
<path d="M179.116 116.456C179.141 116.457 179.167 116.454 179.193 116.446C180.358 116.091 182.699 114.481 182.798 114.413C182.921 114.328 182.957 114.151 182.881 114.017C182.804 113.881 182.643 113.841 182.521 113.925C182.499 113.941 180.429 115.364 179.271 115.815C179.007 115.107 178.266 112.948 178.376 111.363C178.387 111.205 178.279 111.066 178.135 111.054C177.993 111.039 177.865 111.16 177.854 111.32C177.712 113.379 178.837 116.169 178.885 116.286C178.927 116.389 179.018 116.453 179.116 116.456Z" fill="#33314F"/>
<path d="M176.586 122.134C178.476 122.194 181.525 120.601 181.658 120.532C181.787 120.463 181.843 120.291 181.78 120.148C181.718 120.004 181.562 119.944 181.432 120.013C181.4 120.029 178.368 121.614 176.608 121.56C176.289 120.931 174.965 118.148 174.96 115.453C174.96 115.294 174.841 115.165 174.698 115.166C174.554 115.167 174.438 115.296 174.438 115.454C174.443 118.662 176.154 121.853 176.227 121.987C176.27 122.067 176.347 122.118 176.431 122.126C176.482 122.13 176.534 122.133 176.586 122.134Z" fill="#33314F"/>
<path d="M175.03 126.158C177.012 126.219 179.785 125.428 179.917 125.39C180.057 125.349 180.14 125.192 180.104 125.038C180.067 124.885 179.924 124.793 179.785 124.833C179.75 124.843 176.328 125.82 174.475 125.534C174.134 125.113 172.363 122.754 172.082 118.891C172.07 118.732 171.944 118.616 171.8 118.627C171.657 118.639 171.55 118.778 171.561 118.936C171.886 123.411 174.066 125.9 174.158 126.005C174.197 126.047 174.247 126.076 174.302 126.086C174.526 126.126 174.771 126.149 175.03 126.158Z" fill="#33314F"/>
<path d="M162.346 111.088C163.608 110.525 165.068 110.239 166.065 109.139C167.142 107.95 166.996 106.529 167.307 105.015C167.962 101.824 169.789 100.171 171.883 98.4082C173.493 100.192 174.663 102.393 175.547 104.498C177.038 108.05 174.942 109.185 173.815 112.198C172.862 114.746 174.131 118.215 173.779 120.88C173.484 123.126 171.849 126.21 169.625 126.991C164.783 128.689 159.713 126.459 158.968 121.056C158.72 119.259 158.181 112.947 162.346 111.088Z" fill="#00A79D"/>
<path d="M161.243 130.159L160.461 130.215C168.525 119.718 171.687 102.351 171.721 102.166C171.751 101.996 171.901 101.885 172.054 101.918C172.208 101.951 172.309 102.116 172.279 102.285C172.247 102.47 169.149 119.49 161.243 130.159Z" fill="#CFE0F6"/>
<path d="M170.665 108.774C170.691 108.773 170.716 108.768 170.741 108.759C172.475 108.131 174.015 106.284 174.079 106.206C174.185 106.078 174.177 105.88 174.061 105.764C173.944 105.647 173.765 105.657 173.659 105.785C173.645 105.802 172.256 107.465 170.73 108.099C170.418 107.709 169.584 106.451 169.711 104.26C169.721 104.086 169.602 103.938 169.445 103.927C169.29 103.917 169.153 104.047 169.143 104.22C168.973 107.167 170.4 108.633 170.461 108.693C170.517 108.75 170.591 108.778 170.665 108.774Z" fill="#CFE0F6"/>
<path d="M168.909 114.301C168.937 114.3 168.965 114.294 168.992 114.283C170.231 113.792 172.653 111.832 172.756 111.749C172.882 111.647 172.909 111.45 172.816 111.311C172.723 111.172 172.545 111.142 172.418 111.245C172.395 111.264 170.253 112.996 169.03 113.59C168.691 112.845 167.725 110.568 167.726 108.837C167.726 108.664 167.598 108.524 167.442 108.524C167.286 108.519 167.157 108.664 167.156 108.837C167.155 111.086 168.585 114.014 168.645 114.137C168.699 114.245 168.802 114.306 168.909 114.301Z" fill="#CFE0F6"/>
<path d="M166.583 120.698C168.641 120.592 171.832 118.587 171.971 118.499C172.107 118.413 172.154 118.221 172.076 118.071C171.998 117.921 171.824 117.869 171.687 117.956C171.655 117.977 168.479 119.971 166.564 120.072C166.171 119.417 164.526 116.515 164.32 113.59C164.308 113.418 164.169 113.287 164.015 113.302C163.858 113.316 163.741 113.465 163.753 113.638C163.998 117.121 166.094 120.431 166.182 120.57C166.236 120.654 166.323 120.703 166.415 120.703C166.47 120.702 166.527 120.701 166.583 120.698Z" fill="#CFE0F6"/>
<path d="M165.196 125.205C167.352 125.094 170.305 123.983 170.445 123.929C170.594 123.873 170.673 123.695 170.622 123.531C170.57 123.368 170.408 123.281 170.26 123.337C170.223 123.351 166.579 124.722 164.546 124.577C164.145 124.152 162.046 121.75 161.452 117.58C161.428 117.409 161.282 117.294 161.128 117.319C160.972 117.346 160.866 117.507 160.89 117.677C161.577 122.508 164.129 125.013 164.237 125.118C164.283 125.161 164.339 125.187 164.399 125.195C164.646 125.218 164.914 125.22 165.196 125.205Z" fill="#CFE0F6"/>
<path opacity="0.4" d="M170.112 120.609C174.999 120.609 179.758 118.742 183.548 115.405C182.836 117.63 183.614 120.609 183.16 122.849C182.748 124.884 181.057 127.582 178.971 128.127C176.929 128.661 174.897 128.461 173.245 127.627C172.685 128.422 172.101 129.19 171.493 129.924C171.258 129.919 171.022 129.925 170.783 129.953L170.752 129.956C171.457 129.138 172.129 128.268 172.77 127.364C172.173 127.001 171.638 126.548 171.183 126.009C170.709 126.449 170.185 126.793 169.624 126.991C167.446 127.755 165.224 127.721 163.368 126.964C162.702 128.074 161.994 129.145 161.243 130.159L160.461 130.215C161.304 129.117 162.094 127.943 162.832 126.722C160.83 125.711 159.344 123.791 158.967 121.056C158.864 120.306 158.711 118.77 158.869 117.1C162.228 119.366 166.127 120.609 170.112 120.609Z" fill="#93C9E1"/>
<path d="M124.45 119.352C124.45 121.027 123.225 122.385 121.713 122.385H69.3408C67.8291 122.385 66.6035 121.027 66.6035 119.352V30.1861C66.6035 28.511 67.8288 27.1533 69.3408 27.1533H121.713C123.225 27.1533 124.45 28.511 124.45 30.1861V119.352Z" fill="#33314F"/>
<path d="M121.529 109.909C121.529 111.609 120.277 112.988 118.733 112.988H72.3175C70.7733 112.988 69.5215 111.609 69.5215 109.909V35.4107C69.5215 33.7103 70.7736 32.332 72.3175 32.332H118.733C120.277 32.332 121.529 33.7103 121.529 35.4107V109.909Z" fill="#CFE0F6"/>
<path d="M117.215 73.5771C114.526 66.0279 110.761 68.9885 105.921 62.0314C101.348 55.4569 99.4186 54.034 95.8902 54.191C92.3618 54.0337 89.7039 55.4569 85.1302 62.0314C80.2904 68.9885 76.5259 66.0279 73.8369 73.5771C70.7743 82.1759 76.9292 87.3435 76.9292 87.3435H94.8972H96.155H114.123C114.123 87.3435 120.278 82.1759 117.215 73.5771Z" fill="white"/>
<path d="M115.137 51.0287H114.74C114.701 49.4964 113.563 48.2656 112.162 48.2656C110.76 48.2656 109.622 49.4964 109.584 51.0287H109.186C108.216 51.0287 107.43 51.8947 107.43 52.963C107.43 54.0313 108.216 54.897 109.186 54.897H115.137C116.107 54.897 116.894 54.0313 116.894 52.963C116.894 51.8947 116.107 51.0287 115.137 51.0287Z" fill="#93C9E1"/>
<path d="M82.1924 42.7689H81.7943C81.7561 41.2363 80.618 40.0059 79.2167 40.0059C77.8152 40.0059 76.6776 41.2363 76.6392 42.7689H76.2413C75.2709 42.7689 74.4844 43.6349 74.4844 44.7032C74.4844 45.7716 75.2709 46.6373 76.2413 46.6373H82.1927C83.163 46.6373 83.9496 45.7713 83.9496 44.7032C83.9493 43.6349 83.1628 42.7689 82.1924 42.7689Z" fill="#93C9E1"/>
<path d="M85.517 50.5137L81.2324 53.541L86.2282 62.1117L90.5128 59.0844L85.517 50.5137Z" fill="#93C9E1"/>
<path d="M87.9889 49.5692C88.577 50.5785 88.3109 51.9216 87.3945 52.5685L82.1443 56.278C81.2279 56.9256 80.0077 56.6321 79.4198 55.6233C78.8319 54.6143 79.098 53.2712 80.0145 52.6237L85.2646 48.9142C86.1808 48.2669 87.401 48.5601 87.9889 49.5692Z" fill="#007C9D"/>
<path d="M77.1218 87.3954C77.1218 87.7148 76.8864 87.9738 76.5962 87.9738C76.3055 87.9738 76.0703 87.7148 76.0703 87.3954V77.5009C76.0703 77.1808 76.3055 76.9219 76.5962 76.9219C76.8864 76.9219 77.1218 77.1808 77.1218 77.5009V87.3954Z" fill="#33314F"/>
<path d="M79.4025 74.5123C79.6835 73.9831 79.8469 73.3689 79.8469 72.7118C79.8469 70.7352 78.3913 69.1328 76.5962 69.1328C74.8009 69.1328 73.3455 70.7349 73.3455 72.7118C73.3455 73.3692 73.5095 73.9831 73.7902 74.5123C72.9436 75.2636 72.4082 76.3459 72.4082 77.5537C72.4082 79.8215 74.2834 81.6595 76.5965 81.6595C78.9096 81.6595 80.7848 79.8215 80.7848 77.5537C80.7845 76.3459 80.2491 75.2636 79.4025 74.5123Z" fill="#00A79D"/>
<path d="M114.981 87.3954C114.981 87.7148 114.746 87.9738 114.455 87.9738C114.165 87.9738 113.93 87.7148 113.93 87.3954V77.5009C113.93 77.1808 114.165 76.9219 114.455 76.9219C114.746 76.9219 114.981 77.1808 114.981 77.5009V87.3954Z" fill="#33314F"/>
<path d="M117.261 74.5123C117.543 73.9831 117.706 73.3689 117.706 72.7118C117.706 70.7352 116.251 69.1328 114.456 69.1328C112.66 69.1328 111.205 70.7349 111.205 72.7118C111.205 73.3692 111.368 73.9831 111.65 74.5123C110.803 75.2636 110.268 76.3459 110.268 77.5537C110.268 79.8215 112.143 81.6595 114.456 81.6595C116.769 81.6595 118.644 79.8215 118.644 77.5537C118.644 76.3459 118.109 75.2636 117.261 74.5123Z" fill="#00A79D"/>
<path d="M95.6891 52.6074L82.9258 63.024V86.1852C82.9258 87.0574 83.5681 87.7646 84.3598 87.7646H106.923C107.715 87.7646 108.357 87.0574 108.357 86.1852V62.6894L95.6891 52.6074Z" fill="#93C9E1"/>
<path d="M108.357 69.501H104.508C103.716 69.501 103.074 70.2078 103.074 71.0798C103.074 71.9517 103.716 72.6586 104.508 72.6586H108.357V69.501Z" fill="#007C9D"/>
<path d="M82.9258 74.7112H86.009C86.7216 74.7112 87.2995 74.0749 87.2995 73.29C87.2995 72.5054 86.7216 71.8691 86.009 71.8691H82.9258V74.7112Z" fill="#007C9D"/>
<path d="M108.357 81.501H105.512C104.799 81.501 104.221 82.1369 104.221 82.9215C104.221 83.7065 104.799 84.343 105.512 84.343H108.357V81.501Z" fill="#007C9D"/>
<path d="M87.5855 83.5523H92.1746C92.8875 83.5523 93.4652 82.9163 93.4652 82.1314C93.4652 81.3465 92.8875 80.71 92.1746 80.71H87.5855C86.8725 80.71 86.2949 81.3465 86.2949 82.1314C86.2949 82.9163 86.8725 83.5523 87.5855 83.5523Z" fill="#007C9D"/>
<path d="M95.6401 71.8701C92.7099 71.8701 90.334 74.4857 90.334 77.7121V87.7648H100.946V77.7118C100.946 74.4857 98.5709 71.8701 95.6401 71.8701Z" fill="#33314F"/>
<path d="M80.4416 67.9224C79.5148 67.9224 78.6003 67.4527 78.0105 66.5665C77.0274 65.0896 77.3176 63.0146 78.659 61.9323L94.0515 49.5117C95.1215 48.6478 96.5804 48.657 97.6408 49.5355L112.651 61.9558C113.981 63.0561 114.248 65.1346 113.249 66.5984C112.25 68.0628 110.362 68.3569 109.032 67.257L95.809 56.315L82.2196 67.2805C81.6829 67.7135 81.0593 67.9224 80.4416 67.9224Z" fill="#007C9D"/>
<path d="M116.96 87.3433C116.96 87.9026 116.66 88.3565 116.29 88.3565H74.9899C74.6202 88.3565 74.3203 87.9026 74.3203 87.3433C74.3203 86.7836 74.6202 86.3301 74.9899 86.3301H116.29C116.66 86.3298 116.96 86.7836 116.96 87.3433Z" fill="#00A79D"/>
<path d="M99.8459 65.2904C99.8459 67.8478 97.9629 69.9216 95.6397 69.9216C93.3169 69.9216 91.4336 67.8478 91.4336 65.2904C91.4336 62.7324 93.3169 60.6592 95.6397 60.6592C97.9629 60.6592 99.8459 62.7327 99.8459 65.2904Z" fill="#33314F"/>
<path d="M96.5005 60.7569C96.2225 60.6935 95.9348 60.6592 95.6398 60.6592C95.345 60.6592 95.0573 60.6935 94.7793 60.7569V64.3431H91.5221C91.4644 64.6491 91.4336 64.9656 91.4336 65.2904C91.4336 65.6152 91.4642 65.9317 91.5221 66.2374H94.7793V69.8239C95.0573 69.8876 95.345 69.9216 95.6398 69.9216C95.9348 69.9216 96.2225 69.8876 96.5005 69.8239V66.2374H99.7577C99.8153 65.9317 99.8462 65.6152 99.8462 65.2904C99.8462 64.9656 99.8156 64.6491 99.7574 64.3431H96.5005V60.7569Z" fill="#007C9D"/>
<path d="M93.375 80.0796C93.375 80.6902 92.9254 81.1852 92.3708 81.1852C91.8168 81.1852 91.3672 80.6902 91.3672 80.0796C91.3672 79.4693 91.8168 78.9746 92.3708 78.9746C92.9254 78.9749 93.375 79.4696 93.375 80.0796Z" fill="#00A79D"/>
<path d="M93.8889 38.2078C93.8889 38.2075 93.8886 38.2072 93.8886 38.2072C93.8886 38.2069 93.8886 38.2063 93.8886 38.2063C93.8732 38.164 93.8499 38.1253 93.8201 38.0919C93.7866 38.0534 93.7463 38.0239 93.7019 38.0034C93.6583 37.9828 93.6101 37.9706 93.559 37.9682C93.5167 37.9661 93.474 37.9715 93.4328 37.984C93.4326 37.984 93.4325 37.984 93.4323 37.984C93.389 37.9974 93.3489 38.0183 93.314 38.0451L90.2003 40.4005C90.1862 40.4103 90.1726 40.4219 90.1605 40.4342C90.1296 40.4637 90.1055 40.497 90.0879 40.5334C90.0641 40.5817 90.0527 40.6335 90.0527 40.6851V40.6854C90.0527 40.7366 90.0644 40.7891 90.0879 40.8374C90.1052 40.8734 90.1293 40.9068 90.1602 40.9366C90.1724 40.9488 90.1862 40.9601 90.2003 40.9703L93.314 43.326C93.3438 43.3486 93.3768 43.3671 93.4128 43.3802L93.4131 43.3805C93.4545 43.3957 93.4986 43.4031 93.5422 43.4031C93.5479 43.4031 93.5535 43.4031 93.5587 43.4025C93.6109 43.4005 93.6604 43.3876 93.7043 43.3665C93.7473 43.3459 93.7869 43.3167 93.8201 43.2795C93.8499 43.2461 93.8732 43.2071 93.8886 43.1647C93.8886 43.1644 93.8886 43.1641 93.8886 43.1641C93.8886 43.1641 93.8889 43.1638 93.8889 43.1632C93.9019 43.1257 93.9084 43.0867 93.9084 43.0479C93.9084 43.047 93.9084 43.0455 93.9084 43.0443V38.3258C93.9084 38.3249 93.9084 38.3234 93.9084 38.3225C93.9087 38.2841 93.9022 38.2454 93.8889 38.2078Z" fill="#F7BD33"/>
<path d="M97.1621 43.1628L97.1624 43.1634L97.1626 43.1637V43.164C97.1778 43.2063 97.2011 43.2451 97.2309 43.2784C97.2641 43.3166 97.3047 43.3464 97.3494 43.3666C97.3924 43.3872 97.4406 43.3997 97.4918 43.4018C97.534 43.4039 97.5768 43.3985 97.6182 43.386C97.6182 43.386 97.6182 43.386 97.6187 43.386C97.662 43.3726 97.7018 43.3517 97.7367 43.3249L100.851 40.9692C100.865 40.9591 100.878 40.9478 100.891 40.9359C100.921 40.9061 100.945 40.8727 100.963 40.8366C100.987 40.7883 100.998 40.7365 100.998 40.6849V40.6846C100.998 40.6334 100.987 40.5812 100.963 40.5333C100.946 40.4969 100.922 40.4635 100.891 40.434C100.879 40.4215 100.865 40.4102 100.851 40.4L97.7367 38.0447C97.7078 38.0217 97.6742 38.0032 97.6385 37.9901H97.6377C97.5965 37.9749 97.5527 37.9678 97.5094 37.9678C97.5034 37.9678 97.4977 37.9678 97.4926 37.9681C97.4401 37.9702 97.3911 37.983 97.347 38.0041C97.3034 38.0247 97.2639 38.0539 97.2311 38.0911C97.2013 38.1245 97.1781 38.1636 97.1629 38.2062L97.1626 38.2068L97.1624 38.2074C97.1491 38.2452 97.1426 38.284 97.1426 38.3227C97.1426 38.3239 97.1426 38.3248 97.1426 38.326V43.0442C97.1426 43.0454 97.1426 43.0469 97.1426 43.0478C97.1421 43.0862 97.1486 43.1253 97.1621 43.1628Z" fill="#F7BD33"/>
<path d="M91.3555 41.8438L93.3148 43.3261C93.3446 43.3487 93.3776 43.3672 93.4136 43.3803L93.4139 43.3806H93.4142C93.4556 43.3958 93.4994 43.4033 93.543 43.4033C93.5487 43.4033 93.5544 43.4033 93.5595 43.4027C93.6117 43.4006 93.6613 43.3878 93.7051 43.3666C93.7482 43.3461 93.7877 43.3168 93.821 43.2796C93.8507 43.2462 93.874 43.2072 93.8895 43.1649V43.1643C93.8895 43.1643 93.8897 43.164 93.8897 43.1634C93.9027 43.1258 93.9092 43.0868 93.9092 43.0481V40.1211C93.183 40.9033 92.3061 41.4889 91.3555 41.8438Z" fill="#F1A429"/>
<path d="M97.4728 40.1657C97.3575 40.0391 97.2487 39.9065 97.1426 39.7715V43.0483C97.1426 43.087 97.1491 43.1261 97.1623 43.1636C97.1623 43.1639 97.1626 43.1642 97.1626 43.1642C97.1626 43.1642 97.1626 43.1645 97.1629 43.1645C97.178 43.2068 97.2013 43.2459 97.2311 43.2792C97.2644 43.3174 97.305 43.3472 97.3496 43.3675C97.3927 43.388 97.4408 43.4005 97.492 43.4026C97.5342 43.4047 97.577 43.3993 97.6184 43.3868C97.6184 43.3868 97.6184 43.3868 97.6189 43.3868C97.6623 43.3734 97.702 43.3526 97.737 43.3257L99.7437 41.8077C98.9 41.437 98.1235 40.8821 97.4728 40.1657Z" fill="#F1A429"/>
<path d="M83.7601 92.2104C83.726 92.0933 83.6329 92.0093 83.5216 91.9938L82.2124 91.8192L81.6573 90.502C81.6102 90.3906 81.5087 90.3193 81.3969 90.3193C81.2854 90.3193 81.1836 90.3906 81.1365 90.502L80.5814 91.8192L79.2722 91.9938C79.1609 92.0093 79.0678 92.0933 79.0337 92.2104C78.9991 92.3273 79.0291 92.4554 79.1111 92.5394L80.0771 93.5276L79.823 94.9521C79.8019 95.0733 79.8457 95.1964 79.9364 95.2688C80.0268 95.3406 80.147 95.349 80.2444 95.2888L81.3969 94.5831L82.5497 95.2888C82.593 95.3153 82.6411 95.329 82.6891 95.329C82.7486 95.329 82.8076 95.3088 82.8577 95.2688C82.9481 95.1964 82.9919 95.0733 82.9706 94.9521L82.7167 93.5276L83.6827 92.5394C83.7647 92.4554 83.795 92.327 83.7601 92.2104Z" fill="#F7BD33"/>
<path d="M83.5225 91.9942L82.3137 91.833C82.216 91.9608 82.1159 92.0854 82.0106 92.201C81.4408 92.8295 80.7725 93.334 80.0474 93.6988L79.8236 94.9525C79.8025 95.0738 79.8463 95.1968 79.937 95.2692C80.0274 95.3411 80.1476 95.3494 80.245 95.2892L81.3975 94.5836L82.5503 95.2892C82.5936 95.3157 82.6418 95.3294 82.6897 95.3294C82.7492 95.3294 82.8082 95.3092 82.8583 95.2692C82.9487 95.1968 82.9926 95.0738 82.9712 94.9525L82.7173 93.528L83.6833 92.5399C83.7653 92.4558 83.7956 92.3274 83.761 92.2109C83.7266 92.0938 83.6335 92.0097 83.5225 91.9942Z" fill="#F1A429"/>
<path d="M90.9456 92.2104C90.9115 92.0933 90.8184 92.0093 90.7072 91.9938L89.398 91.8192L88.8428 90.502C88.796 90.3906 88.6942 90.3193 88.5824 90.3193C88.4709 90.3193 88.3692 90.3906 88.3221 90.502L87.7669 91.8192L86.4577 91.9938C86.3465 92.0093 86.2536 92.0933 86.2192 92.2104C86.1846 92.3273 86.2146 92.4554 86.2967 92.5394L87.2627 93.5276L87.0085 94.9521C86.9874 95.0733 87.031 95.1964 87.1217 95.2688C87.2121 95.3406 87.3322 95.349 87.4297 95.2888L88.5822 94.5831L89.7349 95.2888C89.7782 95.3153 89.8267 95.329 89.8746 95.329C89.9339 95.329 89.9932 95.3088 90.043 95.2688C90.1336 95.1964 90.1775 95.0733 90.1561 94.9521L89.9019 93.5276L90.868 92.5394C90.9502 92.4554 90.9803 92.327 90.9456 92.2104Z" fill="#F7BD33"/>
<path d="M90.7078 91.9942L89.499 91.833C89.4013 91.9608 89.3012 92.0854 89.1959 92.201C88.6261 92.8295 87.9581 93.334 87.2327 93.6988L87.0092 94.9525C86.988 95.0738 87.0316 95.1968 87.1223 95.2692C87.2127 95.3411 87.3329 95.3494 87.4303 95.2892L88.5828 94.5836L89.7356 95.2892C89.7789 95.3157 89.8273 95.3294 89.8752 95.3294C89.9345 95.3294 89.9938 95.3092 90.0436 95.2692C90.1343 95.1968 90.1781 95.0738 90.1567 94.9525L89.9026 93.528L90.8686 92.5399C90.9506 92.4558 90.9806 92.3274 90.946 92.2109C90.9119 92.0938 90.8191 92.0097 90.7078 91.9942Z" fill="#F1A429"/>
<path d="M98.1312 92.2104C98.0971 92.0933 98.004 92.0093 97.8927 91.9938L96.5835 91.8192L96.0284 90.502C95.9813 90.3906 95.8798 90.3193 95.768 90.3193C95.6565 90.3193 95.5547 90.3906 95.5076 90.502L94.9525 91.8192L93.6432 91.9938C93.532 92.0093 93.4392 92.0933 93.4048 92.2104C93.3701 92.3273 93.4002 92.4554 93.4825 92.5394L94.4485 93.5276L94.1943 94.9521C94.1732 95.0733 94.2171 95.1964 94.3075 95.2688C94.3979 95.3406 94.518 95.349 94.6155 95.2888L95.7683 94.5831L96.9208 95.2888C96.9641 95.3153 97.0125 95.329 97.0604 95.329C97.1197 95.329 97.179 95.3088 97.2288 95.2688C97.3194 95.1964 97.3633 95.0733 97.3419 94.9521L97.0878 93.5276L98.0538 92.5394C98.1355 92.4554 98.1658 92.327 98.1312 92.2104Z" fill="#F7BD33"/>
<path d="M97.8933 91.9942L96.6845 91.833C96.5868 91.9608 96.4867 92.0854 96.3817 92.201C95.8116 92.8295 95.1436 93.334 94.4185 93.6988L94.1947 94.9525C94.1736 95.0738 94.2174 95.1968 94.3078 95.2692C94.3982 95.3411 94.5184 95.3494 94.6158 95.2892L95.7686 94.5836L96.9211 95.2892C96.9644 95.3157 97.0129 95.3294 97.0608 95.3294C97.12 95.3294 97.1793 95.3092 97.2291 95.2692C97.3198 95.1968 97.3636 95.0738 97.3423 94.9525L97.0881 93.528L98.0541 92.5399C98.1361 92.4558 98.1662 92.3274 98.1318 92.2109C98.0977 92.0938 98.0049 92.0097 97.8933 91.9942Z" fill="#F1A429"/>
<path d="M105.315 92.2104C105.281 92.0933 105.188 92.0093 105.077 91.9938L103.767 91.8192L103.212 90.502C103.165 90.3906 103.063 90.3193 102.952 90.3193C102.84 90.3193 102.738 90.3906 102.691 90.502L102.136 91.8192L100.827 91.9938C100.716 92.0093 100.623 92.0933 100.588 92.2104C100.554 92.3273 100.584 92.4554 100.666 92.5394L101.632 93.5276L101.378 94.9521C101.357 95.0733 101.401 95.1964 101.491 95.2688C101.581 95.3406 101.702 95.349 101.799 95.2888L102.952 94.5831L104.105 95.2888C104.148 95.3153 104.196 95.329 104.244 95.329C104.304 95.329 104.363 95.3088 104.413 95.2688C104.503 95.1964 104.547 95.0733 104.526 94.9521L104.272 93.5276L105.238 92.5394C105.32 92.4554 105.35 92.327 105.315 92.2104Z" fill="#F7BD33"/>
<path d="M105.077 91.9942L103.868 91.833C103.771 91.9608 103.671 92.0854 103.565 92.201C102.996 92.8295 102.328 93.334 101.602 93.6988L101.378 94.9525C101.357 95.0738 101.401 95.1968 101.492 95.2692C101.582 95.3411 101.702 95.3494 101.8 95.2892L102.952 94.5836L104.105 95.2892C104.148 95.3157 104.197 95.3294 104.245 95.3294C104.304 95.3294 104.363 95.3092 104.413 95.2692C104.504 95.1968 104.548 95.0738 104.526 94.9525L104.272 93.528L105.238 92.5399C105.32 92.4558 105.35 92.3274 105.315 92.2109C105.282 92.0938 105.188 92.0097 105.077 91.9942Z" fill="#F1A429"/>
<path d="M112.501 92.2104C112.467 92.0933 112.374 92.0093 112.262 91.9938L110.953 91.8192L110.398 90.502C110.351 90.3906 110.249 90.3193 110.137 90.3193C110.026 90.3193 109.924 90.3906 109.877 90.502L109.322 91.8192L108.012 91.9938C107.901 92.0093 107.808 92.0933 107.774 92.2104C107.739 92.3273 107.769 92.4554 107.852 92.5394L108.817 93.5276L108.563 94.9521C108.542 95.0733 108.586 95.1964 108.677 95.2688C108.767 95.3406 108.887 95.349 108.985 95.2888L110.137 94.5831L111.29 95.2888C111.333 95.3153 111.382 95.329 111.43 95.329C111.489 95.329 111.548 95.3088 111.598 95.2688C111.689 95.1964 111.732 95.0733 111.711 94.9521L111.457 93.5276L112.423 92.5394C112.505 92.4554 112.535 92.327 112.501 92.2104Z" fill="#F7BD33"/>
<path d="M112.262 91.9942L111.053 91.833C110.956 91.9608 110.856 92.0854 110.751 92.201C110.181 92.8295 109.513 93.334 108.787 93.6988L108.564 94.9525C108.543 95.0738 108.587 95.1968 108.677 95.2692C108.767 95.3411 108.888 95.3494 108.985 95.2892L110.138 94.5836L111.291 95.2892C111.334 95.3157 111.382 95.3294 111.43 95.3294C111.489 95.3294 111.549 95.3092 111.599 95.2692C111.689 95.1968 111.733 95.0738 111.712 94.9525L111.458 93.528L112.424 92.5399C112.506 92.4558 112.536 92.3274 112.501 92.2109C112.467 92.0938 112.374 92.0097 112.262 91.9942Z" fill="#F1A429"/>
<path d="M113.639 102.66C113.639 105.224 111.75 107.303 109.422 107.303H81.6311C79.302 107.303 77.4141 105.224 77.4141 102.66C77.4141 100.096 79.302 98.0176 81.6311 98.0176H109.421C111.75 98.0176 113.639 100.096 113.639 102.66Z" fill="#00A79D"/>
<path d="M87.4427 117.424C87.6269 117.476 87.8636 117.516 88.153 117.542C88.4423 117.555 88.7185 117.562 88.9815 117.562C89.5076 117.562 89.9416 117.457 90.2836 117.246C90.6387 117.022 90.8162 116.681 90.8162 116.22C90.8162 115.786 90.6716 115.477 90.3822 115.293C90.0929 115.109 89.6523 115.017 89.0604 115.017H87.4427V117.424ZM87.4427 112.61H88.8829C89.4484 112.61 89.8561 112.505 90.106 112.294C90.3691 112.084 90.5006 111.775 90.5006 111.367C90.5006 111.012 90.3494 110.729 90.0469 110.519C89.7575 110.308 89.3169 110.203 88.7251 110.203C88.5278 110.203 88.2976 110.21 88.0346 110.223C87.7847 110.236 87.5874 110.256 87.4427 110.282V112.61ZM88.7251 120.205C88.5015 120.205 88.2384 120.199 87.9359 120.186C87.6334 120.172 87.3178 120.146 86.989 120.107C86.6733 120.067 86.3577 120.015 86.042 119.949C85.7264 119.896 85.4371 119.817 85.174 119.712C84.4506 119.436 84.089 118.956 84.089 118.272V109.059C84.089 108.783 84.1613 108.572 84.306 108.428C84.4638 108.27 84.6742 108.145 84.9373 108.053C85.3844 107.895 85.9434 107.783 86.6142 107.717C87.2849 107.638 87.9754 107.599 88.6856 107.599C90.3691 107.599 91.6646 107.882 92.5721 108.447C93.4795 109.013 93.9333 109.888 93.9333 111.071C93.9333 111.663 93.7623 112.176 93.4204 112.61C93.0784 113.031 92.6181 113.34 92.0394 113.537C92.697 113.721 93.2428 114.057 93.6768 114.543C94.124 115.03 94.3476 115.642 94.3476 116.378C94.3476 117.68 93.861 118.647 92.8877 119.278C91.9276 119.896 90.5401 120.205 88.7251 120.205ZM106.897 115.471C106.897 116.181 106.772 116.832 106.523 117.424C106.286 118.002 105.937 118.502 105.477 118.923C105.017 119.331 104.458 119.646 103.8 119.87C103.143 120.094 102.399 120.205 101.571 120.205C100.742 120.205 99.9992 120.094 99.3416 119.87C98.684 119.646 98.125 119.331 97.6647 118.923C97.2044 118.502 96.8492 118.002 96.5994 117.424C96.3626 116.832 96.2443 116.181 96.2443 115.471V107.934C96.3889 107.908 96.6191 107.875 96.9347 107.836C97.2504 107.783 97.5529 107.757 97.8422 107.757C98.1447 107.757 98.4078 107.783 98.6314 107.836C98.8681 107.875 99.0654 107.954 99.2232 108.073C99.381 108.191 99.4994 108.355 99.5783 108.566C99.6572 108.776 99.6967 109.052 99.6967 109.394V115.411C99.6967 116.043 99.8676 116.536 100.21 116.891C100.565 117.246 101.018 117.424 101.571 117.424C102.136 117.424 102.59 117.246 102.932 116.891C103.274 116.536 103.445 116.043 103.445 115.411V107.934C103.59 107.908 103.82 107.875 104.135 107.836C104.451 107.783 104.754 107.757 105.043 107.757C105.345 107.757 105.609 107.783 105.832 107.836C106.069 107.875 106.266 107.954 106.424 108.073C106.582 108.191 106.7 108.355 106.779 108.566C106.858 108.776 106.897 109.052 106.897 109.394V115.471ZM90.3625 150.811C90.2178 150.85 89.9942 150.89 89.6917 150.929C89.3893 150.969 89.0933 150.988 88.804 150.988C88.199 150.988 87.7452 150.89 87.4427 150.692C87.1402 150.482 86.989 150.048 86.989 149.39V146.727C86.6602 146.24 86.3051 145.701 85.9237 145.109C85.5423 144.517 85.1674 143.912 84.7992 143.294C84.4309 142.676 84.089 142.071 83.7733 141.479C83.4577 140.874 83.2012 140.322 83.0039 139.822C83.1749 139.585 83.4051 139.368 83.6944 139.171C83.9969 138.974 84.3652 138.875 84.7992 138.875C85.3121 138.875 85.7264 138.98 86.042 139.191C86.3709 139.401 86.6799 139.796 86.9693 140.375L88.6067 143.669H88.7251C88.9092 143.261 89.067 142.893 89.1985 142.564C89.3432 142.222 89.4813 141.887 89.6128 141.558C89.7444 141.216 89.8825 140.868 90.0271 140.513C90.1718 140.144 90.3362 139.724 90.5203 139.25C90.7571 139.132 91.0201 139.04 91.3095 138.974C91.5988 138.908 91.875 138.875 92.138 138.875C92.5984 138.875 92.9863 139 93.302 139.25C93.6308 139.487 93.7952 139.848 93.7952 140.335C93.7952 140.493 93.7623 140.684 93.6966 140.907C93.6308 141.131 93.4795 141.473 93.2428 141.933C93.0061 142.38 92.6575 142.992 92.1972 143.768C91.75 144.544 91.1385 145.556 90.3625 146.806V150.811ZM94.9197 181.475C94.7356 181.659 94.4659 181.798 94.1108 181.89C93.7689 181.995 93.3546 182.047 92.868 182.047C92.3813 182.047 91.921 181.975 91.487 181.83C91.053 181.686 90.6979 181.337 90.4217 180.785L88.4686 176.8C88.2713 176.392 88.0938 176.011 87.9359 175.656C87.7781 175.287 87.6071 174.866 87.423 174.393L87.3046 174.413C87.3573 175.123 87.3836 175.846 87.3836 176.583C87.3967 177.319 87.4033 178.043 87.4033 178.753V181.811C87.2586 181.85 87.035 181.89 86.7325 181.929C86.4432 181.969 86.1538 181.988 85.8645 181.988C85.5752 181.988 85.3187 181.969 85.0951 181.929C84.8715 181.89 84.6874 181.811 84.5427 181.692C84.398 181.574 84.2862 181.416 84.2073 181.219C84.1284 181.008 84.089 180.739 84.089 180.41V170.546C84.2731 170.283 84.5559 170.086 84.9373 169.954C85.3187 169.823 85.7264 169.757 86.1604 169.757C86.647 169.757 87.1074 169.836 87.5414 169.994C87.9886 170.138 88.3437 170.48 88.6067 171.019L90.5795 175.005C90.7768 175.412 90.9543 175.8 91.1122 176.168C91.27 176.524 91.441 176.938 91.6251 177.411L91.7237 177.392C91.6711 176.681 91.6383 175.971 91.6251 175.261C91.6119 174.551 91.6054 173.841 91.6054 173.13V169.934C91.75 169.895 91.9671 169.856 92.2564 169.816C92.5589 169.777 92.8548 169.757 93.1442 169.757C93.7229 169.757 94.1635 169.862 94.4659 170.073C94.7684 170.27 94.9197 170.691 94.9197 171.335V181.475ZM83.4971 206.892C83.4971 205.866 83.6549 204.959 83.9706 204.17C84.2994 203.381 84.74 202.723 85.2924 202.197C85.8579 201.658 86.5155 201.25 87.2652 200.974C88.028 200.698 88.85 200.56 89.7312 200.56C90.6124 200.56 91.4278 200.698 92.1775 200.974C92.9403 201.25 93.6045 201.658 94.17 202.197C94.7356 202.723 95.1762 203.381 95.4918 204.17C95.8206 204.959 95.985 205.866 95.985 206.892C95.985 207.918 95.8272 208.832 95.5115 209.635C95.1959 210.424 94.7553 211.088 94.1898 211.627C93.6374 212.153 92.9798 212.554 92.2169 212.83C91.4541 213.107 90.6255 213.245 89.7312 213.245C88.8369 213.245 88.0083 213.107 87.2455 212.83C86.4826 212.541 85.825 212.127 85.2727 211.588C84.7203 211.048 84.2862 210.384 83.9706 209.595C83.6549 208.806 83.4971 207.905 83.4971 206.892ZM87.0482 206.892C87.0482 208.089 87.2915 208.983 87.7781 209.575C88.2647 210.167 88.9158 210.463 89.7312 210.463C90.5598 210.463 91.2174 210.167 91.704 209.575C92.1906 208.983 92.434 208.089 92.434 206.892C92.434 205.709 92.1906 204.821 91.704 204.229C91.2305 203.637 90.5795 203.341 89.7509 203.341C88.9355 203.341 88.2779 203.637 87.7781 204.229C87.2915 204.808 87.0482 205.695 87.0482 206.892ZM89.6128 234.854C89.7575 234.788 89.9811 234.716 90.2836 234.637C90.5992 234.545 90.9149 234.499 91.2305 234.499C91.7829 234.499 92.2432 234.585 92.6115 234.756C92.9798 234.913 93.2033 235.15 93.2823 235.466C93.4269 236.005 93.5585 236.511 93.6768 236.985C93.8083 237.445 93.9333 237.892 94.0517 238.326C94.17 238.747 94.2818 239.168 94.387 239.589C94.5054 240.01 94.6172 240.45 94.7224 240.911H94.8211C94.9394 240.108 95.0446 239.346 95.1367 238.622C95.2288 237.886 95.3143 237.169 95.3932 236.472C95.4721 235.762 95.551 235.065 95.6299 234.381C95.7088 233.684 95.7877 232.98 95.8666 232.27C96.3533 231.994 96.8728 231.856 97.4252 231.856C97.9118 231.856 98.3327 231.961 98.6878 232.171C99.0429 232.382 99.2204 232.737 99.2204 233.236C99.2204 233.526 99.1875 233.94 99.1218 234.479C99.0692 235.005 98.9903 235.597 98.885 236.255C98.793 236.912 98.6812 237.603 98.5497 238.326C98.4181 239.05 98.28 239.74 98.1354 240.398C97.9907 241.055 97.8395 241.654 97.6816 242.193C97.537 242.719 97.3989 243.127 97.2673 243.416C97.0701 243.6 96.7478 243.752 96.3007 243.87C95.8535 243.988 95.3932 244.047 94.9197 244.047C94.3015 244.047 93.7755 243.969 93.3414 243.811C92.9206 243.64 92.6641 243.403 92.5721 243.101C92.4011 242.574 92.2169 241.95 92.0197 241.226C91.8224 240.503 91.6119 239.707 91.3884 238.839C91.2042 239.694 91.0135 240.529 90.8162 241.345C90.619 242.16 90.4414 242.851 90.2836 243.416C90.0863 243.6 89.7904 243.752 89.3958 243.87C89.0013 243.988 88.5672 244.047 88.0938 244.047C87.5019 244.047 86.9627 243.969 86.4761 243.811C86.0026 243.64 85.6935 243.403 85.5488 243.101C85.4305 242.864 85.299 242.515 85.1543 242.055C85.0228 241.581 84.8847 241.049 84.74 240.457C84.5953 239.852 84.4441 239.201 84.2862 238.504C84.1416 237.807 84.0035 237.11 83.872 236.413C83.7536 235.716 83.6418 235.038 83.5366 234.381C83.4314 233.71 83.3525 233.098 83.2998 232.546C83.484 232.375 83.7404 232.217 84.0692 232.073C84.398 231.928 84.7531 231.856 85.1346 231.856C85.6343 231.856 86.042 231.967 86.3577 232.191C86.6865 232.401 86.8904 232.763 86.9693 233.276C87.1797 234.617 87.3507 235.735 87.4822 236.63C87.6269 237.524 87.7387 238.261 87.8176 238.839C87.9096 239.405 87.9754 239.845 88.0149 240.161C88.0543 240.477 88.0938 240.727 88.1332 240.911H88.2319C88.3502 240.385 88.462 239.898 88.5672 239.451C88.6725 239.004 88.7777 238.556 88.8829 238.109C89.0013 237.649 89.1196 237.162 89.238 236.649C89.3564 236.123 89.4813 235.525 89.6128 234.854ZM87.4822 263.447C87.4822 263.75 87.4756 264.19 87.4625 264.769C87.4493 265.335 87.423 265.953 87.3836 266.624C87.3441 267.281 87.2915 267.945 87.2257 268.616C87.16 269.274 87.0811 269.846 86.989 270.332C86.9364 270.372 86.8575 270.411 86.7523 270.451C86.647 270.49 86.5353 270.523 86.4169 270.549C86.2985 270.576 86.1801 270.595 86.0618 270.609C85.9434 270.622 85.8382 270.628 85.7461 270.628C85.3647 270.628 85.0425 270.569 84.7795 270.451C84.5296 270.332 84.3717 270.102 84.306 269.76C84.2402 269.458 84.181 268.998 84.1284 268.379C84.089 267.761 84.0495 267.09 84.0101 266.367C83.9706 265.644 83.9377 264.927 83.9114 264.217C83.8983 263.507 83.8917 262.902 83.8917 262.402C84.1547 262.257 84.4506 262.145 84.7795 262.066C85.1214 261.974 85.4568 261.928 85.7856 261.928C86.3248 261.928 86.7391 262.053 87.0285 262.303C87.331 262.553 87.4822 262.934 87.4822 263.447ZM83.8522 273.39C83.8522 272.851 84.0166 272.41 84.3454 272.069C84.6874 271.713 85.1543 271.536 85.7461 271.536C86.338 271.536 86.7983 271.713 87.1271 272.069C87.469 272.41 87.64 272.851 87.64 273.39C87.64 273.93 87.469 274.377 87.1271 274.732C86.7983 275.074 86.338 275.245 85.7461 275.245C85.1543 275.245 84.6874 275.074 84.3454 274.732C84.0166 274.377 83.8522 273.93 83.8522 273.39Z" fill="white"/>
<path opacity="0.5" d="M84.658 33.7383H119.828C120.372 33.7383 120.878 33.912 121.308 34.2082C120.883 33.1056 119.89 32.332 118.733 32.332H85.6115H72.3175C70.7733 32.332 69.5215 33.7103 69.5215 35.4107V56.0636V109.91C69.5215 111.011 70.0482 111.974 70.8377 112.518C70.6954 112.149 70.6163 111.742 70.6163 111.317V54.4484L84.658 33.7383Z" fill="white"/>
<path opacity="0.4" d="M119.963 32.6494C120.146 33.0586 120.251 33.5175 120.251 34.0044V85.1782L101.73 111.582H71.039C70.597 111.582 70.1805 111.466 69.8086 111.265C70.2644 112.284 71.2144 112.988 72.3166 112.988H100.743H118.732C120.276 112.988 121.528 111.609 121.528 109.91V83.3565V35.411C121.529 34.1975 120.889 33.1512 119.963 32.6494Z" fill="#93C9E1"/>
<path d="M98.0816 117.543C98.0816 119.001 97.0087 120.182 95.6852 120.182H95.3655C94.0417 120.182 92.9688 119 92.9688 117.543V117.191C92.9688 115.733 94.0417 114.552 95.3655 114.552H95.6852C97.009 114.552 98.0816 115.734 98.0816 117.191V117.543Z" fill="#007C9D"/>
<path d="M96.3614 117.424C96.3614 117.9 96.0112 118.286 95.5786 118.286H95.4742C95.0419 118.286 94.6914 117.9 94.6914 117.424V117.309C94.6914 116.833 95.0419 116.447 95.4742 116.447H95.5786C96.0109 116.447 96.3614 116.833 96.3614 117.309V117.424Z" fill="#93C9E1"/>
<path d="M100.087 29.9643C100.087 30.3183 99.8898 30.6047 99.6462 30.6047H91.406C91.1624 30.6047 90.9648 30.318 90.9648 29.9643C90.9648 29.6106 91.1624 29.3242 91.406 29.3242H99.6462C99.8898 29.3239 100.087 29.6106 100.087 29.9643Z" fill="#007C9D"/>
<path d="M166.421 129.142C166.421 129.142 162.11 122.286 159.51 116.786C156.91 111.286 151.435 98.4026 149.93 96.2177C148.424 94.0331 145.208 93.3048 144.182 93.4549C144.182 93.4549 140.828 88.608 136.722 91.0191C136.722 91.0191 133.438 88.1812 130.837 91.7975C130.837 91.7975 119.249 79.2654 117.333 77.3066C115.417 75.3479 112.064 77.2566 114.049 81.3249C116.033 85.3932 126.891 100.487 127.37 101.617C127.37 101.617 123.447 109.854 124.884 112.491C126.321 115.128 132.069 118.669 134.464 118.895C136.859 119.121 139.665 118.368 141.17 120.327C142.676 122.286 148.629 130.447 148.629 130.447C148.629 130.447 158.21 132.005 166.421 129.142Z" fill="#F9CC9A"/>
<path d="M114.049 81.3255C116.033 85.3938 126.891 100.487 127.37 101.618C127.37 101.618 127.098 102.192 126.723 103.08C127.513 103.363 128.159 103.417 128.42 103.024C129.287 101.719 122.261 92.7777 119.615 88.659C117.514 85.3888 114.912 81.9543 113.574 80.0322C113.672 80.4348 113.825 80.8654 114.049 81.3255Z" fill="#F9A983"/>
<path d="M113.547 78.3112C113.547 78.3112 115.554 81.074 116.056 81.2245C116.558 81.3752 118.885 80.019 118.839 79.5667C118.793 79.1146 116.832 76.9547 116.467 76.6537C116.102 76.3524 114.049 75.9507 113.547 78.3112Z" fill="#F9E7BA"/>
<path d="M159.509 116.785C159.429 116.614 159.345 116.436 159.259 116.251C159.22 116.168 159.179 116.08 159.139 115.994C159.09 115.888 159.043 115.786 158.992 115.678C158.959 115.606 158.924 115.529 158.891 115.456C158.831 115.326 158.772 115.197 158.71 115.063C158.689 115.017 158.667 114.969 158.647 114.924C158.57 114.757 158.494 114.59 158.415 114.417C158.4 114.382 158.383 114.346 158.367 114.312C157.986 113.471 157.577 112.563 157.151 111.611H157.115C157.115 111.611 160.144 123.061 154.651 123.817C150.717 124.358 145.9 123.278 142.668 122.325C143.282 123.153 143.991 124.115 144.701 125.082C144.726 125.106 144.741 125.126 144.74 125.134C146.166 127.075 147.589 129.023 148.249 129.926C148.283 129.973 148.315 130.017 148.345 130.058C148.405 130.14 148.456 130.21 148.498 130.267C148.58 130.38 148.629 130.446 148.629 130.446C148.629 130.446 158.209 132.004 166.421 129.141C166.421 129.141 162.11 122.285 159.509 116.785Z" fill="#F9A983"/>
<path d="M128.42 103.023C128.42 103.023 132.708 109.05 132.891 110.055C133.073 111.059 131.157 111.662 131.157 110.758C131.157 109.854 130.427 106.037 128.42 103.023Z" fill="#F9A983"/>
<path d="M127.371 105.787C128.055 105.134 128.421 103.325 128.421 103.024C128.421 102.722 127.371 101.617 127.371 101.617C127.371 101.617 125.592 104.832 125.572 106.116C125.896 106.184 126.815 106.318 127.371 105.787Z" fill="#F9E7BA"/>
<path d="M138.844 93.6812C139.139 93.6812 138.24 91.9659 137.505 90.6484C137.246 90.7435 136.984 90.8657 136.723 91.0191C136.723 91.0191 138.365 93.6812 138.844 93.6812Z" fill="#F9A983"/>
<path d="M145.619 95.1381C145.788 95.2415 145.406 94.3088 145.153 93.4577C144.765 93.4145 144.429 93.4192 144.182 93.4553C144.182 93.4553 145.003 94.7614 145.619 95.1381Z" fill="#F9A983"/>
<path d="M133.507 94.2836C133.781 94.1829 132.44 92.2706 131.517 91.0098C131.287 91.23 131.06 91.4887 130.838 91.7977C130.838 91.7977 133.096 94.4341 133.507 94.2836Z" fill="#F9A983"/>
<path d="M123.858 85.644C123.087 86.3431 122.179 86.8244 121.764 87.8963C122.271 87.8841 123.296 86.9886 123.72 86.6387C124.011 86.3979 124.805 85.2021 123.903 85.644" fill="#F9A983"/>
<path d="M124.769 86.5991C123.999 87.2982 123.09 87.7797 122.676 88.8516C123.182 88.8391 124.208 87.9439 124.632 87.5938C124.923 87.353 125.717 86.1571 124.815 86.5991" fill="#F9A983"/>
<path d="M125.865 87.7036C125.095 88.4027 124.186 88.8839 123.771 89.9558C124.278 89.9436 125.303 89.0481 125.727 88.6983C126.019 88.4575 126.813 87.2616 125.911 87.7036" fill="#F9A983"/>
<path d="M39.2578 128.753C39.2578 128.753 50.4372 110.078 54.0351 101.873C57.6328 93.6679 54.7873 82.7507 58.0185 77.3512C60.7263 72.8264 65.6651 64.5235 69.3262 63.3721C73.3096 62.119 73.3096 67.778 72.4101 70.3247C71.5107 72.8711 67.7842 79.096 67.5273 81.0765C67.2702 83.057 69.4296 87.8206 66.6027 93.4793L66.6084 112.961C66.6084 112.961 63.9294 115.879 62.9014 117.718C61.8734 119.558 56.6051 129.744 56.6051 129.744C56.6051 129.744 45.2975 132.007 39.2578 128.753Z" fill="#F9CC9A"/>
<path d="M67.7939 63.77C67.7939 63.77 65.575 66.5989 65.7501 67.1133C65.9252 67.6276 68.8682 68.5997 69.4874 68.4635C70.3633 68.2707 72.2323 64.7343 72.1738 64.2844C72.1151 63.8344 70.6551 61.5845 67.7939 63.77Z" fill="#F9E7BA"/>
<path d="M47.9091 125.264C45.9498 124.866 45.2628 121.801 45.0328 118.852C44.7199 119.401 44.4118 119.937 44.1109 120.461C44.1025 120.476 44.0938 120.491 44.0852 120.506C43.9991 120.655 43.9133 120.804 43.828 120.952C43.8112 120.981 43.7947 121.01 43.7777 121.039C43.7051 121.165 43.6326 121.291 43.5609 121.415C43.5287 121.471 43.4967 121.526 43.4648 121.582C43.405 121.685 43.3454 121.788 43.2864 121.89C43.2501 121.953 43.2144 122.014 43.1781 122.077C43.1267 122.166 43.0753 122.255 43.0244 122.342C42.9844 122.412 42.9448 122.48 42.9048 122.548C42.8563 122.632 42.8079 122.716 42.7597 122.799C42.7172 122.872 42.675 122.944 42.633 123.016C42.5932 123.085 42.5534 123.153 42.5139 123.221C42.4612 123.312 42.4086 123.402 42.3567 123.491C42.3299 123.537 42.3031 123.583 42.2768 123.628C42.2159 123.733 42.1558 123.836 42.096 123.938C42.0776 123.97 42.0589 124.002 42.0403 124.034C41.9775 124.141 41.9158 124.247 41.8546 124.352C41.8394 124.377 41.8245 124.403 41.8099 124.429C41.7482 124.534 41.6876 124.637 41.6278 124.74C41.611 124.769 41.5942 124.797 41.5777 124.825C41.5233 124.918 41.4697 125.01 41.4169 125.1C41.3926 125.142 41.3685 125.183 41.3444 125.223C41.2954 125.307 41.2472 125.389 41.1996 125.47C41.1823 125.5 41.1647 125.529 41.1476 125.559C41.091 125.655 41.0358 125.75 40.9814 125.841C40.9741 125.854 40.9668 125.866 40.9592 125.88C40.9016 125.977 40.8453 126.073 40.7901 126.167C40.7803 126.184 40.7708 126.2 40.7611 126.216C40.7064 126.309 40.6531 126.399 40.6011 126.488C40.5963 126.496 40.5917 126.504 40.5871 126.512C40.478 126.696 40.374 126.872 40.2766 127.037C40.2563 127.072 40.2365 127.105 40.2168 127.139C40.183 127.196 40.1497 127.252 40.1174 127.306C40.1074 127.323 40.098 127.339 40.0879 127.356C40.0484 127.423 40.01 127.488 39.9729 127.55C39.9656 127.562 39.9588 127.573 39.9521 127.585C39.8684 127.727 39.7913 127.856 39.7217 127.974C39.7182 127.98 39.715 127.985 39.7114 127.991C39.6779 128.048 39.6451 128.102 39.6151 128.153C39.6148 128.154 39.6148 128.154 39.6143 128.154C39.4337 128.458 39.3179 128.652 39.2768 128.721C39.2654 128.74 39.2578 128.753 39.2578 128.753C45.2972 132.007 56.6048 129.743 56.6048 129.743C56.6048 129.743 61.8731 119.557 62.9011 117.718C62.9834 117.57 63.0767 117.416 63.1774 117.258C56.4755 125.641 51.1117 125.914 47.9091 125.264Z" fill="#F9A983"/>
<path d="M65.4245 72.8261C64.6355 70.9838 62.9054 70.8071 62.0986 70.8321C62.0539 70.8983 62.0092 70.9645 61.9648 71.0306C63.5645 71.8918 65.4245 72.8261 65.4245 72.8261Z" fill="#F9A983"/>
<path d="M64.4913 73.9288C63.7608 72.6373 62.0494 72.2567 61.2263 72.1465C61.1808 72.2165 61.135 72.2862 61.0898 72.356C62.5246 73.4139 64.4913 73.9288 64.4913 73.9288Z" fill="#F9A983"/>
<path d="M63.4486 75.2217C62.754 73.8223 61.2313 73.5359 60.3681 73.4912C60.3113 73.5815 60.2552 73.6715 60.1992 73.7612C61.6901 74.5801 63.4486 75.2217 63.4486 75.2217Z" fill="#F9A983"/>
<path d="M66.6023 95.7128L66.6018 93.4805C66.6018 93.4805 66.0542 95.3895 64.4121 97.2981C64.4121 97.2981 65.5367 96.7531 66.6023 95.7128Z" fill="#F9A983"/>
<path d="M147.481 63.7861L155.749 56.3695C154.961 54.2361 155.484 51.6995 157.191 50.1684C159.244 48.327 162.244 48.6304 163.967 50.8183C163.872 50.6592 163.769 50.5027 163.658 50.3519C161.924 48.0091 158.793 47.6568 156.665 49.5658C154.917 51.133 154.392 53.7369 155.219 55.9159L147.067 63.2276C146.349 63.8716 146.241 65.0347 146.826 65.825C146.896 65.9207 146.975 66.0062 147.058 66.0828C146.69 65.319 146.85 64.3526 147.481 63.7861Z" fill="#F15A29"/>
<path d="M163.366 58.5155C165.458 56.6384 165.773 53.2486 164.068 50.9442C164.036 50.8998 164 50.8616 163.967 50.8199C162.244 48.632 159.245 48.3286 157.191 50.17C155.484 51.7011 154.961 54.2374 155.749 56.3711L147.481 63.7877C146.85 64.3542 146.691 65.3206 147.058 66.0841C147.108 66.1884 147.169 66.2897 147.24 66.3854C147.446 66.6634 147.71 66.8562 147.997 66.9644C148.014 66.9945 148.029 67.0246 148.05 67.0523L148.928 68.2398C149.142 68.5295 149.529 68.573 149.792 68.3373C150.055 68.1015 150.094 67.6754 149.88 67.3866L149.432 66.7811C149.436 66.7784 149.441 66.7748 149.445 66.7719L149.398 66.7081C149.269 66.5347 149.292 66.2796 149.451 66.1383C149.608 65.9971 149.841 66.0227 149.968 66.1964L150.546 66.9781C150.767 67.17 151.087 67.1759 151.314 66.9721C151.576 66.7361 151.616 66.3109 151.402 66.0215L150.963 65.4276L150.908 65.3534C150.78 65.1799 150.803 64.9243 150.961 64.7833C151.119 64.6418 151.351 64.6674 151.479 64.8411L151.534 64.9153L151.973 65.5089C152.187 65.7986 152.573 65.8421 152.836 65.6061C153.099 65.3704 153.139 64.9448 152.925 64.6558L152.486 64.0619L158.007 59.1088C159.688 60.0782 161.802 59.9179 163.366 58.5155ZM157.057 57.2621C155.58 55.2658 155.852 52.3296 157.665 50.704C159.478 49.0781 162.145 49.3779 163.621 51.3736C165.098 53.3696 164.826 56.3061 163.013 57.9317C161.2 59.5579 158.533 59.2575 157.057 57.2621Z" fill="#F7BD33"/>
<path d="M163.013 57.9315C164.826 56.3056 165.099 53.3694 163.622 51.3734C162.145 49.3777 159.478 49.0779 157.665 50.7038C155.853 52.3294 155.58 55.2659 157.057 57.2619C158.533 59.2573 161.2 59.5577 163.013 57.9315ZM160.633 53.9663C160.091 53.2335 160.191 52.1557 160.857 51.5588C161.522 50.9616 162.501 51.0724 163.044 51.8049C163.586 52.5374 163.486 53.6156 162.82 54.2122C162.154 54.8094 161.175 54.6994 160.633 53.9663Z" fill="#F79A33"/>
<path d="M148.659 65.8488C148.494 65.9966 148.252 65.9689 148.118 65.7877C147.984 65.6062 148.008 65.3398 148.173 65.1917L155.838 58.3169C156.003 58.1691 156.245 58.1965 156.379 58.3777C156.514 58.5591 156.489 58.8258 156.324 58.9734L148.659 65.8488Z" fill="#F79A33"/>
<path d="M155.939 71.6148L161.138 61.3615C159.689 59.699 159.326 57.1294 160.398 55.013C161.689 52.4668 164.578 51.5299 166.913 52.8632C166.771 52.7538 166.624 52.6504 166.469 52.5554C164.072 51.0823 161.045 52.0273 159.707 54.6667C158.608 56.8334 158.993 59.4672 160.492 61.1556L155.367 71.2641C154.916 72.1542 155.205 73.2792 156.015 73.7762C156.112 73.8361 156.213 73.8838 156.316 73.9208C155.718 73.3611 155.542 72.3974 155.939 71.6148Z" fill="#F15A29"/>
<path d="M168.935 60.2606C170.25 57.6653 169.407 54.3867 167.049 52.9379C167.005 52.9107 166.958 52.8899 166.913 52.864C164.578 51.5307 161.689 52.4676 160.399 55.0137C159.326 57.1304 159.689 59.7001 161.138 61.3623L155.939 71.6156C155.543 72.3982 155.719 73.3616 156.316 73.9215C156.399 73.9981 156.489 74.0679 156.587 74.1275C156.871 74.3027 157.181 74.3748 157.484 74.3581C157.509 74.3796 157.535 74.401 157.563 74.4189L158.777 75.1651C159.073 75.3469 159.447 75.2306 159.613 74.9043C159.778 74.5786 159.672 74.1674 159.376 73.9853L158.756 73.6048C158.76 73.6003 158.762 73.5952 158.765 73.5908L158.7 73.5508C158.523 73.4421 158.459 73.195 158.558 72.9998C158.657 72.8037 158.882 72.7337 159.059 72.8434L159.858 73.3345C160.128 73.4233 160.427 73.299 160.57 73.0171C160.735 72.6917 160.629 72.2799 160.333 72.0981L159.725 71.725L159.65 71.6785C159.473 71.5691 159.409 71.3224 159.508 71.1266C159.607 70.9317 159.832 70.8614 160.009 70.9707L160.085 71.0172L160.692 71.39C160.988 71.5721 161.362 71.4556 161.527 71.1296C161.692 70.8039 161.586 70.392 161.29 70.2105L160.683 69.8374L164.155 62.99C166.041 63.2072 167.952 62.1994 168.935 60.2606ZM162.651 61.6594C160.609 60.4048 159.878 57.5649 161.018 55.3171C162.157 53.0696 164.736 52.2641 166.778 53.519C168.82 54.7738 169.551 57.6135 168.411 59.8613C167.271 62.1097 164.692 62.9143 162.651 61.6594Z" fill="#F7BD33"/>
<path d="M168.411 59.8612C169.551 57.6133 168.82 54.7737 166.778 53.5188C164.737 52.2639 162.158 53.0691 161.018 55.317C159.879 57.5651 160.609 60.4047 162.651 61.6593C164.693 62.9142 167.272 62.1096 168.411 59.8612ZM164.871 57.1434C164.121 56.6827 163.853 55.64 164.271 54.8151C164.689 53.9897 165.636 53.6946 166.385 54.1551C167.135 54.6158 167.403 55.6585 166.985 56.4836C166.567 57.3085 165.62 57.6041 164.871 57.1434Z" fill="#F79A33"/>
<path d="M157.725 73.0531C157.622 73.2573 157.388 73.3303 157.202 73.2158C157.016 73.102 156.949 72.8442 157.053 72.6401L161.872 63.1354C161.976 62.931 162.21 62.8577 162.396 62.9718C162.581 63.0859 162.648 63.344 162.544 63.5481L157.725 73.0531Z" fill="#F79A33"/>
<path d="M161.051 51.4102C161.094 51.8611 161.193 52.3081 161.343 52.7417C161.674 52.5065 162.027 52.32 162.394 52.1776C162.295 51.8655 162.234 51.5455 162.206 51.2234C161.821 51.1208 161.407 51.1795 161.051 51.4102Z" fill="#F15A29"/>
<path d="M168.935 55.027C170.952 53.2574 171.382 50.0426 169.864 47.7069C168.296 45.2949 165.248 44.7394 163.057 46.466C162.325 47.0435 161.786 47.8049 161.445 48.6501C161.81 48.7907 162.163 48.9755 162.494 49.2103C162.752 48.552 163.168 47.9581 163.736 47.5102C165.403 46.1963 167.722 46.6189 168.916 48.4543C170.06 50.2143 169.751 52.631 168.254 53.9855C168.19 54.0436 168.127 54.1029 168.058 54.1565C167.963 54.2313 167.866 54.2984 167.768 54.3615C167.506 54.5308 167.23 54.658 166.948 54.7498C166.355 54.9429 165.735 54.9662 165.142 54.8303C164.943 54.7844 164.747 54.7233 164.557 54.6425C164.508 54.6223 164.463 54.5984 164.416 54.5764C164.362 54.65 164.311 54.7284 164.268 54.8139C164.108 55.1298 164.049 55.4775 164.079 55.8122C164.156 55.8462 164.233 55.8781 164.312 55.9076C164.503 55.9797 164.699 56.0378 164.896 56.0831C165.633 56.2532 166.401 56.2365 167.142 56.0211C167.594 55.8897 168.034 55.685 168.449 55.4027C168.545 55.3378 168.643 55.2737 168.737 55.2001C168.806 55.1456 168.869 55.0851 168.935 55.027Z" fill="#F15A29"/>
<path d="M193.391 129.545C193.391 130.559 192.472 131.381 191.338 131.381H13.6917C12.5579 131.381 11.6387 130.559 11.6387 129.545C11.6387 128.53 12.5579 127.708 13.6917 127.708H191.338C192.472 127.708 193.391 128.53 193.391 129.545Z" fill="#007C9D"/>
<path d="M173.703 79.0259C170.172 76.2592 165.273 77.1684 162.761 81.0561C160.248 84.9435 160.558 96.5915 161.748 97.5236C162.938 98.4552 173.035 94.9608 175.547 91.0734C178.059 87.1857 177.234 81.7919 173.703 79.0259Z" fill="#F15A29"/>
<path d="M173.173 89.2137C171.594 91.6576 168.513 92.2294 166.293 90.49C164.072 88.7506 163.553 85.3587 165.133 82.9142C166.713 80.4695 169.794 79.8979 172.014 81.6379C174.234 83.3773 174.754 86.7689 173.173 89.2137Z" fill="#F7BD33"/>
<path opacity="0.4" d="M160.854 91.6699C160.873 94.6434 161.226 97.1144 161.748 97.5235C162.842 98.3809 171.481 95.4876 174.808 91.99C171.885 93.3036 167.355 94.0092 160.854 91.6699Z" fill="#93C9E1"/>
<path d="M141.033 67.1704C141.492 67.8314 141.112 68.3824 140.512 68.8881C139.911 69.3935 139.317 69.662 138.858 69.0011L136.756 65.8256C136.297 65.1646 136.411 64.2191 137.012 63.7133C137.612 63.2076 138.472 63.334 138.93 63.9947L141.033 67.1704Z" fill="#33314F"/>
<path d="M136.601 63.1192C135.92 63.6732 135.198 64.1229 134.453 64.4781C134.482 64.5273 134.509 64.577 134.541 64.625L135.568 66.1564C136.378 67.3645 137.753 67.2253 138.851 66.3334C139.948 65.4418 140.352 64.1348 139.542 62.9264L138.516 61.395C138.483 61.347 138.448 61.3032 138.414 61.2588C137.886 61.9382 137.283 62.5655 136.601 63.1192Z" fill="#007C9D"/>
<path d="M152.214 81.2965C152.954 82.3988 152.613 84.0295 151.469 84.9596C150.324 85.8899 148.809 85.7683 148.069 84.6657L138.966 71.0891C138.226 69.9865 138.567 68.3565 139.712 67.4261C140.856 66.4958 142.371 66.6174 143.111 67.72L152.214 81.2965Z" fill="#007C9D"/>
<path d="M143.576 68.4071L139.432 71.7764L140.245 72.9885L144.389 69.6193L143.576 68.4071Z" fill="#F7BD33"/>
<path d="M147.995 84.5549L152.099 81.1241L151.279 79.9014L147.182 83.3421L147.995 84.5549Z" fill="#F7BD33"/>
<path opacity="0.4" d="M139.712 67.4261C139.46 67.6312 139.249 67.871 139.078 68.1303C140.055 67.7632 141.103 68.0236 141.679 68.8833L150.783 82.4599C151.359 83.32 151.277 84.4997 150.671 85.4188C150.946 85.3154 151.216 85.1646 151.468 84.9596C152.613 84.0295 152.953 82.3988 152.214 81.2965L143.111 67.72C142.372 66.6174 140.856 66.4958 139.712 67.4261Z" fill="#93C9E1"/>
<path d="M151.278 79.9014L149.863 81.0895L150.681 82.3092L152.098 81.1241L151.278 79.9014Z" fill="#F1A429"/>
<path opacity="0.5" d="M144.836 76.1848C145.015 76.4524 144.964 76.8297 144.72 77.0276C144.477 77.2254 144.134 77.1685 143.955 76.9003L139.728 70.5964C139.549 70.3288 139.6 69.9516 139.844 69.7537C140.087 69.5558 140.43 69.6127 140.609 69.8806L144.836 76.1848Z" fill="white"/>
<path opacity="0.5" d="M139.281 44.8162C143.232 50.7082 142.096 59.0102 136.745 63.3598C131.393 67.7094 123.853 66.459 119.902 60.5673C115.951 54.6755 117.087 46.3735 122.438 42.0236C127.79 37.674 135.331 38.9244 139.281 44.8162Z" fill="white"/>
<path opacity="0.5" d="M139.281 44.8162C143.232 50.7082 142.096 59.0102 136.745 63.3598C131.393 67.7094 123.853 66.459 119.902 60.5673C115.951 54.6755 117.087 46.3735 122.438 42.0236C127.79 37.674 135.331 38.9244 139.281 44.8162Z" fill="white"/>
<path opacity="0.4" d="M123.182 41.4692C127.428 40.172 132.147 41.7893 134.92 45.9252C138.512 51.2812 137.48 58.8286 132.615 62.7828C130.441 64.5496 127.87 65.2973 125.37 65.109C129.057 66.6234 133.342 66.1249 136.744 63.3597C142.096 59.0101 143.231 50.7081 139.28 44.8161C135.509 39.1925 128.469 37.8015 123.182 41.4692Z" fill="#93C9E1"/>
<path d="M121.463 40.5694C115.382 45.512 114.091 54.9467 118.581 61.6416C123.07 68.3368 131.639 69.7576 137.72 64.8147C143.801 59.8721 145.091 50.4377 140.602 43.7425C136.113 37.0476 127.544 35.6271 121.463 40.5694ZM135.85 62.0266C131.168 65.8327 124.57 64.739 121.113 59.5833C117.656 54.4279 118.65 47.1633 123.332 43.3575C128.015 39.5517 134.613 40.6457 138.069 45.8011C141.526 50.9565 140.533 58.2211 135.85 62.0266Z" fill="#007C9D"/>
<path d="M138.831 45.1824C135.064 39.5639 127.874 38.3719 122.77 42.5195C117.667 46.6673 116.584 54.5843 120.352 60.2028C124.119 65.8213 131.309 67.0136 136.413 62.8657C141.516 58.7179 142.599 50.8009 138.831 45.1824ZM135.851 62.0268C131.168 65.8329 124.57 64.7392 121.113 59.5835C117.656 54.4281 118.65 47.1635 123.332 43.3577C128.015 39.552 134.613 40.6459 138.069 45.8013C141.526 50.9567 140.533 58.2214 135.851 62.0268Z" fill="#93C9E1"/>
<path opacity="0.5" d="M121.023 49.6227C121.023 49.6227 119.839 54.7063 121.795 56.8623C123.751 59.0183 123.913 51.3949 124.23 49.0768C124.547 46.7592 122.006 46.0145 121.023 49.6227Z" fill="white"/>
<path d="M143.564 68.4107L142.133 69.5742L142.946 70.7862L144.377 69.6227L143.564 68.4107Z" fill="#F1A429"/>
<path d="M29.2975 82.8948C28.2933 82.8447 27.156 83.1248 25.8857 83.7351L25.6494 83.8484L24.0758 82.0005C24.4915 81.5877 24.9238 81.259 25.3747 81.0212C25.8606 80.765 26.2896 80.6085 26.6607 80.5525C26.6956 80.2134 26.6755 79.8656 26.6011 79.5101C26.5272 79.1549 26.3521 78.8154 26.0768 78.4918C25.8018 78.1685 25.4846 77.9638 25.1262 77.8782C24.7676 77.7924 24.3876 77.8109 23.9867 77.9328C23.5864 78.0546 23.1661 78.2719 22.7276 78.5842C22.4215 78.802 22.1159 79.0562 21.8114 79.3411L21.0034 78.3923C20.7818 78.1315 20.4093 78.1184 20.1725 78.3628C19.9354 78.6074 19.9235 79.0169 20.1457 79.2776L20.9599 80.2339C20.0529 81.3103 19.5437 82.4186 19.4366 83.5584C19.3126 84.8776 19.701 86.0658 20.601 87.1225C21.0671 87.6699 21.5348 88.0573 22.0046 88.285C22.4743 88.5127 22.9574 88.6271 23.4541 88.6283C23.9505 88.6301 24.4634 88.5389 24.9925 88.3547C25.5217 88.1714 26.0882 87.9423 26.6934 87.6684L27.1216 87.47L28.8382 89.4859C28.8033 89.5217 28.7691 89.5559 28.7323 89.5935C28.2457 90.0956 27.713 90.4592 27.1327 90.6839C26.5529 90.9089 26.0043 91.0308 25.4876 91.0495C25.4018 91.3958 25.3809 91.7856 25.4256 92.218C25.4705 92.6513 25.6465 93.0476 25.9534 93.4082C26.2501 93.7563 26.5957 93.978 26.9906 94.0724C27.3855 94.1672 27.8091 94.1505 28.2616 94.0215C28.7142 93.8936 29.1803 93.6695 29.6602 93.3492C30.1398 93.0297 30.6129 92.6292 31.079 92.1477C31.0836 92.1426 31.0879 92.1378 31.0926 92.1331L31.6999 92.8462C31.9221 93.1072 32.2943 93.1206 32.5311 92.876C32.7682 92.6316 32.7804 92.2219 32.5579 91.9608L31.9035 91.1926C32.6984 90.1525 33.1461 89.114 33.2403 88.0776C33.3632 86.7238 32.9748 85.5186 32.0751 84.461C31.2276 83.4669 30.3014 82.9448 29.2975 82.8948ZM23.85 84.6273C23.5875 84.6762 23.3772 84.6074 23.2186 84.4208C23.0175 84.1845 22.9815 83.854 23.1098 83.4291C23.1506 83.2938 23.2161 83.1501 23.3009 82.9991L24.4902 84.3961C24.2436 84.5147 24.0287 84.5946 23.85 84.6273ZM29.736 88.355C29.7132 88.4107 29.6859 88.4656 29.655 88.521L28.2286 86.8459C28.3142 86.7872 28.3983 86.7381 28.4868 86.7035C28.9586 86.5193 29.4547 86.6287 29.6664 86.8778C29.8783 87.1261 29.9736 87.7706 29.736 88.355Z" fill="#F7BD33"/>
<path d="M27.5429 87.9655L28.8378 89.4862C28.8029 89.522 28.7687 89.5562 28.7319 89.5938C28.2453 90.0959 27.7126 90.4595 27.1323 90.6842C26.5525 90.9091 26.0039 91.031 25.4872 91.0498C25.4014 91.3961 25.3805 91.7859 25.4252 92.2183C25.4701 92.6516 25.6461 93.0479 25.953 93.4085C26.2497 93.7565 26.5953 93.9782 26.9902 94.0727C27.3851 94.1675 27.8087 94.1508 28.2612 94.0218C28.7138 93.8939 29.1799 93.6698 29.6598 93.3495C30.1394 93.03 30.6125 92.6295 31.0786 92.1479C31.0832 92.1429 31.0876 92.1381 31.0922 92.1333L31.6995 92.8464C31.9217 93.1075 32.2939 93.1209 32.5307 92.8763C32.7678 92.6319 32.78 92.2221 32.5575 91.9611L31.9031 91.1928C32.698 90.1528 33.1457 89.1143 33.2399 88.0778C33.3628 86.724 32.9744 85.5189 32.0747 84.4613C31.316 83.5706 30.4932 83.0619 29.6084 82.9287C29.1574 84.6959 28.4675 86.3968 27.5429 87.9655ZM29.7361 88.355C29.7134 88.4107 29.686 88.4655 29.6552 88.521L28.2288 86.8459C28.3143 86.7872 28.3985 86.738 28.487 86.7035C28.9588 86.5193 29.4549 86.6287 29.6665 86.8778C29.8785 87.126 29.9738 87.7706 29.7361 88.355Z" fill="#F1A429"/>
<path d="M58.9014 33.7852L60.3048 35.4641L62.3391 35.9001L60.8139 37.4452L60.4179 39.685L59.0148 38.0057L56.9805 37.5698L58.5057 36.0249L58.9014 33.7852Z" fill="#E7EFE7"/>
<path d="M19.1514 67.6348L20.5545 69.3137L22.5889 69.7497L21.0639 71.2948L20.6679 73.5346L19.2645 71.8553L17.2305 71.4194L18.7557 69.8745L19.1514 67.6348Z" fill="white"/>
<path d="M182.282 64.8389L181.896 67.0804L182.793 69.1375L180.756 68.7129L178.888 69.7004L179.274 67.4586L178.377 65.4018L180.413 65.8264L182.282 64.8389Z" fill="white"/>
<path d="M150.529 43.0566L150.389 45.3331L151.502 47.2575L149.435 47.1035L147.687 48.3297L147.826 46.053L146.713 44.1288L148.781 44.2826L150.529 43.0566Z" fill="#E7EFE7"/>
<path d="M134.803 77.4658L135.007 80.3558L136.728 82.5494L134.104 82.7744L132.112 84.6691L131.907 81.7794L130.186 79.5858L132.811 79.3608L134.803 77.4658Z" fill="#E7EFE7"/>
<path d="M46.6754 43.6549C46.6754 44.6535 45.94 45.4632 45.033 45.4632C44.126 45.4632 43.3906 44.6535 43.3906 43.6549C43.3906 42.6563 44.126 41.8467 45.033 41.8467C45.94 41.8467 46.6754 42.6563 46.6754 43.6549Z" fill="white"/>
<path d="M133.72 28.5866C133.72 29.5852 132.984 30.3946 132.078 30.3946C131.171 30.3946 130.436 29.5849 130.436 28.5866C130.436 27.588 131.171 26.7783 132.078 26.7783C132.984 26.7783 133.72 27.588 133.72 28.5866Z" fill="white"/>
<path d="M192.042 79.0938C192.042 80.5087 191 81.6557 189.716 81.6557C188.43 81.6557 187.389 80.5087 187.389 79.0938C187.389 77.6792 188.43 76.5322 189.716 76.5322C191 76.5322 192.042 77.6792 192.042 79.0938Z" fill="white"/>
<path d="M22.5875 96.5457C22.5875 97.6277 21.7909 98.5044 20.8084 98.5044C19.8259 98.5044 19.0293 97.6277 19.0293 96.5457C19.0293 95.4636 19.8259 94.5869 20.8084 94.5869C21.7909 94.5869 22.5875 95.4639 22.5875 96.5457Z" fill="#E7EFE7"/>
<path d="M157.146 92.653C157.146 93.6516 156.41 94.461 155.503 94.461C154.597 94.461 153.861 93.6513 153.861 92.653C153.861 91.6541 154.597 90.8447 155.503 90.8447C156.41 90.8447 157.146 91.6541 157.146 92.653Z" fill="#E7EFE7"/>
<path d="M183.831 93.5589C183.831 94.5578 183.096 95.3672 182.189 95.3672C181.282 95.3672 180.547 94.5575 180.547 93.5589C180.547 92.5603 181.282 91.751 182.189 91.751C183.096 91.751 183.831 92.5603 183.831 93.5589Z" fill="#E7EFE7"/>
</g>
<defs>
<clipPath id="clip0_1649_7359">
<rect width="203" height="149" fill="white"/>
</clipPath>
</defs>
</svg>
