<svg width="33" height="33" viewBox="0 0 33 33" fill="none" xmlns="http://www.w3.org/2000/svg">
<path d="M15.0863 3.83313C15.4613 3.45819 15.97 3.24756 16.5003 3.24756C17.0306 3.24756 17.5392 3.45819 17.9143 3.83313L22.5003 8.41913V5.83313C22.5003 5.56791 22.6056 5.31356 22.7932 5.12602C22.9807 4.93849 23.2351 4.83313 23.5003 4.83313H25.5003C25.7655 4.83313 26.0199 4.93849 26.2074 5.12602C26.3949 5.31356 26.5003 5.56791 26.5003 5.83313V12.4191L31.2083 17.1251C31.3013 17.2181 31.375 17.3285 31.4253 17.45C31.4757 17.5714 31.5015 17.7016 31.5015 17.8331C31.5015 17.9646 31.4757 18.0948 31.4253 18.2163C31.375 18.3378 31.3013 18.4482 31.2083 18.5411C31.1153 18.6341 31.0049 18.7079 30.8835 18.7582C30.762 18.8085 30.6318 18.8344 30.5003 18.8344C30.3688 18.8344 30.2386 18.8085 30.1171 18.7582C29.9956 18.7079 29.8853 18.6341 29.7923 18.5411L16.5003 5.24713L6.50029 15.2471V27.8331C6.50029 28.0983 6.60564 28.3527 6.79318 28.5402C6.98072 28.7278 7.23507 28.8331 7.50029 28.8331H15.5003C15.7655 28.8331 16.0199 28.9385 16.2074 29.126C16.3949 29.3136 16.5003 29.5679 16.5003 29.8331C16.5003 30.0983 16.3949 30.3527 16.2074 30.5402C16.0199 30.7278 15.7655 30.8331 15.5003 30.8331H7.50029C6.70464 30.8331 5.94158 30.5171 5.37897 29.9545C4.81636 29.3918 4.50029 28.6288 4.50029 27.8331V17.2471L3.20829 18.5411C3.11531 18.6341 3.00493 18.7079 2.88345 18.7582C2.76197 18.8085 2.63177 18.8344 2.50029 18.8344C2.3688 18.8344 2.2386 18.8085 2.11712 18.7582C1.99564 18.7079 1.88526 18.6341 1.79229 18.5411C1.69931 18.4482 1.62556 18.3378 1.57524 18.2163C1.52492 18.0948 1.49902 17.9646 1.49902 17.8331C1.49902 17.7016 1.52492 17.5714 1.57524 17.45C1.62556 17.3285 1.69931 17.2181 1.79229 17.1251L15.0863 3.83313Z" fill="#1877F2"/>
<path d="M23.2237 15.3483C22.9991 15.3483 22.771 15.3636 22.5392 15.3903C21.3058 15.5333 20.2291 16.0174 19.4698 16.7115C18.7069 17.406 18.2506 18.3357 18.3646 19.3197C18.4645 20.1967 18.9992 20.9311 19.7585 21.4373C19.8512 21.2163 19.9689 21.0131 20.0865 20.8491C19.4591 20.4355 19.0741 19.8758 19.0028 19.2448C18.9208 18.5425 19.2416 17.8338 19.8869 17.2434C20.5357 16.6527 21.5018 16.2074 22.6177 16.0784C23.7335 15.949 24.7781 16.1615 25.5445 16.5882C26.3075 17.0153 26.7816 17.6331 26.8636 18.3322C26.942 19.0202 26.6426 19.7154 26.0294 20.2929C25.6502 20.056 25.2143 19.9255 24.7674 19.915H24.6889C24.5071 19.9186 24.3289 19.94 24.1435 19.9792C22.8066 20.2894 21.976 21.6013 22.2826 22.9275C22.4715 23.7474 23.0526 24.3749 23.787 24.6565L25.2023 30.7954L26.8779 31.8328L27.9295 30.168L27.0918 29.6511L27.6194 28.8168L26.7816 28.2964L27.3057 27.4657L26.4679 26.9452L26.9955 26.111L26.5142 24.0291C27.0525 23.4551 27.2985 22.6351 27.1096 21.8116C27.0133 21.3945 26.8172 21.0273 26.5463 20.7279C27.2201 20.0505 27.6087 19.1771 27.5017 18.2609C27.3876 17.2787 26.7317 16.477 25.8297 15.9754C25.0989 15.5672 24.197 15.3419 23.2237 15.3483ZM22.5036 20.1789C21.5803 20.2181 20.7247 20.7778 20.3503 21.6833C20.0259 22.464 20.1364 23.3125 20.5714 23.972L18.1543 29.783L18.9136 31.6011L20.7389 30.856L20.3575 29.9469L21.2701 29.5762L20.8922 28.6671L21.8049 28.2964L21.4234 27.3873L22.336 27.013L23.1489 25.0593C22.418 24.6494 21.8583 23.9471 21.6551 23.0701C21.4091 21.9899 21.7656 20.9097 22.5036 20.1789ZM24.5713 20.4355C24.8886 20.432 25.188 20.5603 25.4055 20.7706C25.2094 20.8954 24.992 21.0059 24.7638 21.1058C24.7068 21.0844 24.6462 21.0772 24.582 21.0772C24.5606 21.0772 24.5428 21.0772 24.525 21.0808C24.2754 21.1093 24.09 21.2983 24.0579 21.5336C24.0508 21.5692 24.0508 21.6049 24.0508 21.6369C24.0544 21.6476 24.0544 21.6619 24.0544 21.6726C24.09 21.972 24.3503 22.1788 24.6497 22.1432C24.8921 22.1146 25.0775 21.9328 25.1132 21.7047C25.3342 21.6049 25.541 21.4943 25.7371 21.3696C25.7442 21.4052 25.7513 21.4409 25.7549 21.4765C25.8297 22.1182 25.3627 22.7064 24.721 22.7813C24.0829 22.8562 23.4911 22.3892 23.4198 21.7475C23.3449 21.1058 23.812 20.5175 24.4537 20.4427C24.4929 20.4391 24.5321 20.4355 24.5713 20.4355Z" fill="#1877F2"/>
</svg>
