<svg width="32" height="32" viewBox="0 0 32 32" fill="none" xmlns="http://www.w3.org/2000/svg">
<path d="M5.33331 0H27C28.3261 0 29.5978 0.526784 30.5355 1.46447C31.4732 2.40215 32 3.67392 32 5V26.6667C32 27.9928 31.4732 29.2645 30.5355 30.2022C29.5978 31.1399 28.3261 31.6667 27 31.6667H5.33331C4.00723 31.6667 2.73546 31.1399 1.79778 30.2022C0.860097 29.2645 0.333313 27.9928 0.333313 26.6667V5C0.333313 3.67392 0.860097 2.40215 1.79778 1.46447C2.73546 0.526784 4.00723 0 5.33331 0ZM5.33331 1.66667C4.44926 1.66667 3.60141 2.01786 2.97629 2.64298C2.35117 3.2681 1.99998 4.11595 1.99998 5V24.3167L9.14998 17.15L13.3166 21.3167L21.65 12.9833L30.3333 21.6667V5C30.3333 4.11595 29.9821 3.2681 29.357 2.64298C28.7319 2.01786 27.884 1.66667 27 1.66667H5.33331ZM13.3166 23.6833L9.14998 19.5167L1.99998 26.6667C1.99998 27.5507 2.35117 28.3986 2.97629 29.0237C3.60141 29.6488 4.44926 30 5.33331 30H27C27.884 30 28.7319 29.6488 29.357 29.0237C29.9821 28.3986 30.3333 27.5507 30.3333 26.6667V24.0167L21.65 15.35L13.3166 23.6833ZM9.49998 5C10.605 5 11.6649 5.43899 12.4463 6.22039C13.2277 7.00179 13.6666 8.0616 13.6666 9.16667C13.6666 10.2717 13.2277 11.3315 12.4463 12.1129C11.6649 12.8943 10.605 13.3333 9.49998 13.3333C8.39491 13.3333 7.3351 12.8943 6.5537 12.1129C5.7723 11.3315 5.33331 10.2717 5.33331 9.16667C5.33331 8.0616 5.7723 7.00179 6.5537 6.22039C7.3351 5.43899 8.39491 5 9.49998 5ZM9.49998 6.66667C8.83694 6.66667 8.20105 6.93006 7.73221 7.3989C7.26337 7.86774 6.99998 8.50363 6.99998 9.16667C6.99998 9.82971 7.26337 10.4656 7.73221 10.9344C8.20105 11.4033 8.83694 11.6667 9.49998 11.6667C10.163 11.6667 10.7989 11.4033 11.2677 10.9344C11.7366 10.4656 12 9.82971 12 9.16667C12 8.50363 11.7366 7.86774 11.2677 7.3989C10.7989 6.93006 10.163 6.66667 9.49998 6.66667Z" fill="#B5B5B5"/>
</svg>
