<svg width="206" height="32" viewBox="0 0 206 32" fill="none" xmlns="http://www.w3.org/2000/svg">
<path d="M202.768 1C204.149 1 205.268 2.11929 205.268 3.5V28.0391C205.268 29.4198 204.149 30.5391 202.768 30.5391H3.29663C1.91592 30.5391 0.796631 29.4198 0.796631 28.0391V3.5C0.796631 2.11929 1.91592 1 3.29663 1H202.768Z" fill="white" stroke="black"/>
<path d="M10.2708 22.7507H12.9826V17.1817H15.1618C18.4548 17.1817 20.9729 15.6321 20.9729 12.2423C20.9729 8.70715 18.4548 7.54492 15.0649 7.54492H10.2708V22.7507ZM12.9826 15.0025V9.67567H14.8712C17.0988 9.67567 18.3095 10.3052 18.3095 12.2423C18.3095 14.0825 17.1957 15.0025 14.9681 15.0025H12.9826ZM23.5879 22.7507H26.2514V15.7774C26.9778 14.034 28.0431 13.4045 28.9632 13.4045C29.4475 13.4045 29.7381 13.5013 30.1255 13.5982L30.6097 11.2737C30.2708 11.1285 29.8833 11.0316 29.3022 11.0316C28.0916 11.0316 26.8809 11.8548 26.0577 13.3561H25.9608L25.8155 11.3222H23.5879V22.7507ZM36.7114 23.0413C39.5686 23.0413 42.1352 20.8621 42.1352 17.0364C42.1352 13.2592 39.5686 11.0316 36.7114 11.0316C33.8543 11.0316 31.2877 13.2592 31.2877 17.0364C31.2877 20.8621 33.8543 23.0413 36.7114 23.0413ZM36.7114 20.8621C35.0165 20.8621 34.048 19.3125 34.048 17.0364C34.048 14.7604 35.0165 13.2592 36.7114 13.2592C38.3579 13.2592 39.4233 14.7604 39.4233 17.0364C39.4233 19.3125 38.3579 20.8621 36.7114 20.8621ZM44.7986 27.2544H47.462V23.6708L47.4136 21.7822C48.3337 22.557 49.3507 23.0413 50.3192 23.0413C52.8858 23.0413 55.2102 20.7653 55.2102 16.8427C55.2102 13.3076 53.5637 11.0316 50.7066 11.0316C49.4959 11.0316 48.2369 11.7096 47.2683 12.5328H47.1715L47.0262 11.3222H44.7986V27.2544ZM49.7865 20.8137C49.1085 20.8137 48.2853 20.5716 47.462 19.8452V14.5183C48.3337 13.695 49.157 13.2592 49.9802 13.2592C51.7235 13.2592 52.4499 14.6151 52.4499 16.8912C52.4499 19.4577 51.2877 20.8137 49.7865 20.8137ZM62.8131 23.0413C64.2659 23.0413 65.6218 22.5086 66.6872 21.7822L65.8155 20.1357C64.9439 20.6684 64.1206 20.959 63.1521 20.959C61.3119 20.959 60.0044 19.7967 59.7623 17.7628H67.0262C67.1231 17.4723 67.1715 16.988 67.1715 16.4553C67.1715 13.2592 65.525 11.0316 62.4257 11.0316C59.7623 11.0316 57.1957 13.3076 57.1957 17.0364C57.1957 20.8137 59.617 23.0413 62.8131 23.0413ZM59.7623 15.9711C60.0044 14.1309 61.1666 13.1139 62.5226 13.1139C64.0722 13.1139 64.847 14.1793 64.847 15.9711H59.7623ZM69.6896 22.7507H72.3531V15.7774C73.0795 14.034 74.1448 13.4045 75.0649 13.4045C75.5492 13.4045 75.8398 13.5013 76.2756 13.5982L76.7114 11.2737C76.3724 11.1285 75.985 11.0316 75.4039 11.0316C74.1933 11.0316 72.9826 11.8548 72.2078 13.3561H72.1109L71.9172 11.3222H69.6896V22.7507ZM82.3773 23.0413C83.2974 23.0413 84.0722 22.8476 84.7017 22.6055L84.2659 20.62C83.9269 20.7653 83.4911 20.9105 83.0553 20.9105C81.9899 20.9105 81.4572 20.2326 81.4572 18.8766V13.4529H84.3628V11.3222H81.4572V8.22289H79.2296L78.8906 11.3222L77.1473 11.4674V13.4529H78.7453V18.8766C78.7453 21.3464 79.7623 23.0413 82.3773 23.0413ZM87.5589 27.4481C90.0286 27.4481 91.1909 25.85 92.1594 23.2834L96.324 11.3222H93.709L92.0141 16.9396C91.7235 17.9565 91.433 19.1188 91.1424 20.1357H91.0456C90.7066 19.0703 90.3676 17.9565 90.0286 16.9396L88.0916 11.3222H85.3313L89.8349 22.6055L89.6412 23.3319C89.2538 24.4941 88.5758 25.2689 87.3652 25.2689C87.0746 25.2689 86.7356 25.2205 86.5419 25.1236L86.0577 27.2059C86.4451 27.3512 86.9294 27.4481 87.5589 27.4481Z" fill="black"/>
<path d="M98.5518 22.7504H102.765C107.268 22.7504 110.029 20.1354 110.029 15.0507C110.029 10.0628 107.268 7.54464 102.62 7.54464H98.5518V22.7504ZM101.215 20.5713V9.72381H102.426C105.477 9.72381 107.22 11.3219 107.22 15.0507C107.22 18.8279 105.477 20.5713 102.426 20.5713H101.215ZM117.729 23.041C119.133 23.041 120.537 22.5083 121.603 21.7819L120.731 20.1354C119.859 20.6681 119.036 20.9587 118.067 20.9587C116.227 20.9587 114.92 19.7964 114.678 17.7626H121.942C121.99 17.472 122.038 16.9877 122.038 16.455C122.038 13.2589 120.44 11.0313 117.341 11.0313C114.678 11.0313 112.063 13.3073 112.063 17.0362C112.063 20.8134 114.532 23.041 117.729 23.041ZM114.678 15.9708C114.871 14.1306 116.034 13.1136 117.39 13.1136C118.939 13.1136 119.714 14.179 119.714 15.9708H114.678ZM124.653 22.7504H127.268V19.8449L129.06 17.811L132.014 22.7504H134.92L130.61 15.9708L134.532 11.3219H131.578L127.365 16.6003H127.268V6.33398H124.653V22.7504ZM136.808 22.7504H139.472V14.7601C140.44 13.84 141.07 13.3558 142.087 13.3558C143.346 13.3558 143.879 14.0337 143.879 15.9224V22.7504H146.542V15.5834C146.542 12.6778 145.477 11.0313 143.007 11.0313C141.457 11.0313 140.344 11.8546 139.375 12.7747L139.472 10.5471V6.33398H136.808V22.7504ZM154.436 22.9926C157.293 22.9926 159.908 20.8134 159.908 17.0362C159.908 13.2105 157.293 11.0313 154.436 11.0313C151.627 11.0313 149.012 13.2105 149.012 17.0362C149.012 20.8134 151.627 22.9926 154.436 22.9926ZM154.436 20.8134C152.789 20.8134 151.772 19.3122 151.772 17.0362C151.772 14.7117 152.789 13.2105 154.436 13.2105C156.13 13.2105 157.147 14.7117 157.147 17.0362C157.147 19.3122 156.13 20.8134 154.436 20.8134ZM161.748 22.7504H171.724V20.4744H168.092C167.365 20.4744 166.397 20.5228 165.622 20.6197C168.576 17.5204 170.997 14.8086 170.997 12.1935C170.997 9.43325 169.157 7.64149 166.348 7.64149C164.314 7.64149 162.959 8.51316 161.603 9.91752L163.104 11.4187C163.879 10.5471 164.847 9.77224 166.009 9.77224C167.559 9.77224 168.431 10.7892 168.431 12.3388C168.431 14.5664 165.864 17.1814 161.748 21.1524V22.7504ZM179.714 22.7504H182.232V18.9732H184.121V16.8909H182.232V7.98047H179.036L173.176 17.133V18.9732H179.714V22.7504ZM175.84 16.8425L178.552 12.7262C178.988 11.9514 179.375 11.1766 179.762 10.4502H179.859C179.811 11.2735 179.714 12.6294 179.714 13.501V16.8425H175.84ZM188.624 22.7504H191.336C191.627 16.9393 192.208 13.8885 195.695 9.57854V7.93204H185.767V10.2081H192.741C189.883 14.179 188.867 17.472 188.624 22.7504Z" fill="#037EDB"/>
</svg>
