<svg width="562" height="256" viewBox="0 0 562 256" fill="none" xmlns="http://www.w3.org/2000/svg">
<g filter="url(#filter0_d_4088_20762)">
<rect x="16" y="16.0098" width="530" height="223.432" rx="10" fill="url(#paint0_radial_4088_20762)"/>
</g>
<rect x="319" y="174.094" width="199" height="33" rx="16.5" fill="white"/>
<path d="M337.095 184.457V196.094H334.987V186.509H334.919L332.197 188.247V186.315L335.089 184.457H337.095ZM344.132 196.094V184.457H348.496C349.39 184.457 350.14 184.613 350.746 184.923C351.356 185.234 351.816 185.67 352.126 186.23C352.441 186.787 352.598 187.437 352.598 188.179C352.598 188.925 352.439 189.573 352.121 190.122C351.806 190.668 351.342 191.09 350.729 191.389C350.115 191.685 349.361 191.832 348.467 191.832H345.359V190.082H348.183C348.706 190.082 349.134 190.01 349.467 189.866C349.801 189.719 350.047 189.505 350.206 189.224C350.369 188.94 350.45 188.592 350.45 188.179C350.45 187.766 350.369 187.414 350.206 187.122C350.043 186.827 349.795 186.603 349.462 186.452C349.128 186.296 348.698 186.219 348.172 186.219H346.24V196.094H344.132ZM350.143 190.821L353.024 196.094H350.672L347.842 190.821H350.143ZM354.538 196.094V184.457H356.646V189.804H356.788L361.328 184.457H363.902L359.402 189.679L363.942 196.094H361.408L357.936 191.105L356.646 192.628V196.094H354.538ZM375.659 187.656C375.606 187.16 375.383 186.774 374.989 186.497C374.598 186.221 374.091 186.082 373.466 186.082C373.027 186.082 372.65 186.149 372.335 186.281C372.021 186.414 371.78 186.594 371.614 186.821C371.447 187.048 371.362 187.308 371.358 187.599C371.358 187.842 371.413 188.052 371.523 188.23C371.636 188.408 371.79 188.56 371.983 188.685C372.176 188.806 372.39 188.908 372.625 188.991C372.86 189.075 373.097 189.145 373.335 189.202L374.426 189.474C374.866 189.577 375.288 189.715 375.693 189.889C376.102 190.063 376.468 190.283 376.79 190.548C377.116 190.813 377.373 191.134 377.562 191.509C377.752 191.884 377.847 192.323 377.847 192.827C377.847 193.509 377.672 194.109 377.324 194.628C376.975 195.143 376.472 195.546 375.812 195.838C375.157 196.126 374.364 196.27 373.432 196.27C372.527 196.27 371.741 196.13 371.074 195.849C370.411 195.569 369.892 195.16 369.517 194.622C369.146 194.084 368.945 193.429 368.915 192.656H370.989C371.019 193.062 371.144 193.399 371.364 193.668C371.583 193.937 371.869 194.137 372.222 194.27C372.578 194.402 372.975 194.469 373.415 194.469C373.873 194.469 374.275 194.401 374.619 194.264C374.968 194.124 375.241 193.931 375.438 193.685C375.634 193.435 375.735 193.143 375.739 192.81C375.735 192.507 375.646 192.257 375.472 192.06C375.297 191.859 375.053 191.692 374.739 191.56C374.428 191.423 374.064 191.302 373.648 191.196L372.324 190.855C371.366 190.609 370.608 190.236 370.051 189.736C369.498 189.232 369.222 188.563 369.222 187.73C369.222 187.045 369.407 186.444 369.778 185.929C370.153 185.414 370.663 185.014 371.307 184.73C371.951 184.442 372.68 184.298 373.494 184.298C374.32 184.298 375.044 184.442 375.665 184.73C376.29 185.014 376.78 185.41 377.136 185.918C377.492 186.421 377.676 187.001 377.688 187.656H375.659ZM383.993 187.366V188.957H378.976V187.366H383.993ZM380.214 185.276H382.271V193.469C382.271 193.745 382.313 193.957 382.396 194.105C382.483 194.249 382.597 194.348 382.737 194.401C382.877 194.454 383.033 194.48 383.203 194.48C383.332 194.48 383.449 194.471 383.555 194.452C383.665 194.433 383.749 194.416 383.805 194.401L384.152 196.009C384.042 196.046 383.885 196.088 383.68 196.134C383.48 196.179 383.233 196.205 382.942 196.213C382.427 196.228 381.963 196.151 381.55 195.98C381.137 195.806 380.809 195.537 380.567 195.173C380.328 194.81 380.211 194.355 380.214 193.81V185.276ZM391.276 192.423V187.366H393.332V196.094H391.338V194.543H391.247C391.05 195.031 390.726 195.431 390.276 195.741C389.829 196.052 389.277 196.207 388.622 196.207C388.05 196.207 387.545 196.08 387.105 195.827C386.67 195.569 386.329 195.196 386.082 194.707C385.836 194.215 385.713 193.62 385.713 192.923V187.366H387.77V192.605C387.77 193.158 387.921 193.598 388.224 193.923C388.527 194.249 388.925 194.412 389.418 194.412C389.721 194.412 390.014 194.338 390.298 194.19C390.582 194.043 390.815 193.823 390.997 193.531C391.183 193.236 391.276 192.866 391.276 192.423ZM398.686 196.247C398 196.247 397.387 196.071 396.845 195.719C396.304 195.366 395.875 194.855 395.561 194.185C395.247 193.514 395.089 192.7 395.089 191.741C395.089 190.772 395.249 189.954 395.567 189.287C395.889 188.616 396.322 188.111 396.868 187.77C397.413 187.425 398.021 187.253 398.692 187.253C399.203 187.253 399.624 187.34 399.953 187.514C400.283 187.685 400.544 187.891 400.737 188.134C400.93 188.372 401.08 188.598 401.186 188.81H401.271V184.457H403.334V196.094H401.311V194.719H401.186C401.08 194.931 400.927 195.156 400.726 195.395C400.525 195.63 400.26 195.83 399.93 195.997C399.601 196.164 399.186 196.247 398.686 196.247ZM399.26 194.56C399.696 194.56 400.067 194.442 400.374 194.207C400.68 193.969 400.913 193.637 401.072 193.213C401.232 192.789 401.311 192.295 401.311 191.73C401.311 191.166 401.232 190.675 401.072 190.259C400.917 189.842 400.686 189.518 400.379 189.287C400.076 189.056 399.703 188.94 399.26 188.94C398.802 188.94 398.419 189.06 398.112 189.298C397.805 189.537 397.574 189.866 397.419 190.287C397.264 190.707 397.186 191.188 397.186 191.73C397.186 192.276 397.264 192.762 397.419 193.19C397.578 193.615 397.811 193.95 398.118 194.196C398.429 194.438 398.809 194.56 399.26 194.56ZM405.526 196.094V187.366H407.582V196.094H405.526ZM406.56 186.128C406.234 186.128 405.954 186.02 405.719 185.804C405.484 185.584 405.366 185.321 405.366 185.014C405.366 184.704 405.484 184.44 405.719 184.224C405.954 184.005 406.234 183.895 406.56 183.895C406.889 183.895 407.17 184.005 407.401 184.224C407.635 184.44 407.753 184.704 407.753 185.014C407.753 185.321 407.635 185.584 407.401 185.804C407.17 186.02 406.889 186.128 406.56 186.128ZM413.504 196.264C412.652 196.264 411.913 196.077 411.288 195.702C410.663 195.327 410.179 194.802 409.834 194.128C409.493 193.454 409.322 192.666 409.322 191.764C409.322 190.863 409.493 190.073 409.834 189.395C410.179 188.717 410.663 188.19 411.288 187.815C411.913 187.44 412.652 187.253 413.504 187.253C414.357 187.253 415.095 187.44 415.72 187.815C416.345 188.19 416.828 188.717 417.169 189.395C417.514 190.073 417.686 190.863 417.686 191.764C417.686 192.666 417.514 193.454 417.169 194.128C416.828 194.802 416.345 195.327 415.72 195.702C415.095 196.077 414.357 196.264 413.504 196.264ZM413.516 194.616C413.978 194.616 414.364 194.49 414.675 194.236C414.985 193.978 415.216 193.634 415.368 193.202C415.523 192.77 415.601 192.289 415.601 191.759C415.601 191.224 415.523 190.741 415.368 190.31C415.216 189.874 414.985 189.527 414.675 189.27C414.364 189.012 413.978 188.884 413.516 188.884C413.042 188.884 412.648 189.012 412.334 189.27C412.023 189.527 411.79 189.874 411.635 190.31C411.483 190.741 411.408 191.224 411.408 191.759C411.408 192.289 411.483 192.77 411.635 193.202C411.79 193.634 412.023 193.978 412.334 194.236C412.648 194.49 413.042 194.616 413.516 194.616ZM424.986 196.094H422.736L426.832 184.457H429.435L433.537 196.094H431.287L428.179 186.844H428.088L424.986 196.094ZM425.06 191.531H431.196V193.224H425.06V191.531ZM434.979 199.366V187.366H437.001V188.81H437.121C437.227 188.598 437.376 188.372 437.57 188.134C437.763 187.891 438.024 187.685 438.354 187.514C438.683 187.34 439.104 187.253 439.615 187.253C440.289 187.253 440.897 187.425 441.439 187.77C441.984 188.111 442.416 188.616 442.734 189.287C443.056 189.954 443.217 190.772 443.217 191.741C443.217 192.7 443.06 193.514 442.746 194.185C442.431 194.855 442.003 195.366 441.462 195.719C440.92 196.071 440.306 196.247 439.621 196.247C439.121 196.247 438.706 196.164 438.376 195.997C438.047 195.83 437.782 195.63 437.581 195.395C437.384 195.156 437.231 194.931 437.121 194.719H437.036V199.366H434.979ZM436.996 191.73C436.996 192.295 437.075 192.789 437.234 193.213C437.397 193.637 437.63 193.969 437.933 194.207C438.24 194.442 438.611 194.56 439.047 194.56C439.501 194.56 439.882 194.438 440.189 194.196C440.496 193.95 440.727 193.615 440.882 193.19C441.041 192.762 441.121 192.276 441.121 191.73C441.121 191.188 441.043 190.707 440.888 190.287C440.732 189.866 440.501 189.537 440.195 189.298C439.888 189.06 439.505 188.94 439.047 188.94C438.607 188.94 438.234 189.056 437.928 189.287C437.621 189.518 437.388 189.842 437.229 190.259C437.073 190.675 436.996 191.166 436.996 191.73ZM447.49 196.27C446.937 196.27 446.439 196.171 445.996 195.974C445.556 195.774 445.208 195.478 444.95 195.088C444.696 194.698 444.57 194.217 444.57 193.645C444.57 193.152 444.661 192.745 444.842 192.423C445.024 192.101 445.272 191.844 445.587 191.651C445.901 191.457 446.255 191.312 446.649 191.213C447.047 191.111 447.458 191.037 447.882 190.991C448.393 190.938 448.808 190.891 449.126 190.849C449.445 190.804 449.676 190.736 449.82 190.645C449.967 190.55 450.041 190.404 450.041 190.207V190.173C450.041 189.745 449.914 189.414 449.661 189.179C449.407 188.944 449.041 188.827 448.564 188.827C448.06 188.827 447.661 188.937 447.365 189.156C447.073 189.376 446.876 189.635 446.774 189.935L444.854 189.662C445.005 189.132 445.255 188.688 445.604 188.332C445.952 187.973 446.378 187.704 446.882 187.526C447.386 187.344 447.943 187.253 448.553 187.253C448.973 187.253 449.392 187.302 449.808 187.401C450.225 187.499 450.606 187.662 450.95 187.889C451.295 188.113 451.571 188.418 451.78 188.804C451.992 189.19 452.098 189.673 452.098 190.253V196.094H450.121V194.895H450.053C449.928 195.137 449.751 195.365 449.524 195.577C449.301 195.785 449.018 195.954 448.678 196.082C448.34 196.207 447.945 196.27 447.49 196.27ZM448.024 194.759C448.437 194.759 448.795 194.677 449.098 194.514C449.401 194.348 449.634 194.128 449.797 193.855C449.964 193.582 450.047 193.285 450.047 192.963V191.935C449.982 191.988 449.873 192.037 449.717 192.082C449.566 192.128 449.395 192.168 449.206 192.202C449.017 192.236 448.829 192.266 448.643 192.293C448.458 192.319 448.297 192.342 448.161 192.361C447.854 192.402 447.579 192.471 447.337 192.565C447.094 192.66 446.903 192.793 446.763 192.963C446.623 193.13 446.553 193.346 446.553 193.611C446.553 193.99 446.691 194.276 446.967 194.469C447.244 194.662 447.596 194.759 448.024 194.759ZM454.166 196.094V187.366H456.161V188.821H456.251C456.411 188.317 456.683 187.929 457.07 187.656C457.46 187.38 457.905 187.241 458.405 187.241C458.518 187.241 458.645 187.247 458.786 187.259C458.929 187.266 459.049 187.279 459.143 187.298V189.19C459.056 189.16 458.918 189.134 458.729 189.111C458.543 189.084 458.363 189.071 458.189 189.071C457.814 189.071 457.477 189.152 457.178 189.315C456.882 189.474 456.649 189.696 456.479 189.98C456.308 190.264 456.223 190.592 456.223 190.963V196.094H454.166ZM465.337 187.366V188.957H460.32V187.366H465.337ZM461.558 185.276H463.615V193.469C463.615 193.745 463.657 193.957 463.74 194.105C463.827 194.249 463.941 194.348 464.081 194.401C464.221 194.454 464.376 194.48 464.547 194.48C464.676 194.48 464.793 194.471 464.899 194.452C465.009 194.433 465.092 194.416 465.149 194.401L465.496 196.009C465.386 196.046 465.229 196.088 465.024 196.134C464.823 196.179 464.577 196.205 464.286 196.213C463.77 196.228 463.306 196.151 462.893 195.98C462.481 195.806 462.153 195.537 461.911 195.173C461.672 194.81 461.554 194.355 461.558 193.81V185.276ZM467.057 196.094V187.366H469.023V188.849H469.125C469.307 188.349 469.608 187.959 470.028 187.679C470.449 187.395 470.951 187.253 471.534 187.253C472.125 187.253 472.623 187.397 473.028 187.685C473.438 187.969 473.725 188.357 473.892 188.849H473.983C474.176 188.365 474.502 187.978 474.96 187.69C475.422 187.399 475.97 187.253 476.602 187.253C477.405 187.253 478.061 187.507 478.568 188.014C479.076 188.522 479.33 189.262 479.33 190.236V196.094H477.267V190.554C477.267 190.012 477.123 189.616 476.835 189.366C476.547 189.113 476.195 188.986 475.778 188.986C475.282 188.986 474.894 189.141 474.614 189.452C474.337 189.759 474.199 190.158 474.199 190.651V196.094H472.182V190.469C472.182 190.018 472.045 189.658 471.773 189.389C471.504 189.12 471.152 188.986 470.716 188.986C470.42 188.986 470.152 189.062 469.909 189.213C469.667 189.361 469.473 189.571 469.33 189.844C469.186 190.113 469.114 190.427 469.114 190.787V196.094H467.057ZM485.28 196.264C484.405 196.264 483.649 196.082 483.013 195.719C482.38 195.351 481.893 194.832 481.553 194.162C481.212 193.488 481.041 192.694 481.041 191.781C481.041 190.884 481.212 190.096 481.553 189.418C481.897 188.736 482.378 188.205 482.996 187.827C483.613 187.444 484.339 187.253 485.172 187.253C485.71 187.253 486.217 187.34 486.695 187.514C487.176 187.685 487.6 187.95 487.967 188.31C488.339 188.67 488.63 189.128 488.842 189.685C489.054 190.238 489.161 190.897 489.161 191.662V192.293H482.007V190.906H487.189C487.185 190.512 487.1 190.162 486.933 189.855C486.767 189.545 486.534 189.3 486.234 189.122C485.939 188.944 485.594 188.855 485.2 188.855C484.78 188.855 484.411 188.957 484.092 189.162C483.774 189.363 483.526 189.628 483.348 189.957C483.174 190.283 483.085 190.641 483.081 191.031V192.241C483.081 192.749 483.174 193.185 483.359 193.548C483.545 193.908 483.804 194.185 484.138 194.378C484.471 194.567 484.861 194.662 485.308 194.662C485.607 194.662 485.878 194.62 486.121 194.537C486.363 194.45 486.573 194.323 486.751 194.156C486.929 193.99 487.064 193.783 487.155 193.537L489.075 193.753C488.954 194.26 488.723 194.704 488.382 195.082C488.045 195.457 487.613 195.749 487.087 195.957C486.56 196.162 485.958 196.264 485.28 196.264ZM492.957 190.98V196.094H490.901V187.366H492.866V188.849H492.969C493.17 188.361 493.49 187.973 493.929 187.685C494.372 187.397 494.92 187.253 495.571 187.253C496.173 187.253 496.698 187.382 497.145 187.639C497.596 187.897 497.944 188.27 498.19 188.759C498.44 189.247 498.563 189.84 498.56 190.537V196.094H496.503V190.855C496.503 190.272 496.351 189.815 496.048 189.486C495.749 189.156 495.334 188.991 494.804 188.991C494.444 188.991 494.124 189.071 493.844 189.23C493.567 189.385 493.349 189.611 493.19 189.906C493.035 190.202 492.957 190.56 492.957 190.98ZM505.009 187.366V188.957H499.991V187.366H505.009ZM501.23 185.276H503.287V193.469C503.287 193.745 503.329 193.957 503.412 194.105C503.499 194.249 503.613 194.348 503.753 194.401C503.893 194.454 504.048 194.48 504.219 194.48C504.348 194.48 504.465 194.471 504.571 194.452C504.681 194.433 504.764 194.416 504.821 194.401L505.168 196.009C505.058 196.046 504.901 196.088 504.696 196.134C504.495 196.179 504.249 196.205 503.957 196.213C503.442 196.228 502.978 196.151 502.565 195.98C502.152 195.806 501.825 195.537 501.582 195.173C501.344 194.81 501.226 194.355 501.23 193.81V185.276Z" fill="#163145"/>
<rect x="37" y="39.0938" width="175" height="33" rx="16.5" fill="white"/>
<path d="M52.5369 49.4574V61.0938H50.429V49.4574H52.5369ZM56.7855 55.9801V61.0938H54.7287V52.3665H56.6946V53.8494H56.7969C56.9976 53.3608 57.3177 52.9725 57.7571 52.6847C58.2003 52.3968 58.7476 52.2528 59.3991 52.2528C60.0014 52.2528 60.526 52.3816 60.973 52.6392C61.4238 52.8968 61.7723 53.2699 62.0185 53.7585C62.2685 54.2472 62.3916 54.84 62.3878 55.5369V61.0938H60.331V55.8551C60.331 55.2718 60.1795 54.8153 59.8764 54.4858C59.5772 54.1562 59.1624 53.9915 58.6321 53.9915C58.2723 53.9915 57.9522 54.071 57.6719 54.2301C57.3954 54.3854 57.1776 54.6108 57.0185 54.9062C56.8632 55.2017 56.7855 55.5597 56.7855 55.9801ZM67.7173 61.2472C67.0317 61.2472 66.4181 61.071 65.8764 60.7188C65.3348 60.3665 64.9067 59.8551 64.5923 59.1847C64.2779 58.5142 64.1207 57.6998 64.1207 56.7415C64.1207 55.7718 64.2798 54.9536 64.598 54.2869C64.92 53.6165 65.3537 53.1108 65.8991 52.7699C66.4446 52.4252 67.0526 52.2528 67.723 52.2528C68.2344 52.2528 68.6548 52.34 68.9844 52.5142C69.3139 52.6847 69.5753 52.8911 69.7685 53.1335C69.9616 53.3722 70.1113 53.5975 70.2173 53.8097H70.3026V49.4574H72.3651V61.0938H70.3423V59.7188H70.2173C70.1113 59.9309 69.9579 60.1562 69.7571 60.3949C69.5563 60.6297 69.2912 60.8305 68.9616 60.9972C68.6321 61.1638 68.2173 61.2472 67.7173 61.2472ZM68.2912 59.5597C68.7268 59.5597 69.098 59.4422 69.4048 59.2074C69.7116 58.9687 69.9446 58.6373 70.1037 58.2131C70.2628 57.7888 70.3423 57.2945 70.3423 56.7301C70.3423 56.1657 70.2628 55.6752 70.1037 55.2585C69.9484 54.8419 69.7173 54.518 69.4105 54.2869C69.1075 54.0559 68.7344 53.9403 68.2912 53.9403C67.8329 53.9403 67.4503 54.0597 67.1435 54.2983C66.8366 54.5369 66.6056 54.8665 66.4503 55.2869C66.295 55.7074 66.2173 56.1884 66.2173 56.7301C66.2173 57.2756 66.295 57.7623 66.4503 58.1903C66.6094 58.6146 66.8423 58.9498 67.1491 59.196C67.4598 59.4384 67.8404 59.5597 68.2912 59.5597ZM78.4205 61.2642C77.5455 61.2642 76.7898 61.0824 76.1534 60.7188C75.5208 60.3513 75.0341 59.8324 74.6932 59.1619C74.3523 58.4877 74.1818 57.6941 74.1818 56.7812C74.1818 55.8835 74.3523 55.0956 74.6932 54.4176C75.0379 53.7358 75.5189 53.2055 76.1364 52.8267C76.7538 52.4441 77.4792 52.2528 78.3125 52.2528C78.8504 52.2528 79.358 52.34 79.8352 52.5142C80.3163 52.6847 80.7405 52.9498 81.108 53.3097C81.4792 53.6695 81.7708 54.1278 81.983 54.6847C82.1951 55.2377 82.3011 55.8968 82.3011 56.6619V57.2926H75.1477V55.9062H80.3295C80.3258 55.5123 80.2405 55.1619 80.0739 54.8551C79.9072 54.5445 79.6742 54.3002 79.375 54.1222C79.0795 53.9441 78.7348 53.8551 78.3409 53.8551C77.9205 53.8551 77.5511 53.9574 77.233 54.1619C76.9148 54.3627 76.6667 54.6278 76.4886 54.9574C76.3144 55.2831 76.2254 55.6411 76.2216 56.0312V57.2415C76.2216 57.7491 76.3144 58.1847 76.5 58.5483C76.6856 58.9081 76.9451 59.1847 77.2784 59.3778C77.6117 59.5672 78.0019 59.6619 78.4489 59.6619C78.7481 59.6619 79.0189 59.6203 79.2614 59.5369C79.5038 59.4498 79.714 59.3229 79.892 59.1562C80.0701 58.9896 80.2045 58.7831 80.2955 58.5369L82.2159 58.7528C82.0947 59.2604 81.8636 59.7036 81.5227 60.0824C81.1856 60.4574 80.7538 60.7491 80.2273 60.9574C79.7008 61.1619 79.0985 61.2642 78.4205 61.2642ZM84.0412 64.3665V52.3665H86.0639V53.8097H86.1832C86.2893 53.5975 86.4389 53.3722 86.6321 53.1335C86.8253 52.8911 87.0866 52.6847 87.4162 52.5142C87.7457 52.34 88.1662 52.2528 88.6776 52.2528C89.3518 52.2528 89.9598 52.4252 90.5014 52.7699C91.0469 53.1108 91.4787 53.6165 91.7969 54.2869C92.1188 54.9536 92.2798 55.7718 92.2798 56.7415C92.2798 57.6998 92.1226 58.5142 91.8082 59.1847C91.4938 59.8551 91.0658 60.3665 90.5241 60.7188C89.9825 61.071 89.3688 61.2472 88.6832 61.2472C88.1832 61.2472 87.7685 61.1638 87.4389 60.9972C87.1094 60.8305 86.8442 60.6297 86.6435 60.3949C86.4465 60.1562 86.2931 59.9309 86.1832 59.7188H86.098V64.3665H84.0412ZM86.0582 56.7301C86.0582 57.2945 86.1378 57.7888 86.2969 58.2131C86.4598 58.6373 86.6927 58.9687 86.9957 59.2074C87.3026 59.4422 87.6738 59.5597 88.1094 59.5597C88.5639 59.5597 88.9446 59.4384 89.2514 59.196C89.5582 58.9498 89.7893 58.6146 89.9446 58.1903C90.1037 57.7623 90.1832 57.2756 90.1832 56.7301C90.1832 56.1884 90.1056 55.7074 89.9503 55.2869C89.795 54.8665 89.5639 54.5369 89.2571 54.2983C88.9503 54.0597 88.5677 53.9403 88.1094 53.9403C87.67 53.9403 87.2969 54.0559 86.9901 54.2869C86.6832 54.518 86.4503 54.8419 86.2912 55.2585C86.1359 55.6752 86.0582 56.1657 86.0582 56.7301ZM97.9048 61.2642C97.0298 61.2642 96.2741 61.0824 95.6378 60.7188C95.0052 60.3513 94.5185 59.8324 94.1776 59.1619C93.8366 58.4877 93.6662 57.6941 93.6662 56.7812C93.6662 55.8835 93.8366 55.0956 94.1776 54.4176C94.5223 53.7358 95.0033 53.2055 95.6207 52.8267C96.2382 52.4441 96.9635 52.2528 97.7969 52.2528C98.3348 52.2528 98.8423 52.34 99.3196 52.5142C99.8007 52.6847 100.225 52.9498 100.592 53.3097C100.964 53.6695 101.255 54.1278 101.467 54.6847C101.679 55.2377 101.786 55.8968 101.786 56.6619V57.2926H94.6321V55.9062H99.8139C99.8101 55.5123 99.7249 55.1619 99.5582 54.8551C99.3916 54.5445 99.1586 54.3002 98.8594 54.1222C98.5639 53.9441 98.2192 53.8551 97.8253 53.8551C97.4048 53.8551 97.0355 53.9574 96.7173 54.1619C96.3991 54.3627 96.151 54.6278 95.973 54.9574C95.7988 55.2831 95.7098 55.6411 95.706 56.0312V57.2415C95.706 57.7491 95.7988 58.1847 95.9844 58.5483C96.17 58.9081 96.4295 59.1847 96.7628 59.3778C97.0961 59.5672 97.4863 59.6619 97.9332 59.6619C98.2325 59.6619 98.5033 59.6203 98.7457 59.5369C98.9882 59.4498 99.1984 59.3229 99.3764 59.1562C99.5545 58.9896 99.6889 58.7831 99.7798 58.5369L101.7 58.7528C101.579 59.2604 101.348 59.7036 101.007 60.0824C100.67 60.4574 100.238 60.7491 99.7116 60.9574C99.1851 61.1619 98.5829 61.2642 97.9048 61.2642ZM105.582 55.9801V61.0938H103.526V52.3665H105.491V53.8494H105.594C105.795 53.3608 106.115 52.9725 106.554 52.6847C106.997 52.3968 107.545 52.2528 108.196 52.2528C108.798 52.2528 109.323 52.3816 109.77 52.6392C110.221 52.8968 110.569 53.2699 110.815 53.7585C111.065 54.2472 111.188 54.84 111.185 55.5369V61.0938H109.128V55.8551C109.128 55.2718 108.976 54.8153 108.673 54.4858C108.374 54.1562 107.959 53.9915 107.429 53.9915C107.069 53.9915 106.749 54.071 106.469 54.2301C106.192 54.3854 105.974 54.6108 105.815 54.9062C105.66 55.2017 105.582 55.5597 105.582 55.9801ZM116.514 61.2472C115.829 61.2472 115.215 61.071 114.673 60.7188C114.132 60.3665 113.704 59.8551 113.389 59.1847C113.075 58.5142 112.918 57.6998 112.918 56.7415C112.918 55.7718 113.077 54.9536 113.395 54.2869C113.717 53.6165 114.151 53.1108 114.696 52.7699C115.241 52.4252 115.849 52.2528 116.52 52.2528C117.031 52.2528 117.452 52.34 117.781 52.5142C118.111 52.6847 118.372 52.8911 118.565 53.1335C118.759 53.3722 118.908 53.5975 119.014 53.8097H119.099V49.4574H121.162V61.0938H119.139V59.7188H119.014C118.908 59.9309 118.755 60.1562 118.554 60.3949C118.353 60.6297 118.088 60.8305 117.759 60.9972C117.429 61.1638 117.014 61.2472 116.514 61.2472ZM117.088 59.5597C117.524 59.5597 117.895 59.4422 118.202 59.2074C118.509 58.9687 118.741 58.6373 118.901 58.2131C119.06 57.7888 119.139 57.2945 119.139 56.7301C119.139 56.1657 119.06 55.6752 118.901 55.2585C118.745 54.8419 118.514 54.518 118.207 54.2869C117.904 54.0559 117.531 53.9403 117.088 53.9403C116.63 53.9403 116.247 54.0597 115.94 54.2983C115.634 54.5369 115.402 54.8665 115.247 55.2869C115.092 55.7074 115.014 56.1884 115.014 56.7301C115.014 57.2756 115.092 57.7623 115.247 58.1903C115.406 58.6146 115.639 58.9498 115.946 59.196C116.257 59.4384 116.637 59.5597 117.088 59.5597ZM127.217 61.2642C126.342 61.2642 125.587 61.0824 124.95 60.7188C124.318 60.3513 123.831 59.8324 123.49 59.1619C123.149 58.4877 122.979 57.6941 122.979 56.7812C122.979 55.8835 123.149 55.0956 123.49 54.4176C123.835 53.7358 124.316 53.2055 124.933 52.8267C125.551 52.4441 126.276 52.2528 127.109 52.2528C127.647 52.2528 128.155 52.34 128.632 52.5142C129.113 52.6847 129.537 52.9498 129.905 53.3097C130.276 53.6695 130.568 54.1278 130.78 54.6847C130.992 55.2377 131.098 55.8968 131.098 56.6619V57.2926H123.945V55.9062H129.126C129.123 55.5123 129.037 55.1619 128.871 54.8551C128.704 54.5445 128.471 54.3002 128.172 54.1222C127.876 53.9441 127.532 53.8551 127.138 53.8551C126.717 53.8551 126.348 53.9574 126.03 54.1619C125.712 54.3627 125.464 54.6278 125.286 54.9574C125.111 55.2831 125.022 55.6411 125.018 56.0312V57.2415C125.018 57.7491 125.111 58.1847 125.297 58.5483C125.482 58.9081 125.742 59.1847 126.075 59.3778C126.409 59.5672 126.799 59.6619 127.246 59.6619C127.545 59.6619 127.816 59.6203 128.058 59.5369C128.301 59.4498 128.511 59.3229 128.689 59.1562C128.867 58.9896 129.001 58.7831 129.092 58.5369L131.013 58.7528C130.892 59.2604 130.661 59.7036 130.32 60.0824C129.982 60.4574 129.551 60.7491 129.024 60.9574C128.498 61.1619 127.895 61.2642 127.217 61.2642ZM134.895 55.9801V61.0938H132.838V52.3665H134.804V53.8494H134.906C135.107 53.3608 135.427 52.9725 135.866 52.6847C136.31 52.3968 136.857 52.2528 137.509 52.2528C138.111 52.2528 138.635 52.3816 139.082 52.6392C139.533 52.8968 139.882 53.2699 140.128 53.7585C140.378 54.2472 140.501 54.84 140.497 55.5369V61.0938H138.44V55.8551C138.44 55.2718 138.289 54.8153 137.986 54.4858C137.687 54.1562 137.272 53.9915 136.741 53.9915C136.382 53.9915 136.062 54.071 135.781 54.2301C135.505 54.3854 135.287 54.6108 135.128 54.9062C134.973 55.2017 134.895 55.5597 134.895 55.9801ZM146.946 52.3665V53.9574H141.929V52.3665H146.946ZM143.168 50.2756H145.224V58.4688C145.224 58.7453 145.266 58.9574 145.349 59.1051C145.437 59.2491 145.55 59.3475 145.69 59.4006C145.83 59.4536 145.986 59.4801 146.156 59.4801C146.285 59.4801 146.402 59.4706 146.509 59.4517C146.618 59.4328 146.702 59.4157 146.759 59.4006L147.105 61.0085C146.995 61.0464 146.838 61.0881 146.634 61.1335C146.433 61.179 146.187 61.2055 145.895 61.2131C145.38 61.2282 144.916 61.1506 144.503 60.9801C144.09 60.8059 143.762 60.5369 143.52 60.1733C143.281 59.8097 143.164 59.3551 143.168 58.8097V50.2756ZM152.726 61.0938V49.4574H160.18V51.2244H154.834V54.3835H159.669V56.1506H154.834V61.0938H152.726ZM164.067 49.4574V61.0938H162.01V49.4574H164.067ZM169.989 61.2642C169.136 61.2642 168.398 61.0767 167.773 60.7017C167.148 60.3267 166.663 59.8021 166.318 59.1278C165.977 58.4536 165.807 57.6657 165.807 56.7642C165.807 55.8627 165.977 55.0729 166.318 54.3949C166.663 53.7169 167.148 53.1903 167.773 52.8153C168.398 52.4403 169.136 52.2528 169.989 52.2528C170.841 52.2528 171.58 52.4403 172.205 52.8153C172.83 53.1903 173.313 53.7169 173.653 54.3949C173.998 55.0729 174.17 55.8627 174.17 56.7642C174.17 57.6657 173.998 58.4536 173.653 59.1278C173.313 59.8021 172.83 60.3267 172.205 60.7017C171.58 61.0767 170.841 61.2642 169.989 61.2642ZM170 59.6165C170.462 59.6165 170.848 59.4896 171.159 59.2358C171.47 58.9782 171.701 58.6335 171.852 58.2017C172.008 57.7699 172.085 57.2888 172.085 56.7585C172.085 56.2244 172.008 55.7415 171.852 55.3097C171.701 54.8741 171.47 54.5275 171.159 54.2699C170.848 54.0123 170.462 53.8835 170 53.8835C169.527 53.8835 169.133 54.0123 168.818 54.2699C168.508 54.5275 168.275 54.8741 168.119 55.3097C167.968 55.7415 167.892 56.2244 167.892 56.7585C167.892 57.2888 167.968 57.7699 168.119 58.2017C168.275 58.6335 168.508 58.9782 168.818 59.2358C169.133 59.4896 169.527 59.6165 170 59.6165ZM179.723 61.2642C178.871 61.2642 178.132 61.0767 177.507 60.7017C176.882 60.3267 176.397 59.8021 176.053 59.1278C175.712 58.4536 175.541 57.6657 175.541 56.7642C175.541 55.8627 175.712 55.0729 176.053 54.3949C176.397 53.7169 176.882 53.1903 177.507 52.8153C178.132 52.4403 178.871 52.2528 179.723 52.2528C180.575 52.2528 181.314 52.4403 181.939 52.8153C182.564 53.1903 183.047 53.7169 183.388 54.3949C183.732 55.0729 183.905 55.8627 183.905 56.7642C183.905 57.6657 183.732 58.4536 183.388 59.1278C183.047 59.8021 182.564 60.3267 181.939 60.7017C181.314 61.0767 180.575 61.2642 179.723 61.2642ZM179.734 59.6165C180.196 59.6165 180.583 59.4896 180.893 59.2358C181.204 58.9782 181.435 58.6335 181.587 58.2017C181.742 57.7699 181.82 57.2888 181.82 56.7585C181.82 56.2244 181.742 55.7415 181.587 55.3097C181.435 54.8741 181.204 54.5275 180.893 54.2699C180.583 54.0123 180.196 53.8835 179.734 53.8835C179.261 53.8835 178.867 54.0123 178.553 54.2699C178.242 54.5275 178.009 54.8741 177.854 55.3097C177.702 55.7415 177.626 56.2244 177.626 56.7585C177.626 57.2888 177.702 57.7699 177.854 58.2017C178.009 58.6335 178.242 58.9782 178.553 59.2358C178.867 59.4896 179.261 59.6165 179.734 59.6165ZM185.651 61.0938V52.3665H187.645V53.821H187.736C187.895 53.3172 188.168 52.929 188.554 52.6562C188.944 52.3797 189.389 52.2415 189.889 52.2415C190.003 52.2415 190.13 52.2472 190.27 52.2585C190.414 52.2661 190.533 52.2794 190.628 52.2983V54.1903C190.541 54.16 190.402 54.1335 190.213 54.1108C190.027 54.0843 189.848 54.071 189.673 54.071C189.298 54.071 188.961 54.1525 188.662 54.3153C188.366 54.4744 188.134 54.696 187.963 54.9801C187.793 55.2642 187.707 55.5919 187.707 55.9631V61.0938H185.651ZM198.892 54.6733L197.017 54.8778C196.964 54.6884 196.871 54.5104 196.739 54.3438C196.61 54.1771 196.436 54.0426 196.216 53.9403C195.996 53.8381 195.727 53.7869 195.409 53.7869C194.981 53.7869 194.621 53.8797 194.33 54.0653C194.042 54.2509 193.9 54.4915 193.903 54.7869C193.9 55.0407 193.992 55.2472 194.182 55.4062C194.375 55.5653 194.693 55.696 195.136 55.7983L196.625 56.1165C197.451 56.2945 198.064 56.5767 198.466 56.9631C198.871 57.3494 199.076 57.8551 199.08 58.4801C199.076 59.0294 198.915 59.5142 198.597 59.9347C198.282 60.3513 197.845 60.6771 197.284 60.9119C196.723 61.1468 196.08 61.2642 195.352 61.2642C194.284 61.2642 193.424 61.0407 192.773 60.5938C192.121 60.143 191.733 59.5161 191.608 58.7131L193.614 58.5199C193.705 58.9138 193.898 59.2112 194.193 59.4119C194.489 59.6127 194.873 59.7131 195.347 59.7131C195.835 59.7131 196.227 59.6127 196.523 59.4119C196.822 59.2112 196.972 58.9631 196.972 58.6676C196.972 58.4176 196.875 58.2112 196.682 58.0483C196.492 57.8854 196.197 57.7604 195.795 57.6733L194.307 57.3608C193.47 57.1866 192.85 56.893 192.449 56.4801C192.047 56.0634 191.848 55.5369 191.852 54.9006C191.848 54.3627 191.994 53.8968 192.29 53.5028C192.589 53.1051 193.004 52.7983 193.534 52.5824C194.068 52.3627 194.684 52.2528 195.381 52.2528C196.403 52.2528 197.208 52.4706 197.795 52.9062C198.386 53.3419 198.752 53.9309 198.892 54.6733Z" fill="#163145"/>
<rect x="37" y="174.094" width="115" height="33" rx="16.5" fill="white"/>
<path d="M50.2649 196.094V184.457H54.6286C55.5225 184.457 56.2725 184.624 56.8786 184.957C57.4884 185.291 57.9486 185.749 58.2592 186.332C58.5736 186.912 58.7308 187.571 58.7308 188.31C58.7308 189.056 58.5736 189.719 58.2592 190.298C57.9448 190.878 57.4808 191.334 56.8672 191.668C56.2536 191.997 55.4979 192.162 54.6001 192.162H51.7081V190.429H54.3161C54.8388 190.429 55.2668 190.338 55.6001 190.156C55.9335 189.974 56.1797 189.724 56.3388 189.406C56.5017 189.088 56.5831 188.723 56.5831 188.31C56.5831 187.897 56.5017 187.533 56.3388 187.219C56.1797 186.904 55.9316 186.66 55.5945 186.486C55.2611 186.308 54.8312 186.219 54.3047 186.219H52.3729V196.094H50.2649ZM62.5277 184.457V196.094H60.4709V184.457H62.5277ZM68.4496 196.264C67.5973 196.264 66.8587 196.077 66.2337 195.702C65.6087 195.327 65.1238 194.802 64.7791 194.128C64.4382 193.454 64.2678 192.666 64.2678 191.764C64.2678 190.863 64.4382 190.073 64.7791 189.395C65.1238 188.717 65.6087 188.19 66.2337 187.815C66.8587 187.44 67.5973 187.253 68.4496 187.253C69.3018 187.253 70.0405 187.44 70.6655 187.815C71.2905 188.19 71.7734 188.717 72.1143 189.395C72.459 190.073 72.6314 190.863 72.6314 191.764C72.6314 192.666 72.459 193.454 72.1143 194.128C71.7734 194.802 71.2905 195.327 70.6655 195.702C70.0405 196.077 69.3018 196.264 68.4496 196.264ZM68.4609 194.616C68.9231 194.616 69.3094 194.49 69.62 194.236C69.9306 193.978 70.1617 193.634 70.3132 193.202C70.4685 192.77 70.5462 192.289 70.5462 191.759C70.5462 191.224 70.4685 190.741 70.3132 190.31C70.1617 189.874 69.9306 189.527 69.62 189.27C69.3094 189.012 68.9231 188.884 68.4609 188.884C67.9875 188.884 67.5935 189.012 67.2791 189.27C66.9685 189.527 66.7356 189.874 66.5803 190.31C66.4287 190.741 66.353 191.224 66.353 191.759C66.353 192.289 66.4287 192.77 66.5803 193.202C66.7356 193.634 66.9685 193.978 67.2791 194.236C67.5935 194.49 67.9875 194.616 68.4609 194.616ZM78.7351 187.366V188.957H73.718V187.366H78.7351ZM74.9567 185.276H77.0135V193.469C77.0135 193.745 77.0552 193.957 77.1385 194.105C77.2256 194.249 77.3393 194.348 77.4794 194.401C77.6196 194.454 77.7749 194.48 77.9453 194.48C78.0741 194.48 78.1915 194.471 78.2976 194.452C78.4074 194.433 78.4908 194.416 78.5476 194.401L78.8942 196.009C78.7843 196.046 78.6271 196.088 78.4226 196.134C78.2218 196.179 77.9756 196.205 77.6839 196.213C77.1688 196.228 76.7048 196.151 76.2919 195.98C75.879 195.806 75.5514 195.537 75.3089 195.173C75.0703 194.81 74.9529 194.355 74.9567 193.81V185.276ZM87.228 189.673L85.353 189.878C85.3 189.688 85.2071 189.51 85.0746 189.344C84.9458 189.177 84.7715 189.043 84.5518 188.94C84.3321 188.838 84.0632 188.787 83.745 188.787C83.317 188.787 82.9571 188.88 82.6655 189.065C82.3776 189.251 82.2356 189.491 82.2393 189.787C82.2356 190.041 82.3284 190.247 82.5178 190.406C82.7109 190.565 83.0291 190.696 83.4723 190.798L84.9609 191.116C85.7867 191.295 86.4003 191.577 86.8018 191.963C87.2071 192.349 87.4117 192.855 87.4155 193.48C87.4117 194.029 87.2507 194.514 86.9325 194.935C86.6181 195.351 86.1806 195.677 85.62 195.912C85.0594 196.147 84.4155 196.264 83.6882 196.264C82.62 196.264 81.7602 196.041 81.1087 195.594C80.4571 195.143 80.0689 194.516 79.9439 193.713L81.9496 193.52C82.0405 193.914 82.2337 194.211 82.5291 194.412C82.8246 194.613 83.209 194.713 83.6825 194.713C84.1712 194.713 84.5632 194.613 84.8587 194.412C85.1579 194.211 85.3075 193.963 85.3075 193.668C85.3075 193.418 85.2109 193.211 85.0178 193.048C84.8284 192.885 84.5329 192.76 84.1314 192.673L82.6428 192.361C81.8056 192.187 81.1863 191.893 80.7848 191.48C80.3833 191.063 80.1844 190.537 80.1882 189.901C80.1844 189.363 80.3303 188.897 80.6257 188.503C80.925 188.105 81.3397 187.798 81.87 187.582C82.4041 187.363 83.0196 187.253 83.7166 187.253C84.7393 187.253 85.5443 187.471 86.1314 187.906C86.7223 188.342 87.0878 188.931 87.228 189.673ZM96.5575 196.264C95.7621 196.264 95.0784 196.12 94.5064 195.832C93.9344 195.545 93.4931 195.156 93.1825 194.668C92.8757 194.175 92.7223 193.62 92.7223 193.003C92.7223 192.537 92.817 192.124 93.0064 191.764C93.1996 191.404 93.4647 191.071 93.8018 190.764C94.1428 190.457 94.5367 190.152 94.9837 189.849L97.0462 188.446C97.3492 188.249 97.5784 188.041 97.7337 187.821C97.8928 187.601 97.9723 187.344 97.9723 187.048C97.9723 186.798 97.8662 186.562 97.6541 186.338C97.4458 186.115 97.1579 186.003 96.7905 186.003C96.5443 186.003 96.3265 186.062 96.1371 186.179C95.9515 186.293 95.8056 186.442 95.6996 186.628C95.5973 186.813 95.5462 187.01 95.5462 187.219C95.5462 187.473 95.6162 187.73 95.7564 187.991C95.9003 188.253 96.0859 188.524 96.3132 188.804C96.5443 189.084 96.7905 189.382 97.0518 189.696L102.512 196.094H100.285L95.7507 190.901C95.4136 190.507 95.0878 190.118 94.7734 189.736C94.4628 189.353 94.2071 188.955 94.0064 188.543C93.8094 188.126 93.7109 187.675 93.7109 187.19C93.7109 186.641 93.8378 186.151 94.0916 185.719C94.3454 185.283 94.6996 184.94 95.1541 184.69C95.6125 184.44 96.1484 184.315 96.7621 184.315C97.3757 184.315 97.9022 184.437 98.3416 184.679C98.781 184.921 99.12 185.243 99.3587 185.645C99.5973 186.046 99.7166 186.484 99.7166 186.957C99.7166 187.507 99.5803 187.999 99.3075 188.435C99.0348 188.866 98.656 189.259 98.1712 189.611L95.8189 191.332C95.4325 191.613 95.156 191.897 94.9893 192.185C94.8227 192.469 94.7393 192.711 94.7393 192.912C94.7393 193.219 94.817 193.497 94.9723 193.747C95.1276 193.997 95.3454 194.198 95.6257 194.349C95.9098 194.497 96.2412 194.571 96.62 194.571C97.0367 194.571 97.4477 194.478 97.853 194.293C98.2583 194.103 98.6276 193.834 98.9609 193.486C99.2943 193.137 99.5594 192.721 99.7564 192.236C99.9534 191.747 100.052 191.205 100.052 190.611H101.819C101.819 191.346 101.737 191.986 101.575 192.531C101.412 193.073 101.201 193.531 100.944 193.906C100.686 194.277 100.414 194.575 100.126 194.798C100.035 194.863 99.9477 194.927 99.8643 194.991C99.781 195.056 99.6939 195.12 99.603 195.185C99.1939 195.556 98.7147 195.829 98.1655 196.003C97.62 196.177 97.084 196.264 96.5575 196.264ZM109.306 184.457L112.335 193.616H112.454L115.477 184.457H117.795L113.692 196.094H111.09L106.994 184.457H109.306ZM119.237 196.094V187.366H121.293V196.094H119.237ZM120.271 186.128C119.945 186.128 119.665 186.02 119.43 185.804C119.195 185.584 119.077 185.321 119.077 185.014C119.077 184.704 119.195 184.44 119.43 184.224C119.665 184.005 119.945 183.895 120.271 183.895C120.6 183.895 120.88 184.005 121.112 184.224C121.346 184.44 121.464 184.704 121.464 185.014C121.464 185.321 121.346 185.584 121.112 185.804C120.88 186.02 120.6 186.128 120.271 186.128ZM125.465 184.457V196.094H123.408V184.457H125.465ZM129.637 184.457V196.094H127.58V184.457H129.637ZM134.263 196.27C133.71 196.27 133.212 196.171 132.769 195.974C132.33 195.774 131.981 195.478 131.724 195.088C131.47 194.698 131.343 194.217 131.343 193.645C131.343 193.152 131.434 192.745 131.616 192.423C131.798 192.101 132.046 191.844 132.36 191.651C132.674 191.457 133.029 191.312 133.423 191.213C133.82 191.111 134.231 191.037 134.656 190.991C135.167 190.938 135.582 190.891 135.9 190.849C136.218 190.804 136.449 190.736 136.593 190.645C136.741 190.55 136.815 190.404 136.815 190.207V190.173C136.815 189.745 136.688 189.414 136.434 189.179C136.18 188.944 135.815 188.827 135.337 188.827C134.834 188.827 134.434 188.937 134.138 189.156C133.847 189.376 133.65 189.635 133.548 189.935L131.627 189.662C131.779 189.132 132.029 188.688 132.377 188.332C132.726 187.973 133.152 187.704 133.656 187.526C134.159 187.344 134.716 187.253 135.326 187.253C135.746 187.253 136.165 187.302 136.582 187.401C136.998 187.499 137.379 187.662 137.724 187.889C138.068 188.113 138.345 188.418 138.553 188.804C138.765 189.19 138.871 189.673 138.871 190.253V196.094H136.894V194.895H136.826C136.701 195.137 136.525 195.365 136.298 195.577C136.074 195.785 135.792 195.954 135.451 196.082C135.114 196.207 134.718 196.27 134.263 196.27ZM134.798 194.759C135.21 194.759 135.568 194.677 135.871 194.514C136.174 194.348 136.407 194.128 136.57 193.855C136.737 193.582 136.82 193.285 136.82 192.963V191.935C136.756 191.988 136.646 192.037 136.491 192.082C136.339 192.128 136.169 192.168 135.979 192.202C135.79 192.236 135.603 192.266 135.417 192.293C135.231 192.319 135.07 192.342 134.934 192.361C134.627 192.402 134.353 192.471 134.11 192.565C133.868 192.66 133.676 192.793 133.536 192.963C133.396 193.13 133.326 193.346 133.326 193.611C133.326 193.99 133.464 194.276 133.741 194.469C134.017 194.662 134.37 194.759 134.798 194.759Z" fill="#163145"/>
<rect x="404" y="39.0938" width="114" height="33" rx="16.5" fill="white"/>
<path d="M417.601 61.0938V49.4574H421.964C422.858 49.4574 423.608 49.6241 424.214 49.9574C424.824 50.2907 425.285 50.7491 425.595 51.3324C425.91 51.9119 426.067 52.571 426.067 53.3097C426.067 54.0559 425.91 54.7187 425.595 55.2983C425.281 55.8778 424.817 56.3343 424.203 56.6676C423.589 56.9972 422.834 57.1619 421.936 57.1619H419.044V55.429H421.652C422.175 55.429 422.603 55.3381 422.936 55.1562C423.269 54.9744 423.516 54.7244 423.675 54.4062C423.838 54.0881 423.919 53.7225 423.919 53.3097C423.919 52.8968 423.838 52.5331 423.675 52.2188C423.516 51.9044 423.268 51.66 422.93 51.4858C422.597 51.3078 422.167 51.2188 421.641 51.2188H419.709V61.0938H417.601ZM431.545 61.2642C430.67 61.2642 429.915 61.0824 429.278 60.7188C428.646 60.3513 428.159 59.8324 427.818 59.1619C427.477 58.4877 427.307 57.6941 427.307 56.7812C427.307 55.8835 427.477 55.0956 427.818 54.4176C428.163 53.7358 428.644 53.2055 429.261 52.8267C429.879 52.4441 430.604 52.2528 431.438 52.2528C431.975 52.2528 432.483 52.34 432.96 52.5142C433.441 52.6847 433.866 52.9498 434.233 53.3097C434.604 53.6695 434.896 54.1278 435.108 54.6847C435.32 55.2377 435.426 55.8968 435.426 56.6619V57.2926H428.273V55.9062H433.455C433.451 55.5123 433.366 55.1619 433.199 54.8551C433.032 54.5445 432.799 54.3002 432.5 54.1222C432.205 53.9441 431.86 53.8551 431.466 53.8551C431.045 53.8551 430.676 53.9574 430.358 54.1619C430.04 54.3627 429.792 54.6278 429.614 54.9574C429.439 55.2831 429.35 55.6411 429.347 56.0312V57.2415C429.347 57.7491 429.439 58.1847 429.625 58.5483C429.811 58.9081 430.07 59.1847 430.403 59.3778C430.737 59.5672 431.127 59.6619 431.574 59.6619C431.873 59.6619 432.144 59.6203 432.386 59.5369C432.629 59.4498 432.839 59.3229 433.017 59.1562C433.195 58.9896 433.33 58.7831 433.42 58.5369L435.341 58.7528C435.22 59.2604 434.989 59.7036 434.648 60.0824C434.311 60.4574 433.879 60.7491 433.352 60.9574C432.826 61.1619 432.223 61.2642 431.545 61.2642ZM439.223 55.9801V61.0938H437.166V52.3665H439.132V53.8494H439.234C439.435 53.3608 439.755 52.9725 440.195 52.6847C440.638 52.3968 441.185 52.2528 441.837 52.2528C442.439 52.2528 442.964 52.3816 443.411 52.6392C443.861 52.8968 444.21 53.2699 444.456 53.7585C444.706 54.2472 444.829 54.84 444.825 55.5369V61.0938H442.768V55.8551C442.768 55.2718 442.617 54.8153 442.314 54.4858C442.015 54.1562 441.6 53.9915 441.07 53.9915C440.71 53.9915 440.39 54.071 440.109 54.2301C439.833 54.3854 439.615 54.6108 439.456 54.9062C439.301 55.2017 439.223 55.5597 439.223 55.9801ZM451.274 52.3665V53.9574H446.257V52.3665H451.274ZM447.496 50.2756H449.553V58.4688C449.553 58.7453 449.594 58.9574 449.678 59.1051C449.765 59.2491 449.878 59.3475 450.018 59.4006C450.159 59.4536 450.314 59.4801 450.484 59.4801C450.613 59.4801 450.731 59.4706 450.837 59.4517C450.946 59.4328 451.03 59.4157 451.087 59.4006L451.433 61.0085C451.323 61.0464 451.166 61.0881 450.962 61.1335C450.761 61.179 450.515 61.2055 450.223 61.2131C449.708 61.2282 449.244 61.1506 448.831 60.9801C448.418 60.8059 448.09 60.5369 447.848 60.1733C447.609 59.8097 447.492 59.3551 447.496 58.8097V50.2756ZM457.054 61.0938V49.4574H459.162V54.3835H464.554V49.4574H466.668V61.0938H464.554V56.1506H459.162V61.0938H457.054ZM472.676 61.2642C471.824 61.2642 471.085 61.0767 470.46 60.7017C469.835 60.3267 469.35 59.8021 469.006 59.1278C468.665 58.4536 468.494 57.6657 468.494 56.7642C468.494 55.8627 468.665 55.0729 469.006 54.3949C469.35 53.7169 469.835 53.1903 470.46 52.8153C471.085 52.4403 471.824 52.2528 472.676 52.2528C473.528 52.2528 474.267 52.4403 474.892 52.8153C475.517 53.1903 476 53.7169 476.341 54.3949C476.686 55.0729 476.858 55.8627 476.858 56.7642C476.858 57.6657 476.686 58.4536 476.341 59.1278C476 59.8021 475.517 60.3267 474.892 60.7017C474.267 61.0767 473.528 61.2642 472.676 61.2642ZM472.688 59.6165C473.15 59.6165 473.536 59.4896 473.847 59.2358C474.157 58.9782 474.388 58.6335 474.54 58.2017C474.695 57.7699 474.773 57.2888 474.773 56.7585C474.773 56.2244 474.695 55.7415 474.54 55.3097C474.388 54.8741 474.157 54.5275 473.847 54.2699C473.536 54.0123 473.15 53.8835 472.688 53.8835C472.214 53.8835 471.82 54.0123 471.506 54.2699C471.195 54.5275 470.962 54.8741 470.807 55.3097C470.655 55.7415 470.58 56.2244 470.58 56.7585C470.58 57.2888 470.655 57.7699 470.807 58.2017C470.962 58.6335 471.195 58.9782 471.506 59.2358C471.82 59.4896 472.214 59.6165 472.688 59.6165ZM484.166 57.4233V52.3665H486.223V61.0938H484.229V59.5426H484.138C483.941 60.0312 483.617 60.4309 483.166 60.7415C482.719 61.0521 482.168 61.2074 481.513 61.2074C480.941 61.2074 480.435 61.0805 479.996 60.8267C479.56 60.5691 479.219 60.196 478.973 59.7074C478.727 59.215 478.604 58.6203 478.604 57.9233V52.3665H480.661V57.6051C480.661 58.1581 480.812 58.5975 481.115 58.9233C481.418 59.2491 481.816 59.4119 482.308 59.4119C482.611 59.4119 482.905 59.3381 483.189 59.1903C483.473 59.0426 483.706 58.8229 483.888 58.5312C484.073 58.2358 484.166 57.8665 484.166 57.4233ZM495.236 54.6733L493.361 54.8778C493.308 54.6884 493.215 54.5104 493.082 54.3438C492.954 54.1771 492.779 54.0426 492.56 53.9403C492.34 53.8381 492.071 53.7869 491.753 53.7869C491.325 53.7869 490.965 53.8797 490.673 54.0653C490.385 54.2509 490.243 54.4915 490.247 54.7869C490.243 55.0407 490.336 55.2472 490.526 55.4062C490.719 55.5653 491.037 55.696 491.48 55.7983L492.969 56.1165C493.795 56.2945 494.408 56.5767 494.81 56.9631C495.215 57.3494 495.42 57.8551 495.423 58.4801C495.42 59.0294 495.259 59.5142 494.94 59.9347C494.626 60.3513 494.188 60.6771 493.628 60.9119C493.067 61.1468 492.423 61.2642 491.696 61.2642C490.628 61.2642 489.768 61.0407 489.116 60.5938C488.465 60.143 488.077 59.5161 487.952 58.7131L489.957 58.5199C490.048 58.9138 490.241 59.2112 490.537 59.4119C490.832 59.6127 491.217 59.7131 491.69 59.7131C492.179 59.7131 492.571 59.6127 492.866 59.4119C493.166 59.2112 493.315 58.9631 493.315 58.6676C493.315 58.4176 493.219 58.2112 493.026 58.0483C492.836 57.8854 492.541 57.7604 492.139 57.6733L490.651 57.3608C489.813 57.1866 489.194 56.893 488.793 56.4801C488.391 56.0634 488.192 55.5369 488.196 54.9006C488.192 54.3627 488.338 53.8968 488.634 53.5028C488.933 53.1051 489.348 52.7983 489.878 52.5824C490.412 52.3627 491.027 52.2528 491.724 52.2528C492.747 52.2528 493.552 52.4706 494.139 52.9062C494.73 53.3419 495.096 53.9309 495.236 54.6733ZM500.983 61.2642C500.108 61.2642 499.352 61.0824 498.716 60.7188C498.083 60.3513 497.597 59.8324 497.256 59.1619C496.915 58.4877 496.744 57.6941 496.744 56.7812C496.744 55.8835 496.915 55.0956 497.256 54.4176C497.6 53.7358 498.081 53.2055 498.699 52.8267C499.316 52.4441 500.042 52.2528 500.875 52.2528C501.413 52.2528 501.92 52.34 502.398 52.5142C502.879 52.6847 503.303 52.9498 503.67 53.3097C504.042 53.6695 504.333 54.1278 504.545 54.6847C504.758 55.2377 504.864 55.8968 504.864 56.6619V57.2926H497.71V55.9062H502.892C502.888 55.5123 502.803 55.1619 502.636 54.8551C502.47 54.5445 502.237 54.3002 501.938 54.1222C501.642 53.9441 501.297 53.8551 500.903 53.8551C500.483 53.8551 500.114 53.9574 499.795 54.1619C499.477 54.3627 499.229 54.6278 499.051 54.9574C498.877 55.2831 498.788 55.6411 498.784 56.0312V57.2415C498.784 57.7491 498.877 58.1847 499.062 58.5483C499.248 58.9081 499.508 59.1847 499.841 59.3778C500.174 59.5672 500.564 59.6619 501.011 59.6619C501.311 59.6619 501.581 59.6203 501.824 59.5369C502.066 59.4498 502.277 59.3229 502.455 59.1562C502.633 58.9896 502.767 58.7831 502.858 58.5369L504.778 58.7528C504.657 59.2604 504.426 59.7036 504.085 60.0824C503.748 60.4574 503.316 60.7491 502.79 60.9574C502.263 61.1619 501.661 61.2642 500.983 61.2642Z" fill="#163145"/>
<rect x="227" y="110.094" width="108" height="33" rx="16.5" fill="white"/>
<path d="M241.978 132.094H239.728L243.825 120.457H246.427L250.529 132.094H248.279L245.171 122.844H245.08L241.978 132.094ZM242.052 127.531H248.188V129.224H242.052V127.531ZM251.971 135.366V123.366H253.994V124.81H254.113C254.219 124.598 254.369 124.372 254.562 124.134C254.755 123.891 255.016 123.685 255.346 123.514C255.675 123.34 256.096 123.253 256.607 123.253C257.281 123.253 257.889 123.425 258.431 123.77C258.977 124.111 259.408 124.616 259.727 125.287C260.049 125.954 260.21 126.772 260.21 127.741C260.21 128.7 260.052 129.514 259.738 130.185C259.424 130.855 258.996 131.366 258.454 131.719C257.912 132.071 257.299 132.247 256.613 132.247C256.113 132.247 255.698 132.164 255.369 131.997C255.039 131.83 254.774 131.63 254.573 131.395C254.376 131.156 254.223 130.931 254.113 130.719H254.028V135.366H251.971ZM253.988 127.73C253.988 128.295 254.067 128.789 254.227 129.213C254.389 129.637 254.622 129.969 254.925 130.207C255.232 130.442 255.603 130.56 256.039 130.56C256.494 130.56 256.874 130.438 257.181 130.196C257.488 129.95 257.719 129.615 257.874 129.19C258.033 128.762 258.113 128.276 258.113 127.73C258.113 127.188 258.035 126.707 257.88 126.287C257.725 125.866 257.494 125.537 257.187 125.298C256.88 125.06 256.497 124.94 256.039 124.94C255.6 124.94 255.227 125.056 254.92 125.287C254.613 125.518 254.38 125.842 254.221 126.259C254.066 126.675 253.988 127.166 253.988 127.73ZM264.482 132.27C263.929 132.27 263.431 132.171 262.988 131.974C262.549 131.774 262.2 131.478 261.942 131.088C261.689 130.698 261.562 130.217 261.562 129.645C261.562 129.152 261.653 128.745 261.835 128.423C262.016 128.101 262.264 127.844 262.579 127.651C262.893 127.457 263.247 127.312 263.641 127.213C264.039 127.111 264.45 127.037 264.874 126.991C265.386 126.938 265.8 126.891 266.119 126.849C266.437 126.804 266.668 126.736 266.812 126.645C266.96 126.55 267.033 126.404 267.033 126.207V126.173C267.033 125.745 266.906 125.414 266.653 125.179C266.399 124.944 266.033 124.827 265.556 124.827C265.052 124.827 264.653 124.937 264.357 125.156C264.066 125.376 263.869 125.635 263.766 125.935L261.846 125.662C261.997 125.132 262.247 124.688 262.596 124.332C262.944 123.973 263.371 123.704 263.874 123.526C264.378 123.344 264.935 123.253 265.545 123.253C265.965 123.253 266.384 123.302 266.8 123.401C267.217 123.499 267.598 123.662 267.942 123.889C268.287 124.113 268.564 124.418 268.772 124.804C268.984 125.19 269.09 125.673 269.09 126.253V132.094H267.113V130.895H267.045C266.92 131.137 266.744 131.365 266.516 131.577C266.293 131.785 266.011 131.954 265.67 132.082C265.333 132.207 264.937 132.27 264.482 132.27ZM265.016 130.759C265.429 130.759 265.787 130.677 266.09 130.514C266.393 130.348 266.626 130.128 266.789 129.855C266.956 129.582 267.039 129.285 267.039 128.963V127.935C266.975 127.988 266.865 128.037 266.71 128.082C266.558 128.128 266.388 128.168 266.198 128.202C266.009 128.236 265.821 128.266 265.636 128.293C265.45 128.319 265.289 128.342 265.153 128.361C264.846 128.402 264.571 128.471 264.329 128.565C264.086 128.66 263.895 128.793 263.755 128.963C263.615 129.13 263.545 129.346 263.545 129.611C263.545 129.99 263.683 130.276 263.96 130.469C264.236 130.662 264.588 130.759 265.016 130.759ZM271.158 132.094V123.366H273.153V124.821H273.244C273.403 124.317 273.675 123.929 274.062 123.656C274.452 123.38 274.897 123.241 275.397 123.241C275.511 123.241 275.638 123.247 275.778 123.259C275.922 123.266 276.041 123.279 276.136 123.298V125.19C276.049 125.16 275.91 125.134 275.721 125.111C275.535 125.084 275.355 125.071 275.181 125.071C274.806 125.071 274.469 125.152 274.17 125.315C273.874 125.474 273.641 125.696 273.471 125.98C273.3 126.264 273.215 126.592 273.215 126.963V132.094H271.158ZM282.329 123.366V124.957H277.312V123.366H282.329ZM278.55 121.276H280.607V129.469C280.607 129.745 280.649 129.957 280.732 130.105C280.819 130.249 280.933 130.348 281.073 130.401C281.213 130.454 281.369 130.48 281.539 130.48C281.668 130.48 281.785 130.471 281.891 130.452C282.001 130.433 282.085 130.416 282.141 130.401L282.488 132.009C282.378 132.046 282.221 132.088 282.016 132.134C281.816 132.179 281.569 132.205 281.278 132.213C280.763 132.228 280.299 132.151 279.886 131.98C279.473 131.806 279.145 131.537 278.903 131.173C278.664 130.81 278.547 130.355 278.55 129.81V121.276ZM284.049 132.094V123.366H286.015V124.849H286.117C286.299 124.349 286.6 123.959 287.021 123.679C287.441 123.395 287.943 123.253 288.526 123.253C289.117 123.253 289.615 123.397 290.021 123.685C290.43 123.969 290.718 124.357 290.884 124.849H290.975C291.168 124.365 291.494 123.978 291.952 123.69C292.415 123.399 292.962 123.253 293.594 123.253C294.397 123.253 295.053 123.507 295.56 124.014C296.068 124.522 296.322 125.262 296.322 126.236V132.094H294.259V126.554C294.259 126.012 294.115 125.616 293.827 125.366C293.54 125.113 293.187 124.986 292.771 124.986C292.274 124.986 291.886 125.141 291.606 125.452C291.329 125.759 291.191 126.158 291.191 126.651V132.094H289.174V126.469C289.174 126.018 289.038 125.658 288.765 125.389C288.496 125.12 288.144 124.986 287.708 124.986C287.413 124.986 287.144 125.062 286.901 125.213C286.659 125.361 286.466 125.571 286.322 125.844C286.178 126.113 286.106 126.427 286.106 126.787V132.094H284.049ZM302.272 132.264C301.397 132.264 300.641 132.082 300.005 131.719C299.372 131.351 298.886 130.832 298.545 130.162C298.204 129.488 298.033 128.694 298.033 127.781C298.033 126.884 298.204 126.096 298.545 125.418C298.889 124.736 299.371 124.205 299.988 123.827C300.605 123.444 301.331 123.253 302.164 123.253C302.702 123.253 303.21 123.34 303.687 123.514C304.168 123.685 304.592 123.95 304.96 124.31C305.331 124.67 305.622 125.128 305.835 125.685C306.047 126.238 306.153 126.897 306.153 127.662V128.293H298.999V126.906H304.181C304.177 126.512 304.092 126.162 303.925 125.855C303.759 125.545 303.526 125.3 303.227 125.122C302.931 124.944 302.586 124.855 302.192 124.855C301.772 124.855 301.403 124.957 301.085 125.162C300.766 125.363 300.518 125.628 300.34 125.957C300.166 126.283 300.077 126.641 300.073 127.031V128.241C300.073 128.749 300.166 129.185 300.352 129.548C300.537 129.908 300.797 130.185 301.13 130.378C301.463 130.567 301.853 130.662 302.3 130.662C302.6 130.662 302.871 130.62 303.113 130.537C303.355 130.45 303.566 130.323 303.744 130.156C303.922 129.99 304.056 129.783 304.147 129.537L306.067 129.753C305.946 130.26 305.715 130.704 305.374 131.082C305.037 131.457 304.605 131.749 304.079 131.957C303.552 132.162 302.95 132.264 302.272 132.264ZM309.95 126.98V132.094H307.893V123.366H309.859V124.849H309.961C310.162 124.361 310.482 123.973 310.921 123.685C311.364 123.397 311.912 123.253 312.563 123.253C313.165 123.253 313.69 123.382 314.137 123.639C314.588 123.897 314.936 124.27 315.183 124.759C315.433 125.247 315.556 125.84 315.552 126.537V132.094H313.495V126.855C313.495 126.272 313.344 125.815 313.04 125.486C312.741 125.156 312.326 124.991 311.796 124.991C311.436 124.991 311.116 125.071 310.836 125.23C310.559 125.385 310.342 125.611 310.183 125.906C310.027 126.202 309.95 126.56 309.95 126.98ZM322.001 123.366V124.957H316.984V123.366H322.001ZM318.222 121.276H320.279V129.469C320.279 129.745 320.321 129.957 320.404 130.105C320.491 130.249 320.605 130.348 320.745 130.401C320.885 130.454 321.04 130.48 321.211 130.48C321.34 130.48 321.457 130.471 321.563 130.452C321.673 130.433 321.756 130.416 321.813 130.401L322.16 132.009C322.05 132.046 321.893 132.088 321.688 132.134C321.487 132.179 321.241 132.205 320.95 132.213C320.434 132.228 319.97 132.151 319.558 131.98C319.145 131.806 318.817 131.537 318.575 131.173C318.336 130.81 318.219 130.355 318.222 129.81V121.276Z" fill="#163145"/>
<defs>
<filter id="filter0_d_4088_20762" x="0" y="0.00976562" width="562" height="255.432" filterUnits="userSpaceOnUse" color-interpolation-filters="sRGB">
<feFlood flood-opacity="0" result="BackgroundImageFix"/>
<feColorMatrix in="SourceAlpha" type="matrix" values="0 0 0 0 0 0 0 0 0 0 0 0 0 0 0 0 0 0 127 0" result="hardAlpha"/>
<feOffset/>
<feGaussianBlur stdDeviation="8"/>
<feComposite in2="hardAlpha" operator="out"/>
<feColorMatrix type="matrix" values="0 0 0 0 0.85098 0 0 0 0 0.886275 0 0 0 0 0.909804 0 0 0 1 0"/>
<feBlend mode="normal" in2="BackgroundImageFix" result="effect1_dropShadow_4088_20762"/>
<feBlend mode="normal" in="SourceGraphic" in2="effect1_dropShadow_4088_20762" result="shape"/>
</filter>
<radialGradient id="paint0_radial_4088_20762" cx="0" cy="0" r="1" gradientUnits="userSpaceOnUse" gradientTransform="translate(281 127.726) rotate(159.901) scale(271.068 406.811)">
<stop stop-color="#239FFF"/>
<stop offset="0.524" stop-color="#85CAFF"/>
<stop offset="1" stop-color="#0078D4"/>
</radialGradient>
</defs>
</svg>
