<svg width="540" height="511" viewBox="0 0 540 511" fill="none" xmlns="http://www.w3.org/2000/svg">
<path d="M462.187 438.232C462.187 438.232 455.079 443.007 457.702 458.549C460.319 474.085 468.182 486.448 468.182 486.448H497.765C497.765 486.448 505.628 474.092 508.252 458.549C510.868 443.014 503.759 438.232 503.759 438.232H462.187Z" fill="#2E2C3F"/>
<path d="M503.752 438.233C503.752 438.417 503.618 438.593 503.35 438.762C503.082 438.939 502.687 439.108 502.165 439.27C501.643 439.439 501.009 439.594 500.247 439.743C499.493 439.891 498.632 440.025 497.666 440.152C496.7 440.278 495.649 440.391 494.514 440.49C493.385 440.589 492.187 440.673 490.924 440.737C489.662 440.807 488.364 440.857 487.024 440.892C485.692 440.927 484.338 440.948 482.977 440.948C481.608 440.948 480.262 440.927 478.922 440.892C477.582 440.857 476.284 440.807 475.022 440.737C473.767 440.673 472.568 440.589 471.432 440.49C470.297 440.391 469.246 440.278 468.287 440.152C467.321 440.025 466.461 439.891 465.699 439.743C464.944 439.594 464.303 439.439 463.781 439.27C463.259 439.108 462.864 438.939 462.596 438.762C462.335 438.593 462.201 438.417 462.201 438.233C462.201 438.057 462.335 437.881 462.596 437.704C462.864 437.535 463.259 437.366 463.781 437.197C464.303 437.035 464.944 436.879 465.699 436.731C466.461 436.583 467.321 436.442 468.287 436.322C469.246 436.195 470.297 436.083 471.432 435.984C472.568 435.885 473.767 435.8 475.022 435.73C476.284 435.666 477.582 435.61 478.922 435.575C480.262 435.539 481.608 435.525 482.977 435.525C484.338 435.525 485.692 435.539 487.024 435.575C488.364 435.61 489.662 435.666 490.924 435.73C492.187 435.8 493.385 435.885 494.514 435.984C495.649 436.083 496.7 436.195 497.666 436.322C498.632 436.442 499.493 436.583 500.247 436.731C501.009 436.879 501.643 437.035 502.165 437.197C502.687 437.366 503.082 437.535 503.35 437.704C503.618 437.881 503.752 438.057 503.752 438.233Z" fill="#2E2C3F"/>
<path d="M502.432 438.234C502.432 438.361 502.305 438.488 502.059 438.615C501.812 438.742 501.438 438.862 500.951 438.982C500.465 439.102 499.865 439.207 499.153 439.313C498.441 439.419 497.637 439.518 496.734 439.609C495.832 439.701 494.844 439.779 493.787 439.849C492.722 439.927 491.6 439.983 490.423 440.033C489.238 440.082 488.025 440.117 486.77 440.145C485.514 440.167 484.252 440.181 482.976 440.181C481.699 440.181 480.43 440.167 479.175 440.145C477.926 440.117 476.706 440.082 475.529 440.033C474.344 439.983 473.223 439.927 472.165 439.849C471.1 439.779 470.12 439.701 469.217 439.609C468.314 439.518 467.503 439.419 466.798 439.313C466.086 439.207 465.487 439.102 465 438.982C464.506 438.862 464.14 438.742 463.893 438.615C463.639 438.488 463.519 438.361 463.519 438.234C463.519 438.107 463.639 437.98 463.893 437.86C464.14 437.734 464.506 437.614 465 437.494C465.487 437.374 466.086 437.261 466.798 437.155C467.503 437.049 468.314 436.951 469.217 436.866C470.12 436.774 471.1 436.69 472.165 436.619C473.223 436.549 474.344 436.492 475.529 436.443C476.706 436.394 477.926 436.358 479.175 436.33C480.43 436.309 481.699 436.295 482.976 436.295C484.252 436.295 485.514 436.309 486.77 436.33C488.025 436.358 489.238 436.394 490.423 436.443C491.6 436.492 492.722 436.549 493.787 436.619C494.844 436.69 495.832 436.774 496.734 436.866C497.637 436.951 498.441 437.049 499.153 437.155C499.865 437.261 500.465 437.374 500.951 437.494C501.438 437.614 501.812 437.734 502.059 437.86C502.305 437.98 502.432 438.107 502.432 438.234Z" fill="white"/>
<path d="M493.329 396.365L480.318 400.815L491.425 404.56C488.449 414.39 483.654 420.744 477.568 421.605C464.07 423.495 449.289 397.578 444.543 363.728C442.871 351.74 442.667 340.358 443.725 330.576L456.51 326.119L444.317 326.091C446.708 310.675 452.434 300.125 460.396 299.011C473.901 297.121 488.689 323.038 493.435 356.888C495.48 371.556 495.297 385.322 493.329 396.365Z" fill="#51A4E3"/>
<path d="M480.367 438.705C476.594 418.409 471.764 391.534 470.191 378.812C467.377 356.069 463.379 332.818 463.336 332.585L463.795 332.508C463.837 332.741 467.836 356.005 470.649 378.762C472.222 391.47 477.053 418.332 480.826 438.635L480.367 438.705Z" fill="#2E2C3F"/>
<path d="M533.92 352.169C524.47 385.025 506.205 408.6 493.103 404.841C479.986 401.069 477.031 371.386 486.474 338.531C495.923 305.689 514.195 282.1 527.312 285.873C537.446 288.785 541.501 307.205 538.462 330.618L521.649 337.163L536.593 341.457C535.852 344.976 534.957 348.566 533.92 352.169Z" fill="#51A4E3"/>
<path d="M493.032 405.073C486.593 403.219 482.362 395.257 481.093 382.619C479.845 370.067 481.671 354.397 486.248 338.48L486.692 338.607C482.129 354.475 480.303 370.081 481.558 382.584C482.792 395.01 486.911 402.838 493.166 404.622L493.032 405.073Z" fill="#2E2C3F"/>
<path d="M486.424 437.838L485.966 437.746C491.064 412.676 498.159 378.671 502.905 359.038C511.099 325.195 522.122 302.889 522.235 302.656L522.658 302.861C522.545 303.079 511.544 325.35 503.363 359.136C498.61 378.776 491.53 412.782 486.424 437.838Z" fill="#2E2C3F"/>
<mask id="mask0_4287_21423" style="mask-type:luminance" maskUnits="userSpaceOnUse" x="0" y="0" width="430" height="452">
<path d="M0.59375 0.441406H429.36V451.775H0.59375V0.441406Z" fill="white"/>
</mask>
<g mask="url(#mask0_4287_21423)">
<path d="M12.8285 322.663C12.5957 322.099 12.3701 321.514 12.1515 320.95C6.8483 307.078 3.26585 292.593 1.92596 277.805C1.48873 273.009 1.27011 268.193 1.29832 263.348C1.42526 248.25 4.71152 232.876 11.0866 219.047C14.8877 210.775 19.8241 203.053 25.8325 196.255C44.2666 175.359 69.1816 175.225 93.8145 165.43C111.304 158.463 128.44 150.24 143.884 139.387C159.335 128.534 172.84 115.057 182.953 99.0417C194.56 80.6146 195.823 60.904 203.933 41.7012C206.5 35.6153 211.231 28.6619 218.784 22.04C222.465 18.3095 226.556 14.9315 231.055 12.0895C235.568 9.2264 240.49 6.89921 245.885 5.24197C271.075 -2.55763 299.671 2.83721 323.134 14.8399C348.176 27.6887 369.36 45.601 386.031 66.8631C396.708 80.4524 405.516 95.3676 412.357 111.221C426.595 144.337 432.145 181.347 427.504 218.102C414.134 324.137 333.423 430.081 224.179 448.077C223.157 448.247 222.162 448.402 221.14 448.529C220.533 448.642 219.884 448.733 219.257 448.811C216.013 449.269 212.726 449.615 209.468 449.883C200.9 450.56 192.297 450.623 183.771 449.974C177.057 449.445 170.393 448.501 163.813 447.104C156.19 445.482 148.729 443.606 141.494 441.406C135.76 439.707 130.154 437.803 124.667 435.652C112.178 430.849 100.352 424.925 89.2024 417.69C83.8076 414.213 78.5679 410.419 73.5256 406.259C66.805 400.8 60.3876 394.743 54.2735 388.015C42.4613 375.039 31.862 360.547 23.3149 344.962C19.3516 337.762 15.8185 330.294 12.8285 322.663Z" fill="#B9E1FF"/>
</g>
<path d="M458.864 489.805H205.335C197.296 489.805 190.772 483.289 190.772 475.25V76.504C190.772 68.4575 197.296 61.9414 205.335 61.9414H458.864C466.903 61.9414 473.427 68.4575 473.427 76.504V475.236C473.427 483.289 466.903 489.805 458.864 489.805Z" fill="#2E2C3F"/>
<path d="M449.937 488.749H196.422C188.382 488.749 181.866 482.226 181.866 474.187V75.4551C181.866 67.4158 188.382 60.8926 196.422 60.8926H449.951C457.99 60.8926 464.513 67.4158 464.513 75.4551V474.187C464.513 482.226 457.99 488.749 449.937 488.749Z" fill="white"/>
<path d="M449.938 489.439H196.423C188.017 489.439 181.162 482.598 181.162 474.171V75.4533C181.162 67.0402 188.003 60.1855 196.423 60.1855H449.952C458.365 60.1855 465.22 67.0261 465.22 75.4533V474.185C465.205 482.598 458.365 489.439 449.938 489.439ZM196.423 61.5819C188.778 61.5819 182.551 67.8088 182.551 75.4533V474.185C182.551 481.83 188.778 488.057 196.423 488.057H449.952C457.596 488.057 463.823 481.83 463.823 474.185V75.4533C463.823 67.8088 457.596 61.5819 449.952 61.5819H196.423Z" fill="#2E2C3F"/>
<path d="M206.655 96.4473H439.381V437.049H206.655V96.4473Z" fill="white"/>
<path d="M405.284 217.209H240.752C221.916 217.209 206.655 201.942 206.655 183.113V95.6387H439.381V183.113C439.381 201.942 424.113 217.209 405.284 217.209Z" fill="#51A4E3" fill-opacity="0.5"/>
<path d="M315.166 304.809H225.767C224.843 304.809 224.103 304.061 224.103 303.144V297.326C224.103 296.41 224.843 295.662 225.767 295.662H315.166C316.09 295.662 316.83 296.41 316.83 297.326V303.144C316.83 304.061 316.09 304.809 315.166 304.809Z" fill="#B9E1FF"/>
<path d="M224.103 314.828H422.287V317.727H224.103V314.828Z" fill="#B9E1FF"/>
<path d="M224.103 324.379H422.287V327.284H224.103V324.379Z" fill="#B9E1FF"/>
<path d="M224.103 333.926H358.416V336.831H224.103V333.926Z" fill="#B9E1FF"/>
<path d="M275.243 437H229.116C226.619 437 224.603 434.976 224.603 432.487V361.507C224.603 359.011 226.619 356.994 229.116 356.994H275.243C277.733 356.994 279.757 359.011 279.757 361.507V432.487C279.764 434.976 277.747 437 275.243 437Z" fill="#B9E1FF"/>
<path d="M237.896 391.598H266.471V394.567H237.896V391.598Z" fill="#51A4E3" fill-opacity="0.5"/>
<path d="M243.51 399.412H260.858V402.374H243.51V399.412Z" fill="#51A4E3" fill-opacity="0.5"/>
<path d="M346.475 437H300.347C297.858 437 295.834 434.976 295.834 432.487V361.507C295.834 359.011 297.858 356.994 300.347 356.994H346.475C348.964 356.994 350.988 359.011 350.988 361.507V432.487C350.988 434.976 348.964 437 346.475 437Z" fill="#51A4E3" fill-opacity="0.5"/>
<path d="M417.695 437H371.575C369.078 437 367.062 434.976 367.062 432.487V361.507C367.062 359.011 369.078 356.994 371.575 356.994H417.695C420.192 356.994 422.209 359.011 422.209 361.507V432.487C422.209 434.976 420.192 437 417.695 437Z" fill="#B9E1FF"/>
<path d="M225.061 346.07H422.596V347.467H225.061V346.07Z" fill="#2E2C3F"/>
<path d="M412.159 281.115H233.868C227.296 281.115 221.979 275.798 221.979 269.226V127.669C221.979 121.097 227.296 115.779 233.868 115.779H412.173C418.745 115.779 424.063 121.097 424.063 127.669V269.226C424.049 275.798 418.731 281.115 412.159 281.115Z" fill="white"/>
<path d="M412.159 281.642H233.869C227.028 281.642 221.457 276.078 221.457 269.223V127.667C221.457 120.826 227.021 115.248 233.869 115.248H412.159C419 115.248 424.578 120.812 424.578 127.667V269.223C424.578 276.064 419.014 281.642 412.159 281.642ZM233.869 116.299C227.606 116.299 222.508 121.397 222.508 127.667V269.223C222.508 275.492 227.606 280.591 233.869 280.591H412.159C418.428 280.591 423.527 275.492 423.527 269.223V127.667C423.527 121.397 418.428 116.299 412.159 116.299H233.869Z" fill="#2E2C3F"/>
<path d="M290.391 197.835L288.078 200.571L288.346 204.154L284.855 205.007L282.965 208.053L279.651 206.699L276.329 208.053L274.432 205.007L270.949 204.154L271.217 200.571L268.896 197.835L271.217 195.092L270.949 191.509L274.432 190.663L276.329 187.609L279.651 188.963L282.965 187.609L284.855 190.663L288.346 191.509L288.078 195.092L290.391 197.835Z" fill="#51A4E3"/>
<path d="M276.611 201.009C276.534 201.009 276.456 200.995 276.393 200.974C276.188 200.911 276.019 200.755 275.934 200.551L274.425 196.778C274.27 196.404 274.461 195.988 274.834 195.833C275.201 195.678 275.624 195.868 275.779 196.242L276.957 199.183L283.79 194.761C284.136 194.543 284.587 194.641 284.806 194.973C285.025 195.304 284.919 195.77 284.587 195.988L277.006 200.882C276.879 200.974 276.753 201.009 276.611 201.009Z" fill="white"/>
<path d="M305.644 192.812H308.733L304.481 204.801H300.821L296.568 192.812H299.671L302.647 201.86L305.644 192.812Z" fill="black"/>
<path d="M317.288 195.154H312.866V197.58H316.78V199.829H312.866V202.467H317.288V204.801H309.939V192.812H317.288V195.154Z" fill="black"/>
<path d="M324.093 192.812C327.033 192.812 328.5 194.498 328.5 196.585C328.5 198.095 327.682 199.512 325.842 200.048L328.613 204.801H325.32L322.823 200.281H322.118V204.801H319.191V192.812H324.093ZM323.909 195.238H322.097V198.221H323.909C325.009 198.221 325.524 197.657 325.524 196.712C325.524 195.817 325.009 195.238 323.909 195.238Z" fill="black"/>
<path d="M330.312 192.812H333.246V204.801H330.312V192.812Z" fill="black"/>
<path d="M335.355 192.812H343.162V195.154H338.282V197.685H341.935V199.956H338.282V204.815H335.355V192.812Z" fill="black"/>
<path d="M344.699 192.812H347.626V204.801H344.699V192.812Z" fill="black"/>
<path d="M357.09 195.154H352.661V197.58H356.575V199.829H352.661V202.467H357.09V204.801H349.734V192.812H357.09V195.154Z" fill="black"/>
<path d="M369.755 198.807C369.755 202.361 367.301 204.801 363.465 204.801H358.979V192.812H363.465C367.301 192.812 369.755 195.238 369.755 198.807ZM363.288 202.283C365.489 202.283 366.793 201.021 366.793 198.821C366.793 196.621 365.489 195.316 363.288 195.316H361.906V202.283H363.288Z" fill="black"/>
<path d="M310.003 270.761H244.355C242.973 270.761 241.858 269.646 241.858 268.264V253.948C241.858 252.566 242.973 251.459 244.355 251.459H310.003C311.385 251.459 312.492 252.566 312.492 253.948V268.264C312.492 269.646 311.385 270.761 310.003 270.761Z" fill="#51A4E3"/>
<path d="M401.679 270.761H336.032C334.649 270.761 333.535 269.646 333.535 268.264V253.948C333.535 252.566 334.649 251.459 336.032 251.459H401.679C403.062 251.459 404.169 252.566 404.169 253.948V268.264C404.169 269.646 403.062 270.761 401.679 270.761Z" fill="#B9E1FF"/>
<path d="M359.862 260.535H379.819V262.016H359.862V260.535Z" fill="#2E2C3F"/>
<path d="M266.216 260.535H286.173V262.016H266.216V260.535Z" fill="#2E2C3F"/>
<path d="M369.536 227.417H276.491C276.033 227.417 275.659 227.05 275.659 226.592V218.327C275.659 217.869 276.033 217.502 276.491 217.502H369.536C370.002 217.502 370.369 217.869 370.369 218.327V226.592C370.369 227.05 370.002 227.417 369.536 227.417Z" fill="#B9E1FF"/>
<path d="M287.593 232.227H358.445V235.654H287.593V232.227Z" fill="#B9E1FF"/>
<path d="M349.776 153.901C349.776 155.657 349.6 157.399 349.261 159.12C348.916 160.841 348.408 162.512 347.738 164.141C347.061 165.763 346.243 167.307 345.263 168.767C344.289 170.227 343.175 171.574 341.934 172.822C340.693 174.063 339.339 175.17 337.879 176.151C336.419 177.124 334.875 177.949 333.253 178.619C331.631 179.289 329.96 179.797 328.239 180.142C326.511 180.488 324.769 180.657 323.013 180.657C321.257 180.657 319.516 180.488 317.795 180.142C316.074 179.797 314.396 179.289 312.774 178.619C311.152 177.949 309.607 177.124 308.148 176.151C306.688 175.17 305.334 174.063 304.093 172.822C302.851 171.574 301.744 170.227 300.764 168.767C299.791 167.307 298.966 165.763 298.296 164.141C297.619 162.512 297.118 160.841 296.773 159.12C296.427 157.399 296.258 155.657 296.258 153.901C296.258 152.145 296.427 150.403 296.773 148.676C297.118 146.955 297.619 145.284 298.296 143.662C298.966 142.033 299.791 140.495 300.764 139.036C301.744 137.569 302.851 136.222 304.093 134.981C305.334 133.739 306.688 132.625 308.148 131.652C309.607 130.672 311.152 129.854 312.774 129.177C314.396 128.507 316.074 127.999 317.795 127.653C319.516 127.315 321.257 127.139 323.013 127.139C324.769 127.139 326.511 127.315 328.239 127.653C329.96 127.999 331.631 128.507 333.253 129.177C334.875 129.854 336.419 130.672 337.879 131.652C339.339 132.625 340.693 133.739 341.934 134.981C343.175 136.222 344.289 137.569 345.263 139.036C346.243 140.495 347.061 142.033 347.738 143.662C348.408 145.284 348.916 146.955 349.261 148.676C349.6 150.403 349.776 152.145 349.776 153.901Z" fill="#51A4E3"/>
<path d="M330.793 147.406C330.793 147.914 330.737 148.422 330.638 148.922C330.539 149.423 330.391 149.91 330.201 150.382C330.003 150.848 329.763 151.299 329.481 151.722C329.199 152.145 328.875 152.54 328.515 152.9C328.156 153.259 327.761 153.584 327.337 153.866C326.907 154.148 326.463 154.388 325.991 154.585C325.518 154.783 325.031 154.931 324.531 155.029C324.03 155.128 323.529 155.178 323.015 155.178C322.507 155.178 321.999 155.128 321.498 155.029C320.998 154.931 320.511 154.783 320.039 154.585C319.573 154.388 319.122 154.148 318.699 153.866C318.276 153.584 317.881 153.259 317.521 152.9C317.161 152.54 316.837 152.145 316.555 151.722C316.273 151.299 316.033 150.848 315.836 150.382C315.638 149.91 315.49 149.423 315.391 148.922C315.293 148.422 315.243 147.914 315.243 147.406C315.243 146.891 315.293 146.391 315.391 145.89C315.49 145.389 315.638 144.903 315.836 144.43C316.033 143.958 316.273 143.513 316.555 143.083C316.837 142.66 317.161 142.272 317.521 141.906C317.881 141.546 318.276 141.221 318.699 140.939C319.122 140.657 319.573 140.418 320.039 140.22C320.511 140.03 320.998 139.882 321.498 139.783C321.999 139.684 322.507 139.635 323.015 139.635C323.529 139.635 324.03 139.684 324.531 139.783C325.031 139.882 325.518 140.03 325.991 140.22C326.463 140.418 326.907 140.657 327.337 140.939C327.761 141.221 328.156 141.546 328.515 141.906C328.875 142.272 329.199 142.66 329.481 143.083C329.763 143.513 330.003 143.958 330.201 144.43C330.391 144.903 330.539 145.389 330.638 145.89C330.737 146.391 330.793 146.891 330.793 147.406Z" fill="white"/>
<path d="M334.883 168.167H311.152V160.241C311.152 158.858 312.267 157.744 313.642 157.744H332.372C333.754 157.744 334.868 158.858 334.868 160.241V168.167H334.883Z" fill="white"/>
<path d="M309.121 391.598H337.689V394.567H309.121V391.598Z" fill="#B9E1FF"/>
<path d="M314.735 399.412H332.083V402.374H314.735V399.412Z" fill="#B9E1FF"/>
<path d="M380.341 391.598H408.916V394.567H380.341V391.598Z" fill="#51A4E3" fill-opacity="0.5"/>
<path d="M385.954 399.412H403.302V402.374H385.954V399.412Z" fill="#51A4E3" fill-opacity="0.5"/>
<path d="M332.181 464.623C332.181 465.216 332.125 465.801 332.012 466.379C331.892 466.958 331.723 467.522 331.497 468.065C331.272 468.615 330.997 469.13 330.665 469.623C330.334 470.117 329.967 470.568 329.544 470.991C329.128 471.408 328.677 471.781 328.183 472.106C327.689 472.437 327.174 472.712 326.624 472.938C326.081 473.164 325.517 473.333 324.939 473.453C324.361 473.565 323.775 473.622 323.183 473.622C322.591 473.622 322.005 473.565 321.427 473.453C320.849 473.333 320.285 473.164 319.735 472.938C319.192 472.712 318.67 472.437 318.183 472.106C317.689 471.781 317.238 471.408 316.815 470.991C316.399 470.568 316.025 470.117 315.701 469.623C315.369 469.13 315.094 468.615 314.869 468.065C314.643 467.522 314.467 466.958 314.354 466.379C314.241 465.801 314.185 465.216 314.185 464.623C314.185 464.031 314.241 463.446 314.354 462.867C314.467 462.289 314.643 461.725 314.869 461.182C315.094 460.632 315.369 460.117 315.701 459.624C316.025 459.13 316.399 458.679 316.815 458.262C317.238 457.839 317.689 457.466 318.183 457.141C318.67 456.81 319.192 456.535 319.735 456.309C320.285 456.083 320.849 455.914 321.427 455.794C322.005 455.681 322.591 455.625 323.183 455.625C323.775 455.625 324.361 455.681 324.939 455.794C325.517 455.914 326.081 456.083 326.624 456.309C327.174 456.535 327.689 456.81 328.183 457.141C328.677 457.466 329.128 457.839 329.544 458.262C329.967 458.679 330.334 459.13 330.665 459.624C330.997 460.117 331.272 460.632 331.497 461.182C331.723 461.725 331.892 462.289 332.012 462.867C332.125 463.446 332.181 464.031 332.181 464.623Z" fill="#B9E1FF"/>
<path d="M289.433 73.1094H356.921V74.9288H289.433V73.1094Z" fill="#51A4E3" fill-opacity="0.5"/>
<path d="M142.631 90.9613C150.042 86.0671 156.939 88.6341 156.939 88.6341C162.405 85.6158 166.918 87.9923 171.114 91.0882C179.386 97.1883 184.435 115.108 181.466 125.248C179.478 132.047 174.118 138.471 168.723 138.478C164.979 138.492 157.729 135.707 152.616 135.925C147.504 136.144 138.357 144.388 133.653 143.133C128.95 141.884 125.233 125.721 129.485 111.941C133.322 99.5648 138.498 93.6834 142.631 90.9613Z" fill="#2E2C3F"/>
<path d="M149.851 130.746C149.851 130.746 145.38 152.283 144.435 154.484C143.483 156.684 162.432 154.879 166.395 153.63C170.358 152.375 171.712 149.216 171.712 149.216C171.712 149.216 166.296 135.281 167.763 129.237C169.23 123.201 149.851 130.746 149.851 130.746Z" fill="#EFA695"/>
<path d="M135.914 145.282C135.914 145.282 144.356 144.21 147.064 144.076C149.772 143.963 169.884 143.977 169.884 143.977L180.893 145.331L181.605 166.262L156.253 180.718L128.319 169.047L135.914 145.282Z" fill="#EFA695"/>
<path d="M152.664 144.607C160.386 144.924 166.098 136.292 168.298 128.281C170.499 120.277 170.957 92.1532 153.94 92.6892C136.917 93.2252 137.22 111.596 137.742 119.868C138.271 128.14 142.206 144.169 152.664 144.607Z" fill="#EFA695"/>
<path d="M144.583 121.059C144.611 121.567 144.547 122.004 144.378 122.378C144.209 122.751 143.983 122.942 143.708 122.963C143.433 122.984 143.186 122.815 142.968 122.469C142.749 122.124 142.622 121.701 142.587 121.193C142.552 120.685 142.622 120.248 142.791 119.874C142.961 119.5 143.186 119.31 143.461 119.289C143.736 119.268 143.983 119.437 144.202 119.783C144.421 120.128 144.547 120.551 144.583 121.059Z" fill="#2E2C3F"/>
<path d="M158.003 120.736C158.039 121.243 157.968 121.688 157.799 122.054C157.63 122.428 157.411 122.626 157.136 122.64C156.861 122.661 156.614 122.499 156.396 122.153C156.177 121.807 156.05 121.384 156.015 120.877C155.979 120.369 156.05 119.925 156.219 119.558C156.388 119.184 156.607 118.987 156.882 118.973C157.157 118.951 157.404 119.114 157.623 119.459C157.841 119.805 157.968 120.228 158.003 120.736Z" fill="#2E2C3F"/>
<path d="M155.09 132.779L149.625 133.047C149.625 133.047 150.718 134.641 152.361 134.641C154.815 134.634 155.09 132.779 155.09 132.779Z" fill="white"/>
<path d="M149.365 129.712C148.907 129.712 148.469 129.508 148.18 129.148C147.884 128.789 147.771 128.316 147.87 127.872L148.258 126.031L148.716 126.13L148.328 127.971C148.265 128.295 148.342 128.612 148.547 128.852C148.751 129.099 149.048 129.247 149.365 129.247H149.753V129.727L149.365 129.712Z" fill="#2E2C3F"/>
<path d="M153.855 115.737C153.855 115.737 157.508 114.651 160.04 116.773L153.855 115.737Z" fill="#2E2C3F"/>
<path d="M145.443 115.983C145.443 115.983 142.629 114.84 139.752 116.963L145.443 115.983Z" fill="#2E2C3F"/>
<path d="M142.361 102.54C142.361 102.54 147.792 113.549 155.429 117.068C166.423 122.131 173.807 120.911 173.807 120.911L170.09 99.12C170.09 99.12 162.192 90.9466 158.906 90.7421C155.619 90.5376 148.194 92.1878 146.973 92.4417C145.761 92.7026 141.529 96.9056 141.529 96.9056L142.361 102.54Z" fill="#2E2C3F"/>
<path d="M142.361 102.539C142.361 102.539 137.058 109.852 137.94 122.842C138.821 135.832 130.662 124.457 130.662 124.457C130.662 124.457 131.318 112.849 131.572 112.242C131.826 111.643 139.075 98.9846 139.075 98.9846L144.548 94.4219C144.548 94.4219 147.333 95.5079 146.959 96.2907C146.593 97.1087 142.361 102.539 142.361 102.539Z" fill="#2E2C3F"/>
<path d="M142.362 102.744C142.299 102.744 142.221 102.709 142.179 102.645C142.129 102.554 141.022 100.509 141.671 97.2223C141.699 97.1236 141.798 97.046 141.904 97.0742C142.003 97.0954 142.08 97.2012 142.052 97.2999C141.431 100.431 142.503 102.441 142.517 102.455C142.567 102.554 142.524 102.674 142.44 102.723C142.426 102.737 142.383 102.744 142.362 102.744Z" fill="#51A4E3" fill-opacity="0.5"/>
<path d="M167.735 120.734C167.735 120.734 172.89 118.83 173.313 123.266C173.744 127.702 166.882 131.792 166.882 131.792L167.735 120.734Z" fill="#EFA695"/>
<path d="M170.626 129.289C170.626 129.571 170.527 129.818 170.323 130.022C170.118 130.219 169.879 130.325 169.589 130.325C169.307 130.325 169.06 130.219 168.856 130.022C168.659 129.818 168.553 129.571 168.553 129.289C168.553 128.999 168.659 128.76 168.856 128.555C169.06 128.351 169.307 128.252 169.589 128.252C169.879 128.252 170.118 128.351 170.323 128.555C170.527 128.76 170.626 128.999 170.626 129.289Z" fill="white"/>
<path d="M169.349 123.203C169.349 123.203 173.897 122.526 168.834 127.688L169.349 123.203Z" fill="#2E2C3F"/>
<path d="M163.785 114.205C163.771 114.205 163.771 114.205 163.764 114.205C152.904 112.646 149.568 101.433 149.533 101.313C149.505 101.215 149.554 101.102 149.674 101.074C149.787 101.045 149.893 101.102 149.914 101.215C149.942 101.327 153.214 112.301 163.814 113.817C163.912 113.831 163.99 113.937 163.976 114.049C163.969 114.141 163.877 114.205 163.785 114.205Z" fill="#51A4E3" fill-opacity="0.5"/>
<path d="M167.763 112.616C162.227 112.616 158.581 108.625 158.546 108.59C158.468 108.512 158.482 108.385 158.56 108.307C158.637 108.23 158.764 108.244 158.842 108.322C158.877 108.357 162.777 112.63 168.616 112.179C168.722 112.165 168.821 112.257 168.835 112.362C168.849 112.475 168.757 112.567 168.658 112.581C168.341 112.602 168.045 112.616 167.763 112.616Z" fill="#51A4E3" fill-opacity="0.5"/>
<path d="M112.355 216.08C112.355 216.08 96.9388 256.657 101.91 265.007C106.882 273.357 136.226 228.506 136.226 228.506L124.294 200.064L112.355 216.08Z" fill="#51A4E3"/>
<path d="M133.363 459.405C133.525 462.36 115.056 472.028 109.238 476.182C103.406 480.307 86.9673 493.297 84.5978 489.376C82.2213 485.462 87.0449 482.218 92.9334 477.218C94.9432 475.505 95.9305 473.227 97.0659 471.901C99.252 469.355 101.424 463.255 104.005 460.364C106.015 458.142 92.9757 437.79 92.5243 435.273L114.915 428.037C116.114 429.328 125.69 448.157 127.157 449.87C130.33 453.615 133.271 457.628 133.363 459.405Z" fill="#EFA695"/>
<path d="M135.126 460.904C135.126 460.904 139.858 467.322 138.208 468.817C131.713 474.656 118.61 480.051 111.868 484.296C98.533 492.695 88.4627 498.167 83.9775 488.965L106.996 475.989L120.126 469.952L128.652 465.206L135.126 460.904Z" fill="#2E2C3F"/>
<path d="M127.39 449.947C126.981 449.51 126.995 450.138 126.84 451.379C123.553 456.301 119.209 462.282 113.737 459.51C111.96 458.614 108.533 454.256 105.902 455.279C102.947 456.428 102.968 459.496 102.489 461.111C101.093 465.737 96.7697 471.858 91.5159 476.999C85.0703 483.311 82.2636 485.744 84.1888 489.39C84.8658 490.68 89.2169 494.933 111.643 479.658C117.545 475.631 136.572 466.872 136.198 463.565C135.817 460.251 130.895 453.706 127.39 449.947Z" fill="#51A4E3"/>
<path d="M126.056 447.953L122.784 485.167L111.268 484.377L102.841 478.531L105.542 441.176L126.056 447.953Z" fill="#EFA695"/>
<mask id="mask1_4287_21423" style="mask-type:luminance" maskUnits="userSpaceOnUse" x="77" y="469" width="50" height="42">
<path d="M77.3213 469.83H126.065V510.676H77.3213V469.83Z" fill="white"/>
</mask>
<g mask="url(#mask1_4287_21423)">
<path d="M123.555 494.997C122.941 498.347 121.052 499.285 117.92 501.739C114.789 504.193 109.528 510.23 99.3805 510.434C89.2326 510.639 79.7405 507.437 79.2186 503.22C79.0423 501.76 78.7603 499.616 80.4104 497.134C82.519 493.975 86.8137 490.999 89.7192 489.299C94.9095 486.253 99.1407 480.132 100.939 476.69C102.758 473.256 102.434 469.652 108.076 470.675C113.696 471.697 119.091 482.896 119.091 482.896L122.878 478.086C124.733 477.55 124.556 485.364 124.091 490.759C123.901 492.585 123.71 494.144 123.555 494.997Z" fill="#51A4E3"/>
</g>
<mask id="mask2_4287_21423" style="mask-type:luminance" maskUnits="userSpaceOnUse" x="77" y="489" width="48" height="22">
<path d="M77.3213 489.684H124.26V510.671H77.3213V489.684Z" fill="white"/>
</mask>
<g mask="url(#mask2_4287_21423)">
<path d="M123.555 494.994C122.941 498.344 121.052 499.282 117.92 501.736C114.789 504.19 109.528 510.227 99.3805 510.431C89.2326 510.636 79.7405 507.434 79.2186 503.217C79.0423 501.757 78.7603 499.613 80.4104 497.131C80.4104 497.131 82.7588 507.321 100.445 505.121C112.547 503.612 110.622 501.08 114.874 498.541C118.71 496.264 122.3 494.578 124.077 490.756C123.901 492.582 123.71 494.141 123.555 494.994Z" fill="#2E2C3F"/>
</g>
<path d="M184.955 284.731C184.955 284.731 179.497 286.424 172.889 281.565C167.149 277.348 176.662 243.004 176.662 243.004L180.16 245.564L183.397 258.102L184.955 284.731Z" fill="#2E2C3F"/>
<path d="M169.949 227.537C169.949 227.537 187.798 260.174 175.612 292.388C163.426 324.595 147.756 366.386 147.756 366.386L129.907 466.934C129.907 466.934 103.356 466.504 95.0843 462.59C95.0843 462.59 108.568 371.618 111.191 355.518C113.8 339.411 120.768 301.111 120.768 301.111C120.768 301.111 93.3424 338.974 88.1309 343.325L128.173 457.357L105.973 463.02C105.973 463.02 46.3474 365.962 44.6126 342.021C42.8707 318.072 121.212 230.591 121.212 230.591L169.949 227.537Z" fill="#2E2C3F"/>
<path d="M96.9248 448.297L105.317 393.812L106.1 393.932L97.7076 448.417L96.9248 448.297Z" fill="white"/>
<path d="M120.45 300.345L125.972 269.746L126.755 269.887L121.233 300.486L120.45 300.345Z" fill="white"/>
<path d="M101.064 236.271C101.064 236.271 87.4538 232.434 93.2647 199.402L111.847 212.16L104.097 232.575L101.064 236.271Z" fill="#2E2C3F"/>
<path d="M76.2274 177.575C76.2274 177.575 81.4671 191.778 88.9987 202.208C91.9253 206.249 99.4075 215.12 102.764 216.121C113.568 202.955 99.471 186.601 99.471 186.601C99.471 186.601 91.2483 176.503 83.5263 168.908C83.5263 168.908 81.5447 168.576 78.1597 170.022C74.7676 171.475 76.2274 177.575 76.2274 177.575Z" fill="#EFA695"/>
<path d="M83.5257 168.923C83.5257 168.923 80.5638 163.267 78.7867 162.033C77.0096 160.792 74.6189 159.409 72.6091 158.168C70.5992 156.927 69.3581 155.277 68.4907 156.779C67.6233 158.274 72.2988 162.117 72.2988 162.117C72.2988 162.117 68.9491 161.236 65.2185 158.732C61.488 156.229 57.3061 152.992 56.615 154.05C55.9239 155.115 56.0015 155.686 56.0015 155.686C56.0015 155.686 54.1327 155.002 53.5967 155.82C53.0607 156.638 54.3019 158.154 54.3019 158.154C54.3019 158.154 53.1101 159.233 53.3146 160.009C53.5191 160.806 58.0466 166.137 62.2002 168.944C62.2002 168.944 54.5699 164.43 54.3936 164.868C54.2102 165.291 54.9648 167.54 60.7052 170.939C66.4456 174.353 76.4454 177.766 76.4454 177.766L83.5257 168.923Z" fill="#EFA695"/>
<path d="M66.8406 168.385C66.8054 168.357 62.687 165.451 59.7745 163.244C56.8479 161.03 54.161 158.357 54.1328 158.322L54.4643 157.99C54.4925 158.011 57.1511 160.663 60.0566 162.856C62.9691 165.071 67.0734 167.962 67.1086 167.983L66.8406 168.385Z" fill="#2E2C3F"/>
<path d="M68.6317 165.199C62.9195 161.201 55.9238 155.933 55.8604 155.884L56.1424 155.51C56.2059 155.559 63.2016 160.827 68.8996 164.833L68.6317 165.199Z" fill="#2E2C3F"/>
<path d="M121.614 147.877C121.614 147.877 111.282 150.663 105.225 169.047C102.051 178.645 99.0752 186.064 99.0752 186.064C99.0752 186.064 104.273 197.911 103.074 212.834C101.875 227.756 107.573 229.949 101.064 236.268C101.064 236.268 111.663 227.601 115.436 220.21C119.209 212.82 125.076 172.129 125.076 172.129L121.614 147.877Z" fill="#51A4E3"/>
<path d="M180.88 145.346C180.88 145.346 188.081 144.55 195.697 148.365C195.697 148.365 188.32 157.159 186.43 173.562C184.526 189.965 184.054 203.286 181.431 212.313C178.807 221.333 178.109 233.469 179.766 247.496C179.766 247.496 159.329 252.489 140.775 249.872C122.228 247.249 108.442 240.119 108.442 240.119C108.442 240.119 106.538 237.736 109.633 233.222C112.729 228.709 119.147 205.649 117.482 197.8C115.818 189.951 114.788 182.906 117.638 174.337C120.487 165.776 122.235 155.001 121.446 147.864L138.617 144.719C138.617 144.719 134.598 161.341 139.358 164.19C144.111 167.039 159.802 166.721 166.142 163.872C172.481 161.03 180.88 145.346 180.88 145.346Z" fill="white"/>
<path d="M189.97 146.121C189.97 146.121 183.094 151.918 181.79 164.52C180.485 177.129 182.375 183.899 180.711 193.645C179.053 203.398 176.07 218.483 176.902 227.636C177.735 236.79 178.644 256.761 180.231 267.234C181.811 277.692 184.829 287.198 184.829 287.198C184.829 287.198 186.733 282.445 186.098 273.249C185.457 264.06 185.774 239.166 187.53 226.973C189.265 214.766 193.228 185.451 193.228 185.451L195.287 160.402C195.287 160.402 197.346 150.867 195.682 148.364C194.85 147.073 189.97 146.121 189.97 146.121Z" fill="#51A4E3"/>
<path d="M198.791 248.454C198.791 248.454 188.615 252.925 184.574 225.591C180.534 198.257 206.372 230.986 206.372 230.986L202.332 245.972L198.791 248.454Z" fill="#2E2C3F"/>
<path d="M186.655 206.37C186.655 206.37 174.413 202.33 167.875 196.97C161.345 191.624 159.667 190.08 159.667 190.08L154.801 201.97C154.801 201.97 167.163 213.747 173.94 219.917C180.71 226.109 191.168 235.136 199.497 229.191C207.818 223.246 197 206.124 197 206.124L186.655 206.37Z" fill="#EFA695"/>
<path d="M194.829 147.631C194.829 147.631 204.878 152.864 205.78 168.999C206.613 183.752 205.682 196.382 208.058 206.84C210.435 217.298 214.476 242.982 198.792 248.454C198.792 248.454 200.9 247.467 200.181 240.563C198.982 228.984 193.552 206.544 186.655 206.368V166.185L191.169 149.062L194.829 147.631Z" fill="#51A4E3"/>
<path d="M131.522 177.181L138.616 205.41C138.821 206.228 139.597 206.764 140.429 206.672L156.282 204.987C157.318 204.874 158.01 203.873 157.742 202.864L150.161 174.585C149.942 173.782 149.159 173.253 148.341 173.344L132.975 175.093C131.938 175.213 131.261 176.193 131.522 177.181Z" fill="#2E2C3F"/>
<path d="M159.237 188.032L154.11 189.09C154.11 189.09 151.092 184.583 150.775 182.524C150.464 180.451 152.615 180.141 152.615 180.141C153.215 182.764 156.113 184.442 157.383 185.409C158.095 185.944 158.779 187.108 159.237 188.032Z" fill="#EFA695"/>
<path d="M163.672 193.532L160.259 206.007C160.259 206.007 159.963 204.801 154.427 205.316C151.218 205.612 148.214 204.843 144.314 203.757C140.429 202.671 140.887 200.013 140.887 200.013C137.53 198.504 138.461 195.852 138.461 195.852C138.461 195.852 136.635 194.463 135.838 193.116C135.048 191.776 136.212 191.409 136.212 191.409C136.212 191.409 138.179 192.086 139.921 192.531C141.67 192.989 145.365 193.045 145.365 193.045C145.365 193.045 139.857 191.205 138.144 190.831C136.43 190.457 132.629 189.555 132.862 188.095C133.095 186.635 136.874 186.868 138.92 187.368C140.965 187.862 144.357 188.13 146.973 188.518C149.582 188.899 154.081 189.089 154.081 189.089L159.208 188.031C159.596 188.737 163.672 193.532 163.672 193.532Z" fill="#EFA695"/>
<path d="M145.174 197.734C142.96 197.275 138.446 196.097 138.411 196.083L138.524 195.625C138.573 195.639 143.073 196.81 145.273 197.261L145.174 197.734Z" fill="#2E2C3F"/>
<path d="M146.621 201.608L140.838 200.24L140.951 199.781L146.719 201.163L146.621 201.608Z" fill="#2E2C3F"/>
<path d="M197.721 209.992C193.666 206.233 187.171 206.621 187.108 206.635L186.776 206.656L186.861 206.339C188.13 201.967 187.552 198.067 186.84 193.116C186.085 187.891 185.218 181.96 186.184 173.547L186.656 173.596C185.69 181.946 186.544 187.841 187.298 193.046C187.975 197.736 188.575 201.798 187.404 206.149C188.807 206.106 194.315 206.198 198.038 209.654L197.721 209.992Z" fill="#2E2C3F"/>
<path d="M107.805 197.058C105.908 190.654 99.0185 186.303 98.9551 186.268L99.2019 185.873C99.2795 185.908 106.31 190.358 108.25 196.931L107.805 197.058Z" fill="#2E2C3F"/>
</svg>
