<svg width="468" height="282" viewBox="0 0 468 282" fill="none" xmlns="http://www.w3.org/2000/svg">
<path d="M0.00195312 184.724C0.00195312 184.724 219.425 156.02 468.001 190.964V281.41H0.00195312V184.724Z" fill="white"/>
<path d="M387.104 211.107L316.524 212.718L309.104 214.227C309.104 214.227 359.648 222.963 332.816 234.819C311.369 244.296 176.193 222.963 166.209 249.795C161.171 263.334 163.442 274.169 166.928 281.585H251.286C236.512 276.646 214.522 267.825 221.745 261.027C232.352 251.043 445.447 289.764 425.168 237.939C419.552 223.587 387.104 211.107 387.104 211.107Z" fill="#0078D4"/>
<path d="M148.953 191.322H55.6652L26.3379 218.441H291.537L289.977 210.042L148.953 191.322Z" fill="#2895E9"/>
<path d="M385.137 69.9512H284.049V184.559H385.137V69.9512Z" fill="#00579A"/>
<path d="M388.672 69.9512H370.576V184.559H388.672V69.9512Z" fill="#00579A"/>
<path d="M338.137 88.9238H303.25V180.058H338.137V88.9238Z" fill="white"/>
<path opacity="0.3" d="M337.269 90.7871H302.383V181.921H337.269V90.7871Z" fill="#FEA938"/>
<g opacity="0.5">
<mask id="mask0_1666_8195" style="mask-type:luminance" maskUnits="userSpaceOnUse" x="302" y="90" width="36" height="92">
<path d="M337.703 90.7871H302.383V181.921H337.703V90.7871Z" fill="white"/>
</mask>
<g mask="url(#mask0_1666_8195)">
<path d="M399.895 160.652L385.193 178.733L310.504 86.8753L325.205 68.7949L399.895 160.652Z" fill="white"/>
<path d="M376.82 189.033L375.482 190.678L288.736 83.9938L290.074 82.3477L376.82 189.033Z" fill="white"/>
<path d="M355.369 213.413L354.031 215.059L267.285 108.374L268.623 106.729L355.369 213.413Z" fill="white"/>
<path d="M400.545 155.456L399.207 157.102L312.461 50.417L313.799 48.7715L400.545 155.456Z" fill="white"/>
<path d="M373.406 194.429L366.381 203.07L279.635 96.3846L286.66 87.7441L373.406 194.429Z" fill="white"/>
</g>
</g>
<path d="M299.834 88.5645V183.521H339.815V88.5645H299.834ZM336.509 92.3871V99.1812H303.683V92.3871H336.509ZM303.683 102.379H336.508V179.699H303.683V102.379Z" fill="#0069B9"/>
<path d="M361.007 88.9238H340.273V180.058H361.007V88.9238Z" fill="white"/>
<path opacity="0.3" d="M360.593 90.7871H339.408V181.921H360.593V90.7871Z" fill="#FEA938"/>
<g opacity="0.5">
<mask id="mask1_1666_8195" style="mask-type:luminance" maskUnits="userSpaceOnUse" x="339" y="90" width="23" height="92">
<path d="M361.215 90.7891H339.406V181.923H361.215V90.7891Z" fill="white"/>
</mask>
<g mask="url(#mask1_1666_8195)">
<path d="M436.919 160.652L422.217 178.733L347.527 86.8753L362.229 68.7949L436.919 160.652Z" fill="white"/>
<path d="M413.844 189.033L412.506 190.678L325.76 83.9938L327.098 82.3477L413.844 189.033Z" fill="white"/>
<path d="M392.393 213.413L391.055 215.059L304.309 108.374L305.647 106.729L392.393 213.413Z" fill="white"/>
<path d="M437.568 155.456L436.23 157.102L349.484 50.417L350.822 48.7715L437.568 155.456Z" fill="white"/>
<path d="M410.43 194.429L403.405 203.07L316.658 96.3846L323.684 87.7441L410.43 194.429Z" fill="white"/>
</g>
</g>
<path d="M336.859 88.5645V183.521H363.089V88.5645H336.859ZM359.552 92.3871V99.1812H340.708V92.3871H359.552ZM340.708 102.379H359.345V179.699H340.708V102.379Z" fill="#0069B9"/>
<path d="M361.633 126.043H339.377V129.579H361.633V126.043Z" fill="#0069B9"/>
<path d="M352.274 89.2285H348.738V182.204H352.274V89.2285Z" fill="#0069B9"/>
<path d="M361.633 152.807H339.377V156.343H361.633V152.807Z" fill="#0069B9"/>
<path d="M443.79 67.4551H277.807V80.559H443.79V67.4551Z" fill="#EBF7FF"/>
<path opacity="0.3" d="M291.535 67.4551H277.807V80.559H291.535V67.4551Z" fill="#2D2563"/>
<path opacity="0.3" d="M443.79 67.4551H365.166V80.559H443.79V67.4551Z" fill="#2D2563"/>
<path d="M394.494 183.52H275.311V194.128H394.494V183.52Z" fill="#EBF7FF"/>
<path opacity="0.3" d="M394.494 183.52H275.311V194.128H394.494V183.52Z" fill="#2D2563"/>
<path d="M426.943 42.4961H377.023V194.128H426.943V42.4961Z" fill="#EBF7FF"/>
<path opacity="0.2" d="M383.887 42.4961H377.023V194.128H383.887V42.4961Z" fill="#2D2563"/>
<path d="M24.1172 81.9611L84.7374 88.6735L287.089 49.5095L321.845 15.3574L73.0174 65.7359L24.1172 81.9611Z" fill="#EBF7FF"/>
<path opacity="0.3" d="M24.1172 81.9611L84.7374 88.6735L287.089 49.5095L321.845 15.3574L73.0174 65.7359L24.1172 81.9611Z" fill="#2D2563"/>
<path d="M321.845 0.925781L22.8691 68.0961V82.5279L321.845 15.3576V0.925781Z" fill="#EBF7FF"/>
<path d="M81.2461 191.276V85.0343L160.513 68.4297V192.474L81.2461 191.276Z" fill="#2895E9"/>
<mask id="mask2_1666_8195" style="mask-type:luminance" maskUnits="userSpaceOnUse" x="81" y="68" width="80" height="125">
<path d="M81.2461 192.256V85.0323L160.513 68.4277V192.472L81.2461 192.256Z" fill="white"/>
</mask>
<g mask="url(#mask2_1666_8195)">
<path d="M116.347 69.6309H101.238V74.0744H116.347V69.6309Z" stroke="#FCE7F1" stroke-width="0.7121" stroke-miterlimit="10"/>
<path d="M131.454 69.6309H116.346V74.0744H131.454V69.6309Z" stroke="#FCE7F1" stroke-width="0.7121" stroke-miterlimit="10"/>
<path d="M146.638 69.6309H131.529V74.0744H146.638V69.6309Z" stroke="#FCE7F1" stroke-width="0.7121" stroke-miterlimit="10"/>
<path d="M161.747 69.6309H146.639V74.0744H161.747V69.6309Z" stroke="#FCE7F1" stroke-width="0.7121" stroke-miterlimit="10"/>
<path d="M122.661 74.0293H107.553V78.4728H122.661V74.0293Z" stroke="#FCE7F1" stroke-width="0.7121" stroke-miterlimit="10"/>
<path d="M137.768 74.0293H122.66V78.4728H137.768V74.0293Z" stroke="#FCE7F1" stroke-width="0.7121" stroke-miterlimit="10"/>
<path d="M152.952 74.0293H137.844V78.4728H152.952V74.0293Z" stroke="#FCE7F1" stroke-width="0.7121" stroke-miterlimit="10"/>
<path d="M168.061 74.0293H152.953V78.4728H168.061V74.0293Z" stroke="#FCE7F1" stroke-width="0.7121" stroke-miterlimit="10"/>
<path d="M116.347 78.4629H101.238V82.9064H116.347V78.4629Z" stroke="#FCE7F1" stroke-width="0.7121" stroke-miterlimit="10"/>
<path d="M131.454 78.4629H116.346V82.9064H131.454V78.4629Z" stroke="#FCE7F1" stroke-width="0.7121" stroke-miterlimit="10"/>
<path d="M146.638 78.4629H131.529V82.9064H146.638V78.4629Z" stroke="#FCE7F1" stroke-width="0.7121" stroke-miterlimit="10"/>
<path d="M161.747 78.4629H146.639V82.9064H161.747V78.4629Z" stroke="#FCE7F1" stroke-width="0.7121" stroke-miterlimit="10"/>
<path d="M122.661 82.9629H107.553V87.4064H122.661V82.9629Z" stroke="#FCE7F1" stroke-width="0.7121" stroke-miterlimit="10"/>
<path d="M137.768 82.9629H122.66V87.4064H137.768V82.9629Z" stroke="#FCE7F1" stroke-width="0.7121" stroke-miterlimit="10"/>
<path d="M152.952 82.9629H137.844V87.4064H152.952V82.9629Z" stroke="#FCE7F1" stroke-width="0.7121" stroke-miterlimit="10"/>
<path d="M168.061 82.9629H152.953V87.4064H168.061V82.9629Z" stroke="#FCE7F1" stroke-width="0.7121" stroke-miterlimit="10"/>
<path d="M116.347 87.3926H101.238V91.8361H116.347V87.3926Z" stroke="#FCE7F1" stroke-width="0.7121" stroke-miterlimit="10"/>
<path d="M131.454 87.3926H116.346V91.8361H131.454V87.3926Z" stroke="#FCE7F1" stroke-width="0.7121" stroke-miterlimit="10"/>
<path d="M146.638 87.3926H131.529V91.8361H146.638V87.3926Z" stroke="#FCE7F1" stroke-width="0.7121" stroke-miterlimit="10"/>
<path d="M161.747 87.3926H146.639V91.8361H161.747V87.3926Z" stroke="#FCE7F1" stroke-width="0.7121" stroke-miterlimit="10"/>
<path d="M122.661 91.7949H107.553V96.2384H122.661V91.7949Z" stroke="#FCE7F1" stroke-width="0.7121" stroke-miterlimit="10"/>
<path d="M137.768 91.7949H122.66V96.2384H137.768V91.7949Z" stroke="#FCE7F1" stroke-width="0.7121" stroke-miterlimit="10"/>
<path d="M152.952 91.7949H137.844V96.2384H152.952V91.7949Z" stroke="#FCE7F1" stroke-width="0.7121" stroke-miterlimit="10"/>
<path d="M168.061 91.7949H152.953V96.2384H168.061V91.7949Z" stroke="#FCE7F1" stroke-width="0.7121" stroke-miterlimit="10"/>
<path d="M116.347 96.2266H101.238V100.67H116.347V96.2266Z" stroke="#FCE7F1" stroke-width="0.7121" stroke-miterlimit="10"/>
<path d="M131.454 96.2266H116.346V100.67H131.454V96.2266Z" stroke="#FCE7F1" stroke-width="0.7121" stroke-miterlimit="10"/>
<path d="M146.638 96.2266H131.529V100.67H146.638V96.2266Z" stroke="#FCE7F1" stroke-width="0.7121" stroke-miterlimit="10"/>
<path d="M161.747 96.2266H146.639V100.67H161.747V96.2266Z" stroke="#FCE7F1" stroke-width="0.7121" stroke-miterlimit="10"/>
<path d="M122.661 100.725H107.553V105.168H122.661V100.725Z" stroke="#FCE7F1" stroke-width="0.7121" stroke-miterlimit="10"/>
<path d="M137.768 100.725H122.66V105.168H137.768V100.725Z" stroke="#FCE7F1" stroke-width="0.7121" stroke-miterlimit="10"/>
<path d="M152.952 100.725H137.844V105.168H152.952V100.725Z" stroke="#FCE7F1" stroke-width="0.7121" stroke-miterlimit="10"/>
<path d="M168.061 100.725H152.953V105.168H168.061V100.725Z" stroke="#FCE7F1" stroke-width="0.7121" stroke-miterlimit="10"/>
<path d="M116.347 105.355H101.238V109.799H116.347V105.355Z" stroke="#FCE7F1" stroke-width="0.7121" stroke-miterlimit="10"/>
<path d="M131.454 105.355H116.346V109.799H131.454V105.355Z" stroke="#FCE7F1" stroke-width="0.7121" stroke-miterlimit="10"/>
<path d="M146.638 105.355H131.529V109.799H146.638V105.355Z" stroke="#FCE7F1" stroke-width="0.7121" stroke-miterlimit="10"/>
<path d="M161.747 105.355H146.639V109.799H161.747V105.355Z" stroke="#FCE7F1" stroke-width="0.7121" stroke-miterlimit="10"/>
<path d="M122.661 109.756H107.553V114.199H122.661V109.756Z" stroke="#FCE7F1" stroke-width="0.7121" stroke-miterlimit="10"/>
<path d="M137.768 109.756H122.66V114.199H137.768V109.756Z" stroke="#FCE7F1" stroke-width="0.7121" stroke-miterlimit="10"/>
<path d="M152.952 109.756H137.844V114.199H152.952V109.756Z" stroke="#FCE7F1" stroke-width="0.7121" stroke-miterlimit="10"/>
<path d="M168.061 109.756H152.953V114.199H168.061V109.756Z" stroke="#FCE7F1" stroke-width="0.7121" stroke-miterlimit="10"/>
<path d="M116.347 114.188H101.238V118.631H116.347V114.188Z" stroke="#FCE7F1" stroke-width="0.7121" stroke-miterlimit="10"/>
<path d="M131.454 114.188H116.346V118.631H131.454V114.188Z" stroke="#FCE7F1" stroke-width="0.7121" stroke-miterlimit="10"/>
<path d="M146.638 114.188H131.529V118.631H146.638V114.188Z" stroke="#FCE7F1" stroke-width="0.7121" stroke-miterlimit="10"/>
<path d="M161.747 114.188H146.639V118.631H161.747V114.188Z" stroke="#FCE7F1" stroke-width="0.7121" stroke-miterlimit="10"/>
<path d="M122.661 118.688H107.553V123.131H122.661V118.688Z" stroke="#FCE7F1" stroke-width="0.7121" stroke-miterlimit="10"/>
<path d="M137.768 118.688H122.66V123.131H137.768V118.688Z" stroke="#FCE7F1" stroke-width="0.7121" stroke-miterlimit="10"/>
<path d="M152.952 118.688H137.844V123.131H152.952V118.688Z" stroke="#FCE7F1" stroke-width="0.7121" stroke-miterlimit="10"/>
<path d="M168.061 118.688H152.953V123.131H168.061V118.688Z" stroke="#FCE7F1" stroke-width="0.7121" stroke-miterlimit="10"/>
<path d="M116.347 123.234H101.238V127.678H116.347V123.234Z" stroke="#FCE7F1" stroke-width="0.7121" stroke-miterlimit="10"/>
<path d="M131.454 123.234H116.346V127.678H131.454V123.234Z" stroke="#FCE7F1" stroke-width="0.7121" stroke-miterlimit="10"/>
<path d="M146.638 123.234H131.529V127.678H146.638V123.234Z" stroke="#FCE7F1" stroke-width="0.7121" stroke-miterlimit="10"/>
<path d="M161.747 123.234H146.639V127.678H161.747V123.234Z" stroke="#FCE7F1" stroke-width="0.7121" stroke-miterlimit="10"/>
<path d="M122.661 127.635H107.553V132.078H122.661V127.635Z" stroke="#FCE7F1" stroke-width="0.7121" stroke-miterlimit="10"/>
<path d="M137.768 127.635H122.66V132.078H137.768V127.635Z" stroke="#FCE7F1" stroke-width="0.7121" stroke-miterlimit="10"/>
<path d="M152.952 127.635H137.844V132.078H152.952V127.635Z" stroke="#FCE7F1" stroke-width="0.7121" stroke-miterlimit="10"/>
<path d="M168.061 127.635H152.953V132.078H168.061V127.635Z" stroke="#FCE7F1" stroke-width="0.7121" stroke-miterlimit="10"/>
<path d="M116.347 132.068H101.238V136.512H116.347V132.068Z" stroke="#FCE7F1" stroke-width="0.7121" stroke-miterlimit="10"/>
<path d="M131.454 132.068H116.346V136.512H131.454V132.068Z" stroke="#FCE7F1" stroke-width="0.7121" stroke-miterlimit="10"/>
<path d="M146.638 132.068H131.529V136.512H146.638V132.068Z" stroke="#FCE7F1" stroke-width="0.7121" stroke-miterlimit="10"/>
<path d="M161.747 132.068H146.639V136.512H161.747V132.068Z" stroke="#FCE7F1" stroke-width="0.7121" stroke-miterlimit="10"/>
<path d="M122.661 136.566H107.553V141.01H122.661V136.566Z" stroke="#FCE7F1" stroke-width="0.7121" stroke-miterlimit="10"/>
<path d="M137.768 136.566H122.66V141.01H137.768V136.566Z" stroke="#FCE7F1" stroke-width="0.7121" stroke-miterlimit="10"/>
<path d="M152.952 136.566H137.844V141.01H152.952V136.566Z" stroke="#FCE7F1" stroke-width="0.7121" stroke-miterlimit="10"/>
<path d="M168.061 136.566H152.953V141.01H168.061V136.566Z" stroke="#FCE7F1" stroke-width="0.7121" stroke-miterlimit="10"/>
<path d="M116.347 141.195H101.238V145.639H116.347V141.195Z" stroke="#FCE7F1" stroke-width="0.7121" stroke-miterlimit="10"/>
<path d="M131.454 141.195H116.346V145.639H131.454V141.195Z" stroke="#FCE7F1" stroke-width="0.7121" stroke-miterlimit="10"/>
<path d="M146.638 141.195H131.529V145.639H146.638V141.195Z" stroke="#FCE7F1" stroke-width="0.7121" stroke-miterlimit="10"/>
<path d="M161.747 141.195H146.639V145.639H161.747V141.195Z" stroke="#FCE7F1" stroke-width="0.7121" stroke-miterlimit="10"/>
<path d="M122.661 145.596H107.553V150.039H122.661V145.596Z" stroke="#FCE7F1" stroke-width="0.7121" stroke-miterlimit="10"/>
<path d="M137.768 145.596H122.66V150.039H137.768V145.596Z" stroke="#FCE7F1" stroke-width="0.7121" stroke-miterlimit="10"/>
<path d="M152.952 145.596H137.844V150.039H152.952V145.596Z" stroke="#FCE7F1" stroke-width="0.7121" stroke-miterlimit="10"/>
<path d="M168.061 145.596H152.953V150.039H168.061V145.596Z" stroke="#FCE7F1" stroke-width="0.7121" stroke-miterlimit="10"/>
<path d="M116.347 150.029H101.238V154.473H116.347V150.029Z" stroke="#FCE7F1" stroke-width="0.7121" stroke-miterlimit="10"/>
<path d="M131.454 150.029H116.346V154.473H131.454V150.029Z" stroke="#FCE7F1" stroke-width="0.7121" stroke-miterlimit="10"/>
<path d="M146.638 150.029H131.529V154.473H146.638V150.029Z" stroke="#FCE7F1" stroke-width="0.7121" stroke-miterlimit="10"/>
<path d="M161.747 150.029H146.639V154.473H161.747V150.029Z" stroke="#FCE7F1" stroke-width="0.7121" stroke-miterlimit="10"/>
<path d="M122.661 154.527H107.553V158.971H122.661V154.527Z" stroke="#FCE7F1" stroke-width="0.7121" stroke-miterlimit="10"/>
<path d="M137.768 154.527H122.66V158.971H137.768V154.527Z" stroke="#FCE7F1" stroke-width="0.7121" stroke-miterlimit="10"/>
<path d="M152.952 154.527H137.844V158.971H152.952V154.527Z" stroke="#FCE7F1" stroke-width="0.7121" stroke-miterlimit="10"/>
<path d="M168.061 154.527H152.953V158.971H168.061V154.527Z" stroke="#FCE7F1" stroke-width="0.7121" stroke-miterlimit="10"/>
<path d="M86.1278 69.6309H71.0195V74.0744H86.1278V69.6309Z" stroke="#FCE7F1" stroke-width="0.7121" stroke-miterlimit="10"/>
<path d="M101.237 69.6309H86.1289V74.0744H101.237V69.6309Z" stroke="#FCE7F1" stroke-width="0.7121" stroke-miterlimit="10"/>
<path d="M92.4422 74.0293H77.334V78.4728H92.4422V74.0293Z" stroke="#FCE7F1" stroke-width="0.7121" stroke-miterlimit="10"/>
<path d="M107.552 74.0293H92.4434V78.4728H107.552V74.0293Z" stroke="#FCE7F1" stroke-width="0.7121" stroke-miterlimit="10"/>
<path d="M86.1278 78.4629H71.0195V82.9064H86.1278V78.4629Z" stroke="#FCE7F1" stroke-width="0.7121" stroke-miterlimit="10"/>
<path d="M101.237 78.4629H86.1289V82.9064H101.237V78.4629Z" stroke="#FCE7F1" stroke-width="0.7121" stroke-miterlimit="10"/>
<path d="M92.4422 82.9609H77.334V87.4044H92.4422V82.9609Z" stroke="#FCE7F1" stroke-width="0.7121" stroke-miterlimit="10"/>
<path d="M107.552 82.9609H92.4434V87.4044H107.552V82.9609Z" stroke="#FCE7F1" stroke-width="0.7121" stroke-miterlimit="10"/>
<path d="M86.1278 87.3926H71.0195V91.8361H86.1278V87.3926Z" stroke="#FCE7F1" stroke-width="0.7121" stroke-miterlimit="10"/>
<path d="M101.237 87.3926H86.1289V91.8361H101.237V87.3926Z" stroke="#FCE7F1" stroke-width="0.7121" stroke-miterlimit="10"/>
<path d="M92.4422 91.7949H77.334V96.2384H92.4422V91.7949Z" stroke="#FCE7F1" stroke-width="0.7121" stroke-miterlimit="10"/>
<path d="M107.552 91.7949H92.4434V96.2384H107.552V91.7949Z" stroke="#FCE7F1" stroke-width="0.7121" stroke-miterlimit="10"/>
<path d="M86.1278 96.2266H71.0195V100.67H86.1278V96.2266Z" stroke="#FCE7F1" stroke-width="0.7121" stroke-miterlimit="10"/>
<path d="M101.237 96.2266H86.1289V100.67H101.237V96.2266Z" stroke="#FCE7F1" stroke-width="0.7121" stroke-miterlimit="10"/>
<path d="M92.4422 100.725H77.334V105.168H92.4422V100.725Z" stroke="#FCE7F1" stroke-width="0.7121" stroke-miterlimit="10"/>
<path d="M107.552 100.725H92.4434V105.168H107.552V100.725Z" stroke="#FCE7F1" stroke-width="0.7121" stroke-miterlimit="10"/>
<path d="M86.1278 105.355H71.0195V109.799H86.1278V105.355Z" stroke="#FCE7F1" stroke-width="0.7121" stroke-miterlimit="10"/>
<path d="M101.237 105.355H86.1289V109.799H101.237V105.355Z" stroke="#FCE7F1" stroke-width="0.7121" stroke-miterlimit="10"/>
<path d="M92.4422 109.756H77.334V114.199H92.4422V109.756Z" stroke="#FCE7F1" stroke-width="0.7121" stroke-miterlimit="10"/>
<path d="M107.552 109.756H92.4434V114.199H107.552V109.756Z" stroke="#FCE7F1" stroke-width="0.7121" stroke-miterlimit="10"/>
<path d="M86.1278 114.188H71.0195V118.631H86.1278V114.188Z" stroke="#FCE7F1" stroke-width="0.7121" stroke-miterlimit="10"/>
<path d="M101.237 114.188H86.1289V118.631H101.237V114.188Z" stroke="#FCE7F1" stroke-width="0.7121" stroke-miterlimit="10"/>
<path d="M92.4422 118.688H77.334V123.131H92.4422V118.688Z" stroke="#FCE7F1" stroke-width="0.7121" stroke-miterlimit="10"/>
<path d="M107.552 118.688H92.4434V123.131H107.552V118.688Z" stroke="#FCE7F1" stroke-width="0.7121" stroke-miterlimit="10"/>
<path d="M86.1278 123.236H71.0195V127.68H86.1278V123.236Z" stroke="#FCE7F1" stroke-width="0.7121" stroke-miterlimit="10"/>
<path d="M101.237 123.236H86.1289V127.68H101.237V123.236Z" stroke="#FCE7F1" stroke-width="0.7121" stroke-miterlimit="10"/>
<path d="M92.4422 127.637H77.334V132.08H92.4422V127.637Z" stroke="#FCE7F1" stroke-width="0.7121" stroke-miterlimit="10"/>
<path d="M107.552 127.637H92.4434V132.08H107.552V127.637Z" stroke="#FCE7F1" stroke-width="0.7121" stroke-miterlimit="10"/>
<path d="M86.1278 132.068H71.0195V136.512H86.1278V132.068Z" stroke="#FCE7F1" stroke-width="0.7121" stroke-miterlimit="10"/>
<path d="M101.237 132.068H86.1289V136.512H101.237V132.068Z" stroke="#FCE7F1" stroke-width="0.7121" stroke-miterlimit="10"/>
<path d="M92.4422 136.566H77.334V141.01H92.4422V136.566Z" stroke="#FCE7F1" stroke-width="0.7121" stroke-miterlimit="10"/>
<path d="M107.552 136.566H92.4434V141.01H107.552V136.566Z" stroke="#FCE7F1" stroke-width="0.7121" stroke-miterlimit="10"/>
<path d="M86.1278 141.195H71.0195V145.639H86.1278V141.195Z" stroke="#FCE7F1" stroke-width="0.7121" stroke-miterlimit="10"/>
<path d="M101.237 141.195H86.1289V145.639H101.237V141.195Z" stroke="#FCE7F1" stroke-width="0.7121" stroke-miterlimit="10"/>
<path d="M92.4422 145.596H77.334V150.039H92.4422V145.596Z" stroke="#FCE7F1" stroke-width="0.7121" stroke-miterlimit="10"/>
<path d="M107.552 145.596H92.4434V150.039H107.552V145.596Z" stroke="#FCE7F1" stroke-width="0.7121" stroke-miterlimit="10"/>
<path d="M86.1278 150.027H71.0195V154.471H86.1278V150.027Z" stroke="#FCE7F1" stroke-width="0.7121" stroke-miterlimit="10"/>
<path d="M101.237 150.027H86.1289V154.471H101.237V150.027Z" stroke="#FCE7F1" stroke-width="0.7121" stroke-miterlimit="10"/>
<path d="M92.4422 154.527H77.334V158.971H92.4422V154.527Z" stroke="#FCE7F1" stroke-width="0.7121" stroke-miterlimit="10"/>
<path d="M107.552 154.527H92.4434V158.971H107.552V154.527Z" stroke="#FCE7F1" stroke-width="0.7121" stroke-miterlimit="10"/>
<path d="M116.347 158.961H101.238V163.404H116.347V158.961Z" stroke="#FCE7F1" stroke-width="0.7121" stroke-miterlimit="10"/>
<path d="M131.454 158.961H116.346V163.404H131.454V158.961Z" stroke="#FCE7F1" stroke-width="0.7121" stroke-miterlimit="10"/>
<path d="M146.638 158.961H131.529V163.404H146.638V158.961Z" stroke="#FCE7F1" stroke-width="0.7121" stroke-miterlimit="10"/>
<path d="M161.747 158.961H146.639V163.404H161.747V158.961Z" stroke="#FCE7F1" stroke-width="0.7121" stroke-miterlimit="10"/>
<path d="M122.661 163.361H107.553V167.805H122.661V163.361Z" stroke="#FCE7F1" stroke-width="0.7121" stroke-miterlimit="10"/>
<path d="M137.768 163.361H122.66V167.805H137.768V163.361Z" stroke="#FCE7F1" stroke-width="0.7121" stroke-miterlimit="10"/>
<path d="M152.952 163.361H137.844V167.805H152.952V163.361Z" stroke="#FCE7F1" stroke-width="0.7121" stroke-miterlimit="10"/>
<path d="M168.061 163.361H152.953V167.805H168.061V163.361Z" stroke="#FCE7F1" stroke-width="0.7121" stroke-miterlimit="10"/>
<path d="M116.347 167.797H101.238V172.24H116.347V167.797Z" stroke="#FCE7F1" stroke-width="0.7121" stroke-miterlimit="10"/>
<path d="M131.454 167.797H116.346V172.24H131.454V167.797Z" stroke="#FCE7F1" stroke-width="0.7121" stroke-miterlimit="10"/>
<path d="M146.638 167.797H131.529V172.24H146.638V167.797Z" stroke="#FCE7F1" stroke-width="0.7121" stroke-miterlimit="10"/>
<path d="M161.747 167.797H146.639V172.24H161.747V167.797Z" stroke="#FCE7F1" stroke-width="0.7121" stroke-miterlimit="10"/>
<path d="M122.661 172.291H107.553V176.734H122.661V172.291Z" stroke="#FCE7F1" stroke-width="0.7121" stroke-miterlimit="10"/>
<path d="M137.768 172.291H122.66V176.734H137.768V172.291Z" stroke="#FCE7F1" stroke-width="0.7121" stroke-miterlimit="10"/>
<path d="M152.952 172.291H137.844V176.734H152.952V172.291Z" stroke="#FCE7F1" stroke-width="0.7121" stroke-miterlimit="10"/>
<path d="M168.061 172.291H152.953V176.734H168.061V172.291Z" stroke="#FCE7F1" stroke-width="0.7121" stroke-miterlimit="10"/>
<path d="M116.347 176.92H101.238V181.363H116.347V176.92Z" stroke="#FCE7F1" stroke-width="0.7121" stroke-miterlimit="10"/>
<path d="M131.454 176.92H116.346V181.363H131.454V176.92Z" stroke="#FCE7F1" stroke-width="0.7121" stroke-miterlimit="10"/>
<path d="M146.638 176.92H131.529V181.363H146.638V176.92Z" stroke="#FCE7F1" stroke-width="0.7121" stroke-miterlimit="10"/>
<path d="M161.747 176.92H146.639V181.363H161.747V176.92Z" stroke="#FCE7F1" stroke-width="0.7121" stroke-miterlimit="10"/>
<path d="M122.661 181.32H107.553V185.764H122.661V181.32Z" stroke="#FCE7F1" stroke-width="0.7121" stroke-miterlimit="10"/>
<path d="M137.768 181.32H122.66V185.764H137.768V181.32Z" stroke="#FCE7F1" stroke-width="0.7121" stroke-miterlimit="10"/>
<path d="M152.952 181.32H137.844V185.764H152.952V181.32Z" stroke="#FCE7F1" stroke-width="0.7121" stroke-miterlimit="10"/>
<path d="M168.061 181.32H152.953V185.764H168.061V181.32Z" stroke="#FCE7F1" stroke-width="0.7121" stroke-miterlimit="10"/>
<path d="M116.347 185.754H101.238V190.197H116.347V185.754Z" stroke="#FCE7F1" stroke-width="0.7121" stroke-miterlimit="10"/>
<path d="M131.454 185.754H116.346V190.197H131.454V185.754Z" stroke="#FCE7F1" stroke-width="0.7121" stroke-miterlimit="10"/>
<path d="M146.638 185.754H131.529V190.197H146.638V185.754Z" stroke="#FCE7F1" stroke-width="0.7121" stroke-miterlimit="10"/>
<path d="M161.747 185.754H146.639V190.197H161.747V185.754Z" stroke="#FCE7F1" stroke-width="0.7121" stroke-miterlimit="10"/>
<path d="M122.661 190.252H107.553V194.695H122.661V190.252Z" stroke="#FCE7F1" stroke-width="0.7121" stroke-miterlimit="10"/>
<path d="M137.768 190.252H122.66V194.695H137.768V190.252Z" stroke="#FCE7F1" stroke-width="0.7121" stroke-miterlimit="10"/>
<path d="M152.952 190.252H137.844V194.695H152.952V190.252Z" stroke="#FCE7F1" stroke-width="0.7121" stroke-miterlimit="10"/>
<path d="M168.061 190.252H152.953V194.695H168.061V190.252Z" stroke="#FCE7F1" stroke-width="0.7121" stroke-miterlimit="10"/>
<path d="M85.911 158.961H70.8027V163.404H85.911V158.961Z" stroke="#FCE7F1" stroke-width="0.7121" stroke-miterlimit="10"/>
<path d="M101.02 158.961H85.9121V163.404H101.02V158.961Z" stroke="#FCE7F1" stroke-width="0.7121" stroke-miterlimit="10"/>
<path d="M92.2254 163.361H77.1172V167.805H92.2254V163.361Z" stroke="#FCE7F1" stroke-width="0.7121" stroke-miterlimit="10"/>
<path d="M107.335 163.361H92.2266V167.805H107.335V163.361Z" stroke="#FCE7F1" stroke-width="0.7121" stroke-miterlimit="10"/>
<path d="M85.911 167.797H70.8027V172.24H85.911V167.797Z" stroke="#FCE7F1" stroke-width="0.7121" stroke-miterlimit="10"/>
<path d="M101.02 167.797H85.9121V172.24H101.02V167.797Z" stroke="#FCE7F1" stroke-width="0.7121" stroke-miterlimit="10"/>
<path d="M92.2254 172.291H77.1172V176.734H92.2254V172.291Z" stroke="#FCE7F1" stroke-width="0.7121" stroke-miterlimit="10"/>
<path d="M107.335 172.291H92.2266V176.734H107.335V172.291Z" stroke="#FCE7F1" stroke-width="0.7121" stroke-miterlimit="10"/>
<path d="M85.911 176.92H70.8027V181.363H85.911V176.92Z" stroke="#FCE7F1" stroke-width="0.7121" stroke-miterlimit="10"/>
<path d="M101.02 176.92H85.9121V181.363H101.02V176.92Z" stroke="#FCE7F1" stroke-width="0.7121" stroke-miterlimit="10"/>
<path d="M92.2254 181.32H77.1172V185.764H92.2254V181.32Z" stroke="#FCE7F1" stroke-width="0.7121" stroke-miterlimit="10"/>
<path d="M107.335 181.32H92.2266V185.764H107.335V181.32Z" stroke="#FCE7F1" stroke-width="0.7121" stroke-miterlimit="10"/>
<path d="M85.911 185.754H70.8027V190.197H85.911V185.754Z" stroke="#FCE7F1" stroke-width="0.7121" stroke-miterlimit="10"/>
<path d="M101.02 185.754H85.9121V190.197H101.02V185.754Z" stroke="#FCE7F1" stroke-width="0.7121" stroke-miterlimit="10"/>
<path d="M92.2254 190.252H77.1172V194.695H92.2254V190.252Z" stroke="#FCE7F1" stroke-width="0.7121" stroke-miterlimit="10"/>
<path d="M107.335 190.252H92.2266V194.695H107.335V190.252Z" stroke="#FCE7F1" stroke-width="0.7121" stroke-miterlimit="10"/>
</g>
<path opacity="0.3" d="M81.2461 192.631V85.4073L160.513 68.8027V192.847L81.2461 192.631Z" fill="#DBDBFF"/>
<path opacity="0.3" d="M120.873 77.1008V192.12L160.513 192.474V68.4297L120.873 77.1008Z" fill="#2D2563"/>
<path d="M158.08 177.707H77.1582V194.669H158.08V177.707Z" fill="#EBF7FF"/>
<path opacity="0.3" d="M158.08 177.707H77.1582V194.669H158.08V177.707Z" fill="#2D2563"/>
<path opacity="0.3" d="M158.08 177.707H115.846V194.669H158.08V177.707Z" fill="#2D2563"/>
<path d="M147.393 198.5V57.4763L287.168 26.9004V199.748L147.393 198.5Z" fill="#2895E9"/>
<mask id="mask3_1666_8195" style="mask-type:luminance" maskUnits="userSpaceOnUse" x="147" y="26" width="141" height="174">
<path d="M147.393 198.502V57.4783L287.168 26.9023V199.75L147.393 198.502Z" fill="white"/>
</mask>
<g mask="url(#mask3_1666_8195)">
<path d="M241.158 28.1523H225.42V32.7812H241.158V28.1523Z" stroke="#FCE7F1" stroke-width="0.7418" stroke-miterlimit="10"/>
<path d="M256.897 28.1523H241.158V32.7812H256.897V28.1523Z" stroke="#FCE7F1" stroke-width="0.7418" stroke-miterlimit="10"/>
<path d="M272.711 28.1523H256.973V32.7812H272.711V28.1523Z" stroke="#FCE7F1" stroke-width="0.7418" stroke-miterlimit="10"/>
<path d="M288.451 28.1523H272.713V32.7812H288.451V28.1523Z" stroke="#FCE7F1" stroke-width="0.7418" stroke-miterlimit="10"/>
<path d="M247.737 32.7363H231.998V37.3651H247.737V32.7363Z" stroke="#FCE7F1" stroke-width="0.7418" stroke-miterlimit="10"/>
<path d="M263.475 32.7363H247.736V37.3651H263.475V32.7363Z" stroke="#FCE7F1" stroke-width="0.7418" stroke-miterlimit="10"/>
<path d="M279.289 32.7363H263.551V37.3651H279.289V32.7363Z" stroke="#FCE7F1" stroke-width="0.7418" stroke-miterlimit="10"/>
<path d="M295.029 32.7363H279.291V37.3651H295.029V32.7363Z" stroke="#FCE7F1" stroke-width="0.7418" stroke-miterlimit="10"/>
<path d="M241.158 37.3555H225.42V41.9843H241.158V37.3555Z" stroke="#FCE7F1" stroke-width="0.7418" stroke-miterlimit="10"/>
<path d="M256.897 37.3555H241.158V41.9843H256.897V37.3555Z" stroke="#FCE7F1" stroke-width="0.7418" stroke-miterlimit="10"/>
<path d="M272.711 37.3555H256.973V41.9843H272.711V37.3555Z" stroke="#FCE7F1" stroke-width="0.7418" stroke-miterlimit="10"/>
<path d="M288.451 37.3555H272.713V41.9843H288.451V37.3555Z" stroke="#FCE7F1" stroke-width="0.7418" stroke-miterlimit="10"/>
<path d="M247.737 42.041H231.998V46.6698H247.737V42.041Z" stroke="#FCE7F1" stroke-width="0.7418" stroke-miterlimit="10"/>
<path d="M263.475 42.041H247.736V46.6698H263.475V42.041Z" stroke="#FCE7F1" stroke-width="0.7418" stroke-miterlimit="10"/>
<path d="M279.291 42.041H263.553V46.6698H279.291V42.041Z" stroke="#FCE7F1" stroke-width="0.7418" stroke-miterlimit="10"/>
<path d="M295.029 42.041H279.291V46.6698H295.029V42.041Z" stroke="#FCE7F1" stroke-width="0.7418" stroke-miterlimit="10"/>
<path d="M241.158 46.6582H225.42V51.287H241.158V46.6582Z" stroke="#FCE7F1" stroke-width="0.7418" stroke-miterlimit="10"/>
<path d="M256.897 46.6582H241.158V51.287H256.897V46.6582Z" stroke="#FCE7F1" stroke-width="0.7418" stroke-miterlimit="10"/>
<path d="M272.711 46.6582H256.973V51.287H272.711V46.6582Z" stroke="#FCE7F1" stroke-width="0.7418" stroke-miterlimit="10"/>
<path d="M288.451 46.6582H272.713V51.287H288.451V46.6582Z" stroke="#FCE7F1" stroke-width="0.7418" stroke-miterlimit="10"/>
<path d="M247.737 51.2422H231.998V55.871H247.737V51.2422Z" stroke="#FCE7F1" stroke-width="0.7418" stroke-miterlimit="10"/>
<path d="M263.475 51.2422H247.736V55.871H263.475V51.2422Z" stroke="#FCE7F1" stroke-width="0.7418" stroke-miterlimit="10"/>
<path d="M279.289 51.2422H263.551V55.871H279.289V51.2422Z" stroke="#FCE7F1" stroke-width="0.7418" stroke-miterlimit="10"/>
<path d="M295.029 51.2422H279.291V55.871H295.029V51.2422Z" stroke="#FCE7F1" stroke-width="0.7418" stroke-miterlimit="10"/>
<path d="M241.158 55.8613H225.42V60.4901H241.158V55.8613Z" stroke="#FCE7F1" stroke-width="0.7418" stroke-miterlimit="10"/>
<path d="M256.897 55.8613H241.158V60.4901H256.897V55.8613Z" stroke="#FCE7F1" stroke-width="0.7418" stroke-miterlimit="10"/>
<path d="M272.711 55.8613H256.973V60.4901H272.711V55.8613Z" stroke="#FCE7F1" stroke-width="0.7418" stroke-miterlimit="10"/>
<path d="M288.451 55.8613H272.713V60.4901H288.451V55.8613Z" stroke="#FCE7F1" stroke-width="0.7418" stroke-miterlimit="10"/>
<path d="M247.737 60.5469H231.998V65.1757H247.737V60.5469Z" stroke="#FCE7F1" stroke-width="0.7418" stroke-miterlimit="10"/>
<path d="M263.475 60.5469H247.736V65.1757H263.475V60.5469Z" stroke="#FCE7F1" stroke-width="0.7418" stroke-miterlimit="10"/>
<path d="M279.291 60.5469H263.553V65.1757H279.291V60.5469Z" stroke="#FCE7F1" stroke-width="0.7418" stroke-miterlimit="10"/>
<path d="M295.029 60.5469H279.291V65.1757H295.029V60.5469Z" stroke="#FCE7F1" stroke-width="0.7418" stroke-miterlimit="10"/>
<path d="M241.158 65.3691H225.42V69.998H241.158V65.3691Z" stroke="#FCE7F1" stroke-width="0.7418" stroke-miterlimit="10"/>
<path d="M256.897 65.3691H241.158V69.998H256.897V65.3691Z" stroke="#FCE7F1" stroke-width="0.7418" stroke-miterlimit="10"/>
<path d="M272.711 65.3691H256.973V69.998H272.711V65.3691Z" stroke="#FCE7F1" stroke-width="0.7418" stroke-miterlimit="10"/>
<path d="M288.451 65.3691H272.713V69.998H288.451V65.3691Z" stroke="#FCE7F1" stroke-width="0.7418" stroke-miterlimit="10"/>
<path d="M247.737 69.9531H231.998V74.5819H247.737V69.9531Z" stroke="#FCE7F1" stroke-width="0.7418" stroke-miterlimit="10"/>
<path d="M263.475 69.9531H247.736V74.5819H263.475V69.9531Z" stroke="#FCE7F1" stroke-width="0.7418" stroke-miterlimit="10"/>
<path d="M279.289 69.9531H263.551V74.5819H279.289V69.9531Z" stroke="#FCE7F1" stroke-width="0.7418" stroke-miterlimit="10"/>
<path d="M295.029 69.9531H279.291V74.5819H295.029V69.9531Z" stroke="#FCE7F1" stroke-width="0.7418" stroke-miterlimit="10"/>
<path d="M241.158 74.5723H225.42V79.2011H241.158V74.5723Z" stroke="#FCE7F1" stroke-width="0.7418" stroke-miterlimit="10"/>
<path d="M256.897 74.5723H241.158V79.2011H256.897V74.5723Z" stroke="#FCE7F1" stroke-width="0.7418" stroke-miterlimit="10"/>
<path d="M272.711 74.5723H256.973V79.2011H272.711V74.5723Z" stroke="#FCE7F1" stroke-width="0.7418" stroke-miterlimit="10"/>
<path d="M288.451 74.5723H272.713V79.2011H288.451V74.5723Z" stroke="#FCE7F1" stroke-width="0.7418" stroke-miterlimit="10"/>
<path d="M247.737 79.2559H231.998V83.8847H247.737V79.2559Z" stroke="#FCE7F1" stroke-width="0.7418" stroke-miterlimit="10"/>
<path d="M263.475 79.2559H247.736V83.8847H263.475V79.2559Z" stroke="#FCE7F1" stroke-width="0.7418" stroke-miterlimit="10"/>
<path d="M279.291 79.2559H263.553V83.8847H279.291V79.2559Z" stroke="#FCE7F1" stroke-width="0.7418" stroke-miterlimit="10"/>
<path d="M295.029 79.2559H279.291V83.8847H295.029V79.2559Z" stroke="#FCE7F1" stroke-width="0.7418" stroke-miterlimit="10"/>
<path d="M241.158 83.9961H225.42V88.6249H241.158V83.9961Z" stroke="#FCE7F1" stroke-width="0.7418" stroke-miterlimit="10"/>
<path d="M256.897 83.9961H241.158V88.6249H256.897V83.9961Z" stroke="#FCE7F1" stroke-width="0.7418" stroke-miterlimit="10"/>
<path d="M272.711 83.9961H256.973V88.6249H272.711V83.9961Z" stroke="#FCE7F1" stroke-width="0.7418" stroke-miterlimit="10"/>
<path d="M288.451 83.9961H272.713V88.6249H288.451V83.9961Z" stroke="#FCE7F1" stroke-width="0.7418" stroke-miterlimit="10"/>
<path d="M247.737 88.5801H231.998V93.2089H247.737V88.5801Z" stroke="#FCE7F1" stroke-width="0.7418" stroke-miterlimit="10"/>
<path d="M263.475 88.5801H247.736V93.2089H263.475V88.5801Z" stroke="#FCE7F1" stroke-width="0.7418" stroke-miterlimit="10"/>
<path d="M279.291 88.5801H263.553V93.2089H279.291V88.5801Z" stroke="#FCE7F1" stroke-width="0.7418" stroke-miterlimit="10"/>
<path d="M295.029 88.5801H279.291V93.2089H295.029V88.5801Z" stroke="#FCE7F1" stroke-width="0.7418" stroke-miterlimit="10"/>
<path d="M241.158 93.1992H225.42V97.828H241.158V93.1992Z" stroke="#FCE7F1" stroke-width="0.7418" stroke-miterlimit="10"/>
<path d="M256.897 93.1992H241.158V97.828H256.897V93.1992Z" stroke="#FCE7F1" stroke-width="0.7418" stroke-miterlimit="10"/>
<path d="M272.711 93.1992H256.973V97.828H272.711V93.1992Z" stroke="#FCE7F1" stroke-width="0.7418" stroke-miterlimit="10"/>
<path d="M288.451 93.1992H272.713V97.828H288.451V93.1992Z" stroke="#FCE7F1" stroke-width="0.7418" stroke-miterlimit="10"/>
<path d="M247.737 97.8828H231.998V102.512H247.737V97.8828Z" stroke="#FCE7F1" stroke-width="0.7418" stroke-miterlimit="10"/>
<path d="M263.475 97.8828H247.736V102.512H263.475V97.8828Z" stroke="#FCE7F1" stroke-width="0.7418" stroke-miterlimit="10"/>
<path d="M279.291 97.8828H263.553V102.512H279.291V97.8828Z" stroke="#FCE7F1" stroke-width="0.7418" stroke-miterlimit="10"/>
<path d="M295.029 97.8828H279.291V102.512H295.029V97.8828Z" stroke="#FCE7F1" stroke-width="0.7418" stroke-miterlimit="10"/>
<path d="M241.158 102.705H225.42V107.334H241.158V102.705Z" stroke="#FCE7F1" stroke-width="0.7418" stroke-miterlimit="10"/>
<path d="M256.897 102.705H241.158V107.334H256.897V102.705Z" stroke="#FCE7F1" stroke-width="0.7418" stroke-miterlimit="10"/>
<path d="M272.711 102.705H256.973V107.334H272.711V102.705Z" stroke="#FCE7F1" stroke-width="0.7418" stroke-miterlimit="10"/>
<path d="M288.451 102.705H272.713V107.334H288.451V102.705Z" stroke="#FCE7F1" stroke-width="0.7418" stroke-miterlimit="10"/>
<path d="M247.737 107.289H231.998V111.918H247.737V107.289Z" stroke="#FCE7F1" stroke-width="0.7418" stroke-miterlimit="10"/>
<path d="M263.475 107.289H247.736V111.918H263.475V107.289Z" stroke="#FCE7F1" stroke-width="0.7418" stroke-miterlimit="10"/>
<path d="M279.289 107.289H263.551V111.918H279.289V107.289Z" stroke="#FCE7F1" stroke-width="0.7418" stroke-miterlimit="10"/>
<path d="M295.029 107.289H279.291V111.918H295.029V107.289Z" stroke="#FCE7F1" stroke-width="0.7418" stroke-miterlimit="10"/>
<path d="M241.158 111.908H225.42V116.537H241.158V111.908Z" stroke="#FCE7F1" stroke-width="0.7418" stroke-miterlimit="10"/>
<path d="M256.897 111.908H241.158V116.537H256.897V111.908Z" stroke="#FCE7F1" stroke-width="0.7418" stroke-miterlimit="10"/>
<path d="M272.711 111.908H256.973V116.537H272.711V111.908Z" stroke="#FCE7F1" stroke-width="0.7418" stroke-miterlimit="10"/>
<path d="M288.451 111.908H272.713V116.537H288.451V111.908Z" stroke="#FCE7F1" stroke-width="0.7418" stroke-miterlimit="10"/>
<path d="M247.737 116.592H231.998V121.221H247.737V116.592Z" stroke="#FCE7F1" stroke-width="0.7418" stroke-miterlimit="10"/>
<path d="M263.475 116.592H247.736V121.221H263.475V116.592Z" stroke="#FCE7F1" stroke-width="0.7418" stroke-miterlimit="10"/>
<path d="M279.291 116.592H263.553V121.221H279.291V116.592Z" stroke="#FCE7F1" stroke-width="0.7418" stroke-miterlimit="10"/>
<path d="M295.029 116.592H279.291V121.221H295.029V116.592Z" stroke="#FCE7F1" stroke-width="0.7418" stroke-miterlimit="10"/>
<path d="M178.125 28.1523H162.387V32.7812H178.125V28.1523Z" stroke="#FCE7F1" stroke-width="0.7418" stroke-miterlimit="10"/>
<path d="M193.863 28.1523H178.125V32.7812H193.863V28.1523Z" stroke="#FCE7F1" stroke-width="0.7418" stroke-miterlimit="10"/>
<path d="M209.678 28.1523H193.939V32.7812H209.678V28.1523Z" stroke="#FCE7F1" stroke-width="0.7418" stroke-miterlimit="10"/>
<path d="M225.42 28.1523H209.682V32.7812H225.42V28.1523Z" stroke="#FCE7F1" stroke-width="0.7418" stroke-miterlimit="10"/>
<path d="M184.703 32.7363H168.965V37.3651H184.703V32.7363Z" stroke="#FCE7F1" stroke-width="0.7418" stroke-miterlimit="10"/>
<path d="M200.442 32.7363H184.703V37.3651H200.442V32.7363Z" stroke="#FCE7F1" stroke-width="0.7418" stroke-miterlimit="10"/>
<path d="M216.256 32.7363H200.518V37.3651H216.256V32.7363Z" stroke="#FCE7F1" stroke-width="0.7418" stroke-miterlimit="10"/>
<path d="M231.996 32.7363H216.258V37.3651H231.996V32.7363Z" stroke="#FCE7F1" stroke-width="0.7418" stroke-miterlimit="10"/>
<path d="M178.125 37.3555H162.387V41.9843H178.125V37.3555Z" stroke="#FCE7F1" stroke-width="0.7418" stroke-miterlimit="10"/>
<path d="M193.863 37.3555H178.125V41.9843H193.863V37.3555Z" stroke="#FCE7F1" stroke-width="0.7418" stroke-miterlimit="10"/>
<path d="M209.678 37.3555H193.939V41.9843H209.678V37.3555Z" stroke="#FCE7F1" stroke-width="0.7418" stroke-miterlimit="10"/>
<path d="M225.42 37.3555H209.682V41.9843H225.42V37.3555Z" stroke="#FCE7F1" stroke-width="0.7418" stroke-miterlimit="10"/>
<path d="M184.703 42.041H168.965V46.6698H184.703V42.041Z" stroke="#FCE7F1" stroke-width="0.7418" stroke-miterlimit="10"/>
<path d="M200.442 42.041H184.703V46.6698H200.442V42.041Z" stroke="#FCE7F1" stroke-width="0.7418" stroke-miterlimit="10"/>
<path d="M216.256 42.041H200.518V46.6698H216.256V42.041Z" stroke="#FCE7F1" stroke-width="0.7418" stroke-miterlimit="10"/>
<path d="M231.996 42.041H216.258V46.6698H231.996V42.041Z" stroke="#FCE7F1" stroke-width="0.7418" stroke-miterlimit="10"/>
<path d="M178.125 46.6582H162.387V51.287H178.125V46.6582Z" stroke="#FCE7F1" stroke-width="0.7418" stroke-miterlimit="10"/>
<path d="M193.863 46.6582H178.125V51.287H193.863V46.6582Z" stroke="#FCE7F1" stroke-width="0.7418" stroke-miterlimit="10"/>
<path d="M209.678 46.6582H193.939V51.287H209.678V46.6582Z" stroke="#FCE7F1" stroke-width="0.7418" stroke-miterlimit="10"/>
<path d="M225.42 46.6582H209.682V51.287H225.42V46.6582Z" stroke="#FCE7F1" stroke-width="0.7418" stroke-miterlimit="10"/>
<path d="M184.703 51.2422H168.965V55.871H184.703V51.2422Z" stroke="#FCE7F1" stroke-width="0.7418" stroke-miterlimit="10"/>
<path d="M200.442 51.2422H184.703V55.871H200.442V51.2422Z" stroke="#FCE7F1" stroke-width="0.7418" stroke-miterlimit="10"/>
<path d="M216.256 51.2422H200.518V55.871H216.256V51.2422Z" stroke="#FCE7F1" stroke-width="0.7418" stroke-miterlimit="10"/>
<path d="M231.996 51.2422H216.258V55.871H231.996V51.2422Z" stroke="#FCE7F1" stroke-width="0.7418" stroke-miterlimit="10"/>
<path d="M178.125 55.8613H162.387V60.4901H178.125V55.8613Z" stroke="#FCE7F1" stroke-width="0.7418" stroke-miterlimit="10"/>
<path d="M193.863 55.8613H178.125V60.4901H193.863V55.8613Z" stroke="#FCE7F1" stroke-width="0.7418" stroke-miterlimit="10"/>
<path d="M209.678 55.8613H193.939V60.4901H209.678V55.8613Z" stroke="#FCE7F1" stroke-width="0.7418" stroke-miterlimit="10"/>
<path d="M225.42 55.8613H209.682V60.4901H225.42V55.8613Z" stroke="#FCE7F1" stroke-width="0.7418" stroke-miterlimit="10"/>
<path d="M184.703 60.5469H168.965V65.1757H184.703V60.5469Z" stroke="#FCE7F1" stroke-width="0.7418" stroke-miterlimit="10"/>
<path d="M200.442 60.5469H184.703V65.1757H200.442V60.5469Z" stroke="#FCE7F1" stroke-width="0.7418" stroke-miterlimit="10"/>
<path d="M216.256 60.5469H200.518V65.1757H216.256V60.5469Z" stroke="#FCE7F1" stroke-width="0.7418" stroke-miterlimit="10"/>
<path d="M231.996 60.5469H216.258V65.1757H231.996V60.5469Z" stroke="#FCE7F1" stroke-width="0.7418" stroke-miterlimit="10"/>
<path d="M178.125 65.3691H162.387V69.998H178.125V65.3691Z" stroke="#FCE7F1" stroke-width="0.7418" stroke-miterlimit="10"/>
<path d="M193.863 65.3691H178.125V69.998H193.863V65.3691Z" stroke="#FCE7F1" stroke-width="0.7418" stroke-miterlimit="10"/>
<path d="M209.678 65.3691H193.939V69.998H209.678V65.3691Z" stroke="#FCE7F1" stroke-width="0.7418" stroke-miterlimit="10"/>
<path d="M225.42 65.3691H209.682V69.998H225.42V65.3691Z" stroke="#FCE7F1" stroke-width="0.7418" stroke-miterlimit="10"/>
<path d="M184.703 69.9531H168.965V74.5819H184.703V69.9531Z" stroke="#FCE7F1" stroke-width="0.7418" stroke-miterlimit="10"/>
<path d="M200.442 69.9531H184.703V74.5819H200.442V69.9531Z" stroke="#FCE7F1" stroke-width="0.7418" stroke-miterlimit="10"/>
<path d="M216.256 69.9531H200.518V74.5819H216.256V69.9531Z" stroke="#FCE7F1" stroke-width="0.7418" stroke-miterlimit="10"/>
<path d="M231.996 69.9531H216.258V74.5819H231.996V69.9531Z" stroke="#FCE7F1" stroke-width="0.7418" stroke-miterlimit="10"/>
<path d="M178.125 74.5723H162.387V79.2011H178.125V74.5723Z" stroke="#FCE7F1" stroke-width="0.7418" stroke-miterlimit="10"/>
<path d="M193.863 74.5723H178.125V79.2011H193.863V74.5723Z" stroke="#FCE7F1" stroke-width="0.7418" stroke-miterlimit="10"/>
<path d="M209.678 74.5723H193.939V79.2011H209.678V74.5723Z" stroke="#FCE7F1" stroke-width="0.7418" stroke-miterlimit="10"/>
<path d="M225.42 74.5723H209.682V79.2011H225.42V74.5723Z" stroke="#FCE7F1" stroke-width="0.7418" stroke-miterlimit="10"/>
<path d="M184.703 79.2559H168.965V83.8847H184.703V79.2559Z" stroke="#FCE7F1" stroke-width="0.7418" stroke-miterlimit="10"/>
<path d="M200.442 79.2559H184.703V83.8847H200.442V79.2559Z" stroke="#FCE7F1" stroke-width="0.7418" stroke-miterlimit="10"/>
<path d="M216.256 79.2559H200.518V83.8847H216.256V79.2559Z" stroke="#FCE7F1" stroke-width="0.7418" stroke-miterlimit="10"/>
<path d="M231.996 79.2559H216.258V83.8847H231.996V79.2559Z" stroke="#FCE7F1" stroke-width="0.7418" stroke-miterlimit="10"/>
<path d="M178.125 83.9961H162.387V88.6249H178.125V83.9961Z" stroke="#FCE7F1" stroke-width="0.7418" stroke-miterlimit="10"/>
<path d="M193.863 83.9961H178.125V88.6249H193.863V83.9961Z" stroke="#FCE7F1" stroke-width="0.7418" stroke-miterlimit="10"/>
<path d="M209.678 83.9961H193.939V88.6249H209.678V83.9961Z" stroke="#FCE7F1" stroke-width="0.7418" stroke-miterlimit="10"/>
<path d="M225.42 83.9961H209.682V88.6249H225.42V83.9961Z" stroke="#FCE7F1" stroke-width="0.7418" stroke-miterlimit="10"/>
<path d="M184.703 88.5801H168.965V93.2089H184.703V88.5801Z" stroke="#FCE7F1" stroke-width="0.7418" stroke-miterlimit="10"/>
<path d="M200.442 88.5801H184.703V93.2089H200.442V88.5801Z" stroke="#FCE7F1" stroke-width="0.7418" stroke-miterlimit="10"/>
<path d="M216.256 88.5801H200.518V93.2089H216.256V88.5801Z" stroke="#FCE7F1" stroke-width="0.7418" stroke-miterlimit="10"/>
<path d="M231.996 88.5801H216.258V93.2089H231.996V88.5801Z" stroke="#FCE7F1" stroke-width="0.7418" stroke-miterlimit="10"/>
<path d="M178.125 93.1992H162.387V97.828H178.125V93.1992Z" stroke="#FCE7F1" stroke-width="0.7418" stroke-miterlimit="10"/>
<path d="M193.863 93.1992H178.125V97.828H193.863V93.1992Z" stroke="#FCE7F1" stroke-width="0.7418" stroke-miterlimit="10"/>
<path d="M209.678 93.1992H193.939V97.828H209.678V93.1992Z" stroke="#FCE7F1" stroke-width="0.7418" stroke-miterlimit="10"/>
<path d="M225.42 93.1992H209.682V97.828H225.42V93.1992Z" stroke="#FCE7F1" stroke-width="0.7418" stroke-miterlimit="10"/>
<path d="M184.703 97.8828H168.965V102.512H184.703V97.8828Z" stroke="#FCE7F1" stroke-width="0.7418" stroke-miterlimit="10"/>
<path d="M200.442 97.8828H184.703V102.512H200.442V97.8828Z" stroke="#FCE7F1" stroke-width="0.7418" stroke-miterlimit="10"/>
<path d="M216.256 97.8828H200.518V102.512H216.256V97.8828Z" stroke="#FCE7F1" stroke-width="0.7418" stroke-miterlimit="10"/>
<path d="M231.996 97.8828H216.258V102.512H231.996V97.8828Z" stroke="#FCE7F1" stroke-width="0.7418" stroke-miterlimit="10"/>
<path d="M178.125 102.705H162.387V107.334H178.125V102.705Z" stroke="#FCE7F1" stroke-width="0.7418" stroke-miterlimit="10"/>
<path d="M193.863 102.705H178.125V107.334H193.863V102.705Z" stroke="#FCE7F1" stroke-width="0.7418" stroke-miterlimit="10"/>
<path d="M209.678 102.705H193.939V107.334H209.678V102.705Z" stroke="#FCE7F1" stroke-width="0.7418" stroke-miterlimit="10"/>
<path d="M225.42 102.705H209.682V107.334H225.42V102.705Z" stroke="#FCE7F1" stroke-width="0.7418" stroke-miterlimit="10"/>
<path d="M184.703 107.289H168.965V111.918H184.703V107.289Z" stroke="#FCE7F1" stroke-width="0.7418" stroke-miterlimit="10"/>
<path d="M200.442 107.289H184.703V111.918H200.442V107.289Z" stroke="#FCE7F1" stroke-width="0.7418" stroke-miterlimit="10"/>
<path d="M216.256 107.289H200.518V111.918H216.256V107.289Z" stroke="#FCE7F1" stroke-width="0.7418" stroke-miterlimit="10"/>
<path d="M231.996 107.289H216.258V111.918H231.996V107.289Z" stroke="#FCE7F1" stroke-width="0.7418" stroke-miterlimit="10"/>
<path d="M178.125 111.908H162.387V116.537H178.125V111.908Z" stroke="#FCE7F1" stroke-width="0.7418" stroke-miterlimit="10"/>
<path d="M193.863 111.908H178.125V116.537H193.863V111.908Z" stroke="#FCE7F1" stroke-width="0.7418" stroke-miterlimit="10"/>
<path d="M209.678 111.908H193.939V116.537H209.678V111.908Z" stroke="#FCE7F1" stroke-width="0.7418" stroke-miterlimit="10"/>
<path d="M225.42 111.908H209.682V116.537H225.42V111.908Z" stroke="#FCE7F1" stroke-width="0.7418" stroke-miterlimit="10"/>
<path d="M184.703 116.592H168.965V121.221H184.703V116.592Z" stroke="#FCE7F1" stroke-width="0.7418" stroke-miterlimit="10"/>
<path d="M200.442 116.592H184.703V121.221H200.442V116.592Z" stroke="#FCE7F1" stroke-width="0.7418" stroke-miterlimit="10"/>
<path d="M216.256 116.592H200.518V121.221H216.256V116.592Z" stroke="#FCE7F1" stroke-width="0.7418" stroke-miterlimit="10"/>
<path d="M231.996 116.592H216.258V121.221H231.996V116.592Z" stroke="#FCE7F1" stroke-width="0.7418" stroke-miterlimit="10"/>
<path d="M162.434 28.1523H146.695V32.7812H162.434V28.1523Z" stroke="#FCE7F1" stroke-width="0.7418" stroke-miterlimit="10"/>
<path d="M153.272 32.7363H137.533V37.3651H153.272V32.7363Z" stroke="#FCE7F1" stroke-width="0.7418" stroke-miterlimit="10"/>
<path d="M169.012 32.7363H153.273V37.3651H169.012V32.7363Z" stroke="#FCE7F1" stroke-width="0.7418" stroke-miterlimit="10"/>
<path d="M162.434 37.3535H146.695V41.9823H162.434V37.3535Z" stroke="#FCE7F1" stroke-width="0.7418" stroke-miterlimit="10"/>
<path d="M153.272 42.041H137.533V46.6698H153.272V42.041Z" stroke="#FCE7F1" stroke-width="0.7418" stroke-miterlimit="10"/>
<path d="M169.012 42.041H153.273V46.6698H169.012V42.041Z" stroke="#FCE7F1" stroke-width="0.7418" stroke-miterlimit="10"/>
<path d="M162.434 46.6582H146.695V51.287H162.434V46.6582Z" stroke="#FCE7F1" stroke-width="0.7418" stroke-miterlimit="10"/>
<path d="M153.274 51.2422H137.535V55.871H153.274V51.2422Z" stroke="#FCE7F1" stroke-width="0.7418" stroke-miterlimit="10"/>
<path d="M169.014 51.2422H153.275V55.871H169.014V51.2422Z" stroke="#FCE7F1" stroke-width="0.7418" stroke-miterlimit="10"/>
<path d="M162.434 55.8613H146.695V60.4901H162.434V55.8613Z" stroke="#FCE7F1" stroke-width="0.7418" stroke-miterlimit="10"/>
<path d="M153.274 60.5469H137.535V65.1757H153.274V60.5469Z" stroke="#FCE7F1" stroke-width="0.7418" stroke-miterlimit="10"/>
<path d="M169.014 60.5469H153.275V65.1757H169.014V60.5469Z" stroke="#FCE7F1" stroke-width="0.7418" stroke-miterlimit="10"/>
<path d="M162.434 65.3691H146.695V69.998H162.434V65.3691Z" stroke="#FCE7F1" stroke-width="0.7418" stroke-miterlimit="10"/>
<path d="M153.274 69.9512H137.535V74.58H153.274V69.9512Z" stroke="#FCE7F1" stroke-width="0.7418" stroke-miterlimit="10"/>
<path d="M169.014 69.9512H153.275V74.58H169.014V69.9512Z" stroke="#FCE7F1" stroke-width="0.7418" stroke-miterlimit="10"/>
<path d="M162.434 74.5723H146.695V79.2011H162.434V74.5723Z" stroke="#FCE7F1" stroke-width="0.7418" stroke-miterlimit="10"/>
<path d="M153.274 79.2559H137.535V83.8847H153.274V79.2559Z" stroke="#FCE7F1" stroke-width="0.7418" stroke-miterlimit="10"/>
<path d="M169.014 79.2559H153.275V83.8847H169.014V79.2559Z" stroke="#FCE7F1" stroke-width="0.7418" stroke-miterlimit="10"/>
<path d="M162.434 83.9961H146.695V88.6249H162.434V83.9961Z" stroke="#FCE7F1" stroke-width="0.7418" stroke-miterlimit="10"/>
<path d="M153.272 88.5801H137.533V93.2089H153.272V88.5801Z" stroke="#FCE7F1" stroke-width="0.7418" stroke-miterlimit="10"/>
<path d="M169.012 88.5801H153.273V93.2089H169.012V88.5801Z" stroke="#FCE7F1" stroke-width="0.7418" stroke-miterlimit="10"/>
<path d="M162.434 93.1992H146.695V97.828H162.434V93.1992Z" stroke="#FCE7F1" stroke-width="0.7418" stroke-miterlimit="10"/>
<path d="M153.272 97.8828H137.533V102.512H153.272V97.8828Z" stroke="#FCE7F1" stroke-width="0.7418" stroke-miterlimit="10"/>
<path d="M169.012 97.8828H153.273V102.512H169.012V97.8828Z" stroke="#FCE7F1" stroke-width="0.7418" stroke-miterlimit="10"/>
<path d="M162.434 102.705H146.695V107.334H162.434V102.705Z" stroke="#FCE7F1" stroke-width="0.7418" stroke-miterlimit="10"/>
<path d="M153.272 107.289H137.533V111.918H153.272V107.289Z" stroke="#FCE7F1" stroke-width="0.7418" stroke-miterlimit="10"/>
<path d="M169.012 107.289H153.273V111.918H169.012V107.289Z" stroke="#FCE7F1" stroke-width="0.7418" stroke-miterlimit="10"/>
<path d="M162.434 111.908H146.695V116.537H162.434V111.908Z" stroke="#FCE7F1" stroke-width="0.7418" stroke-miterlimit="10"/>
<path d="M153.272 116.592H137.533V121.221H153.272V116.592Z" stroke="#FCE7F1" stroke-width="0.7418" stroke-miterlimit="10"/>
<path d="M169.012 116.592H153.273V121.221H169.012V116.592Z" stroke="#FCE7F1" stroke-width="0.7418" stroke-miterlimit="10"/>
<path d="M241.158 121.211H225.42V125.84H241.158V121.211Z" stroke="#FCE7F1" stroke-width="0.7418" stroke-miterlimit="10"/>
<path d="M256.897 121.211H241.158V125.84H256.897V121.211Z" stroke="#FCE7F1" stroke-width="0.7418" stroke-miterlimit="10"/>
<path d="M272.711 121.211H256.973V125.84H272.711V121.211Z" stroke="#FCE7F1" stroke-width="0.7418" stroke-miterlimit="10"/>
<path d="M288.451 121.211H272.713V125.84H288.451V121.211Z" stroke="#FCE7F1" stroke-width="0.7418" stroke-miterlimit="10"/>
<path d="M247.737 125.795H231.998V130.424H247.737V125.795Z" stroke="#FCE7F1" stroke-width="0.7418" stroke-miterlimit="10"/>
<path d="M263.475 125.795H247.736V130.424H263.475V125.795Z" stroke="#FCE7F1" stroke-width="0.7418" stroke-miterlimit="10"/>
<path d="M279.291 125.795H263.553V130.424H279.291V125.795Z" stroke="#FCE7F1" stroke-width="0.7418" stroke-miterlimit="10"/>
<path d="M295.029 125.795H279.291V130.424H295.029V125.795Z" stroke="#FCE7F1" stroke-width="0.7418" stroke-miterlimit="10"/>
<path d="M241.158 130.414H225.42V135.043H241.158V130.414Z" stroke="#FCE7F1" stroke-width="0.7418" stroke-miterlimit="10"/>
<path d="M256.897 130.414H241.158V135.043H256.897V130.414Z" stroke="#FCE7F1" stroke-width="0.7418" stroke-miterlimit="10"/>
<path d="M272.711 130.414H256.973V135.043H272.711V130.414Z" stroke="#FCE7F1" stroke-width="0.7418" stroke-miterlimit="10"/>
<path d="M288.451 130.414H272.713V135.043H288.451V130.414Z" stroke="#FCE7F1" stroke-width="0.7418" stroke-miterlimit="10"/>
<path d="M247.737 135.098H231.998V139.726H247.737V135.098Z" stroke="#FCE7F1" stroke-width="0.7418" stroke-miterlimit="10"/>
<path d="M263.475 135.098H247.736V139.726H263.475V135.098Z" stroke="#FCE7F1" stroke-width="0.7418" stroke-miterlimit="10"/>
<path d="M279.291 135.098H263.553V139.726H279.291V135.098Z" stroke="#FCE7F1" stroke-width="0.7418" stroke-miterlimit="10"/>
<path d="M295.029 135.098H279.291V139.726H295.029V135.098Z" stroke="#FCE7F1" stroke-width="0.7418" stroke-miterlimit="10"/>
<path d="M241.158 139.918H225.42V144.547H241.158V139.918Z" stroke="#FCE7F1" stroke-width="0.7418" stroke-miterlimit="10"/>
<path d="M256.897 139.918H241.158V144.547H256.897V139.918Z" stroke="#FCE7F1" stroke-width="0.7418" stroke-miterlimit="10"/>
<path d="M272.711 139.918H256.973V144.547H272.711V139.918Z" stroke="#FCE7F1" stroke-width="0.7418" stroke-miterlimit="10"/>
<path d="M288.451 139.918H272.713V144.547H288.451V139.918Z" stroke="#FCE7F1" stroke-width="0.7418" stroke-miterlimit="10"/>
<path d="M247.737 144.502H231.998V149.131H247.737V144.502Z" stroke="#FCE7F1" stroke-width="0.7418" stroke-miterlimit="10"/>
<path d="M263.475 144.502H247.736V149.131H263.475V144.502Z" stroke="#FCE7F1" stroke-width="0.7418" stroke-miterlimit="10"/>
<path d="M279.289 144.502H263.551V149.131H279.289V144.502Z" stroke="#FCE7F1" stroke-width="0.7418" stroke-miterlimit="10"/>
<path d="M295.029 144.502H279.291V149.131H295.029V144.502Z" stroke="#FCE7F1" stroke-width="0.7418" stroke-miterlimit="10"/>
<path d="M241.158 149.121H225.42V153.75H241.158V149.121Z" stroke="#FCE7F1" stroke-width="0.7418" stroke-miterlimit="10"/>
<path d="M256.897 149.121H241.158V153.75H256.897V149.121Z" stroke="#FCE7F1" stroke-width="0.7418" stroke-miterlimit="10"/>
<path d="M272.711 149.121H256.973V153.75H272.711V149.121Z" stroke="#FCE7F1" stroke-width="0.7418" stroke-miterlimit="10"/>
<path d="M288.451 149.121H272.713V153.75H288.451V149.121Z" stroke="#FCE7F1" stroke-width="0.7418" stroke-miterlimit="10"/>
<path d="M247.737 153.807H231.998V158.435H247.737V153.807Z" stroke="#FCE7F1" stroke-width="0.7418" stroke-miterlimit="10"/>
<path d="M263.475 153.807H247.736V158.435H263.475V153.807Z" stroke="#FCE7F1" stroke-width="0.7418" stroke-miterlimit="10"/>
<path d="M279.291 153.807H263.553V158.435H279.291V153.807Z" stroke="#FCE7F1" stroke-width="0.7418" stroke-miterlimit="10"/>
<path d="M295.029 153.807H279.291V158.435H295.029V153.807Z" stroke="#FCE7F1" stroke-width="0.7418" stroke-miterlimit="10"/>
<path d="M241.158 158.547H225.42V163.176H241.158V158.547Z" stroke="#FCE7F1" stroke-width="0.7418" stroke-miterlimit="10"/>
<path d="M256.897 158.547H241.158V163.176H256.897V158.547Z" stroke="#FCE7F1" stroke-width="0.7418" stroke-miterlimit="10"/>
<path d="M272.711 158.547H256.973V163.176H272.711V158.547Z" stroke="#FCE7F1" stroke-width="0.7418" stroke-miterlimit="10"/>
<path d="M288.451 158.547H272.713V163.176H288.451V158.547Z" stroke="#FCE7F1" stroke-width="0.7418" stroke-miterlimit="10"/>
<path d="M247.737 163.131H231.998V167.76H247.737V163.131Z" stroke="#FCE7F1" stroke-width="0.7418" stroke-miterlimit="10"/>
<path d="M263.475 163.131H247.736V167.76H263.475V163.131Z" stroke="#FCE7F1" stroke-width="0.7418" stroke-miterlimit="10"/>
<path d="M279.289 163.131H263.551V167.76H279.289V163.131Z" stroke="#FCE7F1" stroke-width="0.7418" stroke-miterlimit="10"/>
<path d="M295.029 163.131H279.291V167.76H295.029V163.131Z" stroke="#FCE7F1" stroke-width="0.7418" stroke-miterlimit="10"/>
<path d="M241.158 167.75H225.42V172.379H241.158V167.75Z" stroke="#FCE7F1" stroke-width="0.7418" stroke-miterlimit="10"/>
<path d="M256.897 167.75H241.158V172.379H256.897V167.75Z" stroke="#FCE7F1" stroke-width="0.7418" stroke-miterlimit="10"/>
<path d="M272.711 167.75H256.973V172.379H272.711V167.75Z" stroke="#FCE7F1" stroke-width="0.7418" stroke-miterlimit="10"/>
<path d="M288.451 167.75H272.713V172.379H288.451V167.75Z" stroke="#FCE7F1" stroke-width="0.7418" stroke-miterlimit="10"/>
<path d="M247.737 172.436H231.998V177.064H247.737V172.436Z" stroke="#FCE7F1" stroke-width="0.7418" stroke-miterlimit="10"/>
<path d="M263.475 172.436H247.736V177.064H263.475V172.436Z" stroke="#FCE7F1" stroke-width="0.7418" stroke-miterlimit="10"/>
<path d="M279.289 172.436H263.551V177.064H279.289V172.436Z" stroke="#FCE7F1" stroke-width="0.7418" stroke-miterlimit="10"/>
<path d="M295.029 172.436H279.291V177.064H295.029V172.436Z" stroke="#FCE7F1" stroke-width="0.7418" stroke-miterlimit="10"/>
<path d="M241.158 177.256H225.42V181.885H241.158V177.256Z" stroke="#FCE7F1" stroke-width="0.7418" stroke-miterlimit="10"/>
<path d="M256.897 177.256H241.158V181.885H256.897V177.256Z" stroke="#FCE7F1" stroke-width="0.7418" stroke-miterlimit="10"/>
<path d="M272.711 177.256H256.973V181.885H272.711V177.256Z" stroke="#FCE7F1" stroke-width="0.7418" stroke-miterlimit="10"/>
<path d="M288.451 177.256H272.713V181.885H288.451V177.256Z" stroke="#FCE7F1" stroke-width="0.7418" stroke-miterlimit="10"/>
<path d="M247.737 181.84H231.998V186.469H247.737V181.84Z" stroke="#FCE7F1" stroke-width="0.7418" stroke-miterlimit="10"/>
<path d="M263.475 181.84H247.736V186.469H263.475V181.84Z" stroke="#FCE7F1" stroke-width="0.7418" stroke-miterlimit="10"/>
<path d="M279.289 181.84H263.551V186.469H279.289V181.84Z" stroke="#FCE7F1" stroke-width="0.7418" stroke-miterlimit="10"/>
<path d="M295.029 181.84H279.291V186.469H295.029V181.84Z" stroke="#FCE7F1" stroke-width="0.7418" stroke-miterlimit="10"/>
<path d="M241.158 186.459H225.42V191.088H241.158V186.459Z" stroke="#FCE7F1" stroke-width="0.7418" stroke-miterlimit="10"/>
<path d="M256.897 186.459H241.158V191.088H256.897V186.459Z" stroke="#FCE7F1" stroke-width="0.7418" stroke-miterlimit="10"/>
<path d="M272.711 186.459H256.973V191.088H272.711V186.459Z" stroke="#FCE7F1" stroke-width="0.7418" stroke-miterlimit="10"/>
<path d="M288.451 186.459H272.713V191.088H288.451V186.459Z" stroke="#FCE7F1" stroke-width="0.7418" stroke-miterlimit="10"/>
<path d="M247.737 191.145H231.998V195.773H247.737V191.145Z" stroke="#FCE7F1" stroke-width="0.7418" stroke-miterlimit="10"/>
<path d="M263.475 191.145H247.736V195.773H263.475V191.145Z" stroke="#FCE7F1" stroke-width="0.7418" stroke-miterlimit="10"/>
<path d="M279.291 191.145H263.553V195.773H279.291V191.145Z" stroke="#FCE7F1" stroke-width="0.7418" stroke-miterlimit="10"/>
<path d="M295.029 191.145H279.291V195.773H295.029V191.145Z" stroke="#FCE7F1" stroke-width="0.7418" stroke-miterlimit="10"/>
<path d="M177.897 121.211H162.158V125.84H177.897V121.211Z" stroke="#FCE7F1" stroke-width="0.7418" stroke-miterlimit="10"/>
<path d="M193.635 121.211H177.896V125.84H193.635V121.211Z" stroke="#FCE7F1" stroke-width="0.7418" stroke-miterlimit="10"/>
<path d="M209.449 121.211H193.711V125.84H209.449V121.211Z" stroke="#FCE7F1" stroke-width="0.7418" stroke-miterlimit="10"/>
<path d="M225.19 121.211H209.451V125.84H225.19V121.211Z" stroke="#FCE7F1" stroke-width="0.7418" stroke-miterlimit="10"/>
<path d="M184.475 125.795H168.736V130.424H184.475V125.795Z" stroke="#FCE7F1" stroke-width="0.7418" stroke-miterlimit="10"/>
<path d="M200.213 125.795H184.475V130.424H200.213V125.795Z" stroke="#FCE7F1" stroke-width="0.7418" stroke-miterlimit="10"/>
<path d="M216.028 125.795H200.289V130.424H216.028V125.795Z" stroke="#FCE7F1" stroke-width="0.7418" stroke-miterlimit="10"/>
<path d="M231.768 125.795H216.029V130.424H231.768V125.795Z" stroke="#FCE7F1" stroke-width="0.7418" stroke-miterlimit="10"/>
<path d="M177.897 130.414H162.158V135.043H177.897V130.414Z" stroke="#FCE7F1" stroke-width="0.7418" stroke-miterlimit="10"/>
<path d="M193.635 130.414H177.896V135.043H193.635V130.414Z" stroke="#FCE7F1" stroke-width="0.7418" stroke-miterlimit="10"/>
<path d="M209.449 130.414H193.711V135.043H209.449V130.414Z" stroke="#FCE7F1" stroke-width="0.7418" stroke-miterlimit="10"/>
<path d="M225.19 130.414H209.451V135.043H225.19V130.414Z" stroke="#FCE7F1" stroke-width="0.7418" stroke-miterlimit="10"/>
<path d="M184.475 135.098H168.736V139.726H184.475V135.098Z" stroke="#FCE7F1" stroke-width="0.7418" stroke-miterlimit="10"/>
<path d="M200.213 135.098H184.475V139.726H200.213V135.098Z" stroke="#FCE7F1" stroke-width="0.7418" stroke-miterlimit="10"/>
<path d="M216.028 135.098H200.289V139.726H216.028V135.098Z" stroke="#FCE7F1" stroke-width="0.7418" stroke-miterlimit="10"/>
<path d="M231.768 135.098H216.029V139.726H231.768V135.098Z" stroke="#FCE7F1" stroke-width="0.7418" stroke-miterlimit="10"/>
<path d="M177.897 139.918H162.158V144.547H177.897V139.918Z" stroke="#FCE7F1" stroke-width="0.7418" stroke-miterlimit="10"/>
<path d="M193.635 139.918H177.896V144.547H193.635V139.918Z" stroke="#FCE7F1" stroke-width="0.7418" stroke-miterlimit="10"/>
<path d="M209.449 139.918H193.711V144.547H209.449V139.918Z" stroke="#FCE7F1" stroke-width="0.7418" stroke-miterlimit="10"/>
<path d="M225.192 139.918H209.453V144.547H225.192V139.918Z" stroke="#FCE7F1" stroke-width="0.7418" stroke-miterlimit="10"/>
<path d="M184.477 144.502H168.738V149.131H184.477V144.502Z" stroke="#FCE7F1" stroke-width="0.7418" stroke-miterlimit="10"/>
<path d="M200.215 144.502H184.477V149.131H200.215V144.502Z" stroke="#FCE7F1" stroke-width="0.7418" stroke-miterlimit="10"/>
<path d="M216.029 144.502H200.291V149.131H216.029V144.502Z" stroke="#FCE7F1" stroke-width="0.7418" stroke-miterlimit="10"/>
<path d="M231.77 144.502H216.031V149.131H231.77V144.502Z" stroke="#FCE7F1" stroke-width="0.7418" stroke-miterlimit="10"/>
<path d="M177.897 149.121H162.158V153.75H177.897V149.121Z" stroke="#FCE7F1" stroke-width="0.7418" stroke-miterlimit="10"/>
<path d="M193.635 149.121H177.896V153.75H193.635V149.121Z" stroke="#FCE7F1" stroke-width="0.7418" stroke-miterlimit="10"/>
<path d="M209.449 149.121H193.711V153.75H209.449V149.121Z" stroke="#FCE7F1" stroke-width="0.7418" stroke-miterlimit="10"/>
<path d="M225.192 149.121H209.453V153.75H225.192V149.121Z" stroke="#FCE7F1" stroke-width="0.7418" stroke-miterlimit="10"/>
<path d="M184.477 153.807H168.738V158.435H184.477V153.807Z" stroke="#FCE7F1" stroke-width="0.7418" stroke-miterlimit="10"/>
<path d="M200.215 153.807H184.477V158.435H200.215V153.807Z" stroke="#FCE7F1" stroke-width="0.7418" stroke-miterlimit="10"/>
<path d="M216.029 153.807H200.291V158.435H216.029V153.807Z" stroke="#FCE7F1" stroke-width="0.7418" stroke-miterlimit="10"/>
<path d="M231.77 153.807H216.031V158.435H231.77V153.807Z" stroke="#FCE7F1" stroke-width="0.7418" stroke-miterlimit="10"/>
<path d="M177.897 158.547H162.158V163.176H177.897V158.547Z" stroke="#FCE7F1" stroke-width="0.7418" stroke-miterlimit="10"/>
<path d="M193.635 158.547H177.896V163.176H193.635V158.547Z" stroke="#FCE7F1" stroke-width="0.7418" stroke-miterlimit="10"/>
<path d="M209.449 158.547H193.711V163.176H209.449V158.547Z" stroke="#FCE7F1" stroke-width="0.7418" stroke-miterlimit="10"/>
<path d="M225.19 158.547H209.451V163.176H225.19V158.547Z" stroke="#FCE7F1" stroke-width="0.7418" stroke-miterlimit="10"/>
<path d="M184.477 163.129H168.738V167.758H184.477V163.129Z" stroke="#FCE7F1" stroke-width="0.7418" stroke-miterlimit="10"/>
<path d="M200.215 163.129H184.477V167.758H200.215V163.129Z" stroke="#FCE7F1" stroke-width="0.7418" stroke-miterlimit="10"/>
<path d="M216.029 163.129H200.291V167.758H216.029V163.129Z" stroke="#FCE7F1" stroke-width="0.7418" stroke-miterlimit="10"/>
<path d="M231.77 163.129H216.031V167.758H231.77V163.129Z" stroke="#FCE7F1" stroke-width="0.7418" stroke-miterlimit="10"/>
<path d="M177.897 167.75H162.158V172.379H177.897V167.75Z" stroke="#FCE7F1" stroke-width="0.7418" stroke-miterlimit="10"/>
<path d="M193.635 167.75H177.896V172.379H193.635V167.75Z" stroke="#FCE7F1" stroke-width="0.7418" stroke-miterlimit="10"/>
<path d="M209.449 167.75H193.711V172.379H209.449V167.75Z" stroke="#FCE7F1" stroke-width="0.7418" stroke-miterlimit="10"/>
<path d="M225.19 167.75H209.451V172.379H225.19V167.75Z" stroke="#FCE7F1" stroke-width="0.7418" stroke-miterlimit="10"/>
<path d="M184.477 172.436H168.738V177.064H184.477V172.436Z" stroke="#FCE7F1" stroke-width="0.7418" stroke-miterlimit="10"/>
<path d="M200.215 172.436H184.477V177.064H200.215V172.436Z" stroke="#FCE7F1" stroke-width="0.7418" stroke-miterlimit="10"/>
<path d="M216.029 172.436H200.291V177.064H216.029V172.436Z" stroke="#FCE7F1" stroke-width="0.7418" stroke-miterlimit="10"/>
<path d="M231.77 172.436H216.031V177.064H231.77V172.436Z" stroke="#FCE7F1" stroke-width="0.7418" stroke-miterlimit="10"/>
<path d="M177.897 177.256H162.158V181.885H177.897V177.256Z" stroke="#FCE7F1" stroke-width="0.7418" stroke-miterlimit="10"/>
<path d="M193.635 177.256H177.896V181.885H193.635V177.256Z" stroke="#FCE7F1" stroke-width="0.7418" stroke-miterlimit="10"/>
<path d="M209.449 177.256H193.711V181.885H209.449V177.256Z" stroke="#FCE7F1" stroke-width="0.7418" stroke-miterlimit="10"/>
<path d="M225.19 177.256H209.451V181.885H225.19V177.256Z" stroke="#FCE7F1" stroke-width="0.7418" stroke-miterlimit="10"/>
<path d="M184.475 181.84H168.736V186.469H184.475V181.84Z" stroke="#FCE7F1" stroke-width="0.7418" stroke-miterlimit="10"/>
<path d="M200.213 181.84H184.475V186.469H200.213V181.84Z" stroke="#FCE7F1" stroke-width="0.7418" stroke-miterlimit="10"/>
<path d="M216.028 181.84H200.289V186.469H216.028V181.84Z" stroke="#FCE7F1" stroke-width="0.7418" stroke-miterlimit="10"/>
<path d="M231.768 181.84H216.029V186.469H231.768V181.84Z" stroke="#FCE7F1" stroke-width="0.7418" stroke-miterlimit="10"/>
<path d="M177.897 186.459H162.158V191.088H177.897V186.459Z" stroke="#FCE7F1" stroke-width="0.7418" stroke-miterlimit="10"/>
<path d="M193.635 186.459H177.896V191.088H193.635V186.459Z" stroke="#FCE7F1" stroke-width="0.7418" stroke-miterlimit="10"/>
<path d="M209.449 186.459H193.711V191.088H209.449V186.459Z" stroke="#FCE7F1" stroke-width="0.7418" stroke-miterlimit="10"/>
<path d="M225.19 186.459H209.451V191.088H225.19V186.459Z" stroke="#FCE7F1" stroke-width="0.7418" stroke-miterlimit="10"/>
<path d="M184.475 191.145H168.736V195.773H184.475V191.145Z" stroke="#FCE7F1" stroke-width="0.7418" stroke-miterlimit="10"/>
<path d="M200.213 191.145H184.475V195.773H200.213V191.145Z" stroke="#FCE7F1" stroke-width="0.7418" stroke-miterlimit="10"/>
<path d="M216.028 191.145H200.289V195.773H216.028V191.145Z" stroke="#FCE7F1" stroke-width="0.7418" stroke-miterlimit="10"/>
<path d="M231.768 191.145H216.029V195.773H231.768V191.145Z" stroke="#FCE7F1" stroke-width="0.7418" stroke-miterlimit="10"/>
<path d="M162.27 121.211H146.531V125.84H162.27V121.211Z" stroke="#FCE7F1" stroke-width="0.7418" stroke-miterlimit="10"/>
<path d="M153.108 125.795H137.369V130.424H153.108V125.795Z" stroke="#FCE7F1" stroke-width="0.7418" stroke-miterlimit="10"/>
<path d="M168.85 125.795H153.111V130.424H168.85V125.795Z" stroke="#FCE7F1" stroke-width="0.7418" stroke-miterlimit="10"/>
<path d="M162.27 130.414H146.531V135.043H162.27V130.414Z" stroke="#FCE7F1" stroke-width="0.7418" stroke-miterlimit="10"/>
<path d="M153.108 135.098H137.369V139.726H153.108V135.098Z" stroke="#FCE7F1" stroke-width="0.7418" stroke-miterlimit="10"/>
<path d="M168.85 135.098H153.111V139.726H168.85V135.098Z" stroke="#FCE7F1" stroke-width="0.7418" stroke-miterlimit="10"/>
<path d="M162.27 139.918H146.531V144.547H162.27V139.918Z" stroke="#FCE7F1" stroke-width="0.7418" stroke-miterlimit="10"/>
<path d="M153.106 144.502H137.367V149.131H153.106V144.502Z" stroke="#FCE7F1" stroke-width="0.7418" stroke-miterlimit="10"/>
<path d="M168.848 144.502H153.109V149.131H168.848V144.502Z" stroke="#FCE7F1" stroke-width="0.7418" stroke-miterlimit="10"/>
<path d="M162.27 149.121H146.531V153.75H162.27V149.121Z" stroke="#FCE7F1" stroke-width="0.7418" stroke-miterlimit="10"/>
<path d="M153.106 153.807H137.367V158.435H153.106V153.807Z" stroke="#FCE7F1" stroke-width="0.7418" stroke-miterlimit="10"/>
<path d="M168.848 153.807H153.109V158.435H168.848V153.807Z" stroke="#FCE7F1" stroke-width="0.7418" stroke-miterlimit="10"/>
<path d="M162.27 158.547H146.531V163.176H162.27V158.547Z" stroke="#FCE7F1" stroke-width="0.7418" stroke-miterlimit="10"/>
<path d="M153.108 163.129H137.369V167.758H153.108V163.129Z" stroke="#FCE7F1" stroke-width="0.7418" stroke-miterlimit="10"/>
<path d="M168.85 163.129H153.111V167.758H168.85V163.129Z" stroke="#FCE7F1" stroke-width="0.7418" stroke-miterlimit="10"/>
<path d="M162.27 167.75H146.531V172.379H162.27V167.75Z" stroke="#FCE7F1" stroke-width="0.7418" stroke-miterlimit="10"/>
<path d="M153.108 172.436H137.369V177.064H153.108V172.436Z" stroke="#FCE7F1" stroke-width="0.7418" stroke-miterlimit="10"/>
<path d="M168.85 172.436H153.111V177.064H168.85V172.436Z" stroke="#FCE7F1" stroke-width="0.7418" stroke-miterlimit="10"/>
<path d="M162.27 177.256H146.531V181.885H162.27V177.256Z" stroke="#FCE7F1" stroke-width="0.7418" stroke-miterlimit="10"/>
<path d="M153.108 181.84H137.369V186.469H153.108V181.84Z" stroke="#FCE7F1" stroke-width="0.7418" stroke-miterlimit="10"/>
<path d="M168.85 181.84H153.111V186.469H168.85V181.84Z" stroke="#FCE7F1" stroke-width="0.7418" stroke-miterlimit="10"/>
<path d="M162.27 186.459H146.531V191.088H162.27V186.459Z" stroke="#FCE7F1" stroke-width="0.7418" stroke-miterlimit="10"/>
<path d="M153.108 191.145H137.369V195.773H153.108V191.145Z" stroke="#FCE7F1" stroke-width="0.7418" stroke-miterlimit="10"/>
<path d="M168.85 191.145H153.111V195.773H168.85V191.145Z" stroke="#FCE7F1" stroke-width="0.7418" stroke-miterlimit="10"/>
</g>
<path opacity="0.3" d="M287.168 35.184V26.9004L147.393 57.4763V66.5867L287.168 35.184Z" fill="#2D2563"/>
<path opacity="0.5" d="M258.256 158.562H176.305V163.971H258.256V158.562Z" fill="#2D2563"/>
<path d="M256.923 74.8848H177.309V158.152H256.923V74.8848Z" fill="white"/>
<path opacity="0.3" d="M256.923 74.8848H177.309V158.152H256.923V74.8848Z" fill="#FEA938"/>
<mask id="mask4_1666_8195" style="mask-type:luminance" maskUnits="userSpaceOnUse" x="177" y="74" width="80" height="85">
<path d="M256.925 74.8828H177.311V158.15H256.925V74.8828Z" fill="white"/>
</mask>
<g mask="url(#mask4_1666_8195)">
<g opacity="0.5">
<path d="M202.951 54.7909L186.432 71.3105L270.359 155.238L286.878 138.718L202.951 54.7909Z" fill="white"/>
<path d="M163.474 67.174L161.971 68.6777L259.445 166.152L260.949 164.648L163.474 67.174Z" fill="white"/>
<path d="M139.371 89.4494L137.867 90.9531L235.341 188.427L236.845 186.924L139.371 89.4494Z" fill="white"/>
<path d="M190.137 36.5061L188.633 38.0098L286.107 135.484L287.611 133.98L190.137 36.5061Z" fill="white"/>
<path d="M159.639 72.1036L151.744 79.998L249.218 177.472L257.113 169.578L159.639 72.1036Z" fill="white"/>
</g>
</g>
<path d="M175.848 73.4258V159.614H258.385V73.4258H175.848ZM255.462 82.5555H218.577V76.348H255.462V82.5555ZM215.655 76.348V82.5555H178.769V76.348H215.655ZM178.769 85.4771H215.655V156.693H178.769V85.4771ZM218.577 156.693V85.4771H255.462V156.693H218.577Z" fill="#2D2563"/>
<path d="M435.137 193.93H146.424V210.891H435.137V193.93Z" fill="#EBF7FF"/>
<path opacity="0.3" d="M435.138 197.342H288.072V204.652H435.138V197.342Z" fill="#2D2563"/>
<path d="M442.544 205.158H288.072V218.56H442.544V205.158Z" fill="#EBF7FF"/>
<path opacity="0.3" d="M442.544 209.422H288.072V218.56H442.544V209.422Z" fill="#2D2563"/>
<path d="M121.889 208.989C122.393 209.011 122.896 209.029 123.399 209.046C128.041 184.2 120.666 165.602 120.666 165.602C114.713 182.864 117.392 207.866 117.392 207.866L121.889 208.989Z" fill="#0069B9"/>
<path d="M122.205 206.37C122.205 206.37 123.502 178.383 136.295 170.088C136.295 170.088 131.088 198.283 128.514 209.093L122.205 206.37Z" fill="#0069B9"/>
<path d="M117.573 208.705C119.137 208.857 120.702 208.946 122.269 209.008L123.463 208.4C123.463 208.4 120.651 180.527 107.912 172.838C107.912 172.838 113.521 196.64 116.801 208.683C117.057 208.681 117.313 208.68 117.573 208.705Z" fill="#0069B9"/>
<path d="M129.814 209.211C129.876 208.874 129.931 208.517 129.973 208.116C130.939 198.896 143.731 179.328 143.731 179.328C126.293 184.96 122.952 207.894 122.797 209.029C125.135 209.111 127.476 209.14 129.814 209.211Z" fill="#0069B9"/>
<path d="M117.574 208.705C119.053 208.848 120.535 208.934 122.018 208.995C121.11 205.121 116.478 189.16 101.223 186.094C101.223 186.094 113.327 200.882 115.115 208.888C115.906 208.702 116.727 208.623 117.574 208.705Z" fill="#0069B9"/>
<path d="M174.596 213.168C174.137 213.187 173.678 213.205 173.219 213.219C168.986 190.562 175.711 173.602 175.711 173.602C181.139 189.344 178.697 212.143 178.697 212.143L174.596 213.168Z" fill="#0069B9"/>
<path d="M174.308 210.78C174.308 210.78 173.125 185.257 161.459 177.693C161.459 177.693 166.207 203.405 168.555 213.263L174.308 210.78Z" fill="#0069B9"/>
<path d="M178.531 212.908C177.106 213.046 175.678 213.128 174.249 213.184L173.16 212.628C173.16 212.628 175.724 187.211 187.341 180.199C187.341 180.199 182.226 201.905 179.235 212.887C179.003 212.886 178.769 212.885 178.531 212.908Z" fill="#0069B9"/>
<path d="M167.369 213.369C167.314 213.061 167.263 212.736 167.224 212.369C166.343 203.962 154.678 186.117 154.678 186.117C170.58 191.253 173.627 212.167 173.768 213.201C171.636 213.277 169.501 213.304 167.369 213.369Z" fill="#0069B9"/>
<path d="M178.529 212.909C177.18 213.04 175.829 213.118 174.477 213.174C175.305 209.641 179.529 195.086 193.44 192.289C193.44 192.289 182.402 205.774 180.771 213.076C180.051 212.907 179.302 212.834 178.529 212.909Z" fill="#0069B9"/>
<path d="M265.7 213.168C265.24 213.187 264.782 213.205 264.323 213.219C260.089 190.562 266.815 173.602 266.815 173.602C272.243 189.344 269.801 212.143 269.801 212.143L265.7 213.168Z" fill="#0069B9"/>
<path d="M265.411 210.78C265.411 210.78 264.228 185.257 252.562 177.693C252.562 177.693 257.311 203.405 259.659 213.263L265.411 210.78Z" fill="#0069B9"/>
<path d="M269.634 212.908C268.209 213.046 266.782 213.128 265.353 213.184L264.264 212.628C264.264 212.628 266.828 187.211 278.445 180.199C278.445 180.199 273.33 201.905 270.339 212.887C270.106 212.886 269.872 212.885 269.634 212.908Z" fill="#0069B9"/>
<path d="M258.473 213.369C258.417 213.061 258.367 212.736 258.328 212.369C257.447 203.962 245.781 186.117 245.781 186.117C261.684 191.253 264.73 212.167 264.872 213.201C262.74 213.277 260.605 213.304 258.473 213.369Z" fill="#0069B9"/>
<path d="M269.633 212.909C268.284 213.04 266.932 213.118 265.58 213.174C266.408 209.641 270.633 195.086 284.544 192.289C284.544 192.289 273.505 205.774 271.875 213.076C271.155 212.907 270.405 212.834 269.633 212.909Z" fill="#0069B9"/>
<path d="M219.272 212.748C219.74 212.768 220.21 212.786 220.679 212.8C225.003 189.656 218.133 172.332 218.133 172.332C212.588 188.412 215.083 211.701 215.083 211.701L219.272 212.748Z" fill="#0069B9"/>
<path d="M219.566 210.308C219.566 210.308 220.775 184.238 232.691 176.512C232.691 176.512 227.841 202.775 225.443 212.845L219.566 210.308Z" fill="#0069B9"/>
<path d="M215.252 212.484C216.708 212.625 218.166 212.708 219.625 212.765L220.737 212.198C220.737 212.198 218.118 186.235 206.252 179.072C206.252 179.072 211.477 201.244 214.532 212.462C214.77 212.461 215.009 212.46 215.252 212.484Z" fill="#0069B9"/>
<path d="M226.654 212.954C226.71 212.639 226.762 212.307 226.801 211.933C227.701 203.345 239.618 185.117 239.618 185.117C223.374 190.363 220.262 211.726 220.117 212.783C222.296 212.86 224.476 212.887 226.654 212.954Z" fill="#0069B9"/>
<path d="M215.253 212.484C216.63 212.618 218.011 212.697 219.392 212.755C218.547 209.146 214.231 194.279 200.021 191.422C200.021 191.422 211.297 205.197 212.963 212.655C213.698 212.481 214.464 212.408 215.253 212.484Z" fill="#0069B9"/>
<path d="M68.5532 260.404C95.9509 260.404 118.161 258.169 118.161 255.412C118.161 252.655 95.9509 250.42 68.5532 250.42C41.1555 250.42 18.9453 252.655 18.9453 255.412C18.9453 258.169 41.1555 260.404 68.5532 260.404Z" fill="#2895E9"/>
<path d="M41.899 160.609H36.0996V256.125H41.899V160.609Z" fill="#2D2563"/>
<path d="M41.899 160.609H36.0996V236.692H41.899V160.609Z" fill="#1A164C"/>
<path d="M101.801 160.609H96.002V256.125H101.801V160.609Z" fill="#2D2563"/>
<path d="M101.801 160.609H96.002V236.692H101.801V160.609Z" fill="#1A164C"/>
<path d="M22.9668 229.914H113.794L128.578 200.612L113.794 167.49H22.9668V229.914Z" fill="#0078D4" stroke="#2D2563" stroke-width="6" stroke-miterlimit="10"/>
<path d="M42.4347 194V179.455H47.8892C49.0066 179.455 49.9441 179.649 50.7017 180.037C51.464 180.425 52.0393 180.97 52.4276 181.67C52.8205 182.366 53.017 183.179 53.017 184.107C53.017 185.039 52.8182 185.849 52.4205 186.536C52.0275 187.217 51.4474 187.745 50.6804 188.119C49.9134 188.489 48.9711 188.673 47.8537 188.673H43.9688V186.486H47.4986C48.152 186.486 48.687 186.396 49.1037 186.216C49.5204 186.031 49.8281 185.764 50.027 185.413C50.2306 185.058 50.3324 184.623 50.3324 184.107C50.3324 183.59 50.2306 183.15 50.027 182.786C49.8234 182.416 49.5133 182.137 49.0966 181.947C48.6799 181.753 48.1425 181.656 47.4844 181.656H45.0696V194H42.4347ZM49.9489 187.409L53.5497 194H50.6094L47.0724 187.409H49.9489ZM60.0021 194.213C58.9084 194.213 57.9638 193.986 57.1683 193.531C56.3776 193.072 55.7692 192.423 55.343 191.585C54.9169 190.742 54.7038 189.75 54.7038 188.609C54.7038 187.487 54.9169 186.502 55.343 185.655C55.7739 184.803 56.3752 184.14 57.147 183.666C57.9188 183.188 58.8255 182.949 59.8672 182.949C60.5395 182.949 61.174 183.058 61.7706 183.276C62.3719 183.489 62.9022 183.82 63.3615 184.27C63.8255 184.72 64.1901 185.293 64.4553 185.989C64.7204 186.68 64.853 187.504 64.853 188.46V189.249H55.9112V187.516H62.3885C62.3838 187.023 62.2772 186.585 62.0689 186.202C61.8606 185.813 61.5694 185.508 61.1953 185.286C60.826 185.063 60.3951 184.952 59.9027 184.952C59.3771 184.952 58.9155 185.08 58.5178 185.335C58.12 185.586 57.8099 185.918 57.5874 186.33C57.3696 186.737 57.2583 187.184 57.2536 187.672V189.185C57.2536 189.819 57.3696 190.364 57.6016 190.818C57.8336 191.268 58.1579 191.614 58.5746 191.855C58.9912 192.092 59.4789 192.21 60.0376 192.21C60.4117 192.21 60.7502 192.158 61.0533 192.054C61.3563 191.945 61.6191 191.786 61.8416 191.578C62.0642 191.37 62.2322 191.112 62.3459 190.804L64.7464 191.074C64.5949 191.708 64.3061 192.262 63.88 192.736C63.4586 193.205 62.9188 193.569 62.2607 193.83C61.6025 194.085 60.8497 194.213 60.0021 194.213ZM69.5991 187.608V194H67.0281V183.091H69.4854V184.945H69.6133C69.8642 184.334 70.2643 183.848 70.8136 183.489C71.3675 183.129 72.0517 182.949 72.8661 182.949C73.619 182.949 74.2747 183.11 74.8335 183.432C75.3969 183.754 75.8325 184.22 76.1403 184.831C76.4528 185.442 76.6067 186.183 76.6019 187.054V194H74.0309V187.452C74.0309 186.723 73.8415 186.152 73.4627 185.74C73.0887 185.328 72.5702 185.122 71.9073 185.122C71.4575 185.122 71.0574 185.222 70.707 185.42C70.3614 185.615 70.0891 185.896 69.8903 186.266C69.6961 186.635 69.5991 187.082 69.5991 187.608ZM84.663 183.091V185.08H78.3917V183.091H84.663ZM79.94 180.477H82.511V190.719C82.511 191.064 82.5631 191.33 82.6673 191.514C82.7762 191.694 82.9182 191.817 83.0934 191.884C83.2686 191.95 83.4627 191.983 83.6758 191.983C83.8368 191.983 83.9835 191.971 84.1161 191.947C84.2534 191.924 84.3576 191.902 84.4286 191.884L84.8619 193.893C84.7246 193.941 84.5281 193.993 84.2724 194.05C84.0214 194.107 83.7137 194.14 83.3491 194.149C82.7051 194.168 82.1251 194.071 81.609 193.858C81.0929 193.64 80.6834 193.304 80.3803 192.849C80.082 192.395 79.9353 191.827 79.94 191.145V180.477ZM96.1207 194.213C95.1264 194.213 94.2718 194.033 93.5568 193.673C92.8419 193.313 92.2902 192.828 91.902 192.217C91.5185 191.602 91.3267 190.908 91.3267 190.136C91.3267 189.554 91.4451 189.038 91.6818 188.588C91.9233 188.138 92.2547 187.722 92.6761 187.338C93.1023 186.955 93.5947 186.573 94.1534 186.195L96.7315 184.44C97.1103 184.194 97.3968 183.934 97.5909 183.659C97.7898 183.384 97.8892 183.062 97.8892 182.693C97.8892 182.381 97.7566 182.085 97.4915 181.805C97.2311 181.526 96.8712 181.386 96.4119 181.386C96.1042 181.386 95.8319 181.46 95.5952 181.607C95.3632 181.749 95.1809 181.936 95.0483 182.168C94.9205 182.4 94.8565 182.646 94.8565 182.906C94.8565 183.223 94.9441 183.545 95.1193 183.872C95.2992 184.199 95.5313 184.537 95.8153 184.888C96.1042 185.238 96.4119 185.61 96.7386 186.003L103.564 194H100.78L95.1122 187.509C94.6908 187.016 94.2836 186.531 93.8906 186.053C93.5024 185.574 93.1828 185.077 92.9318 184.561C92.6856 184.04 92.5625 183.477 92.5625 182.871C92.5625 182.184 92.7211 181.571 93.0384 181.031C93.3556 180.487 93.7983 180.058 94.3665 179.746C94.9394 179.433 95.6094 179.277 96.3764 179.277C97.1435 179.277 97.8016 179.429 98.3509 179.732C98.9001 180.035 99.3239 180.437 99.6222 180.939C99.9205 181.441 100.07 181.988 100.07 182.58C100.07 183.266 99.8991 183.882 99.5582 184.426C99.2173 184.966 98.7438 185.456 98.1378 185.896L95.1974 188.048C94.7145 188.399 94.3688 188.754 94.1605 189.114C93.9522 189.469 93.848 189.772 93.848 190.023C93.848 190.406 93.9451 190.754 94.1392 191.067C94.3333 191.379 94.6056 191.63 94.956 191.82C95.3111 192.004 95.7254 192.097 96.1989 192.097C96.7197 192.097 97.2334 191.981 97.7401 191.749C98.2467 191.512 98.7083 191.176 99.125 190.74C99.5417 190.304 99.8731 189.784 100.119 189.178C100.366 188.567 100.489 187.89 100.489 187.146H102.697C102.697 188.065 102.596 188.865 102.392 189.547C102.188 190.224 101.926 190.797 101.604 191.266C101.282 191.73 100.941 192.101 100.581 192.381C100.467 192.461 100.358 192.542 100.254 192.622C100.15 192.703 100.041 192.783 99.9276 192.864C99.4162 193.328 98.8172 193.669 98.1307 193.886C97.4489 194.104 96.7789 194.213 96.1207 194.213ZM50.3395 207.453C50.2732 206.833 49.9938 206.35 49.5014 206.004C49.0137 205.659 48.3793 205.486 47.598 205.486C47.0488 205.486 46.5777 205.569 46.1847 205.734C45.7917 205.9 45.491 206.125 45.2827 206.409C45.0743 206.693 44.9678 207.018 44.9631 207.382C44.9631 207.685 45.0317 207.948 45.169 208.17C45.3111 208.393 45.5028 208.582 45.7443 208.739C45.9858 208.89 46.2533 209.018 46.5469 209.122C46.8404 209.226 47.1364 209.314 47.4347 209.385L48.7983 209.726C49.3475 209.854 49.8755 210.027 50.3821 210.244C50.8935 210.462 51.3504 210.737 51.7528 211.068C52.16 211.4 52.482 211.8 52.7188 212.268C52.9555 212.737 53.0739 213.286 53.0739 213.916C53.0739 214.768 52.8561 215.519 52.4205 216.168C51.9848 216.812 51.3551 217.316 50.5312 217.68C49.7121 218.04 48.7202 218.22 47.5554 218.22C46.4238 218.22 45.4413 218.045 44.608 217.695C43.7794 217.344 43.1307 216.833 42.6619 216.161C42.1979 215.488 41.947 214.669 41.9091 213.703H44.5014C44.5393 214.21 44.6955 214.631 44.9702 214.967C45.2448 215.304 45.6023 215.554 46.0426 215.72C46.4877 215.886 46.9848 215.969 47.5341 215.969C48.107 215.969 48.6089 215.884 49.0398 215.713C49.4754 215.538 49.8163 215.296 50.0625 214.989C50.3087 214.676 50.4342 214.312 50.4389 213.895C50.4342 213.516 50.3229 213.204 50.1051 212.957C49.8873 212.706 49.5819 212.498 49.1889 212.332C48.8007 212.162 48.3461 212.01 47.8253 211.878L46.1705 211.452C44.9725 211.144 44.0256 210.678 43.3295 210.053C42.6383 209.423 42.2926 208.587 42.2926 207.545C42.2926 206.688 42.5246 205.938 42.9886 205.294C43.4574 204.65 44.0942 204.151 44.8991 203.795C45.7041 203.436 46.6155 203.256 47.6335 203.256C48.6657 203.256 49.5701 203.436 50.3466 203.795C51.1278 204.151 51.741 204.645 52.1861 205.28C52.6312 205.91 52.8608 206.634 52.875 207.453H50.3395ZM58.4485 218.22C57.7572 218.22 57.1346 218.097 56.5806 217.851C56.0314 217.6 55.5958 217.231 55.2738 216.743C54.9566 216.255 54.7979 215.654 54.7979 214.939C54.7979 214.323 54.9116 213.814 55.1388 213.412C55.3661 213.009 55.6763 212.688 56.0692 212.446C56.4622 212.205 56.9049 212.022 57.3974 211.899C57.8945 211.771 58.4083 211.679 58.9386 211.622C59.5778 211.556 60.0962 211.497 60.494 211.445C60.8917 211.388 61.1805 211.303 61.3604 211.189C61.5451 211.071 61.6374 210.888 61.6374 210.642V210.599C61.6374 210.064 61.4788 209.65 61.1616 209.357C60.8443 209.063 60.3874 208.916 59.7908 208.916C59.1611 208.916 58.6616 209.054 58.2923 209.328C57.9277 209.603 57.6815 209.927 57.5536 210.301L55.1531 209.96C55.3424 209.297 55.6549 208.743 56.0906 208.298C56.5262 207.848 57.0588 207.512 57.6886 207.29C58.3183 207.062 59.0143 206.949 59.7766 206.949C60.3022 206.949 60.8254 207.01 61.3462 207.134C61.8671 207.257 62.3429 207.46 62.7738 207.744C63.2047 208.024 63.5503 208.405 63.8107 208.888C64.0759 209.371 64.2085 209.974 64.2085 210.699V218H61.7369V216.501H61.6516C61.4954 216.804 61.2752 217.089 60.9911 217.354C60.7118 217.614 60.359 217.825 59.9329 217.986C59.5115 218.142 59.0167 218.22 58.4485 218.22ZM59.1161 216.331C59.6322 216.331 60.0797 216.229 60.4585 216.026C60.8372 215.817 61.1284 215.543 61.332 215.202C61.5404 214.861 61.6445 214.489 61.6445 214.087V212.801C61.564 212.867 61.4267 212.929 61.2326 212.986C61.0432 213.043 60.8301 213.092 60.5934 213.135C60.3567 213.178 60.1223 213.215 59.8903 213.249C59.6583 213.282 59.457 213.31 59.2866 213.334C58.9031 213.386 58.5598 213.471 58.2567 213.589C57.9537 213.708 57.7146 213.874 57.5394 214.087C57.3642 214.295 57.2766 214.565 57.2766 214.896C57.2766 215.37 57.4495 215.727 57.7951 215.969C58.1407 216.21 58.5811 216.331 59.1161 216.331ZM69.3647 203.455V218H66.7937V203.455H69.3647ZM76.8381 218.213C75.7443 218.213 74.7997 217.986 74.0043 217.531C73.2135 217.072 72.6051 216.423 72.179 215.585C71.7528 214.742 71.5398 213.75 71.5398 212.609C71.5398 211.487 71.7528 210.502 72.179 209.655C72.6098 208.803 73.2112 208.14 73.983 207.666C74.7547 207.188 75.6615 206.949 76.7031 206.949C77.3755 206.949 78.0099 207.058 78.6065 207.276C79.2079 207.489 79.7382 207.82 80.1974 208.27C80.6615 208.72 81.026 209.293 81.2912 209.989C81.5563 210.68 81.6889 211.504 81.6889 212.46V213.249H72.7472V211.516H79.2244C79.2197 211.023 79.1132 210.585 78.9048 210.202C78.6965 209.813 78.4053 209.508 78.0312 209.286C77.6619 209.063 77.2311 208.952 76.7386 208.952C76.2131 208.952 75.7514 209.08 75.3537 209.335C74.956 209.586 74.6458 209.918 74.4233 210.33C74.2055 210.737 74.0942 211.184 74.0895 211.672V213.185C74.0895 213.819 74.2055 214.364 74.4375 214.818C74.6695 215.268 74.9938 215.614 75.4105 215.855C75.8272 216.092 76.3149 216.21 76.8736 216.21C77.2476 216.21 77.5862 216.158 77.8892 216.054C78.1922 215.945 78.455 215.786 78.6776 215.578C78.9001 215.37 79.0682 215.112 79.1818 214.804L81.5824 215.074C81.4309 215.708 81.142 216.262 80.7159 216.736C80.2945 217.205 79.7547 217.569 79.0966 217.83C78.4384 218.085 77.6856 218.213 76.8381 218.213Z" fill="white"/>
</svg>
