<svg width="90" height="91" viewBox="0 0 90 91" fill="none" xmlns="http://www.w3.org/2000/svg">
<g filter="url(#filter0_d_4277_21016)">
<rect x="4" y="4.55859" width="82" height="82" rx="5" fill="#F1F9FF"/>
<mask id="mask0_4277_21016" style="mask-type:luminance" maskUnits="userSpaceOnUse" x="20" y="24" width="50" height="43">
<path d="M20.3994 29.957C20.3994 27.1956 22.638 24.957 25.3994 24.957H64.5994C67.3608 24.957 69.5994 27.1956 69.5994 29.957V61.157C69.5994 63.9185 67.3608 66.157 64.5994 66.157H25.3994C22.638 66.157 20.3994 63.9185 20.3994 61.157V29.957Z" fill="white"/>
</mask>
<g mask="url(#mask0_4277_21016)">
<path fill-rule="evenodd" clip-rule="evenodd" d="M65.1577 32.5861C65.1577 32.8364 65.3557 33.0486 65.606 33.0486H66.7702C68.3119 33.0486 69.5994 34.4048 69.5994 36.1194V63.0694C69.5994 64.784 68.3119 66.1402 66.7702 66.1402H23.2286C21.6869 66.1402 20.3994 64.784 20.3994 63.0694V36.1194C20.3994 34.4048 21.6869 33.0486 23.2286 33.0486H49.4762C49.7265 33.0486 49.9244 32.8364 49.9244 32.5861C49.9244 28.3777 53.3369 24.959 57.5411 24.959C61.7453 24.959 65.1577 28.3777 65.1577 32.5861ZM52.0113 37.8285C50.4354 36.1617 48.5447 34.4444 46.2509 34.4444H23.2286C22.414 34.4444 21.7932 35.2132 21.7932 36.1194V63.0694C21.7932 63.9757 22.414 64.7444 23.2286 64.7444H66.7702C67.5848 64.7444 68.2057 63.9757 68.2057 63.0694V36.1194C68.2057 35.2132 67.5848 34.4444 66.7702 34.4444C65.6878 34.4444 64.7773 35.2035 64.2697 36.1595C62.9899 38.5702 60.4564 40.2132 57.5411 40.2132C55.3638 40.2132 53.3994 39.2967 52.0113 37.8285ZM28.1661 42.7611C28.1661 40.6027 29.9119 38.8548 32.0682 38.8548C34.2244 38.8548 35.9702 40.6027 35.9702 42.7611C35.9702 44.9194 34.2244 46.6694 32.0682 46.6694C29.9119 46.6694 28.1661 44.9194 28.1661 42.7611ZM29.5598 42.7611C29.5598 44.1486 30.6827 45.2736 32.0682 45.2736C33.4536 45.2736 34.5765 44.1486 34.5765 42.7611C34.5765 41.3736 33.4536 40.2507 32.0682 40.2507C30.6827 40.2507 29.5598 41.3736 29.5598 42.7611ZM39.6994 54.7652C39.6994 55.7694 39.0432 56.6236 37.8807 57.2257C36.4702 57.9569 34.2702 58.3402 32.0682 58.3402C29.864 58.3402 27.6661 57.9569 26.2557 57.2257C25.0932 56.6236 24.4369 55.7694 24.4369 54.7652C24.4369 50.5444 27.8536 47.1215 32.0682 47.1215C36.2827 47.1215 39.6994 50.5444 39.6994 54.7652ZM38.3057 54.7652C38.3057 51.3152 35.514 48.5194 32.0682 48.5194C28.6244 48.5194 25.8307 51.3152 25.8307 54.7652C25.8307 55.2965 26.2807 55.6673 26.8973 55.9861C28.1494 56.6361 30.1098 56.9444 32.0682 56.9444C34.0265 56.9444 35.9869 56.6361 37.239 55.9861C37.8557 55.6673 38.3057 55.2965 38.3057 54.7652ZM65.1577 42.334V47.2215C65.1577 47.6069 64.8452 47.9194 64.4598 47.9194H43.3182C42.9327 47.9194 42.6202 47.6069 42.6202 47.2215V42.334C42.6202 41.9486 42.9327 41.634 43.3182 41.634H64.4598C64.8452 41.634 65.1577 41.9486 65.1577 42.334ZM63.764 44.7777C63.764 43.8135 62.9824 43.0319 62.0182 43.0319H45.7598C44.7956 43.0319 44.014 43.8135 44.014 44.7777C44.014 45.7419 44.7956 46.5236 45.7598 46.5236H62.0182C62.9824 46.5236 63.764 45.7419 63.764 44.7777ZM25.6202 61.6611C25.2369 61.6611 24.9244 61.3465 24.9244 60.9632C24.9244 60.5777 25.2369 60.2632 25.6202 60.2632H33.5077C33.8911 60.2632 34.2036 60.5777 34.2036 60.9632C34.2036 61.3465 33.8911 61.6611 33.5077 61.6611H25.6202ZM56.5744 61.6611C56.189 61.6611 55.8765 61.3465 55.8765 60.9632C55.8765 60.5777 56.189 60.2632 56.5744 60.2632H64.4598C64.8452 60.2632 65.1577 60.5777 65.1577 60.9632C65.1577 61.3465 64.8452 61.6611 64.4598 61.6611H56.5744ZM43.3182 53.0944C42.9327 53.0944 42.6202 52.7819 42.6202 52.3965C42.6202 52.0111 42.9327 51.6986 43.3182 51.6986H59.5327C59.9182 51.6986 60.2307 52.0111 60.2307 52.3965C60.2307 52.7819 59.9182 53.0944 59.5327 53.0944H43.3182ZM43.3182 57.4632C42.9327 57.4632 42.6202 57.1507 42.6202 56.7652C42.6202 56.3798 42.9327 56.0673 43.3182 56.0673H59.5327C59.9182 56.0673 60.2307 56.3798 60.2307 56.7652C60.2307 57.1507 59.9182 57.4632 59.5327 57.4632H43.3182ZM57.5411 26.3569C54.1077 26.3569 51.3182 29.1486 51.3182 32.5861C51.3182 36.0257 54.1077 38.8173 57.5411 38.8173C60.9744 38.8173 63.764 36.0257 63.764 32.5861C63.764 29.1486 60.9744 26.3569 57.5411 26.3569ZM60.6702 29.9007C60.9682 29.6569 61.4077 29.7027 61.6515 30.0027C61.8932 30.3007 61.8473 30.7423 61.5494 30.984L56.2765 35.2736C56.1244 35.3965 55.9265 35.4507 55.7327 35.4215C55.539 35.3923 55.3661 35.284 55.2577 35.1215L53.3932 32.3402C53.1786 32.0215 53.264 31.5882 53.5848 31.3715C53.9036 31.1569 54.3369 31.2423 54.5515 31.5632C55.3231 32.7138 56.9167 32.9526 57.9917 32.0786L60.6702 29.9007Z" fill="#0078D4"/>
</g>
</g>
<defs>
<filter id="filter0_d_4277_21016" x="0" y="0.558594" width="90" height="90" filterUnits="userSpaceOnUse" color-interpolation-filters="sRGB">
<feFlood flood-opacity="0" result="BackgroundImageFix"/>
<feColorMatrix in="SourceAlpha" type="matrix" values="0 0 0 0 0 0 0 0 0 0 0 0 0 0 0 0 0 0 127 0" result="hardAlpha"/>
<feOffset/>
<feGaussianBlur stdDeviation="2"/>
<feComposite in2="hardAlpha" operator="out"/>
<feColorMatrix type="matrix" values="0 0 0 0 1 0 0 0 0 1 0 0 0 0 1 0 0 0 0.25 0"/>
<feBlend mode="normal" in2="BackgroundImageFix" result="effect1_dropShadow_4277_21016"/>
<feBlend mode="normal" in="SourceGraphic" in2="effect1_dropShadow_4277_21016" result="shape"/>
</filter>
</defs>
</svg>
