<svg width="82" height="83" viewBox="0 0 82 83" fill="none" xmlns="http://www.w3.org/2000/svg">
<rect y="0.558594" width="82" height="82" rx="5" fill="#F1F9FF"/>
<path fill-rule="evenodd" clip-rule="evenodd" d="M19.6087 43.5238C19.6087 46.2852 21.8472 48.5238 24.6087 48.5238H38.3546C41.116 48.5238 43.3546 46.2852 43.3546 43.5238V32.8441C43.3546 31.5835 42.3202 30.553 41.0558 30.553H21.9075C20.643 30.553 19.6087 31.5835 19.6087 32.8441V43.5238ZM43.921 49.6413H19.0538C18.7425 49.6413 18.4873 49.388 18.4873 49.0884V32.8441C18.4873 30.9629 20.0205 29.4355 21.9075 29.4355H41.0558C42.9447 29.4355 44.4759 30.9629 44.4759 32.8441V49.0768C44.4875 49.388 44.2323 49.6413 43.921 49.6413Z" fill="#0078D4"/>
<path fill-rule="evenodd" clip-rule="evenodd" d="M22.0851 41.0566C22.0851 43.818 24.3237 46.0566 27.0851 46.0566H35.8893C38.6507 46.0566 40.8893 43.818 40.8893 41.0566V38.0198C40.8893 35.2584 38.6507 33.0198 35.8893 33.0198H27.0851C24.3237 33.0198 22.0851 35.2584 22.0851 38.0198V41.0566ZM41.4441 47.1741H21.5186C21.2074 47.1741 20.9521 46.9189 20.9521 46.6096V32.8439C20.9521 32.3354 21.3852 31.9023 21.8976 31.9023H41.0439C41.5543 31.9023 41.9874 32.3335 41.9874 32.8439V46.6096C42.0106 46.9189 41.7554 47.1741 41.4441 47.1741Z" fill="#0078D4"/>
<mask id="mask0_4277_21029" style="mask-type:luminance" maskUnits="userSpaceOnUse" x="16" y="48" width="31" height="6">
<path d="M16.5 51.2066C16.5 49.7031 17.7188 48.4844 19.2222 48.4844H44.1668C45.6702 48.4844 46.889 49.7031 46.889 51.2066C46.889 52.71 45.6702 53.9288 44.1668 53.9288H19.2222C17.7188 53.9288 16.5 52.71 16.5 51.2066Z" fill="white"/>
</mask>
<g mask="url(#mask0_4277_21029)">
<path fill-rule="evenodd" clip-rule="evenodd" d="M19.1835 49.6408C18.3221 49.6398 17.6233 50.3378 17.6233 51.1992C17.6233 51.9513 18.2323 52.5603 18.9883 52.5603H43.9889C44.7429 52.5603 45.3539 51.9513 45.3539 51.1992C45.3539 50.3375 44.6554 49.639 43.7937 49.639H36.3772C35.7536 49.639 35.2481 50.1445 35.2481 50.7681C35.2481 51.0793 34.9929 51.3326 34.6797 51.3326H28.2724C27.9611 51.3326 27.7059 51.0793 27.7059 50.7797C27.7059 50.1559 27.2006 49.65 26.5768 49.6493L19.1835 49.6408ZM43.9889 53.6778H18.9883C17.6117 53.6778 16.5 52.5603 16.5 51.1992V49.0744C16.5 48.7651 16.7552 48.5215 17.0665 48.5215H28.2956C28.6069 48.5215 28.8621 48.7748 28.8621 49.086C28.8621 49.7096 29.3676 50.2151 29.9912 50.2151H33.0092C33.6328 50.2151 34.1383 49.7096 34.1383 49.086C34.1383 48.7748 34.3935 48.5331 34.7048 48.5331H45.9339C46.2452 48.5331 46.5004 48.7864 46.5004 49.0976V51.2224C46.4753 52.5622 45.3655 53.6778 43.9889 53.6778Z" fill="#0078D4"/>
</g>
<mask id="mask1_4277_21029" style="mask-type:luminance" maskUnits="userSpaceOnUse" x="48" y="26" width="18" height="31">
<path d="M48.374 31.7109C48.374 28.9495 50.6126 26.7109 53.374 26.7109H60.5C63.2614 26.7109 65.5 28.9495 65.5 31.7109V51.4077C65.5 54.1691 63.2614 56.4077 60.5 56.4077H53.374C50.6126 56.4077 48.374 54.1691 48.374 51.4077V31.7109Z" fill="white"/>
</mask>
<g mask="url(#mask1_4277_21029)">
<path fill-rule="evenodd" clip-rule="evenodd" d="M50.8858 28.264C50.2632 28.264 49.7625 28.7608 49.7625 29.3815V53.7362C49.7625 54.3549 50.2632 54.8537 50.8858 54.8537H63.2459C63.8666 54.8537 64.3673 54.3549 64.3673 53.7362V29.3815C64.3673 28.7608 63.8666 28.264 63.2459 28.264H50.8858ZM63.2459 55.9712H50.8858C49.6407 55.9712 48.6411 54.9659 48.6411 53.7362V29.3815C48.6411 28.1402 49.6523 27.1445 50.8858 27.1445H63.2459C64.491 27.1445 65.4887 28.1518 65.4887 29.3815V53.7362C65.4887 54.9755 64.491 55.9712 63.2459 55.9712Z" fill="#0078D4"/>
</g>
<mask id="mask2_4277_21029" style="mask-type:luminance" maskUnits="userSpaceOnUse" x="48" y="31" width="18" height="2">
<path d="M48.374 31.9084C48.374 31.4984 48.7064 31.166 49.1164 31.166H64.7576C65.1676 31.166 65.5 31.4984 65.5 31.9084C65.5 32.3185 65.1676 32.6509 64.7576 32.6509H49.1164C48.7064 32.6509 48.374 32.3185 48.374 31.9084Z" fill="white"/>
</mask>
<g mask="url(#mask2_4277_21029)">
<path fill-rule="evenodd" clip-rule="evenodd" d="M64.9332 32.4007H49.1954C48.8841 32.4007 48.6289 32.1474 48.6289 31.8478C48.6289 31.5365 48.8841 31.2832 49.1954 31.2832H64.9332C65.2445 31.2832 65.4997 31.5365 65.4997 31.8478C65.4881 32.1571 65.2445 32.4007 64.9332 32.4007Z" fill="#0078D4"/>
</g>
<mask id="mask3_4277_21029" style="mask-type:luminance" maskUnits="userSpaceOnUse" x="48" y="50" width="18" height="2">
<path d="M48.374 51.2092C48.374 50.7992 48.7064 50.4668 49.1164 50.4668H64.7576C65.1676 50.4668 65.5 50.7992 65.5 51.2092C65.5 51.6192 65.1676 51.9516 64.7576 51.9516H49.1164C48.7064 51.9516 48.374 51.6192 48.374 51.2092Z" fill="white"/>
</mask>
<g mask="url(#mask3_4277_21029)">
<path fill-rule="evenodd" clip-rule="evenodd" d="M64.9332 51.8322H49.1954C48.8841 51.8322 48.6289 51.5789 48.6289 51.2677C48.6289 50.9583 48.8841 50.7031 49.1954 50.7031H64.9332C65.2445 50.7031 65.4997 50.9583 65.4997 51.2677C65.4881 51.5789 65.2445 51.8322 64.9332 51.8322Z" fill="#0078D4"/>
</g>
<path fill-rule="evenodd" clip-rule="evenodd" d="M28.9838 39.43C28.8407 39.43 28.7054 39.5518 28.7054 39.7064V43.5674C28.7054 43.7105 28.8291 43.8439 28.9838 43.8439H33.9932C34.1362 43.8439 34.2696 43.7221 34.2696 43.5674V39.7064C34.2696 39.5634 34.1478 39.43 33.9932 39.43H28.9838ZM33.9932 44.9614H28.9838C28.2162 44.9614 27.584 44.3427 27.584 43.5674V39.7064C27.584 38.9428 28.2065 38.3105 28.9838 38.3105H33.9932C34.7588 38.3105 35.3929 38.9312 35.3929 39.7064V43.5674C35.391 44.3311 34.7588 44.9614 33.9932 44.9614Z" fill="#0078D4"/>
<path fill-rule="evenodd" clip-rule="evenodd" d="M33.5372 39.4283C33.2259 39.4283 32.9707 39.1731 32.9707 38.8734V35.5325C32.9707 35.3779 32.8373 35.2444 32.6827 35.2444H30.2833C30.1287 35.2444 29.9953 35.3779 29.9953 35.5325V38.8734C29.9953 39.1847 29.74 39.4379 29.4288 39.4379C29.1156 39.4379 28.8604 39.1847 28.8604 38.8734V35.5325C28.8604 34.7572 29.4945 34.127 30.2717 34.127H32.6711C33.4483 34.127 34.0824 34.7572 34.0824 35.5325V38.8734C34.1037 39.1847 33.8485 39.4283 33.5372 39.4283Z" fill="#0078D4"/>
<path fill-rule="evenodd" clip-rule="evenodd" d="M31.4815 42.7469C31.1702 42.7469 30.915 42.4917 30.915 42.192V41.0978C30.915 40.7865 31.1702 40.5332 31.4815 40.5332C31.7947 40.5332 32.048 40.7865 32.048 41.0978V42.192C32.048 42.4917 31.7928 42.7469 31.4815 42.7469Z" fill="#0078D4"/>
<path fill-rule="evenodd" clip-rule="evenodd" d="M54.3933 38.1755C53.0377 39.2027 51.6676 40.5439 52.1187 42.1837C52.5283 43.6663 53.3934 45.0134 54.7001 46.2098C56.0378 47.4346 58.1052 47.4389 59.4436 46.2149C60.749 45.021 61.6129 43.6718 62.0235 42.1837C62.4743 40.545 61.1013 39.2069 59.7468 38.1803C58.6829 37.3739 58.0315 36.4521 57.5689 35.7997C57.3036 35.4295 56.8261 35.4235 56.5694 35.7997C56.108 36.4522 55.4569 37.3697 54.3933 38.1755ZM57.0701 49.1439C56.9696 49.1439 56.8826 49.1207 56.7936 49.0666C52.894 46.8761 51.5058 44.2312 51.0167 42.4041C50.485 40.3915 50.9065 38.897 50.9161 38.8429C50.9722 38.6534 51.1172 38.5103 51.3067 38.4543C53.8046 37.7582 54.9163 36.1864 55.6491 35.1462C56.115 34.4928 56.4804 33.9746 57.0585 33.9746C57.6482 33.9746 58.0155 34.4928 58.4699 35.1462C59.2026 36.1864 60.324 37.7582 62.8123 38.4543C63.0018 38.5103 63.1448 38.6534 63.2009 38.8429C63.2241 38.9086 63.634 40.3915 63.1023 42.4041C62.6131 44.2312 61.225 46.8645 57.3253 49.0666C57.2596 49.111 57.1591 49.1439 57.0701 49.1439Z" fill="#0078D4"/>
<path fill-rule="evenodd" clip-rule="evenodd" d="M55.9601 43.81C55.8151 43.81 55.6701 43.7539 55.5599 43.6437L54.3709 42.4701C54.1485 42.2497 54.1485 41.8959 54.3709 41.6852C54.5932 41.4648 54.9489 41.4648 55.1597 41.6852C55.5947 42.1191 56.2988 42.1195 56.7343 41.686L58.9569 39.4734C59.1792 39.2511 59.533 39.2511 59.7437 39.4734C59.9661 39.6957 59.9661 40.0495 59.7437 40.2583L56.3448 43.6553C56.2482 43.7539 56.1051 43.81 55.9601 43.81Z" fill="#0078D4"/>
<mask id="mask4_4277_21029" style="mask-type:luminance" maskUnits="userSpaceOnUse" x="30" y="21" width="28" height="10">
<path d="M30.5557 26.09C30.5557 23.5615 32.6054 21.5117 35.1339 21.5117H53.1995C55.728 21.5117 57.7778 23.5615 57.7778 26.09C57.7778 28.6185 55.728 30.6682 53.1995 30.6682H35.1339C32.6054 30.6682 30.5557 28.6185 30.5557 26.09Z" fill="white"/>
</mask>
<g mask="url(#mask4_4277_21029)">
<path fill-rule="evenodd" clip-rule="evenodd" d="M31.4815 30.5522C31.1702 30.5522 30.915 30.2989 30.915 29.9877V23.9362C30.915 22.5983 32.0035 21.5117 33.3492 21.5117H55.1829C55.8268 21.5117 56.4377 21.7669 56.9037 22.2193C57.3599 22.6737 57.6151 23.2808 57.6151 23.9342V27.7082C57.6151 28.0175 57.3599 28.2728 57.0487 28.2728C56.7354 28.2728 56.4802 28.0175 56.4802 27.7082V23.9362C56.4802 23.594 56.3468 23.2595 56.0916 23.0178C55.848 22.7742 55.5135 22.6292 55.1713 22.6292H33.3376C32.6164 22.6292 32.0267 23.217 32.0267 23.9362V29.9993C32.048 30.3105 31.7928 30.5522 31.4815 30.5522Z" fill="#0078D4"/>
</g>
<mask id="mask5_4277_21029" style="mask-type:luminance" maskUnits="userSpaceOnUse" x="30" y="52" width="28" height="10">
<path d="M30.5552 57.0255C30.5552 54.497 32.6049 52.4473 35.1334 52.4473H53.199C55.7275 52.4473 57.7773 54.497 57.7773 57.0255C57.7773 59.554 55.7275 61.6038 53.199 61.6038H35.1334C32.6049 61.6038 30.5552 59.554 30.5552 57.0255Z" fill="white"/>
</mask>
<g mask="url(#mask5_4277_21029)">
<path fill-rule="evenodd" clip-rule="evenodd" d="M55.1927 61.6029H33.3589C32.0152 61.6029 30.9248 60.5182 30.9248 59.1784V53.1153C30.9248 52.8041 31.18 52.5508 31.4932 52.5508C31.8045 52.5508 32.0597 52.8041 32.0597 53.1153V59.1784C32.0597 59.8976 32.6475 60.4854 33.3705 60.4854H55.2043C55.9255 60.4854 56.5151 59.8976 56.5151 59.1784V55.4064C56.5151 55.0951 56.7703 54.8418 57.0816 54.8418C57.3929 54.8418 57.6481 55.0951 57.6481 55.4064V59.1784C57.6249 60.5182 56.5383 61.6029 55.1927 61.6029Z" fill="#0078D4"/>
</g>
</svg>
