<svg width="50" height="56" viewBox="0 0 50 56" fill="none" xmlns="http://www.w3.org/2000/svg">
<path d="M22 22.7246L24.5 13.9746" stroke="#0B9EF1" stroke-width="2" stroke-linecap="round"/>
<path d="M35.75 22.7246L33.25 13.9746" stroke="#0B9EF1" stroke-width="2" stroke-linecap="round"/>
<path d="M10 6.47461L10 48.9746" stroke="#0B9EF1" stroke-width="4" stroke-linecap="round"/>
<path d="M41.25 12.7246L5 12.7246" stroke="#0B9EF1" stroke-width="2" stroke-linecap="round"/>
<mask id="path-5-inside-1_1789_25119" fill="white">
<rect x="15" y="22.7246" width="28.75" height="13.75" rx="1"/>
</mask>
<rect x="15" y="22.7246" width="28.75" height="13.75" rx="1" stroke="#0B9EF1" stroke-width="4" mask="url(#path-5-inside-1_1789_25119)"/>
<path d="M18.8332 32.5996V26.7814H21.2366C21.6722 26.7814 22.0481 26.86 22.3644 27.0172C22.6826 27.1725 22.9279 27.396 23.1002 27.6877C23.2725 27.9775 23.3587 28.3212 23.3587 28.7189C23.3587 29.1223 23.2707 29.4651 23.0945 29.7473C22.9184 30.0276 22.6684 30.2417 22.3445 30.3894C22.0207 30.5352 21.6371 30.6081 21.1939 30.6081H19.6741V29.5002H20.9326C21.1447 29.5002 21.3218 29.4727 21.4638 29.4178C21.6078 29.361 21.7167 29.2757 21.7905 29.1621C21.8644 29.0466 21.9013 28.8989 21.9013 28.7189C21.9013 28.539 21.8644 28.3903 21.7905 28.2729C21.7167 28.1536 21.6078 28.0646 21.4638 28.0059C21.3199 27.9453 21.1428 27.915 20.9326 27.915H20.2394V32.5996H18.8332ZM22.1087 29.9405L23.5576 32.5996H22.0235L20.603 29.9405H22.1087ZM24.29 32.5996V26.7814H28.3468V27.9235H25.6963V29.1167H28.1395V30.2615H25.6963V31.4576H28.3468V32.5996H24.29ZM34.3392 26.7814V32.5996H33.1461L30.8307 29.2417H30.7938V32.5996H29.3875V26.7814H30.5978L32.8875 30.1337H32.9358V26.7814H34.3392ZM35.1931 27.9235V26.7814H40.1107V27.9235H38.3465V32.5996H36.9602V27.9235H35.1931Z" fill="#0B9EF1"/>
</svg>
