<svg width="82" height="83" viewBox="0 0 82 83" fill="none" xmlns="http://www.w3.org/2000/svg">
<rect y="0.558594" width="82" height="82" rx="5" fill="#F1F9FF"/>
<path d="M47.731 35.3903L40.0063 30.06C39.5477 29.7571 39.1639 29.6035 38.7821 29.6035C38.0932 29.6035 37.2529 30.1368 37.2529 31.5829V42.7748C37.2529 44.2209 38.0932 44.7542 38.7821 44.7542C39.1639 44.7542 39.6245 44.6027 40.0063 44.2977L47.8078 38.9674C48.4945 38.5109 48.8784 37.8262 48.8784 37.1415C48.8016 36.5315 48.4199 35.8468 47.731 35.3903ZM47.042 37.6404C46.9425 37.7343 46.8319 37.7882 46.7189 37.8654L39.0871 43.0798C38.9468 43.1494 38.7314 43.0539 38.7128 42.8983C38.7082 42.8599 38.7053 42.8187 38.7053 42.7748V31.5829C38.7053 31.5309 38.7093 31.4829 38.7155 31.4388C38.7399 31.2639 38.9009 31.1803 39.0572 31.2627C39.071 31.2699 39.0935 31.2824 39.1063 31.2912L46.8118 36.6083C46.8959 36.6635 46.9697 36.7291 47.0296 36.8012C47.2234 37.0346 47.2625 37.4322 47.042 37.6404Z" fill="#0078D4"/>
<mask id="mask0_4277_21076" style="mask-type:luminance" maskUnits="userSpaceOnUse" x="16" y="24" width="50" height="35">
<path d="M16.5 29.4277C16.5 26.6663 18.7386 24.4277 21.5 24.4277H60.5C63.2614 24.4277 65.5 26.6663 65.5 29.4277V53.6879C65.5 56.4493 63.2614 58.6879 60.5 58.6879H21.5C18.7386 58.6879 16.5 56.4493 16.5 53.6879V29.4277Z" fill="white"/>
</mask>
<g mask="url(#mask0_4277_21076)">
<path d="M60.9626 24.4277H21.0381C18.5918 24.4277 16.5273 26.4839 16.5273 28.9198V54.1958C16.5273 56.6317 18.5918 58.6879 21.0381 58.6879H60.9626C63.4857 58.6879 65.4734 56.6317 65.4734 54.1958V28.9198C65.4734 26.4839 63.4089 24.4277 60.9626 24.4277ZM63.9442 54.1958C63.9442 55.8702 62.5686 57.1649 60.9626 57.1649H21.0381C19.4322 57.1649 18.0565 55.7955 18.0565 54.1958C18.0565 51.6313 20.1355 49.5523 22.7001 49.5523H53.2379C53.6965 49.5523 54.0015 49.2473 54.0015 48.7908C54.0015 48.3343 53.6965 48.0293 53.2379 48.0293H23.0565C20.2951 48.0293 18.0565 45.7907 18.0565 43.0293V28.9198C18.0565 27.3201 19.4322 25.9507 21.0381 25.9507H60.9626C62.6454 25.9507 63.9442 27.3201 63.9442 28.9198V43.4418C63.9442 45.9754 61.8903 48.0293 59.3567 48.0293C58.8961 48.0293 58.5911 48.3343 58.5911 48.7908C58.5911 49.2473 58.8961 49.5523 59.3567 49.5523C61.8903 49.5523 63.9442 51.6062 63.9442 54.1398V54.1958Z" fill="#0078D4"/>
</g>
<path d="M26.4678 50.0859C25.8018 50.0859 25.1937 50.2878 24.7005 50.6353C23.5842 51.422 22.4802 52.5986 21.1146 52.5986C20.6561 52.5986 20.3511 52.9015 20.3511 53.3601C20.3511 53.8165 20.6561 54.1195 21.1146 54.1195C22.5713 54.1195 23.8151 55.291 25.1379 55.9009C25.5221 56.0781 25.9486 56.1757 26.3931 56.1757C28.7128 56.1757 30.9371 53.8912 33.2569 53.8912H60.0432C60.5039 53.8912 60.8089 53.5883 60.8089 53.1298C60.8089 52.6733 60.5039 52.3704 60.0432 52.3704H33.2384C30.9594 52.3704 28.7468 50.0859 26.4678 50.0859ZM26.4678 54.6527C25.6275 54.6527 24.9386 53.968 24.9386 53.1298C24.9386 52.2936 25.6275 51.6089 26.4678 51.6089C27.3102 51.6089 27.999 52.2936 27.999 53.1298C27.9223 53.968 27.3102 54.6527 26.4678 54.6527Z" fill="#0078D4"/>
</svg>
