<svg width="162" height="86" viewBox="0 0 162 86" fill="none" xmlns="http://www.w3.org/2000/svg">
<path d="M149.399 84.6564C149.984 85.2421 150.934 85.2421 151.52 84.6564L161.066 75.1104C161.652 74.5246 161.652 73.5749 161.066 72.9891C160.48 72.4033 159.53 72.4033 158.945 72.9891L150.459 81.4744L141.974 72.9891C141.388 72.4033 140.438 72.4033 139.853 72.9891C139.267 73.5749 139.267 74.5246 139.853 75.1104L149.399 84.6564ZM0.296143 3.26562H5.51127V0.265625H0.296143V3.26562ZM15.9415 3.26562H26.3718V0.265625H15.9415V3.26562ZM36.802 3.26562H47.2323V0.265625H36.802V3.26562ZM57.6626 3.26562H68.0928V0.265625H57.6626V3.26562ZM78.5231 3.26562H88.9533V0.265625H78.5231V3.26562ZM99.3836 3.26562H109.814V0.265625H99.3836V3.26562ZM120.244 3.26562H125.459V0.265625H120.244V3.26562ZM125.459 3.26562C127.031 3.26562 128.565 3.41964 130.047 3.71296L130.629 0.769994C128.956 0.438952 127.227 0.265625 125.459 0.265625V3.26562ZM138.515 7.22294C141.078 8.93906 143.286 11.1464 145.002 13.7097L147.495 12.0408C145.561 9.15154 143.073 6.66432 140.184 4.73004L138.515 7.22294ZM148.512 22.1777C148.805 23.6603 148.959 25.1943 148.959 26.7656H151.959C151.959 24.9977 151.786 23.2688 151.455 21.5955L148.512 22.1777ZM148.959 26.7656V31.5015H151.959V26.7656H148.959ZM148.959 40.9731V50.4448H151.959V40.9731H148.959ZM148.959 59.9165V69.3882H151.959V59.9165H148.959ZM148.959 78.8599V83.5957H151.959V78.8599H148.959Z" fill="#BAC6CF"/>
</svg>
