<svg width="182" height="116" viewBox="0 0 182 116" fill="none" xmlns="http://www.w3.org/2000/svg">
<path d="M13.0878 114.856C12.502 115.442 11.5522 115.442 10.9664 114.856L1.4205 105.31C0.834717 104.724 0.834717 103.774 1.4205 103.189C2.00629 102.603 2.95602 102.603 3.54182 103.189L12.0271 111.674L20.5124 103.189C21.0982 102.603 22.0479 102.603 22.6337 103.189C23.2195 103.774 23.2195 104.724 22.6337 105.31L13.0878 114.856ZM181.783 3.26953H176.613V0.269531H181.783V3.26953ZM166.273 3.26953H155.933V0.269531H166.273V3.26953ZM145.594 3.26953H135.254V0.269531H145.594V3.26953ZM124.914 3.26953H114.575V0.269531H124.914V3.26953ZM104.235 3.26953H93.8953V0.269531H104.235V3.26953ZM83.5556 3.26953H73.216V0.269531H83.5556V3.26953ZM62.8763 3.26953H52.5366V0.269531H62.8763V3.26953ZM42.1969 3.26953H37.0271V0.269531H42.1969V3.26953ZM37.0271 3.26953C35.4557 3.26953 33.9218 3.42355 32.4391 3.71686L31.8569 0.773901C33.5303 0.442859 35.2592 0.269531 37.0271 0.269531V3.26953ZM23.9712 7.22685C21.4078 8.94297 19.2005 11.1503 17.4844 13.7136L14.9915 12.0447C16.9258 9.15545 19.413 6.66823 22.3022 4.73395L23.9712 7.22685ZM13.9744 22.1816C13.6811 23.6642 13.5271 25.1982 13.5271 26.7695H10.5271C10.5271 25.0016 10.7004 23.2727 11.0315 21.5994L13.9744 22.1816ZM13.5271 26.7695V32.2086H10.5271V26.7695H13.5271ZM13.5271 43.0868V53.965H10.5271V43.0868H13.5271ZM13.5271 64.8433V75.7215H10.5271V64.8433H13.5271ZM13.5271 86.5997V97.4779H10.5271V86.5997H13.5271ZM13.5271 108.356V113.795H10.5271V108.356H13.5271Z" fill="#BAC6CF"/>
</svg>
