<svg width="18" height="19" viewBox="0 0 18 19" fill="none" xmlns="http://www.w3.org/2000/svg">
<path d="M4.66683 3.36523H3.00016C2.55814 3.36523 2.13421 3.54083 1.82165 3.85339C1.50909 4.16595 1.3335 4.58987 1.3335 5.0319V15.0319C1.3335 15.4739 1.50909 15.8979 1.82165 16.2104C2.13421 16.523 2.55814 16.6986 3.00016 16.6986H7.74766M13.0002 10.8652V14.1986H16.3335M13.0002 8.36523V5.0319C13.0002 4.58987 12.8246 4.16595 12.512 3.85339C12.1994 3.54083 11.7755 3.36523 11.3335 3.36523H9.66683" stroke="#0078D4" stroke-width="1.5" stroke-linecap="round" stroke-linejoin="round"/>
<path d="M4.66699 8.36589H8.00033M4.66699 11.6992H7.16699M4.66699 3.36589C4.66699 2.92386 4.84259 2.49993 5.15515 2.18737C5.46771 1.87481 5.89163 1.69922 6.33366 1.69922H8.00033C8.44235 1.69922 8.86628 1.87481 9.17884 2.18737C9.4914 2.49993 9.66699 2.92386 9.66699 3.36589C9.66699 3.80791 9.4914 4.23184 9.17884 4.5444C8.86628 4.85696 8.44235 5.03255 8.00033 5.03255H6.33366C5.89163 5.03255 5.46771 4.85696 5.15515 4.5444C4.84259 4.23184 4.66699 3.80791 4.66699 3.36589ZM9.66699 14.1992C9.66699 15.0833 10.0182 15.9311 10.6433 16.5562C11.2684 17.1814 12.1163 17.5326 13.0003 17.5326C13.8844 17.5326 14.7322 17.1814 15.3573 16.5562C15.9825 15.9311 16.3337 15.0833 16.3337 14.1992C16.3337 13.3152 15.9825 12.4673 15.3573 11.8422C14.7322 11.2171 13.8844 10.8659 13.0003 10.8659C12.1163 10.8659 11.2684 11.2171 10.6433 11.8422C10.0182 12.4673 9.66699 13.3152 9.66699 14.1992Z" stroke="#0078D4" stroke-width="1.5" stroke-linecap="round" stroke-linejoin="round"/>
</svg>
