<svg width="361" height="174" viewBox="0 0 361 174" fill="none" xmlns="http://www.w3.org/2000/svg">
<g filter="url(#filter0_d_4775_22025)">
<rect x="26.0271" y="26.0957" width="300" height="113.833" rx="10" fill="white" shape-rendering="crispEdges"/>
<g filter="url(#filter1_d_4775_22025)">
<circle cx="58.1887" cy="68.0952" r="12.1616" fill="#01CF20"/>
<path d="M63.9592 62.1758L55.6741 70.4609L52.4179 67.2172L50.6453 68.9899L55.6741 74.0188L65.7319 63.961L63.9592 62.1758Z" fill="white"/>
<path d="M89.9484 75.0957V60.5502H95.133C96.2599 60.5502 97.195 60.7444 97.9384 61.1326C98.6865 61.5209 99.2452 62.0583 99.6145 62.7449C99.9839 63.4267 100.169 64.215 100.169 65.1099C100.169 66.0001 99.9815 66.7837 99.6074 67.4608C99.2381 68.1331 98.6794 68.6563 97.9313 69.0304C97.1879 69.4044 96.2528 69.5914 95.1259 69.5914H91.1984V67.7022H94.927C95.6373 67.7022 96.2149 67.6004 96.66 67.3968C97.1098 67.1932 97.4389 66.8973 97.6472 66.5091C97.8556 66.1208 97.9597 65.6544 97.9597 65.1099C97.9597 64.5607 97.8532 64.0848 97.6401 63.6824C97.4318 63.2799 97.1027 62.9721 96.6529 62.7591C96.2078 62.5413 95.6231 62.4324 94.8986 62.4324H92.143V75.0957H89.9484ZM97.1288 68.5332L100.723 75.0957H98.2225L94.6998 68.5332H97.1288ZM107.234 75.3159C106.159 75.3159 105.233 75.0862 104.457 74.627C103.685 74.1629 103.088 73.5119 102.667 72.6738C102.25 71.831 102.042 70.8438 102.042 69.7122C102.042 68.5948 102.25 67.6099 102.667 66.7576C103.088 65.9054 103.675 65.2401 104.428 64.7619C105.186 64.2837 106.071 64.0446 107.084 64.0446C107.7 64.0446 108.296 64.1464 108.874 64.35C109.452 64.5536 109.97 64.8732 110.43 65.3088C110.889 65.7444 111.251 66.3102 111.516 67.0062C111.781 67.6975 111.914 68.5379 111.914 69.5275V70.2804H103.242V68.6895H109.833C109.833 68.1307 109.719 67.6359 109.492 67.2051C109.265 66.7695 108.945 66.4262 108.533 66.1752C108.126 65.9243 107.648 65.7988 107.099 65.7988C106.502 65.7988 105.981 65.9456 105.536 66.2392C105.096 66.528 104.755 66.9068 104.513 67.3755C104.277 67.8395 104.158 68.3438 104.158 68.8883V70.1312C104.158 70.8604 104.286 71.4806 104.542 71.992C104.802 72.5034 105.164 72.894 105.628 73.1639C106.092 73.429 106.635 73.5616 107.255 73.5616C107.657 73.5616 108.024 73.5048 108.356 73.3912C108.687 73.2728 108.974 73.0976 109.215 72.8656C109.457 72.6336 109.641 72.3471 109.769 72.0062L111.779 72.3684C111.618 72.9603 111.329 73.4788 110.912 73.9238C110.501 74.3642 109.982 74.7074 109.357 74.9537C108.737 75.1951 108.029 75.3159 107.234 75.3159ZM122.445 66.85L120.52 67.1909C120.44 66.9447 120.312 66.7103 120.137 66.4877C119.966 66.2652 119.734 66.0829 119.441 65.9409C119.147 65.7988 118.78 65.7278 118.34 65.7278C117.738 65.7278 117.236 65.8627 116.834 66.1326C116.432 66.3978 116.23 66.7411 116.23 67.1625C116.23 67.527 116.365 67.8206 116.635 68.0431C116.905 68.2657 117.341 68.448 117.942 68.59L119.675 68.9877C120.679 69.2198 121.427 69.5772 121.919 70.0602C122.412 70.5431 122.658 71.1705 122.658 71.9423C122.658 72.5957 122.468 73.1781 122.09 73.6895C121.716 74.1961 121.192 74.5938 120.52 74.8826C119.852 75.1715 119.078 75.3159 118.198 75.3159C116.976 75.3159 115.979 75.0555 115.208 74.5346C114.436 74.0091 113.962 73.2633 113.787 72.2974L115.84 71.9849C115.968 72.5199 116.23 72.9248 116.628 73.1994C117.026 73.4693 117.544 73.6042 118.183 73.6042C118.879 73.6042 119.436 73.4598 119.852 73.171C120.269 72.8774 120.477 72.5199 120.477 72.0985C120.477 71.7576 120.35 71.4712 120.094 71.2392C119.843 71.0072 119.457 70.832 118.936 70.7136L117.09 70.3088C116.072 70.0768 115.319 69.7074 114.831 69.2008C114.348 68.6942 114.107 68.0526 114.107 67.2761C114.107 66.6322 114.287 66.0687 114.647 65.5858C115.006 65.1028 115.504 64.7264 116.138 64.4565C116.772 64.1819 117.499 64.0446 118.318 64.0446C119.497 64.0446 120.425 64.3002 121.102 64.8116C121.78 65.3182 122.227 65.9977 122.445 66.85ZM129.588 75.3159C128.565 75.3159 127.673 75.0815 126.91 74.6127C126.148 74.144 125.556 73.4882 125.135 72.6454C124.713 71.8026 124.503 70.8178 124.503 69.6909C124.503 68.5592 124.713 67.5697 125.135 66.7221C125.556 65.8746 126.148 65.2164 126.91 64.7477C127.673 64.2789 128.565 64.0446 129.588 64.0446C130.611 64.0446 131.503 64.2789 132.265 64.7477C133.028 65.2164 133.62 65.8746 134.041 66.7221C134.462 67.5697 134.673 68.5592 134.673 69.6909C134.673 70.8178 134.462 71.8026 134.041 72.6454C133.62 73.4882 133.028 74.144 132.265 74.6127C131.503 75.0815 130.611 75.3159 129.588 75.3159ZM129.595 73.5332C130.258 73.5332 130.807 73.358 131.243 73.0076C131.678 72.6573 132 72.1909 132.209 71.6085C132.422 71.0261 132.528 70.3845 132.528 69.6838C132.528 68.9877 132.422 68.3485 132.209 67.7662C132 67.179 131.678 66.7079 131.243 66.3528C130.807 65.9977 130.258 65.8201 129.595 65.8201C128.927 65.8201 128.373 65.9977 127.933 66.3528C127.497 66.7079 127.173 67.179 126.96 67.7662C126.752 68.3485 126.648 68.9877 126.648 69.6838C126.648 70.3845 126.752 71.0261 126.96 71.6085C127.173 72.1909 127.497 72.6573 127.933 73.0076C128.373 73.358 128.927 73.5332 129.595 73.5332ZM139.167 60.5502V75.0957H137.044V60.5502H139.167ZM148.935 70.5716V64.1866H151.065V75.0957H148.977V73.2065H148.863C148.613 73.7889 148.21 74.2742 147.656 74.6625C147.107 75.046 146.423 75.2377 145.604 75.2377C144.903 75.2377 144.283 75.0839 143.743 74.7761C143.208 74.4636 142.786 74.002 142.479 73.3912C142.176 72.7804 142.024 72.0252 142.024 71.1255V64.1866H144.148V70.8699C144.148 71.6132 144.354 72.2051 144.765 72.6454C145.177 73.0858 145.712 73.3059 146.371 73.3059C146.768 73.3059 147.164 73.2065 147.557 73.0076C147.954 72.8088 148.283 72.5081 148.544 72.1056C148.809 71.7032 148.939 71.1918 148.935 70.5716ZM159.011 64.1866V65.8912H153.052V64.1866H159.011ZM154.65 61.573H156.774V71.8926C156.774 72.3045 156.835 72.6146 156.958 72.823C157.081 73.0266 157.24 73.1663 157.434 73.242C157.633 73.313 157.848 73.3485 158.08 73.3485C158.251 73.3485 158.4 73.3367 158.528 73.313C158.656 73.2894 158.755 73.2704 158.826 73.2562L159.21 75.0105C159.087 75.0578 158.911 75.1052 158.684 75.1525C158.457 75.2046 158.173 75.233 157.832 75.2377C157.273 75.2472 156.752 75.1478 156.269 74.9395C155.786 74.7311 155.396 74.4092 155.098 73.9735C154.799 73.5379 154.65 72.9911 154.65 72.3329V61.573ZM161.36 75.0957V64.1866H163.484V75.0957H161.36ZM162.432 62.5034C162.063 62.5034 161.746 62.3803 161.481 62.1341C161.22 61.8831 161.09 61.5848 161.09 61.2392C161.09 60.8888 161.22 60.5905 161.481 60.3443C161.746 60.0933 162.063 59.9679 162.432 59.9679C162.802 59.9679 163.117 60.0933 163.377 60.3443C163.642 60.5905 163.775 60.8888 163.775 61.2392C163.775 61.5848 163.642 61.8831 163.377 62.1341C163.117 62.3803 162.802 62.5034 162.432 62.5034ZM170.936 75.3159C169.913 75.3159 169.02 75.0815 168.258 74.6127C167.496 74.144 166.904 73.4882 166.482 72.6454C166.061 71.8026 165.85 70.8178 165.85 69.6909C165.85 68.5592 166.061 67.5697 166.482 66.7221C166.904 65.8746 167.496 65.2164 168.258 64.7477C169.02 64.2789 169.913 64.0446 170.936 64.0446C171.958 64.0446 172.851 64.2789 173.613 64.7477C174.375 65.2164 174.967 65.8746 175.389 66.7221C175.81 67.5697 176.021 68.5592 176.021 69.6909C176.021 70.8178 175.81 71.8026 175.389 72.6454C174.967 73.4882 174.375 74.144 173.613 74.6127C172.851 75.0815 171.958 75.3159 170.936 75.3159ZM170.943 73.5332C171.606 73.5332 172.155 73.358 172.59 73.0076C173.026 72.6573 173.348 72.1909 173.556 71.6085C173.769 71.0261 173.876 70.3845 173.876 69.6838C173.876 68.9877 173.769 68.3485 173.556 67.7662C173.348 67.179 173.026 66.7079 172.59 66.3528C172.155 65.9977 171.606 65.8201 170.943 65.8201C170.275 65.8201 169.721 65.9977 169.281 66.3528C168.845 66.7079 168.521 67.179 168.308 67.7662C168.099 68.3485 167.995 68.9877 167.995 69.6838C167.995 70.3845 168.099 71.0261 168.308 71.6085C168.521 72.1909 168.845 72.6573 169.281 73.0076C169.721 73.358 170.275 73.5332 170.943 73.5332ZM180.515 68.6184V75.0957H178.391V64.1866H180.43V65.9622H180.564C180.815 65.3845 181.208 64.9205 181.743 64.5701C182.283 64.2198 182.963 64.0446 183.782 64.0446C184.525 64.0446 185.176 64.2008 185.735 64.5133C186.294 64.8211 186.727 65.2804 187.035 65.8912C187.342 66.502 187.496 67.2572 187.496 68.1568V75.0957H185.373V68.4125C185.373 67.6217 185.167 67.0038 184.755 66.5588C184.343 66.109 183.777 65.8841 183.057 65.8841C182.565 65.8841 182.127 65.9906 181.743 66.2037C181.365 66.4167 181.064 66.7292 180.841 67.1412C180.624 67.5484 180.515 68.0408 180.515 68.6184ZM199.87 75.3017C198.895 75.3017 198.054 75.1241 197.349 74.769C196.648 74.4139 196.108 73.9309 195.73 73.3201C195.351 72.7046 195.161 72.0086 195.161 71.2321C195.161 70.6402 195.285 70.1146 195.531 69.6554C195.777 69.1913 196.12 68.7628 196.561 68.3699C197.001 67.9769 197.51 67.5815 198.088 67.1838L200.431 65.5289C200.829 65.2685 201.139 64.9939 201.362 64.7051C201.584 64.4115 201.696 64.0493 201.696 63.6184C201.696 63.2775 201.549 62.9508 201.255 62.6383C200.962 62.3258 200.569 62.1696 200.076 62.1696C199.735 62.1696 199.435 62.2524 199.174 62.4181C198.919 62.5839 198.717 62.7969 198.571 63.0574C198.428 63.313 198.357 63.5829 198.357 63.867C198.357 64.1984 198.447 64.5323 198.627 64.8684C198.812 65.2046 199.049 65.5526 199.338 65.9125C199.626 66.2676 199.929 66.6369 200.247 67.0204L207.001 75.0957H204.6L199.011 68.5261C198.542 67.9721 198.106 67.4513 197.704 66.9636C197.302 66.4712 196.975 65.974 196.724 65.4721C196.478 64.9655 196.355 64.4186 196.355 63.8315C196.355 63.1639 196.506 62.572 196.809 62.0559C197.117 61.5351 197.545 61.1279 198.095 60.8343C198.644 60.5408 199.288 60.394 200.026 60.394C200.775 60.394 201.416 60.5408 201.951 60.8343C202.491 61.1232 202.905 61.5091 203.194 61.992C203.488 62.4702 203.634 62.9934 203.634 63.5616C203.634 64.2529 203.462 64.8637 203.116 65.394C202.775 65.9196 202.304 66.4025 201.703 66.8429L198.784 68.9949C198.215 69.4115 197.82 69.8234 197.598 70.2306C197.38 70.6331 197.271 70.948 197.271 71.1752C197.271 71.5919 197.377 71.9778 197.59 72.3329C197.808 72.688 198.111 72.9721 198.499 73.1852C198.892 73.3983 199.352 73.5048 199.877 73.5048C200.417 73.5048 200.943 73.3888 201.454 73.1568C201.97 72.92 202.437 72.5815 202.853 72.1412C203.275 71.7008 203.608 71.1729 203.855 70.5574C204.101 69.9418 204.224 69.2529 204.224 68.4906H206.142C206.142 69.4281 206.035 70.2212 205.822 70.8699C205.609 71.5138 205.351 72.0394 205.048 72.4466C204.749 72.849 204.468 73.1639 204.203 73.3912C204.117 73.4669 204.037 73.5427 203.961 73.6184C203.885 73.6942 203.805 73.7699 203.72 73.8457C203.227 74.3429 202.631 74.7098 201.93 74.9466C201.234 75.1833 200.547 75.3017 199.87 75.3017ZM223.482 60.5502H225.683V70.117C225.683 71.135 225.444 72.037 224.966 72.823C224.488 73.6042 223.816 74.2198 222.949 74.6696C222.083 75.1146 221.067 75.3372 219.902 75.3372C218.742 75.3372 217.729 75.1146 216.862 74.6696C215.996 74.2198 215.324 73.6042 214.845 72.823C214.367 72.037 214.128 71.135 214.128 70.117V60.5502H216.323V69.9395C216.323 70.5976 216.467 71.1824 216.756 71.6937C217.049 72.2051 217.464 72.6075 217.999 72.9011C218.534 73.1899 219.168 73.3343 219.902 73.3343C220.641 73.3343 221.278 73.1899 221.813 72.9011C222.352 72.6075 222.764 72.2051 223.048 71.6937C223.337 71.1824 223.482 70.5976 223.482 69.9395V60.5502ZM228.704 79.1866V64.1866H230.778V65.9551H230.955C231.078 65.7278 231.256 65.465 231.488 65.1667C231.72 64.8684 232.042 64.608 232.454 64.3855C232.866 64.1582 233.41 64.0446 234.087 64.0446C234.968 64.0446 235.754 64.2671 236.445 64.7122C237.136 65.1573 237.679 65.7988 238.072 66.6369C238.469 67.475 238.668 68.4835 238.668 69.6625C238.668 70.8414 238.472 71.8523 238.079 72.6951C237.686 73.5332 237.146 74.1795 236.459 74.6341C235.773 75.0839 234.989 75.3088 234.109 75.3088C233.446 75.3088 232.903 75.1975 232.482 74.975C232.065 74.7524 231.739 74.492 231.502 74.1937C231.265 73.8954 231.083 73.6303 230.955 73.3983H230.827V79.1866H228.704ZM230.785 69.6412C230.785 70.4082 230.896 71.0806 231.118 71.6582C231.341 72.2359 231.663 72.688 232.084 73.0147C232.506 73.3367 233.022 73.4977 233.633 73.4977C234.267 73.4977 234.797 73.3296 235.224 72.9934C235.65 72.6525 235.972 72.1909 236.189 71.6085C236.412 71.0261 236.523 70.3703 236.523 69.6412C236.523 68.9215 236.414 68.2752 236.197 67.7022C235.984 67.1293 235.662 66.6771 235.231 66.3457C234.805 66.0143 234.272 65.8485 233.633 65.8485C233.017 65.8485 232.496 66.0072 232.07 66.3244C231.649 66.6416 231.329 67.0843 231.111 67.6525C230.894 68.2207 230.785 68.8836 230.785 69.6412ZM245.131 75.3088C244.251 75.3088 243.465 75.0839 242.773 74.6341C242.087 74.1795 241.547 73.5332 241.154 72.6951C240.766 71.8523 240.572 70.8414 240.572 69.6625C240.572 68.4835 240.768 67.475 241.161 66.6369C241.559 65.7988 242.103 65.1573 242.795 64.7122C243.486 64.2671 244.269 64.0446 245.145 64.0446C245.823 64.0446 246.367 64.1582 246.779 64.3855C247.196 64.608 247.518 64.8684 247.745 65.1667C247.977 65.465 248.157 65.7278 248.285 65.9551H248.412V60.5502H250.536V75.0957H248.462V73.3983H248.285C248.157 73.6303 247.972 73.8954 247.731 74.1937C247.494 74.492 247.167 74.7524 246.751 74.975C246.334 75.1975 245.794 75.3088 245.131 75.3088ZM245.6 73.4977C246.211 73.4977 246.727 73.3367 247.148 73.0147C247.574 72.688 247.896 72.2359 248.114 71.6582C248.337 71.0806 248.448 70.4082 248.448 69.6412C248.448 68.8836 248.339 68.2207 248.121 67.6525C247.903 67.0843 247.584 66.6416 247.162 66.3244C246.741 66.0072 246.22 65.8485 245.6 65.8485C244.961 65.8485 244.428 66.0143 244.002 66.3457C243.576 66.6771 243.254 67.1293 243.036 67.7022C242.823 68.2752 242.716 68.9215 242.716 69.6412C242.716 70.3703 242.825 71.0261 243.043 71.6085C243.261 72.1909 243.583 72.6525 244.009 72.9934C244.44 73.3296 244.97 73.4977 245.6 73.4977ZM256.742 75.3372C256.05 75.3372 255.425 75.2093 254.867 74.9537C254.308 74.6932 253.865 74.3168 253.539 73.8244C253.217 73.332 253.056 72.7283 253.056 72.0133C253.056 71.3978 253.174 70.8912 253.411 70.4934C253.647 70.0957 253.967 69.7808 254.37 69.5488C254.772 69.3168 255.222 69.1416 255.719 69.0233C256.216 68.9049 256.723 68.8149 257.239 68.7534C257.892 68.6776 258.423 68.6161 258.83 68.5687C259.237 68.5166 259.533 68.4338 259.718 68.3201C259.902 68.2065 259.995 68.0218 259.995 67.7662V67.7164C259.995 67.0962 259.819 66.6156 259.469 66.2747C259.123 65.9338 258.607 65.7633 257.921 65.7633C257.206 65.7633 256.642 65.9219 256.23 66.2392C255.823 66.5517 255.541 66.8997 255.385 67.2832L253.389 66.8287C253.626 66.1658 253.972 65.6307 254.426 65.2235C254.886 64.8116 255.414 64.5133 256.01 64.3287C256.607 64.1393 257.234 64.0446 257.892 64.0446C258.328 64.0446 258.789 64.0967 259.277 64.2008C259.77 64.3002 260.229 64.4849 260.655 64.7548C261.086 65.0247 261.439 65.4106 261.713 65.9125C261.988 66.4096 262.125 67.0559 262.125 67.8514V75.0957H260.051V73.6042H259.966C259.829 73.8788 259.623 74.1487 259.348 74.4139C259.074 74.679 258.721 74.8992 258.29 75.0744C257.859 75.2496 257.343 75.3372 256.742 75.3372ZM257.203 73.6326C257.79 73.6326 258.292 73.5166 258.709 73.2846C259.13 73.0526 259.45 72.7496 259.668 72.3755C259.89 71.9967 260.002 71.5919 260.002 71.161V69.7548C259.926 69.8306 259.779 69.9016 259.561 69.9679C259.348 70.0294 259.104 70.0839 258.83 70.1312C258.555 70.1738 258.288 70.2141 258.027 70.252C257.767 70.2851 257.549 70.3135 257.374 70.3372C256.962 70.3893 256.585 70.4769 256.245 70.6C255.908 70.7231 255.638 70.9006 255.435 71.1326C255.236 71.3599 255.137 71.6629 255.137 72.0417C255.137 72.5673 255.331 72.965 255.719 73.2349C256.107 73.5001 256.602 73.6326 257.203 73.6326ZM270.046 64.1866V65.8912H264.087V64.1866H270.046ZM265.685 61.573H267.809V71.8926C267.809 72.3045 267.87 72.6146 267.993 72.823C268.117 73.0266 268.275 73.1663 268.469 73.242C268.668 73.313 268.884 73.3485 269.116 73.3485C269.286 73.3485 269.435 73.3367 269.563 73.313C269.691 73.2894 269.79 73.2704 269.861 73.2562L270.245 75.0105C270.122 75.0578 269.947 75.1052 269.719 75.1525C269.492 75.2046 269.208 75.233 268.867 75.2377C268.308 75.2472 267.787 75.1478 267.305 74.9395C266.822 74.7311 266.431 74.4092 266.133 73.9735C265.834 73.5379 265.685 72.9911 265.685 72.3329V61.573ZM276.98 75.3159C275.905 75.3159 274.979 75.0862 274.203 74.627C273.431 74.1629 272.834 73.5119 272.413 72.6738C271.996 71.831 271.788 70.8438 271.788 69.7122C271.788 68.5948 271.996 67.6099 272.413 66.7576C272.834 65.9054 273.421 65.2401 274.174 64.7619C274.932 64.2837 275.817 64.0446 276.83 64.0446C277.446 64.0446 278.043 64.1464 278.62 64.35C279.198 64.5536 279.716 64.8732 280.176 65.3088C280.635 65.7444 280.997 66.3102 281.262 67.0062C281.527 67.6975 281.66 68.5379 281.66 69.5275V70.2804H272.988V68.6895H279.579C279.579 68.1307 279.465 67.6359 279.238 67.2051C279.011 66.7695 278.691 66.4262 278.279 66.1752C277.872 65.9243 277.394 65.7988 276.845 65.7988C276.248 65.7988 275.727 65.9456 275.282 66.2392C274.842 66.528 274.501 66.9068 274.259 67.3755C274.023 67.8395 273.904 68.3438 273.904 68.8883V70.1312C273.904 70.8604 274.032 71.4806 274.288 71.992C274.548 72.5034 274.91 72.894 275.374 73.1639C275.839 73.429 276.381 73.5616 277.001 73.5616C277.403 73.5616 277.77 73.5048 278.102 73.3912C278.433 73.2728 278.72 73.0976 278.961 72.8656C279.203 72.6336 279.387 72.3471 279.515 72.0062L281.525 72.3684C281.364 72.9603 281.075 73.4788 280.659 73.9238C280.247 74.3642 279.728 74.7074 279.103 74.9537C278.483 75.1951 277.775 75.3159 276.98 75.3159Z" fill="#222222"/>
</g>
<path d="M299.873 110.096H52.1809C48.7823 110.096 46.0271 112.297 46.0271 115.012C46.0271 117.728 48.7823 119.929 52.1809 119.929H299.873C303.272 119.929 306.027 117.728 306.027 115.012C306.027 112.297 303.272 110.096 299.873 110.096Z" fill="#F3F3F3"/>
</g>
<defs>
<filter id="filter0_d_4775_22025" x="0.0270996" y="0.0957031" width="360" height="173.834" filterUnits="userSpaceOnUse" color-interpolation-filters="sRGB">
<feFlood flood-opacity="0" result="BackgroundImageFix"/>
<feColorMatrix in="SourceAlpha" type="matrix" values="0 0 0 0 0 0 0 0 0 0 0 0 0 0 0 0 0 0 127 0" result="hardAlpha"/>
<feOffset dx="4" dy="4"/>
<feGaussianBlur stdDeviation="15"/>
<feComposite in2="hardAlpha" operator="out"/>
<feColorMatrix type="matrix" values="0 0 0 0 0.834587 0 0 0 0 0.89001 0 0 0 0 0.9325 0 0 0 1 0"/>
<feBlend mode="normal" in2="BackgroundImageFix" result="effect1_dropShadow_4775_22025"/>
<feBlend mode="normal" in="SourceGraphic" in2="effect1_dropShadow_4775_22025" result="shape"/>
</filter>
<filter id="filter1_d_4775_22025" x="10.0271" y="10.0957" width="340" height="124" filterUnits="userSpaceOnUse" color-interpolation-filters="sRGB">
<feFlood flood-opacity="0" result="BackgroundImageFix"/>
<feColorMatrix in="SourceAlpha" type="matrix" values="0 0 0 0 0 0 0 0 0 0 0 0 0 0 0 0 0 0 127 0" result="hardAlpha"/>
<feOffset dx="4" dy="4"/>
<feGaussianBlur stdDeviation="10"/>
<feComposite in2="hardAlpha" operator="out"/>
<feColorMatrix type="matrix" values="0 0 0 0 0.834587 0 0 0 0 0.89001 0 0 0 0 0.9325 0 0 0 0.7 0"/>
<feBlend mode="normal" in2="BackgroundImageFix" result="effect1_dropShadow_4775_22025"/>
<feBlend mode="normal" in="SourceGraphic" in2="effect1_dropShadow_4775_22025" result="shape"/>
</filter>
</defs>
</svg>
