<svg width="398" height="201" viewBox="0 0 398 201" fill="none" xmlns="http://www.w3.org/2000/svg">
<g filter="url(#filter0_d_4767_21968)">
<rect x="26.9729" y="26.7832" width="337" height="139.667" rx="10" fill="white" shape-rendering="crispEdges"/>
<circle cx="59.1345" cy="68.7827" r="12.1616" fill="#01CF20"/>
<path d="M64.905 62.8633L56.6199 71.1484L53.3637 67.9047L51.5911 69.6774L56.6199 74.7063L66.6777 64.6485L64.905 62.8633Z" fill="white"/>
<path d="M90.8942 75.7832V61.2377H96.0788C97.2057 61.2377 98.1408 61.4319 98.8842 61.8201C99.6323 62.2084 100.191 62.7458 100.56 63.4324C100.93 64.1142 101.114 64.9025 101.114 65.7974C101.114 66.6876 100.927 67.4712 100.553 68.1483C100.184 68.8206 99.6252 69.3438 98.8771 69.7179C98.1337 70.0919 97.1986 70.2789 96.0717 70.2789H92.1442V68.3897H95.8728C96.5831 68.3897 97.1607 68.2879 97.6058 68.0843C98.0556 67.8807 98.3847 67.5848 98.593 67.1966C98.8014 66.8083 98.9055 66.3419 98.9055 65.7974C98.9055 65.2482 98.799 64.7723 98.5859 64.3699C98.3776 63.9674 98.0485 63.6596 97.5987 63.4466C97.1536 63.2288 96.5689 63.1199 95.8444 63.1199H93.0888V75.7832H90.8942ZM98.0746 69.2207L101.668 75.7832H99.1683L95.6456 69.2207H98.0746ZM108.179 76.0034C107.104 76.0034 106.179 75.7737 105.402 75.3145C104.631 74.8504 104.034 74.1994 103.613 73.3613C103.196 72.5185 102.988 71.5313 102.988 70.3997C102.988 69.2823 103.196 68.2974 103.613 67.4451C104.034 66.5929 104.621 65.9276 105.374 65.4494C106.131 64.9712 107.017 64.7321 108.03 64.7321C108.646 64.7321 109.242 64.8339 109.82 65.0375C110.398 65.2411 110.916 65.5607 111.375 65.9963C111.835 66.4319 112.197 66.9977 112.462 67.6937C112.727 68.385 112.86 69.2254 112.86 70.215V70.9679H104.188V69.377H110.779C110.779 68.8182 110.665 68.3234 110.438 67.8926C110.211 67.457 109.891 67.1137 109.479 66.8627C109.072 66.6118 108.594 66.4863 108.044 66.4863C107.448 66.4863 106.927 66.6331 106.482 66.9267C106.042 67.2155 105.701 67.5943 105.459 68.063C105.222 68.527 105.104 69.0313 105.104 69.5758V70.8187C105.104 71.5479 105.232 72.1681 105.488 72.6795C105.748 73.1909 106.11 73.5815 106.574 73.8514C107.038 74.1165 107.58 74.2491 108.201 74.2491C108.603 74.2491 108.97 74.1923 109.301 74.0787C109.633 73.9603 109.919 73.7851 110.161 73.5531C110.402 73.3211 110.587 73.0346 110.715 72.6937L112.725 73.0559C112.564 73.6478 112.275 74.1663 111.858 74.6113C111.446 75.0517 110.928 75.3949 110.303 75.6412C109.683 75.8826 108.975 76.0034 108.179 76.0034ZM124.236 64.8741L120.28 75.7832H118.007L114.044 64.8741H116.324L119.087 73.269H119.2L121.956 64.8741H124.236ZM126.232 75.7832V64.8741H128.355V75.7832H126.232ZM127.304 63.1909C126.935 63.1909 126.617 63.0678 126.352 62.8216C126.092 62.5706 125.962 62.2723 125.962 61.9267C125.962 61.5763 126.092 61.278 126.352 61.0318C126.617 60.7808 126.935 60.6554 127.304 60.6554C127.673 60.6554 127.988 60.7808 128.249 61.0318C128.514 61.278 128.646 61.5763 128.646 61.9267C128.646 62.2723 128.514 62.5706 128.249 62.8216C127.988 63.0678 127.673 63.1909 127.304 63.1909ZM135.914 76.0034C134.839 76.0034 133.913 75.7737 133.137 75.3145C132.365 74.8504 131.768 74.1994 131.347 73.3613C130.93 72.5185 130.722 71.5313 130.722 70.3997C130.722 69.2823 130.93 68.2974 131.347 67.4451C131.768 66.5929 132.355 65.9276 133.108 65.4494C133.866 64.9712 134.751 64.7321 135.765 64.7321C136.38 64.7321 136.977 64.8339 137.554 65.0375C138.132 65.2411 138.65 65.5607 139.11 65.9963C139.569 66.4319 139.931 66.9977 140.196 67.6937C140.462 68.385 140.594 69.2254 140.594 70.215V70.9679H131.922V69.377H138.513C138.513 68.8182 138.399 68.3234 138.172 67.8926C137.945 67.457 137.625 67.1137 137.213 66.8627C136.806 66.6118 136.328 66.4863 135.779 66.4863C135.182 66.4863 134.661 66.6331 134.216 66.9267C133.776 67.2155 133.435 67.5943 133.194 68.063C132.957 68.527 132.838 69.0313 132.838 69.5758V70.8187C132.838 71.5479 132.966 72.1681 133.222 72.6795C133.482 73.1909 133.845 73.5815 134.309 73.8514C134.773 74.1165 135.315 74.2491 135.935 74.2491C136.337 74.2491 136.704 74.1923 137.036 74.0787C137.367 73.9603 137.654 73.7851 137.895 73.5531C138.137 73.3211 138.321 73.0346 138.449 72.6937L140.459 73.0559C140.298 73.6478 140.009 74.1663 139.593 74.6113C139.181 75.0517 138.662 75.3949 138.037 75.6412C137.417 75.8826 136.709 76.0034 135.914 76.0034ZM145.296 75.7832L142.086 64.8741H144.28L146.418 72.8855H146.524L148.669 64.8741H150.864L152.995 72.85H153.101L155.225 64.8741H157.419L154.216 75.7832H152.05L149.834 67.9068H149.671L147.455 75.7832H145.296ZM168.961 75.9892C167.985 75.9892 167.145 75.8116 166.439 75.4565C165.738 75.1014 165.199 74.6184 164.82 74.0076C164.441 73.3921 164.252 72.6961 164.252 71.9196C164.252 71.3277 164.375 70.8021 164.621 70.3429C164.867 69.8788 165.211 69.4503 165.651 69.0574C166.091 68.6644 166.6 68.269 167.178 67.8713L169.522 66.2164C169.919 65.956 170.229 65.6814 170.452 65.3926C170.675 65.099 170.786 64.7368 170.786 64.3059C170.786 63.965 170.639 63.6383 170.346 63.3258C170.052 63.0133 169.659 62.8571 169.167 62.8571C168.826 62.8571 168.525 62.9399 168.265 63.1056C168.009 63.2714 167.808 63.4844 167.661 63.7449C167.519 64.0005 167.448 64.2704 167.448 64.5545C167.448 64.8859 167.538 65.2198 167.718 65.5559C167.902 65.8921 168.139 66.2401 168.428 66.6C168.717 66.9551 169.02 67.3244 169.337 67.7079L176.091 75.7832H173.691L168.101 69.2136C167.632 68.6596 167.197 68.1388 166.794 67.6511C166.392 67.1587 166.065 66.6615 165.814 66.1596C165.568 65.653 165.445 65.1061 165.445 64.519C165.445 63.8514 165.596 63.2595 165.899 62.7434C166.207 62.2226 166.636 61.8154 167.185 61.5218C167.734 61.2283 168.378 61.0815 169.117 61.0815C169.865 61.0815 170.506 61.2283 171.042 61.5218C171.581 61.8107 171.996 62.1966 172.284 62.6795C172.578 63.1577 172.725 63.6809 172.725 64.2491C172.725 64.9404 172.552 65.5512 172.206 66.0815C171.865 66.6071 171.394 67.09 170.793 67.5304L167.874 69.6824C167.306 70.099 166.91 70.5109 166.688 70.9181C166.47 71.3206 166.361 71.6355 166.361 71.8627C166.361 72.2794 166.468 72.6653 166.681 73.0204C166.899 73.3755 167.202 73.6596 167.59 73.8727C167.983 74.0858 168.442 74.1923 168.968 74.1923C169.507 74.1923 170.033 74.0763 170.544 73.8443C171.06 73.6075 171.527 73.269 171.944 72.8287C172.365 72.3883 172.699 71.8604 172.945 71.2449C173.191 70.6293 173.314 69.9404 173.314 69.1781H175.232C175.232 70.1156 175.125 70.9087 174.912 71.5574C174.699 72.2013 174.441 72.7269 174.138 73.1341C173.84 73.5365 173.558 73.8514 173.293 74.0787C173.208 74.1544 173.127 74.2302 173.051 74.3059C172.976 74.3817 172.895 74.4574 172.81 74.5332C172.318 75.0304 171.721 75.3973 171.02 75.6341C170.324 75.8708 169.638 75.9892 168.961 75.9892ZM184.49 61.2377L188.538 73.0843H188.701L192.75 61.2377H195.122L189.887 75.7832H187.352L182.118 61.2377H184.49ZM200.66 76.0034C199.585 76.0034 198.659 75.7737 197.883 75.3145C197.111 74.8504 196.514 74.1994 196.093 73.3613C195.676 72.5185 195.468 71.5313 195.468 70.3997C195.468 69.2823 195.676 68.2974 196.093 67.4451C196.514 66.5929 197.102 65.9276 197.854 65.4494C198.612 64.9712 199.497 64.7321 200.511 64.7321C201.126 64.7321 201.723 64.8339 202.3 65.0375C202.878 65.2411 203.397 65.5607 203.856 65.9963C204.315 66.4319 204.677 66.9977 204.942 67.6937C205.208 68.385 205.34 69.2254 205.34 70.215V70.9679H196.668V69.377H203.259C203.259 68.8182 203.146 68.3234 202.918 67.8926C202.691 67.457 202.371 67.1137 201.959 66.8627C201.552 66.6118 201.074 66.4863 200.525 66.4863C199.928 66.4863 199.407 66.6331 198.962 66.9267C198.522 67.2155 198.181 67.5943 197.94 68.063C197.703 68.527 197.584 69.0313 197.584 69.5758V70.8187C197.584 71.5479 197.712 72.1681 197.968 72.6795C198.228 73.1909 198.591 73.5815 199.055 73.8514C199.519 74.1165 200.061 74.2491 200.681 74.2491C201.084 74.2491 201.45 74.1923 201.782 74.0787C202.113 73.9603 202.4 73.7851 202.641 73.5531C202.883 73.3211 203.067 73.0346 203.195 72.6937L205.205 73.0559C205.044 73.6478 204.755 74.1663 204.339 74.6113C203.927 75.0517 203.408 75.3949 202.783 75.6412C202.163 75.8826 201.455 76.0034 200.66 76.0034ZM207.696 75.7832V64.8741H209.749V66.6071H209.863C210.061 66.0199 210.412 65.5583 210.914 65.2221C211.42 64.8812 211.993 64.7108 212.632 64.7108C212.765 64.7108 212.921 64.7155 213.101 64.725C213.286 64.7344 213.43 64.7463 213.534 64.7605V66.7917C213.449 66.7681 213.298 66.742 213.08 66.7136C212.862 66.6805 212.644 66.6639 212.426 66.6639C211.925 66.6639 211.477 66.7704 211.084 66.9835C210.696 67.1918 210.388 67.483 210.161 67.8571C209.934 68.2264 209.82 68.6478 209.82 69.1213V75.7832H207.696ZM215.372 75.7832V64.8741H217.496V75.7832H215.372ZM216.445 63.1909C216.075 63.1909 215.758 63.0678 215.493 62.8216C215.232 62.5706 215.102 62.2723 215.102 61.9267C215.102 61.5763 215.232 61.278 215.493 61.0318C215.758 60.7808 216.075 60.6554 216.445 60.6554C216.814 60.6554 217.129 60.7808 217.389 61.0318C217.654 61.278 217.787 61.5763 217.787 61.9267C217.787 62.2723 217.654 62.5706 217.389 62.8216C217.129 63.0678 216.814 63.1909 216.445 63.1909ZM225.544 64.8741V66.5787H219.38V64.8741H225.544ZM221.07 75.7832V63.6099C221.07 62.9281 221.219 62.3623 221.517 61.9125C221.816 61.4579 222.211 61.1194 222.703 60.8968C223.196 60.6696 223.731 60.5559 224.309 60.5559C224.735 60.5559 225.099 60.5914 225.402 60.6625C225.705 60.7288 225.93 60.7903 226.077 60.8471L225.58 62.5659C225.48 62.5375 225.353 62.5043 225.196 62.4664C225.04 62.4238 224.851 62.4025 224.628 62.4025C224.112 62.4025 223.743 62.5304 223.52 62.786C223.302 63.0417 223.194 63.411 223.194 63.894V75.7832H221.07ZM227.735 75.7832V64.8741H229.859V75.7832H227.735ZM228.808 63.1909C228.439 63.1909 228.121 63.0678 227.856 62.8216C227.596 62.5706 227.466 62.2723 227.466 61.9267C227.466 61.5763 227.596 61.278 227.856 61.0318C228.121 60.7808 228.439 60.6554 228.808 60.6554C229.177 60.6554 229.492 60.7808 229.752 61.0318C230.018 61.278 230.15 61.5763 230.15 61.9267C230.15 62.2723 230.018 62.5706 229.752 62.8216C229.492 63.0678 229.177 63.1909 228.808 63.1909ZM237.311 76.0034C236.255 76.0034 235.346 75.7643 234.584 75.286C233.826 74.8031 233.244 74.1378 232.837 73.2903C232.429 72.4428 232.226 71.4721 232.226 70.3784C232.226 69.2704 232.434 68.2927 232.851 67.4451C233.267 66.5929 233.855 65.9276 234.612 65.4494C235.37 64.9712 236.262 64.7321 237.29 64.7321C238.118 64.7321 238.857 64.8859 239.506 65.1937C240.154 65.4967 240.678 65.9229 241.075 66.4721C241.478 67.0214 241.717 67.6629 241.793 68.3968H239.726C239.612 67.8855 239.352 67.4451 238.945 67.0758C238.542 66.7065 238.002 66.5218 237.325 66.5218C236.733 66.5218 236.215 66.6781 235.77 66.9906C235.33 67.2984 234.986 67.7387 234.74 68.3116C234.494 68.8798 234.371 69.5521 234.371 70.3287C234.371 71.1241 234.491 71.8107 234.733 72.3883C234.974 72.966 235.315 73.4134 235.756 73.7306C236.201 74.0479 236.724 74.2065 237.325 74.2065C237.728 74.2065 238.092 74.1331 238.419 73.9863C238.75 73.8348 239.027 73.6194 239.25 73.34C239.477 73.0607 239.636 72.7245 239.726 72.3315H241.793C241.717 73.037 241.487 73.6667 241.104 74.2207C240.72 74.7747 240.206 75.2103 239.562 75.5275C238.923 75.8448 238.173 76.0034 237.311 76.0034ZM247.238 76.0247C246.547 76.0247 245.922 75.8968 245.363 75.6412C244.805 75.3807 244.362 75.0043 244.035 74.5119C243.713 74.0195 243.552 73.4158 243.552 72.7008C243.552 72.0853 243.671 71.5787 243.907 71.1809C244.144 70.7832 244.464 70.4683 244.866 70.2363C245.269 70.0043 245.718 69.8291 246.216 69.7108C246.713 69.5924 247.219 69.5024 247.735 69.4409C248.389 69.3651 248.919 69.3036 249.326 69.2562C249.734 69.2041 250.029 69.1213 250.214 69.0076C250.399 68.894 250.491 68.7093 250.491 68.4537V68.4039C250.491 67.7837 250.316 67.3031 249.966 66.9622C249.62 66.6213 249.104 66.4508 248.417 66.4508C247.702 66.4508 247.139 66.6094 246.727 66.9267C246.32 67.2392 246.038 67.5872 245.882 67.9707L243.886 67.5162C244.123 66.8533 244.468 66.3182 244.923 65.911C245.382 65.4991 245.91 65.2008 246.507 65.0162C247.103 64.8268 247.731 64.7321 248.389 64.7321C248.824 64.7321 249.286 64.7842 249.774 64.8883C250.266 64.9877 250.725 65.1724 251.152 65.4423C251.582 65.7122 251.935 66.0981 252.21 66.6C252.484 67.0971 252.622 67.7434 252.622 68.5389V75.7832H250.548V74.2917H250.463C250.325 74.5663 250.119 74.8362 249.845 75.1014C249.57 75.3665 249.217 75.5867 248.787 75.7619C248.356 75.9371 247.84 76.0247 247.238 76.0247ZM247.7 74.3201C248.287 74.3201 248.789 74.2041 249.206 73.9721C249.627 73.7401 249.947 73.4371 250.164 73.063C250.387 72.6842 250.498 72.2794 250.498 71.8485V70.4423C250.422 70.5181 250.276 70.5891 250.058 70.6554C249.845 70.7169 249.601 70.7714 249.326 70.8187C249.052 70.8613 248.784 70.9016 248.524 70.9395C248.263 70.9726 248.046 71.001 247.87 71.0247C247.458 71.0768 247.082 71.1644 246.741 71.2875C246.405 71.4106 246.135 71.5881 245.931 71.8201C245.733 72.0474 245.633 72.3504 245.633 72.7292C245.633 73.2548 245.827 73.6525 246.216 73.9224C246.604 74.1876 247.099 74.3201 247.7 74.3201ZM260.543 64.8741V66.5787H254.584V64.8741H260.543ZM256.182 62.2605H258.305V72.5801C258.305 72.992 258.367 73.3021 258.49 73.5105C258.613 73.7141 258.772 73.8538 258.966 73.9295C259.165 74.0005 259.38 74.036 259.612 74.036C259.783 74.036 259.932 74.0242 260.06 74.0005C260.187 73.9769 260.287 73.9579 260.358 73.9437L260.741 75.698C260.618 75.7453 260.443 75.7927 260.216 75.84C259.989 75.8921 259.705 75.9205 259.364 75.9252C258.805 75.9347 258.284 75.8353 257.801 75.627C257.318 75.4186 256.928 75.0967 256.629 74.661C256.331 74.2254 256.182 73.6786 256.182 73.0204V62.2605ZM262.892 75.7832V64.8741H265.015V75.7832H262.892ZM263.964 63.1909C263.595 63.1909 263.278 63.0678 263.012 62.8216C262.752 62.5706 262.622 62.2723 262.622 61.9267C262.622 61.5763 262.752 61.278 263.012 61.0318C263.278 60.7808 263.595 60.6554 263.964 60.6554C264.333 60.6554 264.648 60.7808 264.909 61.0318C265.174 61.278 265.306 61.5763 265.306 61.9267C265.306 62.2723 265.174 62.5706 264.909 62.8216C264.648 63.0678 264.333 63.1909 263.964 63.1909ZM272.467 76.0034C271.445 76.0034 270.552 75.769 269.79 75.3002C269.027 74.8315 268.436 74.1757 268.014 73.3329C267.593 72.4901 267.382 71.5053 267.382 70.3784C267.382 69.2467 267.593 68.2572 268.014 67.4096C268.436 66.5621 269.027 65.9039 269.79 65.4352C270.552 64.9664 271.445 64.7321 272.467 64.7321C273.49 64.7321 274.383 64.9664 275.145 65.4352C275.907 65.9039 276.499 66.5621 276.92 67.4096C277.342 68.2572 277.553 69.2467 277.553 70.3784C277.553 71.5053 277.342 72.4901 276.92 73.3329C276.499 74.1757 275.907 74.8315 275.145 75.3002C274.383 75.769 273.49 76.0034 272.467 76.0034ZM272.474 74.2207C273.137 74.2207 273.687 74.0455 274.122 73.6951C274.558 73.3448 274.88 72.8784 275.088 72.296C275.301 71.7136 275.408 71.072 275.408 70.3713C275.408 69.6752 275.301 69.036 275.088 68.4537C274.88 67.8665 274.558 67.3954 274.122 67.0403C273.687 66.6852 273.137 66.5076 272.474 66.5076C271.807 66.5076 271.253 66.6852 270.812 67.0403C270.377 67.3954 270.053 67.8665 269.839 68.4537C269.631 69.036 269.527 69.6752 269.527 70.3713C269.527 71.072 269.631 71.7136 269.839 72.296C270.053 72.8784 270.377 73.3448 270.812 73.6951C271.253 74.0455 271.807 74.2207 272.474 74.2207ZM282.046 69.3059V75.7832H279.923V64.8741H281.961V66.6497H282.096C282.347 66.072 282.74 65.608 283.275 65.2576C283.815 64.9073 284.494 64.7321 285.314 64.7321C286.057 64.7321 286.708 64.8883 287.267 65.2008C287.825 65.5086 288.259 65.9679 288.566 66.5787C288.874 67.1895 289.028 67.9447 289.028 68.8443V75.7832H286.904V69.1C286.904 68.3092 286.698 67.6913 286.287 67.2463C285.875 66.7965 285.309 66.5716 284.589 66.5716C284.097 66.5716 283.659 66.6781 283.275 66.8912C282.896 67.1042 282.596 67.4167 282.373 67.8287C282.155 68.2359 282.046 68.7283 282.046 69.3059Z" fill="#222222"/>
<path d="M196.122 110.783H50.5886C48.5917 110.783 46.9729 112.984 46.9729 115.7C46.9729 118.415 48.5917 120.617 50.5886 120.617H196.122C198.119 120.617 199.738 118.415 199.738 115.7C199.738 112.984 198.119 110.783 196.122 110.783Z" fill="#F3F3F3"/>
<path d="M322.303 136.617H53.6476C49.9613 136.617 46.9729 138.818 46.9729 141.534C46.9729 144.249 49.9613 146.451 53.6476 146.451H322.303C325.99 146.451 328.978 144.249 328.978 141.534C328.978 138.818 325.99 136.617 322.303 136.617Z" fill="#F3F3F3"/>
</g>
<defs>
<filter id="filter0_d_4767_21968" x="0.9729" y="0.783203" width="397" height="199.666" filterUnits="userSpaceOnUse" color-interpolation-filters="sRGB">
<feFlood flood-opacity="0" result="BackgroundImageFix"/>
<feColorMatrix in="SourceAlpha" type="matrix" values="0 0 0 0 0 0 0 0 0 0 0 0 0 0 0 0 0 0 127 0" result="hardAlpha"/>
<feOffset dx="4" dy="4"/>
<feGaussianBlur stdDeviation="15"/>
<feComposite in2="hardAlpha" operator="out"/>
<feColorMatrix type="matrix" values="0 0 0 0 0.834587 0 0 0 0 0.89001 0 0 0 0 0.9325 0 0 0 1 0"/>
<feBlend mode="normal" in2="BackgroundImageFix" result="effect1_dropShadow_4767_21968"/>
<feBlend mode="normal" in="SourceGraphic" in2="effect1_dropShadow_4767_21968" result="shape"/>
</filter>
</defs>
</svg>
