<svg width="720" height="332" viewBox="0 0 720 332" fill="none" xmlns="http://www.w3.org/2000/svg">
<path d="M186.729 201.834L190.477 200.953C190.057 201.021 189.641 201.082 189.221 201.149C187.832 201.447 186.441 201.745 185.044 202.049C185.607 201.975 186.166 201.907 186.729 201.834ZM210.416 197.178C211.383 196.938 212.358 196.692 213.322 196.455L212.929 196.524L209.281 197.346L210.416 197.178ZM196.93 200.53C199.058 199.995 201.162 199.482 203.289 198.95C202.188 199.118 201.079 199.298 199.977 199.468C197.896 199.948 195.792 200.451 193.697 200.944C194.773 200.808 195.854 200.664 196.93 200.53ZM234.533 192.132C235.341 191.926 236.13 191.735 236.935 191.529L236.915 191.533C235.988 191.751 235.05 191.979 234.122 192.2L234.533 192.132ZM221.196 195.596C223.1 195.099 225.013 194.596 226.911 194.105C226.046 194.252 225.185 194.391 224.319 194.539C222.163 195.058 220.04 195.551 217.875 196.079C218.98 195.92 220.092 195.753 221.196 195.596ZM207.016 199.314C209.696 198.6 212.341 197.913 215.005 197.211C213.631 197.412 212.255 197.615 210.878 197.818C208.217 198.475 205.54 199.145 202.873 199.808C204.256 199.641 205.636 199.478 207.016 199.314ZM1277.25 257.745L1276.32 257.561C1275.61 257.54 1274.9 257.515 1274.19 257.494L1275.06 257.637C1275.79 257.674 1276.52 257.708 1277.25 257.745ZM259.756 186.607L260.592 186.389C260.213 186.481 259.84 186.568 259.459 186.661L259.756 186.607ZM245.597 190.343C247.365 189.865 249.112 189.403 250.865 188.937C250.177 189.062 249.493 189.183 248.805 189.309C246.942 189.773 245.065 190.249 243.202 190.714C244.003 190.587 244.797 190.469 245.597 190.343ZM231.546 194.165C234.104 193.469 236.668 192.768 239.219 192.078C237.813 192.305 236.4 192.543 234.991 192.774C232.478 193.415 229.943 194.076 227.406 194.737C228.787 194.545 230.169 194.354 231.546 194.165ZM217.136 198.14C220.196 197.281 223.241 196.435 226.268 195.601C224.727 195.817 223.193 196.02 221.649 196.239C218.516 197.059 215.401 197.864 212.264 198.688C213.891 198.499 215.511 198.323 217.136 198.14ZM1285.35 258.139C1284.81 258.013 1284.27 257.885 1283.73 257.759L1280.6 257.677C1281.13 257.78 1281.65 257.886 1282.18 257.988C1283.24 258.038 1284.29 258.09 1285.35 258.139ZM1290.13 259.226L1289.07 258.986L1286.94 258.893L1287.87 259.07C1288.62 259.122 1289.37 259.176 1290.13 259.226ZM1294.55 260.218L1294.4 260.185L1293.73 260.143L1294.55 260.218ZM270.843 184.683C272.498 184.235 274.163 183.779 275.823 183.327L273.36 183.807C271.749 184.221 270.107 184.659 268.479 185.085C269.27 184.949 270.054 184.818 270.843 184.683ZM256.529 188.646C258.947 187.961 261.37 187.272 263.753 186.612C262.585 186.817 261.399 187.04 260.23 187.247C257.653 187.924 255.089 188.591 252.51 189.27C253.849 189.063 255.194 188.849 256.529 188.646ZM241.86 192.786L250.907 190.232C249.292 190.484 247.682 190.729 246.063 190.984C243.148 191.765 240.195 192.577 237.25 193.382C238.792 193.176 240.321 192.988 241.86 192.786ZM227.156 197.026C230.539 196.034 233.928 195.037 237.26 194.084C235.518 194.316 233.762 194.568 232.015 194.806C228.561 195.753 225.14 196.675 221.669 197.635C223.497 197.433 225.33 197.222 227.156 197.026ZM1293.23 258.484C1292.55 258.302 1291.87 258.124 1291.19 257.941C1289.92 257.912 1288.65 257.885 1287.38 257.854C1288.06 258.011 1288.74 258.162 1289.42 258.317C1290.69 258.372 1291.96 258.43 1293.23 258.484ZM1297.86 259.717C1297.33 259.578 1296.8 259.436 1296.27 259.295C1295.24 259.253 1294.21 259.21 1293.17 259.166L1294.78 259.521C1295.81 259.585 1296.83 259.653 1297.86 259.717ZM1302.43 260.891L1301.38 260.62C1300.66 260.578 1299.95 260.536 1299.23 260.492C1299.55 260.561 1299.87 260.631 1300.19 260.7C1300.94 260.763 1301.68 260.828 1302.43 260.891ZM1306.72 261.972L1306.49 261.914L1305.64 261.848L1305.7 261.86L1306.72 261.972ZM296.506 178.697C297.987 178.28 299.48 177.854 300.95 177.446C300.47 177.544 299.984 177.647 299.504 177.746C297.788 178.198 296.091 178.637 294.373 179.091L296.506 178.697ZM282.002 182.783C284.354 182.117 286.686 181.465 289.034 180.802C287.879 181.018 286.739 181.221 285.581 181.439C283.206 182.078 280.795 182.741 278.4 183.394C279.598 183.194 280.809 182.98 282.002 182.783ZM267.176 187.068C270.046 186.227 272.926 185.379 275.755 184.567C274.277 184.816 272.794 185.071 271.312 185.324C268.336 186.141 265.394 186.932 262.398 187.764C263.995 187.526 265.583 187.301 267.176 187.068ZM252.109 191.46C255.524 190.459 258.902 189.482 262.303 188.489C260.538 188.752 258.77 189.018 256.999 189.288C253.659 190.222 250.29 191.178 246.924 192.131C248.651 191.911 250.387 191.676 252.109 191.46ZM236.919 196.016C240.593 194.904 244.283 193.779 247.898 192.71C246.043 192.946 244.185 193.186 242.324 193.429C238.667 194.472 234.999 195.523 231.304 196.594C233.178 196.397 235.049 196.207 236.919 196.016ZM1300.95 258.79C1300.21 258.562 1299.47 258.331 1298.74 258.101C1297.27 258.073 1295.81 258.039 1294.34 258.008C1295.12 258.215 1295.89 258.422 1296.66 258.626C1298.09 258.683 1299.52 258.736 1300.95 258.79ZM1305.49 260.169C1304.83 259.971 1304.17 259.773 1303.51 259.573C1302.25 259.526 1300.99 259.476 1299.73 259.427C1300.41 259.605 1301.1 259.78 1301.79 259.956C1303.02 260.029 1304.26 260.098 1305.49 260.169ZM1309.95 261.494C1309.4 261.335 1308.85 261.179 1308.31 261.018C1307.29 260.961 1306.27 260.901 1305.24 260.842C1305.8 260.981 1306.36 261.117 1306.91 261.255L1309.95 261.494ZM1314.27 262.75C1313.91 262.65 1313.57 262.545 1313.21 262.444C1312.48 262.388 1311.75 262.328 1311.02 262.271L1312.04 262.522C1312.79 262.598 1313.53 262.676 1314.27 262.75ZM1318.43 263.922L1318.1 263.829C1317.79 263.799 1317.47 263.77 1317.16 263.74L1317.33 263.781C1317.7 263.826 1318.07 263.876 1318.43 263.922ZM322.334 172.453C323.805 172.032 325.224 171.648 326.688 171.234C326.378 171.3 326.077 171.36 325.768 171.426C324.204 171.847 322.619 172.283 321.05 172.707C321.476 172.624 321.908 172.536 322.334 172.453ZM307.914 176.637C310.086 176.007 312.268 175.367 314.426 174.747C313.341 174.96 312.262 175.17 311.175 175.387C308.905 176.011 306.659 176.617 304.369 177.255C305.56 177.042 306.728 176.847 307.914 176.637ZM292.653 181.074C295.62 180.198 298.522 179.37 301.47 178.508C299.979 178.777 298.47 179.064 296.974 179.338C294.12 180.136 291.243 180.952 288.377 181.76C289.805 181.528 291.229 181.3 292.653 181.074ZM277.797 185.534C281.045 184.555 284.301 183.57 287.514 182.617C285.823 182.892 284.15 183.148 282.454 183.429C279.158 184.368 275.84 185.324 272.504 186.292C274.266 186.04 276.039 185.779 277.797 185.534ZM262.121 190.253C265.867 189.112 269.552 188.013 273.27 186.892C271.395 187.16 269.512 187.439 267.632 187.714C263.99 188.771 260.336 189.838 256.677 190.908C258.495 190.685 260.308 190.469 262.121 190.253ZM246.625 195.053C250.571 193.825 254.524 192.591 258.419 191.4C256.468 191.637 254.526 191.861 252.569 192.105C248.71 193.245 244.79 194.427 240.871 195.61C242.792 195.419 244.708 195.238 246.625 195.053ZM1308.64 259.07C1307.84 258.789 1307.04 258.511 1306.25 258.228C1304.66 258.202 1303.06 258.179 1301.47 258.151C1302.29 258.404 1303.12 258.655 1303.94 258.906C1305.51 258.963 1307.07 259.017 1308.64 259.07ZM1312.97 260.582C1312.24 260.332 1311.51 260.077 1310.78 259.824C1309.36 259.777 1307.94 259.734 1306.53 259.685C1307.27 259.907 1308.01 260.136 1308.76 260.356C1310.16 260.435 1311.56 260.509 1312.97 260.582ZM1317.28 262.048C1316.63 261.831 1315.99 261.611 1315.35 261.391C1314.12 261.328 1312.89 261.267 1311.66 261.202C1312.33 261.397 1313 261.594 1313.68 261.789C1314.87 261.878 1316.08 261.961 1317.28 262.048ZM1321.55 263.461C1321.01 263.285 1320.47 263.109 1319.93 262.931L1316.92 262.714C1317.47 262.87 1318.03 263.023 1318.58 263.178C1319.57 263.274 1320.56 263.367 1321.55 263.461ZM1325.7 264.805C1325.32 264.684 1324.93 264.566 1324.55 264.444C1323.83 264.377 1323.11 264.306 1322.39 264.238C1322.76 264.341 1323.14 264.439 1323.52 264.541C1324.24 264.629 1324.97 264.719 1325.7 264.805ZM1329.62 266.044L1329.23 265.922C1328.9 265.883 1328.56 265.846 1328.23 265.807L1328.5 265.881L1329.62 266.044ZM349.149 165.827C350.309 165.494 351.479 165.154 352.644 164.818C352.202 164.916 351.765 165.011 351.322 165.109C350.139 165.434 348.938 165.772 347.743 166.105C348.215 166.009 348.677 165.922 349.149 165.827ZM333.939 170.256C336.033 169.633 338.115 169.017 340.182 168.413C339.306 168.595 338.423 168.781 337.545 168.964C335.344 169.58 333.131 170.204 330.934 170.817C331.939 170.627 332.936 170.445 333.939 170.256ZM319.052 174.699C321.839 173.867 324.635 173.028 327.413 172.204C325.888 172.495 324.354 172.794 322.825 173.09C320.12 173.861 317.361 174.67 314.61 175.472C316.089 175.215 317.578 174.952 319.052 174.699ZM303.603 179.352C306.837 178.364 310.037 177.399 313.235 176.434C311.622 176.716 310.016 176.99 308.396 177.276L298.617 180.116C300.285 179.856 301.94 179.608 303.603 179.352ZM288.088 184.134C291.729 183.008 295.37 181.883 298.983 180.777C297.041 181.08 295.075 181.406 293.125 181.717C289.653 182.74 286.106 183.818 282.576 184.883C284.415 184.631 286.254 184.379 288.088 184.134ZM272.204 189.074C276.153 187.832 280.064 186.616 283.97 185.402C282.065 185.663 280.171 185.911 278.26 186.179C274.309 187.365 270.377 188.538 266.409 189.737C268.345 189.51 270.274 189.294 272.204 189.074ZM256.254 194.14C260.456 192.8 264.652 191.462 268.813 190.152C266.745 190.39 264.661 190.651 262.587 190.898C258.547 192.128 254.414 193.423 250.301 194.704C252.286 194.516 254.274 194.32 256.254 194.14ZM1308.04 255.915C1268.22 239.095 1232.39 218.479 1195.88 197.465C1061.95 120.369 918.78 38.0153 534.7 119.536M1316.26 259.319C1315.46 258.996 1314.66 258.665 1313.86 258.338C1312.15 258.316 1310.43 258.294 1308.72 258.267C1309.56 258.565 1310.4 258.86 1311.25 259.155C1312.92 259.21 1314.59 259.269 1316.26 259.319ZM1320.41 260.966C1319.65 260.663 1318.88 260.36 1318.12 260.055C1316.55 260.01 1314.98 259.961 1313.41 259.91C1314.21 260.185 1315.02 260.456 1315.82 260.729C1317.35 260.809 1318.88 260.891 1320.41 260.966ZM1324.53 262.563C1323.82 262.288 1323.09 262.018 1322.38 261.74C1320.99 261.675 1319.59 261.608 1318.2 261.538C1318.94 261.786 1319.68 262.03 1320.43 262.275C1321.79 262.373 1323.16 262.47 1324.53 262.563ZM1328.61 264.112C1327.97 263.874 1327.34 263.635 1326.71 263.396C1325.52 263.317 1324.32 263.244 1323.13 263.162C1323.77 263.373 1324.42 263.588 1325.06 263.796C1326.24 263.904 1327.43 264.006 1328.61 264.112ZM1332.66 265.607C1332.14 265.415 1331.61 265.218 1331.09 265.024L1328.14 264.765C1328.68 264.936 1329.22 265.109 1329.76 265.279L1332.66 265.607ZM1336.66 267.037L1335.52 266.632C1334.8 266.554 1334.09 266.47 1333.37 266.389L1334.51 266.734C1335.23 266.834 1335.94 266.938 1336.66 267.037ZM1340.35 268.334L1339.91 268.182L1338.92 268.052L1339.31 268.164C1339.66 268.222 1340.01 268.276 1340.35 268.334ZM375.728 159.085C376.722 158.791 377.729 158.489 378.719 158.2L378.462 158.259C377.23 158.603 376.011 158.938 374.78 159.283L375.728 159.085ZM360.632 163.552C362.777 162.919 364.922 162.285 367.075 161.645C366.061 161.863 365.024 162.1 364.009 162.319C361.949 162.906 359.853 163.518 357.773 164.119C358.725 163.93 359.681 163.738 360.632 163.552ZM345.661 168.07C348.199 167.29 350.751 166.502 353.249 165.749C352.042 165.99 350.854 166.218 349.643 166.463C346.809 167.283 344.011 168.08 341.167 168.908C342.658 168.634 344.175 168.339 345.661 168.07ZM329.964 172.871L339.546 169.94C337.843 170.255 336.131 170.576 334.42 170.896C331.371 171.795 328.272 172.728 325.185 173.653C326.787 173.386 328.368 173.135 329.964 172.871ZM314.317 177.741C317.864 176.621 321.411 175.503 324.904 174.419C323.126 174.718 321.333 175.031 319.548 175.336C315.893 176.431 312.295 177.488 308.617 178.599C310.518 178.312 312.424 178.02 314.317 177.741ZM298.328 182.786C302.223 181.553 306.107 180.329 309.986 179.107C308.017 179.403 306.054 179.693 304.078 179.996C300.316 181.142 296.494 182.329 292.682 183.509C294.571 183.26 296.445 183.029 298.328 182.786ZM282.166 187.965C286.332 186.616 290.484 185.275 294.592 183.965C292.591 184.227 290.574 184.508 288.566 184.777C284.398 186.066 280.265 187.332 276.065 188.644C278.098 188.417 280.138 188.183 282.166 187.965ZM265.688 193.317C270.104 191.876 274.501 190.45 278.889 189.029C276.82 189.256 274.749 189.486 272.674 189.722C268.402 191.062 264.058 192.452 259.723 193.835C261.714 193.657 263.701 193.488 265.688 193.317ZM1323.88 259.527C1323.08 259.157 1322.27 258.79 1321.47 258.418C1319.67 258.402 1317.87 258.381 1316.07 258.36C1316.92 258.703 1317.77 259.045 1318.62 259.385C1320.37 259.434 1322.13 259.481 1323.88 259.527ZM1327.78 261.298C1327.01 260.951 1326.23 260.604 1325.46 260.253C1323.79 260.211 1322.13 260.164 1320.47 260.118C1321.28 260.438 1322.08 260.761 1322.89 261.077C1324.52 261.152 1326.15 261.227 1327.78 261.298ZM1331.68 263.031C1330.95 262.711 1330.22 262.385 1329.49 262.061C1327.97 261.996 1326.45 261.925 1324.93 261.855C1325.7 262.151 1326.47 262.448 1327.24 262.74C1328.72 262.838 1330.2 262.939 1331.68 263.031ZM1335.61 264.72C1334.92 264.428 1334.24 264.134 1333.56 263.839C1332.19 263.755 1330.83 263.666 1329.46 263.577C1330.19 263.846 1330.91 264.112 1331.64 264.378C1332.96 264.494 1334.28 264.609 1335.61 264.72ZM1339.5 266.352C1338.88 266.094 1338.25 265.838 1337.63 265.577C1336.46 265.482 1335.28 265.39 1334.11 265.291C1334.77 265.528 1335.43 265.759 1336.09 265.993C1337.22 266.117 1338.36 266.231 1339.5 266.352ZM1343.35 267.927C1342.82 267.715 1342.29 267.504 1341.77 267.292C1340.81 267.192 1339.85 267.089 1338.9 266.989C1339.43 267.176 1339.96 267.365 1340.5 267.55C1341.45 267.676 1342.4 267.804 1343.35 267.927ZM1347.11 269.424C1346.74 269.277 1346.36 269.127 1345.99 268.98C1345.3 268.891 1344.6 268.802 1343.91 268.711C1344.28 268.839 1344.66 268.968 1345.03 269.095C1345.73 269.205 1346.42 269.316 1347.11 269.424ZM1350.68 270.799L1350.21 270.619L1349.19 270.463L1349.61 270.6L1350.68 270.799ZM402.316 152.171L402.517 152.112L402.279 152.181L402.316 152.171ZM387.872 156.549C389.737 155.985 391.614 155.411 393.468 154.853C392.689 155.027 391.927 155.186 391.146 155.361C388.983 155.987 386.872 156.576 384.693 157.213C385.748 156.995 386.821 156.764 387.872 156.549ZM372.147 161.314C374.791 160.505 377.375 159.735 380.015 158.93C378.745 159.195 377.478 159.458 376.204 159.726C373.68 160.467 371.13 161.229 368.595 161.979C369.789 161.748 370.956 161.541 372.147 161.314ZM356.721 166.125C359.819 165.152 362.93 164.172 365.99 163.225C364.384 163.536 362.75 163.87 361.137 164.186C358.003 165.124 354.892 166.045 351.727 167.002C353.397 166.705 355.057 166.417 356.721 166.125ZM340.844 171.092C344.383 169.979 347.887 168.892 351.423 167.782C349.658 168.097 347.921 168.388 346.148 168.71C342.623 169.78 339.062 170.875 335.508 171.965C337.283 171.677 339.076 171.374 340.844 171.092ZM324.817 176.23C328.603 175.004 332.404 173.769 336.128 172.583C334.241 172.889 332.348 173.2 330.452 173.513C326.667 174.68 322.89 175.842 319.066 177.037C320.993 176.758 322.897 176.502 324.817 176.23ZM308.453 181.506C312.617 180.159 316.75 178.833 320.906 177.491C318.875 177.783 316.835 178.084 314.795 178.385C310.733 179.657 306.635 180.955 302.533 182.254C304.505 182.006 306.487 181.746 308.453 181.506ZM291.92 186.947C296.249 185.508 300.592 184.058 304.847 182.668C302.833 182.92 300.818 183.173 298.797 183.433C294.494 184.801 290.188 186.172 285.837 187.572C287.87 187.356 289.892 187.155 291.92 186.947ZM275.073 192.533C279.692 190.995 284.268 189.486 288.875 187.957C286.796 188.173 284.72 188.387 282.637 188.612C278.139 190.062 273.598 191.542 269.052 193.026C271.062 192.856 273.067 192.695 275.073 192.533ZM1331.49 259.709C1330.7 259.298 1329.92 258.882 1329.14 258.467C1327.27 258.457 1325.39 258.451 1323.52 258.438C1324.35 258.821 1325.18 259.204 1326.01 259.584C1327.83 259.63 1329.66 259.669 1331.49 259.709ZM1335.14 261.603C1334.38 261.213 1333.62 260.815 1332.86 260.422C1331.11 260.384 1329.36 260.351 1327.61 260.311C1328.42 260.678 1329.24 261.038 1330.06 261.402C1331.75 261.473 1333.45 261.536 1335.14 261.603ZM1338.84 263.46C1338.09 263.09 1337.35 262.72 1336.61 262.345C1334.99 262.284 1333.37 262.222 1331.75 262.156C1332.54 262.502 1333.33 262.841 1334.12 263.183C1335.69 263.278 1337.27 263.369 1338.84 263.46ZM1342.55 265.28C1341.83 264.933 1341.11 264.591 1340.4 264.241C1338.92 264.157 1337.45 264.069 1335.98 263.981C1336.73 264.299 1337.47 264.617 1338.21 264.93C1339.66 265.048 1341.1 265.167 1342.55 265.28ZM1346.23 267.046C1345.57 266.736 1344.92 266.42 1344.26 266.106C1342.94 266.005 1341.62 265.899 1340.3 265.792C1340.99 266.08 1341.68 266.37 1342.38 266.654C1343.66 266.788 1344.95 266.918 1346.23 267.046ZM1349.92 268.757C1349.32 268.484 1348.73 268.205 1348.14 267.93C1347 267.819 1345.86 267.713 1344.73 267.599C1345.35 267.851 1345.98 268.1 1346.61 268.348C1347.71 268.487 1348.82 268.622 1349.92 268.757ZM1353.62 270.418C1353.1 270.189 1352.58 269.961 1352.07 269.729C1351.12 269.615 1350.18 269.495 1349.23 269.379C1349.77 269.586 1350.31 269.789 1350.85 269.995C1351.77 270.136 1352.69 270.28 1353.62 270.418ZM1357.16 271.974C1356.78 271.809 1356.39 271.649 1356.01 271.483C1355.33 271.385 1354.66 271.293 1353.99 271.194C1354.38 271.34 1354.77 271.481 1355.17 271.626C1355.83 271.745 1356.5 271.858 1357.16 271.974ZM1360.54 273.419L1360.07 273.215C1359.71 273.155 1359.37 273.092 1359.01 273.032C1359.16 273.083 1359.3 273.135 1359.44 273.186L1360.54 273.419ZM430.269 144.795L432.92 144.002L432.716 144.05C431.764 144.324 430.783 144.617 429.823 144.897L430.269 144.795ZM414.923 149.441C416.554 148.935 418.201 148.419 419.805 147.93L418.289 148.276C416.469 148.809 414.642 149.347 412.83 149.874C413.536 149.725 414.22 149.589 414.923 149.441ZM399.445 154.233C401.967 153.454 404.502 152.665 407.021 151.887C405.628 152.188 404.217 152.502 402.819 152.807C400.449 153.514 398.025 154.257 395.614 154.99C396.898 154.733 398.165 154.488 399.445 154.233ZM383.576 159.178C386.703 158.189 389.773 157.238 392.872 156.268C391.378 156.571 389.878 156.876 388.377 157.184C385.235 158.135 382.083 159.093 378.943 160.044C380.486 159.755 382.038 159.461 383.576 159.178ZM367.913 164.18C371.302 163.095 374.699 162.004 378.058 160.939C376.254 161.277 374.464 161.605 372.65 161.951C369.302 162.98 365.905 164.043 362.504 165.108C364.309 164.798 366.117 164.484 367.913 164.18ZM351.414 169.46C355.315 168.198 359.132 166.992 363.008 165.746C361.087 166.077 359.142 166.427 357.212 166.765C353.448 167.941 349.68 169.12 345.905 170.304C347.749 170.015 349.577 169.741 351.414 169.46ZM335.295 174.76C339.323 173.43 343.36 172.096 347.336 170.801C345.337 171.112 343.353 171.411 341.346 171.73C337.336 173 333.277 174.304 329.208 175.614C331.234 175.332 333.277 175.033 335.295 174.76ZM318.351 180.33C322.775 178.864 327.109 177.456 331.513 176.003C329.446 176.288 327.371 176.582 325.296 176.875C321.021 178.25 316.738 179.63 312.437 181.022C314.415 180.783 316.379 180.56 318.351 180.33ZM301.641 185.968C306.157 184.436 310.689 182.895 315.134 181.41C313.068 181.656 311.008 181.897 308.934 182.151C304.473 183.605 299.962 185.09 295.437 186.587C297.505 186.378 299.577 186.169 301.641 185.968ZM284.38 191.799C289.195 190.165 293.945 188.573 298.751 186.944C296.638 187.153 294.511 187.38 292.39 187.596C287.695 189.149 282.992 190.706 278.262 192.282C280.302 192.12 282.345 191.953 284.38 191.799ZM1339.12 259.867C1338.36 259.411 1337.6 258.955 1336.85 258.495C1334.9 258.493 1332.95 258.486 1331 258.476C1331.81 258.904 1332.63 259.327 1333.45 259.751C1335.34 259.792 1337.23 259.833 1339.12 259.867ZM1342.54 261.88C1341.79 261.442 1341.04 261.008 1340.29 260.567C1338.46 260.536 1336.64 260.5 1334.82 260.463C1335.62 260.87 1336.41 261.279 1337.21 261.683C1338.98 261.751 1340.76 261.818 1342.54 261.88ZM1345.98 263.855C1345.25 263.44 1344.51 263.024 1343.79 262.605C1342.09 262.548 1340.39 262.49 1338.69 262.426C1339.47 262.814 1340.24 263.205 1341.01 263.588C1342.67 263.68 1344.32 263.767 1345.98 263.855ZM1349.43 265.792C1348.72 265.403 1348.03 265.006 1347.33 264.614C1345.76 264.533 1344.19 264.455 1342.62 264.37C1343.37 264.735 1344.13 265.098 1344.88 265.459C1346.4 265.573 1347.91 265.683 1349.43 265.792ZM1352.95 267.699C1352.27 267.332 1351.59 266.963 1350.91 266.594C1349.47 266.491 1348.03 266.383 1346.59 266.277C1347.31 266.619 1348.05 266.954 1348.78 267.292C1350.17 267.43 1351.56 267.568 1352.95 267.699ZM1356.44 269.535C1355.8 269.202 1355.16 268.873 1354.52 268.536C1353.24 268.419 1351.96 268.298 1350.68 268.175C1351.36 268.487 1352.04 268.795 1352.73 269.103C1353.96 269.251 1355.2 269.392 1356.44 269.535ZM1359.93 271.326C1359.35 271.031 1358.76 270.737 1358.18 270.439C1357.08 270.314 1355.98 270.189 1354.88 270.062C1355.48 270.327 1356.07 270.597 1356.67 270.859C1357.76 271.015 1358.84 271.173 1359.93 271.326ZM1363.38 273.048C1362.9 272.81 1362.42 272.565 1361.94 272.325C1361.02 272.2 1360.11 272.068 1359.19 271.938C1359.71 272.159 1360.23 272.383 1360.75 272.603C1361.63 272.753 1362.5 272.901 1363.38 273.048ZM1366.79 274.683L1365.69 274.154C1365.03 274.046 1364.36 273.939 1363.7 273.829L1364.85 274.296L1366.79 274.683ZM1370.05 276.207L1369.52 275.963L1368.52 275.772L1369.03 275.97L1370.05 276.207ZM442.203 142.162C443.852 141.648 445.494 141.139 447.124 140.637L445.435 141.037C443.742 141.539 442.019 142.061 440.314 142.571C440.947 142.432 441.571 142.301 442.203 142.162ZM426.742 146.99C429.286 146.198 431.844 145.395 434.389 144.602C433.208 144.865 431.994 145.153 430.81 145.419C428.169 146.215 425.572 146.981 422.924 147.782C424.198 147.517 425.473 147.252 426.742 146.99ZM411.117 151.928C413.986 151.008 416.855 150.088 419.683 149.195C418.248 149.496 416.837 149.779 415.396 150.084C412.46 150.983 409.471 151.916 406.496 152.841C408.03 152.542 409.59 152.222 411.117 151.928ZM394.894 157.122C398.305 156.028 401.709 154.94 405.115 153.849C403.392 154.187 401.664 154.529 399.933 154.873C396.53 155.931 393.168 156.962 389.758 158.024C391.485 157.711 393.175 157.429 394.894 157.122ZM378.672 162.406C382.427 161.171 386.195 159.927 389.891 158.729C387.968 159.077 386.005 159.458 384.071 159.814C380.446 160.959 376.75 162.149 373.067 163.33C374.94 163.019 376.808 162.711 378.672 162.406ZM362.111 167.835C366.187 166.488 370.187 165.189 374.236 163.861C372.284 164.184 370.352 164.492 368.392 164.824C364.3 166.133 360.241 167.422 356.141 168.738C358.129 168.438 360.133 168.127 362.111 167.835ZM345.387 173.44C349.685 171.994 353.989 170.544 358.231 169.134C356.13 169.449 354.008 169.78 351.896 170.103C347.775 171.441 343.563 172.838 339.369 174.223C341.382 173.955 343.381 173.7 345.387 173.44ZM328.381 179.171C332.926 177.626 337.423 176.115 341.924 174.601C339.871 174.871 337.835 175.126 335.773 175.406C331.226 176.902 326.708 178.38 322.146 179.886C324.225 179.647 326.31 179.401 328.381 179.171ZM311.126 185.079C315.878 183.446 320.618 181.819 325.318 180.219C323.161 180.464 320.989 180.726 318.824 180.979C314.261 182.499 309.6 184.083 304.954 185.657C307.014 185.461 309.073 185.266 311.126 185.079ZM293.627 191.132C298.552 189.416 303.464 187.712 308.326 186.037C306.253 186.23 304.183 186.419 302.104 186.62C297.214 188.274 292.357 189.906 287.45 191.572C289.512 191.419 291.569 191.278 293.627 191.132ZM1346.76 259.982C1346.03 259.486 1345.3 258.992 1344.58 258.492C1342.58 258.497 1340.59 258.496 1338.6 258.495C1339.37 258.962 1340.14 259.432 1340.92 259.894C1342.87 259.926 1344.81 259.956 1346.76 259.982ZM1349.93 262.12C1349.21 261.643 1348.49 261.162 1347.78 260.681C1345.89 260.656 1344.01 260.626 1342.13 260.595C1342.89 261.046 1343.66 261.495 1344.43 261.942C1346.26 262.003 1348.09 262.065 1349.93 262.12ZM1353.12 264.218C1352.42 263.763 1351.72 263.3 1351.02 262.84C1349.24 262.788 1347.47 262.727 1345.69 262.667C1346.45 263.102 1347.22 263.529 1347.99 263.959C1349.7 264.048 1351.41 264.137 1353.12 264.218ZM1356.36 266.272C1355.67 265.836 1354.97 265.399 1354.28 264.957C1352.63 264.881 1350.98 264.8 1349.33 264.717C1350.08 265.131 1350.83 265.54 1351.58 265.95C1353.17 266.062 1354.77 266.166 1356.36 266.272ZM1359.63 268.293C1358.95 267.877 1358.26 267.466 1357.58 267.044C1356.07 266.945 1354.56 266.85 1353.05 266.747C1353.77 267.132 1354.48 267.519 1355.2 267.9C1356.68 268.033 1358.15 268.165 1359.63 268.293ZM1362.91 270.266C1362.26 269.883 1361.62 269.496 1360.98 269.109C1359.58 268.99 1358.2 268.864 1356.81 268.739C1357.5 269.099 1358.19 269.459 1358.88 269.814C1360.22 269.968 1361.57 270.12 1362.91 270.266ZM1366.19 272.177C1365.58 271.83 1364.99 271.475 1364.38 271.124C1363.15 270.992 1361.91 270.862 1360.68 270.725C1361.33 271.054 1361.98 271.38 1362.64 271.705C1363.82 271.866 1365.01 272.02 1366.19 272.177ZM1369.54 274.056C1368.97 273.743 1368.41 273.429 1367.85 273.112C1366.76 272.971 1365.68 272.825 1364.6 272.68C1365.2 272.973 1365.81 273.256 1366.41 273.545C1367.45 273.716 1368.49 273.89 1369.54 274.056ZM1372.79 275.834C1372.31 275.573 1371.82 275.319 1371.34 275.056C1370.47 274.922 1369.6 274.792 1368.73 274.654C1369.24 274.891 1369.75 275.125 1370.25 275.36C1371.1 275.521 1371.95 275.675 1372.79 275.834ZM1376.01 277.542C1375.64 277.355 1375.29 277.162 1374.92 276.972C1374.28 276.854 1373.64 276.731 1373 276.613C1373.37 276.779 1373.73 276.95 1374.1 277.116C1374.74 277.257 1375.37 277.404 1376.01 277.542ZM1379.06 279.1L1378.55 278.838L1377.58 278.635L1378.09 278.855C1378.41 278.938 1378.74 279.018 1379.06 279.1ZM469.939 134.64C471.546 134.134 473.169 133.618 474.756 133.125C474.092 133.285 473.409 133.458 472.743 133.618C471.112 134.108 469.444 134.621 467.792 135.123L469.939 134.64ZM454.466 139.508L461.561 137.275C460.474 137.523 459.414 137.754 458.324 138.005C455.786 138.777 453.263 139.542 450.72 140.319C451.963 140.052 453.227 139.771 454.466 139.508ZM438.646 144.558C441.437 143.657 444.24 142.746 446.993 141.869C445.519 142.188 444.048 142.503 442.567 142.827C439.794 143.685 436.974 144.573 434.17 145.45C435.67 145.147 437.154 144.856 438.646 144.558ZM422.253 149.839C425.695 148.722 429.08 147.641 432.506 146.535C430.727 146.897 428.916 147.283 427.126 147.651C423.78 148.702 420.469 149.73 417.095 150.798C418.825 150.471 420.533 150.16 422.253 149.839ZM406.098 155.153C409.768 153.94 413.447 152.722 417.075 151.536C415.221 151.886 413.383 152.225 411.52 152.584C407.816 153.763 404.078 154.965 400.344 156.164C402.262 155.828 404.19 155.481 406.098 155.153ZM389.403 160.678C393.423 159.336 397.389 158.029 401.373 156.71C399.356 157.063 397.342 157.413 395.315 157.775C391.412 159.035 387.482 160.313 383.529 161.606C385.496 161.29 387.447 160.985 389.403 160.678ZM372.571 166.346C376.874 164.892 381.169 163.444 385.433 162.015C383.337 162.349 381.205 162.715 379.098 163.059C374.873 164.442 370.642 165.827 366.394 167.225C368.459 166.926 370.515 166.636 372.571 166.346ZM355.539 172.138C360.018 170.603 364.474 169.082 368.897 167.583C366.778 167.886 364.677 168.174 362.547 168.487C358.177 169.936 353.723 171.439 349.283 172.932C351.37 172.666 353.461 172.396 355.539 172.138ZM338.12 178.124C342.871 176.485 347.587 174.868 352.307 173.249C350.156 173.52 347.982 173.813 345.822 174.093C341.148 175.663 336.513 177.208 331.802 178.803C333.911 178.572 336.017 178.347 338.12 178.124ZM320.597 184.238C325.471 182.526 330.35 180.81 335.149 179.145C333.037 179.373 330.935 179.59 328.816 179.826C324.042 181.448 319.205 183.11 314.367 184.774C316.449 184.587 318.52 184.418 320.597 184.238ZM302.729 190.508C307.851 188.699 312.892 186.942 317.98 185.155C315.846 185.343 313.708 185.537 311.568 185.733C306.582 187.449 301.58 189.175 296.539 190.926C298.603 190.783 300.667 190.644 302.729 190.508ZM1354.41 260.067C1353.73 259.535 1353.05 258.996 1352.38 258.457C1350.33 258.469 1348.29 258.484 1346.25 258.492C1346.98 259.001 1347.73 259.505 1348.47 260.008C1350.45 260.032 1352.43 260.049 1354.41 260.067ZM1357.34 262.32C1356.66 261.803 1355.98 261.28 1355.31 260.758C1353.37 260.741 1351.43 260.728 1349.5 260.705C1350.23 261.199 1350.97 261.685 1351.71 262.174C1353.59 262.227 1355.46 262.273 1357.34 262.32ZM1360.31 264.54C1359.63 264.038 1358.95 263.537 1358.27 263.029C1356.45 262.984 1354.62 262.936 1352.8 262.887C1353.53 263.361 1354.25 263.833 1354.98 264.301C1356.76 264.383 1358.53 264.465 1360.31 264.54ZM1363.31 266.718C1362.63 266.236 1361.96 265.757 1361.3 265.272C1359.58 265.2 1357.87 265.12 1356.15 265.041C1356.87 265.494 1357.58 265.951 1358.3 266.399C1359.96 266.508 1361.63 266.616 1363.31 266.718ZM1366.32 268.85C1365.66 268.394 1365.01 267.931 1364.36 267.47C1362.76 267.374 1361.16 267.276 1359.56 267.174C1360.27 267.611 1360.99 268.045 1361.71 268.477C1363.24 268.607 1364.78 268.726 1366.32 268.85ZM1369.39 270.948C1368.74 270.515 1368.11 270.075 1367.47 269.637C1365.99 269.52 1364.51 269.403 1363.03 269.281C1363.72 269.691 1364.42 270.092 1365.12 270.499C1366.54 270.65 1367.96 270.803 1369.39 270.948ZM1372.47 272.985C1371.86 272.583 1371.24 272.181 1370.63 271.774C1369.28 271.64 1367.93 271.498 1366.59 271.357C1367.25 271.739 1367.93 272.118 1368.6 272.498C1369.88 272.664 1371.18 272.824 1372.47 272.985ZM1375.59 274.983C1375 274.609 1374.4 274.239 1373.81 273.862C1372.63 273.716 1371.44 273.573 1370.25 273.424C1370.87 273.765 1371.48 274.11 1372.09 274.447C1373.26 274.626 1374.42 274.808 1375.59 274.983ZM1378.67 276.904C1378.15 276.583 1377.63 276.257 1377.11 275.934C1376.07 275.781 1375.03 275.621 1373.99 275.462C1374.56 275.767 1375.13 276.074 1375.71 276.377C1376.69 276.556 1377.68 276.729 1378.67 276.904ZM1381.79 278.767C1381.33 278.494 1380.87 278.217 1380.41 277.942C1379.56 277.795 1378.71 277.648 1377.87 277.499C1378.36 277.751 1378.85 278.001 1379.34 278.25C1380.16 278.422 1380.97 278.598 1381.79 278.767ZM1384.84 280.526C1384.49 280.326 1384.14 280.128 1383.79 279.926C1383.16 279.801 1382.54 279.677 1381.92 279.549C1382.31 279.738 1382.69 279.921 1383.08 280.108C1383.66 280.251 1384.25 280.386 1384.84 280.526ZM1387.72 282.149C1387.54 282.049 1387.35 281.953 1387.17 281.852C1386.85 281.777 1386.53 281.7 1386.21 281.625C1386.39 281.711 1386.58 281.793 1386.77 281.879C1387.08 281.969 1387.4 282.061 1387.72 282.149ZM498.09 126.887C499.601 126.41 501.13 125.922 502.631 125.451C502.065 125.591 501.518 125.717 500.949 125.856C499.324 126.349 497.658 126.867 496.015 127.371C496.704 127.211 497.403 127.045 498.09 126.887ZM482.383 131.852C484.606 131.144 486.784 130.464 489 129.761C487.923 130.013 486.857 130.258 485.777 130.512C483.477 131.22 481.206 131.91 478.898 132.623C480.056 132.368 481.229 132.105 482.383 131.852ZM466.321 137.033C469.136 136.121 471.964 135.201 474.756 134.304C473.261 134.637 471.747 134.982 470.245 135.32C467.508 136.174 464.734 137.054 461.975 137.922C463.436 137.618 464.867 137.333 466.321 137.033ZM449.994 142.338C453.389 141.223 456.734 140.141 460.1 139.046C458.355 139.412 456.584 139.798 454.831 140.17C451.504 141.225 448.186 142.273 444.825 143.348C446.552 143.009 448.276 142.671 449.994 142.338ZM433.823 147.687C437.402 146.501 440.984 145.313 444.541 144.141C442.693 144.505 440.867 144.852 439.008 145.224C435.357 146.398 431.684 147.583 428.017 148.767C429.944 148.413 431.906 148.032 433.823 147.687ZM416.964 153.321C420.918 151.987 424.858 150.662 428.763 149.36C426.731 149.733 424.684 150.118 422.64 150.5C418.85 151.734 415.003 153.005 411.157 154.275C413.108 153.944 415.022 153.644 416.964 153.321ZM400.006 159.048C404.285 157.598 408.534 156.166 412.79 154.73C410.706 155.082 408.607 155.445 406.512 155.806C402.262 157.209 398.053 158.584 393.774 160.006C395.854 159.684 397.936 159.361 400.006 159.048ZM382.939 164.905C387.348 163.381 391.771 161.849 396.115 160.366C394.015 160.689 391.925 161.004 389.814 161.335C385.471 162.786 381.069 164.276 376.672 165.762C378.767 165.471 380.854 165.186 382.939 164.905ZM365.427 170.951C370.183 169.297 374.867 167.69 379.582 166.061C377.403 166.36 375.19 166.69 373 166.998C368.39 168.558 363.782 170.117 359.124 171.708C361.23 171.451 363.33 171.199 365.427 170.951ZM347.852 177.12C352.711 175.408 357.561 173.703 362.364 172.026C360.229 172.283 358.104 172.529 355.962 172.795C351.172 174.434 346.359 176.089 341.523 177.758C343.638 177.539 345.744 177.331 347.852 177.12ZM329.992 183.439C335.056 181.636 340.081 179.857 345.087 178.091C342.917 178.312 340.731 178.549 338.552 178.779C333.624 180.487 328.641 182.228 323.644 183.979C325.759 183.8 327.883 183.609 329.992 183.439ZM311.823 189.932C317.059 188.052 322.252 186.2 327.442 184.35C325.308 184.526 323.167 184.712 321.027 184.895C315.857 186.708 310.728 188.494 305.518 190.331C307.622 190.196 309.726 190.06 311.823 189.932ZM1362.11 260.127C1361.47 259.553 1360.84 258.977 1360.21 258.398C1358.12 258.419 1356.03 258.434 1353.95 258.447C1354.64 258.994 1355.34 259.541 1356.04 260.083C1358.06 260.101 1360.08 260.117 1362.11 260.127ZM1364.79 262.492C1364.15 261.932 1363.5 261.376 1362.87 260.811C1360.89 260.803 1358.91 260.789 1356.93 260.773C1357.62 261.304 1358.31 261.838 1359.01 262.363C1360.93 262.41 1362.86 262.452 1364.79 262.492ZM1367.5 264.821C1366.86 264.281 1366.22 263.739 1365.59 263.191C1363.71 263.154 1361.84 263.116 1359.96 263.073C1360.66 263.589 1361.35 264.106 1362.04 264.616C1363.86 264.689 1365.68 264.754 1367.5 264.821ZM1370.25 267.12C1369.61 266.598 1368.99 266.068 1368.36 265.541C1366.58 265.477 1364.81 265.411 1363.03 265.342C1363.72 265.839 1364.42 266.331 1365.11 266.823C1366.82 266.924 1368.53 267.025 1370.25 267.12ZM1373.04 269.37C1372.41 268.87 1371.79 268.367 1371.17 267.863C1369.5 267.773 1367.83 267.672 1366.17 267.574C1366.85 268.054 1367.54 268.529 1368.23 269.003C1369.83 269.129 1371.44 269.251 1373.04 269.37ZM1375.88 271.579C1375.25 271.097 1374.62 270.62 1374 270.133C1372.46 270.021 1370.92 269.91 1369.38 269.791C1370.05 270.245 1370.72 270.699 1371.39 271.148C1372.89 271.295 1374.38 271.438 1375.88 271.579ZM1378.74 273.745C1378.13 273.291 1377.52 272.838 1376.92 272.379C1375.49 272.246 1374.07 272.107 1372.65 271.969C1373.3 272.396 1373.94 272.825 1374.6 273.247C1375.98 273.416 1377.36 273.583 1378.74 273.745ZM1381.61 275.851C1381.03 275.433 1380.46 275.005 1379.88 274.582C1378.58 274.433 1377.28 274.284 1375.99 274.129C1376.62 274.53 1377.26 274.929 1377.9 275.324C1379.13 275.504 1380.37 275.677 1381.61 275.851ZM1384.55 277.917C1383.99 277.532 1383.44 277.143 1382.89 276.753C1381.72 276.592 1380.56 276.424 1379.4 276.258C1380 276.626 1380.61 276.985 1381.22 277.348C1382.33 277.541 1383.44 277.731 1384.55 277.917ZM1387.48 279.907C1386.97 279.562 1386.45 279.221 1385.94 278.873C1384.94 278.711 1383.95 278.553 1382.96 278.387C1383.51 278.707 1384.06 279.022 1384.61 279.339C1385.56 279.531 1386.52 279.719 1387.48 279.907ZM1390.4 281.828C1389.96 281.541 1389.51 281.257 1389.07 280.968C1388.25 280.812 1387.44 280.647 1386.62 280.485C1387.09 280.749 1387.55 281.018 1388.02 281.28C1388.81 281.464 1389.6 281.646 1390.4 281.828ZM1393.25 283.637C1392.91 283.429 1392.58 283.214 1392.25 283.005C1391.66 282.874 1391.07 282.744 1390.48 282.612C1390.84 282.803 1391.19 282.997 1391.54 283.185C1392.11 283.336 1392.68 283.487 1393.25 283.637ZM1396.04 285.333L1395.52 285.021C1395.23 284.947 1394.93 284.876 1394.64 284.8L1395.19 285.082C1395.47 285.167 1395.76 285.248 1396.04 285.333ZM526.563 118.93C527.807 118.538 529.063 118.136 530.307 117.743C529.781 117.874 529.263 118.001 528.736 118.133C527.406 118.54 526.05 118.962 524.714 119.374C525.324 119.23 525.953 119.073 526.563 118.93ZM510.257 124.126C512.415 123.429 514.546 122.748 516.681 122.064C515.644 122.313 514.599 122.566 513.558 122.817C511.343 123.505 509.183 124.159 506.952 124.857C508.064 124.605 509.148 124.374 510.257 124.126ZM494.226 129.328C497.101 128.396 499.99 127.456 502.86 126.526C501.371 126.865 499.834 127.237 498.337 127.581C495.537 128.463 492.712 129.362 489.904 130.249C491.349 129.939 492.787 129.634 494.226 129.328ZM478.083 134.626C481.25 133.574 484.419 132.521 487.541 131.497C485.912 131.85 484.321 132.176 482.683 132.533C479.44 133.569 476.162 134.628 472.876 135.692C474.607 135.34 476.361 134.972 478.083 134.626ZM461.489 140.128C465.098 138.926 468.669 137.748 472.262 136.556C470.401 136.935 468.54 137.315 466.669 137.701C463.092 138.86 459.536 140.004 455.94 141.174C457.798 140.82 459.643 140.476 461.489 140.128ZM444.743 145.778C448.672 144.444 452.609 143.105 456.485 141.804C454.461 142.191 452.393 142.609 450.357 143.004C446.57 144.247 442.726 145.526 438.89 146.798C440.852 146.449 442.792 146.118 444.743 145.778ZM427.751 151.547C431.965 150.105 436.122 148.7 440.298 147.282C438.261 147.643 436.257 147.977 434.208 148.347C429.993 149.748 425.79 151.142 421.532 152.57C423.604 152.23 425.692 151.877 427.751 151.547ZM410.533 157.488C414.956 155.958 419.37 154.432 423.749 152.928C421.626 153.273 419.498 153.623 417.364 153.978C413.039 155.433 408.687 156.905 404.325 158.384C406.408 158.074 408.462 157.789 410.533 157.488ZM393.066 163.571C397.735 161.934 402.381 160.31 406.992 158.71C404.813 159.031 402.608 159.373 400.417 159.705C395.881 161.249 391.295 162.826 386.696 164.41C388.823 164.127 390.949 163.845 393.066 163.571ZM375.318 169.808C380.181 168.092 385.002 166.403 389.83 164.708C387.673 164.991 385.525 165.268 383.356 165.561C378.552 167.217 373.781 168.85 368.937 170.53C371.071 170.282 373.193 170.047 375.318 169.808ZM357.449 176.18C362.453 174.385 367.473 172.581 372.4 170.834C370.226 171.082 368.031 171.351 365.848 171.608C360.96 173.311 355.997 175.061 351.04 176.808C353.178 176.598 355.32 176.381 357.449 176.18ZM339.175 182.733C344.407 180.846 349.567 179.003 354.753 177.145C352.598 177.352 350.44 177.562 348.276 177.779C343.164 179.58 338.057 181.378 332.893 183.213C334.992 183.046 337.082 182.892 339.175 182.733ZM320.805 189.414C326.153 187.461 331.485 185.519 336.763 183.61C334.65 183.774 332.543 183.925 330.424 184.096C325.17 185.966 319.89 187.854 314.578 189.761C316.658 189.637 318.729 189.53 320.805 189.414ZM1369.85 260.15C1369.25 259.536 1368.66 258.924 1368.08 258.305C1365.96 258.334 1363.84 258.357 1361.72 258.38C1362.36 258.965 1363 259.552 1363.65 260.132C1365.71 260.141 1367.78 260.148 1369.85 260.15ZM1372.27 262.634C1371.68 262.037 1371.09 261.436 1370.51 260.834C1368.48 260.834 1366.45 260.824 1364.43 260.816C1365.07 261.388 1365.73 261.955 1366.38 262.522C1368.34 262.562 1370.3 262.603 1372.27 262.634ZM1374.72 265.071C1374.13 264.496 1373.55 263.908 1372.97 263.326C1371.03 263.297 1369.11 263.26 1367.18 263.222C1367.83 263.781 1368.49 264.331 1369.15 264.884C1371.01 264.951 1372.86 265.013 1374.72 265.071ZM1377.24 267.478C1376.64 266.915 1376.05 266.35 1375.46 265.781C1373.64 265.724 1371.82 265.667 1370.01 265.604C1370.66 266.143 1371.31 266.68 1371.97 267.213C1373.72 267.306 1375.48 267.392 1377.24 267.478ZM1379.81 269.854C1379.21 269.305 1378.6 268.76 1378 268.206C1376.29 268.123 1374.59 268.036 1372.88 267.948C1373.52 268.465 1374.16 268.986 1374.81 269.496C1376.47 269.619 1378.14 269.741 1379.81 269.854ZM1382.38 272.168C1381.79 271.647 1381.21 271.125 1380.62 270.598C1379.01 270.491 1377.4 270.378 1375.8 270.262C1376.44 270.763 1377.09 271.262 1377.74 271.757C1379.28 271.899 1380.83 272.033 1382.38 272.168ZM1385.01 274.452C1384.42 273.955 1383.85 273.446 1383.27 272.944C1381.78 272.815 1380.28 272.689 1378.79 272.554C1379.42 273.03 1380.06 273.497 1380.7 273.966C1382.13 274.13 1383.56 274.296 1385.01 274.452ZM1387.69 276.678C1387.11 276.21 1386.55 275.738 1385.98 275.265C1384.6 275.117 1383.22 274.96 1381.84 274.803C1382.46 275.257 1383.1 275.704 1383.73 276.153C1385.05 276.334 1386.37 276.505 1387.69 276.678ZM1390.41 278.868C1389.85 278.422 1389.28 277.981 1388.72 277.53C1387.48 277.368 1386.24 277.21 1385 277.044C1385.59 277.457 1386.18 277.871 1386.78 278.28C1387.99 278.477 1389.2 278.678 1390.41 278.868ZM1393.12 280.977C1392.6 280.577 1392.07 280.176 1391.55 279.772C1390.44 279.6 1389.33 279.423 1388.22 279.244C1388.79 279.627 1389.36 280.013 1389.94 280.39C1390.99 280.592 1392.06 280.781 1393.12 280.977ZM1395.88 283.043C1395.39 282.686 1394.91 282.321 1394.43 281.96C1393.47 281.787 1392.51 281.609 1391.55 281.432C1392.08 281.767 1392.6 282.101 1393.13 282.432C1394.04 282.636 1394.95 282.845 1395.88 283.043ZM1398.63 285.008C1398.21 284.71 1397.79 284.412 1397.37 284.111C1396.59 283.946 1395.8 283.786 1395.02 283.619C1395.48 283.901 1395.95 284.177 1396.41 284.456C1397.15 284.643 1397.89 284.825 1398.63 285.008ZM1401.37 286.899C1401.03 286.673 1400.69 286.45 1400.36 286.222C1399.78 286.081 1399.2 285.933 1398.62 285.79C1398.98 286.003 1399.36 286.21 1399.72 286.421C1400.27 286.581 1400.82 286.743 1401.37 286.899ZM1403.88 288.59C1403.72 288.485 1403.56 288.375 1403.4 288.269L1402.54 288.03C1402.7 288.123 1402.87 288.219 1403.03 288.312L1403.88 288.59ZM554.52 111.043L558.292 109.844L556.939 110.189C555.668 110.581 554.383 110.982 553.113 111.374C553.586 111.261 554.047 111.156 554.52 111.043ZM538.523 116.194C540.659 115.5 542.812 114.795 544.926 114.113C543.848 114.376 542.74 114.659 541.658 114.925C539.545 115.587 537.411 116.26 535.272 116.938C536.36 116.686 537.439 116.443 538.523 116.194ZM522.356 121.45C525.166 120.529 527.919 119.644 530.713 118.733C529.39 119.041 528.111 119.321 526.782 119.633C523.881 120.554 520.99 121.468 518.078 122.396C519.501 122.082 520.94 121.76 522.356 121.45ZM506.37 126.75C509.427 125.733 512.498 124.709 515.529 123.709C513.861 124.079 512.208 124.439 510.53 124.814C507.457 125.804 504.333 126.825 501.224 127.837C502.933 127.479 504.67 127.101 506.37 126.75ZM489.489 132.384C493.086 131.172 496.642 129.986 500.202 128.798C498.333 129.19 496.435 129.602 494.555 130.002C491.06 131.142 487.587 132.268 484.059 133.429C485.886 133.068 487.672 132.738 489.489 132.384ZM472.712 138.068C476.636 136.735 480.56 135.404 484.459 134.088C482.467 134.481 480.456 134.887 478.45 135.289C474.588 136.566 470.699 137.859 466.81 139.152C468.781 138.787 470.752 138.424 472.712 138.068ZM455.843 143.847C459.91 142.442 463.976 141.038 467.987 139.669C465.94 140.047 463.915 140.408 461.857 140.795C457.797 142.152 453.687 143.542 449.569 144.936C451.653 144.579 453.77 144.196 455.843 143.847ZM438.304 149.903C442.769 148.352 447.171 146.841 451.604 145.311C449.459 145.677 447.289 146.063 445.131 146.439C440.787 147.91 436.477 149.359 432.101 150.85C434.185 150.522 436.231 150.223 438.304 149.903ZM420.921 156.007C425.514 154.387 430.114 152.764 434.642 151.182C432.487 151.52 430.333 151.855 428.166 152.202C423.647 153.749 419.062 155.339 414.484 156.925C416.63 156.619 418.786 156.304 420.921 156.007ZM403.087 162.307C407.923 160.588 412.707 158.9 417.492 157.213C415.314 157.521 413.135 157.828 410.946 158.147C406.225 159.782 401.501 161.42 396.729 163.089C398.86 162.818 400.967 162.568 403.087 162.307ZM385.13 168.73C390.142 166.931 395.135 165.144 400.094 163.377C397.905 163.651 395.698 163.942 393.496 164.226C388.575 165.95 383.631 167.688 378.662 169.441C380.819 169.203 382.982 168.959 385.13 168.73ZM366.878 175.323C372.04 173.449 377.192 171.58 382.284 169.748C380.108 169.984 377.93 170.221 375.743 170.466C370.725 172.243 365.638 174.063 360.548 175.884C362.667 175.687 364.767 175.512 366.878 175.323ZM348.373 182.053C353.733 180.094 359.025 178.177 364.34 176.246C362.189 176.442 360.041 176.634 357.881 176.838C352.596 178.729 347.352 180.595 342.019 182.515C344.139 182.358 346.259 182.202 348.373 182.053ZM329.745 188.926C335.207 186.901 340.681 184.871 346.055 182.902C343.914 183.056 341.756 183.23 339.609 183.393C334.28 185.317 328.874 187.29 323.464 189.265C325.558 189.151 327.655 189.034 329.745 188.926ZM1377.6 260.133C1377.07 259.485 1376.54 258.831 1376.01 258.177C1373.85 258.215 1371.7 258.255 1369.54 258.287C1370.14 258.915 1370.74 259.534 1371.34 260.154C1373.43 260.153 1375.52 260.141 1377.6 260.133ZM1379.78 262.729C1379.24 262.095 1378.71 261.453 1378.17 260.814C1376.11 260.822 1374.05 260.832 1372 260.835C1372.59 261.445 1373.2 262.049 1373.8 262.653C1375.79 262.68 1377.78 262.707 1379.78 262.729ZM1382.01 265.29C1381.46 264.669 1380.92 264.047 1380.38 263.42C1378.41 263.4 1376.45 263.373 1374.5 263.346C1375.1 263.94 1375.69 264.533 1376.3 265.12C1378.2 265.18 1380.1 265.239 1382.01 265.29ZM1384.28 267.801C1383.72 267.199 1383.17 266.598 1382.63 265.99C1380.76 265.942 1378.9 265.886 1377.04 265.829C1377.65 266.407 1378.25 266.987 1378.86 267.559C1380.66 267.645 1382.47 267.723 1384.28 267.801ZM1386.58 270.283C1386.03 269.698 1385.48 269.109 1384.93 268.517C1383.17 268.442 1381.4 268.369 1379.64 268.287C1380.25 268.848 1380.86 269.404 1381.48 269.96C1383.17 270.07 1384.88 270.18 1386.58 270.283ZM1388.92 272.717C1388.37 272.157 1387.83 271.587 1387.29 271.02C1385.62 270.92 1383.96 270.812 1382.29 270.703C1382.9 271.248 1383.52 271.782 1384.14 272.321C1385.73 272.457 1387.32 272.589 1388.92 272.717ZM1391.33 275.108C1390.78 274.566 1390.23 274.021 1389.68 273.472C1388.13 273.35 1386.57 273.227 1385.02 273.096C1385.63 273.616 1386.24 274.133 1386.85 274.648C1388.34 274.804 1389.83 274.958 1391.33 275.108ZM1393.78 277.457C1393.23 276.938 1392.67 276.422 1392.13 275.896C1390.69 275.753 1389.25 275.603 1387.82 275.453C1388.41 275.945 1389 276.442 1389.6 276.927C1390.99 277.108 1392.38 277.285 1393.78 277.457ZM1396.26 279.75C1395.72 279.261 1395.19 278.769 1394.65 278.275C1393.33 278.114 1392 277.954 1390.68 277.786C1391.26 278.252 1391.85 278.717 1392.44 279.177C1393.71 279.37 1394.98 279.562 1396.26 279.75ZM1398.77 281.988C1398.25 281.539 1397.75 281.078 1397.24 280.623C1396.02 280.446 1394.81 280.261 1393.6 280.078C1394.17 280.517 1394.76 280.949 1395.34 281.383C1396.47 281.589 1397.62 281.789 1398.77 281.988ZM1401.35 284.175C1400.85 283.756 1400.35 283.334 1399.85 282.909C1398.78 282.727 1397.7 282.551 1396.64 282.364C1397.18 282.76 1397.73 283.148 1398.28 283.54C1399.3 283.751 1400.32 283.967 1401.35 284.175ZM1403.93 286.283C1403.46 285.912 1402.99 285.548 1402.53 285.172C1401.61 284.989 1400.69 284.798 1399.78 284.609C1400.28 284.964 1400.79 285.32 1401.3 285.671C1402.17 285.881 1403.05 286.079 1403.93 286.283ZM1406.51 288.323C1406.1 288.01 1405.7 287.693 1405.29 287.376C1404.55 287.205 1403.8 287.032 1403.06 286.859C1403.49 287.146 1403.91 287.439 1404.34 287.723C1405.06 287.923 1405.78 288.128 1406.51 288.323ZM1409.04 290.229C1408.73 290.003 1408.43 289.773 1408.13 289.545C1407.6 289.407 1407.06 289.274 1406.53 289.133C1406.86 289.343 1407.19 289.554 1407.52 289.762C1408.02 289.921 1408.53 290.074 1409.04 290.229ZM1411.55 292.039L1411.04 291.679C1410.76 291.596 1410.5 291.51 1410.22 291.428L1410.77 291.757C1411.03 291.849 1411.28 291.947 1411.55 292.039ZM582.633 103.013C584.024 102.565 585.371 102.142 586.752 101.699L585.867 101.928L581.451 103.3L582.633 103.013ZM567.005 108.097C569.141 107.404 571.297 106.699 573.431 106.006C572.449 106.25 571.484 106.483 570.498 106.729C568.312 107.418 566.085 108.134 563.88 108.834C564.919 108.589 565.968 108.339 567.005 108.097ZM551.025 113.335C553.548 112.497 556.063 111.664 558.552 110.848C557.255 111.156 555.981 111.45 554.677 111.762C551.962 112.631 549.281 113.477 546.54 114.361C548.024 114.026 549.549 113.664 551.025 113.335ZM534.437 118.846C537.553 117.809 540.661 116.776 543.77 115.745C542.107 116.123 540.43 116.508 538.757 116.892C535.764 117.863 532.743 118.85 529.739 119.826C531.325 119.486 532.86 119.18 534.437 118.846ZM517.774 124.459C521.325 123.253 524.89 122.038 528.388 120.863C526.496 121.271 524.546 121.719 522.643 122.134C519.237 123.252 515.777 124.404 512.321 125.555C514.148 125.183 515.958 124.824 517.774 124.459ZM500.876 130.193C504.756 128.866 508.565 127.584 512.414 126.276C510.494 126.667 508.615 127.028 506.683 127.428C502.753 128.734 498.862 130.017 494.902 131.342C496.889 130.961 498.899 130.564 500.876 130.193ZM483.886 136.059C487.959 134.648 492.037 133.236 496.069 131.852C493.998 132.249 491.925 132.646 489.841 133.051C485.861 134.391 481.827 135.765 477.799 137.134C479.837 136.768 481.859 136.415 483.886 136.059ZM466.442 142.126C470.866 140.576 475.259 139.045 479.63 137.529C477.469 137.914 475.256 138.337 473.081 138.732C468.804 140.189 464.512 141.654 460.183 143.142C462.281 142.794 464.357 142.464 466.442 142.126ZM448.945 148.277C453.517 146.666 458.068 145.066 462.606 143.475C460.469 143.827 458.368 144.151 456.217 144.512C451.644 146.088 447.054 147.673 442.445 149.27C444.608 148.942 446.795 148.595 448.945 148.277ZM431.094 154.632C435.857 152.926 440.632 151.212 445.323 149.55C443.126 149.88 440.916 150.221 438.707 150.562C434.101 152.165 429.417 153.819 424.741 155.466C426.875 155.174 428.971 154.914 431.094 154.632ZM413.011 161.106C418.027 159.299 422.968 157.538 427.938 155.761C425.742 156.058 423.541 156.358 421.333 156.666C416.394 158.404 411.483 160.126 406.496 161.894C408.669 161.631 410.849 161.359 413.011 161.106ZM394.764 167.739C399.895 165.868 405.026 163.997 410.088 162.168C407.898 162.43 405.705 162.694 403.505 162.965C398.508 164.742 393.45 166.557 388.389 168.374C390.527 168.15 392.637 167.953 394.764 167.739ZM376.296 174.494C381.594 172.545 386.862 170.616 392.098 168.707C389.921 168.93 387.741 169.156 385.553 169.389C380.349 171.258 375.108 173.151 369.838 175.062C371.989 174.874 374.152 174.673 376.296 174.494ZM357.495 181.433C362.965 179.406 368.404 177.399 373.818 175.407C371.653 175.592 369.474 175.791 367.301 175.985C361.933 177.931 356.555 179.886 351.136 181.865C353.258 181.719 355.38 181.572 357.495 181.433ZM338.557 188.501C344.129 186.412 349.713 184.317 355.2 182.28C353.067 182.423 350.938 182.564 348.8 182.715C343.365 184.704 337.828 186.758 332.303 188.803C334.39 188.699 336.474 188.598 338.557 188.501ZM357.912 182.096C352.352 184.157 346.713 186.269 341.074 188.379C534.025 179.644 710.458 200.912 886.687 222.155C993.701 235.055 1100.64 247.943 1211.15 254.092C1116.16 246.441 1024.45 233.298 932.199 220.077C752.249 194.286 570.255 168.214 357.912 182.096ZM376.702 175.158C371.242 177.164 365.732 179.202 360.208 181.248C571.708 167.705 753.134 193.71 932.54 219.422C1029.81 233.363 1126.48 247.212 1227.03 254.625C1139.7 245.856 1055.91 231.727 971.334 217.459C790.88 187.015 606.779 155.951 376.702 175.158ZM534.7 119.536C530.967 120.784 527.213 122.045 523.432 123.323C886.295 51.619 1036.53 127.6 1177.59 198.996C1218.26 219.582 1258.18 239.779 1302.23 255.928M1385.41 260.088C1384.93 259.403 1384.46 258.714 1383.99 258.022C1381.8 258.071 1379.61 258.112 1377.43 258.151C1377.96 258.814 1378.51 259.473 1379.05 260.128C1381.17 260.119 1383.29 260.106 1385.41 260.088ZM1387.35 262.79C1386.86 262.116 1386.37 261.446 1385.89 260.767C1383.8 260.784 1381.71 260.799 1379.62 260.809C1380.16 261.456 1380.7 262.107 1381.25 262.747C1383.28 262.767 1385.32 262.778 1387.35 262.79ZM1389.33 265.459C1388.83 264.8 1388.33 264.142 1387.84 263.476C1385.85 263.465 1383.85 263.457 1381.86 263.439C1382.41 264.07 1382.96 264.7 1383.51 265.325C1385.45 265.372 1387.38 265.418 1389.33 265.459ZM1391.34 268.088C1390.84 267.449 1390.35 266.803 1389.86 266.156C1387.94 266.117 1386.04 266.071 1384.13 266.024C1384.69 266.644 1385.26 267.254 1385.82 267.867C1387.66 267.944 1389.5 268.019 1391.34 268.088ZM1393.4 270.672C1392.9 270.052 1392.4 269.423 1391.91 268.794C1390.09 268.728 1388.28 268.658 1386.48 268.582C1387.04 269.187 1387.61 269.786 1388.19 270.384C1389.92 270.486 1391.66 270.578 1393.4 270.672ZM1395.54 273.229C1395.02 272.62 1394.5 272.011 1394 271.396C1392.29 271.304 1390.59 271.215 1388.89 271.116C1389.45 271.695 1390.01 272.274 1390.58 272.845C1392.23 272.976 1393.87 273.107 1395.54 273.229ZM1397.69 275.719C1397.18 275.136 1396.66 274.556 1396.16 273.966C1394.54 273.85 1392.94 273.725 1391.34 273.601C1391.9 274.162 1392.46 274.728 1393.04 275.283C1394.58 275.435 1396.14 275.576 1397.69 275.719ZM1399.9 278.189C1399.39 277.626 1398.88 277.056 1398.37 276.486C1396.87 276.349 1395.36 276.214 1393.86 276.07C1394.42 276.607 1394.99 277.139 1395.56 277.67C1397.01 277.845 1398.45 278.023 1399.9 278.189ZM1402.14 280.583C1401.64 280.054 1401.14 279.514 1400.64 278.979C1399.23 278.821 1397.83 278.655 1396.43 278.487C1397 279.009 1397.58 279.52 1398.16 280.035C1399.48 280.224 1400.82 280.401 1402.14 280.583ZM1404.47 282.951C1403.96 282.442 1403.46 281.932 1402.96 281.417C1401.67 281.244 1400.39 281.068 1399.12 280.89C1399.67 281.373 1400.22 281.853 1400.78 282.331C1402.01 282.54 1403.23 282.75 1404.47 282.951ZM1406.81 285.242C1406.32 284.767 1405.82 284.298 1405.33 283.818C1404.17 283.633 1403.02 283.446 1401.87 283.254C1402.4 283.702 1402.93 284.156 1403.47 284.599C1404.58 284.817 1405.7 285.029 1406.81 285.242ZM1409.19 287.481C1408.72 287.052 1408.26 286.617 1407.8 286.182C1406.76 285.989 1405.73 285.787 1404.7 285.589C1405.22 286 1405.73 286.414 1406.24 286.822C1407.22 287.044 1408.2 287.264 1409.19 287.481ZM1411.6 289.646C1411.17 289.265 1410.74 288.875 1410.31 288.49C1409.43 288.3 1408.54 288.115 1407.66 287.92C1408.13 288.282 1408.61 288.639 1409.09 288.996C1409.93 289.214 1410.76 289.434 1411.6 289.646ZM1414.03 291.726C1413.66 291.408 1413.28 291.091 1412.9 290.77C1412.16 290.587 1411.43 290.398 1410.7 290.21C1411.13 290.526 1411.58 290.834 1412.02 291.148C1412.68 291.346 1413.36 291.531 1414.03 291.726ZM1416.45 293.713C1416.14 293.464 1415.82 293.222 1415.51 292.972C1414.99 292.825 1414.48 292.675 1413.96 292.527C1414.29 292.751 1414.61 292.975 1414.94 293.197C1415.44 293.368 1415.94 293.545 1416.45 293.713ZM1418.7 295.499C1418.55 295.385 1418.41 295.266 1418.26 295.152C1418.01 295.071 1417.75 294.992 1417.5 294.911C1417.66 295.015 1417.81 295.122 1417.97 295.225L1418.7 295.499ZM313.15 195.896C315.209 195.834 317.267 195.768 319.325 195.712C325.091 193.535 330.75 191.426 336.448 189.291C334.354 189.39 332.259 189.487 330.161 189.594C324.501 191.689 318.875 193.762 313.15 195.896ZM304.615 196.162C306.664 196.094 308.711 196.029 310.757 195.967C316.413 193.857 321.986 191.799 327.582 189.725C325.468 189.836 323.346 189.961 321.228 190.079C315.71 192.095 310.192 194.11 304.615 196.162ZM296.005 196.472C298.053 196.393 300.1 196.322 302.147 196.251C307.651 194.225 313.123 192.218 318.568 190.227C316.46 190.348 314.355 190.467 312.245 190.595C306.872 192.528 301.438 194.5 296.005 196.472ZM287.31 196.825C289.375 196.738 291.44 196.644 293.503 196.563C298.838 194.626 304.203 192.67 309.476 190.771C307.369 190.901 305.261 191.033 303.15 191.171C297.927 193.02 292.598 194.936 287.31 196.825ZM278.558 197.209C280.613 197.114 282.667 197.024 284.72 196.935C289.956 195.062 295.208 193.178 300.379 191.346C298.277 191.487 296.163 191.644 294.056 191.793C288.919 193.58 283.759 195.381 278.558 197.209ZM269.814 197.636C271.828 197.534 273.841 197.438 275.854 197.342C280.995 195.533 286.064 193.77 291.143 192C289.041 192.152 286.94 192.297 284.833 192.456C279.887 194.143 274.823 195.908 269.814 197.636ZM260.91 198.117C262.961 198.002 265.015 197.882 267.065 197.774C271.932 196.093 276.896 194.347 281.706 192.702C279.647 192.861 277.586 193.023 275.524 193.189C270.694 194.805 265.799 196.463 260.91 198.117ZM251.963 198.631C253.997 198.508 256.03 198.391 258.063 198.275C262.823 196.662 267.631 195.016 272.333 193.441C270.273 193.611 268.203 193.795 266.138 193.972C261.437 195.508 256.719 197.056 251.963 198.631ZM242.936 199.192C244.957 199.061 246.976 198.939 248.996 198.815C253.605 197.287 258.219 195.755 262.775 194.263C260.752 194.44 258.735 194.608 256.709 194.792C252.125 196.253 247.57 197.696 242.936 199.192ZM233.805 199.814C235.825 199.674 237.847 199.529 239.866 199.395C244.317 197.953 248.732 196.537 253.133 195.131C251.113 195.318 249.091 195.511 247.068 195.706C242.64 197.079 238.278 198.408 233.805 199.814ZM224.752 200.465C226.708 200.319 228.664 200.175 230.619 200.035C234.914 198.682 239.141 197.376 243.392 196.054C241.384 196.251 239.367 196.464 237.356 196.668C233.155 197.934 228.99 199.173 224.752 200.465ZM215.673 201.158C217.539 201.01 219.401 200.874 221.266 200.732C225.357 199.48 229.353 198.298 233.404 197.075C231.469 197.276 229.54 197.468 227.601 197.675C223.638 198.827 219.673 199.979 215.673 201.158ZM206.46 201.922C208.292 201.767 210.124 201.613 211.955 201.463C215.765 200.337 219.507 199.26 223.29 198.154C221.387 198.362 219.483 198.574 217.576 198.789C213.893 199.817 210.176 200.87 206.46 201.922ZM197.252 202.724C199.021 202.565 200.79 202.401 202.558 202.248C206.067 201.25 209.543 200.277 213.028 199.297C211.173 199.511 209.307 199.742 207.449 199.963C204.077 200.861 200.65 201.803 197.252 202.724ZM188.085 203.558C189.723 203.404 191.357 203.26 192.994 203.11C196.134 202.255 199.268 201.405 202.386 200.567C200.714 200.77 199.042 200.97 197.367 201.177C194.294 201.954 191.18 202.764 188.085 203.558ZM178.815 204.469C180.324 204.317 181.832 204.171 183.341 204.024C186.033 203.329 188.738 202.621 191.415 201.937C189.99 202.12 188.568 202.298 187.142 202.484C184.37 203.142 181.603 203.796 178.815 204.469ZM169.856 205.389C171.105 205.257 172.357 205.121 173.604 204.993C175.725 204.476 177.868 203.94 179.978 203.432C178.906 203.576 177.832 203.725 176.761 203.871C174.458 204.378 172.169 204.871 169.856 205.389ZM161.682 206.255C162.346 206.181 163.009 206.114 163.672 206.042C165.038 205.733 166.419 205.409 167.78 205.104C167.279 205.176 166.773 205.253 166.271 205.323L161.682 206.255ZM1374.76 254.799C1377.07 254.729 1379.37 254.656 1381.68 254.577C1366.93 232.072 1356.09 206.448 1345.04 180.328C1323.55 129.51 1301.28 76.8383 1247.85 41.8777C1169.53 -9.37466 1024.03 -22.6009 715.592 63.6362C1011.46 -14.8312 1152.27 2.1062 1231.12 54.1006C1281.9 87.5817 1306.93 135.575 1331.13 181.987C1344.51 207.658 1357.65 232.84 1374.76 254.799ZM1366.53 255.046C1368.81 254.983 1371.09 254.91 1373.37 254.841C1356.34 232.896 1343.23 207.775 1329.88 182.166C1305.71 135.822 1280.72 87.8983 1230.11 54.5235C1148.97 1.02423 1001.77 -15.1193 686.165 72.3634C990.108 -7.44403 1132.83 12.8231 1214.83 67.3393C1262.36 98.9401 1289.44 142.028 1315.69 183.801C1331.5 208.967 1347.02 233.653 1366.53 255.046ZM1358.35 255.249C1360.6 255.197 1362.84 255.142 1365.09 255.081C1345.69 233.713 1330.22 209.1 1314.45 184.015C1288.24 142.296 1261.2 99.2662 1213.81 67.7602C1129.42 11.6593 980.307 -7.95218 655.943 81.2301C969.865 -0.415527 1114.71 23.9024 1200.4 81.3799C1244.16 110.732 1272.45 148.708 1299.95 185.632C1318.31 210.276 1336.32 234.442 1358.35 255.249ZM1350.2 255.429C1352.42 255.384 1354.65 255.338 1356.87 255.286C1334.97 234.509 1317.03 210.429 1298.74 185.879C1271.27 148.998 1243.02 111.066 1199.38 81.7968C1111.66 22.9544 961.607 -0.97699 630.128 88.8045L628.643 89.2666C952.441 6.31741 1098.77 35.7701 1188.52 96.5566C1227.77 123.143 1256.18 155.709 1283.88 187.476C1304.91 211.584 1325.53 235.225 1350.2 255.429ZM1342.1 255.587C1344.29 255.548 1346.48 255.502 1348.67 255.459C1324.17 235.292 1303.63 211.756 1282.7 187.759C1255.03 156.028 1226.66 123.497 1187.5 96.9715C1096.72 35.4884 947.717 6.22757 614.309 93.7244C612.844 94.1839 611.421 94.6171 609.944 95.0826C940.466 13.0265 1086.42 49.1975 1180.34 113.486C1214.04 136.551 1241.02 163.222 1267.45 189.341C1291.28 212.898 1314.66 236.003 1342.1 255.587ZM1334.05 255.702C1336.2 255.674 1338.34 255.646 1340.5 255.611C1313.26 236.073 1290.01 213.088 1266.3 189.657C1239.9 163.563 1212.94 136.917 1179.31 113.897C1084.65 49.1044 936.913 12.9775 599.178 98.5051C597.017 99.1919 594.837 99.8884 592.674 100.576C1024.42 -2.74887 1141.74 97.8385 1250.59 191.22C1277.39 214.213 1303.68 236.759 1334.05 255.702ZM1326.02 255.798C1328.13 255.777 1330.25 255.753 1332.36 255.726C1302.25 236.835 1276.11 214.423 1249.48 191.573C1140.07 97.7037 1022.04 -3.44452 582.715 103.751C580.365 104.508 577.963 105.297 575.582 106.074C989.873 10.9026 1115.93 105.299 1233.25 193.124C1263.19 215.536 1292.56 237.519 1326.02 255.798ZM1318.06 255.869C1320.12 255.853 1322.18 255.834 1324.24 255.814C1291.08 237.592 1261.91 215.765 1232.19 193.512C1114.35 105.298 987.589 10.4981 567.165 108.814C564.066 109.824 561.011 110.809 557.89 111.833C955.172 24.5194 1089.78 112.719 1215.36 195.052C1248.65 216.873 1281.3 238.273 1318.06 255.869ZM1310.12 255.907C1312.12 255.902 1314.12 255.896 1316.13 255.884C1279.75 238.351 1247.36 217.118 1214.35 195.475C1088.33 112.856 953.241 24.2902 551.257 114.032C547.769 115.184 544.238 116.362 540.719 117.535C920.691 38.128 1063.36 120.167 1196.84 197.007C1233.69 218.217 1269.84 239.022 1310.12 255.907ZM1294.36 255.918C1296.22 255.922 1298.07 255.924 1299.92 255.925C1256.43 239.844 1216.93 219.854 1176.69 199.485C1035.19 127.869 884.422 51.6466 518.082 125.138C514.093 126.488 510.099 127.841 506.087 129.204C851.963 65.0189 1009.23 135.022 1157.47 201.021C1202.27 220.965 1246.24 240.538 1294.36 255.918ZM1286.54 255.884C1288.31 255.896 1290.07 255.908 1291.85 255.915C1244.39 240.601 1200.91 221.253 1156.64 201.54C1007.94 135.34 850.14 65.1171 501.219 130.86C497.003 132.303 492.706 133.796 488.425 135.28C817.54 78.3575 981.351 142.422 1136.34 203.088C1185.61 222.374 1234 241.306 1286.54 255.884ZM1278.76 255.835C1280.39 255.849 1282.03 255.856 1283.66 255.867C1231.93 241.353 1184.18 222.663 1135.57 203.634C980.142 142.799 815.865 78.5226 484.232 136.73C479.711 138.295 475.207 139.85 470.641 141.444C783.13 91.5483 952.767 149.804 1114 205.204C1168.16 223.815 1221.38 242.098 1278.76 255.835ZM1271 255.75C1272.5 255.766 1274 255.785 1275.5 255.8C1219.09 242.121 1166.64 224.107 1113.29 205.773C951.614 150.221 781.47 91.7992 466.81 142.791C462.177 144.413 457.503 146.06 452.82 147.711C748.695 104.633 923.351 157.179 1090.18 207.376C1149.73 225.292 1208.28 242.902 1271 255.75ZM1263.27 255.65C1264.59 255.67 1265.9 255.692 1267.22 255.709C1205.68 242.907 1148.09 225.582 1089.54 207.964C922.249 157.629 747.091 104.923 449.337 148.937C444.479 150.655 439.566 152.406 434.64 154.166C714.022 117.603 892.852 164.527 1064.57 209.611C1130.1 226.815 1194.6 243.744 1263.27 255.65ZM1255.59 255.532C1256.64 255.55 1257.7 255.563 1258.75 255.581C1191.55 243.703 1128.27 227.093 1064 210.218C891.808 165.011 712.466 117.952 431.485 155.295C426.454 157.092 421.439 158.88 416.364 160.705C679.188 130.386 861.031 171.857 1036.73 211.92C1108.99 228.396 1180.21 244.632 1255.59 255.532ZM1247.88 255.383L1250.05 255.426C1176.52 244.529 1106.86 228.652 1036.22 212.543C860.023 172.368 677.629 130.792 413.419 161.766C408.282 163.618 403.049 165.531 397.834 167.433C643.946 143.055 827.516 179.169 1006.06 214.316C1085.95 230.042 1164.83 245.57 1247.88 255.383ZM1240.27 255.222L1240.87 255.237C1160.22 245.384 1083.39 230.263 1005.6 214.953C826.557 179.706 642.451 143.488 395.169 168.402C389.837 170.344 384.494 172.293 379.102 174.272C608.201 155.497 791.784 186.454 971.73 216.813C1060.45 231.78 1148.29 246.598 1240.27 255.222ZM831.318 225.013C950.823 237.005 1071.2 249.081 1194.93 253.828C1090.05 247.365 988.257 235.096 886.397 222.818C709.613 201.508 532.618 180.182 338.965 189.169C333.212 191.322 327.49 193.455 321.657 195.655C494.495 191.219 662.031 208.025 831.318 225.013ZM1263.03 256.329L1260.98 256.297L1261.71 256.401C1262.45 256.428 1263.18 256.456 1263.92 256.481L1263.03 256.329ZM1270.72 256.429C1269.68 256.417 1268.64 256.409 1267.6 256.395C1268.1 256.48 1268.59 256.567 1269.09 256.651L1272.29 256.751L1270.72 256.429ZM1278.44 256.513C1277.13 256.501 1275.82 256.485 1274.51 256.47C1275.21 256.611 1275.91 256.747 1276.61 256.886C1277.89 256.923 1279.17 256.954 1280.45 256.989C1279.78 256.83 1279.11 256.673 1278.44 256.513ZM1286.18 256.563L1281.73 256.537L1284.07 257.084C1285.54 257.124 1287.01 257.166 1288.49 257.201C1287.72 256.987 1286.95 256.776 1286.18 256.563ZM1293.97 256.599C1292.33 256.595 1290.7 256.589 1289.06 256.581C1289.9 256.809 1290.73 257.04 1291.56 257.266C1293.17 257.3 1294.78 257.336 1296.39 257.369C1295.58 257.114 1294.77 256.856 1293.97 256.599ZM1301.79 256.608C1300.03 256.609 1298.27 256.605 1296.51 256.602C1297.38 256.88 1298.27 257.152 1299.15 257.427C1300.86 257.459 1302.57 257.485 1304.28 257.513C1303.45 257.212 1302.62 256.911 1301.79 256.608ZM1309.64 256.591C1307.79 256.596 1305.95 256.608 1304.11 256.611C1304.97 256.924 1305.83 257.241 1306.69 257.552C1308.51 257.582 1310.33 257.612 1312.15 257.636C1311.31 257.29 1310.47 256.94 1309.64 256.591ZM1317.54 256.556C1315.6 256.569 1313.66 256.576 1311.72 256.582C1312.6 256.945 1313.48 257.301 1314.35 257.659C1316.23 257.681 1318.11 257.702 1319.99 257.719C1319.17 257.333 1318.36 256.945 1317.54 256.556ZM1325.45 256.485C1323.46 256.505 1321.46 256.523 1319.47 256.539C1320.32 256.94 1321.16 257.343 1322.01 257.741C1323.95 257.757 1325.9 257.766 1327.85 257.778C1327.05 257.349 1326.25 256.92 1325.45 256.485ZM1333.43 256.393C1331.37 256.419 1329.31 256.447 1327.26 256.47C1328.07 256.913 1328.9 257.349 1329.72 257.787C1331.72 257.799 1333.71 257.809 1335.72 257.814C1334.95 257.343 1334.19 256.866 1333.43 256.393ZM1341.44 256.279C1339.33 256.314 1337.22 256.341 1335.12 256.369C1335.9 256.852 1336.68 257.334 1337.47 257.813C1339.52 257.814 1341.56 257.814 1343.61 257.81C1342.88 257.301 1342.16 256.792 1341.44 256.279ZM1349.48 256.126C1347.33 256.168 1345.19 256.211 1343.05 256.25C1343.78 256.771 1344.52 257.292 1345.26 257.809C1347.35 257.804 1349.44 257.791 1351.53 257.779C1350.84 257.231 1350.16 256.68 1349.48 256.126ZM1357.58 255.951C1355.38 256.003 1353.19 256.051 1351.01 256.095C1351.7 256.658 1352.4 257.214 1353.1 257.769C1355.22 257.758 1357.34 257.744 1359.46 257.724C1358.83 257.137 1358.21 256.542 1357.58 255.951ZM1365.71 255.749C1363.49 255.808 1361.27 255.862 1359.05 255.914C1359.69 256.514 1360.33 257.113 1360.98 257.707C1363.14 257.684 1365.29 257.659 1367.45 257.63C1366.87 257.005 1366.28 256.379 1365.71 255.749ZM1373.88 255.508C1371.64 255.576 1369.39 255.649 1367.15 255.713C1367.73 256.349 1368.32 256.983 1368.91 257.613C1371.09 257.581 1373.28 257.541 1375.47 257.503C1374.94 256.84 1374.41 256.177 1373.88 255.508ZM1382.12 255.245C1379.84 255.323 1377.56 255.395 1375.27 255.466C1375.81 256.142 1376.35 256.809 1376.89 257.479C1379.1 257.44 1381.31 257.399 1383.52 257.351C1383.05 256.652 1382.59 255.949 1382.12 255.245ZM1627.01 232.426C1543.67 245.443 1462.7 252.439 1383.49 255.196C1383.96 255.905 1384.43 256.614 1384.91 257.318C1462.63 255.593 1542.83 249.225 1626.64 236.135L1627.01 236.787C1543.23 249.872 1463.06 256.251 1385.37 257.99C1385.85 258.687 1386.32 259.385 1386.81 260.074C1462.99 259.389 1542.37 253.659 1626.64 240.497L1627.01 241.149C1542.78 254.305 1463.44 260.046 1387.3 260.752C1387.79 261.437 1388.28 262.119 1388.78 262.797C1463.37 263.169 1541.91 258.093 1626.64 244.858L1627.01 245.51C1542.33 258.737 1463.83 263.83 1389.27 263.484C1389.77 264.159 1390.28 264.825 1390.79 265.492C1463.77 266.944 1541.45 262.526 1626.64 249.219L1627.01 249.87C1541.88 263.167 1464.25 267.607 1391.32 266.191C1391.82 266.844 1392.33 267.492 1392.84 268.139C1464.18 270.692 1540.96 266.962 1626.64 253.579L1627.01 254.231C1541.41 267.601 1464.68 271.357 1393.4 268.845C1393.91 269.484 1394.42 270.124 1394.93 270.756C1464.6 274.433 1540.48 271.4 1626.64 257.941L1627.01 258.593C1540.95 272.035 1465.14 275.103 1395.54 271.48C1396.06 272.1 1396.57 272.721 1397.1 273.334C1465.04 278.155 1539.99 275.837 1626.64 262.302L1627.01 262.953C1540.48 276.47 1465.61 278.83 1397.73 274.072C1398.25 274.677 1398.78 275.272 1399.32 275.87C1465.51 281.861 1539.49 280.275 1626.64 266.662L1627.01 267.314C1540.01 280.903 1466.11 282.543 1399.99 276.636C1400.52 277.219 1401.06 277.795 1401.59 278.371C1465.99 285.555 1538.98 284.716 1626.64 271.024L1627.01 271.676C1539.54 285.338 1466.65 286.241 1402.33 279.162C1402.85 279.719 1403.38 280.276 1403.91 280.827C1466.49 289.227 1538.47 289.158 1626.64 275.385L1627.01 276.037C1539.08 289.771 1467.22 289.93 1404.74 281.661C1405.26 282.187 1405.77 282.717 1406.29 283.236C1467 292.882 1537.94 293.601 1626.64 279.746L1627.01 280.397C1538.61 294.206 1467.81 293.592 1407.2 284.11C1407.72 284.616 1408.25 285.119 1408.78 285.619C1467.57 296.525 1537.43 298.042 1626.64 284.107L1627.01 284.758C1538.15 298.638 1468.45 297.251 1409.75 286.543C1410.26 287.013 1410.78 287.47 1411.3 287.934C1468.14 300.138 1536.88 302.488 1626.64 288.469L1627.01 289.12C1537.72 303.067 1469.15 300.889 1412.41 288.942C1412.9 289.371 1413.4 289.796 1413.89 290.221C1468.74 303.742 1536.35 306.933 1626.64 292.829L1627.01 293.48C1537.31 307.492 1469.92 304.511 1415.19 291.318C1415.63 291.691 1416.07 292.071 1416.52 292.441C1469.33 307.318 1535.78 311.381 1626.64 297.189L1627.01 297.841C1536.95 311.909 1470.78 308.137 1418.1 293.699C1418.49 294.006 1418.87 294.317 1419.27 294.622C1469.99 310.875 1535.23 315.83 1626.64 301.552L1627.01 302.203C1536.65 316.317 1471.76 311.751 1421.18 296.081C1421.49 296.316 1421.81 296.549 1422.12 296.782C1470.71 314.423 1534.7 320.274 1626.64 305.913L1627.01 306.564C1536.46 320.706 1472.92 315.362 1424.48 298.493C1424.65 298.613 1424.82 298.729 1424.99 298.848C1471.4 317.933 1534.11 324.726 1626.64 310.273L1627.01 310.924C1537.15 324.96 1475.28 319.091 1429.14 301.421C1473.23 321.56 1534.36 329.047 1626.64 314.633L1627.01 315.285C1539.04 329.025 1479.23 323.011 1435.5 305.141C1477.17 325.489 1536.25 333.114 1626.64 318.996L1627.01 319.647C1541.01 333.081 1483.2 326.969 1441.74 308.997C1481.13 329.455 1538.21 337.169 1626.64 323.356L1627.01 324.008C1529.45 339.246 1469.8 328.509 1429.99 303.392C1427.71 302.188 1425.49 300.934 1423.31 299.654C1420.94 298.484 1418.6 297.288 1416.33 296.045C1413.89 294.925 1411.5 293.762 1409.15 292.572C1406.56 291.467 1404 290.332 1401.49 289.157C1398.84 288.113 1396.24 287.036 1393.68 285.929C1390.84 284.899 1388.05 283.835 1385.3 282.741C1382.42 281.777 1379.57 280.789 1376.77 279.768C1373.69 278.828 1370.67 277.851 1367.66 276.854C1364.45 275.956 1361.26 275.034 1358.11 274.083C1354.87 273.262 1351.65 272.417 1348.47 271.547C1345.01 270.759 1341.58 269.939 1338.18 269.102C1334.53 268.359 1330.91 267.59 1327.3 266.799C1323.54 266.117 1319.78 265.417 1316.06 264.691C1312.19 264.076 1308.34 263.446 1304.52 262.792C1300.49 262.236 1296.47 261.664 1292.46 261.07C1288.27 260.578 1284.09 260.069 1279.92 259.541C1275.55 259.113 1271.18 258.671 1266.84 258.21C1262.44 257.862 1258.05 257.495 1253.67 257.117C1248.94 256.827 1244.21 256.518 1239.49 256.198C1234.68 255.983 1229.87 255.754 1225.06 255.512C1090.62 251.718 960.334 238.649 831.076 225.678C661.229 208.636 493.147 191.77 319.734 196.384C223.364 232.775 117.41 275.07 0.807007 323.947L0 323.417C115.967 274.808 221.4 232.716 317.375 196.453C315.309 196.511 313.243 196.573 311.175 196.637C217.295 231.667 114.204 272.415 0.807007 319.587L0 319.056C112.747 272.154 215.307 231.609 308.782 196.708C306.712 196.774 304.64 196.847 302.568 196.919C211.19 230.579 110.973 269.773 0.804443 315.227L0.00268555 314.692C109.488 269.52 209.151 230.533 300.1 197.008C298.04 197.082 295.982 197.149 293.921 197.23C205.053 229.51 107.718 267.145 0.801636 310.866L0.00585938 310.331C106.203 266.905 202.963 229.479 291.374 197.337C289.297 197.421 287.217 197.511 285.138 197.601C198.82 228.486 104.396 264.551 0.799805 306.506L0.00830078 305.969C102.866 264.312 196.702 228.456 282.547 197.71C280.459 197.804 278.37 197.906 276.28 198.005C192.537 227.482 101.026 261.981 0.796997 302.147L0.0101318 301.608C99.4532 261.756 190.347 227.466 273.578 198.137C271.555 198.237 269.534 198.33 267.51 198.435C186.282 226.512 97.7374 259.383 0.795044 297.786L0.0123291 297.243C96.1426 259.163 184.019 226.521 264.712 198.591C262.644 198.702 260.575 198.817 258.506 198.935C179.88 225.584 94.3108 256.848 0.792358 293.427L0.0151367 292.882C92.7041 256.626 177.585 225.595 255.66 199.093C253.588 199.214 251.513 199.346 249.439 199.474C173.425 224.684 90.8496 254.33 0.787964 289.068L0.0205078 288.52C89.2079 254.119 171.048 224.718 246.471 199.658C244.418 199.788 242.367 199.915 240.312 200.051C166.926 223.812 87.3612 251.828 0.784546 284.707L0.022583 284.157C85.6719 251.63 164.448 223.872 237.198 200.267C235.151 200.406 233.103 200.546 231.055 200.692C160.325 222.989 83.8127 249.358 0.779053 280.349L0.0284424 279.795C82.1045 249.162 157.793 223.058 227.856 200.917C225.804 201.067 223.748 201.231 221.694 201.387C153.646 222.207 80.2178 246.911 0.774536 275.989L0.0338135 275.433C78.4585 246.73 151 222.303 218.326 201.645C216.349 201.799 214.371 201.956 212.391 202.117C146.986 221.461 76.6604 244.461 0.769653 271.631L0.0374756 271.07C74.7539 244.321 144.105 221.591 208.664 202.428C206.772 202.586 204.882 202.738 202.988 202.901C140.247 220.753 73.0507 242.038 0.762451 267.271L0.0462646 266.705C71.0524 241.919 137.177 220.922 198.973 203.258C197.121 203.423 195.268 203.592 193.414 203.763C133.384 220.105 69.3629 239.652 0.756592 262.913L0.0511475 262.343C67.2943 239.545 130.151 220.3 189.158 204.149C187.363 204.318 185.564 204.501 183.768 204.675C126.459 219.494 65.6324 237.291 0.746094 258.556L0.0611572 257.979C63.4103 237.218 122.899 219.754 179.025 205.14C177.357 205.307 175.69 205.472 174.02 205.643C119.456 218.924 61.85 234.958 0.737061 254.197L0.0710449 253.614C59.4164 234.933 115.455 219.272 168.621 206.213C167.109 206.373 165.597 206.529 164.085 206.693C112.312 218.416 57.9836 232.667 0.727051 249.84L0.081665 249.25C55.2661 232.699 107.719 218.874 157.801 207.391C156.509 207.536 155.217 207.682 153.924 207.83C104.998 217.978 54.0208 230.416 0.71167 245.483L0.0968018 244.885C50.8491 230.541 99.4711 218.597 146.241 208.721C145.485 208.811 144.729 208.905 143.973 208.996C97.806 217.565 50.1277 228.161 0.693848 241.127L0.115845 240.521C45.4744 228.624 89.3511 218.725 131.945 210.546C89.1841 217.466 45.4808 226.107 0.671021 236.772L0.138672 236.152C38.5554 227.009 76.1587 219.354 113.053 212.988C75.9536 218.115 38.5062 224.524 0.642944 232.416L0.165649 231.787C45.1783 222.402 89.6039 215.105 133.549 209.574C140.724 208.42 147.878 207.306 155.002 206.248C162.606 204.886 170.153 203.597 177.678 202.34C185.473 200.825 193.226 199.357 200.918 197.956C209.087 196.254 217.205 194.602 225.239 193.032C233.484 191.225 241.635 189.503 249.738 187.823C257.983 185.938 266.16 184.111 274.258 182.35C282.931 180.286 291.53 178.282 300.024 176.36C309.03 174.147 317.909 172.032 326.712 169.974C335.264 167.82 343.723 165.732 352.089 163.716C360.627 161.51 369.085 159.364 377.435 157.295C387.594 154.602 397.567 152.039 407.438 149.547C416.277 147.173 425.01 144.872 433.632 142.647C442.368 140.26 450.997 137.944 459.523 135.697C469.662 132.879 479.677 130.143 489.533 127.512C498.97 124.855 508.281 122.279 517.455 119.793C526.992 117.074 536.407 114.435 545.669 111.892C555.399 109.087 565.009 106.358 574.453 103.735C583.927 100.979 593.291 98.2931 602.498 95.7051C611.807 92.972 621 90.3105 630.051 87.7375C639.391 84.966 648.58 82.2867 657.653 79.6792C1006.59 -24.864 1165.49 -13.1005 1248.86 41.4557C1302.48 76.5407 1324.79 129.291 1346.31 180.183C1357.38 206.35 1368.24 232.017 1383.05 254.528C1462.29 251.784 1543.29 244.795 1626.64 231.775L1627.01 232.426Z" fill="#D4EBFC"/>
</svg>
