<svg width="18" height="14" viewBox="0 0 18 14" fill="none" xmlns="http://www.w3.org/2000/svg">
<path id="Vector" d="M10.9609 2.25309C10.8626 2.16155 10.7838 2.05115 10.7292 1.92848C10.6745 1.80581 10.6451 1.6734 10.6428 1.53913C10.6404 1.40485 10.6651 1.27148 10.7154 1.14696C10.7657 1.02245 10.8405 0.909336 10.9355 0.814377C11.0305 0.719419 11.1436 0.64456 11.2681 0.594265C11.3926 0.54397 11.526 0.519271 11.6602 0.52164C11.7945 0.524009 11.9269 0.553398 12.0496 0.608054C12.1723 0.66271 12.2827 0.741513 12.3742 0.839762L17.7075 6.1731C17.8948 6.3606 18 6.61476 18 6.87976C18 7.14476 17.8948 7.39893 17.7075 7.58643L12.3742 12.9198C12.2827 13.018 12.1723 13.0968 12.0496 13.1515C11.9269 13.2061 11.7945 13.2355 11.6602 13.2379C11.526 13.2403 11.3926 13.2156 11.2681 13.1653C11.1436 13.115 11.0305 13.0401 10.9355 12.9451C10.8405 12.8502 10.7657 12.7371 10.7154 12.6126C10.6651 12.488 10.6404 12.3547 10.6428 12.2204C10.6451 12.0861 10.6745 11.9537 10.7292 11.831C10.7838 11.7084 10.8626 11.598 10.9609 11.5064L14.5875 7.87976L1.66755 7.87976C1.40233 7.87976 1.14797 7.77441 0.960438 7.58687C0.772902 7.39933 0.667545 7.14498 0.667545 6.87976C0.667545 6.61455 0.772902 6.36019 0.960438 6.17266C1.14797 5.98512 1.40233 5.87976 1.66755 5.87976L14.5875 5.87976L10.9609 2.25309Z" fill="#0078D4"/>
</svg>
