<svg width="24" height="25" viewBox="0 0 24 25" fill="none" xmlns="http://www.w3.org/2000/svg">
<g id="mynaui:rupee-square">
<g id="Group">
<path id="Vector" d="M3 10.2789C3 8.03891 3 6.91891 3.436 6.06291C3.81949 5.31029 4.43139 4.69839 5.184 4.31491C6.04 3.87891 7.16 3.87891 9.4 3.87891H14.6C16.84 3.87891 17.96 3.87891 18.816 4.31491C19.5686 4.69839 20.1805 5.31029 20.564 6.06291C21 6.91891 21 8.03891 21 10.2789V15.4789C21 17.7189 21 18.8389 20.564 19.6949C20.1805 20.4475 19.5686 21.0594 18.816 21.4429C17.96 21.8789 16.84 21.8789 14.6 21.8789H9.4C7.16 21.8789 6.04 21.8789 5.184 21.4429C4.43139 21.0594 3.81949 20.4475 3.436 19.6949C3 18.8389 3 17.7189 3 15.4789V10.2789Z" stroke="black" stroke-width="1.5" stroke-linecap="round" stroke-linejoin="round"/>
<path id="Vector_2" d="M9 8.37891H15M9 11.1569H15M13.25 18.3789L9 13.9349H10.5C13.834 13.9349 13.834 8.37891 10.5 8.37891" stroke="black" stroke-width="1.5" stroke-linecap="round" stroke-linejoin="round"/>
</g>
</g>
</svg>
