<svg width="42" height="42" viewBox="0 0 42 42" fill="none" xmlns="http://www.w3.org/2000/svg">
<g clip-path="url(#clip0_2059_15278)">
<path d="M21 0C9.40209 0 0 9.40209 0 21C0 32.5986 9.40209 42 21 42C32.5986 42 42 32.5986 42 21C42 9.40209 32.5986 0 21 0ZM21 39.4163C10.8682 39.4163 2.625 31.1318 2.625 20.9999C2.625 10.8681 10.8682 2.62492 21 2.62492C31.1318 2.62492 39.375 10.8681 39.375 20.9999C39.375 31.1317 31.1318 39.4163 21 39.4163ZM29.381 13.316L17.0598 25.7145L11.5112 20.1659C10.9987 19.6534 10.1679 19.6534 9.65471 20.1659C9.14218 20.6784 9.14218 21.5092 9.65471 22.0218L16.1509 28.5187C16.6635 29.0305 17.4943 29.0305 18.0075 28.5187C18.0665 28.4596 18.1171 28.3952 18.163 28.3283L31.2382 15.1725C31.75 14.6599 31.75 13.8291 31.2382 13.316C30.725 12.8034 29.8942 12.8034 29.381 13.316Z" fill="#50A556" style="fill:#50A556;fill:color(display-p3 0.3137 0.6471 0.3373);fill-opacity:1;"/>
</g>
<defs>
<clipPath id="clip0_2059_15278">
<rect width="42" height="42" fill="white" style="fill:white;fill-opacity:1;"/>
</clipPath>
</defs>
</svg>
