<svg width="32" height="32" viewBox="0 0 32 32" fill="none" xmlns="http://www.w3.org/2000/svg">
<path d="M2.66797 12.0003C2.66797 9.48566 2.66797 8.22966 3.4493 7.44833C4.23064 6.66699 5.48664 6.66699 8.0013 6.66699H24.0013C26.516 6.66699 27.772 6.66699 28.5533 7.44833C29.3346 8.22966 29.3346 9.48566 29.3346 12.0003C29.3346 12.6283 29.3346 12.943 29.14 13.139C28.944 13.3337 28.628 13.3337 28.0013 13.3337H4.0013C3.3733 13.3337 3.05864 13.3337 2.86264 13.139C2.66797 12.943 2.66797 12.627 2.66797 12.0003ZM2.66797 24.0003C2.66797 26.515 2.66797 27.771 3.4493 28.5523C4.23064 29.3337 5.48664 29.3337 8.0013 29.3337H24.0013C26.516 29.3337 27.772 29.3337 28.5533 28.5523C29.3346 27.771 29.3346 26.515 29.3346 24.0003V17.3337C29.3346 16.7057 29.3346 16.391 29.14 16.195C28.944 16.0003 28.628 16.0003 28.0013 16.0003H4.0013C3.3733 16.0003 3.05864 16.0003 2.86264 16.195C2.66797 16.391 2.66797 16.707 2.66797 17.3337V24.0003Z" fill="#1877F2" style="fill:#1877F2;fill:color(display-p3 0.0941 0.4667 0.9490);fill-opacity:1;"/>
<path d="M9.33594 4V8M22.6693 4V8" stroke="#1877F2" style="stroke:#1877F2;stroke:color(display-p3 0.0941 0.4667 0.9490);stroke-opacity:1;" stroke-width="2.66667" stroke-linecap="round"/>
</svg>
