<svg width="17" height="16" viewBox="0 0 17 16" fill="none" xmlns="http://www.w3.org/2000/svg">
<path d="M6.38447 0.0947268C5.59143 0.0944843 4.80612 0.250496 4.07339 0.553848C3.34066 0.8572 2.67489 1.30195 2.11409 1.86268C1.5533 2.42342 1.10849 3.08915 0.80506 3.82185C0.501633 4.55454 0.345542 5.33984 0.345703 6.13288C0.345461 6.92597 0.501493 7.71134 0.804883 8.44411C1.10827 9.17687 1.55308 9.84268 2.11388 10.4035C2.67468 10.9643 3.34048 11.4091 4.07325 11.7125C4.80602 12.0159 5.59138 12.1719 6.38447 12.1716C7.7937 12.1716 9.08786 11.6726 10.1155 10.864L10.654 11.4024C10.5434 11.6173 10.5043 11.8618 10.5423 12.1004C10.5802 12.339 10.6933 12.5593 10.8651 12.7292L13.6922 15.5753C14.1309 16.0147 14.8491 16.0147 15.2885 15.5753L15.8269 15.0369C16.0378 14.8247 16.1561 14.5378 16.1561 14.2387C16.1561 13.9396 16.0378 13.6527 15.8269 13.4406L12.9808 10.6135C12.8099 10.4425 12.5882 10.3314 12.349 10.2968C12.1098 10.2622 11.8657 10.306 11.6534 10.4215L11.1149 9.88303C11.8198 8.9936 12.2597 7.92354 12.3842 6.79555C12.5088 5.66755 12.3129 4.5273 11.8191 3.50551C11.3253 2.48373 10.5535 1.62179 9.59231 1.01853C8.63109 0.415263 7.51932 0.0950919 6.38447 0.0947268ZM6.38447 1.2098C7.69015 1.2098 8.94236 1.72848 9.86561 2.65174C10.7889 3.575 11.3075 4.8272 11.3075 6.13288C11.3075 7.43856 10.7889 8.69077 9.86561 9.61402C8.94236 10.5373 7.69015 11.056 6.38447 11.056C5.07879 11.056 3.82659 10.5373 2.90333 9.61402C1.98008 8.69077 1.4614 7.43856 1.4614 6.13288C1.4614 4.8272 1.98008 3.575 2.90333 2.65174C3.82659 1.72848 5.07879 1.2098 6.38447 1.2098ZM3.26878 4.57534C2.94068 5.10703 2.76761 5.7198 2.76909 6.34457C2.76836 6.78675 2.85491 7.22472 3.02379 7.63337C3.19266 8.04203 3.44054 8.41333 3.7532 8.726C4.06587 9.03866 4.43717 9.28654 4.84583 9.45541C5.25448 9.62429 5.69245 9.71084 6.13463 9.71011C6.82985 9.70932 7.50796 9.49445 8.07678 9.09473C7.92337 9.10913 7.76931 9.11529 7.61524 9.11319C7.0441 9.11465 6.47829 9.00324 5.95034 8.78537C5.42238 8.56749 4.94268 8.24745 4.53879 7.84361C4.1349 7.43978 3.81479 6.96012 3.59684 6.4322C3.37889 5.90427 3.2674 5.33849 3.26878 4.76734C3.26878 4.70334 3.2657 4.63934 3.26878 4.57534Z" fill="white"/>
</svg>
