<svg width="82" height="83" viewBox="0 0 82 83" fill="none" xmlns="http://www.w3.org/2000/svg">
<rect y="0.318359" width="82" height="82" rx="5" fill="#F1F9FF"/>
<mask id="mask0_4277_21003" style="mask-type:luminance" maskUnits="userSpaceOnUse" x="16" y="17" width="50" height="49">
<path d="M16.5 22.375C16.5 19.6136 18.7386 17.375 21.5 17.375H60.5C63.2614 17.375 65.5 19.6136 65.5 22.375V60.2614C65.5 63.0228 63.2614 65.2614 60.5 65.2614H21.5C18.7386 65.2614 16.5 63.0228 16.5 60.2614V22.375Z" fill="white"/>
</mask>
<g mask="url(#mask0_4277_21003)">
<path d="M41.1237 38.5097C41.1991 38.5329 41.2765 38.5426 41.3557 38.5445C41.4311 38.5426 41.5066 38.5329 41.58 38.5116C43.8614 37.7557 45.82 36.4932 47.4537 34.7261C49.1454 32.9319 50.0773 31.0217 50.0773 29.3454V22.4567C50.0773 22.3078 50.0386 22.1686 49.9613 22.0391C49.884 21.9115 49.7796 21.8129 49.6481 21.7452L41.7289 17.5478C41.4795 17.4164 41.2301 17.4164 40.9787 17.5478L33.1137 21.7182C32.9687 21.7839 32.8527 21.8825 32.7657 22.0159C32.6787 22.1512 32.6342 22.2982 32.6342 22.4567V29.3473C32.6342 31.0236 33.5661 32.9338 35.2578 34.7261C36.8896 36.4912 38.8443 37.7518 41.1237 38.5097ZM34.2457 25.9489C34.2463 24.0987 35.2686 22.4001 36.9032 21.5332L39.0132 20.4142C40.4782 19.6372 42.2332 19.6372 43.6983 20.4142L45.8074 21.5327C47.4425 22.3998 48.4648 24.0992 48.4648 25.95V29.3473C48.4648 30.6118 47.6896 32.1295 46.2859 33.6221C45.3237 34.6597 44.2338 35.5048 43.0162 36.1567C41.98 36.7114 40.7315 36.7117 39.6951 36.1572C38.4764 35.5053 37.3861 34.66 36.4237 33.6221C35.0181 32.1314 34.2447 30.6137 34.2447 29.3473L34.2457 25.9489ZM36.9031 29.0767C36.8393 28.9897 36.7929 28.8949 36.7678 28.7886C36.7427 28.6842 36.7388 28.5778 36.7543 28.4715C36.7717 28.3652 36.8084 28.2646 36.8645 28.1738C36.9225 28.081 36.994 28.0036 37.081 27.9418C37.1699 27.878 37.2666 27.8354 37.371 27.8103C37.4774 27.7871 37.5818 27.7852 37.6881 27.8045C37.7944 27.8219 37.893 27.8606 37.9839 27.9205C38.0748 27.9785 38.1502 28.052 38.212 28.1409C38.8035 28.97 39.9986 29.0679 40.7171 28.3462L44.5845 24.4616C44.6619 24.3882 44.7489 24.3321 44.8455 24.2915C44.9441 24.2528 45.0466 24.2316 45.1529 24.2316C45.2573 24.2316 45.3598 24.2509 45.4584 24.2896C45.557 24.3302 45.644 24.3862 45.7214 24.4578C45.7968 24.5332 45.8548 24.6202 45.8954 24.7188C45.936 24.8174 45.9572 24.9218 45.9572 25.0281C45.9572 25.1345 45.9379 25.2369 45.8973 25.3355C45.8567 25.4361 45.7987 25.5231 45.7252 25.5985L39.811 31.5359C39.7356 31.6113 39.6486 31.6713 39.55 31.7119C39.4514 31.7525 39.3489 31.7738 39.2425 31.7738C39.1362 31.7738 39.0337 31.7544 38.9351 31.7138C38.8365 31.6732 38.7495 31.6152 38.6741 31.5398C38.6413 31.5069 38.6123 31.4721 38.5852 31.4335L36.9031 29.0767ZM65.5068 40.0506C65.5062 40.0506 65.5058 40.0502 65.5058 40.0497C65.5076 39.557 65.4148 39.0817 65.2274 38.6257C65.0401 38.17 64.7718 37.7683 64.4264 37.4187C64.4255 37.4178 64.425 37.4166 64.425 37.4154C64.425 37.4142 64.4245 37.413 64.4237 37.4121C64.0837 37.0744 63.6955 36.8119 63.2553 36.6246C63.0429 36.5343 62.8264 36.4646 62.6055 36.4157C62.1962 36.3252 61.8566 36.0111 61.7241 35.6135C61.5367 35.0457 61.2298 34.5512 60.8052 34.13C60.8043 34.1291 60.8031 34.1286 60.8019 34.1286C60.8006 34.1286 60.7994 34.1281 60.7985 34.1273C60.4508 33.7799 60.0492 33.5116 59.5954 33.3243C59.1397 33.137 58.6686 33.0442 58.1763 33.044C58.1752 33.044 58.1744 33.0431 58.1744 33.0421C58.1744 33.041 58.1735 33.0401 58.1724 33.0401C57.6801 33.0404 57.2071 33.1332 56.7514 33.3224C56.297 33.5099 55.8949 33.7806 55.5469 34.1286L47.6162 42.0822C46.6791 43.022 45.4067 43.5507 44.0795 43.5517L29.1894 43.5636C29.1453 43.5636 29.1013 43.5595 29.0574 43.5559C28.5219 43.5191 28.0018 43.5945 27.4972 43.784C27.0157 43.9638 26.5904 44.2306 26.2211 44.5883L26.1728 44.6347L16.732 54.1026C16.5619 54.2746 16.4865 54.4796 16.5039 54.7193V64.4037L16.5 64.4733C16.5 64.5777 16.5213 64.6782 16.5599 64.7768C16.6005 64.8735 16.6566 64.9586 16.732 65.032C16.8055 65.1055 16.8905 65.1635 16.9872 65.2041C17.0839 65.2428 17.1844 65.264 17.2888 65.264H25.8847C26.107 65.264 26.2965 65.1828 26.4512 65.0224L27.5979 63.8259C28.2472 63.1485 29.0739 62.6675 29.9837 62.4378L48.2792 57.8185C48.9733 57.5807 49.6075 57.2327 50.1836 56.7784C50.8004 56.3047 51.3765 55.7865 51.914 55.2239L51.9237 55.2143C51.9469 55.1949 51.9701 55.1756 51.9914 55.1524L64.4231 42.6858C64.7711 42.3359 65.0399 41.9338 65.2274 41.4775C65.4148 41.0196 65.5095 40.5443 65.5077 40.0516C65.5077 40.0511 65.5073 40.0506 65.5068 40.0506ZM56.6644 35.2481C57.0835 34.829 57.5874 34.6202 58.1782 34.6216C58.1793 34.6216 58.1802 34.6208 58.1802 34.6197C58.1802 34.6187 58.181 34.6178 58.1821 34.6178C58.4076 34.6199 58.6274 34.6566 58.8433 34.7261C59.0579 34.7976 59.2571 34.8981 59.4407 35.0315C59.6244 35.1649 59.7849 35.3215 59.9202 35.5052C60.0536 35.6869 60.158 35.8861 60.2315 36.1007C60.3318 36.4086 60.1251 36.7064 59.8491 36.876C59.6042 37.0265 59.3785 37.205 59.172 37.4115L51.6342 44.9688C50.9912 45.6134 49.7943 45.2831 49.1493 44.6405C48.6899 44.1811 48.5428 43.3897 49.0017 42.9297L56.6644 35.2481ZM63.9349 40.0545C63.9344 40.0545 63.934 40.0549 63.934 40.0555C63.9357 40.6486 63.7288 41.1548 63.3114 41.5741L50.8797 54.0349C50.8681 54.0484 50.8584 54.062 50.8468 54.0755C50.8352 54.089 50.8101 54.1084 50.7907 54.1258C50.3112 54.6304 49.797 55.0944 49.2459 55.5178C48.8245 55.8542 48.3604 56.1152 47.8558 56.3008L27.9921 61.3122C27.8316 61.3528 27.6963 61.4359 27.588 61.5616L27.0304 62.1436C26.0874 63.1279 24.7833 63.6845 23.4201 63.6845H23.0719C20.3104 63.6845 18.0719 61.4459 18.0719 58.6845V57.059C18.0719 55.7353 18.5968 54.4656 19.5315 53.5283L27.3193 45.7193C27.53 45.5183 27.7698 45.3655 28.0424 45.2631C28.3363 45.1548 28.6398 45.1123 28.953 45.1335C28.9826 45.1335 29.0121 45.1367 29.0416 45.1392C29.0597 45.1407 29.0779 45.1413 29.0961 45.1413L46.5208 45.1277C46.5213 45.1277 46.5218 45.1282 46.5218 45.1287C46.5218 45.1292 46.5222 45.1297 46.5228 45.1297C47.1133 45.1299 47.6152 45.3382 48.0304 45.7566C48.0313 45.7575 48.0318 45.7587 48.0318 45.7599C48.0318 45.7612 48.0323 45.7624 48.0331 45.7633C48.4513 46.1801 48.6616 46.6837 48.6659 47.2757C48.6659 47.2768 48.665 47.2777 48.664 47.2777C48.6629 47.2777 48.6621 47.2785 48.6621 47.2796C48.6619 47.4201 48.6465 47.5586 48.6195 47.6953C48.5924 47.8345 48.5499 47.9679 48.4977 48.0974C48.4436 48.2289 48.3759 48.3507 48.2986 48.4686C48.2212 48.5866 48.1323 48.6948 48.0318 48.7934C47.9332 48.894 47.8249 48.9829 47.7089 49.0603C47.591 49.1395 47.4691 49.2053 47.3377 49.2594C47.2081 49.3135 47.0747 49.3541 46.9375 49.3831C46.8002 49.4102 46.661 49.4237 46.5198 49.4257H34.3936C34.2892 49.4237 34.1867 49.445 34.09 49.4837C33.9934 49.5243 33.9083 49.5823 33.8348 49.6557C33.7614 49.7292 33.7034 49.8162 33.6628 49.9129C33.6241 50.0096 33.6028 50.1101 33.6028 50.2145C33.6028 50.3189 33.6241 50.4214 33.6628 50.518C33.7034 50.6147 33.7614 50.6998 33.8348 50.7732C33.9083 50.8486 33.9934 50.9047 34.09 50.9453C34.1867 50.9859 34.2892 51.0052 34.3936 51.0052H46.5218C46.8563 51.0033 47.1849 50.9588 47.5078 50.8699C47.8288 50.779 48.1342 50.6495 48.4204 50.4774C48.7085 50.3073 48.9675 50.1004 49.1995 49.8587C49.2615 49.7936 49.3211 49.7265 49.3783 49.6575C49.6864 49.2852 49.9587 48.8807 50.3001 48.5385L60.2818 38.5329C60.7008 38.1158 61.2048 37.9069 61.7956 37.9084C61.7967 37.9084 61.7975 37.9075 61.7975 37.9065C61.7975 37.9054 61.7984 37.9045 61.7995 37.9045C61.9399 37.9027 62.0785 37.9163 62.2152 37.9432C62.3544 37.9722 62.4878 38.0128 62.6173 38.065C62.7488 38.1192 62.8725 38.1868 62.9885 38.2642C63.1065 38.3434 63.2147 38.4324 63.3133 38.5329C63.4139 38.6315 63.5009 38.7417 63.5801 38.8577C63.6575 38.9757 63.7232 39.0994 63.7773 39.2309C63.8295 39.3604 63.8701 39.4957 63.8972 39.6349C63.9242 39.7719 63.9378 39.9127 63.9359 40.0535C63.9359 40.0541 63.9355 40.0545 63.9349 40.0545Z" fill="#0078D4"/>
</g>
</svg>
