<svg width="33" height="33" viewBox="0 0 33 33" fill="none" xmlns="http://www.w3.org/2000/svg">
<g clip-path="url(#clip0_1799_16922)">
<path d="M12.4997 11.4998H20.4997V8.83317C20.4997 7.72206 20.1108 6.77762 19.333 5.99984C18.5552 5.22206 17.6108 4.83317 16.4997 4.83317C15.3886 4.83317 14.4441 5.22206 13.6663 5.99984C12.8886 6.77762 12.4997 7.72206 12.4997 8.83317V11.4998ZM8.49967 30.1665C7.76634 30.1665 7.13879 29.9056 6.61701 29.3838C6.09523 28.8621 5.8339 28.2341 5.83301 27.4998V14.1665C5.83301 13.4332 6.09434 12.8056 6.61701 12.2838C7.13967 11.7621 7.76723 11.5007 8.49967 11.4998H9.83301V8.83317C9.83301 6.98873 10.4832 5.41673 11.7837 4.11717C13.0841 2.81762 14.6561 2.16739 16.4997 2.1665C18.3432 2.16562 19.9157 2.81584 21.217 4.11717C22.5183 5.41851 23.1681 6.9905 23.1663 8.83317V11.4998H24.4997C25.233 11.4998 25.861 11.7612 26.3837 12.2838C26.9063 12.8065 27.1672 13.4341 27.1663 14.1665V19.6332C26.9219 19.5887 26.6886 19.5554 26.4663 19.5332C26.2441 19.511 26.0108 19.4998 25.7663 19.4998C25.5441 19.4998 25.3277 19.511 25.117 19.5332C24.9063 19.5554 24.7006 19.5887 24.4997 19.6332V14.1665H8.49967V27.4998H19.2997C19.4108 28.0109 19.5663 28.4887 19.7663 28.9332C19.9663 29.3776 20.2219 29.7887 20.533 30.1665H8.49967ZM16.4997 23.4998C17.233 23.4998 17.861 23.239 18.3837 22.7172C18.9063 22.1954 19.1672 21.5674 19.1663 20.8332C19.1655 20.0989 18.9046 19.4714 18.3837 18.9505C17.8628 18.4296 17.2348 18.1683 16.4997 18.1665C15.7646 18.1647 15.137 18.4261 14.617 18.9505C14.097 19.475 13.8357 20.1025 13.833 20.8332C13.8303 21.5638 14.0917 22.1918 14.617 22.7172C15.1423 23.2425 15.7699 23.5034 16.4997 23.4998Z" fill="#1877F2"/>
<g clip-path="url(#clip1_1799_16922)">
<path d="M20.818 25.833C20.818 28.7832 23.2177 31.183 26.168 31.183C29.1182 31.183 31.518 28.7832 31.518 25.833C31.518 22.8828 29.1182 20.483 26.168 20.483C23.2177 20.483 20.818 22.8828 20.818 25.833ZM21.768 25.833C21.768 23.4057 23.7407 21.433 26.168 21.433C28.5952 21.433 30.568 23.4057 30.568 25.833C30.568 28.2603 28.5952 30.233 26.168 30.233C23.7407 30.233 21.768 28.2603 21.768 25.833Z" fill="#1877F2" stroke="#1877F2" stroke-width="0.2"/>
<path d="M25.043 26.583H24.293C24.083 26.583 23.918 26.418 23.918 26.208C23.918 25.998 24.083 25.833 24.293 25.833H25.043C25.6655 25.833 26.168 25.3305 26.168 24.708C26.168 24.0855 25.6655 23.583 25.043 23.583H24.293C24.083 23.583 23.918 23.418 23.918 23.208C23.918 22.998 24.083 22.833 24.293 22.833H25.043C25.5402 22.833 26.0172 23.0306 26.3688 23.3822C26.7204 23.7338 26.918 24.2107 26.918 24.708C26.918 25.2053 26.7204 25.6822 26.3688 26.0338C26.0172 26.3855 25.5402 26.583 25.043 26.583Z" fill="#1877F2"/>
<path d="M25.9955 28.773L26.0501 28.8568C26.2704 28.7131 26.3259 28.418 26.1842 28.2009L26.1842 28.2009L26.1837 28.2L24.6837 25.95L24.6837 25.95L24.6824 25.9482C24.6116 25.847 24.5041 25.7774 24.3827 25.7543C24.2614 25.7313 24.1358 25.7566 24.0328 25.8248C23.9298 25.893 23.8576 25.9988 23.8315 26.1196C23.8055 26.2403 23.8276 26.3665 23.8933 26.4712L23.8932 26.4712L23.8948 26.4735L25.3948 28.7235L25.3947 28.7235L25.7855 28.933H25.793V28.933C25.8807 28.9319 25.9661 28.9128 26.0509 28.8562L25.9955 28.773ZM25.9955 28.773C26.168 28.6605 26.213 28.428 26.1005 28.2555L25.793 28.833V28.833C25.865 28.832 25.9302 28.8165 25.9955 28.773ZM25.7855 28.8329V28.833L25.478 28.668C25.5514 28.7708 25.668 28.8305 25.7855 28.8329ZM24.293 25.183H28.043C28.3082 25.183 28.518 24.9732 28.518 24.708C28.518 24.4428 28.3082 24.233 28.043 24.233H24.293C24.0277 24.233 23.818 24.4428 23.818 24.708C23.818 24.9732 24.0277 25.183 24.293 25.183ZM24.293 23.683H28.043C28.3082 23.683 28.518 23.4732 28.518 23.208C28.518 22.9428 28.3082 22.733 28.043 22.733H24.293C24.0277 22.733 23.818 22.9428 23.818 23.208C23.818 23.4732 24.0277 23.683 24.293 23.683Z" fill="#1877F2" stroke="#1877F2" stroke-width="0.2"/>
</g>
</g>
<defs>
<clipPath id="clip0_1799_16922">
<rect width="32" height="32" fill="white" transform="translate(0.5 0.833008)"/>
</clipPath>
<clipPath id="clip1_1799_16922">
<rect width="12" height="12" fill="white" transform="translate(20.168 19.833)"/>
</clipPath>
</defs>
</svg>
