<svg width="18" height="19" viewBox="0 0 18 19" fill="none" xmlns="http://www.w3.org/2000/svg">
<path d="M15.5724 9.9076L16.7024 10.9139C16.9111 11.088 17.0505 11.3311 17.0954 11.5991C17.1404 11.8672 17.0878 12.1424 16.9474 12.3751L15.5849 14.7026C15.4792 14.8808 15.3282 15.0278 15.1474 15.1289C14.9644 15.2301 14.759 15.2838 14.5499 15.2851C14.4202 15.2859 14.2911 15.2665 14.1674 15.2276L12.7211 14.7501C12.4678 14.9126 12.2045 15.058 11.9311 15.1864L11.6274 16.6526C11.5712 16.9223 11.421 17.1633 11.2036 17.3326C10.9835 17.5049 10.7106 17.5959 10.4311 17.5901H7.60988C7.3304 17.5959 7.0575 17.5049 6.83738 17.3326C6.62048 17.1631 6.47077 16.9221 6.41488 16.6526L6.10988 15.1864C5.84013 15.0563 5.57841 14.9102 5.32613 14.7489L3.87488 15.2276C3.75114 15.2665 3.62209 15.2859 3.49238 15.2851C3.28371 15.2836 3.07872 15.2299 2.89613 15.1289C2.71543 15.0282 2.56451 14.8816 2.45863 14.7039L1.04738 12.3751C0.900669 12.1403 0.844609 11.8601 0.889712 11.587C0.934814 11.3138 1.07798 11.0665 1.29238 10.8914L2.42113 9.4651V9.0226L1.29113 8.01635C1.08246 7.84222 0.943035 7.59913 0.898094 7.33109C0.853153 7.06305 0.905668 6.78777 1.04613 6.5551L2.45738 4.2276C2.56309 4.04944 2.71402 3.90238 2.89488 3.80135C3.07747 3.70032 3.28246 3.6466 3.49113 3.6451C3.61968 3.63699 3.7487 3.6488 3.87363 3.6801L5.29613 4.1801C5.5503 4.0176 5.81363 3.87219 6.08613 3.74385L6.39113 2.2776C6.44701 2.00806 6.59673 1.7671 6.81363 1.5976C7.03375 1.42529 7.30665 1.33432 7.58613 1.3401H10.3836C10.6631 1.33432 10.936 1.42529 11.1561 1.5976C11.3749 1.76885 11.5249 2.0101 11.5786 2.2776L11.8836 3.74385C12.1545 3.87302 12.4157 4.01885 12.6674 4.18135L14.1199 3.70385C14.2811 3.65141 14.4514 3.633 14.6201 3.64978C14.7888 3.66657 14.9522 3.71818 15.0999 3.80135C15.2811 3.90385 15.4311 4.05135 15.5374 4.22635L16.9474 6.5551C17.0961 6.78788 17.155 7.06681 17.1131 7.33983C17.0713 7.61285 16.9315 7.86132 16.7199 8.03885L15.5724 9.01635V9.9076Z" stroke="#0078D4" stroke-width="1.5"/>
<path d="M12.125 9.46484C12.125 10.2936 11.7958 11.0885 11.2097 11.6746C10.6237 12.2606 9.8288 12.5898 9 12.5898C8.1712 12.5898 7.37634 12.2606 6.79029 11.6746C6.20424 11.0885 5.875 10.2936 5.875 9.46484C5.875 8.63604 6.20424 7.84119 6.79029 7.25514C7.37634 6.66908 8.1712 6.33984 9 6.33984C9.8288 6.33984 10.6237 6.66908 11.2097 7.25514C11.7958 7.84119 12.125 8.63604 12.125 9.46484Z" stroke="#0078D4" stroke-width="1.5"/>
</svg>
