<svg width="18" height="18" viewBox="0 0 18 18" fill="none" xmlns="http://www.w3.org/2000/svg">
<path d="M11.0517 13.7926L11.0968 13.4616L10.8083 13.2932L5.53953 10.2182L5.21753 10.0302L4.94553 10.2852C4.79186 10.4293 4.61325 10.5435 4.40578 10.6277C4.20673 10.7084 3.98999 10.7504 3.75083 10.75H3.75C3.25609 10.75 2.85247 10.5829 2.5098 10.2402C2.16714 9.89753 2 9.49391 2 9C2 8.50609 2.16714 8.10247 2.5098 7.7598C2.85247 7.41714 3.25609 7.25 3.75 7.25C3.98942 7.25 4.20645 7.2922 4.40578 7.37307C4.61353 7.45736 4.79229 7.57149 4.94602 7.71522L5.21797 7.9695L5.53953 7.78183L10.8083 4.70683L11.1437 4.51107L11.037 4.13764C11.0203 4.07906 11.0116 4.02854 11.0084 3.98531C11.0034 3.91838 11.0005 3.83978 11 3.74871C11.0003 3.25539 11.1674 2.85217 11.5098 2.5098C11.8525 2.16714 12.2561 2 12.75 2C13.2439 2 13.6475 2.16714 13.9902 2.5098C14.3329 2.85247 14.5 3.25609 14.5 3.75C14.5 4.24391 14.3329 4.64753 13.9902 4.9902C13.6475 5.33286 13.2439 5.5 12.75 5.5C12.5106 5.5 12.2935 5.4578 12.0942 5.37693C11.8865 5.29264 11.7077 5.17851 11.554 5.03478L11.282 4.7805L10.9605 4.96817L5.69172 8.04317L5.3563 8.23893L5.46299 8.61236C5.47989 8.67152 5.48899 8.72326 5.49258 8.76825C5.49775 8.83307 5.50045 8.90919 5.50001 8.99749C5.49955 9.08873 5.4968 9.16896 5.49212 9.23879C5.48937 9.27985 5.48116 9.32702 5.46491 9.38107L5.35153 9.75829L5.69172 9.95683L10.9605 13.0318L11.2825 13.2198L11.5545 12.9648C11.708 12.8209 11.8863 12.707 12.0935 12.6234L11.9062 12.1597L12.0935 12.6234C12.2931 12.5428 12.5105 12.5005 12.7503 12.5C13.2441 12.5001 13.6476 12.6672 13.9902 13.0098C14.3329 13.3525 14.5 13.7561 14.5 14.25C14.5 14.7439 14.3329 15.1475 13.9902 15.4902C13.6475 15.8329 13.2439 16 12.75 16C12.2561 16 11.8525 15.8329 11.5098 15.4902C11.1671 15.1475 11 14.7439 11 14.25V14.2501C11 14.2501 11 14.2472 11.0003 14.2406C11.0007 14.2338 11.0012 14.2245 11.0021 14.2124C11.0039 14.1881 11.0069 14.1562 11.0112 14.1158C11.0199 14.0349 11.0332 13.9277 11.0517 13.7926Z" stroke="#0078D4"/>
</svg>
