<svg width="16" height="17" viewBox="0 0 16 17" fill="none" xmlns="http://www.w3.org/2000/svg">
<path d="M5.77977 8.70458C6.29842 9.76492 7.15792 10.6205 8.2206 11.1343C8.29835 11.1712 8.38436 11.1871 8.47015 11.1806C8.55595 11.1741 8.63857 11.1454 8.7099 11.0973L10.2746 10.0539C10.3438 10.0078 10.4235 9.97961 10.5063 9.972C10.5891 9.96439 10.6725 9.97757 10.749 10.0103L13.6763 11.2649C13.7757 11.3071 13.8588 11.3805 13.9128 11.4741C13.9669 11.5676 13.9892 11.6762 13.9762 11.7834C13.8837 12.5074 13.5304 13.1729 12.9826 13.6552C12.4347 14.1375 11.7299 14.4036 11 14.4036C8.74566 14.4036 6.58365 13.5081 4.98959 11.914C3.39553 10.32 2.5 8.15797 2.5 5.90363C2.50004 5.17373 2.76612 4.46888 3.24843 3.92105C3.73073 3.37321 4.39618 3.01996 5.12019 2.92744C5.22745 2.91446 5.33602 2.93669 5.42955 2.99078C5.52307 3.04487 5.59649 3.12789 5.63873 3.22733L6.89439 6.15719C6.92687 6.23298 6.9401 6.31562 6.93291 6.39775C6.92572 6.47989 6.89833 6.55897 6.85318 6.62796L5.81341 8.21669C5.76608 8.28816 5.7381 8.37068 5.73221 8.4562C5.72631 8.54171 5.7427 8.62729 5.77977 8.70458V8.70458Z" stroke="#454B53" stroke-linecap="round" stroke-linejoin="round"/>
</svg>
