<svg width="22" height="16" viewBox="0 0 22 16" fill="none" xmlns="http://www.w3.org/2000/svg">
<path d="M20.1949 0.556641H2.19495C1.79712 0.556641 1.41559 0.714676 1.13429 0.99598C0.852981 1.27728 0.694946 1.65882 0.694946 2.05664V14.0566C0.694946 14.4545 0.852981 14.836 1.13429 15.1173C1.41559 15.3986 1.79712 15.5566 2.19495 15.5566H20.1949C20.5928 15.5566 20.9743 15.3986 21.2556 15.1173C21.5369 14.836 21.6949 14.4545 21.6949 14.0566V2.05664C21.6949 1.65882 21.5369 1.27728 21.2556 0.99598C20.9743 0.714676 20.5928 0.556641 20.1949 0.556641ZM18.5449 2.05664L11.1949 7.14164L3.84495 2.05664H18.5449ZM2.19495 14.0566V2.73914L10.7674 8.67164C10.893 8.75874 11.0421 8.80541 11.1949 8.80541C11.3477 8.80541 11.4969 8.75874 11.6224 8.67164L20.1949 2.73914V14.0566H2.19495Z" fill="#8C96A1"/>
</svg>
