<svg width="25" height="25" viewBox="0 0 25 25" fill="none" xmlns="http://www.w3.org/2000/svg">
<path d="M5.5 9.83285V6.83285C5.5 6.56767 5.60534 6.31336 5.79285 6.12585C5.98035 5.93835 6.23467 5.83301 6.49984 5.83301H18.4998C18.765 5.83301 19.0193 5.93835 19.2068 6.12585C19.3943 6.31336 19.4997 6.56767 19.4997 6.83285V9.83285M5.5 19.8327V17.833M19.4997 19.8327V17.833" stroke="#0078D4" stroke-linecap="round" stroke-linejoin="round"/>
<path d="M21.5002 11.8331V15.8329C21.5002 16.0956 21.4485 16.3557 21.348 16.5983C21.2474 16.841 21.1001 17.0615 20.9144 17.2472C20.7287 17.433 20.5082 17.5803 20.2655 17.6808C20.0228 17.7813 19.7627 17.8331 19.5001 17.8331H5.50038C5.23772 17.8331 4.97762 17.7813 4.73495 17.6808C4.49228 17.5803 4.27179 17.433 4.08605 17.2472C3.90032 17.0615 3.75299 16.841 3.65247 16.5983C3.55196 16.3557 3.50022 16.0956 3.50022 15.8329V11.8331C3.49586 11.5392 3.55634 11.2479 3.67736 10.9801C3.79837 10.7122 3.97696 10.4743 4.20039 10.2833C4.42382 10.0924 4.6866 9.95298 4.97004 9.87513C5.25347 9.79728 5.55058 9.78287 5.84022 9.83292C6.32262 9.9298 6.75469 10.1954 7.05889 10.5822C7.3631 10.9689 7.51951 11.4514 7.50006 11.943V13.8328H17.5004V11.943C17.4809 11.4514 17.6373 10.9689 17.9415 10.5822C18.2458 10.1954 18.6778 9.9298 19.1602 9.83292C19.4498 9.78304 19.7469 9.79758 20.0302 9.8755C20.3136 9.95342 20.5763 10.0928 20.7997 10.2838C21.0231 10.4747 21.2017 10.7125 21.3227 10.9803C21.4438 11.2481 21.5044 11.5392 21.5002 11.8331Z" stroke="#0078D4" stroke-linecap="round" stroke-linejoin="round"/>
</svg>
