<svg width="24" height="25" viewBox="0 0 24 25" fill="none" xmlns="http://www.w3.org/2000/svg">
<path fill-rule="evenodd" clip-rule="evenodd" d="M9.00082 7.21582C8.80191 7.21582 8.61115 7.1368 8.47049 6.99615C8.32984 6.8555 8.25082 6.66473 8.25082 6.46582C8.25082 6.26691 8.32984 6.07614 8.47049 5.93549C8.61115 5.79484 8.80191 5.71582 9.00082 5.71582H18.0008C18.1997 5.71582 18.3905 5.79484 18.5312 5.93549C18.6718 6.07614 18.7508 6.26691 18.7508 6.46582V15.4658C18.7508 15.6647 18.6718 15.8555 18.5312 15.9962C18.3905 16.1368 18.1997 16.2158 18.0008 16.2158C17.8019 16.2158 17.6111 16.1368 17.4705 15.9962C17.3298 15.8555 17.2508 15.6647 17.2508 15.4658V8.27582L6.53082 18.9958C6.38865 19.1283 6.2006 19.2004 6.0063 19.197C5.812 19.1936 5.62661 19.1149 5.4892 18.9774C5.35179 18.84 5.27308 18.6546 5.26965 18.4603C5.26622 18.266 5.33834 18.078 5.47082 17.9358L16.1908 7.21582H9.00082Z" fill="#0066CC" style="fill:#0066CC;fill:color(display-p3 0.0000 0.4000 0.8000);fill-opacity:1;"/>
</svg>
