<svg width="25" height="25" viewBox="0 0 25 25" fill="none" xmlns="http://www.w3.org/2000/svg">
<path fill-rule="evenodd" clip-rule="evenodd" d="M9.50082 7.3252C9.30191 7.3252 9.11115 7.24618 8.97049 7.10553C8.82984 6.96487 8.75082 6.77411 8.75082 6.5752C8.75082 6.37628 8.82984 6.18552 8.97049 6.04487C9.11115 5.90421 9.30191 5.8252 9.50082 5.8252H18.5008C18.6997 5.8252 18.8905 5.90421 19.0312 6.04487C19.1718 6.18552 19.2508 6.37628 19.2508 6.5752V15.5752C19.2508 15.7741 19.1718 15.9649 19.0312 16.1055C18.8905 16.2462 18.6997 16.3252 18.5008 16.3252C18.3019 16.3252 18.1111 16.2462 17.9705 16.1055C17.8298 15.9649 17.7508 15.7741 17.7508 15.5752V8.3852L7.03082 19.1052C6.88865 19.2377 6.7006 19.3098 6.5063 19.3064C6.312 19.3029 6.12661 19.2242 5.9892 19.0868C5.85179 18.9494 5.77308 18.764 5.76965 18.5697C5.76622 18.3754 5.83834 18.1874 5.97082 18.0452L16.6908 7.3252H9.50082Z" fill="#F58220"/>
</svg>
