<svg width="25" height="25" viewBox="0 0 25 25" fill="none" xmlns="http://www.w3.org/2000/svg">
<path fill-rule="evenodd" clip-rule="evenodd" d="M9.50082 7.15845C9.30191 7.15845 9.11115 7.07943 8.97049 6.93878C8.82984 6.79813 8.75082 6.60736 8.75082 6.40845C8.75082 6.20953 8.82984 6.01877 8.97049 5.87812C9.11115 5.73746 9.30191 5.65845 9.50082 5.65845H18.5008C18.6997 5.65845 18.8905 5.73746 19.0312 5.87812C19.1718 6.01877 19.2508 6.20953 19.2508 6.40845V15.4084C19.2508 15.6074 19.1718 15.7981 19.0312 15.9388C18.8905 16.0794 18.6997 16.1584 18.5008 16.1584C18.3019 16.1584 18.1111 16.0794 17.9705 15.9388C17.8298 15.7981 17.7508 15.6074 17.7508 15.4084V8.21845L7.03082 18.9384C6.88865 19.0709 6.7006 19.1431 6.5063 19.1396C6.312 19.1362 6.12661 19.0575 5.9892 18.9201C5.85179 18.7827 5.77308 18.5973 5.76965 18.403C5.76622 18.2087 5.83834 18.0206 5.97082 17.8784L16.6908 7.15845H9.50082Z" fill="#1E90FF" style="fill:#1E90FF;fill:color(display-p3 0.1176 0.5647 1.0000);fill-opacity:1;"/>
</svg>
