<svg width="64" height="65" viewBox="0 0 64 65" fill="none" xmlns="http://www.w3.org/2000/svg">
<rect y="0.77832" width="64" height="64" rx="32" fill="#FFEFEA"/>
<path d="M19.4327 38.2338H14.759C13.8243 38.2338 13.2012 37.6107 13.2012 36.676V24.9919L22.5484 17.9814L38.1272 29.6655M36.5693 42.9075H20.9906C20.0558 42.9075 19.4327 42.2843 19.4327 41.3496V29.6655L35.0114 17.9814L44.3587 24.9919V33.4001" stroke="#F24E1E" stroke-width="2" stroke-linecap="round" stroke-linejoin="round"/>
<path d="M25.6621 42.9068V33.5596H31.8936V42.9068" stroke="#F24E1E" stroke-width="2" stroke-linecap="round" stroke-linejoin="round"/>
<path d="M47.0095 40.7204L47.156 40.8672L52.0444 45.7654L52.3973 46.1189L52.0441 46.4721L50.5844 47.9318L50.2312 48.285L49.8777 47.9321L44.9795 43.0437L44.8327 42.8972V42.6898V42.4553C43.7209 43.2278 42.3722 43.6796 40.9243 43.6796C39.566 43.6796 38.2382 43.2769 37.1088 42.5222C35.9795 41.7676 35.0992 40.695 34.5794 39.4401C34.0596 38.1852 33.9236 36.8044 34.1886 35.4722C34.4536 34.14 35.1077 32.9163 36.0681 31.9558C37.0286 30.9954 38.2523 30.3413 39.5845 30.0763C40.9167 29.8113 42.2975 29.9473 43.5524 30.4671C44.8073 30.9869 45.8799 31.8671 46.6345 32.9965C47.3891 34.1258 47.7919 35.4534 47.7919 36.8116C47.7919 36.8117 47.7919 36.8119 47.7919 36.812H47.2919C47.2931 38.3331 46.7472 39.8039 45.7539 40.9559L47.0095 40.7204ZM47.0095 40.7204H46.8021H46.5684H47.0095ZM40.9243 40.7204C38.7611 40.7204 37.0159 38.9751 37.0159 36.812C37.0159 34.6488 38.7611 32.9036 40.9243 32.9036C43.0874 32.9036 44.8327 34.6488 44.8327 36.812C44.8327 38.9751 43.0874 40.7204 40.9243 40.7204Z" fill="#F24E1E" stroke="#FFEEEA"/>
</svg>
