<svg width="25" height="24" viewBox="0 0 25 24" fill="none" xmlns="http://www.w3.org/2000/svg">
<mask id="mask0_3652_25258" style="mask-type:luminance" maskUnits="userSpaceOnUse" x="0" y="0" width="25" height="24">
<path d="M0.477539 0.511719H24.4775V23.4883H0.477539V0.511719Z" fill="white"/>
</mask>
<g mask="url(#mask0_3652_25258)">
<path d="M24.0983 8.91059L12.9877 0.71412C12.6825 0.488426 12.2725 0.488715 11.9672 0.713831L7.78606 3.79861V1.54919C7.78606 1.17564 7.48195 0.871817 7.10839 0.871817H5.12547C4.75162 0.871817 4.44752 1.17564 4.44752 1.54919V6.26157L0.85579 8.91117C0.66829 9.04948 0.547341 9.25289 0.515223 9.48351C0.483105 9.71441 0.543869 9.943 0.68652 10.1273L1.60405 11.3134C1.88762 11.6797 2.42089 11.7543 2.79387 11.4792L3.3772 11.0489V19.9433C3.3772 20.77 4.04995 21.4421 4.87633 21.4421H17.0271L18.4232 22.8377C18.8425 23.2572 19.4004 23.4881 19.9938 23.4881C20.5867 23.4881 21.1446 23.2572 21.5638 22.8377C21.9834 22.4187 22.2143 21.8614 22.2143 21.2679C22.2143 20.6823 21.9872 20.1325 21.5774 19.7153V11.0524L22.1558 11.4792C22.3109 11.5935 22.49 11.649 22.6677 11.649C22.9229 11.649 23.1744 11.5341 23.3448 11.3151L24.2667 10.1282C24.4099 9.94387 24.471 9.71499 24.4391 9.4838C24.407 9.2526 24.2861 9.04919 24.0983 8.91059ZM22.6379 10.8267L12.9877 3.70747C12.8352 3.59462 12.6561 3.53848 12.4776 3.53848C12.2988 3.53848 12.12 3.59462 11.9672 3.70718L2.31181 10.8264C2.29127 10.8417 2.26204 10.8374 2.24613 10.8171L1.31875 9.59549C1.32078 9.58247 1.32686 9.57205 1.33756 9.56395L12.4493 1.36661C12.4663 1.35446 12.4886 1.35388 12.5057 1.36661L23.6165 9.56337L23.6255 9.63079L22.7039 10.8177C22.6877 10.8383 22.659 10.8417 22.6379 10.8267ZM5.25915 1.68316H6.97471V4.39728L5.25915 5.66291V1.68316ZM21.4027 21.2679C21.4027 21.6444 21.2563 21.998 20.99 22.2642C20.4576 22.7966 19.5297 22.7966 18.997 22.2642L15.4637 18.7323C15.8636 18.4928 16.2432 18.2075 16.5876 17.8634C16.9284 17.5229 17.2155 17.1438 17.4579 16.7416L20.99 20.2723C21.2563 20.5385 21.4027 20.8921 21.4027 21.2679ZM16.0138 17.2899C14.0638 19.2396 10.8905 19.2396 8.94057 17.2899C7.99584 16.3458 7.47558 15.09 7.47558 13.7549C7.47558 12.4193 7.99584 11.1638 8.94057 10.2196C9.9154 9.24508 11.1964 8.75752 12.477 8.75752C13.7577 8.75752 15.0387 9.24508 16.0138 10.2196C16.9582 11.1638 17.4788 12.4193 17.4788 13.7549C17.4788 15.09 16.9582 16.3458 16.0138 17.2899ZM20.7661 18.901L17.8483 15.9847C18.1379 15.287 18.2901 14.5327 18.2901 13.7549C18.2901 12.2025 17.6854 10.7433 16.5876 9.64612C14.3211 7.37992 10.633 7.3805 8.36679 9.64612C7.2687 10.7433 6.66395 12.2025 6.66395 13.7549C6.66395 15.3067 7.2687 16.7659 8.36679 17.8634C9.49989 18.9962 10.9883 19.5628 12.477 19.5628C13.2351 19.5628 13.9927 19.4141 14.7039 19.1201L16.2157 20.6311H4.87633C4.49728 20.6311 4.18883 20.3226 4.18883 19.9433V10.4505L12.4493 4.35995C12.4663 4.3478 12.4886 4.34722 12.5057 4.35995L20.7661 10.4537V18.901Z" fill="#0078D4"/>
</g>
</svg>
