<svg width="24" height="25" viewBox="0 0 24 25" fill="none" xmlns="http://www.w3.org/2000/svg">
<g id="proicons:star">
<path id="Vector" d="M10.7046 5.20375C10.8366 4.97714 11.0258 4.78912 11.2532 4.65844C11.4806 4.52775 11.7383 4.45898 12.0006 4.45898C12.2628 4.45898 12.5205 4.52775 12.7479 4.65844C12.9753 4.78912 13.1645 4.97714 13.2966 5.20375L15.1146 8.32375C15.2192 8.50382 15.3602 8.66013 15.5286 8.78271C15.697 8.90529 15.889 8.99147 16.0926 9.03575L19.6226 9.79975C19.8788 9.85546 20.1159 9.97736 20.3103 10.1533C20.5048 10.3292 20.6497 10.5531 20.7306 10.8025C20.8115 11.0519 20.8257 11.3181 20.7716 11.5747C20.7176 11.8313 20.5972 12.0692 20.4226 12.2647L18.0176 14.9577C17.8788 15.113 17.7739 15.2954 17.7095 15.4934C17.6451 15.6914 17.6227 15.9006 17.6436 16.1077L18.0066 19.7007C18.033 19.9617 17.9906 20.2251 17.8834 20.4646C17.7763 20.704 17.6083 20.9112 17.3961 21.0654C17.1838 21.2196 16.9349 21.3155 16.6741 21.3435C16.4132 21.3714 16.1496 21.3305 15.9096 21.2247L12.6056 19.7687C12.4149 19.6847 12.2089 19.6413 12.0006 19.6413C11.7922 19.6413 11.5862 19.6847 11.3956 19.7687L8.09156 21.2247C7.85149 21.3305 7.58788 21.3714 7.32705 21.3435C7.06622 21.3155 6.81728 21.2196 6.60507 21.0654C6.39286 20.9112 6.22481 20.704 6.11769 20.4646C6.01056 20.2251 5.96811 19.9617 5.99456 19.7007L6.35756 16.1077C6.37858 15.9007 6.35627 15.6915 6.29205 15.4935C6.22783 15.2955 6.12312 15.1131 5.98456 14.9577L3.57856 12.2647C3.40389 12.0692 3.28353 11.8313 3.22948 11.5747C3.17543 11.3181 3.18958 11.0519 3.27052 10.8025C3.35146 10.5531 3.49637 10.3292 3.69078 10.1533C3.8852 9.97736 4.12234 9.85546 4.37856 9.79975L7.90856 9.03575C8.11217 8.99171 8.30437 8.90575 8.47293 8.78334C8.64148 8.66092 8.78269 8.50474 8.88756 8.32475L10.7046 5.20375Z" stroke="black" stroke-width="2" stroke-linecap="round" stroke-linejoin="round"/>
</g>
</svg>
