<svg width="49" height="49" viewBox="0 0 49 49" fill="none" xmlns="http://www.w3.org/2000/svg">
<path d="M0.589844 4.04101C0.589844 1.83188 2.3807 0.0410156 4.58984 0.0410156H44.5898C46.799 0.0410156 48.5898 1.83188 48.5898 4.04102V48.041H4.58984C2.3807 48.041 0.589844 46.2502 0.589844 44.041V4.04101Z" fill="#ECF7FF"/>
<mask id="mask0_3652_25256" style="mask-type:luminance" maskUnits="userSpaceOnUse" x="12" y="12" width="25" height="24">
<path d="M12.5898 12.5527H36.5898V35.5293H12.5898V12.5527Z" fill="white"/>
</mask>
<g mask="url(#mask0_3652_25256)">
<path d="M36.2106 20.9516L25.1 12.7551C24.7948 12.5294 24.3848 12.5297 24.0795 12.7548L19.8984 15.8396V13.5902C19.8984 13.2167 19.5943 12.9128 19.2207 12.9128H17.2378C16.8639 12.9128 16.5598 13.2167 16.5598 13.5902V18.3026L12.9681 20.9522C12.7806 21.0905 12.6596 21.2939 12.6275 21.5245C12.5954 21.7554 12.6562 21.984 12.7988 22.1683L13.7164 23.3544C13.9999 23.7207 14.5332 23.7954 14.9062 23.5202L15.4895 23.0899V31.9843C15.4895 32.811 16.1623 33.4831 16.9886 33.4831H29.1394L30.5355 34.8787C30.9548 35.2983 31.5127 35.5292 32.1061 35.5292C32.699 35.5292 33.2569 35.2983 33.6761 34.8787C34.0957 34.4597 34.3266 33.9024 34.3266 33.309C34.3266 32.7233 34.0995 32.1735 33.6897 31.7563V23.0934L34.2682 23.5202C34.4232 23.6345 34.6024 23.69 34.78 23.69C35.0352 23.69 35.2867 23.5752 35.4571 23.3561L36.379 22.1692C36.5222 21.9849 36.5833 21.756 36.5514 21.5248C36.5193 21.2936 36.3984 21.0902 36.2106 20.9516ZM34.7502 22.8677L25.1 15.7485C24.9476 15.6356 24.7684 15.5795 24.5899 15.5795C24.4111 15.5795 24.2323 15.6356 24.0795 15.7482L14.4241 22.8674C14.4036 22.8827 14.3743 22.8784 14.3584 22.8581L13.4311 21.6365C13.4331 21.6235 13.4392 21.6131 13.4499 21.605L24.5616 13.4076C24.5786 13.3955 24.6009 13.3949 24.618 13.4076L35.7288 21.6044L35.7378 21.6718L34.8162 22.8587C34.8 22.8793 34.7713 22.8827 34.7502 22.8677ZM17.3715 13.7242H19.087V16.4383L17.3715 17.7039V13.7242ZM33.515 33.309C33.515 33.6854 33.3686 34.039 33.1024 34.3052C32.5699 34.8376 31.642 34.8376 31.1093 34.3052L27.576 30.7734C27.9759 30.5338 28.3555 30.2485 28.6999 29.9044C29.0407 29.5639 29.3278 29.1848 29.5702 28.7826L33.1024 32.3133C33.3686 32.5795 33.515 32.9331 33.515 33.309ZM28.1261 29.3309C26.1761 31.2806 23.0028 31.2806 21.0529 29.3309C20.1081 28.3868 19.5879 27.131 19.5879 25.7959C19.5879 24.4603 20.1081 23.2048 21.0529 22.2606C22.0277 21.2861 23.3087 20.7985 24.5893 20.7985C25.87 20.7985 27.151 21.2861 28.1261 22.2606C29.0705 23.2048 29.5911 24.4603 29.5911 25.7959C29.5911 27.131 29.0705 28.3868 28.1261 29.3309ZM32.8784 30.9421L29.9606 28.0257C30.2502 27.3281 30.4024 26.5737 30.4024 25.7959C30.4024 24.2436 29.7977 22.7844 28.6999 21.6871C26.4334 19.4209 22.7453 19.4215 20.4791 21.6871C19.381 22.7844 18.7763 24.2436 18.7763 25.7959C18.7763 27.3477 19.381 28.8069 20.4791 29.9044C21.6122 31.0373 23.1006 31.6038 24.5893 31.6038C25.3474 31.6038 26.105 31.4551 26.8162 31.1611L28.328 32.6721H16.9886C16.6096 32.6721 16.3011 32.3636 16.3011 31.9843V22.4915L24.5616 16.401C24.5786 16.3888 24.6009 16.3882 24.618 16.401L32.8784 22.4947V30.9421Z" fill="#0078D4"/>
</g>
</svg>
