<svg width="20" height="20" viewBox="0 0 20 20" fill="none" xmlns="http://www.w3.org/2000/svg">
<g id="streamline:industry-innovation-and-infrastructure">
<g id="Group">
<path id="Vector" d="M0.927734 16.7057V11.5343L5.45202 9.5957L9.97631 11.5357V16.7057L5.45202 18.6428L0.927734 16.7057Z" stroke="#60798C" stroke-width="1.2" stroke-linecap="round" stroke-linejoin="round"/>
<path id="Vector_2" d="M0.927734 11.5233L5.45202 13.4618L9.97631 11.5233M5.45202 4.45898L9.97488 6.39898L14.4992 4.46041" stroke="#60798C" stroke-width="1.2" stroke-linecap="round" stroke-linejoin="round"/>
<path id="Vector_3" d="M9.97461 11.5234L14.4989 13.462L19.0232 11.5234" stroke="#60798C" stroke-width="1.2" stroke-linecap="round" stroke-linejoin="round"/>
<path id="Vector_4" d="M5.45117 13.4653V18.6439M14.5012 13.4653V18.6439M9.97403 6.39956V11.5767M5.45403 9.59242V4.42099L9.97689 2.48242L14.5012 4.42099V9.59242L9.97689 11.531L5.45403 9.59242ZM9.97403 16.7053V11.5339L14.4983 9.59528L19.0226 11.5353V16.7053L14.4983 18.6424L9.97403 16.7053Z" stroke="#60798C" stroke-width="1.2" stroke-linecap="round" stroke-linejoin="round"/>
</g>
</g>
</svg>
