<svg width="150" height="104" viewBox="0 0 150 104" fill="none" xmlns="http://www.w3.org/2000/svg">
<mask id="mask0_4174_23664" style="mask-type:luminance" maskUnits="userSpaceOnUse" x="116" y="77" width="34" height="25">
<path d="M116.499 77.0391H149.999V101.48H116.499V77.0391Z" fill="white"/>
</mask>
<g mask="url(#mask0_4174_23664)">
<path d="M149.875 100.6H138.078C138.012 100.6 137.957 100.544 137.957 100.477C137.957 100.409 138.012 100.353 138.078 100.353H149.75V77.6744H116.875C116.809 77.6744 116.754 77.6187 116.754 77.5511C116.754 77.4834 116.809 77.4277 116.875 77.4277H149.875C149.941 77.4277 149.996 77.4834 149.996 77.5511V100.477C150 100.544 149.945 100.6 149.875 100.6Z" fill="#222222"/>
</g>
<path d="M134.369 99.511C134.49 99.8054 134.549 100.112 134.549 100.43C134.549 100.748 134.49 101.054 134.369 101.345C134.252 101.639 134.084 101.898 133.861 102.125C133.643 102.347 133.389 102.522 133.104 102.642C132.814 102.765 132.518 102.825 132.205 102.825C131.896 102.825 131.596 102.765 131.311 102.642C131.021 102.522 130.768 102.347 130.549 102.125C130.33 101.898 130.158 101.639 130.041 101.345C129.92 101.054 129.861 100.748 129.861 100.43C129.861 100.112 129.92 99.8054 130.041 99.511C130.158 99.2206 130.33 98.962 130.549 98.7353C130.768 98.5125 131.021 98.3375 131.311 98.2181C131.596 98.0948 131.896 98.0352 132.205 98.0352C132.518 98.0352 132.814 98.0948 133.104 98.2181C133.389 98.3375 133.643 98.5125 133.861 98.7353C134.084 98.962 134.252 99.2206 134.369 99.511Z" fill="#E2EAFF"/>
<path d="M126.717 98.7392C126.936 98.9659 127.103 99.2245 127.225 99.5189C127.342 99.8093 127.4 100.116 127.4 100.434C127.4 100.752 127.342 101.058 127.225 101.349C127.103 101.643 126.936 101.902 126.717 102.129C126.494 102.351 126.24 102.526 125.955 102.646C125.666 102.769 125.369 102.829 125.057 102.829C124.748 102.829 124.447 102.769 124.162 102.646C123.873 102.526 123.619 102.351 123.4 102.129C123.182 101.902 123.01 101.643 122.893 101.353C122.775 101.058 122.713 100.752 122.713 100.434C122.713 100.116 122.775 99.8093 122.893 99.5189C123.01 99.2245 123.182 98.9659 123.4 98.7392C123.619 98.5164 123.873 98.3414 124.162 98.2221C124.447 98.0987 124.748 98.0391 125.057 98.0391C125.369 98.0391 125.666 98.0987 125.955 98.2221C126.24 98.3414 126.494 98.5164 126.717 98.7392Z" fill="#E2EAFF"/>
<path d="M117.932 98.1144C118.236 98.186 118.514 98.3173 118.764 98.5042C119.018 98.6872 119.225 98.918 119.389 99.1885C119.553 99.459 119.658 99.7494 119.709 100.064C119.756 100.378 119.748 100.688 119.674 100.998C119.603 101.305 119.478 101.591 119.295 101.846C119.115 102.104 118.889 102.319 118.627 102.486C118.361 102.649 118.076 102.761 117.768 102.812C117.463 102.86 117.158 102.852 116.853 102.777C116.553 102.705 116.275 102.574 116.021 102.391C115.771 102.204 115.564 101.977 115.4 101.707C115.236 101.436 115.131 101.142 115.08 100.831C115.029 100.517 115.041 100.207 115.111 99.8966C115.186 99.5863 115.311 99.3038 115.494 99.0453C115.674 98.7867 115.896 98.5758 116.162 98.4088C116.428 98.2417 116.713 98.1303 117.018 98.0826C117.326 98.0309 117.631 98.0428 117.932 98.1144Z" fill="#E2EAFF"/>
<mask id="mask1_4174_23664" style="mask-type:luminance" maskUnits="userSpaceOnUse" x="47" y="61" width="103" height="7">
<path d="M47.5 61.7617H150V67.872H47.5V61.7617Z" fill="white"/>
</mask>
<g mask="url(#mask1_4174_23664)">
<path d="M148.476 62.1543H52.1015L48.1211 62.7271V64.203C48.1211 65.9772 49.5703 67.4133 51.3633 67.4133H146.632C148.421 67.4133 149.875 65.9732 149.875 64.203V63.0255L148.476 62.1543Z" fill="white"/>
</g>
<mask id="mask2_4174_23664" style="mask-type:luminance" maskUnits="userSpaceOnUse" x="47" y="0" width="103" height="64">
<path d="M47.5 0.722656H150V63.7987H47.5V0.722656Z" fill="white"/>
</mask>
<g mask="url(#mask2_4174_23664)">
<path d="M149.875 62.8951H48.1211V4.15516C48.1211 2.33719 49.5664 0.861328 51.3476 0.861328H146.652C148.433 0.861328 149.875 2.33719 149.875 4.15516V62.8951Z" fill="white"/>
<path d="M149.875 63.0167H48.1211C48.0586 63.0167 48.0039 62.961 48.0039 62.8934V4.15348C48.0039 2.27186 49.5039 0.736328 51.3476 0.736328H146.652C148.492 0.736328 149.996 2.27186 149.996 4.15348V62.8934C149.996 62.961 149.941 63.0167 149.875 63.0167ZM48.2422 62.7701H149.753V4.15348C149.753 2.40711 148.359 0.982967 146.652 0.982967H51.3476C49.6367 0.982967 48.2422 2.40711 48.2422 4.15348V62.7701Z" fill="#222222"/>
</g>
<path d="M145.522 5.30469V58.4435H52.4756V5.30469H145.522Z" fill="white"/>
<path d="M145.519 58.5671H52.4727C52.4063 58.5671 52.3516 58.5114 52.3516 58.4478V5.30098C52.3516 5.23733 52.4063 5.18164 52.4727 5.18164H145.519C145.586 5.18164 145.64 5.23733 145.64 5.30098V58.4398C145.644 58.5114 145.589 58.5671 145.519 58.5671ZM52.5898 58.3245H145.398V5.4243H52.5898V58.3245Z" fill="#222222"/>
<mask id="mask3_4174_23664" style="mask-type:luminance" maskUnits="userSpaceOnUse" x="47" y="63" width="103" height="5">
<path d="M47.5 63.8008H150V67.8743H47.5V63.8008Z" fill="white"/>
</mask>
<g mask="url(#mask3_4174_23664)">
<path d="M146.632 67.5408H51.3633C49.5117 67.5408 48.0039 66.0012 48.0039 64.1077C48.0039 64.0401 48.0586 63.9844 48.1211 63.9844C48.1875 63.9844 48.2422 64.0401 48.2422 64.1077C48.2422 65.866 49.6406 67.2941 51.3633 67.2941H146.632C148.355 67.2941 149.753 65.866 149.753 64.1077C149.753 64.0401 149.808 63.9844 149.875 63.9844C149.941 63.9844 149.996 64.0401 149.996 64.1077C149.996 66.0012 148.488 67.5408 146.632 67.5408Z" fill="#222222"/>
</g>
<path d="M114.835 77.4686H83.1514C81.6435 77.4686 80.4209 76.2194 80.4209 74.676V67.416H117.569V74.676C117.569 76.2194 116.343 77.4686 114.835 77.4686Z" fill="white"/>
<path d="M114.836 77.5902H83.1523C81.582 77.5902 80.3008 76.2814 80.3008 74.6743V67.4143C80.3008 67.3467 80.3555 67.291 80.4219 67.291H117.57C117.633 67.291 117.687 67.3467 117.687 67.4143V74.6743C117.687 76.2774 116.41 77.5902 114.836 77.5902ZM80.543 67.5377V74.6743C80.543 76.1501 81.7109 77.3436 83.1523 77.3436H114.836C116.281 77.3436 117.449 76.1501 117.449 74.6743V67.5377H80.543Z" fill="#222222"/>
<path d="M116.187 69.9009H81.8086C81.7461 69.9009 81.6914 69.8452 81.6914 69.7776C81.6914 69.71 81.7461 69.6543 81.8086 69.6543H116.187C116.254 69.6543 116.308 69.71 116.308 69.7776C116.308 69.8452 116.254 69.9009 116.187 69.9009Z" fill="#222222"/>
<path d="M138.949 29.9946H110.156C108.875 29.9946 107.84 28.9325 107.84 27.6277V23.8962C107.84 22.5875 108.875 21.5293 110.156 21.5293H138.949C140.226 21.5293 141.265 22.5875 141.265 23.8962V27.6277C141.265 28.9325 140.226 29.9946 138.949 29.9946Z" fill="#5479F7"/>
<path d="M124.551 27.9292C124.484 27.9292 124.43 27.8695 124.43 27.8058V23.6448C124.43 23.5772 124.484 23.5215 124.551 23.5215C124.617 23.5215 124.672 23.5772 124.672 23.6448V27.8058C124.672 27.8695 124.617 27.9292 124.551 27.9292Z" fill="white"/>
<path d="M125.43 24.632C125.398 24.632 125.371 24.6201 125.344 24.6002L124.551 23.7887L123.758 24.6002C123.711 24.6479 123.633 24.6479 123.59 24.6002C123.539 24.5485 123.539 24.4729 123.59 24.4251L124.469 23.5221C124.492 23.4983 124.523 23.4863 124.555 23.4863C124.59 23.4863 124.617 23.4983 124.645 23.5221L125.523 24.4212C125.574 24.4729 125.574 24.5485 125.523 24.5922C125.492 24.6161 125.457 24.632 125.43 24.632Z" fill="white"/>
<path d="M125.492 27.9888H123.613C123.547 27.9888 123.492 27.9331 123.492 27.8655C123.492 27.7979 123.547 27.7422 123.613 27.7422H125.492C125.555 27.7422 125.609 27.7979 125.609 27.8655C125.609 27.9331 125.555 27.9888 125.492 27.9888Z" fill="white"/>
<path d="M101.059 33.5728H90.7109C90.6445 33.5728 90.5898 33.5171 90.5898 33.4495C90.5898 33.3819 90.6445 33.3262 90.7109 33.3262H101.059C101.125 33.3262 101.18 33.3819 101.18 33.4495C101.18 33.5171 101.125 33.5728 101.059 33.5728Z" fill="#222222"/>
<path d="M121.655 33.5728H111.308C111.241 33.5728 111.187 33.5171 111.187 33.4495C111.187 33.3819 111.241 33.3262 111.308 33.3262H121.655C121.722 33.3262 121.776 33.3819 121.776 33.4495C121.776 33.5171 121.722 33.5728 121.655 33.5728Z" fill="#222222"/>
<path d="M141.266 33.5728H130.918C130.852 33.5728 130.797 33.5171 130.797 33.4495C130.797 33.3819 130.852 33.3262 130.918 33.3262H141.266C141.328 33.3262 141.383 33.3819 141.383 33.4495C141.383 33.5171 141.336 33.5728 141.266 33.5728Z" fill="#222222"/>
<path d="M97.1718 48.9124C97.1718 49.3738 97.0859 49.8194 96.914 50.245C96.7383 50.6707 96.4922 51.0486 96.1718 51.3748C95.8515 51.701 95.4804 51.9516 95.0625 52.1266C94.6445 52.3056 94.207 52.3932 93.7539 52.3932C93.3008 52.3932 92.8633 52.3056 92.4453 52.1266C92.0273 51.9516 91.6562 51.701 91.3359 51.3748C91.0156 51.0486 90.7656 50.6707 90.5937 50.245C90.4219 49.8194 90.332 49.3738 90.332 48.9124C90.332 48.4509 90.4219 48.0093 90.5937 47.5797C90.7656 47.1541 91.0156 46.7801 91.3359 46.4539C91.6562 46.1277 92.0273 45.8771 92.4453 45.6981C92.8633 45.5231 93.3008 45.4355 93.7539 45.4355C94.207 45.4355 94.6445 45.5231 95.0625 45.6981C95.4804 45.8771 95.8515 46.1277 96.1718 46.4539C96.4922 46.7801 96.7383 47.1541 96.914 47.5797C97.0859 48.0093 97.1718 48.4509 97.1718 48.9124Z" fill="#5479F7"/>
<mask id="mask4_4174_23664" style="mask-type:luminance" maskUnits="userSpaceOnUse" x="91" y="45" width="6" height="8">
<path d="M91.499 45.4688H96.499V52.5974H91.499V45.4688Z" fill="white"/>
</mask>
<g mask="url(#mask4_4174_23664)">
<mask id="mask5_4174_23664" style="mask-type:luminance" maskUnits="userSpaceOnUse" x="90" y="45" width="7" height="7">
<path d="M90.7568 48.9084C90.7568 48.0691 91.0498 47.353 91.6357 46.7563C92.2217 46.1636 92.9248 45.8652 93.7529 45.8652C94.581 45.8652 95.2842 46.1636 95.8701 46.7563C96.456 47.353 96.7451 48.0691 96.7451 48.9084C96.7451 49.7478 96.456 50.4678 95.8701 51.0606C95.2842 51.6573 94.581 51.9517 93.7529 51.9517C92.9248 51.9517 92.2217 51.6573 91.6357 51.0606C91.0498 50.4678 90.7568 49.7478 90.7568 48.9084Z" fill="white"/>
</mask>
<g mask="url(#mask5_4174_23664)">
<path d="M95.6279 52.3275H91.8857C91.8506 52.3275 91.8193 52.3196 91.7959 52.2917C91.7764 52.2678 91.7646 52.232 91.7646 52.2002L91.9482 48.4131C92.0107 47.168 92.8037 46.1934 93.7568 46.1934C94.7139 46.1934 95.499 47.168 95.5654 48.4131L95.7529 52.2002C95.7529 52.232 95.7412 52.2678 95.7178 52.2917C95.6865 52.3196 95.6592 52.3275 95.6279 52.3275ZM92.0107 52.0849H95.499L95.3193 48.425C95.2646 47.3152 94.5771 46.436 93.7568 46.436C92.9326 46.436 92.249 47.3072 92.1943 48.425L92.0107 52.0849Z" fill="white"/>
</g>
</g>
<mask id="mask6_4174_23664" style="mask-type:luminance" maskUnits="userSpaceOnUse" x="90" y="49" width="8" height="4">
<path d="M90.498 49.541H97.498V52.5962H90.498V49.541Z" fill="white"/>
</mask>
<g mask="url(#mask6_4174_23664)">
<mask id="mask7_4174_23664" style="mask-type:luminance" maskUnits="userSpaceOnUse" x="90" y="45" width="7" height="7">
<path d="M90.7568 48.9163C90.7568 48.0769 91.0498 47.3608 91.6357 46.7641C92.2217 46.1714 92.9248 45.873 93.7529 45.873C94.581 45.873 95.2842 46.1714 95.8701 46.7641C96.456 47.3608 96.7451 48.0769 96.7451 48.9163C96.7451 49.7556 96.456 50.4757 95.8701 51.0684C95.2842 51.6651 94.581 51.9595 93.7529 51.9595C92.9248 51.9595 92.2217 51.6651 91.6357 51.0684C91.0498 50.4757 90.7568 49.7556 90.7568 48.9163Z" fill="white"/>
</mask>
<g mask="url(#mask7_4174_23664)">
<path d="M95.4443 50.3841L93.7529 49.9902L92.0576 50.3841C91.6045 50.4915 91.2373 50.8455 91.1084 51.295L90.7412 53.2721H96.7646L96.3974 51.295C96.2646 50.8455 95.9013 50.4915 95.4443 50.3841Z" fill="white"/>
</g>
</g>
<mask id="mask8_4174_23664" style="mask-type:luminance" maskUnits="userSpaceOnUse" x="92" y="48" width="3" height="4">
<path d="M92.498 48.5254H94.498V51.5805H92.498V48.5254Z" fill="white"/>
</mask>
<g mask="url(#mask8_4174_23664)">
<mask id="mask9_4174_23664" style="mask-type:luminance" maskUnits="userSpaceOnUse" x="90" y="45" width="7" height="7">
<path d="M90.7568 48.9104C90.7568 48.071 91.0498 47.355 91.6357 46.7583C92.2217 46.1655 92.9248 45.8672 93.7529 45.8672C94.581 45.8672 95.2842 46.1655 95.8701 46.7583C96.456 47.355 96.7451 48.071 96.7451 48.9104C96.7451 49.7498 96.456 50.4698 95.8701 51.0625C95.2842 51.6592 94.581 51.9536 93.7529 51.9536C92.9248 51.9536 92.2217 51.6592 91.6357 51.0625C91.0498 50.4698 90.7568 49.7498 90.7568 48.9104Z" fill="white"/>
</mask>
<g mask="url(#mask9_4174_23664)">
<path d="M93.9053 51.0502H93.6006C93.2842 51.0502 93.0186 50.7877 93.0186 50.4575V48.918H94.4795V50.4575C94.4834 50.7877 94.2217 51.0502 93.9053 51.0502Z" fill="white"/>
</g>
</g>
<mask id="mask10_4174_23664" style="mask-type:luminance" maskUnits="userSpaceOnUse" x="91" y="46" width="5" height="4">
<path d="M91.499 46.4844H95.499V49.5395H91.499V46.4844Z" fill="white"/>
</mask>
<g mask="url(#mask10_4174_23664)">
<mask id="mask11_4174_23664" style="mask-type:luminance" maskUnits="userSpaceOnUse" x="90" y="45" width="7" height="7">
<path d="M90.7568 48.9084C90.7568 48.0691 91.0498 47.353 91.6357 46.7563C92.2217 46.1636 92.9248 45.8652 93.7529 45.8652C94.581 45.8652 95.2842 46.1636 95.8701 46.7563C96.456 47.353 96.7451 48.0691 96.7451 48.9084C96.7451 49.7478 96.456 50.4678 95.8701 51.0606C95.2842 51.6573 94.581 51.9517 93.7529 51.9517C92.9248 51.9517 92.2217 51.6573 91.6357 51.0606C91.0498 50.4678 90.7568 49.7478 90.7568 48.9084Z" fill="white"/>
</mask>
<g mask="url(#mask11_4174_23664)">
<path d="M94.9758 47.9562C94.9212 47.9443 94.8665 47.9522 94.8196 47.9682C94.7727 47.28 94.3157 46.8105 93.7532 46.8105C93.1907 46.8105 92.7298 47.276 92.6868 47.9682C92.6399 47.9522 92.5852 47.9443 92.5305 47.9562C92.3704 47.996 92.2844 48.179 92.3274 48.3699C92.3704 48.5609 92.5384 48.6842 92.6985 48.6365C92.7259 48.6325 92.7493 48.6206 92.7688 48.6086C92.9329 49.1178 93.3118 49.5037 93.7532 49.5037C94.1946 49.5037 94.5735 49.1138 94.7376 48.6086C94.7571 48.6206 94.7805 48.6325 94.8079 48.6365C94.9641 48.6763 95.1282 48.5529 95.179 48.3699C95.2297 48.187 95.136 47.996 94.9758 47.9562Z" fill="white"/>
</g>
</g>
<mask id="mask12_4174_23664" style="mask-type:luminance" maskUnits="userSpaceOnUse" x="91" y="46" width="5" height="5">
<path d="M91.499 46.4844H95.499V50.5579H91.499V46.4844Z" fill="white"/>
</mask>
<g mask="url(#mask12_4174_23664)">
<mask id="mask13_4174_23664" style="mask-type:luminance" maskUnits="userSpaceOnUse" x="90" y="45" width="7" height="7">
<path d="M90.7568 48.9084C90.7568 48.0691 91.0498 47.353 91.6357 46.7563C92.2217 46.1636 92.9248 45.8652 93.7529 45.8652C94.581 45.8652 95.2842 46.1636 95.8701 46.7563C96.456 47.353 96.7451 48.0691 96.7451 48.9084C96.7451 49.7478 96.456 50.4678 95.8701 51.0606C95.2842 51.6573 94.581 51.9517 93.7529 51.9517C92.9248 51.9517 92.2217 51.6573 91.6357 51.0606C91.0498 50.4678 90.7568 49.7478 90.7568 48.9084Z" fill="white"/>
</mask>
<g mask="url(#mask13_4174_23664)">
<path d="M93.7538 49.6293C93.3163 49.6293 92.9022 49.2912 92.6991 48.7661C92.4842 48.7979 92.2733 48.6428 92.2108 48.3961C92.1795 48.2609 92.1952 48.1296 92.2616 48.0182C92.3163 47.9227 92.4022 47.8551 92.5038 47.8312C92.5311 47.8272 92.5585 47.8193 92.578 47.8193C92.6717 47.155 93.1483 46.6855 93.7538 46.6855C94.3553 46.6855 94.828 47.155 94.9295 47.8193C94.9569 47.8193 94.9842 47.8272 95.0038 47.8312C95.1014 47.8591 95.1913 47.9227 95.2459 48.0182C95.3084 48.1296 95.328 48.2609 95.2928 48.3961C95.2342 48.6428 95.0194 48.7979 94.8084 48.7661C94.6053 49.2832 94.1913 49.6293 93.7538 49.6293ZM92.7694 48.4836C92.785 48.4836 92.7967 48.4836 92.8124 48.4916C92.8475 48.5035 92.8749 48.5314 92.8827 48.5711C93.0389 49.0565 93.3866 49.3787 93.7538 49.3787C94.1209 49.3787 94.4686 49.0565 94.6209 48.5711C94.6327 48.5353 94.66 48.5075 94.6913 48.4916C94.7264 48.4797 94.7655 48.4796 94.7967 48.5035C94.8084 48.5075 94.8241 48.5155 94.8358 48.5194C94.9295 48.5433 95.0311 48.4558 95.0584 48.3404C95.0741 48.2728 95.0702 48.2012 95.0389 48.1455C95.0194 48.1176 94.992 48.0818 94.9452 48.0739C94.9178 48.0659 94.8905 48.0659 94.8553 48.0779C94.8202 48.0938 94.7811 48.0898 94.7459 48.0659C94.7147 48.046 94.6913 48.0102 94.6913 47.9705C94.6561 47.3698 94.2577 46.9322 93.7459 46.9322C93.2342 46.9322 92.8397 47.3698 92.8045 47.9705C92.8045 48.0102 92.7811 48.046 92.7499 48.0659C92.7147 48.0898 92.6756 48.0938 92.6405 48.0779C92.6131 48.0659 92.578 48.0659 92.5506 48.0739C92.5038 48.0818 92.4764 48.1176 92.4569 48.1455C92.4256 48.2012 92.4217 48.2688 92.4374 48.3404C92.4647 48.4637 92.5663 48.5473 92.66 48.5194C92.6717 48.5155 92.6874 48.5075 92.6991 48.5035C92.7264 48.4916 92.7499 48.4836 92.7694 48.4836Z" fill="#5479F7"/>
</g>
</g>
<mask id="mask14_4174_23664" style="mask-type:luminance" maskUnits="userSpaceOnUse" x="92" y="46" width="4" height="3">
<path d="M92.498 46.4844H95.498V48.5211H92.498V46.4844Z" fill="white"/>
</mask>
<g mask="url(#mask14_4174_23664)">
<mask id="mask15_4174_23664" style="mask-type:luminance" maskUnits="userSpaceOnUse" x="90" y="45" width="7" height="7">
<path d="M90.7568 48.9084C90.7568 48.0691 91.0498 47.353 91.6357 46.7563C92.2217 46.1636 92.9248 45.8652 93.7529 45.8652C94.581 45.8652 95.2842 46.1636 95.8701 46.7563C96.456 47.353 96.7451 48.0691 96.7451 48.9084C96.7451 49.7478 96.456 50.4678 95.8701 51.0606C95.2842 51.6573 94.581 51.9517 93.7529 51.9517C92.9248 51.9517 92.2217 51.6573 91.6357 51.0606C91.0498 50.4678 90.7568 49.7478 90.7568 48.9084Z" fill="white"/>
</mask>
<g mask="url(#mask15_4174_23664)">
<path d="M92.6709 48.1378C93.2061 48.0384 93.7569 47.553 94.0928 47.1194C94.1553 47.5013 94.4952 47.9548 94.8467 48.11C94.8467 48.11 95.0147 46.5744 93.753 46.6222C92.4913 46.6779 92.6709 48.1378 92.6709 48.1378Z" fill="#5479F7"/>
</g>
</g>
<path d="M105.828 48.9124C105.828 49.3738 105.742 49.8194 105.566 50.245C105.395 50.6707 105.148 51.0486 104.824 51.3748C104.504 51.701 104.137 51.9516 103.715 52.1266C103.297 52.3056 102.859 52.3932 102.406 52.3932C101.953 52.3932 101.52 52.3056 101.098 52.1266C100.68 51.9516 100.309 51.701 99.9883 51.3748C99.668 51.0486 99.4219 50.6707 99.2461 50.245C99.0742 49.8194 98.9883 49.3738 98.9883 48.9124C98.9883 48.4509 99.0742 48.0093 99.2461 47.5797C99.4219 47.1541 99.668 46.7801 99.9883 46.4539C100.309 46.1277 100.68 45.8771 101.098 45.6981C101.52 45.5231 101.953 45.4355 102.406 45.4355C102.859 45.4355 103.297 45.5231 103.715 45.6981C104.137 45.8771 104.504 46.1277 104.824 46.4539C105.148 46.7801 105.395 47.1541 105.566 47.5797C105.742 48.0093 105.828 48.4509 105.828 48.9124Z" fill="white"/>
<path d="M102.405 52.5168C100.456 52.5168 98.8662 50.9017 98.8662 48.9126C98.8662 46.9236 100.456 45.3125 102.405 45.3125C104.358 45.3125 105.948 46.9236 105.948 48.9126C105.948 50.9017 104.358 52.5168 102.405 52.5168ZM102.405 45.5631C100.589 45.5631 99.1084 47.0668 99.1084 48.9206C99.1084 50.7664 100.589 52.2741 102.405 52.2741C104.226 52.2741 105.706 50.7744 105.706 48.9206C105.702 47.0668 104.226 45.5631 102.405 45.5631Z" fill="#222222"/>
<mask id="mask16_4174_23664" style="mask-type:luminance" maskUnits="userSpaceOnUse" x="98" y="49" width="8" height="4">
<path d="M98.499 49.541H105.499V52.5962H98.499V49.541Z" fill="white"/>
</mask>
<g mask="url(#mask16_4174_23664)">
<mask id="mask17_4174_23664" style="mask-type:luminance" maskUnits="userSpaceOnUse" x="99" y="45" width="7" height="7">
<path d="M99.4131 48.9084C99.4131 48.0691 99.7061 47.353 100.288 46.7563C100.874 46.1636 101.581 45.8652 102.405 45.8652C103.233 45.8652 103.94 46.1636 104.522 46.7563C105.108 47.353 105.401 48.0691 105.401 48.9084C105.401 49.7478 105.108 50.4678 104.522 51.0606C103.94 51.6573 103.233 51.9517 102.405 51.9517C101.581 51.9517 100.874 51.6573 100.288 51.0606C99.7061 50.4678 99.4131 49.7478 99.4131 48.9084Z" fill="white"/>
</mask>
<g mask="url(#mask17_4174_23664)">
<path d="M104.101 50.3802L102.405 49.9863L100.714 50.3802C100.261 50.4876 99.8936 50.8416 99.7607 51.2911L99.3975 53.2682H105.417L105.05 51.2911C104.921 50.8416 104.554 50.4876 104.101 50.3802Z" fill="#222222"/>
</g>
</g>
<mask id="mask18_4174_23664" style="mask-type:luminance" maskUnits="userSpaceOnUse" x="101" y="48" width="3" height="4">
<path d="M101.5 48.5254H103.5V51.5805H101.5V48.5254Z" fill="white"/>
</mask>
<g mask="url(#mask18_4174_23664)">
<mask id="mask19_4174_23664" style="mask-type:luminance" maskUnits="userSpaceOnUse" x="99" y="45" width="7" height="7">
<path d="M99.4131 48.9084C99.4131 48.0691 99.7061 47.353 100.288 46.7563C100.874 46.1636 101.581 45.8652 102.405 45.8652C103.233 45.8652 103.94 46.1636 104.522 46.7563C105.108 47.353 105.401 48.0691 105.401 48.9084C105.401 49.7478 105.108 50.4678 104.522 51.0606C103.94 51.6573 103.233 51.9517 102.405 51.9517C101.581 51.9517 100.874 51.6573 100.288 51.0606C99.7061 50.4678 99.4131 49.7478 99.4131 48.9084Z" fill="white"/>
</mask>
<g mask="url(#mask19_4174_23664)">
<path d="M102.562 51.0483H102.254C101.937 51.0483 101.676 50.7857 101.676 50.4555V48.916H103.133V50.4555C103.133 50.7857 102.879 51.0483 102.562 51.0483Z" fill="white"/>
</g>
</g>
<mask id="mask20_4174_23664" style="mask-type:luminance" maskUnits="userSpaceOnUse" x="100" y="46" width="5" height="4">
<path d="M100.501 46.4844H104.501V49.5395H100.501V46.4844Z" fill="white"/>
</mask>
<g mask="url(#mask20_4174_23664)">
<mask id="mask21_4174_23664" style="mask-type:luminance" maskUnits="userSpaceOnUse" x="99" y="45" width="7" height="7">
<path d="M99.4131 48.9084C99.4131 48.0691 99.7061 47.353 100.288 46.7563C100.874 46.1636 101.581 45.8652 102.405 45.8652C103.233 45.8652 103.94 46.1636 104.522 46.7563C105.108 47.353 105.401 48.0691 105.401 48.9084C105.401 49.7478 105.108 50.4678 104.522 51.0606C103.94 51.6573 103.233 51.9517 102.405 51.9517C101.581 51.9517 100.874 51.6573 100.288 51.0606C99.7061 50.4678 99.4131 49.7478 99.4131 48.9084Z" fill="white"/>
</mask>
<g mask="url(#mask21_4174_23664)">
<path d="M103.633 47.9562C103.578 47.9443 103.524 47.9522 103.473 47.9682C103.43 47.28 102.969 46.8105 102.407 46.8105C101.844 46.8105 101.387 47.276 101.344 47.9682C101.293 47.9522 101.239 47.9443 101.184 47.9562C101.024 47.996 100.938 48.179 100.981 48.3699C101.024 48.5609 101.196 48.6842 101.352 48.6365C101.379 48.6325 101.403 48.6206 101.426 48.6086C101.59 49.1178 101.965 49.5037 102.407 49.5037C102.852 49.5037 103.227 49.1138 103.391 48.6086C103.414 48.6206 103.434 48.6325 103.461 48.6365C103.621 48.6763 103.785 48.5529 103.832 48.3699C103.879 48.179 103.789 47.996 103.633 47.9562Z" fill="white"/>
</g>
</g>
<mask id="mask22_4174_23664" style="mask-type:luminance" maskUnits="userSpaceOnUse" x="100" y="46" width="5" height="5">
<path d="M100.501 46.4844H104.501V50.5579H100.501V46.4844Z" fill="white"/>
</mask>
<g mask="url(#mask22_4174_23664)">
<mask id="mask23_4174_23664" style="mask-type:luminance" maskUnits="userSpaceOnUse" x="99" y="45" width="7" height="7">
<path d="M99.4131 48.9084C99.4131 48.0691 99.7061 47.353 100.288 46.7563C100.874 46.1636 101.581 45.8652 102.405 45.8652C103.233 45.8652 103.94 46.1636 104.522 46.7563C105.108 47.353 105.401 48.0691 105.401 48.9084C105.401 49.7478 105.108 50.4678 104.522 51.0606C103.94 51.6573 103.233 51.9517 102.405 51.9517C101.581 51.9517 100.874 51.6573 100.288 51.0606C99.7061 50.4678 99.4131 49.7478 99.4131 48.9084Z" fill="white"/>
</mask>
<g mask="url(#mask23_4174_23664)">
<path d="M102.406 49.6293C101.969 49.6293 101.555 49.2912 101.351 48.7661C101.14 48.7979 100.926 48.6428 100.867 48.3961C100.836 48.2609 100.851 48.1296 100.918 48.0182C100.969 47.9227 101.058 47.8551 101.156 47.8312C101.183 47.8272 101.211 47.8193 101.234 47.8193C101.324 47.155 101.801 46.6855 102.406 46.6855C103.008 46.6855 103.484 47.155 103.582 47.8193C103.609 47.8193 103.637 47.8272 103.66 47.8312C103.758 47.8591 103.844 47.9227 103.898 48.0182C103.965 48.1296 103.98 48.2609 103.949 48.3961C103.887 48.6428 103.676 48.7979 103.461 48.7661C103.254 49.2832 102.844 49.6293 102.406 49.6293ZM101.426 48.4836C101.441 48.4836 101.453 48.4836 101.469 48.4916C101.5 48.5035 101.527 48.5314 101.539 48.5711C101.691 49.0565 102.043 49.3787 102.406 49.3787C102.773 49.3787 103.125 49.0565 103.277 48.5711C103.289 48.5353 103.316 48.5075 103.348 48.4916C103.379 48.4797 103.418 48.4796 103.449 48.5035C103.461 48.5075 103.476 48.5155 103.488 48.5194C103.582 48.5433 103.687 48.4558 103.715 48.3404C103.73 48.2728 103.723 48.2012 103.691 48.1455C103.676 48.1176 103.648 48.0818 103.598 48.0739C103.57 48.0659 103.543 48.0659 103.512 48.0779C103.473 48.0938 103.433 48.0898 103.402 48.0659C103.367 48.046 103.348 48.0102 103.348 47.9705C103.308 47.3698 102.91 46.9322 102.402 46.9322C101.887 46.9322 101.496 47.3698 101.457 47.9705C101.457 48.0102 101.433 48.046 101.402 48.0659C101.371 48.0898 101.332 48.0938 101.293 48.0779C101.265 48.0659 101.234 48.0659 101.207 48.0739C101.156 48.0818 101.129 48.1176 101.113 48.1455C101.078 48.2012 101.074 48.2688 101.09 48.3404C101.117 48.4637 101.223 48.5473 101.316 48.5194C101.324 48.5155 101.344 48.5075 101.351 48.5035C101.379 48.4916 101.402 48.4836 101.426 48.4836Z" fill="#222222"/>
</g>
</g>
<mask id="mask24_4174_23664" style="mask-type:luminance" maskUnits="userSpaceOnUse" x="100" y="46" width="5" height="3">
<path d="M100.501 46.4844H104.501V48.5211H100.501V46.4844Z" fill="white"/>
</mask>
<g mask="url(#mask24_4174_23664)">
<mask id="mask25_4174_23664" style="mask-type:luminance" maskUnits="userSpaceOnUse" x="99" y="45" width="7" height="7">
<path d="M99.4131 48.9084C99.4131 48.0691 99.7061 47.353 100.288 46.7563C100.874 46.1636 101.581 45.8652 102.405 45.8652C103.233 45.8652 103.94 46.1636 104.522 46.7563C105.108 47.353 105.401 48.0691 105.401 48.9084C105.401 49.7478 105.108 50.4678 104.522 51.0606C103.94 51.6573 103.233 51.9517 102.405 51.9517C101.581 51.9517 100.874 51.6573 100.288 51.0606C99.7061 50.4678 99.4131 49.7478 99.4131 48.9084Z" fill="white"/>
</mask>
<g mask="url(#mask25_4174_23664)">
<path d="M101.32 48.1378C101.855 48.0384 102.406 47.553 102.742 47.1194C102.804 47.5013 103.144 47.9548 103.496 48.11C103.496 48.11 103.664 46.5744 102.402 46.6222C101.144 46.6779 101.32 48.1378 101.32 48.1378Z" fill="white"/>
<path d="M101.32 48.2611C101.293 48.2611 101.269 48.2572 101.25 48.2413C101.222 48.2174 101.207 48.1895 101.199 48.1577C101.195 48.1219 101.113 47.39 101.515 46.9046C101.726 46.654 102.023 46.5188 102.402 46.5028C102.773 46.4909 103.062 46.5983 103.277 46.833C103.703 47.3024 103.621 48.0941 103.621 48.1299C103.613 48.1657 103.593 48.2015 103.558 48.2253C103.527 48.2413 103.488 48.2452 103.449 48.2293C103.132 48.0821 102.828 47.736 102.691 47.374C102.351 47.7559 101.851 48.1617 101.347 48.2611C101.336 48.2611 101.332 48.2611 101.32 48.2611ZM102.461 46.7495C102.445 46.7495 102.429 46.7495 102.406 46.7495C102.101 46.7614 101.859 46.8649 101.699 47.0638C101.457 47.3542 101.429 47.7639 101.429 47.9827C101.906 47.8315 102.375 47.3979 102.64 47.0399C102.668 47.0001 102.718 46.9842 102.769 46.9961C102.812 47.0041 102.851 47.0439 102.855 47.0956C102.906 47.386 103.129 47.7162 103.375 47.9031C103.371 47.6644 103.324 47.2587 103.089 47.0001C102.949 46.833 102.734 46.7495 102.461 46.7495Z" fill="#222222"/>
</g>
</g>
<path d="M112.187 49.0377H107.812C107.745 49.0377 107.69 48.982 107.69 48.9143C107.69 48.8467 107.745 48.791 107.812 48.791H112.187C112.253 48.791 112.308 48.8467 112.308 48.9143C112.308 48.9859 112.253 49.0377 112.187 49.0377Z" fill="#222222"/>
<path d="M109.999 51.2766C109.937 51.2766 109.882 51.2209 109.882 51.1532V46.6819C109.882 46.6143 109.937 46.5586 109.999 46.5586C110.065 46.5586 110.12 46.6143 110.12 46.6819V51.1532C110.12 51.2209 110.065 51.2766 109.999 51.2766Z" fill="#222222"/>
<path d="M140.663 15.167H57.5498C57.2451 15.167 56.9951 14.9164 56.9951 14.5981V10.5962C56.9951 10.2859 57.2412 10.0273 57.5498 10.0273H140.663C140.967 10.0273 141.217 10.278 141.217 10.5962V14.5981C141.213 14.9164 140.967 15.167 140.663 15.167Z" fill="#E2EAFF"/>
<path d="M78.5 14.6581C78.4336 14.6581 78.3789 14.6025 78.3789 14.5348V11.1057C78.3789 11.0381 78.4336 10.9824 78.5 10.9824C78.5664 10.9824 78.6211 11.0381 78.6211 11.1057V14.5348C78.6211 14.6025 78.5664 14.6581 78.5 14.6581Z" fill="white"/>
<path d="M101.237 14.6581C101.171 14.6581 101.116 14.6025 101.116 14.5348V11.1057C101.116 11.0381 101.171 10.9824 101.237 10.9824C101.304 10.9824 101.358 11.0381 101.358 11.1057V14.5348C101.358 14.6025 101.304 14.6581 101.237 14.6581Z" fill="white"/>
<path d="M84.6395 52.3295H57.5576C57.249 52.3295 56.999 52.0749 56.999 51.7606V18.7388C56.999 18.4285 57.249 18.1699 57.5576 18.1699H84.6395C84.9442 18.1699 85.1981 18.4285 85.1981 18.7388V51.7606C85.1981 52.0749 84.9442 52.3295 84.6395 52.3295Z" fill="#E2EAFF"/>
<path d="M83.911 26.2179H59.0986C59.0596 26.2179 59.0322 26.19 59.0322 26.1503V20.3821C59.0322 20.3423 59.0596 20.3145 59.0986 20.3145H83.911C83.9462 20.3145 83.9735 20.3423 83.9735 20.3821V26.1503C83.9735 26.1861 83.9462 26.2179 83.911 26.2179Z" fill="white"/>
<path d="M83.911 34.3331H59.0986C59.0596 34.3331 59.0322 34.3053 59.0322 34.2655V28.4973C59.0322 28.4575 59.0596 28.4297 59.0986 28.4297H83.911C83.9462 28.4297 83.9735 28.4575 83.9735 28.4973V34.2655C83.9735 34.2973 83.9462 34.3331 83.911 34.3331Z" fill="white"/>
<path d="M83.911 42.4484H59.0986C59.0596 42.4484 59.0322 42.4165 59.0322 42.3807V36.6086C59.0322 36.5728 59.0596 36.5449 59.0986 36.5449H83.911C83.9462 36.5449 83.9735 36.5728 83.9735 36.6086V42.3807C83.9735 42.4165 83.9462 42.4484 83.911 42.4484Z" fill="white"/>
<path d="M83.911 50.5597H59.0986C59.0596 50.5597 59.0322 50.5318 59.0322 50.4921V44.7239C59.0322 44.6841 59.0596 44.6562 59.0986 44.6562H83.911C83.9462 44.6562 83.9735 44.6841 83.9735 44.7239V50.4921C83.9735 50.5318 83.9462 50.5597 83.911 50.5597Z" fill="white"/>
<path d="M58.0703 26.101C58.0039 26.101 57.9531 26.0453 57.9531 25.9817V20.4124C57.9531 20.3448 58.0039 20.2891 58.0703 20.2891C58.1367 20.2891 58.1914 20.3448 58.1914 20.4124V25.9817C58.1914 26.0453 58.1367 26.101 58.0703 26.101Z" fill="#5479F7"/>
<path d="M132.651 39.4587L128.354 36.2285L125.386 39.2598L128.745 43.5998L132.651 39.4587Z" fill="white"/>
<path d="M128.745 43.7227H128.741C128.706 43.7227 128.675 43.7028 128.652 43.675L125.292 39.3389C125.257 39.2872 125.261 39.2196 125.304 39.1758L128.273 36.1445C128.316 36.0968 128.382 36.0928 128.429 36.1326L132.73 39.3667C132.757 39.3866 132.773 39.4224 132.777 39.4543C132.784 39.4861 132.769 39.5259 132.745 39.5497L128.839 43.6869C128.812 43.7108 128.781 43.7227 128.745 43.7227ZM125.546 39.2713L128.753 43.4124L132.468 39.4781L128.363 36.3872L125.546 39.2713Z" fill="#222222"/>
<path d="M139.171 52.5942H125.386V39.2598L128.249 39.1763L128.354 36.2285H139.171V52.5942Z" fill="white"/>
<path d="M139.172 52.7178H125.387C125.32 52.7178 125.266 52.6621 125.266 52.5944V39.264C125.266 39.1963 125.316 39.1407 125.383 39.1407L128.129 39.0651L128.234 36.2287C128.234 36.1611 128.289 36.1094 128.355 36.1094H139.172C139.238 36.1094 139.293 36.1651 139.293 36.2327V52.6024C139.293 52.6621 139.238 52.7178 139.172 52.7178ZM125.508 52.4711H139.051V36.352H128.469L128.363 39.1804C128.363 39.2481 128.309 39.2998 128.25 39.2998L125.5 39.3754V52.4711H125.508Z" fill="#222222"/>
<path d="M135.761 38.733H129.729C129.663 38.733 129.608 38.6773 129.608 38.6096C129.608 38.542 129.663 38.4863 129.729 38.4863H135.761C135.827 38.4863 135.882 38.542 135.882 38.6096C135.882 38.6773 135.827 38.733 135.761 38.733Z" fill="#222222"/>
<path d="M136.684 42.4165H127.332C127.266 42.4165 127.211 42.3608 127.211 42.2971C127.211 42.2295 127.266 42.1738 127.332 42.1738H136.684C136.75 42.1738 136.805 42.2295 136.805 42.2971C136.805 42.3608 136.75 42.4165 136.684 42.4165Z" fill="#222222"/>
<path d="M136.684 46.1098H127.332C127.266 46.1098 127.211 46.0542 127.211 45.9905C127.211 45.9229 127.266 45.8672 127.332 45.8672H136.684C136.75 45.8672 136.805 45.9229 136.805 45.9905C136.805 46.0542 136.75 46.1098 136.684 46.1098Z" fill="#222222"/>
<path d="M131.391 49.7993H127.332C127.266 49.7993 127.211 49.7436 127.211 49.68C127.211 49.6123 127.266 49.5566 127.332 49.5566H131.391C131.457 49.5566 131.512 49.6123 131.512 49.68C131.512 49.7436 131.461 49.7993 131.391 49.7993Z" fill="#222222"/>
<path d="M139.163 46.6786C139.585 46.8577 139.956 47.1122 140.28 47.4424C140.604 47.7726 140.854 48.1545 141.03 48.5881C141.202 49.0177 141.292 49.4673 141.292 49.9367C141.292 50.4021 141.202 50.8516 141.03 51.2852C140.854 51.7149 140.604 52.0967 140.28 52.4269C139.956 52.7571 139.585 53.0117 139.163 53.1907C138.741 53.3697 138.3 53.4572 137.843 53.4572C137.386 53.4572 136.948 53.3697 136.522 53.1907C136.101 53.0117 135.729 52.7571 135.405 52.4269C135.081 52.0967 134.835 51.7149 134.659 51.2852C134.483 50.8516 134.397 50.4021 134.397 49.9367C134.397 49.4673 134.483 49.0177 134.659 48.5881C134.835 48.1545 135.081 47.7726 135.405 47.4424C135.729 47.1122 136.101 46.8577 136.522 46.6786C136.948 46.4996 137.386 46.4121 137.843 46.4121C138.3 46.4121 138.741 46.4996 139.163 46.6786Z" fill="#E2EAFF"/>
<path d="M137.844 51.901C137.777 51.901 137.723 51.8453 137.723 51.7777V48.094C137.723 48.0264 137.777 47.9707 137.844 47.9707C137.91 47.9707 137.965 48.0264 137.965 48.094V51.7777C137.965 51.8453 137.91 51.901 137.844 51.901Z" fill="#222222"/>
<path d="M139.647 50.0591H136.038C135.976 50.0591 135.921 50.0034 135.921 49.9358C135.921 49.8682 135.976 49.8125 136.038 49.8125H139.647C139.71 49.8125 139.765 49.8682 139.765 49.9358C139.765 50.0034 139.71 50.0591 139.647 50.0591Z" fill="#222222"/>
<path d="M85.8314 98.6902C85.8314 98.6902 83.6126 102.935 86.3822 102.935C89.1517 102.935 102.632 102.935 102.632 102.935C102.632 102.935 105.773 103.026 105.031 99.9115C104.292 96.7967 102.722 93.5903 97.0891 92.5521C91.4642 91.5138 87.4915 95.289 85.8314 98.6902Z" fill="#222222"/>
<path d="M88.0773 100.135C90.7531 98.6151 96.1007 97.9468 100.085 98.3167C104.069 98.6827 103.319 101.718 101.866 101.718C88.2492 101.718 84.4211 102.215 88.0773 100.135Z" fill="#5479F7"/>
<path d="M44.6906 41.3619C44.6906 41.3619 48.0773 37.6584 49.128 33.004C50.1749 28.3457 45.1554 27.9877 43.7492 27.9877C42.3468 27.9877 38.1437 23.6874 31.8351 24.4075C25.5266 25.1275 24.4797 30.0205 24.4797 30.0205C24.4797 30.0205 20.1594 33.008 20.0461 38.6131C19.9289 44.2261 28.3391 52.588 28.3391 52.588C28.3391 52.588 28.2219 57.7197 33.2453 56.6496C38.2648 55.5755 44.6906 41.3619 44.6906 41.3619Z" fill="#222222"/>
<path d="M44.7304 36.7051C44.7304 36.7051 45.9491 41.0809 46.3124 46.5746C46.8319 54.3637 41.6249 55.4815 41.6249 55.4815L39.0351 66.7951L22.6797 67.6742L28.5859 52.6292C28.5859 52.6292 30.207 56.4044 33.9453 51.7461C37.2382 46.6621 40.3046 45.3733 42.3515 42.6722C43.7226 40.8741 44.7304 36.7051 44.7304 36.7051Z" fill="white"/>
<path d="M22.6715 67.7998C22.6364 67.7998 22.5973 67.7839 22.5739 67.7481C22.5543 67.7163 22.5465 67.6725 22.5582 67.6328L28.4645 52.5878C28.4801 52.544 28.5231 52.5082 28.5738 52.5082C28.6246 52.5082 28.6676 52.5361 28.6871 52.5838C28.6949 52.5917 29.2184 53.7812 30.316 53.9324C31.3395 54.0716 32.523 53.3118 33.8394 51.6728C35.8551 48.562 37.7613 46.8872 39.4449 45.4114C40.5269 44.4606 41.4566 43.6451 42.2535 42.5949C43.5933 40.8326 44.5972 36.7153 44.6089 36.6756C44.6206 36.6199 44.6675 36.5801 44.7222 36.5801C44.773 36.5801 44.8277 36.6159 44.8433 36.6716C44.855 36.7153 46.0659 41.1151 46.4292 46.569C46.7027 50.6385 45.3902 52.8782 44.2417 54.0398C43.1519 55.1457 42.0191 55.5077 41.7183 55.5872L39.1441 66.8292C39.1363 66.8849 39.0855 66.9247 39.0347 66.9247L22.6793 67.7998H22.6715ZM28.5973 52.9219L22.8551 67.5413L38.9332 66.678L41.5074 55.452C41.5152 55.4082 41.5543 55.3684 41.5972 55.3565C41.6089 55.3565 42.8863 55.0661 44.0855 53.8488C45.187 52.727 46.4566 50.551 46.187 46.5849C45.8941 42.1653 45.0386 38.4418 44.7222 37.1887C44.4214 38.3225 43.5581 41.2782 42.441 42.754C41.6324 43.8201 40.691 44.6476 39.5972 45.6023C37.9254 47.0702 36.0308 48.733 34.0308 51.816C34.0308 51.824 34.0269 51.824 34.0269 51.828C32.648 53.5425 31.3863 54.3341 30.277 54.179C29.3707 54.0517 28.8238 53.3118 28.5973 52.9219Z" fill="#222222"/>
<path d="M41.6241 55.6051C41.6163 55.6051 41.6045 55.6051 41.5928 55.6011C41.5264 55.5812 41.4952 55.5096 41.5108 55.4499L42.2608 52.7966C42.2764 52.7289 42.3467 52.6971 42.4053 52.713C42.4717 52.7289 42.5069 52.8005 42.4874 52.8642L41.7413 55.5175C41.7256 55.5732 41.6749 55.6051 41.6241 55.6051Z" fill="#222222"/>
<path d="M42.9059 45.2306C42.9059 44.7413 41.9333 40.3137 38.9489 40.6996C35.6482 41.1252 35.7849 47.9834 39.4255 50.2429C43.0622 52.5064 42.9059 45.2306 42.9059 45.2306Z" fill="white"/>
<path d="M39.4248 50.3667C39.4014 50.3667 39.3779 50.3627 39.3623 50.3507C36.96 48.855 36.0655 45.3861 36.6084 43.0232C36.9483 41.5672 37.7959 40.6721 38.9444 40.5767C41.2334 40.3817 41.9482 41.9968 42.4795 43.1704L42.4951 43.2062C42.5225 43.2698 42.4951 43.3414 42.4326 43.3693C42.374 43.3971 42.3037 43.3693 42.2764 43.3096L42.2607 43.2698C41.7334 42.0963 41.085 40.6403 38.9639 40.8193C37.5498 40.9387 37.0303 42.2872 36.8467 43.0789C36.3194 45.3583 37.1826 48.7038 39.4873 50.1399C39.542 50.1717 39.5654 50.2513 39.5264 50.307C39.5068 50.3468 39.4678 50.3667 39.4248 50.3667Z" fill="#222222"/>
<path d="M40.8624 45.8575C40.8077 45.8575 40.7569 45.8177 40.7452 45.77C40.1554 43.4667 38.796 43.7133 38.7413 43.7253C38.6749 43.7372 38.6085 43.6974 38.5968 43.6298C38.589 43.5622 38.6241 43.4945 38.6905 43.4866C38.7062 43.4786 40.3233 43.1683 40.9796 45.7063C40.9952 45.774 40.96 45.8416 40.8936 45.8575C40.8819 45.8575 40.8702 45.8575 40.8624 45.8575Z" fill="#222222"/>
<path d="M79.7727 90.8833C79.9406 90.8276 86.7883 87.677 91.1789 86.9808C95.5734 86.2807 98.3624 88.1464 99.8507 90.5929C99.8507 90.5929 101.046 91.0901 101.206 91.9375C101.362 92.8007 100.882 93.4809 98.9991 93.4531C96.9445 93.4173 94.6437 93.2462 93.1554 93.9981C91.6749 94.7579 87.3664 100.852 81.4328 101.437C75.4953 102.018 79.7727 90.8833 79.7727 90.8833Z" fill="white"/>
<path d="M80.9953 101.574C80.0539 101.574 79.3391 101.252 78.8586 100.604C76.9406 98.0019 79.5461 91.1278 79.6633 90.8374C79.675 90.8016 79.7023 90.7737 79.7336 90.7658C79.7492 90.7578 79.8547 90.7141 79.9836 90.6544C84.7101 88.5739 88.5734 87.2611 91.1593 86.8514C96.3351 86.024 98.8663 88.7609 99.9249 90.4834C100.14 90.5788 101.159 91.084 101.316 91.9035C101.39 92.3292 101.319 92.6792 101.097 92.9537C100.745 93.3794 100.034 93.5783 98.9796 93.5624C98.714 93.5584 98.4405 93.5504 98.1632 93.5465C96.3429 93.5027 94.4562 93.455 93.1945 94.0994C92.8195 94.2943 92.2179 94.8751 91.4562 95.619C89.3507 97.6717 85.8195 101.117 81.4289 101.546C81.2844 101.57 81.1359 101.574 80.9953 101.574ZM79.8625 90.9766C79.6281 91.6091 77.2922 98.0735 79.05 100.46C79.5461 101.129 80.3391 101.419 81.4094 101.316C85.714 100.89 89.214 97.4807 91.2921 95.448C92.0968 94.6683 92.6749 94.0994 93.0929 93.8846C94.4093 93.2163 96.3194 93.26 98.171 93.3038C98.4444 93.3117 98.7179 93.3157 98.9874 93.3237C99.964 93.3316 100.616 93.1606 100.909 92.7986C101.085 92.5838 101.14 92.3013 101.073 91.9552C100.933 91.1835 99.8077 90.7021 99.7882 90.7021C99.7687 90.6902 99.7452 90.6743 99.7335 90.6544C98.7179 88.9757 96.2609 86.2865 91.1906 87.094C88.6281 87.5038 84.7882 88.8086 80.0773 90.8812C79.9719 90.9329 79.9094 90.9607 79.8625 90.9766Z" fill="#222222"/>
<path d="M99.7999 90.7107C99.796 90.7107 99.7882 90.7107 99.7843 90.7107C99.7413 90.7027 95.3741 90.102 93.4132 90.4919C93.3468 90.5038 93.2843 90.464 93.2726 90.3964C93.2609 90.3288 93.2999 90.2612 93.3663 90.2492C95.3624 89.8554 99.6319 90.4402 99.8116 90.464C99.878 90.476 99.9249 90.5356 99.9171 90.6033C99.9093 90.6629 99.8546 90.7107 99.7999 90.7107Z" fill="#222222"/>
<mask id="mask26_4174_23664" style="mask-type:luminance" maskUnits="userSpaceOnUse" x="0" y="54" width="85" height="50">
<path d="M0 54.6328H84.4996V103.515H0V54.6328Z" fill="white"/>
</mask>
<g mask="url(#mask26_4174_23664)">
<path d="M80.9996 88.4367C80.9996 88.4367 82.2653 87.7684 83.152 93.7832C84.3551 101.898 82.7809 102.845 82.7809 102.845H23.4491C10.496 102.845 0 92.1124 0 78.8774C0 78.8774 1.96874 64.3456 13.0429 62.0781C13.0429 62.0781 12.4882 56.2264 18.0234 55.2836C23.5624 54.3368 35.1952 55.4706 40.5506 59.6197C45.9021 63.7688 45.6639 67.2814 45.6639 67.2814C45.6639 67.2814 49.2303 68.4907 51.8162 72.2659C54.3982 76.0411 58.1599 88.8106 58.1599 88.8106L80.9996 88.4367Z" fill="#5479F7"/>
</g>
<path d="M24.3633 77.9362C23.9141 77.9362 23.4609 77.9124 22.9961 77.8646C19.5156 77.4827 16.8281 75.7403 15.0039 72.6932C12.5157 68.5321 12.4844 63.2373 12.7696 62.4775C12.7891 62.4178 12.8594 62.382 12.9258 62.4059C12.9883 62.4258 13.0196 62.5014 12.9961 62.569C12.75 63.2214 12.7735 68.4884 15.211 72.5619C16.9922 75.5454 19.6211 77.2441 23.0234 77.618C23.4766 77.6697 23.918 77.6896 24.3555 77.6896C29.6757 77.6896 33.7304 74.1611 37.0351 71.2849C39.6445 69.0135 41.8984 67.0523 44.0976 67.3347C44.1601 67.3467 44.2108 67.4103 44.1991 67.4779C44.1874 67.5416 44.1327 67.5893 44.0624 67.5814C41.9687 67.3148 39.7577 69.2402 37.1952 71.4759C33.8554 74.3719 29.7656 77.9362 24.3633 77.9362Z" fill="#222222"/>
<path d="M59.632 94.0318C59.5851 94.0318 59.5343 93.996 59.5187 93.9404L57.9758 88.8166C57.9562 88.749 57.9953 88.6814 58.0578 88.6575C58.1242 88.6376 58.1906 88.6774 58.214 88.741L59.7531 93.8687C59.7765 93.9364 59.7375 94.004 59.6711 94.0239C59.6554 94.0239 59.6437 94.0318 59.632 94.0318Z" fill="#222222"/>
</svg>
