<svg width="361" height="201" viewBox="0 0 361 201" fill="none" xmlns="http://www.w3.org/2000/svg">
<g filter="url(#filter0_d_4775_22024)">
<rect x="26.0271" y="26.9316" width="300" height="139.667" rx="10" fill="white" shape-rendering="crispEdges"/>
<g filter="url(#filter1_d_4775_22024)">
<circle cx="58.1887" cy="68.9312" r="12.1616" fill="#01CF20"/>
<path d="M63.9592 63.0117L55.6741 71.2968L52.4179 68.0532L50.6453 69.8258L55.6741 74.8547L65.7319 64.797L63.9592 63.0117Z" fill="white"/>
<path d="M97.8816 65.2072C97.8058 64.5349 97.4933 64.014 96.9441 63.6447C96.3948 63.2707 95.7036 63.0836 94.8702 63.0836C94.2736 63.0836 93.7575 63.1783 93.3219 63.3677C92.8863 63.5524 92.5478 63.8081 92.3063 64.1348C92.0696 64.4567 91.9512 64.8237 91.9512 65.2356C91.9512 65.5813 92.0317 65.8796 92.1927 66.1305C92.3584 66.3815 92.5738 66.5922 92.839 66.7626C93.1089 66.9283 93.3977 67.068 93.7055 67.1816C94.0132 67.2905 94.3091 67.3805 94.5932 67.4515L96.0137 67.8208C96.4777 67.9345 96.9536 68.0884 97.4413 68.2825C97.9289 68.4766 98.3811 68.7323 98.7978 69.0495C99.2145 69.3668 99.5506 69.7598 99.8063 70.2285C100.067 70.6973 100.197 71.2583 100.197 71.9118C100.197 72.7356 99.9839 73.4672 99.5577 74.1064C99.1363 74.7456 98.5232 75.2498 97.7182 75.6191C96.9181 75.9885 95.9498 76.1731 94.8134 76.1731C93.7244 76.1731 92.7822 76.0003 91.9867 75.6547C91.1913 75.309 90.5686 74.819 90.1188 74.1845C89.669 73.5453 89.4204 72.7877 89.3731 71.9118H91.5748C91.6174 72.4373 91.7878 72.8753 92.0861 73.2257C92.3892 73.5713 92.7751 73.8294 93.2438 73.9998C93.7173 74.1655 94.2358 74.2484 94.7992 74.2484C95.4195 74.2484 95.9711 74.1513 96.454 73.9572C96.9417 73.7583 97.3252 73.4837 97.6046 73.1333C97.884 72.7782 98.0236 72.3639 98.0236 71.8904C98.0236 71.4596 97.9005 71.1068 97.6543 70.8322C97.4128 70.5576 97.0838 70.3303 96.6671 70.1504C96.2552 69.9705 95.7888 69.8118 95.268 69.6745L93.5492 69.2058C92.3844 68.8886 91.4611 68.4222 90.7793 67.8066C90.1022 67.1911 89.7637 66.3767 89.7637 65.3635C89.7637 64.5254 89.991 63.7939 90.4455 63.1689C90.9001 62.5439 91.5156 62.0585 92.2921 61.7129C93.0686 61.3625 93.9446 61.1873 94.9199 61.1873C95.9048 61.1873 96.7736 61.3601 97.5265 61.7058C98.2841 62.0514 98.8806 62.5273 99.3163 63.1333C99.7519 63.7347 99.9791 64.426 99.9981 65.2072H97.8816ZM109.56 71.4075V65.0225H111.69V75.9316H109.602V74.0424H109.488C109.238 74.6248 108.835 75.1101 108.281 75.4984C107.732 75.8819 107.048 76.0737 106.229 76.0737C105.528 76.0737 104.908 75.9198 104.368 75.612C103.833 75.2995 103.411 74.8379 103.104 74.2271C102.801 73.6163 102.649 72.8611 102.649 71.9615V65.0225H104.773V71.7058C104.773 72.4492 104.979 73.041 105.39 73.4814C105.802 73.9217 106.337 74.1419 106.996 74.1419C107.393 74.1419 107.789 74.0424 108.182 73.8436C108.579 73.6447 108.908 73.344 109.169 72.9416C109.434 72.5391 109.564 72.0278 109.56 71.4075ZM114.714 75.9316V61.3862H116.838V66.791H116.965C117.089 66.5637 117.266 66.301 117.498 66.0027C117.73 65.7044 118.052 65.444 118.464 65.2214C118.876 64.9941 119.42 64.8805 120.098 64.8805C120.978 64.8805 121.764 65.103 122.455 65.5481C123.147 65.9932 123.689 66.6348 124.082 67.4728C124.48 68.3109 124.678 69.3194 124.678 70.4984C124.678 71.6774 124.482 72.6883 124.089 73.5311C123.696 74.3691 123.156 75.0154 122.47 75.47C121.783 75.9198 120.999 76.1447 120.119 76.1447C119.456 76.1447 118.914 76.0334 118.492 75.8109C118.076 75.5884 117.749 75.3279 117.512 75.0297C117.276 74.7314 117.093 74.4662 116.965 74.2342H116.788V75.9316H114.714ZM116.795 70.4771C116.795 71.2441 116.906 71.9165 117.129 72.4941C117.351 73.0718 117.673 73.524 118.095 73.8507C118.516 74.1726 119.032 74.3336 119.643 74.3336C120.277 74.3336 120.808 74.1655 121.234 73.8294C121.66 73.4885 121.982 73.0268 122.2 72.4444C122.422 71.862 122.534 71.2063 122.534 70.4771C122.534 69.7574 122.425 69.1111 122.207 68.5382C121.994 67.9653 121.672 67.5131 121.241 67.1816C120.815 66.8502 120.282 66.6845 119.643 66.6845C119.027 66.6845 118.507 66.8431 118.08 67.1603C117.659 67.4776 117.339 67.9203 117.122 68.4885C116.904 69.0566 116.795 69.7195 116.795 70.4771ZM127.063 75.9316V65.0225H129.101V66.7981H129.236C129.464 66.1968 129.835 65.728 130.351 65.3919C130.868 65.051 131.485 64.8805 132.205 64.8805C132.934 64.8805 133.545 65.051 134.037 65.3919C134.535 65.7328 134.902 66.2015 135.138 66.7981H135.252C135.512 66.2157 135.927 65.7517 136.495 65.4061C137.063 65.0557 137.74 64.8805 138.526 64.8805C139.516 64.8805 140.323 65.1906 140.948 65.8109C141.578 66.4312 141.893 67.3663 141.893 68.6163V75.9316H139.769V68.8152C139.769 68.0765 139.568 67.5415 139.165 67.21C138.763 66.8786 138.282 66.7129 137.724 66.7129C137.032 66.7129 136.495 66.926 136.111 67.3521C135.728 67.7735 135.536 68.3156 135.536 68.9785V75.9316H133.42V68.6802C133.42 68.0884 133.235 67.6125 132.866 67.2527C132.496 66.8928 132.016 66.7129 131.424 66.7129C131.021 66.7129 130.65 66.8194 130.309 67.0325C129.973 67.2408 129.7 67.532 129.492 67.9061C129.288 68.2801 129.187 68.7134 129.187 69.2058V75.9316H127.063ZM144.739 75.9316V65.0225H146.862V75.9316H144.739ZM145.811 63.3393C145.442 63.3393 145.125 63.2162 144.86 62.97C144.599 62.719 144.469 62.4207 144.469 62.0751C144.469 61.7247 144.599 61.4264 144.86 61.1802C145.125 60.9293 145.442 60.8038 145.811 60.8038C146.181 60.8038 146.495 60.9293 146.756 61.1802C147.021 61.4264 147.154 61.7247 147.154 62.0751C147.154 62.4207 147.021 62.719 146.756 62.97C146.495 63.2162 146.181 63.3393 145.811 63.3393ZM154.812 65.0225V66.7271H148.853V65.0225H154.812ZM150.451 62.4089H152.574V72.7285C152.574 73.1404 152.636 73.4506 152.759 73.6589C152.882 73.8625 153.041 74.0022 153.235 74.0779C153.434 74.149 153.649 74.1845 153.881 74.1845C154.052 74.1845 154.201 74.1726 154.329 74.149C154.457 74.1253 154.556 74.1064 154.627 74.0922L155.01 75.8464C154.887 75.8938 154.712 75.9411 154.485 75.9885C154.258 76.0405 153.974 76.069 153.633 76.0737C153.074 76.0832 152.553 75.9837 152.07 75.7754C151.587 75.5671 151.197 75.2451 150.898 74.8095C150.6 74.3739 150.451 73.827 150.451 73.1689V62.4089ZM161.502 61.3862H163.995L167.795 67.9984H167.951L171.751 61.3862H174.243L168.966 70.2214V75.9316H166.779V70.2214L161.502 61.3862ZM178.943 76.1518C177.921 76.1518 177.028 75.9174 176.266 75.4487C175.504 74.9799 174.912 74.3242 174.49 73.4814C174.069 72.6386 173.858 71.6537 173.858 70.5268C173.858 69.3952 174.069 68.4056 174.49 67.5581C174.912 66.7105 175.504 66.0524 176.266 65.5836C177.028 65.1149 177.921 64.8805 178.943 64.8805C179.966 64.8805 180.859 65.1149 181.621 65.5836C182.383 66.0524 182.975 66.7105 183.397 67.5581C183.818 68.4056 184.029 69.3952 184.029 70.5268C184.029 71.6537 183.818 72.6386 183.397 73.4814C182.975 74.3242 182.383 74.9799 181.621 75.4487C180.859 75.9174 179.966 76.1518 178.943 76.1518ZM178.95 74.3691C179.613 74.3691 180.163 74.194 180.598 73.8436C181.034 73.4932 181.356 73.0268 181.564 72.4444C181.777 71.862 181.884 71.2205 181.884 70.5197C181.884 69.8237 181.777 69.1845 181.564 68.6021C181.356 68.015 181.034 67.5439 180.598 67.1887C180.163 66.8336 179.613 66.6561 178.95 66.6561C178.283 66.6561 177.729 66.8336 177.289 67.1887C176.853 67.5439 176.529 68.015 176.316 68.6021C176.107 69.1845 176.003 69.8237 176.003 70.5197C176.003 71.2205 176.107 71.862 176.316 72.4444C176.529 73.0268 176.853 73.4932 177.289 73.8436C177.729 74.194 178.283 74.3691 178.95 74.3691ZM193.31 71.4075V65.0225H195.44V75.9316H193.352V74.0424H193.238C192.988 74.6248 192.585 75.1101 192.031 75.4984C191.482 75.8819 190.798 76.0737 189.979 76.0737C189.278 76.0737 188.658 75.9198 188.118 75.612C187.583 75.2995 187.161 74.8379 186.854 74.2271C186.551 73.6163 186.399 72.8611 186.399 71.9615V65.0225H188.523V71.7058C188.523 72.4492 188.729 73.041 189.14 73.4814C189.552 73.9217 190.087 74.1419 190.746 74.1419C191.143 74.1419 191.539 74.0424 191.932 73.8436C192.329 73.6447 192.658 73.344 192.919 72.9416C193.184 72.5391 193.314 72.0278 193.31 71.4075ZM198.294 75.9316V65.0225H200.346V66.7555H200.46C200.659 66.1684 201.009 65.7067 201.511 65.3706C202.017 65.0297 202.59 64.8592 203.23 64.8592C203.362 64.8592 203.518 64.8639 203.698 64.8734C203.883 64.8829 204.027 64.8947 204.132 64.9089V66.9402C204.046 66.9165 203.895 66.8904 203.677 66.862C203.459 66.8289 203.241 66.8123 203.024 66.8123C202.522 66.8123 202.074 66.9189 201.681 67.1319C201.293 67.3403 200.985 67.6315 200.758 68.0055C200.531 68.3748 200.417 68.7962 200.417 69.2697V75.9316H198.294ZM211.433 75.9316V61.3862H216.617C217.744 61.3862 218.679 61.5803 219.423 61.9686C220.171 62.3568 220.73 62.8942 221.099 63.5808C221.468 64.2626 221.653 65.051 221.653 65.9458C221.653 66.836 221.466 67.6196 221.092 68.2967C220.723 68.969 220.164 69.4922 219.416 69.8663C218.672 70.2404 217.737 70.4274 216.61 70.4274H212.683V68.5382H216.411C217.122 68.5382 217.699 68.4364 218.144 68.2328C218.594 68.0292 218.923 67.7333 219.132 67.345C219.34 66.9567 219.444 66.4904 219.444 65.9458C219.444 65.3966 219.338 64.9207 219.124 64.5183C218.916 64.1158 218.587 63.8081 218.137 63.595C217.692 63.3772 217.107 63.2683 216.383 63.2683H213.627V75.9316H211.433ZM218.613 69.3691L222.207 75.9316H219.707L216.184 69.3691H218.613ZM228.718 76.1518C227.643 76.1518 226.717 75.9222 225.941 75.4629C225.169 74.9989 224.573 74.3478 224.151 73.5098C223.734 72.667 223.526 71.6797 223.526 70.5481C223.526 69.4307 223.734 68.4458 224.151 67.5936C224.573 66.7413 225.16 66.0761 225.912 65.5978C226.67 65.1196 227.555 64.8805 228.569 64.8805C229.184 64.8805 229.781 64.9823 230.359 65.1859C230.936 65.3895 231.455 65.7091 231.914 66.1447C232.373 66.5803 232.735 67.1461 233.001 67.8422C233.266 68.5334 233.398 69.3739 233.398 70.3635V71.1163H224.726V69.5254H231.317C231.317 68.9667 231.204 68.4719 230.976 68.041C230.749 67.6054 230.43 67.2621 230.018 67.0112C229.61 66.7602 229.132 66.6348 228.583 66.6348C227.986 66.6348 227.466 66.7815 227.02 67.0751C226.58 67.3639 226.239 67.7427 225.998 68.2115C225.761 68.6755 225.643 69.1797 225.643 69.7243V70.9672C225.643 71.6963 225.77 72.3166 226.026 72.8279C226.287 73.3393 226.649 73.7299 227.113 73.9998C227.577 74.265 228.119 74.3975 228.739 74.3975C229.142 74.3975 229.509 74.3407 229.84 74.2271C230.171 74.1087 230.458 73.9335 230.699 73.7015C230.941 73.4695 231.126 73.1831 231.253 72.8422L233.263 73.2044C233.102 73.7962 232.814 74.3147 232.397 74.7598C231.985 75.2001 231.466 75.5434 230.841 75.7896C230.221 76.0311 229.513 76.1518 228.718 76.1518ZM235.754 80.0225V65.0225H237.828V66.791H238.006C238.129 66.5637 238.307 66.301 238.539 66.0027C238.771 65.7044 239.093 65.444 239.504 65.2214C239.916 64.9941 240.461 64.8805 241.138 64.8805C242.019 64.8805 242.805 65.103 243.496 65.5481C244.187 65.9932 244.729 66.6348 245.122 67.4728C245.52 68.3109 245.719 69.3194 245.719 70.4984C245.719 71.6774 245.522 72.6883 245.129 73.5311C244.736 74.3691 244.197 75.0154 243.51 75.47C242.824 75.9198 242.04 76.1447 241.159 76.1447C240.496 76.1447 239.954 76.0334 239.533 75.8109C239.116 75.5884 238.789 75.3279 238.553 75.0297C238.316 74.7314 238.134 74.4662 238.006 74.2342H237.878V80.0225H235.754ZM237.835 70.4771C237.835 71.2441 237.947 71.9165 238.169 72.4941C238.392 73.0718 238.714 73.524 239.135 73.8507C239.557 74.1726 240.073 74.3336 240.683 74.3336C241.318 74.3336 241.848 74.1655 242.274 73.8294C242.7 73.4885 243.022 73.0268 243.24 72.4444C243.463 71.862 243.574 71.2063 243.574 70.4771C243.574 69.7574 243.465 69.1111 243.247 68.5382C243.034 67.9653 242.712 67.5131 242.281 67.1816C241.855 66.8502 241.323 66.6845 240.683 66.6845C240.068 66.6845 239.547 66.8431 239.121 67.1603C238.7 67.4776 238.38 67.9203 238.162 68.4885C237.944 69.0566 237.835 69.7195 237.835 70.4771ZM252.693 76.1518C251.671 76.1518 250.778 75.9174 250.016 75.4487C249.254 74.9799 248.662 74.3242 248.24 73.4814C247.819 72.6386 247.608 71.6537 247.608 70.5268C247.608 69.3952 247.819 68.4056 248.24 67.5581C248.662 66.7105 249.254 66.0524 250.016 65.5836C250.778 65.1149 251.671 64.8805 252.693 64.8805C253.716 64.8805 254.609 65.1149 255.371 65.5836C256.133 66.0524 256.725 66.7105 257.147 67.5581C257.568 68.4056 257.779 69.3952 257.779 70.5268C257.779 71.6537 257.568 72.6386 257.147 73.4814C256.725 74.3242 256.133 74.9799 255.371 75.4487C254.609 75.9174 253.716 76.1518 252.693 76.1518ZM252.7 74.3691C253.363 74.3691 253.913 74.194 254.348 73.8436C254.784 73.4932 255.106 73.0268 255.314 72.4444C255.527 71.862 255.634 71.2205 255.634 70.5197C255.634 69.8237 255.527 69.1845 255.314 68.6021C255.106 68.015 254.784 67.5439 254.348 67.1887C253.913 66.8336 253.363 66.6561 252.7 66.6561C252.033 66.6561 251.479 66.8336 251.039 67.1887C250.603 67.5439 250.279 68.015 250.066 68.6021C249.857 69.1845 249.753 69.8237 249.753 70.5197C249.753 71.2205 249.857 71.862 250.066 72.4444C250.279 73.0268 250.603 73.4932 251.039 73.8436C251.479 74.194 252.033 74.3691 252.7 74.3691ZM260.149 75.9316V65.0225H262.202V66.7555H262.315C262.514 66.1684 262.864 65.7067 263.366 65.3706C263.873 65.0297 264.446 64.8592 265.085 64.8592C265.218 64.8592 265.374 64.8639 265.554 64.8734C265.738 64.8829 265.883 64.8947 265.987 64.9089V66.9402C265.902 66.9165 265.75 66.8904 265.533 66.862C265.315 66.8289 265.097 66.8123 264.879 66.8123C264.377 66.8123 263.93 66.9189 263.537 67.1319C263.149 67.3403 262.841 67.6315 262.613 68.0055C262.386 68.3748 262.273 68.7962 262.273 69.2697V75.9316H260.149ZM273.562 65.0225V66.7271H267.603V65.0225H273.562ZM269.201 62.4089H271.324V72.7285C271.324 73.1404 271.386 73.4506 271.509 73.6589C271.632 73.8625 271.791 74.0022 271.985 74.0779C272.184 74.149 272.399 74.1845 272.631 74.1845C272.802 74.1845 272.951 74.1726 273.079 74.149C273.207 74.1253 273.306 74.1064 273.377 74.0922L273.76 75.8464C273.637 75.8938 273.462 75.9411 273.235 75.9885C273.008 76.0405 272.724 76.069 272.383 76.0737C271.824 76.0832 271.303 75.9837 270.82 75.7754C270.337 75.5671 269.947 75.2451 269.648 74.8095C269.35 74.3739 269.201 73.827 269.201 73.1689V62.4089ZM283.91 67.6859L281.985 68.0268C281.904 67.7806 281.777 67.5462 281.601 67.3237C281.431 67.1011 281.199 66.9189 280.905 66.7768C280.612 66.6348 280.245 66.5637 279.805 66.5637C279.203 66.5637 278.701 66.6987 278.299 66.9686C277.896 67.2337 277.695 67.577 277.695 67.9984C277.695 68.363 277.83 68.6565 278.1 68.8791C278.37 69.1016 278.805 69.2839 279.407 69.426L281.14 69.8237C282.144 70.0557 282.892 70.4132 283.384 70.8961C283.877 71.3791 284.123 72.0065 284.123 72.7782C284.123 73.4316 283.933 74.014 283.555 74.5254C283.18 75.032 282.657 75.4297 281.985 75.7186C281.317 76.0074 280.543 76.1518 279.662 76.1518C278.441 76.1518 277.444 75.8914 276.672 75.3706C275.901 74.845 275.427 74.0993 275.252 73.1333L277.305 72.8208C277.432 73.3559 277.695 73.7607 278.093 74.0353C278.491 74.3052 279.009 74.4402 279.648 74.4402C280.344 74.4402 280.901 74.2958 281.317 74.0069C281.734 73.7134 281.942 73.3559 281.942 72.9345C281.942 72.5936 281.814 72.3071 281.559 72.0751C281.308 71.8431 280.922 71.6679 280.401 71.5495L278.555 71.1447C277.537 70.9127 276.784 70.5434 276.296 70.0368C275.813 69.5301 275.572 68.8886 275.572 68.112C275.572 67.4681 275.752 66.9047 276.111 66.4217C276.471 65.9387 276.968 65.5623 277.603 65.2924C278.237 65.0178 278.964 64.8805 279.783 64.8805C280.962 64.8805 281.89 65.1362 282.567 65.6475C283.244 66.1542 283.692 66.8336 283.91 67.6859Z" fill="#222222"/>
</g>
<path d="M195.176 110.932H49.6428C47.6459 110.932 46.0271 113.133 46.0271 115.848C46.0271 118.564 47.6459 120.765 49.6428 120.765H195.176C197.173 120.765 198.792 118.564 198.792 115.848C198.792 113.133 197.173 110.932 195.176 110.932Z" fill="#F3F3F3"/>
<path d="M229.143 136.766H50.4663C48.0146 136.766 46.0271 138.967 46.0271 141.682C46.0271 144.398 48.0146 146.599 50.4663 146.599H229.143C231.595 146.599 233.582 144.398 233.582 141.682C233.582 138.967 231.595 136.766 229.143 136.766Z" fill="#F3F3F3"/>
</g>
<defs>
<filter id="filter0_d_4775_22024" x="0.0270996" y="0.931641" width="360" height="199.666" filterUnits="userSpaceOnUse" color-interpolation-filters="sRGB">
<feFlood flood-opacity="0" result="BackgroundImageFix"/>
<feColorMatrix in="SourceAlpha" type="matrix" values="0 0 0 0 0 0 0 0 0 0 0 0 0 0 0 0 0 0 127 0" result="hardAlpha"/>
<feOffset dx="4" dy="4"/>
<feGaussianBlur stdDeviation="15"/>
<feComposite in2="hardAlpha" operator="out"/>
<feColorMatrix type="matrix" values="0 0 0 0 0.834587 0 0 0 0 0.89001 0 0 0 0 0.9325 0 0 0 1 0"/>
<feBlend mode="normal" in2="BackgroundImageFix" result="effect1_dropShadow_4775_22024"/>
<feBlend mode="normal" in="SourceGraphic" in2="effect1_dropShadow_4775_22024" result="shape"/>
</filter>
<filter id="filter1_d_4775_22024" x="10.0271" y="10.9316" width="340" height="124" filterUnits="userSpaceOnUse" color-interpolation-filters="sRGB">
<feFlood flood-opacity="0" result="BackgroundImageFix"/>
<feColorMatrix in="SourceAlpha" type="matrix" values="0 0 0 0 0 0 0 0 0 0 0 0 0 0 0 0 0 0 127 0" result="hardAlpha"/>
<feOffset dx="4" dy="4"/>
<feGaussianBlur stdDeviation="10"/>
<feComposite in2="hardAlpha" operator="out"/>
<feColorMatrix type="matrix" values="0 0 0 0 0.834587 0 0 0 0 0.89001 0 0 0 0 0.9325 0 0 0 0.7 0"/>
<feBlend mode="normal" in2="BackgroundImageFix" result="effect1_dropShadow_4775_22024"/>
<feBlend mode="normal" in="SourceGraphic" in2="effect1_dropShadow_4775_22024" result="shape"/>
</filter>
</defs>
</svg>
