<svg width="24" height="24" viewBox="0 0 24 24" fill="none" xmlns="http://www.w3.org/2000/svg">
<rect width="24" height="24" rx="12" fill="#2AA285"/>
<path d="M14.0449 5.5527C14.2469 5.50628 14.4584 5.5239 14.6499 5.60312C14.8414 5.68234 15.0035 5.81923 15.1137 5.99478L16.1056 7.57848C16.1856 7.70603 16.2934 7.81384 16.421 7.89382L18.0047 8.88575C18.1806 8.99585 18.3178 9.15806 18.3972 9.3498C18.4767 9.54154 18.4943 9.75327 18.4478 9.95552L18.0286 11.7757C17.9948 11.9228 17.9948 12.0757 18.0286 12.2228L18.4478 14.044C18.4939 14.2459 18.476 14.4572 18.3966 14.6486C18.3172 14.8399 18.1802 15.0018 18.0047 15.1118L16.421 16.1047C16.2934 16.1847 16.1856 16.2925 16.1056 16.42L15.1137 18.0037C15.0037 18.1795 14.8416 18.3166 14.6501 18.396C14.4586 18.4754 14.247 18.4931 14.0449 18.4468L12.2237 18.0277C12.077 17.994 11.9245 17.994 11.7777 18.0277L9.95647 18.4468C9.75437 18.4931 9.54286 18.4754 9.35132 18.396C9.15978 18.3166 8.99774 18.1795 8.8877 18.0037L7.89577 16.42C7.8155 16.2924 7.70734 16.1846 7.57943 16.1047L5.99673 15.1128C5.82099 15.0027 5.6839 14.8407 5.60449 14.6491C5.52509 14.4576 5.50732 14.2461 5.55365 14.044L5.97178 12.2228C6.00559 12.0757 6.00559 11.9228 5.97178 11.7757L5.55265 9.95552C5.50619 9.75317 5.524 9.54137 5.6036 9.34962C5.6832 9.15786 5.82062 8.99571 5.99673 8.88575L7.57943 7.89382C7.70734 7.81396 7.8155 7.70614 7.89577 7.57848L8.8877 5.99478C8.99781 5.81942 9.15976 5.68265 9.35108 5.60344C9.5424 5.52423 9.75362 5.5065 9.95547 5.5527L11.7777 5.97083C11.9245 6.00449 12.077 6.00449 12.2237 5.97083L14.0449 5.5527Z" stroke="white" stroke-width="1.5"/>
<path d="M9.52148 12.5342L11.5522 14.4792L14.4811 9.51953" stroke="white" stroke-width="1.5" stroke-linecap="round" stroke-linejoin="round"/>
</svg>
