<svg width="20" height="21" viewBox="0 0 20 21" fill="none" xmlns="http://www.w3.org/2000/svg">
<path d="M4.001 4.41602C4.001 3.88558 4.21171 3.37687 4.58679 3.0018C4.96186 2.62673 5.47057 2.41602 6.001 2.41602H10.586C10.7831 2.41606 10.9782 2.45494 11.1603 2.53044C11.3423 2.60593 11.5077 2.71657 11.647 2.85602L15.561 6.77002C15.8424 7.05105 16.0007 7.43232 16.001 7.83002V9.49802C16.293 9.60173 16.5458 9.79336 16.7245 10.0466C16.9032 10.2998 16.9991 10.6021 16.999 10.912V14.915C16.9991 15.2249 16.9032 15.5273 16.7245 15.7805C16.5458 16.0337 16.293 16.2253 16.001 16.329V16.416C16.001 16.9464 15.7903 17.4552 15.4152 17.8302C15.0401 18.2053 14.5314 18.416 14.001 18.416H6C5.46957 18.416 4.96086 18.2053 4.58579 17.8302C4.21071 17.4552 4 16.9464 4 16.416V16.329C3.70774 16.2257 3.45468 16.0344 3.27561 15.7813C3.09653 15.5283 3.00025 15.226 3 14.916V10.913C3.00004 10.6029 3.09623 10.3003 3.27532 10.0471C3.4544 9.79389 3.70758 9.6024 4 9.49902L4.001 4.41602ZM15.001 8.41602H11.501C11.3039 8.41615 11.1088 8.37745 10.9267 8.30212C10.7446 8.2268 10.5791 8.11633 10.4397 7.97703C10.3003 7.83773 10.1897 7.67233 10.1143 7.49027C10.0388 7.30822 10 7.11308 10 6.91602V3.41602H6C5.73478 3.41602 5.48043 3.52137 5.29289 3.70891C5.10536 3.89645 5 4.1508 5 4.41602V9.41202H15L15.001 8.41602ZM5 16.415C4.99987 16.5464 5.02564 16.6766 5.07583 16.798C5.12603 16.9194 5.19967 17.0298 5.29254 17.1228C5.38541 17.2157 5.49569 17.2895 5.61709 17.3398C5.73848 17.3901 5.86859 17.416 6 17.416H14C14.1314 17.416 14.2615 17.3901 14.3829 17.3398C14.5043 17.2895 14.6146 17.2157 14.7075 17.1228C14.8003 17.0298 14.874 16.9194 14.9242 16.798C14.9744 16.6766 15.0001 16.5464 15 16.415H5ZM11 3.62302V6.91602C11 7.04862 11.0527 7.1758 11.1464 7.26957C11.2402 7.36334 11.3674 7.41602 11.5 7.41602H14.792L11 3.62302ZM4.502 10.412C4.36939 10.412 4.24221 10.4647 4.14845 10.5585C4.05468 10.6522 4.002 10.7794 4.002 10.912V14.915C4.002 15.0476 4.05468 15.1748 4.14845 15.2686C4.24221 15.3623 4.36939 15.415 4.502 15.415H15.499C15.6316 15.415 15.7588 15.3623 15.8526 15.2686C15.9463 15.1748 15.999 15.0476 15.999 14.915V10.912C15.999 10.7794 15.9463 10.6522 15.8526 10.5585C15.7588 10.4647 15.6316 10.412 15.499 10.412H4.502Z" fill="#0078D4"/>
<path d="M4.88826 12.014V11.5069H7.27747V12.014H6.38684V14.416H5.77889V12.014H4.88826ZM9.41489 14.4586C9.21414 14.4586 9.04084 14.4226 8.89501 14.3507C8.74918 14.2787 8.63696 14.1812 8.55836 14.0581C8.48071 13.934 8.44188 13.7958 8.44188 13.6433C8.44188 13.5297 8.46461 13.4288 8.51007 13.3407C8.55552 13.2527 8.61897 13.1717 8.70041 13.0978C8.78185 13.023 8.87654 12.9487 8.9845 12.8748L9.54842 12.5041C9.62133 12.4577 9.67484 12.4089 9.70893 12.3578C9.74302 12.3057 9.76007 12.2493 9.76007 12.1887C9.76007 12.131 9.73686 12.0775 9.69046 12.0282C9.64406 11.979 9.57825 11.9548 9.49302 11.9558C9.4362 11.9558 9.38696 11.9686 9.34529 11.9941C9.30363 12.0188 9.27096 12.0514 9.24728 12.0922C9.22455 12.1319 9.21319 12.1764 9.21319 12.2257C9.21319 12.2863 9.23024 12.3478 9.26433 12.4103C9.29842 12.4728 9.34387 12.5391 9.40069 12.6092C9.45751 12.6783 9.51953 12.7531 9.58677 12.8336L10.966 14.416H10.3353L9.18478 13.1348C9.10902 13.0486 9.03327 12.9586 8.95751 12.8649C8.8827 12.7702 8.8202 12.6698 8.77001 12.5637C8.71982 12.4567 8.69472 12.3407 8.69472 12.2157C8.69472 12.0746 8.72739 11.9477 8.79274 11.835C8.85902 11.7224 8.95183 11.6333 9.07114 11.568C9.19046 11.5017 9.32967 11.4686 9.48876 11.4686C9.64406 11.4686 9.77806 11.5003 9.89075 11.5637C10.0044 11.6262 10.0915 11.7096 10.1521 11.8137C10.2137 11.917 10.2444 12.0306 10.2444 12.1547C10.2444 12.292 10.2103 12.4165 10.1422 12.5282C10.0749 12.639 9.98024 12.7385 9.85808 12.8265L9.26433 13.2541C9.18383 13.3128 9.12418 13.3729 9.08535 13.4345C9.04747 13.4951 9.02853 13.5533 9.02853 13.6092C9.02853 13.6783 9.04558 13.7404 9.07967 13.7953C9.11376 13.8502 9.16205 13.8938 9.22455 13.926C9.28705 13.9572 9.36044 13.9728 9.44472 13.9728C9.547 13.9728 9.64785 13.9496 9.74728 13.9032C9.84766 13.8559 9.93857 13.7891 10.02 13.7029C10.1024 13.6158 10.1682 13.5126 10.2175 13.3933C10.2667 13.274 10.2913 13.1419 10.2913 12.997H10.7927C10.7927 13.175 10.7733 13.3355 10.7345 13.4785C10.6957 13.6206 10.6417 13.7446 10.5726 13.8507C10.5034 13.9558 10.4244 14.042 10.3353 14.1092C10.3069 14.1272 10.2795 14.1442 10.253 14.1603C10.2264 14.1764 10.199 14.1935 10.1706 14.2115C10.0626 14.2986 9.94188 14.3616 9.80836 14.4004C9.67578 14.4392 9.54463 14.4586 9.41489 14.4586ZM14.7963 12.5254H14.1741C14.1628 12.4449 14.1396 12.3734 14.1045 12.3109C14.0695 12.2475 14.0245 12.1935 13.9696 12.149C13.9147 12.1045 13.8512 12.0704 13.7792 12.0467C13.7082 12.023 13.631 12.0112 13.5477 12.0112C13.3971 12.0112 13.266 12.0486 13.1542 12.1234C13.0425 12.1973 12.9559 12.3052 12.8943 12.4473C12.8327 12.5884 12.802 12.7598 12.802 12.9615C12.802 13.1689 12.8327 13.3431 12.8943 13.4842C12.9568 13.6253 13.0439 13.7318 13.1557 13.8038C13.2674 13.8758 13.3967 13.9118 13.5434 13.9118C13.6258 13.9118 13.7021 13.9009 13.7721 13.8791C13.8432 13.8573 13.9061 13.8256 13.9611 13.7839C14.016 13.7413 14.0614 13.6897 14.0974 13.6291C14.1344 13.5685 14.1599 13.4993 14.1741 13.4217L14.7963 13.4245C14.7802 13.5581 14.7399 13.6868 14.6755 13.8109C14.6121 13.934 14.5264 14.0443 14.4184 14.1419C14.3114 14.2385 14.1836 14.3152 14.0349 14.372C13.8872 14.4279 13.7201 14.4558 13.5335 14.4558C13.274 14.4558 13.042 14.3971 12.8375 14.2797C12.6339 14.1622 12.4729 13.9922 12.3545 13.7697C12.2371 13.5472 12.1784 13.2778 12.1784 12.9615C12.1784 12.6442 12.238 12.3743 12.3574 12.1518C12.4767 11.9293 12.6386 11.7598 12.8432 11.6433C13.0477 11.5259 13.2778 11.4672 13.5335 11.4672C13.7021 11.4672 13.8583 11.4908 14.0023 11.5382C14.1471 11.5855 14.2755 11.6547 14.3872 11.7456C14.4989 11.8355 14.5898 11.9458 14.6599 12.0765C14.7309 12.2072 14.7764 12.3568 14.7963 12.5254Z" fill="#0078D4"/>
</svg>
