<svg width="24" height="25" viewBox="0 0 24 25" fill="none" xmlns="http://www.w3.org/2000/svg">
<g id="heroicons:hand-thumb-up">
<path id="Vector" d="M6.633 11.1289C7.439 11.1289 8.166 10.6829 8.664 10.0489C9.43939 9.05768 10.414 8.24008 11.525 7.64891C12.248 7.26491 12.875 6.69291 13.178 5.93391C13.3908 5.40214 13.5001 4.83465 13.5 4.26191V3.62891C13.5 3.42999 13.579 3.23923 13.7197 3.09858C13.8603 2.95792 14.0511 2.87891 14.25 2.87891C14.8467 2.87891 15.419 3.11596 15.841 3.53792C16.263 3.95987 16.5 4.53217 16.5 5.12891C16.5 6.28091 16.24 7.37191 15.777 8.34691C15.511 8.90491 15.884 9.62891 16.502 9.62891M16.502 9.62891H19.628C20.654 9.62891 21.573 10.3229 21.682 11.3439C21.7273 11.7659 21.75 12.1942 21.75 12.6289C21.7541 15.3653 20.8191 18.0201 19.101 20.1499C18.713 20.6319 18.114 20.8789 17.496 20.8789H13.48C12.9964 20.8792 12.5159 20.8015 12.057 20.6489L8.943 19.6089C8.48411 19.4563 8.00361 19.3786 7.52 19.3789H5.904C5.98734 19.5836 6.07734 19.7842 6.174 19.9809C6.371 20.3809 6.096 20.8789 5.651 20.8789H4.743C3.854 20.8789 3.03 20.3609 2.771 19.5109C2.42465 18.3742 2.24906 17.1923 2.25 16.0039C2.25 14.4509 2.545 12.9679 3.081 11.6059C3.387 10.8319 4.167 10.3789 5 10.3789H6.053C6.525 10.3789 6.798 10.9349 6.553 11.3389C5.69899 12.7449 5.24853 14.3589 5.251 16.0039C5.25012 17.1605 5.47217 18.3064 5.905 19.3789M16.502 9.62891H14.25" stroke="black" stroke-width="2" stroke-linecap="round" stroke-linejoin="round"/>
</g>
</svg>
