<svg width="24" height="25" viewBox="0 0 24 25" fill="none" xmlns="http://www.w3.org/2000/svg">
<path d="M12.0001 21.0627C14.0823 21.0627 16.1001 20.3407 17.7096 19.0198C19.3192 17.6988 20.4209 15.8607 20.8271 13.8185C21.2333 11.7763 20.9188 9.65644 19.9373 7.82011C18.9557 5.98379 17.3678 4.54461 15.4441 3.74781C13.5204 2.951 11.3799 2.84586 9.38739 3.4503C7.39486 4.05475 5.67355 5.33137 4.51675 7.06266C3.35996 8.79396 2.83925 10.8728 3.04336 12.945C3.24746 15.0171 4.16375 16.9544 5.63609 18.4267" stroke="#0066CC" style="stroke:#0066CC;stroke:color(display-p3 0.0000 0.4000 0.8000);stroke-opacity:1;" stroke-width="2" stroke-linecap="round"/>
<path d="M16 10.0627L12.402 14.3807C11.747 15.1667 11.419 15.5607 10.978 15.5807C10.537 15.6007 10.175 15.2377 9.451 14.5137L8 13.0627" stroke="#0066CC" style="stroke:#0066CC;stroke:color(display-p3 0.0000 0.4000 0.8000);stroke-opacity:1;" stroke-width="2" stroke-linecap="round"/>
</svg>
