<svg width="24" height="24" viewBox="0 0 24 24" fill="none" xmlns="http://www.w3.org/2000/svg">
<path d="M12.0001 21C14.0823 21 16.1001 20.278 17.7096 18.957C19.3192 17.6361 20.4209 15.7979 20.8271 13.7557C21.2333 11.7136 20.9188 9.5937 19.9373 7.75737C18.9557 5.92104 17.3678 4.48187 15.4441 3.68506C13.5204 2.88825 11.3799 2.78311 9.38739 3.38756C7.39486 3.992 5.67355 5.26863 4.51675 6.99992C3.35996 8.73121 2.83925 10.81 3.04336 12.8822C3.24746 14.9544 4.16375 16.8917 5.63609 18.364" stroke="#1D3557" stroke-width="2" stroke-linecap="round"/>
<path d="M16 10L12.402 14.318C11.747 15.104 11.419 15.498 10.978 15.518C10.537 15.538 10.175 15.175 9.451 14.451L8 13" stroke="#1D3557" stroke-width="2" stroke-linecap="round"/>
</svg>
