<svg width="18" height="17" viewBox="0 0 18 17" fill="none" xmlns="http://www.w3.org/2000/svg">
<path d="M16.2905 8.33356L17.2105 6.74356C17.3211 6.55227 17.3511 6.32489 17.2941 6.11142C17.2371 5.89796 17.0976 5.71588 16.9063 5.60523L15.3147 4.68523V2.8519C15.3147 2.63088 15.2269 2.41892 15.0706 2.26264C14.9143 2.10636 14.7023 2.01856 14.4813 2.01856H12.6488L11.7297 0.427731C11.6192 0.23634 11.4373 0.0966558 11.2238 0.0393977C11.1181 0.0110656 11.0078 0.00384267 10.8993 0.0181413C10.7908 0.0324398 10.6861 0.0679799 10.5913 0.122731L8.99966 1.04273L7.40799 0.121898C7.21659 0.0113957 6.98914 -0.0185498 6.77566 0.0386484C6.56218 0.0958466 6.38017 0.235504 6.26966 0.426898L5.34966 2.01856H3.51716C3.29615 2.01856 3.08418 2.10636 2.9279 2.26264C2.77162 2.41892 2.68383 2.63088 2.68383 2.8519V4.6844L1.09216 5.6044C0.99735 5.65919 0.914268 5.73212 0.847663 5.81904C0.781058 5.90596 0.732236 6.00515 0.703987 6.11094C0.675739 6.21674 0.668618 6.32707 0.683033 6.43561C0.697447 6.54416 0.733113 6.64881 0.787993 6.74356L1.70799 8.33356L0.787993 9.92356C0.677983 10.115 0.648136 10.3422 0.704958 10.5556C0.76178 10.769 0.900663 10.9513 1.09133 11.0627L2.68299 11.9827V13.8152C2.68299 14.0362 2.77079 14.2482 2.92707 14.4045C3.08335 14.5608 3.29531 14.6486 3.51633 14.6486H5.34966L6.26966 16.2402C6.34344 16.3664 6.44877 16.4711 6.57531 16.5441C6.70184 16.6172 6.84522 16.6561 6.99133 16.6569C7.13633 16.6569 7.28049 16.6186 7.40883 16.5444L8.99883 15.6244L10.5905 16.5444C10.7818 16.655 11.0092 16.685 11.2226 16.628C11.4361 16.571 11.6182 16.4315 11.7288 16.2402L12.648 14.6486H14.4805C14.7015 14.6486 14.9135 14.5608 15.0697 14.4045C15.226 14.2482 15.3138 14.0362 15.3138 13.8152V11.9827L16.9055 11.0627C17.0003 11.0079 17.0834 10.935 17.15 10.8481C17.2166 10.7612 17.2654 10.662 17.2937 10.5562C17.3219 10.4504 17.329 10.3401 17.3146 10.2315C17.3002 10.123 17.2645 10.0183 17.2097 9.92356L16.2905 8.33356ZM6.91549 4.15856C7.24712 4.15868 7.56513 4.29052 7.79955 4.5251C8.03397 4.75967 8.1656 5.07777 8.16549 5.4094C8.16538 5.74103 8.03354 6.05903 7.79896 6.29345C7.56438 6.52787 7.24629 6.65951 6.91466 6.6594C6.58303 6.65929 6.26502 6.52744 6.0306 6.29286C5.79618 6.05829 5.66455 5.7402 5.66466 5.40856C5.66477 5.07693 5.79662 4.75893 6.03119 4.52451C6.26577 4.29009 6.58386 4.15845 6.91549 4.15856ZM7.16549 12.1586L5.83216 11.1594L10.8322 4.49273L12.1655 5.4919L7.16549 12.1586ZM11.0822 12.4919C10.918 12.4918 10.7554 12.4594 10.6037 12.3966C10.452 12.3337 10.3142 12.2415 10.1981 12.1254C10.082 12.0092 9.98997 11.8713 9.92718 11.7196C9.86439 11.5679 9.8321 11.4053 9.83216 11.2411C9.83221 11.0769 9.86461 10.9143 9.9275 10.7626C9.99039 10.6109 10.0825 10.4731 10.1987 10.357C10.3148 10.2409 10.4527 10.1489 10.6044 10.0861C10.7562 10.0233 10.9188 9.99101 11.083 9.99107C11.4146 9.99118 11.7326 10.123 11.967 10.3576C12.2015 10.5922 12.3331 10.9103 12.333 11.2419C12.3329 11.5735 12.201 11.8915 11.9665 12.126C11.7319 12.3604 11.4138 12.492 11.0822 12.4919Z" fill="#F58220"/>
</svg>
