<svg width="20" height="21" viewBox="0 0 20 21" fill="none" xmlns="http://www.w3.org/2000/svg">
<path d="M3.81669 7.32209L1.66669 7.19193C3.20752 3.15114 7.63169 0.850857 11.9442 1.99419C16.5384 3.21324 19.2675 7.87929 18.0392 12.4152C17.0234 16.1676 13.6192 18.6567 9.87252 18.7154" stroke="#0078D4" stroke-width="1.5" stroke-linecap="round" stroke-linejoin="round"/>
<path d="M10 18.7151C5.41669 18.7151 1.66669 14.4616 1.66669 9.35742" stroke="#0078D4" stroke-width="1.5" stroke-linecap="round" stroke-linejoin="round"/>
<path d="M12.9167 6.66602H8.75002M8.75002 6.66602H7.91669M8.75002 6.66602C9.41306 6.66602 10.0489 6.92941 10.5178 7.39825C10.9866 7.86709 11.25 8.50297 11.25 9.16602M11.25 9.16602C11.25 9.82906 10.9866 10.4649 10.5178 10.9338C10.0489 11.4026 9.41306 11.666 8.75002 11.666H7.91669L10.4167 14.166M11.25 9.16602H7.91669M11.25 9.16602H12.9167" stroke="#0078D4" stroke-linecap="round" stroke-linejoin="round"/>
</svg>
