<svg width="25" height="25" viewBox="0 0 25 25" fill="none" xmlns="http://www.w3.org/2000/svg">
<path d="M3.77832 14.5773V16.3217C3.77832 18.7882 3.77832 20.0223 4.54496 20.7881C5.31072 21.5547 6.54484 21.5547 9.01133 21.5547H15.9887M15.9887 21.5547C18.4552 21.5547 19.6893 21.5547 20.455 20.7881C21.2217 20.0223 21.2217 18.7882 21.2217 16.3217V12.833C21.2217 10.3665 21.2217 9.1324 20.455 8.36664C19.6893 7.6 18.4552 7.6 15.9887 7.6M15.9887 21.5547V14.5773M15.9887 7.6H9.01133C6.54484 7.6 5.31072 7.6 4.54496 8.36664C3.98502 8.9257 3.83414 9.73419 3.79315 11.0887M15.9887 7.6V11.0887M9.8835 4.11133L12.5 7.16392L15.1165 4.11133" stroke="#0078D4" stroke-linecap="round"/>
<path d="M19.4777 16.3218C19.4777 16.0905 19.3858 15.8686 19.2223 15.7051C19.0587 15.5415 18.8369 15.4496 18.6056 15.4496C18.3743 15.4496 18.1524 15.5415 17.9888 15.7051C17.8253 15.8686 17.7334 16.0905 17.7334 16.3218C17.7334 16.5531 17.8253 16.7749 17.9888 16.9385C18.1524 17.1021 18.3743 17.1939 18.6056 17.1939C18.8369 17.1939 19.0587 17.1021 19.2223 16.9385C19.3858 16.7749 19.4777 16.5531 19.4777 16.3218ZM19.4777 12.8331C19.4777 12.6018 19.3858 12.38 19.2223 12.2164C19.0587 12.0528 18.8369 11.9609 18.6056 11.9609C18.3743 11.9609 18.1524 12.0528 17.9888 12.2164C17.8253 12.38 17.7334 12.6018 17.7334 12.8331C17.7334 13.0644 17.8253 13.2863 17.9888 13.4498C18.1524 13.6134 18.3743 13.7053 18.6056 13.7053C18.8369 13.7053 19.0587 13.6134 19.2223 13.4498C19.3858 13.2863 19.4777 13.0644 19.4777 12.8331Z" fill="#0078D4"/>
</svg>
