<svg width="19" height="17" viewBox="0 0 19 17" fill="none" xmlns="http://www.w3.org/2000/svg">
<path d="M8.27573 15.3898L8.275 15.3892C5.94743 13.3444 4.05646 11.68 2.74153 10.1214C1.43156 8.56873 0.75 7.18538 0.75 5.71141C0.75 3.30868 2.68849 1.41577 5.2 1.41577C6.62064 1.41577 7.98814 2.05902 8.87574 3.06095L9.25 3.48342L9.62426 3.06095C10.5119 2.05902 11.8794 1.41577 13.3 1.41577C15.8115 1.41577 17.75 3.30868 17.75 5.71141C17.75 7.18538 17.0684 8.56873 15.7585 10.1214C14.4435 11.68 12.5526 13.3444 10.225 15.3892L10.2243 15.3898L9.25 16.2491L8.27573 15.3898Z" fill="#0078D4" stroke="#0078D4"/>
</svg>
