<svg width="33" height="32" viewBox="0 0 33 32" fill="none" xmlns="http://www.w3.org/2000/svg">
<g clip-path="url(#clip0_7414_29022)">
<path d="M5.50375 27.3113C3.97559 25.8354 2.75667 24.0699 1.91813 22.1178C1.07959 20.1658 0.638206 18.0662 0.619745 15.9418C0.601284 13.8173 1.00611 11.7104 1.81061 9.74408C2.6151 7.77774 3.80315 5.99131 5.30543 4.48903C6.80772 2.98674 8.59415 1.79869 10.5605 0.994199C12.5268 0.189705 14.6337 -0.215123 16.7582 -0.196662C18.8826 -0.1782 20.9822 0.263179 22.9342 1.10172C24.8863 1.94027 26.6518 3.15918 28.1278 4.68735C31.0423 7.70498 32.655 11.7466 32.6185 15.9418C32.5821 20.1369 30.8994 24.1499 27.9328 27.1164C24.9663 30.083 20.9533 31.7657 16.7582 31.8021C12.563 31.8386 8.52139 30.2259 5.50375 27.3113ZM25.8718 25.0553C28.2736 22.6535 29.6229 19.396 29.6229 15.9993C29.6229 12.6027 28.2736 9.34515 25.8718 6.94335C23.47 4.54155 20.2124 3.19223 16.8158 3.19223C13.4191 3.19223 10.1616 4.54155 7.75975 6.94335C5.35795 9.34515 4.00863 12.6027 4.00863 15.9993C4.00863 19.396 5.35795 22.6535 7.75975 25.0553C10.1616 27.4571 13.4191 28.8065 16.8158 28.8065C20.2124 28.8065 23.47 27.4571 25.8718 25.0553ZM15.2158 7.99935H18.4158V17.5993H15.2158V7.99935ZM15.2158 20.7993H18.4158V23.9993H15.2158V20.7993Z" fill="#FF1717"/>
</g>
<defs>
<clipPath id="clip0_7414_29022">
<rect width="32" height="32" fill="white" transform="translate(0.816406)"/>
</clipPath>
</defs>
</svg>
