<svg width="33" height="32" viewBox="0 0 33 32" fill="none" xmlns="http://www.w3.org/2000/svg">
<path d="M7.57688 25.5908C6.30325 24.3607 5.28736 22.8892 4.58849 21.2623C3.88961 19.6354 3.52175 17.8855 3.50636 16.1149C3.49098 14.3443 3.82837 12.5884 4.49887 10.9496C5.16937 9.31073 6.15953 7.82185 7.41159 6.56979C8.66365 5.31773 10.1525 4.32757 11.7914 3.65707C13.4302 2.98658 15.1861 2.64918 16.9567 2.66457C18.7273 2.67995 20.4772 3.04781 22.1041 3.74669C23.731 4.44556 25.2025 5.46145 26.4326 6.73508C28.8616 9.25009 30.2057 12.6185 30.1754 16.1149C30.145 19.6113 28.7425 22.9559 26.2701 25.4283C23.7977 27.9007 20.4531 29.3032 16.9567 29.3336C13.4603 29.3639 10.0919 28.0198 7.57688 25.5908ZM24.5523 23.7105C26.5541 21.7088 27.6787 18.9938 27.6787 16.1629C27.6787 13.332 26.5541 10.6171 24.5523 8.61532C22.5506 6.61357 19.8356 5.48899 17.0047 5.48899C14.1738 5.48899 11.4589 6.61357 9.45711 8.61532C7.45536 10.6171 6.33079 13.332 6.33079 16.1629C6.33079 18.9938 7.45536 21.7088 9.45711 23.7105C11.4589 25.7123 14.1738 26.8369 17.0047 26.8369C19.8356 26.8369 22.5506 25.7123 24.5523 23.7105ZM15.6712 9.49543H18.3382V17.4964H15.6712V9.49543ZM15.6712 20.1634H18.3382V22.8304H15.6712V20.1634Z" fill="#FF1717"/>
</svg>
