<svg width="24" height="25" viewBox="0 0 24 25" fill="none" xmlns="http://www.w3.org/2000/svg">
<path fill-rule="evenodd" clip-rule="evenodd" d="M11.4999 4.31907C8.85086 4.31907 6.73886 6.69907 7.02686 9.31907C7.05354 9.56167 6.99146 9.80573 6.85212 10.0061C6.71277 10.2065 6.50558 10.3496 6.26886 10.4091C5.56179 10.5903 4.94496 11.0229 4.53377 11.6259C4.12257 12.229 3.94518 12.9612 4.03478 13.6856C4.12438 14.41 4.47483 15.0769 5.02057 15.5616C5.56631 16.0463 6.26995 16.3156 6.99986 16.3191H7.99986C8.26507 16.3191 8.51943 16.4244 8.70696 16.612C8.8945 16.7995 8.99986 17.0539 8.99986 17.3191C8.99986 17.5843 8.8945 17.8386 8.70696 18.0262C8.51943 18.2137 8.26507 18.3191 7.99986 18.3191H6.99986C5.85057 18.3198 4.73611 17.9246 3.84405 17.2C2.95199 16.4754 2.3368 15.4655 2.10203 14.3405C1.86725 13.2154 2.02722 12.0438 2.55501 11.0229C3.0828 10.002 3.94619 9.19403 4.99986 8.73507C5.01792 7.219 5.5654 5.75695 6.54756 4.60189C7.52972 3.44684 8.88476 2.67147 10.3782 2.40994C11.8717 2.14841 13.4095 2.41719 14.7258 3.16977C16.042 3.92234 17.0537 5.11136 17.5859 6.53107C18.9852 6.91697 20.1972 7.79689 20.9975 9.00787C21.7978 10.2188 22.1322 11.6788 21.9386 13.1174C21.7451 14.556 21.0367 15.8757 19.9448 16.8321C18.8529 17.7884 17.4514 18.3167 15.9999 18.3191C15.7346 18.3191 15.4803 18.2137 15.2928 18.0262C15.1052 17.8386 14.9999 17.5843 14.9999 17.3191C14.9999 17.0539 15.1052 16.7995 15.2928 16.612C15.4803 16.4244 15.7346 16.3191 15.9999 16.3191C17.0049 16.3206 17.9737 15.9437 18.7134 15.2634C19.4532 14.5831 19.9098 13.6493 19.9924 12.6476C20.0749 11.646 19.7774 10.65 19.159 9.85777C18.5406 9.06553 17.6466 8.53513 16.6549 8.37207C16.4639 8.3405 16.286 8.25472 16.1424 8.12494C15.9988 7.99517 15.8955 7.82687 15.8449 7.64007C15.5859 6.68616 15.02 5.84405 14.2347 5.2438C13.4494 4.64356 12.4883 4.31859 11.4999 4.31907ZM12.9999 12.7351L14.2929 14.0271C14.3858 14.1199 14.4962 14.1935 14.6176 14.2437C14.739 14.2939 14.8692 14.3197 15.0006 14.3196C15.132 14.3195 15.262 14.2936 15.3834 14.2432C15.5048 14.1928 15.615 14.119 15.7079 14.0261C15.8007 13.9331 15.8743 13.8227 15.9245 13.7013C15.9747 13.5799 16.0005 13.4498 16.0004 13.3184C16.0003 13.187 15.9743 13.0569 15.924 12.9355C15.8736 12.8142 15.7998 12.7039 15.7069 12.6111L12.8829 9.79207C12.6485 9.55819 12.3309 9.42684 11.9999 9.42684C11.6688 9.42684 11.3512 9.55819 11.1169 9.79207L8.29286 12.6121C8.10522 12.7996 7.99975 13.0539 7.99966 13.3192C7.99956 13.5845 8.10485 13.8389 8.29236 14.0266C8.47987 14.2142 8.73423 14.3197 8.9995 14.3198C9.26477 14.3199 9.51922 14.2146 9.70686 14.0271L10.9999 12.7351V21.3191C10.9999 21.5843 11.1052 21.8386 11.2928 22.0262C11.4803 22.2137 11.7346 22.3191 11.9999 22.3191C12.2651 22.3191 12.5194 22.2137 12.707 22.0262C12.8945 21.8386 12.9999 21.5843 12.9999 21.3191V12.7351Z" fill="white"/>
</svg>
