<svg width="15" height="15" viewBox="0 0 15 15" fill="none" xmlns="http://www.w3.org/2000/svg">
<path fill-rule="evenodd" clip-rule="evenodd" d="M4.50082 2.21729C4.30191 2.21729 4.11115 2.13827 3.97049 1.99762C3.82984 1.85696 3.75082 1.6662 3.75082 1.46729C3.75082 1.26837 3.82984 1.07761 3.97049 0.936955C4.11115 0.796303 4.30191 0.717285 4.50082 0.717285H13.5008C13.6997 0.717285 13.8905 0.796303 14.0312 0.936955C14.1718 1.07761 14.2508 1.26837 14.2508 1.46729V10.4673C14.2508 10.6662 14.1718 10.857 14.0312 10.9976C13.8905 11.1383 13.6997 11.2173 13.5008 11.2173C13.3019 11.2173 13.1111 11.1383 12.9705 10.9976C12.8298 10.857 12.7508 10.6662 12.7508 10.4673V3.27729L2.03082 13.9973C1.88865 14.1298 1.7006 14.2019 1.5063 14.1985C1.312 14.195 1.12661 14.1163 0.989201 13.9789C0.851788 13.8415 0.773076 13.6561 0.769648 13.4618C0.76622 13.2675 0.838343 13.0795 0.970823 12.9373L11.6908 2.21729H4.50082Z" fill="#E6883C" style="fill:#E6883C;fill:color(display-p3 0.9020 0.5333 0.2353);fill-opacity:1;"/>
</svg>
