<svg width="12" height="16" viewBox="0 0 12 16" fill="none" xmlns="http://www.w3.org/2000/svg">
<path d="M4.85889 11.0159L5.21244 11.3695L5.566 11.0159L9.80345 6.77849L10.157 6.42493L9.80345 6.07138L8.73471 5.00264L8.38116 4.64909L8.02761 5.00264L5.21244 7.81781L3.99101 6.59638L3.63746 6.24282L3.28391 6.59638L2.21517 7.66511L1.86162 8.01867L2.21517 8.37222L4.85889 11.0159ZM9.8989 12.2157C8.85833 13.6477 7.5611 14.5616 6.00002 14.9831C4.43938 14.5612 3.14233 13.6471 2.10172 12.215C1.03195 10.7427 0.500498 9.11734 0.5 7.32493C0.5 7.32488 0.5 7.32484 0.5 7.32479L0.5 3.09648L5.99993 1.034L11.4999 3.09648V7.32493C11.4999 9.11788 10.9687 10.7435 9.8989 12.2157Z" fill="#00508E" stroke="#00508E"/>
</svg>
