<svg width="32" height="33" viewBox="0 0 32 33" fill="none" xmlns="http://www.w3.org/2000/svg">
<path d="M16.0003 3.57422C8.66699 3.57422 2.66699 9.57422 2.66699 16.9076C2.66699 24.2409 8.66699 30.2409 16.0003 30.2409C23.3337 30.2409 29.3337 24.2409 29.3337 16.9076C29.3337 9.57422 23.3337 3.57422 16.0003 3.57422ZM16.0003 27.5742C10.1203 27.5742 5.33366 22.7876 5.33366 16.9076C5.33366 11.0276 10.1203 6.24089 16.0003 6.24089C21.8803 6.24089 26.667 11.0276 26.667 16.9076C26.667 22.7876 21.8803 27.5742 16.0003 27.5742ZM22.1203 11.0142L13.3337 19.8009L9.88033 16.3609L8.00033 18.2409L13.3337 23.5742L24.0003 12.9076L22.1203 11.0142Z" fill="#29C946"/>
</svg>
