<svg width="33" height="32" viewBox="0 0 33 32" fill="none" xmlns="http://www.w3.org/2000/svg">
<mask id="path-1-outside-1_7414_29024" maskUnits="userSpaceOnUse" x="2.48242" y="1.66602" width="29" height="29" fill="black">
<rect fill="white" x="2.48242" y="1.66602" width="29" height="29"/>
<path fill-rule="evenodd" clip-rule="evenodd" d="M14.9411 3.09106C15.5265 2.81125 16.167 2.66602 16.8158 2.66602C17.4646 2.66602 18.1051 2.81125 18.6905 3.09106C19.2065 3.33772 19.6771 3.74039 20.3318 4.29772L20.4358 4.38572C20.7531 4.65639 20.8531 4.73906 20.9545 4.80706C21.2118 4.98039 21.5011 5.09906 21.8038 5.15906C21.9238 5.18306 22.0531 5.19506 22.4691 5.22706L22.6038 5.23772C23.4598 5.30572 24.0785 5.35506 24.6171 5.54439C25.229 5.76123 25.7848 6.11197 26.2438 6.57101C26.7029 7.03006 27.0536 7.58582 27.2705 8.19772C27.4598 8.73639 27.5078 9.35506 27.5771 10.2111L27.5878 10.3457C27.6198 10.7617 27.6318 10.8924 27.6558 11.0111C27.7158 11.3151 27.8358 11.6044 28.0078 11.8617C28.0758 11.9617 28.1584 12.0617 28.4291 12.3791L28.5171 12.4831C29.0758 13.1364 29.4771 13.6084 29.7238 14.1231C30.2905 15.3097 30.2905 16.6884 29.7238 17.8737C29.4785 18.3897 29.0758 18.8604 28.5171 19.5151L28.4291 19.6191C28.2801 19.7848 28.1395 19.9579 28.0078 20.1377C27.8344 20.3951 27.7158 20.6844 27.6558 20.9871C27.6318 21.1071 27.6211 21.2364 27.5878 21.6524L27.5758 21.7871C27.5091 22.6431 27.4598 23.2617 27.2691 23.8004C27.0533 24.4126 26.703 24.9687 26.2441 25.4279C25.7852 25.887 25.2292 26.2376 24.6171 26.4537C24.0785 26.6431 23.4598 26.6911 22.6038 26.7604L22.4691 26.7711C22.2463 26.7826 22.0243 26.8053 21.8038 26.8391C21.5006 26.9006 21.2122 27.0201 20.9545 27.1911C20.7742 27.3227 20.6006 27.4633 20.4345 27.6124L20.3318 27.7004C19.6785 28.2591 19.2064 28.6604 18.6918 28.9071C18.1063 29.1871 17.4655 29.3324 16.8164 29.3324C16.1674 29.3324 15.5266 29.1871 14.9411 28.9071C14.4251 28.6617 13.9545 28.2591 13.2998 27.7004L13.1958 27.6124C13.0305 27.4634 12.8578 27.3228 12.6785 27.1911C12.4203 27.0199 12.1314 26.9004 11.8278 26.8391C11.6073 26.8053 11.3852 26.7826 11.1625 26.7711L11.0278 26.7591C10.1718 26.6924 9.55312 26.6431 9.01445 26.4524C8.40221 26.2365 7.8461 25.8863 7.38695 25.4274C6.9278 24.9685 6.57728 24.4125 6.36112 23.8004C6.17178 23.2617 6.12245 22.6431 6.05445 21.7871L6.04378 21.6524C6.03226 21.4296 6.00957 21.2076 5.97578 20.9871C5.91428 20.6839 5.79475 20.3955 5.62378 20.1377C5.49213 19.9574 5.35151 19.7839 5.20245 19.6177L5.11445 19.5151C4.55712 18.8617 4.15445 18.3897 3.90778 17.8751C3.62777 17.2895 3.48242 16.6488 3.48242 15.9997C3.48242 15.3507 3.62777 14.7099 3.90778 14.1244C4.15445 13.6084 4.55712 13.1377 5.11445 12.4831L5.20245 12.3791C5.35144 12.2138 5.49206 12.0411 5.62378 11.8617C5.79712 11.6044 5.91578 11.3151 5.97578 11.0111C5.99978 10.8911 6.01178 10.7617 6.04378 10.3457L6.05445 10.2111C6.12245 9.35506 6.17178 8.73639 6.36112 8.19772C6.57711 7.58535 6.92756 7.02915 7.38672 6.56999C7.84588 6.11083 8.40208 5.76038 9.01445 5.54439C9.55312 5.35506 10.1718 5.30572 11.0278 5.23772L11.1625 5.22706C11.3852 5.21554 11.6073 5.19284 11.8278 5.15906C12.1318 5.09906 12.4211 4.97906 12.6785 4.80706C12.7785 4.73906 12.8784 4.65639 13.1958 4.38572L13.2998 4.29772C13.9531 3.74039 14.4264 3.33772 14.9411 3.09106ZM17.8238 4.90172C17.5085 4.75152 17.1637 4.67357 16.8144 4.67357C16.4652 4.67357 16.1204 4.75152 15.8051 4.90172C15.5584 5.01906 15.2984 5.23106 14.4971 5.91239L14.4571 5.94572C14.1945 6.16972 14.0038 6.33372 13.7945 6.47372C13.3158 6.79372 12.7798 7.01639 12.2144 7.12706C11.9678 7.17639 11.7171 7.19639 11.3718 7.22439L11.3211 7.22839C10.2718 7.31239 9.93978 7.34706 9.68112 7.43772C9.01445 7.67372 8.48912 8.19773 8.25445 8.86573C8.16112 9.12439 8.12778 9.45639 8.04378 10.5057L8.03978 10.5564C8.01312 10.9017 7.99178 11.1524 7.94378 11.3991C7.83178 11.9644 7.61045 12.5004 7.29045 12.9791C7.14912 13.1884 6.98512 13.3791 6.76112 13.6431L6.72778 13.6817C6.04645 14.4817 5.83445 14.7431 5.71712 14.9884C5.5667 15.3038 5.48864 15.6489 5.48864 15.9984C5.48864 16.3479 5.5667 16.6929 5.71712 17.0084C5.83445 17.2551 6.04645 17.5151 6.72778 18.3164L6.76112 18.3564C6.98512 18.6191 7.14912 18.8097 7.28912 19.0191C7.60912 19.4977 7.83178 20.0337 7.94245 20.5991C7.99178 20.8457 8.01178 21.0964 8.03978 21.4417L8.04378 21.4924C8.12778 22.5417 8.16245 22.8737 8.25312 23.1324C8.48912 23.7991 9.01312 24.3244 9.68112 24.5591C9.93978 24.6524 10.2718 24.6857 11.3211 24.7697L11.3718 24.7737C11.7171 24.8004 11.9678 24.8217 12.2144 24.8697C12.7798 24.9817 13.3158 25.2031 13.7945 25.5231C14.0038 25.6644 14.1945 25.8284 14.4585 26.0524L14.4971 26.0857C15.2971 26.7671 15.5585 26.9791 15.8038 27.0964C16.1192 27.2468 16.4643 27.3249 16.8138 27.3249C17.1633 27.3249 17.5083 27.2468 17.8238 27.0964C18.0704 26.9791 18.3305 26.7671 19.1318 26.0857L19.1718 26.0524C19.4345 25.8284 19.6251 25.6644 19.8345 25.5244C20.3131 25.2044 20.8491 24.9817 21.4145 24.8711C21.6934 24.8237 21.9747 24.7912 22.2571 24.7737L22.3078 24.7697C23.3571 24.6857 23.6891 24.6511 23.9478 24.5604C24.6145 24.3244 25.1398 23.8004 25.3745 23.1324C25.4678 22.8737 25.5011 22.5404 25.5851 21.4924L25.5891 21.4417C25.6061 21.1589 25.6382 20.8772 25.6851 20.5977C25.7971 20.0337 26.0185 19.4977 26.3385 19.0191C26.4798 18.8097 26.6438 18.6191 26.8678 18.3551L26.9011 18.3164C27.5824 17.5164 27.7945 17.2551 27.9118 17.0097C28.0622 16.6943 28.1403 16.3492 28.1403 15.9997C28.1403 15.6502 28.0622 15.3052 27.9118 14.9897C27.7945 14.7431 27.5824 14.4831 26.9011 13.6817L26.8678 13.6417C26.6438 13.3791 26.4798 13.1884 26.3398 12.9791C26.0208 12.5002 25.7988 11.9634 25.6865 11.3991C25.6391 11.1201 25.6066 10.8388 25.5891 10.5564L25.5851 10.5057C25.5011 9.45639 25.4665 9.12439 25.3758 8.86573C25.1398 8.19906 24.6158 7.67372 23.9478 7.43906C23.6891 7.34572 23.3558 7.31239 22.3078 7.22839L22.2571 7.22439C21.9743 7.20736 21.6926 7.17532 21.4131 7.12839C20.8493 7.01585 20.3129 6.79389 19.8345 6.47506C19.6251 6.33372 19.4345 6.16972 19.1705 5.94572L19.1318 5.91239C18.3318 5.23106 18.0705 5.01906 17.8251 4.90172M22.2078 11.9444C22.3015 12.0374 22.3759 12.148 22.4267 12.2698C22.4774 12.3917 22.5036 12.5224 22.5036 12.6544C22.5036 12.7864 22.4774 12.9171 22.4267 13.039C22.3759 13.1608 22.3015 13.2714 22.2078 13.3644L15.5185 20.0537C15.3302 20.2416 15.0751 20.3472 14.8091 20.3472C14.5431 20.3472 14.288 20.2416 14.0998 20.0537L11.4238 17.3777C11.3242 17.2861 11.2442 17.1752 11.1886 17.0518C11.133 16.9285 11.1029 16.7951 11.1001 16.6598C11.0973 16.5245 11.1219 16.3901 11.1724 16.2645C11.2229 16.139 11.2983 16.0249 11.394 15.9292C11.4896 15.8335 11.6037 15.7582 11.7292 15.7077C11.8548 15.6572 11.9893 15.6326 12.1246 15.6354C12.2599 15.6382 12.3932 15.6683 12.5166 15.7239C12.6399 15.7795 12.7508 15.8595 12.8425 15.9591L14.8091 17.9244L20.7891 11.9457C20.9774 11.7578 21.2325 11.6523 21.4985 11.6523C21.7644 11.6523 22.0195 11.7578 22.2078 11.9457"/>
</mask>
<path fill-rule="evenodd" clip-rule="evenodd" d="M14.9411 3.09106C15.5265 2.81125 16.167 2.66602 16.8158 2.66602C17.4646 2.66602 18.1051 2.81125 18.6905 3.09106C19.2065 3.33772 19.6771 3.74039 20.3318 4.29772L20.4358 4.38572C20.7531 4.65639 20.8531 4.73906 20.9545 4.80706C21.2118 4.98039 21.5011 5.09906 21.8038 5.15906C21.9238 5.18306 22.0531 5.19506 22.4691 5.22706L22.6038 5.23772C23.4598 5.30572 24.0785 5.35506 24.6171 5.54439C25.229 5.76123 25.7848 6.11197 26.2438 6.57101C26.7029 7.03006 27.0536 7.58582 27.2705 8.19772C27.4598 8.73639 27.5078 9.35506 27.5771 10.2111L27.5878 10.3457C27.6198 10.7617 27.6318 10.8924 27.6558 11.0111C27.7158 11.3151 27.8358 11.6044 28.0078 11.8617C28.0758 11.9617 28.1584 12.0617 28.4291 12.3791L28.5171 12.4831C29.0758 13.1364 29.4771 13.6084 29.7238 14.1231C30.2905 15.3097 30.2905 16.6884 29.7238 17.8737C29.4785 18.3897 29.0758 18.8604 28.5171 19.5151L28.4291 19.6191C28.2801 19.7848 28.1395 19.9579 28.0078 20.1377C27.8344 20.3951 27.7158 20.6844 27.6558 20.9871C27.6318 21.1071 27.6211 21.2364 27.5878 21.6524L27.5758 21.7871C27.5091 22.6431 27.4598 23.2617 27.2691 23.8004C27.0533 24.4126 26.703 24.9687 26.2441 25.4279C25.7852 25.887 25.2292 26.2376 24.6171 26.4537C24.0785 26.6431 23.4598 26.6911 22.6038 26.7604L22.4691 26.7711C22.2463 26.7826 22.0243 26.8053 21.8038 26.8391C21.5006 26.9006 21.2122 27.0201 20.9545 27.1911C20.7742 27.3227 20.6006 27.4633 20.4345 27.6124L20.3318 27.7004C19.6785 28.2591 19.2064 28.6604 18.6918 28.9071C18.1063 29.1871 17.4655 29.3324 16.8164 29.3324C16.1674 29.3324 15.5266 29.1871 14.9411 28.9071C14.4251 28.6617 13.9545 28.2591 13.2998 27.7004L13.1958 27.6124C13.0305 27.4634 12.8578 27.3228 12.6785 27.1911C12.4203 27.0199 12.1314 26.9004 11.8278 26.8391C11.6073 26.8053 11.3852 26.7826 11.1625 26.7711L11.0278 26.7591C10.1718 26.6924 9.55312 26.6431 9.01445 26.4524C8.40221 26.2365 7.8461 25.8863 7.38695 25.4274C6.9278 24.9685 6.57728 24.4125 6.36112 23.8004C6.17178 23.2617 6.12245 22.6431 6.05445 21.7871L6.04378 21.6524C6.03226 21.4296 6.00957 21.2076 5.97578 20.9871C5.91428 20.6839 5.79475 20.3955 5.62378 20.1377C5.49213 19.9574 5.35151 19.7839 5.20245 19.6177L5.11445 19.5151C4.55712 18.8617 4.15445 18.3897 3.90778 17.8751C3.62777 17.2895 3.48242 16.6488 3.48242 15.9997C3.48242 15.3507 3.62777 14.7099 3.90778 14.1244C4.15445 13.6084 4.55712 13.1377 5.11445 12.4831L5.20245 12.3791C5.35144 12.2138 5.49206 12.0411 5.62378 11.8617C5.79712 11.6044 5.91578 11.3151 5.97578 11.0111C5.99978 10.8911 6.01178 10.7617 6.04378 10.3457L6.05445 10.2111C6.12245 9.35506 6.17178 8.73639 6.36112 8.19772C6.57711 7.58535 6.92756 7.02915 7.38672 6.56999C7.84588 6.11083 8.40208 5.76038 9.01445 5.54439C9.55312 5.35506 10.1718 5.30572 11.0278 5.23772L11.1625 5.22706C11.3852 5.21554 11.6073 5.19284 11.8278 5.15906C12.1318 5.09906 12.4211 4.97906 12.6785 4.80706C12.7785 4.73906 12.8784 4.65639 13.1958 4.38572L13.2998 4.29772C13.9531 3.74039 14.4264 3.33772 14.9411 3.09106ZM17.8238 4.90172C17.5085 4.75152 17.1637 4.67357 16.8144 4.67357C16.4652 4.67357 16.1204 4.75152 15.8051 4.90172C15.5584 5.01906 15.2984 5.23106 14.4971 5.91239L14.4571 5.94572C14.1945 6.16972 14.0038 6.33372 13.7945 6.47372C13.3158 6.79372 12.7798 7.01639 12.2144 7.12706C11.9678 7.17639 11.7171 7.19639 11.3718 7.22439L11.3211 7.22839C10.2718 7.31239 9.93978 7.34706 9.68112 7.43772C9.01445 7.67372 8.48912 8.19773 8.25445 8.86573C8.16112 9.12439 8.12778 9.45639 8.04378 10.5057L8.03978 10.5564C8.01312 10.9017 7.99178 11.1524 7.94378 11.3991C7.83178 11.9644 7.61045 12.5004 7.29045 12.9791C7.14912 13.1884 6.98512 13.3791 6.76112 13.6431L6.72778 13.6817C6.04645 14.4817 5.83445 14.7431 5.71712 14.9884C5.5667 15.3038 5.48864 15.6489 5.48864 15.9984C5.48864 16.3479 5.5667 16.6929 5.71712 17.0084C5.83445 17.2551 6.04645 17.5151 6.72778 18.3164L6.76112 18.3564C6.98512 18.6191 7.14912 18.8097 7.28912 19.0191C7.60912 19.4977 7.83178 20.0337 7.94245 20.5991C7.99178 20.8457 8.01178 21.0964 8.03978 21.4417L8.04378 21.4924C8.12778 22.5417 8.16245 22.8737 8.25312 23.1324C8.48912 23.7991 9.01312 24.3244 9.68112 24.5591C9.93978 24.6524 10.2718 24.6857 11.3211 24.7697L11.3718 24.7737C11.7171 24.8004 11.9678 24.8217 12.2144 24.8697C12.7798 24.9817 13.3158 25.2031 13.7945 25.5231C14.0038 25.6644 14.1945 25.8284 14.4585 26.0524L14.4971 26.0857C15.2971 26.7671 15.5585 26.9791 15.8038 27.0964C16.1192 27.2468 16.4643 27.3249 16.8138 27.3249C17.1633 27.3249 17.5083 27.2468 17.8238 27.0964C18.0704 26.9791 18.3305 26.7671 19.1318 26.0857L19.1718 26.0524C19.4345 25.8284 19.6251 25.6644 19.8345 25.5244C20.3131 25.2044 20.8491 24.9817 21.4145 24.8711C21.6934 24.8237 21.9747 24.7912 22.2571 24.7737L22.3078 24.7697C23.3571 24.6857 23.6891 24.6511 23.9478 24.5604C24.6145 24.3244 25.1398 23.8004 25.3745 23.1324C25.4678 22.8737 25.5011 22.5404 25.5851 21.4924L25.5891 21.4417C25.6061 21.1589 25.6382 20.8772 25.6851 20.5977C25.7971 20.0337 26.0185 19.4977 26.3385 19.0191C26.4798 18.8097 26.6438 18.6191 26.8678 18.3551L26.9011 18.3164C27.5824 17.5164 27.7945 17.2551 27.9118 17.0097C28.0622 16.6943 28.1403 16.3492 28.1403 15.9997C28.1403 15.6502 28.0622 15.3052 27.9118 14.9897C27.7945 14.7431 27.5824 14.4831 26.9011 13.6817L26.8678 13.6417C26.6438 13.3791 26.4798 13.1884 26.3398 12.9791C26.0208 12.5002 25.7988 11.9634 25.6865 11.3991C25.6391 11.1201 25.6066 10.8388 25.5891 10.5564L25.5851 10.5057C25.5011 9.45639 25.4665 9.12439 25.3758 8.86573C25.1398 8.19906 24.6158 7.67372 23.9478 7.43906C23.6891 7.34572 23.3558 7.31239 22.3078 7.22839L22.2571 7.22439C21.9743 7.20736 21.6926 7.17532 21.4131 7.12839C20.8493 7.01585 20.3129 6.79389 19.8345 6.47506C19.6251 6.33372 19.4345 6.16972 19.1705 5.94572L19.1318 5.91239C18.3318 5.23106 18.0705 5.01906 17.8251 4.90172M22.2078 11.9444C22.3015 12.0374 22.3759 12.148 22.4267 12.2698C22.4774 12.3917 22.5036 12.5224 22.5036 12.6544C22.5036 12.7864 22.4774 12.9171 22.4267 13.039C22.3759 13.1608 22.3015 13.2714 22.2078 13.3644L15.5185 20.0537C15.3302 20.2416 15.0751 20.3472 14.8091 20.3472C14.5431 20.3472 14.288 20.2416 14.0998 20.0537L11.4238 17.3777C11.3242 17.2861 11.2442 17.1752 11.1886 17.0518C11.133 16.9285 11.1029 16.7951 11.1001 16.6598C11.0973 16.5245 11.1219 16.3901 11.1724 16.2645C11.2229 16.139 11.2983 16.0249 11.394 15.9292C11.4896 15.8335 11.6037 15.7582 11.7292 15.7077C11.8548 15.6572 11.9893 15.6326 12.1246 15.6354C12.2599 15.6382 12.3932 15.6683 12.5166 15.7239C12.6399 15.7795 12.7508 15.8595 12.8425 15.9591L14.8091 17.9244L20.7891 11.9457C20.9774 11.7578 21.2325 11.6523 21.4985 11.6523C21.7644 11.6523 22.0195 11.7578 22.2078 11.9457" fill="#29C946"/>
<path d="M14.9411 3.09106L14.7255 2.63995L14.725 2.64017L14.9411 3.09106ZM18.6905 3.09106L18.9061 2.63995L18.9061 2.63995L18.6905 3.09106ZM20.3318 4.29772L20.0077 4.67845L20.0088 4.67942L20.3318 4.29772ZM20.4358 4.38572L20.7603 4.0053L20.7588 4.00403L20.4358 4.38572ZM20.9545 4.80706L21.2338 4.39236L21.2331 4.39188L20.9545 4.80706ZM21.8038 5.15906L21.9018 4.66877L21.901 4.6686L21.8038 5.15906ZM22.4691 5.22706L22.5086 4.72862L22.5075 4.72853L22.4691 5.22706ZM22.6038 5.23772L22.6434 4.73929L22.6433 4.73929L22.6038 5.23772ZM24.6171 5.54439L24.7841 5.0731L24.7829 5.07268L24.6171 5.54439ZM27.2705 8.19772L27.7422 8.03193L27.7417 8.03072L27.2705 8.19772ZM27.5771 10.2111L28.0756 10.1716L28.0755 10.1707L27.5771 10.2111ZM27.5878 10.3457L28.0863 10.3074L28.0862 10.3062L27.5878 10.3457ZM27.6558 11.0111L28.1463 10.9142L28.1459 10.9119L27.6558 11.0111ZM28.0078 11.8617L27.5921 12.1396L27.5943 12.1429L28.0078 11.8617ZM28.4291 12.3791L28.8108 12.0561L28.8095 12.0546L28.4291 12.3791ZM28.5171 12.4831L28.1354 12.806L28.1371 12.808L28.5171 12.4831ZM29.7238 14.1231L30.175 13.9076L30.1747 13.907L29.7238 14.1231ZM29.7238 17.8737L29.2727 17.6581L29.2722 17.659L29.7238 17.8737ZM28.5171 19.5151L28.1368 19.1905L28.1354 19.1921L28.5171 19.5151ZM28.4291 19.6191L28.8009 19.9534L28.8059 19.9478L28.8108 19.942L28.4291 19.6191ZM28.0078 20.1377L27.6044 19.8423L27.5986 19.8502L27.5931 19.8584L28.0078 20.1377ZM27.6558 20.9871L28.1461 21.0851L28.1462 21.0843L27.6558 20.9871ZM27.5878 21.6524L28.0858 21.6968L28.0862 21.6923L27.5878 21.6524ZM27.5758 21.7871L27.0777 21.7427L27.0773 21.7482L27.5758 21.7871ZM27.2691 23.8004L26.7978 23.6336L26.7976 23.6341L27.2691 23.8004ZM24.6171 26.4537L24.7829 26.9254L24.7836 26.9252L24.6171 26.4537ZM22.6038 26.7604L22.6433 27.2588L22.6441 27.2588L22.6038 26.7604ZM22.4691 26.7711L22.4949 27.2706L22.5086 27.2695L22.4691 26.7711ZM21.8038 26.8391L21.7281 26.3448L21.7162 26.3466L21.7044 26.349L21.8038 26.8391ZM20.9545 27.1911L20.6781 26.7744L20.6687 26.7806L20.6596 26.7873L20.9545 27.1911ZM20.4345 27.6124L20.7599 27.9921L20.7683 27.9846L20.4345 27.6124ZM20.3318 27.7004L20.6567 28.0804L20.6572 28.08L20.3318 27.7004ZM18.6918 28.9071L18.9075 29.3581L18.9079 29.3579L18.6918 28.9071ZM14.9411 28.9071L15.1568 28.456L15.1558 28.4555L14.9411 28.9071ZM13.2998 27.7004L13.6244 27.3201L13.6228 27.3187L13.2998 27.7004ZM13.1958 27.6124L12.861 27.9838L12.8668 27.989L12.8728 27.9941L13.1958 27.6124ZM12.6785 27.1911L12.9744 26.7881L12.9647 26.7809L12.9547 26.7743L12.6785 27.1911ZM11.8278 26.8391L11.9268 26.349L11.9152 26.3466L11.9035 26.3448L11.8278 26.8391ZM11.1625 26.7711L11.1181 27.2691L11.1273 27.2699L11.1366 27.2704L11.1625 26.7711ZM11.0278 26.7591L11.0722 26.261L11.0666 26.2606L11.0278 26.7591ZM9.01445 26.4524L9.18129 25.981L9.1807 25.9808L9.01445 26.4524ZM6.36112 23.8004L5.88941 23.9662L5.88965 23.9669L6.36112 23.8004ZM6.05445 21.7871L5.55601 21.8265L5.55602 21.8267L6.05445 21.7871ZM6.04378 21.6524L5.54426 21.6782L5.54534 21.6919L6.04378 21.6524ZM5.97578 20.9871L6.47002 20.9113L6.46819 20.8994L6.4658 20.8876L5.97578 20.9871ZM5.62378 20.1377L6.04047 19.8614L6.03423 19.852L6.02758 19.8429L5.62378 20.1377ZM5.20245 19.6177L4.82273 19.9432L4.83026 19.9516L5.20245 19.6177ZM5.11445 19.5151L4.73405 19.8396L4.73482 19.8405L5.11445 19.5151ZM3.90778 17.8751L3.45671 18.0908L3.45689 18.0912L3.90778 17.8751ZM3.90778 14.1244L4.35885 14.3401L4.35889 14.34L3.90778 14.1244ZM5.11445 12.4831L5.49517 12.8072L5.49614 12.806L5.11445 12.4831ZM5.20245 12.3791L4.83105 12.0443L4.82581 12.0501L4.82076 12.0561L5.20245 12.3791ZM5.62378 11.8617L6.02679 12.1577L6.0328 12.1495L6.03848 12.1411L5.62378 11.8617ZM5.97578 11.0111L5.48549 10.913L5.48525 10.9142L5.97578 11.0111ZM6.04378 10.3457L5.54534 10.3062L5.54526 10.3074L6.04378 10.3457ZM6.05445 10.2111L5.55602 10.1715L5.55601 10.1716L6.05445 10.2111ZM6.36112 8.19772L5.88959 8.03141L5.88941 8.03193L6.36112 8.19772ZM9.01445 5.54439L8.84865 5.07268L8.84814 5.07286L9.01445 5.54439ZM11.0278 5.23772L10.9883 4.73929L10.9882 4.73929L11.0278 5.23772ZM11.1625 5.22706L11.1366 4.72754L11.123 4.72862L11.1625 5.22706ZM11.8278 5.15906L11.9035 5.65329L11.9141 5.65167L11.9246 5.6496L11.8278 5.15906ZM12.6785 4.80706L12.9563 5.22276L12.9596 5.22052L12.6785 4.80706ZM13.1958 4.38572L12.8728 4.00403L12.8713 4.00531L13.1958 4.38572ZM13.2998 4.29772L13.6228 4.67942L13.6243 4.67812L13.2998 4.29772ZM15.8051 4.90172L16.0199 5.35325L16.0202 5.35311L15.8051 4.90172ZM14.4971 5.91239L14.8172 6.29652L14.821 6.29331L14.4971 5.91239ZM14.4571 5.94572L14.137 5.56159L14.1327 5.56528L14.4571 5.94572ZM13.7945 6.47372L14.0723 6.88939L14.0724 6.88934L13.7945 6.47372ZM12.2144 7.12706L12.1184 6.63637L12.1164 6.63677L12.2144 7.12706ZM11.3718 7.22439L11.4111 7.72284L11.4122 7.72276L11.3718 7.22439ZM11.3211 7.22839L11.2818 6.72994L11.2812 6.72999L11.3211 7.22839ZM9.68112 7.43772L9.51572 6.96587L9.51426 6.96639L9.68112 7.43772ZM8.25445 8.86573L8.72479 9.03543L8.72619 9.03145L8.25445 8.86573ZM8.04378 10.5057L7.54538 10.4658L7.54533 10.4664L8.04378 10.5057ZM8.03978 10.5564L7.54133 10.517L7.54127 10.5179L8.03978 10.5564ZM7.94378 11.3991L8.43425 11.4962L8.43458 11.4946L7.94378 11.3991ZM7.29045 12.9791L7.70485 13.2588L7.70612 13.2569L7.29045 12.9791ZM6.76112 13.6431L7.13983 13.9695L7.14237 13.9665L6.76112 13.6431ZM6.72778 13.6817L6.34907 13.3553L6.34713 13.3575L6.72778 13.6817ZM5.71712 14.9884L5.26605 14.7727L5.2658 14.7732L5.71712 14.9884ZM5.71712 17.0084L6.16864 16.7936L6.16844 16.7932L5.71712 17.0084ZM6.72778 18.3164L7.11191 17.9963L7.10871 17.9925L6.72778 18.3164ZM6.76112 18.3564L6.37698 18.6765L6.38067 18.6808L6.76112 18.3564ZM7.28912 19.0191L7.70479 18.7412L7.70473 18.7411L7.28912 19.0191ZM7.94245 20.5991L7.45176 20.6951L7.45216 20.6971L7.94245 20.5991ZM8.03978 21.4417L8.53823 21.4024L8.53815 21.4013L8.03978 21.4417ZM8.04378 21.4924L7.54533 21.5317L7.54538 21.5323L8.04378 21.4924ZM8.25312 23.1324L7.78126 23.2978L7.78178 23.2992L8.25312 23.1324ZM9.68112 24.5591L9.85083 24.0887L9.84684 24.0873L9.68112 24.5591ZM11.3211 24.7697L11.2812 25.2681L11.2818 25.2682L11.3211 24.7697ZM11.3718 24.7737L11.3324 25.2722L11.3333 25.2722L11.3718 24.7737ZM12.2144 24.8697L12.3116 24.3793L12.31 24.3789L12.2144 24.8697ZM13.7945 25.5231L14.0742 25.1087L14.0723 25.1074L13.7945 25.5231ZM14.4585 26.0524L14.7849 25.6737L14.7819 25.6711L14.4585 26.0524ZM14.4971 26.0857L14.1706 26.4644L14.1729 26.4664L14.4971 26.0857ZM15.8038 27.0964L15.5881 27.5475L15.5886 27.5477L15.8038 27.0964ZM17.8238 27.0964L17.609 26.6449L17.6086 26.6451L17.8238 27.0964ZM19.1318 26.0857L18.8117 25.7016L18.8079 25.7048L19.1318 26.0857ZM19.1718 26.0524L19.4919 26.4365L19.4962 26.4328L19.1718 26.0524ZM19.8345 25.5244L19.5566 25.1087L19.5565 25.1088L19.8345 25.5244ZM21.4145 24.8711L21.3308 24.3779L21.3184 24.3804L21.4145 24.8711ZM22.2571 24.7737L22.2881 25.2728L22.2965 25.2722L22.2571 24.7737ZM22.3078 24.7697L22.3471 25.2682L22.3477 25.2681L22.3078 24.7697ZM23.9478 24.5604L24.1132 25.0322L24.1146 25.0317L23.9478 24.5604ZM25.3745 23.1324L24.9041 22.9627L24.9027 22.9667L25.3745 23.1324ZM25.5851 21.4924L26.0835 21.5323L26.0836 21.5317L25.5851 21.4924ZM25.5891 21.4417L26.0877 21.4811L26.0882 21.4718L25.5891 21.4417ZM25.6851 20.5977L25.1947 20.5003L25.1932 20.5076L25.192 20.5149L25.6851 20.5977ZM26.3385 19.0191L25.9241 18.7393L25.9228 18.7412L26.3385 19.0191ZM26.8678 18.3551L26.4891 18.0286L26.4865 18.0316L26.8678 18.3551ZM26.9011 18.3164L27.2798 18.6429L27.2818 18.6406L26.9011 18.3164ZM27.9118 17.0097L28.3629 17.2255L28.3631 17.2249L27.9118 17.0097ZM28.1403 15.9997L27.6403 15.9997L28.1403 15.9997ZM27.9118 14.9897L27.4603 15.2045L27.4605 15.2049L27.9118 14.9897ZM26.9011 13.6817L26.517 14.0018L26.5202 14.0056L26.9011 13.6817ZM26.8678 13.6417L27.2519 13.3216L27.2482 13.3173L26.8678 13.6417ZM26.3398 12.9791L25.9237 13.2563L25.9242 13.257L26.3398 12.9791ZM25.6865 11.3991L25.1935 11.4827L25.1947 11.4897L25.1961 11.4967L25.6865 11.3991ZM25.5891 10.5564L26.0882 10.5254L26.0876 10.517L25.5891 10.5564ZM25.5851 10.5057L26.0836 10.4664L26.0835 10.4658L25.5851 10.5057ZM25.3758 8.86573L25.8476 8.70033L25.8471 8.69887L25.3758 8.86573ZM23.9478 7.43906L23.7781 7.90939L23.7821 7.9108L23.9478 7.43906ZM22.3078 7.22839L22.3477 6.72999L22.3471 6.72994L22.3078 7.22839ZM22.2571 7.22439L22.2965 6.72586L22.2872 6.7253L22.2571 7.22439ZM21.4131 7.12839L21.3153 7.61872L21.3228 7.62022L21.3303 7.62149L21.4131 7.12839ZM19.8345 6.47506L19.5547 6.88946L19.5572 6.89114L19.8345 6.47506ZM19.1705 5.94572L18.844 6.32444L18.847 6.32698L19.1705 5.94572ZM19.1318 5.91239L19.4583 5.53368L19.456 5.53174L19.1318 5.91239ZM22.2078 13.3644L21.8557 13.0094L21.8542 13.0108L22.2078 13.3644ZM15.5185 20.0537L15.8717 20.4076L15.872 20.4073L15.5185 20.0537ZM14.0998 20.0537L13.7462 20.4073L13.7465 20.4076L14.0998 20.0537ZM11.4238 17.3777L11.7773 17.0242L11.7701 17.0169L11.7625 17.0099L11.4238 17.3777ZM11.394 15.9292L11.7475 16.2828L11.394 15.9292ZM12.8425 15.9591L12.4746 16.2978L12.4817 16.3054L12.489 16.3127L12.8425 15.9591ZM14.8091 17.9244L14.4557 18.2781L14.8092 18.6313L15.1626 18.278L14.8091 17.9244ZM20.7891 11.9457L20.4359 11.5919L20.4356 11.5921L20.7891 11.9457ZM14.9411 3.09106L15.1568 3.54217C15.6748 3.29454 16.2416 3.16602 16.8158 3.16602V2.66602V2.16602C16.0924 2.16602 15.3781 2.32795 14.7255 2.63995L14.9411 3.09106ZM16.8158 2.66602V3.16602C17.3899 3.16602 17.9568 3.29454 18.4748 3.54217L18.6905 3.09106L18.9061 2.63995C18.2534 2.32795 17.5392 2.16602 16.8158 2.16602V2.66602ZM18.6905 3.09106L18.4748 3.54216C18.9192 3.75462 19.3361 4.10675 20.0077 4.67845L20.3318 4.29772L20.6559 3.917C20.0181 3.37403 19.4937 2.92083 18.9061 2.63995L18.6905 3.09106ZM20.3318 4.29772L20.0088 4.67942L20.1128 4.76742L20.4358 4.38572L20.7588 4.00403L20.6548 3.91603L20.3318 4.29772ZM20.4358 4.38572L20.1113 4.76614C20.4201 5.0295 20.5451 5.13448 20.6758 5.22224L20.9545 4.80706L21.2331 4.39188C21.1612 4.34364 21.0862 4.28328 20.7603 4.00531L20.4358 4.38572ZM20.9545 4.80706L20.6751 5.22176C20.9888 5.43304 21.3403 5.57691 21.7066 5.64951L21.8038 5.15906L21.901 4.6686C21.6619 4.62121 21.4348 4.52774 21.2338 4.39236L20.9545 4.80706ZM21.8038 5.15906L21.7057 5.64935C21.8622 5.68064 22.0266 5.6945 22.4308 5.72559L22.4691 5.22706L22.5075 4.72853C22.0796 4.69562 21.9854 4.68548 21.9018 4.66877L21.8038 5.15906ZM22.4691 5.22706L22.4296 5.7255L22.5643 5.73616L22.6038 5.23772L22.6433 4.73929L22.5086 4.72862L22.4691 5.22706ZM22.6038 5.23772L22.5642 5.73615C23.441 5.80581 23.987 5.8529 24.4513 6.0161L24.6171 5.54439L24.7829 5.07268C24.1699 4.85722 23.4786 4.80564 22.6434 4.73929L22.6038 5.23772ZM24.6171 5.54439L24.4501 6.01568C24.9918 6.20764 25.4839 6.51816 25.8903 6.92457L26.2438 6.57101L26.5974 6.21746C26.0857 5.70577 25.4662 5.31481 24.7841 5.07311L24.6171 5.54439ZM26.2438 6.57101L25.8903 6.92457C26.2967 7.33097 26.6072 7.823 26.7992 8.36473L27.2705 8.19772L27.7417 8.03072C27.5 7.34864 27.1091 6.72915 26.5974 6.21746L26.2438 6.57101ZM27.2705 8.19772L26.7987 8.36352C26.9619 8.82784 27.0076 9.37294 27.0787 10.2514L27.5771 10.2111L28.0755 10.1707C28.008 9.33717 27.9576 8.64494 27.7422 8.03193L27.2705 8.19772ZM27.5771 10.2111L27.0787 10.2505L27.0893 10.3852L27.5878 10.3457L28.0862 10.3062L28.0756 10.1716L27.5771 10.2111ZM27.5878 10.3457L27.0893 10.3841C27.1203 10.7874 27.1342 10.9543 27.1657 11.1102L27.6558 11.0111L28.1459 10.9119C28.1294 10.8305 28.1193 10.7361 28.0863 10.3074L27.5878 10.3457ZM27.6558 11.0111L27.1652 11.1079C27.2381 11.4769 27.3836 11.8277 27.5921 12.1396L28.0078 11.8617L28.4235 11.5839C28.2879 11.3811 28.1935 11.1532 28.1463 10.9142L27.6558 11.0111ZM28.0078 11.8617L27.5943 12.1429C27.6812 12.2706 27.7848 12.3942 28.0487 12.7035L28.4291 12.3791L28.8095 12.0546C28.5321 11.7293 28.4704 11.6528 28.4212 11.5806L28.0078 11.8617ZM28.4291 12.3791L28.0474 12.702L28.1354 12.806L28.5171 12.4831L28.8988 12.1601L28.8108 12.0561L28.4291 12.3791ZM28.5171 12.4831L28.1371 12.808C28.7086 13.4764 29.0604 13.8957 29.2729 14.3392L29.7238 14.1231L30.1747 13.907C29.8939 13.321 29.4429 12.7964 28.8971 12.1581L28.5171 12.4831ZM29.7238 14.1231L29.2726 14.3385C29.7742 15.389 29.7741 16.6092 29.2727 17.6581L29.7238 17.8737L30.1749 18.0894C30.8068 16.7676 30.8067 15.2305 30.175 13.9076L29.7238 14.1231ZM29.7238 17.8737L29.2722 17.659C29.0613 18.1026 28.7097 18.5191 28.1368 19.1905L28.5171 19.5151L28.8975 19.8396C29.4419 19.2016 29.8956 18.6768 30.1753 18.0884L29.7238 17.8737ZM28.5171 19.5151L28.1354 19.1921L28.0474 19.2961L28.4291 19.6191L28.8108 19.942L28.8988 19.838L28.5171 19.5151ZM28.4291 19.6191L28.0573 19.2847C27.8971 19.4629 27.7459 19.649 27.6044 19.8423L28.0078 20.1377L28.4112 20.4331C28.533 20.2668 28.6631 20.1067 28.8009 19.9534L28.4291 19.6191ZM28.0078 20.1377L27.5931 19.8584C27.3818 20.1721 27.2379 20.5236 27.1653 20.8898L27.6558 20.9871L28.1462 21.0843C28.1936 20.8452 28.2871 20.618 28.4225 20.4171L28.0078 20.1377ZM27.6558 20.9871L27.1655 20.889C27.1342 21.0455 27.1214 21.2126 27.0894 21.6125L27.5878 21.6524L28.0862 21.6923C28.1208 21.2602 28.1294 21.1686 28.1461 21.0851L27.6558 20.9871ZM27.5878 21.6524L27.0898 21.608L27.0778 21.7427L27.5758 21.7871L28.0738 21.8314L28.0858 21.6968L27.5878 21.6524ZM27.5758 21.7871L27.0773 21.7482C27.009 22.6246 26.9618 23.1701 26.7978 23.6336L27.2691 23.8004L27.7405 23.9672C27.9577 23.3534 28.0092 22.6615 28.0743 21.8259L27.5758 21.7871ZM27.2691 23.8004L26.7976 23.6341C26.6065 24.1759 26.2966 24.6681 25.8905 25.0744L26.2441 25.4279L26.5977 25.7814C27.1094 25.2694 27.5 24.6493 27.7407 23.9666L27.2691 23.8004ZM26.2441 25.4279L25.8905 25.0744C25.4843 25.4808 24.9923 25.791 24.4506 25.9823L24.6171 26.4537L24.7836 26.9252C25.4661 26.6842 26.086 26.2933 26.5977 25.7814L26.2441 25.4279ZM24.6171 26.4537L24.4513 25.982C23.987 26.1452 23.4419 26.1909 22.5634 26.262L22.6038 26.7604L22.6441 27.2588C23.4777 27.1912 24.1699 27.1409 24.7829 26.9254L24.6171 26.4537ZM22.6038 26.7604L22.5643 26.262L22.4296 26.2726L22.4691 26.7711L22.5086 27.2695L22.6433 27.2588L22.6038 26.7604ZM22.4691 26.7711L22.4433 26.2717C22.2038 26.2841 21.9651 26.3085 21.7281 26.3448L21.8038 26.8391L21.8795 27.3333C22.0835 27.302 22.2889 27.2811 22.4949 27.2704L22.4691 26.7711ZM21.8038 26.8391L21.7044 26.349C21.3381 26.4234 20.9896 26.5678 20.6781 26.7744L20.9545 27.1911L21.2308 27.6077C21.4349 27.4724 21.6632 27.3778 21.9032 27.3291L21.8038 26.8391ZM20.9545 27.1911L20.6596 26.7873C20.4658 26.9288 20.2792 27.08 20.1006 27.2402L20.4345 27.6124L20.7683 27.9846C20.922 27.8467 21.0826 27.7166 21.2493 27.5949L20.9545 27.1911ZM20.4345 27.6124L20.1091 27.2328L20.0064 27.3208L20.3318 27.7004L20.6572 28.08L20.7598 27.992L20.4345 27.6124ZM20.3318 27.7004L20.0068 27.3204C19.3385 27.8919 18.9191 28.2437 18.4757 28.4562L18.6918 28.9071L18.9079 29.3579C19.4938 29.0771 20.0184 28.6262 20.6567 28.0804L20.3318 27.7004ZM18.6918 28.9071L18.4761 28.456C17.9579 28.7038 17.3908 28.8324 16.8164 28.8324V29.3324V29.8324C17.5401 29.8324 18.2546 29.6704 18.9075 29.3581L18.6918 28.9071ZM16.8164 29.3324V28.8324C16.2421 28.8324 15.675 28.7038 15.1568 28.456L14.9411 28.9071L14.7254 29.3581C15.3783 29.6704 16.0928 29.8324 16.8164 29.8324V29.3324ZM14.9411 28.9071L15.1558 28.4555C14.7122 28.2446 14.2957 27.893 13.6243 27.3201L13.2998 27.7004L12.9752 28.0807C13.6132 28.6252 14.138 29.0789 14.7264 29.3586L14.9411 28.9071ZM13.2998 27.7004L13.6228 27.3187L13.5188 27.2307L13.1958 27.6124L12.8728 27.9941L12.9768 28.0821L13.2998 27.7004ZM13.1958 27.6124L13.5305 27.241C13.3528 27.0808 13.1672 26.9297 12.9744 26.7881L12.6785 27.1911L12.3825 27.5941C12.5484 27.7159 12.7081 27.846 12.861 27.9838L13.1958 27.6124ZM12.6785 27.1911L12.9547 26.7743C12.6427 26.5675 12.2937 26.4231 11.9268 26.349L11.8278 26.8391L11.7288 27.3292C11.9691 27.3777 12.1978 27.4723 12.4022 27.6078L12.6785 27.1911ZM11.8278 26.8391L11.9035 26.3448C11.6665 26.3085 11.4278 26.2841 11.1883 26.2717L11.1625 26.7711L11.1366 27.2704C11.3427 27.2811 11.5481 27.302 11.7521 27.3333L11.8278 26.8391ZM11.1625 26.7711L11.2068 26.273L11.0722 26.261L11.0278 26.7591L10.9834 27.2571L11.1181 27.2691L11.1625 26.7711ZM11.0278 26.7591L11.0666 26.2606C10.1903 26.1923 9.64479 26.1451 9.18129 25.981L9.01445 26.4524L8.84761 26.9237C9.46144 27.141 10.1533 27.1925 10.989 27.2575L11.0278 26.7591ZM9.01445 26.4524L9.1807 25.9808C8.63889 25.7898 8.14675 25.4799 7.74042 25.0737L7.38695 25.4274L7.03349 25.781C7.54545 26.2927 8.16554 26.6833 8.8482 26.9239L9.01445 26.4524ZM7.38695 25.4274L7.74042 25.0737C7.33408 24.6676 7.02388 24.1756 6.83258 23.6339L6.36112 23.8004L5.88965 23.9669C6.13068 24.6494 6.52152 25.2693 7.03349 25.781L7.38695 25.4274ZM6.36112 23.8004L6.83283 23.6346C6.66962 23.1703 6.62253 22.6243 6.55288 21.7475L6.05445 21.7871L5.55602 21.8267C5.62237 22.6618 5.67394 23.3532 5.88941 23.9662L6.36112 23.8004ZM6.05445 21.7871L6.55289 21.7476L6.54222 21.6129L6.04378 21.6524L5.54534 21.6919L5.55601 21.8265L6.05445 21.7871ZM6.04378 21.6524L6.54312 21.6266C6.53073 21.3871 6.50633 21.1484 6.47002 20.9113L5.97578 20.9871L5.48155 21.0628C5.5128 21.2667 5.53379 21.4721 5.54445 21.6782L6.04378 21.6524ZM5.97578 20.9871L6.4658 20.8876C6.39148 20.5213 6.24706 20.1729 6.04047 19.8614L5.62378 20.1377L5.2071 20.4141C5.34245 20.6182 5.43708 20.8465 5.48577 21.0865L5.97578 20.9871ZM5.62378 20.1377L6.02758 19.8429C5.88605 19.6491 5.73489 19.4625 5.57464 19.2839L5.20245 19.6177L4.83026 19.9516C4.96814 20.1053 5.09821 20.2658 5.21999 20.4326L5.62378 20.1377ZM5.20245 19.6177L5.58208 19.2923L5.49408 19.1897L5.11445 19.5151L4.73482 19.8405L4.82282 19.9431L5.20245 19.6177ZM5.11445 19.5151L5.49484 19.1906C4.92382 18.5212 4.57118 18.1024 4.35867 17.659L3.90778 17.8751L3.45689 18.0912C3.73772 18.6771 4.19041 19.2023 4.73406 19.8396L5.11445 19.5151ZM3.90778 17.8751L4.35885 17.6593C4.11105 17.1412 3.98242 16.5741 3.98242 15.9997H3.48242H2.98242C2.98242 16.7234 3.14448 17.4379 3.45671 18.0908L3.90778 17.8751ZM3.48242 15.9997H3.98242C3.98242 15.4254 4.11105 14.8583 4.35885 14.3401L3.90778 14.1244L3.45671 13.9087C3.14448 14.5615 2.98242 15.276 2.98242 15.9997H3.48242ZM3.90778 14.1244L4.35889 14.34C4.57135 13.8956 4.92347 13.4787 5.49517 12.8072L5.11445 12.4831L4.73373 12.1589C4.19076 12.7967 3.73755 13.3212 3.45668 13.9087L3.90778 14.1244ZM5.11445 12.4831L5.49614 12.806L5.58414 12.702L5.20245 12.3791L4.82076 12.0561L4.73276 12.1601L5.11445 12.4831ZM5.20245 12.3791L5.57385 12.7138C5.73402 12.5361 5.88519 12.3505 6.02679 12.1577L5.62378 11.8617L5.22078 11.5658C5.09894 11.7317 4.96886 11.8914 4.83105 12.0443L5.20245 12.3791ZM5.62378 11.8617L6.03848 12.1411C6.24984 11.8273 6.39374 11.4756 6.46632 11.1079L5.97578 11.0111L5.48525 10.9142C5.43783 11.1545 5.34439 11.3815 5.20909 11.5824L5.62378 11.8617ZM5.97578 11.0111L6.46607 11.1091C6.49737 10.9527 6.51122 10.7882 6.54231 10.3841L6.04378 10.3457L5.54526 10.3074C5.51234 10.7352 5.5022 10.8295 5.48549 10.913L5.97578 11.0111ZM6.04378 10.3457L6.54222 10.3852L6.55289 10.2505L6.05445 10.2111L5.55601 10.1716L5.54534 10.3062L6.04378 10.3457ZM6.05445 10.2111L6.55288 10.2507C6.62253 9.37385 6.66962 8.82785 6.83283 8.36352L6.36112 8.19772L5.88941 8.03193C5.67394 8.64493 5.62237 9.33627 5.55602 10.1715L6.05445 10.2111ZM6.36112 8.19772L6.83265 8.36404C7.02379 7.82211 7.33393 7.32989 7.74027 6.92355L7.38672 6.56999L7.03316 6.21644C6.52119 6.72842 6.13043 7.3486 5.88959 8.03141L6.36112 8.19772ZM7.38672 6.56999L7.74027 6.92355C8.14661 6.5172 8.63883 6.20707 9.18076 6.01592L9.01445 5.54439L8.84814 5.07286C8.16532 5.3137 7.54514 5.70446 7.03316 6.21644L7.38672 6.56999ZM9.01445 5.54439L9.18025 6.0161C9.64458 5.8529 10.1906 5.80581 11.0674 5.73615L11.0278 5.23772L10.9882 4.73929C10.153 4.80564 9.46166 4.85722 8.84865 5.07268L9.01445 5.54439ZM11.0278 5.23772L11.0673 5.73616L11.2019 5.7255L11.1625 5.22706L11.123 4.72862L10.9883 4.73929L11.0278 5.23772ZM11.1625 5.22706L11.1883 5.72639C11.4278 5.71401 11.6665 5.68961 11.9035 5.65329L11.8278 5.15906L11.7521 4.66483C11.5481 4.69608 11.3427 4.71707 11.1366 4.72773L11.1625 5.22706ZM11.8278 5.15906L11.9246 5.6496C12.2936 5.57676 12.6444 5.4312 12.9563 5.22275L12.6785 4.80706L12.4006 4.39136C12.1978 4.52692 11.9699 4.62136 11.731 4.66852L11.8278 5.15906ZM12.6785 4.80706L12.9596 5.22052C13.0873 5.13366 13.2109 5.03 13.5203 4.76614L13.1958 4.38572L12.8713 4.00531C12.546 4.28279 12.4696 4.34445 12.3973 4.39359L12.6785 4.80706ZM13.1958 4.38572L13.5188 4.76742L13.6228 4.67942L13.2998 4.29772L12.9768 3.91603L12.8728 4.00403L13.1958 4.38572ZM13.2998 4.29772L13.6243 4.67812C14.2932 4.10751 14.7137 3.75453 15.1572 3.54195L14.9411 3.09106L14.725 2.64017C14.1392 2.92092 13.6131 3.37327 12.9753 3.91733L13.2998 4.29772ZM17.8238 4.90172L18.0388 4.45034C17.6564 4.26812 17.2381 4.17357 16.8144 4.17357V4.67357V5.17357C17.0893 5.17357 17.3606 5.23491 17.6087 5.35311L17.8238 4.90172ZM16.8144 4.67357V4.17357C16.3908 4.17357 15.9725 4.26812 15.5901 4.45034L15.8051 4.90172L16.0202 5.35311C16.2683 5.23491 16.5396 5.17357 16.8144 5.17357V4.67357ZM15.8051 4.90172L15.5903 4.4502C15.269 4.60308 14.9476 4.87306 14.1732 5.53147L14.4971 5.91239L14.821 6.29331C15.6493 5.58905 15.8479 5.43504 16.0199 5.35325L15.8051 4.90172ZM14.4971 5.91239L14.177 5.52828L14.137 5.56162L14.4571 5.94572L14.7772 6.32983L14.8172 6.2965L14.4971 5.91239ZM14.4571 5.94572L14.1327 5.56528C13.8628 5.7954 13.6964 5.9378 13.5165 6.05811L13.7945 6.47372L14.0724 6.88934C14.3112 6.72965 14.5261 6.54405 14.7816 6.32617L14.4571 5.94572ZM13.7945 6.47372L13.5166 6.05806C13.0923 6.34172 12.6179 6.53858 12.1184 6.63637L12.2144 7.12706L12.3105 7.61775C12.9416 7.4942 13.5393 7.24573 14.0723 6.88939L13.7945 6.47372ZM12.2144 7.12706L12.1164 6.63677C11.904 6.67924 11.6847 6.69738 11.3314 6.72603L11.3718 7.22439L11.4122 7.72276C11.7495 7.69541 12.0315 7.67355 12.3125 7.61735L12.2144 7.12706ZM11.3718 7.22439L11.3324 6.72594L11.2818 6.72994L11.3211 7.22839L11.3605 7.72684L11.4111 7.72284L11.3718 7.22439ZM11.3211 7.22839L11.2812 6.72999C10.2651 6.81133 9.85115 6.8483 9.51573 6.96587L9.68112 7.43772L9.84651 7.90958C10.0284 7.84581 10.2784 7.81346 11.361 7.7268L11.3211 7.22839ZM9.68112 7.43772L9.51426 6.96639C8.7058 7.25258 8.06782 7.88841 7.78271 8.70001L8.25445 8.86573L8.72619 9.03145C8.91041 8.50704 9.3231 8.09487 9.84797 7.90906L9.68112 7.43772ZM8.25445 8.86573L7.78413 8.69602C7.66208 9.03427 7.62648 9.45266 7.54538 10.4658L8.04378 10.5057L8.54219 10.5456C8.62908 9.46013 8.66015 9.21452 8.72477 9.03543L8.25445 8.86573ZM8.04378 10.5057L7.54533 10.4664L7.54133 10.517L8.03978 10.5564L8.53823 10.5957L8.54223 10.5451L8.04378 10.5057ZM8.03978 10.5564L7.54127 10.5179C7.51431 10.867 7.49464 11.0895 7.45299 11.3036L7.94378 11.3991L8.43458 11.4946C8.48893 11.2153 8.51192 10.9365 8.5383 10.5949L8.03978 10.5564ZM7.94378 11.3991L7.45332 11.3019C7.35405 11.803 7.15802 12.2775 6.87478 12.7012L7.29045 12.9791L7.70612 13.2569C8.06288 12.7233 8.30952 12.1258 8.43425 11.4962L7.94378 11.3991ZM7.29045 12.9791L6.87606 12.6993C6.75356 12.8807 6.61043 13.0478 6.37986 13.3196L6.76112 13.6431L7.14237 13.9665C7.3598 13.7103 7.54468 13.4961 7.70484 13.2588L7.29045 12.9791ZM6.76112 13.6431L6.38241 13.3166L6.34908 13.3553L6.72778 13.6817L7.10649 14.0082L7.13982 13.9695L6.76112 13.6431ZM6.72778 13.6817L6.34713 13.3575C5.68788 14.1316 5.4188 14.4533 5.26605 14.7727L5.71712 14.9884L6.16818 15.2041C6.2501 15.0328 6.40502 14.8319 7.10844 14.0059L6.72778 13.6817ZM5.71712 14.9884L5.2658 14.7732C5.08333 15.1559 4.98864 15.5744 4.98864 15.9984H5.48864H5.98864C5.98864 15.7234 6.05007 15.4518 6.16844 15.2036L5.71712 14.9884ZM5.48864 15.9984H4.98864C4.98864 16.4223 5.08333 16.8409 5.2658 17.2236L5.71712 17.0084L6.16844 16.7932C6.05007 16.545 5.98864 16.2734 5.98864 15.9984H5.48864ZM5.71712 17.0084L5.2656 17.2232C5.41847 17.5445 5.68846 17.8659 6.34686 18.6403L6.72778 18.3164L7.10871 17.9925C6.40444 17.1642 6.25043 16.9656 6.16864 16.7936L5.71712 17.0084ZM6.72778 18.3164L6.34367 18.6365L6.37701 18.6765L6.76112 18.3564L7.14523 18.0363L7.11189 17.9963L6.72778 18.3164ZM6.76112 18.3564L6.38067 18.6808C6.61079 18.9507 6.75319 19.1171 6.8735 19.297L7.28912 19.0191L7.70473 18.7411C7.54504 18.5023 7.35945 18.2874 7.14156 18.032L6.76112 18.3564ZM7.28912 19.0191L6.87345 19.2969C7.15711 19.7212 7.35397 20.1956 7.45176 20.6951L7.94245 20.5991L8.43314 20.503C8.30959 19.8719 8.06113 19.2742 7.70479 18.7412L7.28912 19.0191ZM7.94245 20.5991L7.45216 20.6971C7.49463 20.9095 7.51277 21.1288 7.54142 21.4821L8.03978 21.4417L8.53815 21.4013C8.5108 21.064 8.48894 20.782 8.43274 20.501L7.94245 20.5991ZM8.03978 21.4417L7.54133 21.4811L7.54533 21.5317L8.04378 21.4924L8.54223 21.453L8.53823 21.4024L8.03978 21.4417ZM8.04378 21.4924L7.54538 21.5323C7.62672 22.5484 7.66369 22.9624 7.78126 23.2978L8.25312 23.1324L8.72497 22.967C8.66121 22.7851 8.62885 22.5351 8.54219 21.4525L8.04378 21.4924ZM8.25312 23.1324L7.78178 23.2992C8.06797 24.1077 8.7038 24.7457 9.5154 25.0308L9.68112 24.5591L9.84684 24.0873C9.32243 23.9031 8.91026 23.4904 8.72446 22.9655L8.25312 23.1324ZM9.68112 24.5591L9.51141 25.0294C9.84966 25.1514 10.268 25.187 11.2812 25.2681L11.3211 24.7697L11.361 24.2713C10.2755 24.1844 10.0299 24.1534 9.85082 24.0887L9.68112 24.5591ZM11.3211 24.7697L11.2818 25.2682L11.3324 25.2722L11.3718 24.7737L11.4111 24.2753L11.3605 24.2713L11.3211 24.7697ZM11.3718 24.7737L11.3333 25.2722C11.6824 25.2992 11.9049 25.3189 12.1189 25.3605L12.2144 24.8697L12.31 24.3789C12.0307 24.3246 11.7519 24.3016 11.4103 24.2752L11.3718 24.7737ZM12.2144 24.8697L12.1173 25.3602C12.6184 25.4595 13.0929 25.6555 13.5166 25.9387L13.7945 25.5231L14.0723 25.1074C13.5387 24.7506 12.9412 24.504 12.3116 24.3793L12.2144 24.8697ZM13.7945 25.5231L13.5147 25.9375C13.6961 26.06 13.8632 26.2031 14.135 26.4336L14.4585 26.0524L14.7819 25.6711C14.5257 25.4537 14.3115 25.2688 14.0742 25.1087L13.7945 25.5231ZM14.4585 26.0524L14.132 26.4311L14.1706 26.4644L14.4971 26.0857L14.8236 25.707L14.7849 25.6737L14.4585 26.0524ZM14.4971 26.0857L14.1729 26.4664C14.947 27.1256 15.2687 27.3947 15.5881 27.5475L15.8038 27.0964L16.0195 26.6453C15.8482 26.5634 15.6472 26.4085 14.8213 25.7051L14.4971 26.0857ZM15.8038 27.0964L15.5886 27.5477C15.9713 27.7302 16.3898 27.8249 16.8138 27.8249V27.3249V26.8249C16.5388 26.8249 16.2672 26.7634 16.019 26.6451L15.8038 27.0964ZM16.8138 27.3249V27.8249C17.2377 27.8249 17.6563 27.7302 18.039 27.5477L17.8238 27.0964L17.6086 26.6451C17.3603 26.7634 17.0888 26.8249 16.8138 26.8249V27.3249ZM17.8238 27.0964L18.0386 27.5479C18.3599 27.395 18.6813 27.1251 19.4557 26.4666L19.1318 26.0857L18.8079 25.7048C17.9796 26.4091 17.781 26.5631 17.609 26.6449L17.8238 27.0964ZM19.1318 26.0857L19.4519 26.4698L19.4919 26.4365L19.1718 26.0524L18.8517 25.6683L18.8117 25.7016L19.1318 26.0857ZM19.1718 26.0524L19.4962 26.4328C19.7661 26.2027 19.9325 26.0603 20.1124 25.94L19.8345 25.5244L19.5565 25.1088C19.3177 25.2685 19.1028 25.4541 18.8473 25.6719L19.1718 26.0524ZM19.8345 25.5244L20.1123 25.9401C20.5366 25.6564 21.011 25.4595 21.5105 25.3617L21.4145 24.8711L21.3184 24.3804C20.6873 24.5039 20.0896 24.7524 19.5566 25.1087L19.8345 25.5244ZM21.4145 24.8711L21.4981 25.364C21.7596 25.3196 22.0233 25.2892 22.2881 25.2728L22.2571 24.7737L22.2262 24.2747C21.9261 24.2933 21.6272 24.3278 21.3308 24.3781L21.4145 24.8711ZM22.2571 24.7737L22.2965 25.2722L22.3471 25.2682L22.3078 24.7697L22.2684 24.2713L22.2178 24.2753L22.2571 24.7737ZM22.3078 24.7697L22.3477 25.2681C23.3638 25.1868 23.7778 25.1498 24.1132 25.0322L23.9478 24.5604L23.7824 24.0885C23.6005 24.1523 23.3505 24.1847 22.2679 24.2713L22.3078 24.7697ZM23.9478 24.5604L24.1146 25.0317C24.9231 24.7455 25.5611 24.1097 25.8462 23.2981L25.3745 23.1324L24.9027 22.9667C24.7185 23.4911 24.3058 23.9033 23.7809 24.0891L23.9478 24.5604ZM25.3745 23.1324L25.8448 23.3021C25.9668 22.9638 26.0024 22.544 26.0835 21.5323L25.5851 21.4924L25.0867 21.4524C24.9998 22.5368 24.9687 22.7836 24.9041 22.9627L25.3745 23.1324ZM25.5851 21.4924L26.0836 21.5317L26.0876 21.4811L25.5891 21.4417L25.0907 21.4024L25.0867 21.453L25.5851 21.4924ZM25.5891 21.4417L26.0882 21.4718C26.1042 21.2066 26.1342 20.9425 26.1782 20.6805L25.6851 20.5977L25.192 20.5149C25.1422 20.8118 25.1081 21.1112 25.09 21.4117L25.5891 21.4417ZM25.6851 20.5977L26.1755 20.6951C26.2748 20.1953 26.4708 19.7207 26.7541 19.2969L26.3385 19.0191L25.9228 18.7412C25.5661 19.2748 25.3194 19.8722 25.1947 20.5003L25.6851 20.5977ZM26.3385 19.0191L26.7528 19.2988C26.8753 19.1174 27.0185 18.9503 27.249 18.6785L26.8678 18.3551L26.4865 18.0316C26.2691 18.2878 26.0842 18.502 25.9241 18.7393L26.3385 19.0191ZM26.8678 18.3551L27.2465 18.6815L27.2798 18.6429L26.9011 18.3164L26.5224 17.9899L26.4891 18.0286L26.8678 18.3551ZM26.9011 18.3164L27.2818 18.6406C27.941 17.8665 28.2101 17.5448 28.3629 17.2255L27.9118 17.0097L27.4607 16.794C27.3788 16.9653 27.2239 17.1663 26.5205 17.9922L26.9011 18.3164ZM27.9118 17.0097L28.3631 17.2249C28.5456 16.8423 28.6403 16.4237 28.6403 15.9997L28.1403 15.9997L27.6403 15.9997C27.6403 16.2747 27.5788 16.5463 27.4605 16.7945L27.9118 17.0097ZM28.1403 15.9997L28.6403 15.9997C28.6403 15.5758 28.5456 15.1572 28.3631 14.7745L27.9118 14.9897L27.4605 15.2049C27.5788 15.4532 27.6403 15.7247 27.6403 15.9997L28.1403 15.9997ZM27.9118 14.9897L28.3633 14.7749C28.2104 14.4536 27.9404 14.1322 27.282 13.3578L26.9011 13.6817L26.5202 14.0056C27.2245 14.8339 27.3785 15.0325 27.4603 15.2045L27.9118 14.9897ZM26.9011 13.6817L27.2852 13.3616L27.2519 13.3216L26.8678 13.6417L26.4837 13.9618L26.517 14.0018L26.9011 13.6817ZM26.8678 13.6417L27.2482 13.3173C27.0181 13.0474 26.8757 12.881 26.7554 12.7011L26.3398 12.9791L25.9242 13.257C26.0839 13.4958 26.2695 13.7107 26.4873 13.9662L26.8678 13.6417ZM26.3398 12.9791L26.7559 12.7019C26.4732 12.2774 26.2764 11.8016 26.1768 11.3014L25.6865 11.3991L25.1961 11.4967C25.3212 12.1252 25.5684 12.723 25.9237 13.2563L26.3398 12.9791ZM25.6865 11.3991L26.1794 11.3154C26.135 11.0539 26.1046 10.7902 26.0882 10.5254L25.5891 10.5564L25.0901 10.5873C25.1087 10.8874 25.1432 11.1863 25.1935 11.4827L25.6865 11.3991ZM25.5891 10.5564L26.0876 10.517L26.0836 10.4664L25.5851 10.5057L25.0867 10.5451L25.0907 10.5957L25.5891 10.5564ZM25.5851 10.5057L26.0835 10.4658C26.0022 9.44973 25.9652 9.03575 25.8476 8.70033L25.3758 8.86573L24.9039 9.03112C24.9677 9.21303 25.0001 9.46305 25.0867 10.5456L25.5851 10.5057ZM25.3758 8.86573L25.8471 8.69887C25.5609 7.89041 24.9251 7.25243 24.1135 6.96732L23.9478 7.43906L23.7821 7.9108C24.3065 8.09502 24.7186 8.50771 24.9044 9.03258L25.3758 8.86573ZM23.9478 7.43906L24.1175 6.96874C23.7792 6.84669 23.3594 6.81108 22.3477 6.72999L22.3078 7.22839L22.2678 7.72679C23.3522 7.81371 23.599 7.84476 23.7781 7.90938L23.9478 7.43906ZM22.3078 7.22839L22.3471 6.72994L22.2965 6.72594L22.2571 7.22439L22.2178 7.72284L22.2684 7.72684L22.3078 7.22839ZM22.2571 7.22439L22.2872 6.7253C22.022 6.70933 21.7579 6.67929 21.4959 6.6353L21.4131 7.12839L21.3303 7.62149C21.6272 7.67134 21.9266 7.70539 22.2271 7.72349L22.2571 7.22439ZM21.4131 7.12839L21.511 6.63806C21.0112 6.53831 20.5358 6.34157 20.1117 6.05897L19.8345 6.47506L19.5572 6.89114C20.09 7.24621 20.6873 7.49339 21.3153 7.61872L21.4131 7.12839ZM19.8345 6.47506L20.1142 6.06066C19.9328 5.93817 19.7657 5.79504 19.4939 5.56447L19.1705 5.94572L18.847 6.32698C19.1032 6.54441 19.3174 6.72928 19.5547 6.88945L19.8345 6.47506ZM19.1705 5.94572L19.4969 5.56702L19.4583 5.53369L19.1318 5.91239L18.8053 6.29109L18.844 6.32443L19.1705 5.94572ZM19.1318 5.91239L19.456 5.53174C18.6819 4.87249 18.3602 4.60341 18.0408 4.45066L17.8251 4.90172L17.6094 5.35279C17.7807 5.43471 17.9817 5.58963 18.8076 6.29305L19.1318 5.91239ZM22.2078 11.9444L21.8557 12.2994C21.9025 12.3459 21.9397 12.4012 21.9651 12.4621L22.4267 12.2698L22.8882 12.0775C22.8121 11.8947 22.7005 11.7288 22.5599 11.5894L22.2078 11.9444ZM22.4267 12.2698L21.9651 12.4621C21.9905 12.523 22.0036 12.5884 22.0036 12.6544H22.5036H23.0036C23.0036 12.4564 22.9644 12.2603 22.8882 12.0775L22.4267 12.2698ZM22.5036 12.6544H22.0036C22.0036 12.7204 21.9905 12.7857 21.9651 12.8467L22.4267 13.039L22.8882 13.2313C22.9644 13.0485 23.0036 12.8524 23.0036 12.6544H22.5036ZM22.4267 13.039L21.9651 12.8467C21.9397 12.9076 21.9025 12.9629 21.8557 13.0094L22.2078 13.3644L22.5599 13.7194C22.7005 13.5799 22.8121 13.414 22.8882 13.2313L22.4267 13.039ZM22.2078 13.3644L21.8542 13.0108L15.1649 19.7002L15.5185 20.0537L15.872 20.4073L22.5613 13.7179L22.2078 13.3644ZM15.5185 20.0537L15.1652 19.6999C15.0707 19.7942 14.9426 19.8472 14.8091 19.8472V20.3472V20.8472C15.2076 20.8472 15.5897 20.6891 15.8717 20.4076L15.5185 20.0537ZM14.8091 20.3472V19.8472C14.6756 19.8472 14.5475 19.7942 14.453 19.6999L14.0998 20.0537L13.7465 20.4076C14.0285 20.6891 14.4107 20.8472 14.8091 20.8472V20.3472ZM14.0998 20.0537L14.4533 19.7002L11.7773 17.0242L11.4238 17.3777L11.0702 17.7313L13.7462 20.4073L14.0998 20.0537ZM11.4238 17.3777L11.7625 17.0099C11.7125 16.9639 11.6724 16.9083 11.6444 16.8463L11.1886 17.0518L10.7328 17.2574C10.8161 17.4422 10.936 17.6082 11.0851 17.7455L11.4238 17.3777ZM11.1886 17.0518L11.6444 16.8463C11.6165 16.7844 11.6014 16.7175 11.6 16.6495L11.1001 16.6598L10.6002 16.6701C10.6044 16.8728 10.6495 17.0726 10.7328 17.2574L11.1886 17.0518ZM11.1001 16.6598L11.6 16.6495C11.5986 16.5816 11.6109 16.5141 11.6363 16.4511L11.1724 16.2645L10.7085 16.0779C10.6329 16.266 10.596 16.4675 10.6002 16.6701L11.1001 16.6598ZM11.1724 16.2645L11.6363 16.4511C11.6616 16.3881 11.6995 16.3308 11.7475 16.2828L11.394 15.9292L11.0404 15.5757C10.8971 15.719 10.7842 15.8899 10.7085 16.0779L11.1724 16.2645ZM11.394 15.9292L11.7475 16.2828C11.7955 16.2347 11.8528 16.1969 11.9158 16.1716L11.7292 15.7077L11.5427 15.2438C11.3546 15.3194 11.1837 15.4323 11.0404 15.5757L11.394 15.9292ZM11.7292 15.7077L11.9158 16.1716C11.9788 16.1462 12.0463 16.1339 12.1143 16.1353L12.1246 15.6354L12.1349 15.1355C11.9322 15.1313 11.7307 15.1682 11.5427 15.2438L11.7292 15.7077ZM12.1246 15.6354L12.1143 16.1353C12.1822 16.1367 12.2491 16.1518 12.311 16.1797L12.5166 15.7239L12.7221 15.2681C12.5373 15.1848 12.3375 15.1397 12.1349 15.1355L12.1246 15.6354ZM12.5166 15.7239L12.311 16.1797C12.373 16.2076 12.4286 16.2478 12.4746 16.2978L12.8425 15.9591L13.2103 15.6204C13.0729 15.4712 12.9069 15.3514 12.7221 15.2681L12.5166 15.7239ZM12.8425 15.9591L12.489 16.3127L14.4557 18.2781L14.8091 17.9244L15.1626 17.5707L13.1959 15.6054L12.8425 15.9591ZM14.8091 17.9244L15.1626 18.278L21.1426 12.2993L20.7891 11.9457L20.4356 11.5921L14.4556 17.5708L14.8091 17.9244ZM20.7891 11.9457L21.1424 12.2996C21.2369 12.2052 21.3649 12.1523 21.4985 12.1523V11.6523V11.1523C21.1 11.1523 20.7178 11.3104 20.4359 11.5919L20.7891 11.9457ZM21.4985 11.6523V12.1523C21.632 12.1523 21.76 12.2052 21.8545 12.2996L22.2078 11.9457L22.561 11.5919C22.2791 11.3104 21.8969 11.1523 21.4985 11.1523V11.6523Z" fill="#29C946" mask="url(#path-1-outside-1_7414_29024)"/>
</svg>
