<svg width="82" height="83" viewBox="0 0 82 83" fill="none" xmlns="http://www.w3.org/2000/svg">
<rect y="0.318359" width="82" height="82" rx="5" fill="#F1F9FF"/>
<path d="M47.731 35.1501L40.0063 29.8198C39.5477 29.5168 39.1639 29.3633 38.7821 29.3633C38.0932 29.3633 37.2529 29.8965 37.2529 31.3427V42.5345C37.2529 43.9807 38.0932 44.5139 38.7821 44.5139C39.1639 44.5139 39.6245 44.3625 40.0063 44.0575L47.8078 38.7271C48.4945 38.2707 48.8784 37.586 48.8784 36.9013C48.8016 36.2913 48.4199 35.6065 47.731 35.1501ZM47.042 37.4002C46.9425 37.4941 46.8319 37.5479 46.7189 37.6251L39.0871 42.8395C38.9468 42.9092 38.7314 42.8137 38.7128 42.6581C38.7082 42.6197 38.7053 42.5785 38.7053 42.5345V31.3427C38.7053 31.2907 38.7093 31.2426 38.7155 31.1986C38.7399 31.0236 38.9009 30.9401 39.0572 31.0224C39.071 31.0297 39.0935 31.0421 39.1063 31.051L46.8118 36.368C46.8959 36.4233 46.9697 36.4888 47.0296 36.561C47.2234 36.7943 47.2625 37.192 47.042 37.4002Z" fill="#0078D4"/>
<mask id="mask0_4277_20922" style="mask-type:luminance" maskUnits="userSpaceOnUse" x="16" y="24" width="50" height="35">
<path d="M16.5 29.1875C16.5 26.4261 18.7386 24.1875 21.5 24.1875H60.5C63.2614 24.1875 65.5 26.4261 65.5 29.1875V53.4477C65.5 56.2091 63.2614 58.4477 60.5 58.4477H21.5C18.7386 58.4477 16.5 56.2091 16.5 53.4477V29.1875Z" fill="white"/>
</mask>
<g mask="url(#mask0_4277_20922)">
<path d="M60.9626 24.1875H21.0381C18.5918 24.1875 16.5273 26.2437 16.5273 28.6796V53.9556C16.5273 56.3915 18.5918 58.4477 21.0381 58.4477H60.9626C63.4857 58.4477 65.4734 56.3915 65.4734 53.9556V28.6796C65.4734 26.2437 63.4089 24.1875 60.9626 24.1875ZM63.9442 53.9556C63.9442 55.63 62.5686 56.9247 60.9626 56.9247H21.0381C19.4322 56.9247 18.0565 55.5553 18.0565 53.9556C18.0565 51.391 20.1355 49.312 22.7001 49.312H53.2379C53.6965 49.312 54.0015 49.007 54.0015 48.5506C54.0015 48.0941 53.6965 47.7891 53.2379 47.7891H23.0565C20.2951 47.7891 18.0565 45.5505 18.0565 42.7891V28.6796C18.0565 27.0799 19.4322 25.7105 21.0381 25.7105H60.9626C62.6454 25.7105 63.9442 27.0799 63.9442 28.6796V43.2016C63.9442 45.7352 61.8903 47.7891 59.3567 47.7891C58.8961 47.7891 58.5911 48.0941 58.5911 48.5506C58.5911 49.007 58.8961 49.312 59.3567 49.312C61.8903 49.312 63.9442 51.3659 63.9442 53.8996V53.9556Z" fill="#0078D4"/>
</g>
<path d="M26.4683 49.8457C25.8023 49.8457 25.1942 50.0476 24.701 50.3951C23.5847 51.1817 22.4807 52.3584 21.1151 52.3584C20.6566 52.3584 20.3516 52.6613 20.3516 53.1198C20.3516 53.5763 20.6566 53.8792 21.1151 53.8792C22.5718 53.8792 23.8156 55.0508 25.1384 55.6607C25.5226 55.8378 25.9491 55.9354 26.3936 55.9354C28.7133 55.9354 30.9376 53.651 33.2574 53.651H60.0437C60.5043 53.651 60.8093 53.3481 60.8093 52.8895C60.8093 52.4331 60.5043 52.1301 60.0437 52.1301H33.2389C30.9599 52.1301 28.7472 49.8457 26.4683 49.8457ZM26.4683 54.4125C25.6279 54.4125 24.9391 53.7278 24.9391 52.8895C24.9391 52.0534 25.6279 51.3687 26.4683 51.3687C27.3107 51.3687 27.9995 52.0534 27.9995 52.8895C27.9227 53.7278 27.3107 54.4125 26.4683 54.4125Z" fill="#0078D4"/>
</svg>
