<svg width="590" height="372" viewBox="0 0 590 372" fill="none" xmlns="http://www.w3.org/2000/svg">
<path d="M0 15C0 6.71575 6.71573 0 15 0H590V356.755C590 365.04 583.284 371.755 575 371.755H0V15Z" fill="white"/>
<path opacity="0.3" d="M379.725 321.754C381.39 320.773 383.038 319.76 384.669 318.714C405.441 305.381 423.265 285.737 429.152 261.78C435.039 237.824 426.615 209.601 405.523 196.78C387.184 185.633 363.705 187.721 343.051 193.561C322.397 199.401 302.501 208.632 281.151 210.842C255.863 213.46 228.751 206.281 205.785 217.176C180.296 229.269 168.806 262.314 177.064 289.272C180.85 301.63 188.08 312.516 197.42 321.411L379.725 321.754Z" fill="#EBEBFF"/>
<path opacity="0.6" d="M221.08 321.651L221.003 321.602C219.374 320.569 217.762 319.501 216.212 318.428C193.569 302.774 178.25 281.639 173.077 258.917C166.991 232.189 176.672 203.552 196.095 190.826C211.231 180.909 231.653 179.758 256.791 187.408C263.328 189.397 269.889 191.801 276.233 194.126C289.266 198.903 302.742 203.842 316.608 205.383C325.191 206.335 334.136 206.025 342.788 205.723C358.699 205.168 375.151 204.594 389.619 211.986C413.402 224.135 425.922 258.004 417.53 287.485C413.907 300.21 406.538 310.279 392.891 321.15L392.806 321.217L392.697 321.218L221.08 321.651ZM226.713 183.041C215.01 183.041 204.886 185.811 196.437 191.346C177.224 203.936 167.655 232.295 173.684 258.779C178.823 281.348 194.053 302.351 216.566 317.917C218.086 318.967 219.664 320.014 221.26 321.028L392.587 320.596C406.071 309.836 413.354 299.879 416.931 287.313C425.246 258.104 412.866 224.561 389.335 212.54C375.011 205.223 358.641 205.796 342.809 206.345C334.136 206.648 325.168 206.961 316.539 206.001C302.598 204.452 289.086 199.5 276.019 194.711C269.682 192.389 263.13 189.987 256.609 188.003C245.735 184.694 235.753 183.041 226.713 183.041Z" fill="#9192FF"/>
<path d="M456.798 308.318C450.673 308.318 445.69 303.667 445.69 297.95C445.69 292.233 450.673 287.582 456.798 287.582C462.924 287.582 467.907 292.233 467.907 297.95C467.907 303.667 462.924 308.318 456.798 308.318ZM456.798 291.447C452.807 291.447 449.559 294.364 449.559 297.95C449.559 301.536 452.807 304.453 456.798 304.453C460.791 304.453 464.039 301.536 464.039 297.95C464.039 294.364 460.791 291.447 456.798 291.447Z" fill="#3335CF"/>
<path d="M452.883 321.153H428.573L424.417 279.01H457.039L452.883 321.153Z" fill="white"/>
<path d="M453.26 321.568H428.196L423.959 278.594H457.497L453.26 321.568ZM428.95 320.737H452.506L456.58 279.425H424.876L428.95 320.737Z" fill="#3335CF"/>
<path d="M448.654 317.649H432.802L430.092 291.23H451.364L448.654 317.649Z" fill="#EBEBFF"/>
<path d="M145.912 153.546H141.406V152.715H145.912C146.934 152.715 147.933 152.536 148.881 152.182L149.172 152.96C148.131 153.349 147.034 153.546 145.912 153.546ZM136.901 153.546H132.395V152.715H136.901V153.546ZM127.89 153.546H123.384V152.715H127.89V153.546ZM118.879 153.546H114.373V152.715H118.879V153.546ZM109.868 153.546H105.362V152.715H109.868V153.546ZM100.857 153.546H96.3513V152.715H100.857V153.546ZM91.8455 153.546H87.3399V152.715H91.8455V153.546ZM82.8346 153.546H78.329V152.715H82.8346V153.546ZM73.8236 153.546H69.318V152.715H73.8236V153.546ZM64.8126 153.546H60.3069V152.715H64.8126V153.546ZM55.7328 152.828C54.2822 152.223 52.9966 151.25 52.0152 150.014L52.6664 149.497C53.5606 150.624 54.7316 151.511 56.0531 152.062L55.7328 152.828ZM152.995 150.29L152.364 149.749C153.301 148.658 153.948 147.34 154.235 145.939L155.049 146.105C154.734 147.644 154.024 149.091 152.995 150.29ZM50.1243 145.753C50.0413 145.25 49.9996 144.737 50 144.226V141.191H50.8308V144.227C50.8304 144.692 50.8686 145.16 50.9443 145.618L50.1243 145.753ZM155.239 141.533H154.408V137.032H155.239V141.533ZM50.8308 136.689H50V132.188H50.8308V136.689ZM155.239 132.53H154.408V128.028H155.239V132.53ZM50.8308 127.686H50V123.184H50.8308V127.686ZM155.239 123.526H154.408V119.025H155.239V123.526ZM50.8308 118.682H50V114.18H50.8308V118.682ZM155.239 114.523H154.408V110.022H155.239V114.523ZM50.8308 109.679H50V105.177H50.8308V109.679ZM155.239 105.52H154.408V101.018H155.239V105.52ZM50.8308 100.676H50V96.1739H50.8308V100.676ZM155.239 96.5164H154.408V92.0147H155.239V96.5164ZM50.8308 91.6721H50V87.1708H50.8308V91.6721ZM155.239 87.5131H154.408V83.0113H155.239V87.5131ZM50.8308 82.6688H50V81.565C50 80.3656 50.2246 79.1979 50.6684 78.0945L51.4395 78.4038C51.0357 79.4088 50.8308 80.4721 50.8308 81.565V82.6688ZM153.915 78.7095C153.434 77.3623 152.608 76.1477 151.528 75.1962L152.078 74.5729C153.263 75.6173 154.169 76.951 154.698 78.4298L153.915 78.7095ZM53.9591 74.9847L53.4332 74.3417C54.6565 73.3436 56.1216 72.6699 57.6701 72.3927L57.8169 73.2099C56.4073 73.4623 55.0732 74.076 53.9591 74.9847ZM147.741 73.2736C147.144 73.1427 146.529 73.0762 145.912 73.0762H143.34V72.2461H145.912C146.588 72.2461 147.264 72.3186 147.919 72.4625L147.741 73.2736ZM138.835 73.0762H134.329V72.2461H138.835V73.0762ZM129.824 73.0762H125.318V72.2461H129.824V73.0762ZM120.813 73.0762H116.307V72.2461H120.813V73.0762ZM111.802 73.0762H107.296V72.2461H111.802V73.0762H111.802ZM102.791 73.0762H98.2854V72.2461H102.791V73.0762ZM93.7796 73.0762H89.2744V72.2461H93.7796V73.0762ZM84.7686 73.0762H80.263V72.2461H84.7686V73.0762ZM75.7578 73.0762H71.2521V72.2461H75.7578V73.0762ZM66.7467 73.0762H62.2411V72.2461H66.7467V73.0762Z" fill="#9192FF"/>
<path d="M173.151 174.2H76.6854C71.2023 174.2 66.7573 169.759 66.7573 164.28V94.4685C66.7573 88.99 71.2023 84.5488 76.6854 84.5488H173.151C178.634 84.5488 183.079 88.99 183.079 94.4685V164.28C183.079 169.759 178.634 174.2 173.151 174.2Z" fill="#9192FF"/>
<path d="M88.3572 111.164H77.0054V165.559H88.3572V111.164Z" fill="white"/>
<path d="M109.476 120.738H98.1238V165.56H109.476V120.738Z" fill="white"/>
<path d="M130.594 129.109H119.242V165.56H130.594V129.109Z" fill="white"/>
<path d="M151.712 135.016H140.361V165.56H151.712V135.016Z" fill="white"/>
<path d="M172.831 152.432H161.479V165.559H172.831V152.432Z" fill="white"/>
<path d="M153.078 96.9082H96.7585V101.785H153.078V96.9082Z" fill="white"/>
<path d="M283.398 67.8179C277.525 70.5342 269.708 74.9052 271.195 82.6755C272.653 90.2983 281.86 88.9225 287.235 87.1005C291.217 85.751 295.062 83.9371 298.603 81.6687C300.903 80.1956 304.137 77.651 303.352 74.4958C302.678 71.7856 299.531 70.9934 297.112 71.4898C293.604 72.21 289.599 74.3439 286.851 76.5949C284.357 78.6377 282.414 81.8185 282.903 85.1545C283.35 88.2037 285.869 90.3773 288.672 91.3338C292.166 92.526 296.906 92.2816 300.419 91.2162C302.553 90.5689 304.527 88.6371 303.13 86.3275C301.477 83.5934 298.046 84.2546 295.666 85.4583C292.455 87.0831 288.652 89.2058 287.064 92.6124C285.858 95.1991 286.05 98.4066 288.396 100.28C290.694 102.115 294.012 102.122 296.796 101.91C299.101 101.734 302.864 101.253 303.23 98.349C303.599 95.4198 299.995 94.0881 297.704 94.9528C294.156 96.2923 291.933 100.663 290.858 104.048C289.588 108.048 289.609 112.326 290.844 116.326C291.001 116.835 291.804 116.618 291.646 116.105C290.038 110.901 290.597 105.184 293.346 100.455C294.664 98.1896 297.259 94.6089 300.358 95.6108C302.014 96.1459 303.187 98.1038 301.72 99.5779C300.689 100.614 298.951 100.866 297.567 101.014C295.558 101.228 293.398 101.315 291.423 100.807C288.017 99.9312 286.322 96.8528 287.59 93.4928C288.624 90.752 291.158 89.0312 293.572 87.5922C295.865 86.2247 300.438 83.3627 302.413 86.7466C304.625 90.537 297.429 90.9389 295.454 91.0879C292.552 91.3069 289.479 91.2025 286.94 89.6062C284.253 87.9169 283.051 84.9983 284.028 81.9385C285.01 78.8608 287.568 76.81 290.299 75.3019C292.43 74.1254 294.928 72.7541 297.333 72.2906C299.028 71.9639 301.168 72.2313 302.178 73.8391C303.388 75.7631 301.946 77.8633 300.55 79.1763C296.642 82.8531 290.739 85.1762 285.691 86.7277C280.431 88.3441 271.804 88.6934 271.879 80.9594C271.944 74.2706 278.566 70.9639 283.817 68.5348C284.302 68.3108 283.88 67.5949 283.398 67.8179Z" fill="#1B1B43"/>
<path d="M223.03 106.979C224.376 109.808 225.601 112.681 226.793 115.566L228.538 119.909L230.21 124.277L227.714 123.543L231.904 120.258C233.303 119.165 234.73 118.11 236.142 117.035L237.849 115.734L238.638 117.706C239.206 119.126 239.732 120.562 240.282 121.99C240.826 123.419 241.329 124.865 241.855 126.301C242.35 127.751 242.866 129.191 243.332 130.653C243.814 132.107 244.264 133.575 244.686 135.054L243.483 135.546C242.747 134.195 242.039 132.833 241.362 131.457C240.669 130.089 240.027 128.7 239.364 127.319C238.731 125.926 238.076 124.542 237.462 123.142C236.852 121.739 236.22 120.346 235.63 118.936L238.126 119.607C236.725 120.697 235.339 121.806 233.925 122.879L229.677 126.088L227.873 127.451L227.181 125.354L225.715 120.913L224.32 116.446C223.42 113.457 222.552 110.457 221.806 107.414L223.03 106.979Z" fill="#FFA121"/>
<path d="M341.522 116.132C340.776 119.176 339.908 122.176 339.008 125.164L337.613 129.631L336.147 134.073L335.454 136.17L333.651 134.807L329.402 131.597C327.988 130.525 326.603 129.415 325.202 128.326L327.698 127.654C327.107 129.065 326.475 130.458 325.866 131.861C325.251 133.261 324.597 134.645 323.964 136.038C323.3 137.419 322.658 138.808 321.965 140.176C321.289 141.552 320.581 142.914 319.844 144.264L318.642 143.773C319.063 142.293 319.514 140.826 319.996 139.372C320.461 137.91 320.978 136.47 321.473 135.02C321.998 133.583 322.502 132.138 323.046 130.708C323.595 129.281 324.122 127.845 324.69 126.425L325.479 124.453L327.186 125.754C328.597 126.829 330.025 127.884 331.424 128.977L335.614 132.262L333.118 132.995L334.79 128.627L336.535 124.285C337.727 121.4 338.952 118.527 340.298 115.697L341.522 116.132Z" fill="#FFA121"/>
<mask id="mask0_4720_21561" style="mask-type:luminance" maskUnits="userSpaceOnUse" x="377" y="82" width="144" height="83">
<path d="M377.968 156.689C377.968 161.212 381.638 164.878 386.164 164.878H511.98C516.507 164.878 520.177 161.212 520.177 156.689V82.3906H377.968V156.689Z" fill="white"/>
</mask>
<g mask="url(#mask0_4720_21561)">
<path d="M377.968 156.689C377.968 161.212 381.638 164.878 386.164 164.878H511.98C516.507 164.878 520.177 161.212 520.177 156.689V82.3906H377.968V156.689Z" fill="white"/>
</g>
<mask id="mask1_4720_21561" style="mask-type:luminance" maskUnits="userSpaceOnUse" x="377" y="82" width="144" height="83">
<path d="M377.968 156.689C377.968 161.212 381.638 164.878 386.164 164.878H511.98C516.507 164.878 520.177 161.212 520.177 156.689V82.3906H377.968V156.689Z" fill="white"/>
</mask>
<g mask="url(#mask1_4720_21561)">
<path opacity="0.6" d="M364.435 111.002C365.106 104.957 370.498 99.7819 376.57 99.355C382.642 98.928 388.706 103.297 390.218 109.189C393.109 108.294 396.486 109.257 398.469 111.541C400.452 113.825 400.929 117.302 399.634 120.035C405.679 120.988 409.663 128.475 407.074 134.015C411.181 132.925 415.751 133.732 419.236 136.16C422.721 138.589 425.057 142.595 425.453 146.822C427.091 141.122 432.92 136.922 438.85 137.169C444.781 137.416 450.24 142.086 451.397 147.903C469.423 120.515 516.748 128.44 530.232 158.818L510.667 208.481L394.601 211.122L342.252 151.686L364.435 111.002Z" fill="#D1D1FF"/>
<path d="M362.252 126.377C366.499 123.207 371.096 120.316 376.247 119.066C381.398 117.815 387.216 118.41 391.388 121.676C395.561 124.943 397.503 131.189 394.977 135.845C398.569 135.524 402.266 137.458 404.05 140.59C405.833 143.722 405.606 147.886 403.494 150.806C407.129 148.988 411.573 148.87 415.299 150.492C419.025 152.115 421.964 155.448 423.105 159.346C428.293 154.999 437.095 156.067 441.092 161.528C449.706 153.336 462.873 148.819 473.798 153.514C480.135 156.238 484.982 161.694 488.263 167.757C491.544 173.819 493.428 180.52 495.286 187.158L396.716 196.065L355.471 182.857L362.252 126.377Z" fill="white"/>
<path d="M465.057 100.065C462.13 98.8465 459.1 98.6967 456.603 99.4296C455.039 97.4811 452.64 96.2305 449.946 96.2305C445.233 96.2305 441.413 100.047 441.413 104.756C441.413 105.981 441.677 107.144 442.143 108.197C440.481 109.323 439.388 111.224 439.388 113.381C439.388 116.406 441.536 118.929 444.39 119.512C444.34 119.886 444.306 120.264 444.306 120.651C444.306 125.359 448.126 129.176 452.838 129.176C456.873 129.176 460.246 126.375 461.134 122.615C462.032 123.112 463.064 123.396 464.163 123.396C467.623 123.396 470.427 120.594 470.427 117.138C470.427 116.342 470.272 115.583 470 114.882C470.885 114.164 471.586 113.266 472.029 112.202C473.841 107.855 470.72 102.422 465.057 100.065Z" fill="#FFF2E0"/>
<path d="M430.134 95.4405C428.66 94.827 427.134 94.7516 425.877 95.1207C425.089 94.1395 423.881 93.5098 422.525 93.5098C420.152 93.5098 418.228 95.4317 418.228 97.8025C418.228 98.4197 418.361 99.0051 418.596 99.5353C417.759 100.102 417.209 101.059 417.209 102.146C417.209 103.669 418.29 104.939 419.728 105.233C419.702 105.421 419.685 105.611 419.685 105.806C419.685 108.177 421.609 110.099 423.981 110.099C426.013 110.099 427.711 108.688 428.159 106.795C428.611 107.045 429.13 107.188 429.684 107.188C431.426 107.188 432.838 105.778 432.838 104.037C432.838 103.636 432.76 103.254 432.623 102.901C433.068 102.539 433.421 102.088 433.645 101.552C434.557 99.3632 432.985 96.6272 430.134 95.4405Z" fill="#FFF2E0"/>
<path d="M405.222 92.8903C405.441 93.6721 405.327 94.5288 404.678 95.3311C403.152 97.2185 400.449 96.3786 399.77 94.2475C399.505 93.4162 399.381 92.504 399.657 91.6762C400.636 88.7469 404.541 90.4547 405.222 92.8903Z" fill="#D1D1FF"/>
<path d="M430.736 125.338C430.875 125.835 430.802 126.379 430.39 126.888C429.421 128.087 427.705 127.554 427.273 126.2C427.105 125.672 427.026 125.093 427.202 124.568C427.823 122.707 430.303 123.792 430.736 125.338Z" fill="#D1D1FF"/>
<path d="M490.059 102.088C490.198 102.585 490.126 103.129 489.714 103.638C488.744 104.837 487.028 104.304 486.597 102.95C486.429 102.422 486.349 101.843 486.525 101.317C487.147 99.4569 489.626 100.542 490.059 102.088Z" fill="#D1D1FF"/>
</g>
<path d="M511.98 165.292H386.164C381.416 165.292 377.553 161.432 377.553 156.688V81.9746H520.593V156.688C520.593 161.432 516.729 165.292 511.98 165.292ZM378.384 82.8047V156.688C378.384 160.975 381.874 164.462 386.164 164.462H511.98C516.271 164.462 519.761 160.975 519.761 156.688V82.8047H378.384Z" fill="#9192FF"/>
<path d="M511.98 50.416H386.164C381.638 50.416 377.968 54.0824 377.968 58.6051V82.3912H520.177V58.6053C520.177 54.0824 516.507 50.416 511.98 50.416Z" fill="white"/>
<path d="M520.593 82.8051H377.553V58.6043C377.553 53.8598 381.416 50 386.164 50H511.98C516.729 50 520.593 53.8596 520.593 58.6043V82.8051H520.593ZM378.384 81.975H519.761V58.6043C519.761 54.3178 516.27 50.8301 511.98 50.8301H386.164C381.874 50.8301 378.384 54.3178 378.384 58.6043L378.384 81.975Z" fill="#9192FF"/>
<path d="M397.268 72.3536C400.557 72.3536 403.224 69.6891 403.224 66.4024C403.224 63.1156 400.557 60.4512 397.268 60.4512C393.978 60.4512 391.311 63.1156 391.311 66.4024C391.311 69.6891 393.978 72.3536 397.268 72.3536Z" fill="#D1D1FF"/>
<path d="M484.396 71.6632H418.184C415.277 71.6632 412.92 69.3086 412.92 66.4039C412.92 63.4993 415.277 61.1445 418.184 61.1445H484.396C487.303 61.1445 489.66 63.4991 489.66 66.4039C489.66 69.3084 487.303 71.6632 484.396 71.6632Z" fill="white"/>
<path d="M484.397 72.0773H418.184C415.053 72.0773 412.504 69.5319 412.504 66.4029C412.504 63.2737 415.053 60.7285 418.184 60.7285H484.397C487.528 60.7285 490.075 63.2739 490.075 66.4029C490.075 69.5321 487.528 72.0773 484.397 72.0773ZM418.184 61.5584C415.51 61.5584 413.336 63.7318 413.336 66.4027C413.336 69.0736 415.51 71.247 418.184 71.247H484.397C487.069 71.247 489.244 69.0736 489.244 66.4027C489.244 63.7318 487.069 61.5584 484.397 61.5584H418.184Z" fill="#9192FF"/>
<path d="M480.241 121.252C480.241 121.252 468.304 110.027 456.368 109.793L465.027 115.639L448.878 112.599L463.857 120.082L446.303 121.252C455.708 122.917 464.017 127.232 470.879 135.049L480.241 121.252Z" fill="#FFA121"/>
<path opacity="0.6" d="M479.212 126.323C479.212 126.323 474.19 117.93 467.895 116.65L471.805 121.253L463.604 117.758L470.671 124.017L461.239 123.114C466.027 125.082 469.928 128.66 472.657 134.367L479.212 126.323Z" fill="white"/>
<path d="M523.368 147.212C516.986 136.052 520.961 121.28 514.819 117.492L502.628 132.576L523.368 147.212Z" fill="#3335CF"/>
<path d="M514.819 117.492L513.242 117.323C511.562 117.143 509.884 117.69 508.634 118.825L498.326 128.187L502.628 132.576L514.819 117.492Z" fill="#C5C5FF"/>
<path d="M505.325 169.538C493.062 165.654 479.446 172.646 474.447 167.445L486.639 152.361L505.325 169.538Z" fill="#3335CF"/>
<path d="M474.447 167.444L473.949 165.939C473.419 164.336 473.601 162.582 474.449 161.122L481.439 149.082L486.638 152.36L474.447 167.444Z" fill="#C5C5FF"/>
<path d="M536.035 175.949L531.6 163.514L522.934 174.236L536.035 175.949Z" fill="#1B1B43"/>
<path d="M475.14 139.952C484.085 159.066 500.557 174.006 522.937 174.232L531.6 163.514C526.667 141.701 508.582 128.757 487.997 124.045L475.14 139.952Z" fill="#C5C5FF"/>
<path d="M487.997 124.045L483.244 117.043L467.285 136.788L475.14 139.952L487.997 124.045Z" fill="#3335CF"/>
<path d="M470.482 123.057C471.108 122.282 472.244 122.161 473.019 122.787L489.277 135.906C490.052 136.531 490.173 137.666 489.547 138.44C488.921 139.215 487.785 139.336 487.01 138.71L470.752 125.592C469.977 124.966 469.856 123.831 470.482 123.057Z" fill="#1B1B43"/>
<path d="M522.195 158.896C522.307 154.722 519.012 151.247 514.834 151.135C510.656 151.022 507.179 154.315 507.066 158.489C506.954 162.663 510.249 166.138 514.427 166.25C518.605 166.363 522.082 163.07 522.195 158.896Z" fill="white"/>
<path d="M515.125 163.242C517.664 162.972 519.503 160.697 519.233 158.16C518.962 155.623 516.685 153.786 514.146 154.056C511.607 154.326 509.768 156.601 510.038 159.138C510.309 161.675 512.586 163.512 515.125 163.242Z" fill="#1B1B43"/>
<path d="M516.514 158.842C516.151 158.549 516.094 158.017 516.387 157.654C516.681 157.291 517.213 157.234 517.577 157.527C517.94 157.821 517.997 158.353 517.703 158.716C517.41 159.079 516.877 159.135 516.514 158.842Z" fill="white"/>
<path d="M319.63 201.92L290.749 200.168L253.066 210.116C239.851 213.604 229.121 223.237 224.251 235.992L200.705 297.6L246.974 256.636L259.717 321.131L346.154 320.854L345.877 231.309L319.63 201.92Z" fill="#3335CF"/>
<path d="M296.588 235.354C291.354 235.354 286.466 233.318 283.233 229.719L283.852 229.164C287.311 233.015 292.781 234.991 298.474 234.432C304.577 233.84 309.909 230.43 313.106 225.076L313.819 225.502C310.486 231.085 304.923 234.641 298.555 235.259C297.896 235.322 297.238 235.354 296.588 235.354Z" fill="#C5C5FF"/>
<path d="M300.181 224.084C294.646 226.758 287.848 224.118 285.063 218.205L284.124 216.204L274.6 195.983L268.773 183.602L296.923 170.008L309.183 196.033C314.219 206.737 310.205 219.243 300.181 224.084Z" fill="#FFBC96"/>
<path d="M299.608 190.76C297.131 202.817 290.939 211.08 284.124 216.203L274.6 195.983L299.608 190.76Z" fill="#1B1B43"/>
<path d="M302.91 175.671C302.91 190.232 294.693 200.214 284.27 205.359C273.544 210.654 262.344 190.31 256.994 176.709C251.442 162.592 266.728 152.004 279.525 152.004C292.322 152.004 302.91 161.11 302.91 175.671Z" fill="#FFBC96"/>
<path d="M303.489 167.368C302.243 152.42 299.202 138.29 285.343 141.902C280.08 134.566 258.055 134.705 252.653 152.143C249.168 163.393 237.97 168.89 237.97 168.89C251.406 175.948 263.793 173.305 281.049 160.171C286.452 168.059 301.827 168.613 301.827 168.613L303.489 167.368Z" fill="#1B1B43"/>
<path d="M307.787 174.386C308.392 169.667 305.89 165.457 302.197 164.984C298.504 164.511 295.02 167.953 294.414 172.673C293.808 177.393 296.311 181.602 300.003 182.075C303.696 182.549 307.181 179.106 307.787 174.386Z" fill="#FFBC96"/>
<path d="M302.448 169.978C301.553 170.715 301.259 171.714 301.269 172.782C301.275 173.311 301.359 173.848 301.514 174.359C301.676 174.869 301.894 175.351 302.263 175.775L302.015 176.194C301.331 175.97 300.821 175.394 300.506 174.786C300.184 174.169 300.028 173.481 300.028 172.786C300.033 172.094 300.189 171.377 300.575 170.764C300.949 170.149 301.574 169.673 302.245 169.535L302.448 169.978Z" fill="#1B1B43"/>
<path d="M279.24 181.33C280.398 181.253 281.267 180.14 281.181 178.843C281.095 177.547 280.087 176.558 278.929 176.634C277.771 176.711 276.902 177.825 276.988 179.121C277.074 180.418 278.083 181.407 279.24 181.33Z" fill="#1B1B43"/>
<path d="M268.844 185.2C269.827 184.82 270.278 183.621 269.852 182.521C269.426 181.421 268.285 180.837 267.302 181.217C266.32 181.597 265.869 182.796 266.295 183.896C266.721 184.995 267.862 185.579 268.844 185.2Z" fill="#1B1B43"/>
<path d="M284.779 172.917C284.822 173.575 281.323 173.364 279.819 173.681C278.535 173.952 276.579 175.202 275.698 173.954C274.902 172.829 276.9 171.553 279.376 171.388C281.852 171.224 284.735 172.259 284.779 172.917Z" fill="#1B1B43"/>
<path d="M262.221 180.154C262.614 180.693 264.401 178.838 265.428 178.362C266.304 177.956 268.17 177.996 267.863 176.589C267.586 175.32 265.68 175.279 264.217 176.344C262.754 177.41 261.828 179.615 262.221 180.154Z" fill="#1B1B43"/>
<path d="M276.234 194.973C277.035 194.01 278.178 193.386 279.337 192.996C280.509 192.612 281.713 192.444 282.929 192.533L283.019 193.012C281.915 193.535 280.797 193.826 279.721 194.174C278.636 194.51 277.617 194.909 276.525 195.363L276.234 194.973Z" fill="#1B1B43"/>
<path d="M273.083 184.542C273.144 185.446 273.01 186.41 272.543 187.29C272.317 187.729 271.993 188.125 271.665 188.455C271.342 188.786 271.015 189.063 270.937 189.26C270.912 189.361 270.868 189.439 270.891 189.588C270.886 189.678 270.91 189.683 270.905 189.698C270.908 189.72 270.943 189.75 270.964 189.789C271.119 189.964 271.485 190.141 271.851 190.276C272.607 190.545 273.462 190.726 274.304 190.926L274.293 191.413C273.385 191.535 272.483 191.529 271.548 191.327C271.081 191.211 270.597 191.076 270.104 190.648C269.991 190.52 269.868 190.384 269.79 190.205C269.71 190.014 269.658 189.813 269.659 189.68C269.616 189.393 269.676 189.028 269.817 188.727C270.14 188.134 270.545 187.871 270.843 187.593C271.154 187.324 271.406 187.05 271.633 186.738C272.083 186.114 272.364 185.328 272.598 184.494L273.083 184.542Z" fill="#D28572"/>
<path opacity="0.2" d="M295.742 182.448C295.778 179.515 293.427 177.109 290.492 177.073C287.557 177.037 285.148 179.386 285.112 182.319C285.077 185.251 287.427 187.658 290.362 187.694C293.298 187.729 295.706 185.381 295.742 182.448Z" fill="#FE5B52"/>
<path d="M367.776 232.006C359.565 214.75 342.619 203.323 323.528 202.161L319.63 201.92L348.38 267.331L379.848 255.659L367.776 232.006Z" fill="#3335CF"/>
<path d="M267.336 189.374C267.024 184.599 267.856 173.388 264.947 174.634C262.038 175.88 261.31 192.072 261.31 192.072C261.31 192.072 260.895 165.083 257.778 166.329C254.661 167.575 254.661 187.089 247.805 207.849L209.296 289.108C204.663 298.883 210.499 310.399 221.126 312.454C228.921 313.961 236.689 309.734 239.653 302.375C249.627 277.613 267.947 224.175 269.726 213.767C271.18 205.256 270.805 201.575 270.243 199.386C269.314 195.769 267.579 193.1 267.336 189.374Z" fill="#FFBC96"/>
<path d="M248.047 206.055C249.225 202.853 249.995 199.507 250.713 196.164C251.42 192.815 252.014 189.442 252.624 186.071L254.43 175.942C254.748 174.255 255.078 172.569 255.473 170.889C255.672 170.049 255.886 169.211 256.152 168.378C256.288 167.961 256.435 167.545 256.625 167.131C256.718 166.924 256.831 166.716 256.969 166.509C257.119 166.313 257.281 166.064 257.685 165.939L257.654 165.947C257.774 165.923 257.902 165.91 258.025 165.908C258.141 165.926 258.255 165.97 258.366 166.013C258.541 166.118 258.709 166.252 258.8 166.383C259.027 166.65 259.153 166.921 259.278 167.192C259.517 167.734 259.689 168.28 259.832 168.827C260.123 169.921 260.327 171.021 260.505 172.124C260.852 174.329 261.09 176.541 261.275 178.756C261.634 183.187 261.826 187.628 261.783 192.078L260.838 192.057C260.942 189.545 261.13 187.051 261.416 184.555C261.718 182.064 262.067 179.569 262.852 177.125C263.067 176.518 263.302 175.911 263.663 175.331C263.854 175.045 264.066 174.756 264.383 174.522C264.682 174.269 265.15 174.149 265.577 174.207C265.677 174.229 265.771 174.266 265.869 174.298C265.968 174.341 266.048 174.34 266.174 174.451C266.232 174.496 266.287 174.545 266.338 174.596C266.383 174.645 266.398 174.684 266.429 174.728C266.478 174.813 266.547 174.907 266.575 174.986C266.722 175.314 266.817 175.631 266.897 175.947C267.06 176.578 267.154 177.204 267.246 177.832C267.57 180.341 267.656 182.852 267.635 185.361C267.627 186.626 267.547 187.854 267.657 189.07C267.756 190.291 267.979 191.5 268.294 192.69C268.611 193.88 269.013 195.05 269.453 196.211C269.903 197.361 270.354 198.579 270.606 199.818C271.141 202.302 271.2 204.856 270.97 207.357C270.738 209.863 270.249 212.332 269.594 214.749L269.234 214.655C269.839 212.242 270.278 209.787 270.46 207.316C270.641 204.849 270.534 202.354 269.971 199.962C269.7 198.757 269.285 197.624 268.815 196.454C268.364 195.284 267.945 194.093 267.611 192.873C267.279 191.651 267.04 190.399 266.929 189.131C266.807 187.858 266.881 186.585 266.881 185.356C266.886 182.875 266.783 180.384 266.451 177.943C266.359 177.337 266.263 176.727 266.109 176.15C266.035 175.862 265.945 175.58 265.835 175.339C265.811 175.271 265.777 175.243 265.751 175.191C265.72 175.126 265.699 175.122 265.699 175.122C265.721 175.106 265.632 175.09 265.59 175.073C265.538 175.058 265.487 175.033 265.437 175.02C265.068 174.961 264.668 175.286 264.371 175.779C264.074 176.261 263.854 176.825 263.658 177.394C262.927 179.715 262.589 182.196 262.308 184.655C262.042 187.122 261.87 189.611 261.783 192.086L260.838 192.066C260.879 187.654 260.734 183.23 260.396 178.827C260.225 176.626 260.002 174.428 259.673 172.254C259.505 171.168 259.309 170.086 259.037 169.037C258.904 168.512 258.741 167.997 258.536 167.525C258.435 167.293 258.316 167.057 258.181 166.903C258.117 166.804 258.049 166.774 257.998 166.729C257.977 166.731 257.962 166.717 257.945 166.708C257.93 166.72 257.92 166.721 257.902 166.711L257.871 166.72C257.856 166.718 257.721 166.819 257.626 166.966C257.526 167.115 257.43 167.284 257.347 167.467C257.177 167.831 257.035 168.224 256.903 168.621C256.643 169.418 256.427 170.241 256.226 171.068C255.827 172.724 255.488 174.401 255.161 176.081L253.297 186.192C252.683 189.566 252.011 192.932 251.248 196.281C250.471 199.624 249.642 202.969 248.395 206.188L248.047 206.055Z" fill="#D28572"/>
<path d="M394.896 301.306C394.755 310.872 390.583 317.557 385.355 321.41L374.742 321.244L372.115 321.202H372.057L359.582 292.827L359.557 292.761L348.379 267.334L379.845 255.658L391.589 284.457C393.999 290.826 394.971 296.439 394.896 301.306Z" fill="#FFBC96"/>
<path d="M386.186 289.855L303.584 299.089L292.836 295.62C287.97 294.049 282.642 295.015 278.647 298.204C269.274 305.683 254.037 319.47 257.986 320.579C264.635 322.448 273.318 318.952 281.114 316.996C285.42 315.915 289.97 316.426 293.921 318.448L299.325 321.214L381.615 321.202L386.186 289.855Z" fill="#FFBC96"/>
<path d="M259.953 319.118C262.183 317.816 264.445 316.579 266.716 315.358C268.98 314.124 271.284 312.967 273.566 311.768C274.691 311.178 275.896 310.572 277.153 310.136C278.411 309.704 279.71 309.39 281.029 309.244C282.347 309.096 283.677 309.082 284.99 309.199C286.301 309.344 287.598 309.597 288.837 310.023L288.709 310.493C287.458 310.248 286.198 310.083 284.936 310.069C283.677 310.027 282.417 310.112 281.182 310.322C279.947 310.529 278.731 310.84 277.563 311.28C276.383 311.694 275.294 312.283 274.127 312.867C271.815 314.007 269.524 315.19 267.194 316.295C264.871 317.413 262.539 318.515 260.175 319.552L259.953 319.118Z" fill="#D28572"/>
<path d="M261.155 314.996C262.655 313.576 264.224 312.243 265.826 310.947C267.422 309.642 269.067 308.399 270.751 307.205C272.445 306.024 274.16 304.867 275.982 303.865C277.812 302.905 279.674 301.859 281.861 301.654L281.901 302.14C280.957 302.388 280.036 302.756 279.157 303.266C278.259 303.715 277.397 304.262 276.538 304.8C274.82 305.885 273.144 307.055 271.466 308.218C269.787 309.384 268.139 310.599 266.466 311.782C264.803 312.979 263.146 314.19 261.466 315.371L261.155 314.996Z" fill="#D28572"/>
<path d="M370.506 291.881L359.424 292.152L359.455 293.397L370.537 293.126L370.506 291.881Z" fill="#D28572"/>
<path d="M340.71 250.765L339.964 251.131L348.009 267.499L348.755 267.133L340.71 250.765Z" fill="#EBEBFF"/>
<path opacity="0.2" d="M394.896 301.306C394.755 310.873 390.583 317.557 385.355 321.411L374.742 321.244C374.733 321.228 374.733 321.219 374.733 321.203C374.343 319.816 374.135 318.355 374.135 316.843C374.135 309.976 378.407 304.113 384.449 301.755C386.278 301.041 388.264 300.65 390.342 300.65C391.921 300.65 393.45 300.874 394.896 301.306Z" fill="#FE5B52"/>
<path d="M263.319 311.189H215.945V321.154H263.319V311.189Z" fill="#1B1B43"/>
<path d="M232.013 321.154H156.797L135.188 246.002H210.404L232.013 321.154Z" fill="#EBEBFF"/>
<path d="M156.498 321.239L134.774 245.689H158.044V246.313H135.602L157.097 321.067L156.498 321.239Z" fill="#1B1B43"/>
<path d="M223.957 293.679L210.17 246.313H175.498V245.689H210.638L224.555 293.504L223.957 293.679Z" fill="#1B1B43"/>
<path d="M232.999 64.5114C233.981 61.2146 232.102 57.7471 228.802 56.7665C225.502 55.7858 222.032 57.6635 221.051 60.9603C220.069 64.2571 221.948 67.7246 225.248 68.7052C228.548 69.6859 232.018 67.8082 232.999 64.5114Z" fill="#EBEBFF"/>
<path d="M102.691 213.24C103.711 208.926 101.037 204.603 96.7188 203.584C92.4006 202.565 88.0734 205.237 87.0537 209.551C86.0341 213.866 88.7081 218.189 93.0263 219.208C97.3445 220.227 101.672 217.555 102.691 213.24Z" fill="#EBEBFF"/>
<path d="M488.414 233.385C491.857 233.385 494.647 230.597 494.647 227.158C494.647 223.718 491.857 220.93 488.414 220.93C484.972 220.93 482.181 223.718 482.181 227.158C482.181 230.597 484.972 233.385 488.414 233.385Z" fill="#EBEBFF"/>
<path d="M480.629 231.236L480.614 230.405C481.62 230.385 482.609 230.212 483.554 229.889L483.823 230.674C482.796 231.026 481.722 231.214 480.629 231.236ZM477.416 230.801C476.372 230.49 475.388 230.019 474.489 229.402L474.96 228.718C475.787 229.285 476.693 229.719 477.654 230.005L477.416 230.801ZM486.691 229.162L486.195 228.496C486.999 227.896 487.703 227.179 488.286 226.366L488.962 226.849C488.329 227.732 487.566 228.511 486.691 229.162ZM472.129 227.178C471.459 226.317 470.93 225.363 470.557 224.342L471.339 224.058C471.682 224.997 472.169 225.876 472.785 226.67L472.129 227.178ZM490.419 223.953L489.627 223.7C489.932 222.75 490.087 221.757 490.087 220.75C490.087 220.494 490.077 220.242 490.058 219.992L490.886 219.926C490.907 220.199 490.919 220.475 490.918 220.752C490.918 221.843 490.75 222.921 490.419 223.953ZM469.935 221.164C469.929 221.028 469.927 220.891 469.926 220.753C469.926 219.797 470.054 218.853 470.307 217.944L471.108 218.166C470.875 219.003 470.758 219.872 470.758 220.751C470.758 220.877 470.761 221.004 470.765 221.131L469.935 221.164ZM489.367 217.088C488.987 216.163 488.467 215.305 487.82 214.537L488.456 214.003C489.159 214.837 489.724 215.768 490.136 216.773L489.367 217.088ZM472.343 215.45L471.649 214.993C472.247 214.084 472.98 213.276 473.827 212.593L474.35 213.239C473.57 213.868 472.895 214.612 472.343 215.45ZM485.568 212.575C484.719 212.04 483.797 211.643 482.825 211.395L483.032 210.591C484.087 210.86 485.089 211.292 486.011 211.873L485.568 212.575ZM476.933 211.742L476.634 210.968C477.647 210.575 478.713 210.345 479.804 210.281L479.851 211.111C478.849 211.169 477.867 211.381 476.933 211.742Z" fill="#9192FF"/>
<path d="M340.89 81.0068C338.369 81.0068 336.319 78.9582 336.319 76.4397C336.319 73.9215 338.369 71.873 340.89 71.873C343.411 71.873 345.461 73.9215 345.461 76.4397C345.461 78.9582 343.411 81.0068 340.89 81.0068ZM340.89 72.7029C338.828 72.7029 337.15 74.3792 337.15 76.4395C337.15 78.4999 338.828 80.1765 340.89 80.1765C342.952 80.1765 344.63 78.4999 344.63 76.4395C344.63 74.3794 342.952 72.7029 340.89 72.7029Z" fill="#9192FF"/>
<path d="M499.91 320.51H90.4465V321.756H499.91V320.51Z" fill="#1B1B43"/>
</svg>
