<svg width="25" height="25" viewBox="0 0 25 25" fill="none" xmlns="http://www.w3.org/2000/svg">
<path d="M6.5 20.833V22.833M18.5 20.833V22.833M3.5 14.833V8.83301M3.5 14.833C3.5 17.661 3.5 19.076 4.43 19.954C5.361 20.833 6.858 20.833 9.853 20.833H15.147C18.142 20.833 19.64 20.832 20.57 19.954C21.5 19.076 21.5 17.661 21.5 14.833V8.83301C21.5 6.00501 21.5 4.59001 20.57 3.71201C19.639 2.83301 18.142 2.83301 15.147 2.83301H9.853C6.858 2.83301 5.36 2.83401 4.43 3.71201C3.5 4.59001 3.5 6.00501 3.5 8.83301M3.5 14.833H12.5M3.5 8.83301H12.5M12.5 20.833V2.83301M15.5 12.333V11.333" stroke="#0078D4" stroke-linecap="round" stroke-linejoin="round"/>
</svg>
