<svg width="25" height="25" viewBox="0 0 25 25" fill="none" xmlns="http://www.w3.org/2000/svg">
<path d="M6.5 22.833V21.833M18.5 22.833V21.833" stroke="#0078D4" stroke-linecap="round"/>
<path d="M3.5 10.833C3.5 7.06201 3.5 5.17601 4.672 4.00501C5.844 2.83401 7.729 2.83301 11.5 2.83301H13.5C17.271 2.83301 19.157 2.83301 20.328 4.00501C21.499 5.17701 21.5 7.06201 21.5 10.833V13.833C21.5 17.604 21.5 19.49 20.328 20.661C19.156 21.832 17.271 21.833 13.5 21.833H11.5C7.729 21.833 5.843 21.833 4.672 20.661C3.501 19.489 3.5 17.604 3.5 13.833V10.833Z" stroke="#0078D4"/>
<path d="M3.5 9.83301H21.5" stroke="#0078D4" stroke-linecap="round"/>
<path d="M15.5 15.833C15.5 16.6287 15.1839 17.3917 14.6213 17.9543C14.0587 18.5169 13.2956 18.833 12.5 18.833C11.7044 18.833 10.9413 18.5169 10.3787 17.9543C9.81607 17.3917 9.5 16.6287 9.5 15.833C9.5 15.0374 9.81607 14.2743 10.3787 13.7117C10.9413 13.1491 11.7044 12.833 12.5 12.833C13.2956 12.833 14.0587 13.1491 14.6213 13.7117C15.1839 14.2743 15.5 15.0374 15.5 15.833Z" stroke="#0078D4"/>
<path d="M7 6.33301H10" stroke="#0078D4" stroke-linecap="round"/>
<path d="M16 6.33301C16 6.59822 15.8946 6.85258 15.7071 7.04011C15.5196 7.22765 15.2652 7.33301 15 7.33301C14.7348 7.33301 14.4804 7.22765 14.2929 7.04011C14.1054 6.85258 14 6.59822 14 6.33301C14 6.06779 14.1054 5.81344 14.2929 5.6259C14.4804 5.43836 14.7348 5.33301 15 5.33301C15.2652 5.33301 15.5196 5.43836 15.7071 5.6259C15.8946 5.81344 16 6.06779 16 6.33301ZM19 6.33301C19 6.59822 18.8946 6.85258 18.7071 7.04011C18.5196 7.22765 18.2652 7.33301 18 7.33301C17.7348 7.33301 17.4804 7.22765 17.2929 7.04011C17.1054 6.85258 17 6.59822 17 6.33301C17 6.06779 17.1054 5.81344 17.2929 5.6259C17.4804 5.43836 17.7348 5.33301 18 5.33301C18.2652 5.33301 18.5196 5.43836 18.7071 5.6259C18.8946 5.81344 19 6.06779 19 6.33301Z" fill="#0078D4"/>
</svg>
