<svg width="25" height="25" viewBox="0 0 25 25" fill="none" xmlns="http://www.w3.org/2000/svg">
<path d="M6.115 4.83301L17.5 4.83301C18.3247 4.83301 19.031 5.12667 19.619 5.71401C20.207 6.30134 20.5007 7.00767 20.5 7.83301L20.5 14.833C20.5 15.6583 20.2063 16.3647 19.619 16.952C19.0317 17.5393 18.3253 17.833 17.5 17.833L17 17.833C16.858 17.833 16.7393 17.7847 16.644 17.688C16.548 17.5907 16.5 17.4707 16.5 17.328C16.5 17.1927 16.5497 17.0763 16.649 16.979C16.7483 16.8817 16.8653 16.833 17 16.833L17.5 16.833C18.05 16.833 18.5207 16.6373 18.912 16.246C19.3033 15.8547 19.4993 15.3837 19.5 14.833L19.5 7.83301C19.5 7.28301 19.304 6.81234 18.912 6.42101C18.52 6.02967 18.0493 5.83367 17.5 5.83301L6.115 5.83301C5.93567 5.83301 5.78833 5.89067 5.673 6.00601C5.55767 6.12134 5.5 6.26901 5.5 6.44901L5.5 16.218C5.5 16.3973 5.55767 16.5447 5.673 16.66C5.78833 16.7753 5.93566 16.833 6.115 16.833L7 16.833C7.142 16.833 7.26067 16.881 7.356 16.977C7.45133 17.073 7.49933 17.192 7.5 17.334C7.50066 17.476 7.45267 17.5947 7.356 17.69C7.25933 17.7853 7.14066 17.833 7 17.833L6.115 17.833C5.671 17.833 5.291 17.6747 4.975 17.358C4.659 17.0413 4.50066 16.6613 4.5 16.218L4.5 6.44801C4.5 6.00401 4.65833 5.62401 4.975 5.30801C5.29167 4.99201 5.67233 4.83367 6.115 4.83301ZM9.5 11.333C9.5 12.1583 9.79366 12.8647 10.381 13.452C10.9683 14.0393 11.6747 14.333 12.5 14.333C13.3253 14.333 14.0317 14.0393 14.619 13.452C15.2063 12.8647 15.5 12.1583 15.5 11.333C15.5 10.5077 13.9717 8.00282 13.8378 7.79053C13.704 7.57824 13.163 6.83301 12.5 6.83301C11.837 6.83301 11.3498 7.65518 11.2243 7.83301C11.0989 8.01084 9.5 10.5077 9.5 11.333ZM10.5 11.333C10.5 10.783 11.7069 8.63054 11.837 8.42101C11.9671 8.21147 12.218 7.83301 12.5 7.83301C12.782 7.83301 13.0593 8.22048 13.162 8.42101C13.2647 8.62153 14.4987 10.7843 14.5 11.333C14.5013 11.8817 14.3053 12.3527 13.912 12.746C13.5187 13.1393 13.048 13.335 12.5 13.333C11.952 13.331 11.481 13.1353 11.087 12.746C10.693 12.3567 10.4973 11.8857 10.5 11.333ZM15.5 21.458C15.3573 21.458 15.2383 21.41 15.143 21.314C15.0477 21.218 15 21.0993 15 20.958C15 20.7013 14.9433 20.47 14.83 20.264C14.7167 20.0573 14.5333 19.893 14.28 19.771C13.874 19.573 13.5593 19.293 13.336 18.931C13.112 18.569 13 18.1697 13 17.733C13 17.5877 13.0447 17.464 13.134 17.362C13.2227 17.2593 13.3447 17.208 13.5 17.208C13.6553 17.208 13.7773 17.2593 13.866 17.362C13.9553 17.464 14 17.5877 14 17.733C14 17.9883 14.0567 18.2153 14.17 18.414C14.2833 18.6127 14.4667 18.7727 14.72 18.894C15.126 19.0933 15.4407 19.3793 15.664 19.752C15.888 20.1253 16 20.5273 16 20.958C16 21.1 15.952 21.2187 15.856 21.314C15.76 21.4093 15.641 21.4573 15.499 21.458M11.5 21.458C11.3447 21.458 11.2227 21.4067 11.134 21.304C11.0447 21.202 11 21.0783 11 20.933C11 20.6777 10.9433 20.4507 10.83 20.252C10.7167 20.0533 10.5333 19.8933 10.28 19.772C9.874 19.5733 9.55933 19.293 9.336 18.931C9.112 18.569 9 18.1697 9 17.733C9 17.5877 9.04466 17.464 9.134 17.362C9.22266 17.2593 9.34466 17.208 9.5 17.208C9.65533 17.208 9.77733 17.2593 9.866 17.362C9.95533 17.464 10 17.5877 10 17.733C10 17.9883 10.0567 18.2153 10.17 18.414C10.2833 18.6127 10.4667 18.7727 10.72 18.894C11.1 19.0933 11.4083 19.3737 11.645 19.735C11.8817 20.097 12 20.4963 12 20.933C12 21.0783 11.9553 21.202 11.866 21.304C11.7773 21.4067 11.6553 21.458 11.5 21.458Z" fill="#0078D4"/>
</svg>
