<svg width="22" height="17" viewBox="0 0 22 17" fill="none" xmlns="http://www.w3.org/2000/svg">
<path d="M0.810273 6.72766C1.09157 6.44645 1.47303 6.28848 1.87077 6.28848C2.26852 6.28848 2.64998 6.44645 2.93127 6.72766L8.23527 12.0317L18.8403 1.42516C18.9795 1.28579 19.1449 1.17522 19.3269 1.09976C19.5089 1.0243 19.704 0.985421 19.901 0.985352C20.098 0.985282 20.2931 1.02402 20.4752 1.09935C20.6572 1.17469 20.8227 1.28514 20.962 1.42441C21.1014 1.56367 21.212 1.72903 21.2874 1.91102C21.3629 2.09302 21.4018 2.2881 21.4018 2.48513C21.4019 2.68215 21.3632 2.87726 21.2878 3.05931C21.2125 3.24136 21.102 3.40679 20.9628 3.54616L8.23527 16.2737L0.810273 8.84866C0.529067 8.56736 0.371094 8.1859 0.371094 7.78816C0.371094 7.39041 0.529067 7.00895 0.810273 6.72766Z" fill="white"/>
</svg>
