<svg width="33" height="33" viewBox="0 0 33 33" fill="none" xmlns="http://www.w3.org/2000/svg">
<rect width="32" height="32" transform="translate(0.953125 0.898438)" fill="white"/>
<path d="M17.8407 6.06585C17.8407 5.83083 17.7473 5.60543 17.5811 5.43924C17.4149 5.27305 17.1895 5.17969 16.9545 5.17969C16.7195 5.17969 16.4941 5.27305 16.3279 5.43924C16.1617 5.60543 16.0684 5.83083 16.0684 6.06585V10.2013C16.0684 10.4363 16.1617 10.6617 16.3279 10.8279C16.4941 10.9941 16.7195 11.0874 16.9545 11.0874C17.1895 11.0874 17.4149 10.9941 17.5811 10.8279C17.7473 10.6617 17.8407 10.4363 17.8407 10.2013V6.06585ZM16.0684 19.0629C16.0684 19.2979 16.1617 19.5233 16.3279 19.6895C16.4941 19.8557 16.7195 19.9491 16.9545 19.9491C17.1895 19.9491 17.4149 19.8557 17.5811 19.6895C17.7473 19.5233 17.8407 19.2979 17.8407 19.0629V14.9275C17.8407 14.6925 17.7473 14.4671 17.5811 14.3009C17.4149 14.1347 17.1895 14.0413 16.9545 14.0413C16.7195 14.0413 16.4941 14.1347 16.3279 14.3009C16.1617 14.4671 16.0684 14.6925 16.0684 14.9275V19.0629ZM16.0684 23.7891C16.0684 23.5541 16.1617 23.3287 16.3279 23.1625C16.4941 22.9963 16.7195 22.903 16.9545 22.903C17.1895 22.903 17.4149 22.9963 17.5811 23.1625C17.7473 23.3287 17.8407 23.5541 17.8407 23.7891V27.9245C17.8407 28.1596 17.7473 28.385 17.5811 28.5512C17.4149 28.7173 17.1895 28.8107 16.9545 28.8107C16.7195 28.8107 16.4941 28.7173 16.3279 28.5512C16.1617 28.385 16.0684 28.1596 16.0684 27.9245V23.7891Z" fill="#0078D4"/>
<path d="M26.4051 5.96624C26.4051 5.73122 26.3118 5.50582 26.1456 5.33963C25.9794 5.17344 25.754 5.08008 25.519 5.08008C25.284 5.08008 25.0586 5.17344 24.8924 5.33963C24.7262 5.50582 24.6328 5.73122 24.6328 5.96624V12.1694C24.6328 12.4044 24.7262 12.6298 24.8924 12.796C25.0586 12.9622 25.284 13.0555 25.519 13.0555C25.754 13.0555 25.9794 12.9622 26.1456 12.796C26.3118 12.6298 26.4051 12.4044 26.4051 12.1694V5.96624Z" fill="#0078D4"/>
<path d="M26.1462 21.0963C26.3124 21.2625 26.4057 21.4879 26.4057 21.7229V27.926C26.4057 28.1611 26.3124 28.3865 26.1462 28.5526C25.98 28.7188 25.7546 28.8122 25.5196 28.8122C25.2845 28.8122 25.0591 28.7188 24.8929 28.5526C24.7268 28.3865 24.6334 28.1611 24.6334 27.926V21.7229C24.6334 21.4879 24.7268 21.2625 24.8929 21.0963C25.0591 20.9301 25.2845 20.8367 25.5196 20.8367C25.7546 20.8367 25.98 20.9301 26.1462 21.0963Z" fill="#0078D4"/>
<path d="M26.1462 21.0963C26.3124 21.2625 26.4057 21.4879 26.4057 21.7229V27.926C26.4057 28.1611 26.3124 28.3865 26.1462 28.5526C25.98 28.7188 25.7546 28.8122 25.5196 28.8122C25.2845 28.8122 25.0591 28.7188 24.8929 28.5526C24.7268 28.3865 24.6334 28.1611 24.6334 27.926V21.7229C24.6334 21.4879 24.7268 21.2625 24.8929 21.0963C25.0591 20.9301 25.2845 20.8367 25.5196 20.8367C25.7546 20.8367 25.98 20.9301 26.1462 21.0963Z" fill="#0078D4"/>
<path d="M26.1462 21.0963C26.3124 21.2625 26.4057 21.4879 26.4057 21.7229V27.926C26.4057 28.1611 26.3124 28.3865 26.1462 28.5526C25.98 28.7188 25.7546 28.8122 25.5196 28.8122C25.2845 28.8122 25.0591 28.7188 24.8929 28.5526C24.7268 28.3865 24.6334 28.1611 24.6334 27.926V21.7229C24.6334 21.4879 24.7268 21.2625 24.8929 21.0963C25.0591 20.9301 25.2845 20.8367 25.5196 20.8367C25.7546 20.8367 25.98 20.9301 26.1462 21.0963Z" fill="#0078D4"/>
<path d="M26.1462 21.0963C26.3124 21.2625 26.4057 21.4879 26.4057 21.7229V27.926C26.4057 28.1611 26.3124 28.3865 26.1462 28.5526C25.98 28.7188 25.7546 28.8122 25.5196 28.8122C25.2845 28.8122 25.0591 28.7188 24.8929 28.5526C24.7268 28.3865 24.6334 28.1611 24.6334 27.926V21.7229C24.6334 21.4879 24.7268 21.2625 24.8929 21.0963C25.0591 20.9301 25.2845 20.8367 25.5196 20.8367C25.7546 20.8367 25.98 20.9301 26.1462 21.0963Z" fill="#0078D4"/>
<path d="M9.27428 5.96624C9.27428 5.73122 9.18092 5.50582 9.01473 5.33963C8.84854 5.17344 8.62314 5.08008 8.38812 5.08008C8.15309 5.08008 7.92769 5.17344 7.7615 5.33963C7.59532 5.50582 7.50195 5.73122 7.50195 5.96624V12.1694C7.50195 12.4044 7.59532 12.6298 7.7615 12.796C7.92769 12.9622 8.15309 13.0555 8.38812 13.0555C8.62314 13.0555 8.84854 12.9622 9.01473 12.796C9.18092 12.6298 9.27428 12.4044 9.27428 12.1694V5.96624Z" fill="#0078D4"/>
<path d="M9.01531 21.0963C9.18149 21.2625 9.27486 21.4879 9.27486 21.7229V27.926C9.27486 28.1611 9.18149 28.3865 9.01531 28.5526C8.84912 28.7188 8.62372 28.8122 8.38869 28.8122C8.15367 28.8122 7.92827 28.7188 7.76208 28.5526C7.59589 28.3865 7.50253 28.1611 7.50253 27.926V21.7229C7.50253 21.4879 7.59589 21.2625 7.76208 21.0963C7.92827 20.9301 8.15367 20.8367 8.38869 20.8367C8.62372 20.8367 8.84912 20.9301 9.01531 21.0963Z" fill="#0078D4"/>
<path d="M9.01531 21.0963C9.18149 21.2625 9.27486 21.4879 9.27486 21.7229V27.926C9.27486 28.1611 9.18149 28.3865 9.01531 28.5526C8.84912 28.7188 8.62372 28.8122 8.38869 28.8122C8.15367 28.8122 7.92827 28.7188 7.76208 28.5526C7.59589 28.3865 7.50253 28.1611 7.50253 27.926V21.7229C7.50253 21.4879 7.59589 21.2625 7.76208 21.0963C7.92827 20.9301 8.15367 20.8367 8.38869 20.8367C8.62372 20.8367 8.84912 20.9301 9.01531 21.0963Z" fill="#0078D4"/>
<path d="M9.01531 21.0963C9.18149 21.2625 9.27486 21.4879 9.27486 21.7229V27.926C9.27486 28.1611 9.18149 28.3865 9.01531 28.5526C8.84912 28.7188 8.62372 28.8122 8.38869 28.8122C8.15367 28.8122 7.92827 28.7188 7.76208 28.5526C7.59589 28.3865 7.50253 28.1611 7.50253 27.926V21.7229C7.50253 21.4879 7.59589 21.2625 7.76208 21.0963C7.92827 20.9301 8.15367 20.8367 8.38869 20.8367C8.62372 20.8367 8.84912 20.9301 9.01531 21.0963Z" fill="#0078D4"/>
<path d="M9.01531 21.0963C9.18149 21.2625 9.27486 21.4879 9.27486 21.7229V27.926C9.27486 28.1611 9.18149 28.3865 9.01531 28.5526C8.84912 28.7188 8.62372 28.8122 8.38869 28.8122C8.15367 28.8122 7.92827 28.7188 7.76208 28.5526C7.59589 28.3865 7.50253 28.1611 7.50253 27.926V21.7229C7.50253 21.4879 7.59589 21.2625 7.76208 21.0963C7.92827 20.9301 8.15367 20.8367 8.38869 20.8367C8.62372 20.8367 8.84912 20.9301 9.01531 21.0963Z" fill="#0078D4"/>
<path fill-rule="evenodd" clip-rule="evenodd" d="M5.26984 15.358C5.26984 15.3796 5.28735 15.3971 5.30895 15.3971H9.70115C9.71195 15.3971 9.7207 15.4058 9.7207 15.4166V18.2571C9.7207 18.2679 9.71195 18.2766 9.70115 18.2766H5.30895C5.28735 18.2766 5.26984 18.2941 5.26984 18.3157V19.8563C5.26984 19.926 5.18559 19.9609 5.13631 19.9117L2.19819 16.9735C2.18292 16.9583 2.18292 16.9335 2.19819 16.9182L5.13631 13.9801C5.18559 13.9308 5.26984 13.9657 5.26984 14.0354V15.358ZM4.55005 15.6725C4.67349 15.97 4.96678 16.1793 5.30895 16.1793H8.93854V17.4945H5.30895C4.90518 17.4945 4.56946 17.7858 4.5006 18.1698L3.27668 16.9459L4.55005 15.6725Z" fill="#0078D4"/>
<path fill-rule="evenodd" clip-rule="evenodd" d="M28.6384 15.358C28.6384 15.3796 28.6209 15.3971 28.5993 15.3971H24.2071C24.1963 15.3971 24.1875 15.4058 24.1875 15.4166V18.2571C24.1875 18.2679 24.1963 18.2766 24.2071 18.2766H28.5993C28.6209 18.2766 28.6384 18.2941 28.6384 18.3157V19.8563C28.6384 19.926 28.7226 19.9609 28.7719 19.9117L31.71 16.9735C31.7253 16.9583 31.7253 16.9335 31.71 16.9182L28.7719 13.9801C28.7226 13.9308 28.6384 13.9657 28.6384 14.0354V15.358ZM29.3581 15.6725C29.2347 15.97 28.9414 16.1793 28.5993 16.1793H24.9697V17.4945H28.5993C29.003 17.4945 29.3387 17.7858 29.4076 18.1698L30.6315 16.9459L29.3581 15.6725Z" fill="#0078D4"/>
</svg>
