<svg width="18" height="19" viewBox="0 0 18 19" fill="none" xmlns="http://www.w3.org/2000/svg">
<g id="wpf:search" clip-path="url(#clip0_3137_4152)">
<path id="Vector" d="M6.92252 0.167969C6.03035 0.167696 5.14687 0.343209 4.32256 0.68448C3.49824 1.02575 2.74924 1.52609 2.11835 2.15692C1.48746 2.78775 0.987038 3.5367 0.645683 4.36098C0.304328 5.18526 0.128725 6.06872 0.128907 6.96089C0.128634 7.85312 0.304169 8.73666 0.645484 9.56102C0.986798 10.3854 1.4872 11.1344 2.1181 11.7653C2.749 12.3962 3.49803 12.8966 4.3224 13.2379C5.14676 13.5792 6.0303 13.7548 6.92252 13.7545C8.50791 13.7545 9.96383 13.193 11.12 12.2834L11.7258 12.8891C11.6014 13.1308 11.5573 13.4059 11.6 13.6743C11.6427 13.9428 11.77 14.1906 11.9632 14.3817L15.1437 17.5837C15.6373 18.078 16.4452 18.078 16.9395 17.5837L17.5453 16.9779C17.7825 16.7392 17.9156 16.4164 17.9156 16.08C17.9156 15.7435 17.7825 15.4207 17.5453 15.182L14.3434 12.0016C14.1511 11.8092 13.9018 11.6843 13.6326 11.6453C13.3635 11.6064 13.0889 11.6556 12.8501 11.7856L12.2443 11.1798C13.0372 10.1792 13.5321 8.97538 13.6722 7.70639C13.8123 6.4374 13.592 5.15461 13.0365 4.00511C12.4809 2.8556 11.6127 1.88592 10.5313 1.20725C9.44997 0.528572 8.19922 0.16838 6.92252 0.167969ZM6.92252 1.42243C8.39141 1.42243 9.80014 2.00595 10.8388 3.04461C11.8775 4.08327 12.461 5.492 12.461 6.96089C12.461 8.42978 11.8775 9.83851 10.8388 10.8772C9.80014 11.9158 8.39141 12.4994 6.92252 12.4994C5.45363 12.4994 4.0449 11.9158 3.00624 10.8772C1.96758 9.83851 1.38406 8.42978 1.38406 6.96089C1.38406 5.492 1.96758 4.08327 3.00624 3.04461C4.0449 2.00595 5.45363 1.42243 6.92252 1.42243ZM3.41737 5.20866C3.04825 5.80681 2.85355 6.49617 2.85521 7.19905C2.85439 7.69649 2.95177 8.18921 3.14175 8.64894C3.33174 9.10868 3.6106 9.5264 3.96235 9.87815C4.31409 10.2299 4.73181 10.5088 5.19155 10.6987C5.65128 10.8887 6.144 10.9861 6.64145 10.9853C7.42357 10.9844 8.18645 10.7427 8.82637 10.293C8.65379 10.3092 8.48046 10.3161 8.30714 10.3137C7.6646 10.3154 7.02807 10.19 6.43412 9.94494C5.84017 9.69983 5.3005 9.33978 4.84613 8.88547C4.39175 8.43116 4.03162 7.89154 3.78643 7.29763C3.54124 6.70371 3.41582 6.0672 3.41737 5.42466C3.41737 5.35266 3.41391 5.28066 3.41737 5.20866Z" fill="white"/>
</g>
<defs>
<clipPath id="clip0_3137_4152">
<rect width="18" height="18" fill="white" transform="translate(0 0.0380859)"/>
</clipPath>
</defs>
</svg>
